%TF.GenerationSoftware,KiCad,Pcbnew,9.0.1*%
%TF.CreationDate,2025-12-24T17:34:11-06:00*%
%TF.ProjectId,opensync_prototype,6f70656e-7379-46e6-935f-70726f746f74,0.1*%
%TF.SameCoordinates,Original*%
%TF.FileFunction,Soldermask,Bot*%
%TF.FilePolarity,Negative*%
%FSLAX46Y46*%
G04 Gerber Fmt 4.6, Leading zero omitted, Abs format (unit mm)*
G04 Created by KiCad (PCBNEW 9.0.1) date 2025-12-24 17:34:11*
%MOMM*%
%LPD*%
G01*
G04 APERTURE LIST*
%ADD10C,3.200000*%
%ADD11C,1.632000*%
%ADD12C,3.520000*%
%ADD13C,0.600000*%
%ADD14C,2.004000*%
%ADD15C,2.754000*%
G04 APERTURE END LIST*
D10*
%TO.C,H4*%
X66000000Y-141000000D03*
%TD*%
D11*
%TO.C,J1*%
X129450000Y-58240000D03*
X131950000Y-58240000D03*
X131950000Y-56240000D03*
X129450000Y-56240000D03*
D12*
X136720000Y-53530000D03*
X124680000Y-53530000D03*
%TD*%
D10*
%TO.C,H1*%
X66000000Y-49000000D03*
%TD*%
%TO.C,H3*%
X213000000Y-141000000D03*
%TD*%
D13*
%TO.C,U2*%
X129866667Y-93466667D03*
X129866667Y-94600000D03*
X129866667Y-95733333D03*
X131000000Y-93466667D03*
X131000000Y-94600000D03*
X131000000Y-95733333D03*
X132133333Y-93466667D03*
X132133333Y-94600000D03*
X132133333Y-95733333D03*
%TD*%
D10*
%TO.C,H2*%
X213000000Y-49000000D03*
%TD*%
D14*
%TO.C,J6*%
X127000000Y-139000000D03*
D15*
X129540000Y-136460000D03*
X124460000Y-136460000D03*
X124460000Y-141540000D03*
X129540000Y-141540000D03*
%TD*%
D14*
%TO.C,J10*%
X187000000Y-139000000D03*
D15*
X189540000Y-136460000D03*
X184460000Y-136460000D03*
X184460000Y-141540000D03*
X189540000Y-141540000D03*
%TD*%
D14*
%TO.C,J9*%
X172000000Y-139000000D03*
D15*
X174540000Y-136460000D03*
X169460000Y-136460000D03*
X169460000Y-141540000D03*
X174540000Y-141540000D03*
%TD*%
D14*
%TO.C,J4*%
X97000000Y-139000000D03*
D15*
X99540000Y-136460000D03*
X94460000Y-136460000D03*
X94460000Y-141540000D03*
X99540000Y-141540000D03*
%TD*%
D14*
%TO.C,J8*%
X157000000Y-139000000D03*
D15*
X159540000Y-136460000D03*
X154460000Y-136460000D03*
X154460000Y-141540000D03*
X159540000Y-141540000D03*
%TD*%
D14*
%TO.C,J11*%
X202000000Y-139000000D03*
D15*
X204540000Y-136460000D03*
X199460000Y-136460000D03*
X199460000Y-141540000D03*
X204540000Y-141540000D03*
%TD*%
D14*
%TO.C,J2*%
X77000000Y-139000000D03*
D15*
X79540000Y-136460000D03*
X74460000Y-136460000D03*
X74460000Y-141540000D03*
X79540000Y-141540000D03*
%TD*%
D14*
%TO.C,J7*%
X142000000Y-139000000D03*
D15*
X144540000Y-136460000D03*
X139460000Y-136460000D03*
X139460000Y-141540000D03*
X144540000Y-141540000D03*
%TD*%
D14*
%TO.C,J5*%
X112000000Y-139000000D03*
D15*
X114540000Y-136460000D03*
X109460000Y-136460000D03*
X109460000Y-141540000D03*
X114540000Y-141540000D03*
%TD*%
M02*
