%TF.GenerationSoftware,KiCad,Pcbnew,9.0.1*%
%TF.CreationDate,2025-12-24T17:34:11-06:00*%
%TF.ProjectId,opensync_prototype,6f70656e-7379-46e6-935f-70726f746f74,0.1*%
%TF.SameCoordinates,Original*%
%TF.FileFunction,Copper,L3,Inr*%
%TF.FilePolarity,Positive*%
%FSLAX46Y46*%
G04 Gerber Fmt 4.6, Leading zero omitted, Abs format (unit mm)*
G04 Created by KiCad (PCBNEW 9.0.1) date 2025-12-24 17:34:11*
%MOMM*%
%LPD*%
G01*
G04 APERTURE LIST*
%TA.AperFunction,ComponentPad*%
%ADD10C,1.428000*%
%TD*%
%TA.AperFunction,ComponentPad*%
%ADD11C,3.316000*%
%TD*%
%TA.AperFunction,ComponentPad*%
%ADD12C,0.600000*%
%TD*%
%TA.AperFunction,ComponentPad*%
%ADD13C,1.800000*%
%TD*%
%TA.AperFunction,ComponentPad*%
%ADD14C,2.550000*%
%TD*%
%TA.AperFunction,ViaPad*%
%ADD15C,0.600000*%
%TD*%
G04 APERTURE END LIST*
D10*
%TO.N,VBUS*%
%TO.C,J1*%
X129450000Y-58240000D03*
%TO.N,/Power and Data/USB_D-*%
X131950000Y-58240000D03*
%TO.N,/Power and Data/USB_D+*%
X131950000Y-56240000D03*
%TO.N,GND_BUS*%
X129450000Y-56240000D03*
D11*
X136720000Y-53530000D03*
X124680000Y-53530000D03*
%TD*%
D12*
%TO.N,GND*%
%TO.C,U2*%
X129866667Y-93466667D03*
X129866667Y-94600000D03*
X129866667Y-95733333D03*
X131000000Y-93466667D03*
X131000000Y-94600000D03*
X131000000Y-95733333D03*
X132133333Y-93466667D03*
X132133333Y-94600000D03*
X132133333Y-95733333D03*
%TD*%
D13*
%TO.N,Net-(J6-Pad1)*%
%TO.C,J6*%
X127000000Y-139000000D03*
D14*
%TO.N,GND*%
X129540000Y-136460000D03*
X124460000Y-136460000D03*
X124460000Y-141540000D03*
X129540000Y-141540000D03*
%TD*%
D13*
%TO.N,Net-(J10-Pad1)*%
%TO.C,J10*%
X187000000Y-139000000D03*
D14*
%TO.N,GND*%
X189540000Y-136460000D03*
X184460000Y-136460000D03*
X184460000Y-141540000D03*
X189540000Y-141540000D03*
%TD*%
D13*
%TO.N,Net-(J9-Pad1)*%
%TO.C,J9*%
X172000000Y-139000000D03*
D14*
%TO.N,GND*%
X174540000Y-136460000D03*
X169460000Y-136460000D03*
X169460000Y-141540000D03*
X174540000Y-141540000D03*
%TD*%
D13*
%TO.N,Net-(J4-Pad1)*%
%TO.C,J4*%
X97000000Y-139000000D03*
D14*
%TO.N,GND*%
X99540000Y-136460000D03*
X94460000Y-136460000D03*
X94460000Y-141540000D03*
X99540000Y-141540000D03*
%TD*%
D13*
%TO.N,Net-(J8-Pad1)*%
%TO.C,J8*%
X157000000Y-139000000D03*
D14*
%TO.N,GND*%
X159540000Y-136460000D03*
X154460000Y-136460000D03*
X154460000Y-141540000D03*
X159540000Y-141540000D03*
%TD*%
D13*
%TO.N,Net-(J11-Pad1)*%
%TO.C,J11*%
X202000000Y-139000000D03*
D14*
%TO.N,GND*%
X204540000Y-136460000D03*
X199460000Y-136460000D03*
X199460000Y-141540000D03*
X204540000Y-141540000D03*
%TD*%
D13*
%TO.N,Net-(J2-Pad1)*%
%TO.C,J2*%
X77000000Y-139000000D03*
D14*
%TO.N,GND*%
X79540000Y-136460000D03*
X74460000Y-136460000D03*
X74460000Y-141540000D03*
X79540000Y-141540000D03*
%TD*%
D13*
%TO.N,Net-(J7-Pad1)*%
%TO.C,J7*%
X142000000Y-139000000D03*
D14*
%TO.N,GND*%
X144540000Y-136460000D03*
X139460000Y-136460000D03*
X139460000Y-141540000D03*
X144540000Y-141540000D03*
%TD*%
D13*
%TO.N,Net-(J5-Pad1)*%
%TO.C,J5*%
X112000000Y-139000000D03*
D14*
%TO.N,GND*%
X114540000Y-136460000D03*
X109460000Y-136460000D03*
X109460000Y-141540000D03*
X114540000Y-141540000D03*
%TD*%
D15*
%TO.N,+1V1*%
X132750000Y-87750000D03*
X132000000Y-101500000D03*
X133250000Y-94400000D03*
X128750000Y-94400000D03*
X132750000Y-92350000D03*
X124350000Y-94400000D03*
X137400000Y-94400000D03*
X132000000Y-96850000D03*
X132750000Y-87150000D03*
%TO.N,+5V*%
X205200000Y-132400000D03*
X130200000Y-132400000D03*
X175200000Y-132400000D03*
X145200000Y-132400000D03*
X159300000Y-73100000D03*
X100200000Y-132400000D03*
X115200000Y-132400000D03*
X160200000Y-132400000D03*
X190200000Y-132400000D03*
%TO.N,/Microcontroller and Ext. Clock/RUN*%
X99600000Y-98900000D03*
X132800000Y-98550000D03*
%TD*%
%TA.AperFunction,Conductor*%
%TO.N,+5V*%
G36*
X214003234Y-46000712D02*
G01*
X214254517Y-46017181D01*
X214267342Y-46018870D01*
X214511150Y-46067366D01*
X214523650Y-46070715D01*
X214645120Y-46111949D01*
X214759033Y-46150618D01*
X214770996Y-46155574D01*
X214993929Y-46265512D01*
X215005145Y-46271987D01*
X215211824Y-46410086D01*
X215222097Y-46417969D01*
X215408981Y-46581861D01*
X215418138Y-46591018D01*
X215582030Y-46777902D01*
X215589913Y-46788175D01*
X215728012Y-46994854D01*
X215734487Y-47006070D01*
X215844425Y-47229003D01*
X215849381Y-47240966D01*
X215929282Y-47476344D01*
X215932634Y-47488853D01*
X215981128Y-47732650D01*
X215982818Y-47745489D01*
X215999288Y-47996765D01*
X215999500Y-48003240D01*
X215999500Y-141996759D01*
X215999288Y-142003234D01*
X215982818Y-142254510D01*
X215981128Y-142267349D01*
X215932634Y-142511146D01*
X215929282Y-142523655D01*
X215849381Y-142759033D01*
X215844425Y-142770996D01*
X215734487Y-142993929D01*
X215728012Y-143005145D01*
X215589913Y-143211824D01*
X215582030Y-143222097D01*
X215418138Y-143408981D01*
X215408981Y-143418138D01*
X215222097Y-143582030D01*
X215211824Y-143589913D01*
X215005145Y-143728012D01*
X214993929Y-143734487D01*
X214770996Y-143844425D01*
X214759033Y-143849381D01*
X214523655Y-143929282D01*
X214511146Y-143932634D01*
X214267349Y-143981128D01*
X214254510Y-143982818D01*
X214003234Y-143999288D01*
X213996759Y-143999500D01*
X65003241Y-143999500D01*
X64996766Y-143999288D01*
X64745489Y-143982818D01*
X64732650Y-143981128D01*
X64488853Y-143932634D01*
X64476344Y-143929282D01*
X64240966Y-143849381D01*
X64229003Y-143844425D01*
X64006070Y-143734487D01*
X63994854Y-143728012D01*
X63788175Y-143589913D01*
X63777902Y-143582030D01*
X63591018Y-143418138D01*
X63581861Y-143408981D01*
X63417969Y-143222097D01*
X63410086Y-143211824D01*
X63271987Y-143005145D01*
X63265512Y-142993929D01*
X63155574Y-142770996D01*
X63150618Y-142759033D01*
X63070717Y-142523655D01*
X63067365Y-142511146D01*
X63018870Y-142267342D01*
X63017181Y-142254510D01*
X63015098Y-142222731D01*
X63000712Y-142003234D01*
X63000500Y-141996759D01*
X63000500Y-140878710D01*
X64149500Y-140878710D01*
X64149500Y-141121289D01*
X64181161Y-141361781D01*
X64181161Y-141361786D01*
X64243944Y-141596092D01*
X64243948Y-141596105D01*
X64336772Y-141820204D01*
X64336774Y-141820208D01*
X64336776Y-141820212D01*
X64440577Y-142000000D01*
X64458066Y-142030292D01*
X64605729Y-142222731D01*
X64605731Y-142222733D01*
X64605735Y-142222738D01*
X64777262Y-142394265D01*
X64777266Y-142394268D01*
X64777268Y-142394270D01*
X64937877Y-142517509D01*
X64969711Y-142541936D01*
X65179788Y-142663224D01*
X65179794Y-142663226D01*
X65179795Y-142663227D01*
X65216406Y-142678391D01*
X65403900Y-142756054D01*
X65638211Y-142818838D01*
X65878712Y-142850500D01*
X65878713Y-142850500D01*
X66121287Y-142850500D01*
X66121288Y-142850500D01*
X66361789Y-142818838D01*
X66596100Y-142756054D01*
X66820212Y-142663224D01*
X67030289Y-142541936D01*
X67222738Y-142394265D01*
X67394265Y-142222738D01*
X67541936Y-142030289D01*
X67663224Y-141820212D01*
X67756054Y-141596100D01*
X67802203Y-141423872D01*
X72984500Y-141423872D01*
X72984500Y-141656127D01*
X73020829Y-141885509D01*
X73059081Y-142003234D01*
X73092600Y-142106396D01*
X73130373Y-142180529D01*
X73198037Y-142313329D01*
X73272698Y-142416091D01*
X73334551Y-142501224D01*
X73498776Y-142665449D01*
X73623479Y-142756051D01*
X73686670Y-142801962D01*
X73753069Y-142835794D01*
X73893604Y-142907400D01*
X74114486Y-142979169D01*
X74114487Y-142979169D01*
X74114490Y-142979170D01*
X74343873Y-143015500D01*
X74343876Y-143015500D01*
X74576127Y-143015500D01*
X74805509Y-142979170D01*
X74805510Y-142979169D01*
X74805514Y-142979169D01*
X75026396Y-142907400D01*
X75233331Y-142801961D01*
X75421224Y-142665449D01*
X75585449Y-142501224D01*
X75721961Y-142313331D01*
X75827400Y-142106396D01*
X75899169Y-141885514D01*
X75935500Y-141656124D01*
X75935500Y-141423876D01*
X75935500Y-141423872D01*
X78064500Y-141423872D01*
X78064500Y-141656127D01*
X78100829Y-141885509D01*
X78139081Y-142003234D01*
X78172600Y-142106396D01*
X78210373Y-142180529D01*
X78278037Y-142313329D01*
X78352698Y-142416091D01*
X78414551Y-142501224D01*
X78578776Y-142665449D01*
X78703479Y-142756051D01*
X78766670Y-142801962D01*
X78833069Y-142835794D01*
X78973604Y-142907400D01*
X79194486Y-142979169D01*
X79194487Y-142979169D01*
X79194490Y-142979170D01*
X79423873Y-143015500D01*
X79423876Y-143015500D01*
X79656127Y-143015500D01*
X79885509Y-142979170D01*
X79885510Y-142979169D01*
X79885514Y-142979169D01*
X80106396Y-142907400D01*
X80313331Y-142801961D01*
X80501224Y-142665449D01*
X80665449Y-142501224D01*
X80801961Y-142313331D01*
X80907400Y-142106396D01*
X80979169Y-141885514D01*
X81015500Y-141656124D01*
X81015500Y-141423876D01*
X81015500Y-141423872D01*
X92984500Y-141423872D01*
X92984500Y-141656127D01*
X93020829Y-141885509D01*
X93059081Y-142003234D01*
X93092600Y-142106396D01*
X93130373Y-142180529D01*
X93198037Y-142313329D01*
X93272698Y-142416091D01*
X93334551Y-142501224D01*
X93498776Y-142665449D01*
X93623479Y-142756051D01*
X93686670Y-142801962D01*
X93753069Y-142835794D01*
X93893604Y-142907400D01*
X94114486Y-142979169D01*
X94114487Y-142979169D01*
X94114490Y-142979170D01*
X94343873Y-143015500D01*
X94343876Y-143015500D01*
X94576127Y-143015500D01*
X94805509Y-142979170D01*
X94805510Y-142979169D01*
X94805514Y-142979169D01*
X95026396Y-142907400D01*
X95233331Y-142801961D01*
X95421224Y-142665449D01*
X95585449Y-142501224D01*
X95721961Y-142313331D01*
X95827400Y-142106396D01*
X95899169Y-141885514D01*
X95935500Y-141656124D01*
X95935500Y-141423876D01*
X95935500Y-141423872D01*
X98064500Y-141423872D01*
X98064500Y-141656127D01*
X98100829Y-141885509D01*
X98139081Y-142003234D01*
X98172600Y-142106396D01*
X98210373Y-142180529D01*
X98278037Y-142313329D01*
X98352698Y-142416091D01*
X98414551Y-142501224D01*
X98578776Y-142665449D01*
X98703479Y-142756051D01*
X98766670Y-142801962D01*
X98833069Y-142835794D01*
X98973604Y-142907400D01*
X99194486Y-142979169D01*
X99194487Y-142979169D01*
X99194490Y-142979170D01*
X99423873Y-143015500D01*
X99423876Y-143015500D01*
X99656127Y-143015500D01*
X99885509Y-142979170D01*
X99885510Y-142979169D01*
X99885514Y-142979169D01*
X100106396Y-142907400D01*
X100313331Y-142801961D01*
X100501224Y-142665449D01*
X100665449Y-142501224D01*
X100801961Y-142313331D01*
X100907400Y-142106396D01*
X100979169Y-141885514D01*
X101015500Y-141656124D01*
X101015500Y-141423876D01*
X101015500Y-141423872D01*
X107984500Y-141423872D01*
X107984500Y-141656127D01*
X108020829Y-141885509D01*
X108059081Y-142003234D01*
X108092600Y-142106396D01*
X108130373Y-142180529D01*
X108198037Y-142313329D01*
X108272698Y-142416091D01*
X108334551Y-142501224D01*
X108498776Y-142665449D01*
X108623479Y-142756051D01*
X108686670Y-142801962D01*
X108753069Y-142835794D01*
X108893604Y-142907400D01*
X109114486Y-142979169D01*
X109114487Y-142979169D01*
X109114490Y-142979170D01*
X109343873Y-143015500D01*
X109343876Y-143015500D01*
X109576127Y-143015500D01*
X109805509Y-142979170D01*
X109805510Y-142979169D01*
X109805514Y-142979169D01*
X110026396Y-142907400D01*
X110233331Y-142801961D01*
X110421224Y-142665449D01*
X110585449Y-142501224D01*
X110721961Y-142313331D01*
X110827400Y-142106396D01*
X110899169Y-141885514D01*
X110935500Y-141656124D01*
X110935500Y-141423876D01*
X110935500Y-141423872D01*
X113064500Y-141423872D01*
X113064500Y-141656127D01*
X113100829Y-141885509D01*
X113139081Y-142003234D01*
X113172600Y-142106396D01*
X113210373Y-142180529D01*
X113278037Y-142313329D01*
X113352698Y-142416091D01*
X113414551Y-142501224D01*
X113578776Y-142665449D01*
X113703479Y-142756051D01*
X113766670Y-142801962D01*
X113833069Y-142835794D01*
X113973604Y-142907400D01*
X114194486Y-142979169D01*
X114194487Y-142979169D01*
X114194490Y-142979170D01*
X114423873Y-143015500D01*
X114423876Y-143015500D01*
X114656127Y-143015500D01*
X114885509Y-142979170D01*
X114885510Y-142979169D01*
X114885514Y-142979169D01*
X115106396Y-142907400D01*
X115313331Y-142801961D01*
X115501224Y-142665449D01*
X115665449Y-142501224D01*
X115801961Y-142313331D01*
X115907400Y-142106396D01*
X115979169Y-141885514D01*
X116015500Y-141656124D01*
X116015500Y-141423876D01*
X116015500Y-141423872D01*
X122984500Y-141423872D01*
X122984500Y-141656127D01*
X123020829Y-141885509D01*
X123059081Y-142003234D01*
X123092600Y-142106396D01*
X123130373Y-142180529D01*
X123198037Y-142313329D01*
X123272698Y-142416091D01*
X123334551Y-142501224D01*
X123498776Y-142665449D01*
X123623479Y-142756051D01*
X123686670Y-142801962D01*
X123753069Y-142835794D01*
X123893604Y-142907400D01*
X124114486Y-142979169D01*
X124114487Y-142979169D01*
X124114490Y-142979170D01*
X124343873Y-143015500D01*
X124343876Y-143015500D01*
X124576127Y-143015500D01*
X124805509Y-142979170D01*
X124805510Y-142979169D01*
X124805514Y-142979169D01*
X125026396Y-142907400D01*
X125233331Y-142801961D01*
X125421224Y-142665449D01*
X125585449Y-142501224D01*
X125721961Y-142313331D01*
X125827400Y-142106396D01*
X125899169Y-141885514D01*
X125935500Y-141656124D01*
X125935500Y-141423876D01*
X125935500Y-141423872D01*
X128064500Y-141423872D01*
X128064500Y-141656127D01*
X128100829Y-141885509D01*
X128139081Y-142003234D01*
X128172600Y-142106396D01*
X128210373Y-142180529D01*
X128278037Y-142313329D01*
X128352698Y-142416091D01*
X128414551Y-142501224D01*
X128578776Y-142665449D01*
X128703479Y-142756051D01*
X128766670Y-142801962D01*
X128833069Y-142835794D01*
X128973604Y-142907400D01*
X129194486Y-142979169D01*
X129194487Y-142979169D01*
X129194490Y-142979170D01*
X129423873Y-143015500D01*
X129423876Y-143015500D01*
X129656127Y-143015500D01*
X129885509Y-142979170D01*
X129885510Y-142979169D01*
X129885514Y-142979169D01*
X130106396Y-142907400D01*
X130313331Y-142801961D01*
X130501224Y-142665449D01*
X130665449Y-142501224D01*
X130801961Y-142313331D01*
X130907400Y-142106396D01*
X130979169Y-141885514D01*
X131015500Y-141656124D01*
X131015500Y-141423876D01*
X131015500Y-141423872D01*
X137984500Y-141423872D01*
X137984500Y-141656127D01*
X138020829Y-141885509D01*
X138059081Y-142003234D01*
X138092600Y-142106396D01*
X138130373Y-142180529D01*
X138198037Y-142313329D01*
X138272698Y-142416091D01*
X138334551Y-142501224D01*
X138498776Y-142665449D01*
X138623479Y-142756051D01*
X138686670Y-142801962D01*
X138753069Y-142835794D01*
X138893604Y-142907400D01*
X139114486Y-142979169D01*
X139114487Y-142979169D01*
X139114490Y-142979170D01*
X139343873Y-143015500D01*
X139343876Y-143015500D01*
X139576127Y-143015500D01*
X139805509Y-142979170D01*
X139805510Y-142979169D01*
X139805514Y-142979169D01*
X140026396Y-142907400D01*
X140233331Y-142801961D01*
X140421224Y-142665449D01*
X140585449Y-142501224D01*
X140721961Y-142313331D01*
X140827400Y-142106396D01*
X140899169Y-141885514D01*
X140935500Y-141656124D01*
X140935500Y-141423876D01*
X140935500Y-141423872D01*
X143064500Y-141423872D01*
X143064500Y-141656127D01*
X143100829Y-141885509D01*
X143139081Y-142003234D01*
X143172600Y-142106396D01*
X143210373Y-142180529D01*
X143278037Y-142313329D01*
X143352698Y-142416091D01*
X143414551Y-142501224D01*
X143578776Y-142665449D01*
X143703479Y-142756051D01*
X143766670Y-142801962D01*
X143833069Y-142835794D01*
X143973604Y-142907400D01*
X144194486Y-142979169D01*
X144194487Y-142979169D01*
X144194490Y-142979170D01*
X144423873Y-143015500D01*
X144423876Y-143015500D01*
X144656127Y-143015500D01*
X144885509Y-142979170D01*
X144885510Y-142979169D01*
X144885514Y-142979169D01*
X145106396Y-142907400D01*
X145313331Y-142801961D01*
X145501224Y-142665449D01*
X145665449Y-142501224D01*
X145801961Y-142313331D01*
X145907400Y-142106396D01*
X145979169Y-141885514D01*
X146015500Y-141656124D01*
X146015500Y-141423876D01*
X146015500Y-141423872D01*
X152984500Y-141423872D01*
X152984500Y-141656127D01*
X153020829Y-141885509D01*
X153059081Y-142003234D01*
X153092600Y-142106396D01*
X153130373Y-142180529D01*
X153198037Y-142313329D01*
X153272698Y-142416091D01*
X153334551Y-142501224D01*
X153498776Y-142665449D01*
X153623479Y-142756051D01*
X153686670Y-142801962D01*
X153753069Y-142835794D01*
X153893604Y-142907400D01*
X154114486Y-142979169D01*
X154114487Y-142979169D01*
X154114490Y-142979170D01*
X154343873Y-143015500D01*
X154343876Y-143015500D01*
X154576127Y-143015500D01*
X154805509Y-142979170D01*
X154805510Y-142979169D01*
X154805514Y-142979169D01*
X155026396Y-142907400D01*
X155233331Y-142801961D01*
X155421224Y-142665449D01*
X155585449Y-142501224D01*
X155721961Y-142313331D01*
X155827400Y-142106396D01*
X155899169Y-141885514D01*
X155935500Y-141656124D01*
X155935500Y-141423876D01*
X155935500Y-141423872D01*
X158064500Y-141423872D01*
X158064500Y-141656127D01*
X158100829Y-141885509D01*
X158139081Y-142003234D01*
X158172600Y-142106396D01*
X158210373Y-142180529D01*
X158278037Y-142313329D01*
X158352698Y-142416091D01*
X158414551Y-142501224D01*
X158578776Y-142665449D01*
X158703479Y-142756051D01*
X158766670Y-142801962D01*
X158833069Y-142835794D01*
X158973604Y-142907400D01*
X159194486Y-142979169D01*
X159194487Y-142979169D01*
X159194490Y-142979170D01*
X159423873Y-143015500D01*
X159423876Y-143015500D01*
X159656127Y-143015500D01*
X159885509Y-142979170D01*
X159885510Y-142979169D01*
X159885514Y-142979169D01*
X160106396Y-142907400D01*
X160313331Y-142801961D01*
X160501224Y-142665449D01*
X160665449Y-142501224D01*
X160801961Y-142313331D01*
X160907400Y-142106396D01*
X160979169Y-141885514D01*
X161015500Y-141656124D01*
X161015500Y-141423876D01*
X161015500Y-141423872D01*
X167984500Y-141423872D01*
X167984500Y-141656127D01*
X168020829Y-141885509D01*
X168059081Y-142003234D01*
X168092600Y-142106396D01*
X168130373Y-142180529D01*
X168198037Y-142313329D01*
X168272698Y-142416091D01*
X168334551Y-142501224D01*
X168498776Y-142665449D01*
X168623479Y-142756051D01*
X168686670Y-142801962D01*
X168753069Y-142835794D01*
X168893604Y-142907400D01*
X169114486Y-142979169D01*
X169114487Y-142979169D01*
X169114490Y-142979170D01*
X169343873Y-143015500D01*
X169343876Y-143015500D01*
X169576127Y-143015500D01*
X169805509Y-142979170D01*
X169805510Y-142979169D01*
X169805514Y-142979169D01*
X170026396Y-142907400D01*
X170233331Y-142801961D01*
X170421224Y-142665449D01*
X170585449Y-142501224D01*
X170721961Y-142313331D01*
X170827400Y-142106396D01*
X170899169Y-141885514D01*
X170935500Y-141656124D01*
X170935500Y-141423876D01*
X170935500Y-141423872D01*
X173064500Y-141423872D01*
X173064500Y-141656127D01*
X173100829Y-141885509D01*
X173139081Y-142003234D01*
X173172600Y-142106396D01*
X173210373Y-142180529D01*
X173278037Y-142313329D01*
X173352698Y-142416091D01*
X173414551Y-142501224D01*
X173578776Y-142665449D01*
X173703479Y-142756051D01*
X173766670Y-142801962D01*
X173833069Y-142835794D01*
X173973604Y-142907400D01*
X174194486Y-142979169D01*
X174194487Y-142979169D01*
X174194490Y-142979170D01*
X174423873Y-143015500D01*
X174423876Y-143015500D01*
X174656127Y-143015500D01*
X174885509Y-142979170D01*
X174885510Y-142979169D01*
X174885514Y-142979169D01*
X175106396Y-142907400D01*
X175313331Y-142801961D01*
X175501224Y-142665449D01*
X175665449Y-142501224D01*
X175801961Y-142313331D01*
X175907400Y-142106396D01*
X175979169Y-141885514D01*
X176015500Y-141656124D01*
X176015500Y-141423876D01*
X176015500Y-141423872D01*
X182984500Y-141423872D01*
X182984500Y-141656127D01*
X183020829Y-141885509D01*
X183059081Y-142003234D01*
X183092600Y-142106396D01*
X183130373Y-142180529D01*
X183198037Y-142313329D01*
X183272698Y-142416091D01*
X183334551Y-142501224D01*
X183498776Y-142665449D01*
X183623479Y-142756051D01*
X183686670Y-142801962D01*
X183753069Y-142835794D01*
X183893604Y-142907400D01*
X184114486Y-142979169D01*
X184114487Y-142979169D01*
X184114490Y-142979170D01*
X184343873Y-143015500D01*
X184343876Y-143015500D01*
X184576127Y-143015500D01*
X184805509Y-142979170D01*
X184805510Y-142979169D01*
X184805514Y-142979169D01*
X185026396Y-142907400D01*
X185233331Y-142801961D01*
X185421224Y-142665449D01*
X185585449Y-142501224D01*
X185721961Y-142313331D01*
X185827400Y-142106396D01*
X185899169Y-141885514D01*
X185935500Y-141656124D01*
X185935500Y-141423876D01*
X185935500Y-141423872D01*
X188064500Y-141423872D01*
X188064500Y-141656127D01*
X188100829Y-141885509D01*
X188139081Y-142003234D01*
X188172600Y-142106396D01*
X188210373Y-142180529D01*
X188278037Y-142313329D01*
X188352698Y-142416091D01*
X188414551Y-142501224D01*
X188578776Y-142665449D01*
X188703479Y-142756051D01*
X188766670Y-142801962D01*
X188833069Y-142835794D01*
X188973604Y-142907400D01*
X189194486Y-142979169D01*
X189194487Y-142979169D01*
X189194490Y-142979170D01*
X189423873Y-143015500D01*
X189423876Y-143015500D01*
X189656127Y-143015500D01*
X189885509Y-142979170D01*
X189885510Y-142979169D01*
X189885514Y-142979169D01*
X190106396Y-142907400D01*
X190313331Y-142801961D01*
X190501224Y-142665449D01*
X190665449Y-142501224D01*
X190801961Y-142313331D01*
X190907400Y-142106396D01*
X190979169Y-141885514D01*
X191015500Y-141656124D01*
X191015500Y-141423876D01*
X191015500Y-141423872D01*
X197984500Y-141423872D01*
X197984500Y-141656127D01*
X198020829Y-141885509D01*
X198059081Y-142003234D01*
X198092600Y-142106396D01*
X198130373Y-142180529D01*
X198198037Y-142313329D01*
X198272698Y-142416091D01*
X198334551Y-142501224D01*
X198498776Y-142665449D01*
X198623479Y-142756051D01*
X198686670Y-142801962D01*
X198753069Y-142835794D01*
X198893604Y-142907400D01*
X199114486Y-142979169D01*
X199114487Y-142979169D01*
X199114490Y-142979170D01*
X199343873Y-143015500D01*
X199343876Y-143015500D01*
X199576127Y-143015500D01*
X199805509Y-142979170D01*
X199805510Y-142979169D01*
X199805514Y-142979169D01*
X200026396Y-142907400D01*
X200233331Y-142801961D01*
X200421224Y-142665449D01*
X200585449Y-142501224D01*
X200721961Y-142313331D01*
X200827400Y-142106396D01*
X200899169Y-141885514D01*
X200935500Y-141656124D01*
X200935500Y-141423876D01*
X200935500Y-141423872D01*
X203064500Y-141423872D01*
X203064500Y-141656127D01*
X203100829Y-141885509D01*
X203139081Y-142003234D01*
X203172600Y-142106396D01*
X203210373Y-142180529D01*
X203278037Y-142313329D01*
X203352698Y-142416091D01*
X203414551Y-142501224D01*
X203578776Y-142665449D01*
X203703479Y-142756051D01*
X203766670Y-142801962D01*
X203833069Y-142835794D01*
X203973604Y-142907400D01*
X204194486Y-142979169D01*
X204194487Y-142979169D01*
X204194490Y-142979170D01*
X204423873Y-143015500D01*
X204423876Y-143015500D01*
X204656127Y-143015500D01*
X204885509Y-142979170D01*
X204885510Y-142979169D01*
X204885514Y-142979169D01*
X205106396Y-142907400D01*
X205313331Y-142801961D01*
X205501224Y-142665449D01*
X205665449Y-142501224D01*
X205801961Y-142313331D01*
X205907400Y-142106396D01*
X205979169Y-141885514D01*
X206015500Y-141656124D01*
X206015500Y-141423876D01*
X206015500Y-141423872D01*
X205979170Y-141194490D01*
X205907400Y-140973605D01*
X205907400Y-140973604D01*
X205859049Y-140878710D01*
X211149500Y-140878710D01*
X211149500Y-141121289D01*
X211181161Y-141361781D01*
X211181161Y-141361786D01*
X211243944Y-141596092D01*
X211243948Y-141596105D01*
X211336772Y-141820204D01*
X211336774Y-141820208D01*
X211336776Y-141820212D01*
X211440577Y-142000000D01*
X211458066Y-142030292D01*
X211605729Y-142222731D01*
X211605731Y-142222733D01*
X211605735Y-142222738D01*
X211777262Y-142394265D01*
X211777266Y-142394268D01*
X211777268Y-142394270D01*
X211937877Y-142517509D01*
X211969711Y-142541936D01*
X212179788Y-142663224D01*
X212179794Y-142663226D01*
X212179795Y-142663227D01*
X212216406Y-142678391D01*
X212403900Y-142756054D01*
X212638211Y-142818838D01*
X212878712Y-142850500D01*
X212878713Y-142850500D01*
X213121287Y-142850500D01*
X213121288Y-142850500D01*
X213361789Y-142818838D01*
X213596100Y-142756054D01*
X213820212Y-142663224D01*
X214030289Y-142541936D01*
X214222738Y-142394265D01*
X214394265Y-142222738D01*
X214541936Y-142030289D01*
X214663224Y-141820212D01*
X214756054Y-141596100D01*
X214818838Y-141361789D01*
X214850500Y-141121288D01*
X214850500Y-140878712D01*
X214818838Y-140638211D01*
X214756054Y-140403900D01*
X214663224Y-140179788D01*
X214541936Y-139969711D01*
X214394265Y-139777262D01*
X214222738Y-139605735D01*
X214222733Y-139605731D01*
X214222731Y-139605729D01*
X214030292Y-139458066D01*
X214030289Y-139458064D01*
X213820212Y-139336776D01*
X213820208Y-139336774D01*
X213820204Y-139336772D01*
X213596105Y-139243948D01*
X213596104Y-139243947D01*
X213596100Y-139243946D01*
X213361789Y-139181162D01*
X213361786Y-139181161D01*
X213361784Y-139181161D01*
X213121289Y-139149500D01*
X213121288Y-139149500D01*
X212878712Y-139149500D01*
X212878710Y-139149500D01*
X212638218Y-139181161D01*
X212638213Y-139181161D01*
X212403907Y-139243944D01*
X212403894Y-139243948D01*
X212179795Y-139336772D01*
X211969707Y-139458066D01*
X211777268Y-139605729D01*
X211605729Y-139777268D01*
X211458066Y-139969707D01*
X211336772Y-140179795D01*
X211243948Y-140403894D01*
X211243944Y-140403907D01*
X211181161Y-140638213D01*
X211181161Y-140638218D01*
X211149500Y-140878710D01*
X205859049Y-140878710D01*
X205801961Y-140766669D01*
X205665449Y-140578776D01*
X205501224Y-140414551D01*
X205416091Y-140352698D01*
X205313329Y-140278037D01*
X205180529Y-140210373D01*
X205106396Y-140172600D01*
X205106393Y-140172599D01*
X205106391Y-140172598D01*
X204885509Y-140100829D01*
X204656127Y-140064500D01*
X204656124Y-140064500D01*
X204423876Y-140064500D01*
X204423873Y-140064500D01*
X204194490Y-140100829D01*
X203973608Y-140172598D01*
X203766670Y-140278037D01*
X203578777Y-140414550D01*
X203414550Y-140578777D01*
X203278037Y-140766670D01*
X203172598Y-140973608D01*
X203100829Y-141194490D01*
X203064500Y-141423872D01*
X200935500Y-141423872D01*
X200899170Y-141194490D01*
X200827401Y-140973608D01*
X200827400Y-140973604D01*
X200755794Y-140833069D01*
X200721962Y-140766670D01*
X200628631Y-140638211D01*
X200585449Y-140578776D01*
X200421224Y-140414551D01*
X200336091Y-140352698D01*
X200233329Y-140278037D01*
X200100529Y-140210373D01*
X200026396Y-140172600D01*
X200026393Y-140172599D01*
X200026391Y-140172598D01*
X199805509Y-140100829D01*
X199576127Y-140064500D01*
X199576124Y-140064500D01*
X199343876Y-140064500D01*
X199343873Y-140064500D01*
X199114490Y-140100829D01*
X198893608Y-140172598D01*
X198686670Y-140278037D01*
X198498777Y-140414550D01*
X198334550Y-140578777D01*
X198198037Y-140766670D01*
X198092598Y-140973608D01*
X198020829Y-141194490D01*
X197984500Y-141423872D01*
X191015500Y-141423872D01*
X190979170Y-141194490D01*
X190907401Y-140973608D01*
X190907400Y-140973604D01*
X190835794Y-140833069D01*
X190801962Y-140766670D01*
X190708631Y-140638211D01*
X190665449Y-140578776D01*
X190501224Y-140414551D01*
X190416091Y-140352698D01*
X190313329Y-140278037D01*
X190180529Y-140210373D01*
X190106396Y-140172600D01*
X190106393Y-140172599D01*
X190106391Y-140172598D01*
X189885509Y-140100829D01*
X189656127Y-140064500D01*
X189656124Y-140064500D01*
X189423876Y-140064500D01*
X189423873Y-140064500D01*
X189194490Y-140100829D01*
X188973608Y-140172598D01*
X188766670Y-140278037D01*
X188578777Y-140414550D01*
X188414550Y-140578777D01*
X188278037Y-140766670D01*
X188172598Y-140973608D01*
X188100829Y-141194490D01*
X188064500Y-141423872D01*
X185935500Y-141423872D01*
X185899170Y-141194490D01*
X185827401Y-140973608D01*
X185827400Y-140973604D01*
X185755794Y-140833069D01*
X185721962Y-140766670D01*
X185628631Y-140638211D01*
X185585449Y-140578776D01*
X185421224Y-140414551D01*
X185336091Y-140352698D01*
X185233329Y-140278037D01*
X185100529Y-140210373D01*
X185026396Y-140172600D01*
X185026393Y-140172599D01*
X185026391Y-140172598D01*
X184805509Y-140100829D01*
X184576127Y-140064500D01*
X184576124Y-140064500D01*
X184343876Y-140064500D01*
X184343873Y-140064500D01*
X184114490Y-140100829D01*
X183893608Y-140172598D01*
X183686670Y-140278037D01*
X183498777Y-140414550D01*
X183334550Y-140578777D01*
X183198037Y-140766670D01*
X183092598Y-140973608D01*
X183020829Y-141194490D01*
X182984500Y-141423872D01*
X176015500Y-141423872D01*
X175979170Y-141194490D01*
X175907401Y-140973608D01*
X175907400Y-140973604D01*
X175835794Y-140833069D01*
X175801962Y-140766670D01*
X175708631Y-140638211D01*
X175665449Y-140578776D01*
X175501224Y-140414551D01*
X175416091Y-140352698D01*
X175313329Y-140278037D01*
X175180529Y-140210373D01*
X175106396Y-140172600D01*
X175106393Y-140172599D01*
X175106391Y-140172598D01*
X174885509Y-140100829D01*
X174656127Y-140064500D01*
X174656124Y-140064500D01*
X174423876Y-140064500D01*
X174423873Y-140064500D01*
X174194490Y-140100829D01*
X173973608Y-140172598D01*
X173766670Y-140278037D01*
X173578777Y-140414550D01*
X173414550Y-140578777D01*
X173278037Y-140766670D01*
X173172598Y-140973608D01*
X173100829Y-141194490D01*
X173064500Y-141423872D01*
X170935500Y-141423872D01*
X170899170Y-141194490D01*
X170827401Y-140973608D01*
X170827400Y-140973604D01*
X170755794Y-140833069D01*
X170721962Y-140766670D01*
X170628631Y-140638211D01*
X170585449Y-140578776D01*
X170421224Y-140414551D01*
X170336091Y-140352698D01*
X170233329Y-140278037D01*
X170100529Y-140210373D01*
X170026396Y-140172600D01*
X170026393Y-140172599D01*
X170026391Y-140172598D01*
X169805509Y-140100829D01*
X169576127Y-140064500D01*
X169576124Y-140064500D01*
X169343876Y-140064500D01*
X169343873Y-140064500D01*
X169114490Y-140100829D01*
X168893608Y-140172598D01*
X168686670Y-140278037D01*
X168498777Y-140414550D01*
X168334550Y-140578777D01*
X168198037Y-140766670D01*
X168092598Y-140973608D01*
X168020829Y-141194490D01*
X167984500Y-141423872D01*
X161015500Y-141423872D01*
X160979170Y-141194490D01*
X160907401Y-140973608D01*
X160907400Y-140973604D01*
X160835794Y-140833069D01*
X160801962Y-140766670D01*
X160708631Y-140638211D01*
X160665449Y-140578776D01*
X160501224Y-140414551D01*
X160416091Y-140352698D01*
X160313329Y-140278037D01*
X160180529Y-140210373D01*
X160106396Y-140172600D01*
X160106393Y-140172599D01*
X160106391Y-140172598D01*
X159885509Y-140100829D01*
X159656127Y-140064500D01*
X159656124Y-140064500D01*
X159423876Y-140064500D01*
X159423873Y-140064500D01*
X159194490Y-140100829D01*
X158973608Y-140172598D01*
X158766670Y-140278037D01*
X158578777Y-140414550D01*
X158414550Y-140578777D01*
X158278037Y-140766670D01*
X158172598Y-140973608D01*
X158100829Y-141194490D01*
X158064500Y-141423872D01*
X155935500Y-141423872D01*
X155899170Y-141194490D01*
X155827401Y-140973608D01*
X155827400Y-140973604D01*
X155755794Y-140833069D01*
X155721962Y-140766670D01*
X155628631Y-140638211D01*
X155585449Y-140578776D01*
X155421224Y-140414551D01*
X155336091Y-140352698D01*
X155233329Y-140278037D01*
X155100529Y-140210373D01*
X155026396Y-140172600D01*
X155026393Y-140172599D01*
X155026391Y-140172598D01*
X154805509Y-140100829D01*
X154576127Y-140064500D01*
X154576124Y-140064500D01*
X154343876Y-140064500D01*
X154343873Y-140064500D01*
X154114490Y-140100829D01*
X153893608Y-140172598D01*
X153686670Y-140278037D01*
X153498777Y-140414550D01*
X153334550Y-140578777D01*
X153198037Y-140766670D01*
X153092598Y-140973608D01*
X153020829Y-141194490D01*
X152984500Y-141423872D01*
X146015500Y-141423872D01*
X145979170Y-141194490D01*
X145907401Y-140973608D01*
X145907400Y-140973604D01*
X145835794Y-140833069D01*
X145801962Y-140766670D01*
X145708631Y-140638211D01*
X145665449Y-140578776D01*
X145501224Y-140414551D01*
X145416091Y-140352698D01*
X145313329Y-140278037D01*
X145180529Y-140210373D01*
X145106396Y-140172600D01*
X145106393Y-140172599D01*
X145106391Y-140172598D01*
X144885509Y-140100829D01*
X144656127Y-140064500D01*
X144656124Y-140064500D01*
X144423876Y-140064500D01*
X144423873Y-140064500D01*
X144194490Y-140100829D01*
X143973608Y-140172598D01*
X143766670Y-140278037D01*
X143578777Y-140414550D01*
X143414550Y-140578777D01*
X143278037Y-140766670D01*
X143172598Y-140973608D01*
X143100829Y-141194490D01*
X143064500Y-141423872D01*
X140935500Y-141423872D01*
X140899170Y-141194490D01*
X140827401Y-140973608D01*
X140827400Y-140973604D01*
X140755794Y-140833069D01*
X140721962Y-140766670D01*
X140628631Y-140638211D01*
X140585449Y-140578776D01*
X140421224Y-140414551D01*
X140336091Y-140352698D01*
X140233329Y-140278037D01*
X140100529Y-140210373D01*
X140026396Y-140172600D01*
X140026393Y-140172599D01*
X140026391Y-140172598D01*
X139805509Y-140100829D01*
X139576127Y-140064500D01*
X139576124Y-140064500D01*
X139343876Y-140064500D01*
X139343873Y-140064500D01*
X139114490Y-140100829D01*
X138893608Y-140172598D01*
X138686670Y-140278037D01*
X138498777Y-140414550D01*
X138334550Y-140578777D01*
X138198037Y-140766670D01*
X138092598Y-140973608D01*
X138020829Y-141194490D01*
X137984500Y-141423872D01*
X131015500Y-141423872D01*
X130979170Y-141194490D01*
X130907401Y-140973608D01*
X130907400Y-140973604D01*
X130835794Y-140833069D01*
X130801962Y-140766670D01*
X130708631Y-140638211D01*
X130665449Y-140578776D01*
X130501224Y-140414551D01*
X130416091Y-140352698D01*
X130313329Y-140278037D01*
X130180529Y-140210373D01*
X130106396Y-140172600D01*
X130106393Y-140172599D01*
X130106391Y-140172598D01*
X129885509Y-140100829D01*
X129656127Y-140064500D01*
X129656124Y-140064500D01*
X129423876Y-140064500D01*
X129423873Y-140064500D01*
X129194490Y-140100829D01*
X128973608Y-140172598D01*
X128766670Y-140278037D01*
X128578777Y-140414550D01*
X128414550Y-140578777D01*
X128278037Y-140766670D01*
X128172598Y-140973608D01*
X128100829Y-141194490D01*
X128064500Y-141423872D01*
X125935500Y-141423872D01*
X125899170Y-141194490D01*
X125827401Y-140973608D01*
X125827400Y-140973604D01*
X125755794Y-140833069D01*
X125721962Y-140766670D01*
X125628631Y-140638211D01*
X125585449Y-140578776D01*
X125421224Y-140414551D01*
X125336091Y-140352698D01*
X125233329Y-140278037D01*
X125100529Y-140210373D01*
X125026396Y-140172600D01*
X125026393Y-140172599D01*
X125026391Y-140172598D01*
X124805509Y-140100829D01*
X124576127Y-140064500D01*
X124576124Y-140064500D01*
X124343876Y-140064500D01*
X124343873Y-140064500D01*
X124114490Y-140100829D01*
X123893608Y-140172598D01*
X123686670Y-140278037D01*
X123498777Y-140414550D01*
X123334550Y-140578777D01*
X123198037Y-140766670D01*
X123092598Y-140973608D01*
X123020829Y-141194490D01*
X122984500Y-141423872D01*
X116015500Y-141423872D01*
X115979170Y-141194490D01*
X115907401Y-140973608D01*
X115907400Y-140973604D01*
X115835794Y-140833069D01*
X115801962Y-140766670D01*
X115708631Y-140638211D01*
X115665449Y-140578776D01*
X115501224Y-140414551D01*
X115416091Y-140352698D01*
X115313329Y-140278037D01*
X115180529Y-140210373D01*
X115106396Y-140172600D01*
X115106393Y-140172599D01*
X115106391Y-140172598D01*
X114885509Y-140100829D01*
X114656127Y-140064500D01*
X114656124Y-140064500D01*
X114423876Y-140064500D01*
X114423873Y-140064500D01*
X114194490Y-140100829D01*
X113973608Y-140172598D01*
X113766670Y-140278037D01*
X113578777Y-140414550D01*
X113414550Y-140578777D01*
X113278037Y-140766670D01*
X113172598Y-140973608D01*
X113100829Y-141194490D01*
X113064500Y-141423872D01*
X110935500Y-141423872D01*
X110899170Y-141194490D01*
X110827401Y-140973608D01*
X110827400Y-140973604D01*
X110755794Y-140833069D01*
X110721962Y-140766670D01*
X110628631Y-140638211D01*
X110585449Y-140578776D01*
X110421224Y-140414551D01*
X110336091Y-140352698D01*
X110233329Y-140278037D01*
X110100529Y-140210373D01*
X110026396Y-140172600D01*
X110026393Y-140172599D01*
X110026391Y-140172598D01*
X109805509Y-140100829D01*
X109576127Y-140064500D01*
X109576124Y-140064500D01*
X109343876Y-140064500D01*
X109343873Y-140064500D01*
X109114490Y-140100829D01*
X108893608Y-140172598D01*
X108686670Y-140278037D01*
X108498777Y-140414550D01*
X108334550Y-140578777D01*
X108198037Y-140766670D01*
X108092598Y-140973608D01*
X108020829Y-141194490D01*
X107984500Y-141423872D01*
X101015500Y-141423872D01*
X100979170Y-141194490D01*
X100907401Y-140973608D01*
X100907400Y-140973604D01*
X100835794Y-140833069D01*
X100801962Y-140766670D01*
X100708631Y-140638211D01*
X100665449Y-140578776D01*
X100501224Y-140414551D01*
X100416091Y-140352698D01*
X100313329Y-140278037D01*
X100180529Y-140210373D01*
X100106396Y-140172600D01*
X100106393Y-140172599D01*
X100106391Y-140172598D01*
X99885509Y-140100829D01*
X99656127Y-140064500D01*
X99656124Y-140064500D01*
X99423876Y-140064500D01*
X99423873Y-140064500D01*
X99194490Y-140100829D01*
X98973608Y-140172598D01*
X98766670Y-140278037D01*
X98578777Y-140414550D01*
X98414550Y-140578777D01*
X98278037Y-140766670D01*
X98172598Y-140973608D01*
X98100829Y-141194490D01*
X98064500Y-141423872D01*
X95935500Y-141423872D01*
X95899170Y-141194490D01*
X95827401Y-140973608D01*
X95827400Y-140973604D01*
X95755794Y-140833069D01*
X95721962Y-140766670D01*
X95628631Y-140638211D01*
X95585449Y-140578776D01*
X95421224Y-140414551D01*
X95336091Y-140352698D01*
X95233329Y-140278037D01*
X95100529Y-140210373D01*
X95026396Y-140172600D01*
X95026393Y-140172599D01*
X95026391Y-140172598D01*
X94805509Y-140100829D01*
X94576127Y-140064500D01*
X94576124Y-140064500D01*
X94343876Y-140064500D01*
X94343873Y-140064500D01*
X94114490Y-140100829D01*
X93893608Y-140172598D01*
X93686670Y-140278037D01*
X93498777Y-140414550D01*
X93334550Y-140578777D01*
X93198037Y-140766670D01*
X93092598Y-140973608D01*
X93020829Y-141194490D01*
X92984500Y-141423872D01*
X81015500Y-141423872D01*
X80979170Y-141194490D01*
X80907401Y-140973608D01*
X80907400Y-140973604D01*
X80835794Y-140833069D01*
X80801962Y-140766670D01*
X80708631Y-140638211D01*
X80665449Y-140578776D01*
X80501224Y-140414551D01*
X80416091Y-140352698D01*
X80313329Y-140278037D01*
X80180529Y-140210373D01*
X80106396Y-140172600D01*
X80106393Y-140172599D01*
X80106391Y-140172598D01*
X79885509Y-140100829D01*
X79656127Y-140064500D01*
X79656124Y-140064500D01*
X79423876Y-140064500D01*
X79423873Y-140064500D01*
X79194490Y-140100829D01*
X78973608Y-140172598D01*
X78766670Y-140278037D01*
X78578777Y-140414550D01*
X78414550Y-140578777D01*
X78278037Y-140766670D01*
X78172598Y-140973608D01*
X78100829Y-141194490D01*
X78064500Y-141423872D01*
X75935500Y-141423872D01*
X75899170Y-141194490D01*
X75827401Y-140973608D01*
X75827400Y-140973604D01*
X75755794Y-140833069D01*
X75721962Y-140766670D01*
X75628631Y-140638211D01*
X75585449Y-140578776D01*
X75421224Y-140414551D01*
X75336091Y-140352698D01*
X75233329Y-140278037D01*
X75100529Y-140210373D01*
X75026396Y-140172600D01*
X75026393Y-140172599D01*
X75026391Y-140172598D01*
X74805509Y-140100829D01*
X74576127Y-140064500D01*
X74576124Y-140064500D01*
X74343876Y-140064500D01*
X74343873Y-140064500D01*
X74114490Y-140100829D01*
X73893608Y-140172598D01*
X73686670Y-140278037D01*
X73498777Y-140414550D01*
X73334550Y-140578777D01*
X73198037Y-140766670D01*
X73092598Y-140973608D01*
X73020829Y-141194490D01*
X72984500Y-141423872D01*
X67802203Y-141423872D01*
X67818838Y-141361789D01*
X67850500Y-141121288D01*
X67850500Y-140878712D01*
X67818838Y-140638211D01*
X67756054Y-140403900D01*
X67663224Y-140179788D01*
X67541936Y-139969711D01*
X67394265Y-139777262D01*
X67222738Y-139605735D01*
X67222733Y-139605731D01*
X67222731Y-139605729D01*
X67030292Y-139458066D01*
X67030289Y-139458064D01*
X66820212Y-139336776D01*
X66820208Y-139336774D01*
X66820204Y-139336772D01*
X66596105Y-139243948D01*
X66596104Y-139243947D01*
X66596100Y-139243946D01*
X66361789Y-139181162D01*
X66361786Y-139181161D01*
X66361784Y-139181161D01*
X66121289Y-139149500D01*
X66121288Y-139149500D01*
X65878712Y-139149500D01*
X65878710Y-139149500D01*
X65638218Y-139181161D01*
X65638213Y-139181161D01*
X65403907Y-139243944D01*
X65403894Y-139243948D01*
X65179795Y-139336772D01*
X64969707Y-139458066D01*
X64777268Y-139605729D01*
X64605729Y-139777268D01*
X64458066Y-139969707D01*
X64336772Y-140179795D01*
X64243948Y-140403894D01*
X64243944Y-140403907D01*
X64181161Y-140638213D01*
X64181161Y-140638218D01*
X64149500Y-140878710D01*
X63000500Y-140878710D01*
X63000500Y-138913385D01*
X75899500Y-138913385D01*
X75899500Y-139086614D01*
X75926597Y-139257702D01*
X75926598Y-139257706D01*
X75980123Y-139422438D01*
X75980125Y-139422441D01*
X75980126Y-139422444D01*
X75980127Y-139422445D01*
X76058768Y-139576788D01*
X76160586Y-139716928D01*
X76283072Y-139839414D01*
X76423212Y-139941232D01*
X76577555Y-140019873D01*
X76577557Y-140019873D01*
X76577558Y-140019874D01*
X76577561Y-140019876D01*
X76742293Y-140073401D01*
X76742297Y-140073402D01*
X76913386Y-140100500D01*
X76913389Y-140100500D01*
X77086614Y-140100500D01*
X77257702Y-140073402D01*
X77257706Y-140073401D01*
X77422438Y-140019876D01*
X77422440Y-140019874D01*
X77422445Y-140019873D01*
X77576788Y-139941232D01*
X77716928Y-139839414D01*
X77839414Y-139716928D01*
X77941232Y-139576788D01*
X78019873Y-139422445D01*
X78019874Y-139422440D01*
X78019876Y-139422438D01*
X78073401Y-139257706D01*
X78073402Y-139257702D01*
X78100500Y-139086614D01*
X78100500Y-138913385D01*
X95899500Y-138913385D01*
X95899500Y-139086614D01*
X95926597Y-139257702D01*
X95926598Y-139257706D01*
X95980123Y-139422438D01*
X95980125Y-139422441D01*
X95980126Y-139422444D01*
X95980127Y-139422445D01*
X96058768Y-139576788D01*
X96160586Y-139716928D01*
X96283072Y-139839414D01*
X96423212Y-139941232D01*
X96577555Y-140019873D01*
X96577557Y-140019873D01*
X96577558Y-140019874D01*
X96577561Y-140019876D01*
X96742293Y-140073401D01*
X96742297Y-140073402D01*
X96913386Y-140100500D01*
X96913389Y-140100500D01*
X97086614Y-140100500D01*
X97257702Y-140073402D01*
X97257706Y-140073401D01*
X97422438Y-140019876D01*
X97422440Y-140019874D01*
X97422445Y-140019873D01*
X97576788Y-139941232D01*
X97716928Y-139839414D01*
X97839414Y-139716928D01*
X97941232Y-139576788D01*
X98019873Y-139422445D01*
X98019874Y-139422440D01*
X98019876Y-139422438D01*
X98073401Y-139257706D01*
X98073402Y-139257702D01*
X98100500Y-139086614D01*
X98100500Y-138913385D01*
X110899500Y-138913385D01*
X110899500Y-139086614D01*
X110926597Y-139257702D01*
X110926598Y-139257706D01*
X110980123Y-139422438D01*
X110980125Y-139422441D01*
X110980126Y-139422444D01*
X110980127Y-139422445D01*
X111058768Y-139576788D01*
X111160586Y-139716928D01*
X111283072Y-139839414D01*
X111423212Y-139941232D01*
X111577555Y-140019873D01*
X111577557Y-140019873D01*
X111577558Y-140019874D01*
X111577561Y-140019876D01*
X111742293Y-140073401D01*
X111742297Y-140073402D01*
X111913386Y-140100500D01*
X111913389Y-140100500D01*
X112086614Y-140100500D01*
X112257702Y-140073402D01*
X112257706Y-140073401D01*
X112422438Y-140019876D01*
X112422440Y-140019874D01*
X112422445Y-140019873D01*
X112576788Y-139941232D01*
X112716928Y-139839414D01*
X112839414Y-139716928D01*
X112941232Y-139576788D01*
X113019873Y-139422445D01*
X113019874Y-139422440D01*
X113019876Y-139422438D01*
X113073401Y-139257706D01*
X113073402Y-139257702D01*
X113100500Y-139086614D01*
X113100500Y-138913385D01*
X125899500Y-138913385D01*
X125899500Y-139086614D01*
X125926597Y-139257702D01*
X125926598Y-139257706D01*
X125980123Y-139422438D01*
X125980125Y-139422441D01*
X125980126Y-139422444D01*
X125980127Y-139422445D01*
X126058768Y-139576788D01*
X126160586Y-139716928D01*
X126283072Y-139839414D01*
X126423212Y-139941232D01*
X126577555Y-140019873D01*
X126577557Y-140019873D01*
X126577558Y-140019874D01*
X126577561Y-140019876D01*
X126742293Y-140073401D01*
X126742297Y-140073402D01*
X126913386Y-140100500D01*
X126913389Y-140100500D01*
X127086614Y-140100500D01*
X127257702Y-140073402D01*
X127257706Y-140073401D01*
X127422438Y-140019876D01*
X127422440Y-140019874D01*
X127422445Y-140019873D01*
X127576788Y-139941232D01*
X127716928Y-139839414D01*
X127839414Y-139716928D01*
X127941232Y-139576788D01*
X128019873Y-139422445D01*
X128019874Y-139422440D01*
X128019876Y-139422438D01*
X128073401Y-139257706D01*
X128073402Y-139257702D01*
X128100500Y-139086614D01*
X128100500Y-138913385D01*
X140899500Y-138913385D01*
X140899500Y-139086614D01*
X140926597Y-139257702D01*
X140926598Y-139257706D01*
X140980123Y-139422438D01*
X140980125Y-139422441D01*
X140980126Y-139422444D01*
X140980127Y-139422445D01*
X141058768Y-139576788D01*
X141160586Y-139716928D01*
X141283072Y-139839414D01*
X141423212Y-139941232D01*
X141577555Y-140019873D01*
X141577557Y-140019873D01*
X141577558Y-140019874D01*
X141577561Y-140019876D01*
X141742293Y-140073401D01*
X141742297Y-140073402D01*
X141913386Y-140100500D01*
X141913389Y-140100500D01*
X142086614Y-140100500D01*
X142257702Y-140073402D01*
X142257706Y-140073401D01*
X142422438Y-140019876D01*
X142422440Y-140019874D01*
X142422445Y-140019873D01*
X142576788Y-139941232D01*
X142716928Y-139839414D01*
X142839414Y-139716928D01*
X142941232Y-139576788D01*
X143019873Y-139422445D01*
X143019874Y-139422440D01*
X143019876Y-139422438D01*
X143073401Y-139257706D01*
X143073402Y-139257702D01*
X143100500Y-139086614D01*
X143100500Y-138913385D01*
X155899500Y-138913385D01*
X155899500Y-139086614D01*
X155926597Y-139257702D01*
X155926598Y-139257706D01*
X155980123Y-139422438D01*
X155980125Y-139422441D01*
X155980126Y-139422444D01*
X155980127Y-139422445D01*
X156058768Y-139576788D01*
X156160586Y-139716928D01*
X156283072Y-139839414D01*
X156423212Y-139941232D01*
X156577555Y-140019873D01*
X156577557Y-140019873D01*
X156577558Y-140019874D01*
X156577561Y-140019876D01*
X156742293Y-140073401D01*
X156742297Y-140073402D01*
X156913386Y-140100500D01*
X156913389Y-140100500D01*
X157086614Y-140100500D01*
X157257702Y-140073402D01*
X157257706Y-140073401D01*
X157422438Y-140019876D01*
X157422440Y-140019874D01*
X157422445Y-140019873D01*
X157576788Y-139941232D01*
X157716928Y-139839414D01*
X157839414Y-139716928D01*
X157941232Y-139576788D01*
X158019873Y-139422445D01*
X158019874Y-139422440D01*
X158019876Y-139422438D01*
X158073401Y-139257706D01*
X158073402Y-139257702D01*
X158100500Y-139086614D01*
X158100500Y-138913385D01*
X170899500Y-138913385D01*
X170899500Y-139086614D01*
X170926597Y-139257702D01*
X170926598Y-139257706D01*
X170980123Y-139422438D01*
X170980125Y-139422441D01*
X170980126Y-139422444D01*
X170980127Y-139422445D01*
X171058768Y-139576788D01*
X171160586Y-139716928D01*
X171283072Y-139839414D01*
X171423212Y-139941232D01*
X171577555Y-140019873D01*
X171577557Y-140019873D01*
X171577558Y-140019874D01*
X171577561Y-140019876D01*
X171742293Y-140073401D01*
X171742297Y-140073402D01*
X171913386Y-140100500D01*
X171913389Y-140100500D01*
X172086614Y-140100500D01*
X172257702Y-140073402D01*
X172257706Y-140073401D01*
X172422438Y-140019876D01*
X172422440Y-140019874D01*
X172422445Y-140019873D01*
X172576788Y-139941232D01*
X172716928Y-139839414D01*
X172839414Y-139716928D01*
X172941232Y-139576788D01*
X173019873Y-139422445D01*
X173019874Y-139422440D01*
X173019876Y-139422438D01*
X173073401Y-139257706D01*
X173073402Y-139257702D01*
X173100500Y-139086614D01*
X173100500Y-138913385D01*
X185899500Y-138913385D01*
X185899500Y-139086614D01*
X185926597Y-139257702D01*
X185926598Y-139257706D01*
X185980123Y-139422438D01*
X185980125Y-139422441D01*
X185980126Y-139422444D01*
X185980127Y-139422445D01*
X186058768Y-139576788D01*
X186160586Y-139716928D01*
X186283072Y-139839414D01*
X186423212Y-139941232D01*
X186577555Y-140019873D01*
X186577557Y-140019873D01*
X186577558Y-140019874D01*
X186577561Y-140019876D01*
X186742293Y-140073401D01*
X186742297Y-140073402D01*
X186913386Y-140100500D01*
X186913389Y-140100500D01*
X187086614Y-140100500D01*
X187257702Y-140073402D01*
X187257706Y-140073401D01*
X187422438Y-140019876D01*
X187422440Y-140019874D01*
X187422445Y-140019873D01*
X187576788Y-139941232D01*
X187716928Y-139839414D01*
X187839414Y-139716928D01*
X187941232Y-139576788D01*
X188019873Y-139422445D01*
X188019874Y-139422440D01*
X188019876Y-139422438D01*
X188073401Y-139257706D01*
X188073402Y-139257702D01*
X188100500Y-139086614D01*
X188100500Y-138913385D01*
X200899500Y-138913385D01*
X200899500Y-139086614D01*
X200926597Y-139257702D01*
X200926598Y-139257706D01*
X200980123Y-139422438D01*
X200980125Y-139422441D01*
X200980126Y-139422444D01*
X200980127Y-139422445D01*
X201058768Y-139576788D01*
X201160586Y-139716928D01*
X201283072Y-139839414D01*
X201423212Y-139941232D01*
X201577555Y-140019873D01*
X201577557Y-140019873D01*
X201577558Y-140019874D01*
X201577561Y-140019876D01*
X201742293Y-140073401D01*
X201742297Y-140073402D01*
X201913386Y-140100500D01*
X201913389Y-140100500D01*
X202086614Y-140100500D01*
X202257702Y-140073402D01*
X202257706Y-140073401D01*
X202422438Y-140019876D01*
X202422440Y-140019874D01*
X202422445Y-140019873D01*
X202576788Y-139941232D01*
X202716928Y-139839414D01*
X202839414Y-139716928D01*
X202941232Y-139576788D01*
X203019873Y-139422445D01*
X203019874Y-139422440D01*
X203019876Y-139422438D01*
X203073401Y-139257706D01*
X203073402Y-139257702D01*
X203100500Y-139086614D01*
X203100500Y-138913385D01*
X203073402Y-138742297D01*
X203073401Y-138742293D01*
X203019876Y-138577561D01*
X203019874Y-138577558D01*
X203019873Y-138577557D01*
X203019873Y-138577555D01*
X202941232Y-138423212D01*
X202839414Y-138283072D01*
X202716928Y-138160586D01*
X202576788Y-138058768D01*
X202576787Y-138058767D01*
X202576785Y-138058766D01*
X202422441Y-137980125D01*
X202422438Y-137980123D01*
X202257706Y-137926598D01*
X202257702Y-137926597D01*
X202086614Y-137899500D01*
X202086611Y-137899500D01*
X201913389Y-137899500D01*
X201913386Y-137899500D01*
X201742297Y-137926597D01*
X201742293Y-137926598D01*
X201577561Y-137980123D01*
X201577558Y-137980125D01*
X201423214Y-138058766D01*
X201283073Y-138160585D01*
X201160585Y-138283073D01*
X201058766Y-138423214D01*
X200980125Y-138577558D01*
X200980123Y-138577561D01*
X200926598Y-138742293D01*
X200926597Y-138742297D01*
X200899500Y-138913385D01*
X188100500Y-138913385D01*
X188073402Y-138742297D01*
X188073401Y-138742293D01*
X188019876Y-138577561D01*
X188019874Y-138577558D01*
X188019873Y-138577557D01*
X188019873Y-138577555D01*
X187941232Y-138423212D01*
X187839414Y-138283072D01*
X187716928Y-138160586D01*
X187576788Y-138058768D01*
X187576787Y-138058767D01*
X187576785Y-138058766D01*
X187422441Y-137980125D01*
X187422438Y-137980123D01*
X187257706Y-137926598D01*
X187257702Y-137926597D01*
X187086614Y-137899500D01*
X187086611Y-137899500D01*
X186913389Y-137899500D01*
X186913386Y-137899500D01*
X186742297Y-137926597D01*
X186742293Y-137926598D01*
X186577561Y-137980123D01*
X186577558Y-137980125D01*
X186423214Y-138058766D01*
X186283073Y-138160585D01*
X186160585Y-138283073D01*
X186058766Y-138423214D01*
X185980125Y-138577558D01*
X185980123Y-138577561D01*
X185926598Y-138742293D01*
X185926597Y-138742297D01*
X185899500Y-138913385D01*
X173100500Y-138913385D01*
X173073402Y-138742297D01*
X173073401Y-138742293D01*
X173019876Y-138577561D01*
X173019874Y-138577558D01*
X173019873Y-138577557D01*
X173019873Y-138577555D01*
X172941232Y-138423212D01*
X172839414Y-138283072D01*
X172716928Y-138160586D01*
X172576788Y-138058768D01*
X172576787Y-138058767D01*
X172576785Y-138058766D01*
X172422441Y-137980125D01*
X172422438Y-137980123D01*
X172257706Y-137926598D01*
X172257702Y-137926597D01*
X172086614Y-137899500D01*
X172086611Y-137899500D01*
X171913389Y-137899500D01*
X171913386Y-137899500D01*
X171742297Y-137926597D01*
X171742293Y-137926598D01*
X171577561Y-137980123D01*
X171577558Y-137980125D01*
X171423214Y-138058766D01*
X171283073Y-138160585D01*
X171160585Y-138283073D01*
X171058766Y-138423214D01*
X170980125Y-138577558D01*
X170980123Y-138577561D01*
X170926598Y-138742293D01*
X170926597Y-138742297D01*
X170899500Y-138913385D01*
X158100500Y-138913385D01*
X158073402Y-138742297D01*
X158073401Y-138742293D01*
X158019876Y-138577561D01*
X158019874Y-138577558D01*
X158019873Y-138577557D01*
X158019873Y-138577555D01*
X157941232Y-138423212D01*
X157839414Y-138283072D01*
X157716928Y-138160586D01*
X157576788Y-138058768D01*
X157576787Y-138058767D01*
X157576785Y-138058766D01*
X157422441Y-137980125D01*
X157422438Y-137980123D01*
X157257706Y-137926598D01*
X157257702Y-137926597D01*
X157086614Y-137899500D01*
X157086611Y-137899500D01*
X156913389Y-137899500D01*
X156913386Y-137899500D01*
X156742297Y-137926597D01*
X156742293Y-137926598D01*
X156577561Y-137980123D01*
X156577558Y-137980125D01*
X156423214Y-138058766D01*
X156283073Y-138160585D01*
X156160585Y-138283073D01*
X156058766Y-138423214D01*
X155980125Y-138577558D01*
X155980123Y-138577561D01*
X155926598Y-138742293D01*
X155926597Y-138742297D01*
X155899500Y-138913385D01*
X143100500Y-138913385D01*
X143073402Y-138742297D01*
X143073401Y-138742293D01*
X143019876Y-138577561D01*
X143019874Y-138577558D01*
X143019873Y-138577557D01*
X143019873Y-138577555D01*
X142941232Y-138423212D01*
X142839414Y-138283072D01*
X142716928Y-138160586D01*
X142576788Y-138058768D01*
X142576787Y-138058767D01*
X142576785Y-138058766D01*
X142422441Y-137980125D01*
X142422438Y-137980123D01*
X142257706Y-137926598D01*
X142257702Y-137926597D01*
X142086614Y-137899500D01*
X142086611Y-137899500D01*
X141913389Y-137899500D01*
X141913386Y-137899500D01*
X141742297Y-137926597D01*
X141742293Y-137926598D01*
X141577561Y-137980123D01*
X141577558Y-137980125D01*
X141423214Y-138058766D01*
X141283073Y-138160585D01*
X141160585Y-138283073D01*
X141058766Y-138423214D01*
X140980125Y-138577558D01*
X140980123Y-138577561D01*
X140926598Y-138742293D01*
X140926597Y-138742297D01*
X140899500Y-138913385D01*
X128100500Y-138913385D01*
X128073402Y-138742297D01*
X128073401Y-138742293D01*
X128019876Y-138577561D01*
X128019874Y-138577558D01*
X128019873Y-138577557D01*
X128019873Y-138577555D01*
X127941232Y-138423212D01*
X127839414Y-138283072D01*
X127716928Y-138160586D01*
X127576788Y-138058768D01*
X127576787Y-138058767D01*
X127576785Y-138058766D01*
X127422441Y-137980125D01*
X127422438Y-137980123D01*
X127257706Y-137926598D01*
X127257702Y-137926597D01*
X127086614Y-137899500D01*
X127086611Y-137899500D01*
X126913389Y-137899500D01*
X126913386Y-137899500D01*
X126742297Y-137926597D01*
X126742293Y-137926598D01*
X126577561Y-137980123D01*
X126577558Y-137980125D01*
X126423214Y-138058766D01*
X126283073Y-138160585D01*
X126160585Y-138283073D01*
X126058766Y-138423214D01*
X125980125Y-138577558D01*
X125980123Y-138577561D01*
X125926598Y-138742293D01*
X125926597Y-138742297D01*
X125899500Y-138913385D01*
X113100500Y-138913385D01*
X113073402Y-138742297D01*
X113073401Y-138742293D01*
X113019876Y-138577561D01*
X113019874Y-138577558D01*
X113019873Y-138577557D01*
X113019873Y-138577555D01*
X112941232Y-138423212D01*
X112839414Y-138283072D01*
X112716928Y-138160586D01*
X112576788Y-138058768D01*
X112576787Y-138058767D01*
X112576785Y-138058766D01*
X112422441Y-137980125D01*
X112422438Y-137980123D01*
X112257706Y-137926598D01*
X112257702Y-137926597D01*
X112086614Y-137899500D01*
X112086611Y-137899500D01*
X111913389Y-137899500D01*
X111913386Y-137899500D01*
X111742297Y-137926597D01*
X111742293Y-137926598D01*
X111577561Y-137980123D01*
X111577558Y-137980125D01*
X111423214Y-138058766D01*
X111283073Y-138160585D01*
X111160585Y-138283073D01*
X111058766Y-138423214D01*
X110980125Y-138577558D01*
X110980123Y-138577561D01*
X110926598Y-138742293D01*
X110926597Y-138742297D01*
X110899500Y-138913385D01*
X98100500Y-138913385D01*
X98073402Y-138742297D01*
X98073401Y-138742293D01*
X98019876Y-138577561D01*
X98019874Y-138577558D01*
X98019873Y-138577557D01*
X98019873Y-138577555D01*
X97941232Y-138423212D01*
X97839414Y-138283072D01*
X97716928Y-138160586D01*
X97576788Y-138058768D01*
X97576787Y-138058767D01*
X97576785Y-138058766D01*
X97422441Y-137980125D01*
X97422438Y-137980123D01*
X97257706Y-137926598D01*
X97257702Y-137926597D01*
X97086614Y-137899500D01*
X97086611Y-137899500D01*
X96913389Y-137899500D01*
X96913386Y-137899500D01*
X96742297Y-137926597D01*
X96742293Y-137926598D01*
X96577561Y-137980123D01*
X96577558Y-137980125D01*
X96423214Y-138058766D01*
X96283073Y-138160585D01*
X96160585Y-138283073D01*
X96058766Y-138423214D01*
X95980125Y-138577558D01*
X95980123Y-138577561D01*
X95926598Y-138742293D01*
X95926597Y-138742297D01*
X95899500Y-138913385D01*
X78100500Y-138913385D01*
X78073402Y-138742297D01*
X78073401Y-138742293D01*
X78019876Y-138577561D01*
X78019874Y-138577558D01*
X78019873Y-138577557D01*
X78019873Y-138577555D01*
X77941232Y-138423212D01*
X77839414Y-138283072D01*
X77716928Y-138160586D01*
X77576788Y-138058768D01*
X77576787Y-138058767D01*
X77576785Y-138058766D01*
X77422441Y-137980125D01*
X77422438Y-137980123D01*
X77257706Y-137926598D01*
X77257702Y-137926597D01*
X77086614Y-137899500D01*
X77086611Y-137899500D01*
X76913389Y-137899500D01*
X76913386Y-137899500D01*
X76742297Y-137926597D01*
X76742293Y-137926598D01*
X76577561Y-137980123D01*
X76577558Y-137980125D01*
X76423214Y-138058766D01*
X76283073Y-138160585D01*
X76160585Y-138283073D01*
X76058766Y-138423214D01*
X75980125Y-138577558D01*
X75980123Y-138577561D01*
X75926598Y-138742293D01*
X75926597Y-138742297D01*
X75899500Y-138913385D01*
X63000500Y-138913385D01*
X63000500Y-136343872D01*
X72984500Y-136343872D01*
X72984500Y-136576127D01*
X73020829Y-136805509D01*
X73020831Y-136805514D01*
X73092600Y-137026396D01*
X73130373Y-137100529D01*
X73198037Y-137233329D01*
X73272698Y-137336091D01*
X73334551Y-137421224D01*
X73498776Y-137585449D01*
X73635289Y-137684631D01*
X73686670Y-137721962D01*
X73753069Y-137755794D01*
X73893604Y-137827400D01*
X74114486Y-137899169D01*
X74114487Y-137899169D01*
X74114490Y-137899170D01*
X74343873Y-137935500D01*
X74343876Y-137935500D01*
X74576127Y-137935500D01*
X74805509Y-137899170D01*
X74805510Y-137899169D01*
X74805514Y-137899169D01*
X75026396Y-137827400D01*
X75233331Y-137721961D01*
X75421224Y-137585449D01*
X75585449Y-137421224D01*
X75721961Y-137233331D01*
X75827400Y-137026396D01*
X75899169Y-136805514D01*
X75935500Y-136576124D01*
X75935500Y-136343876D01*
X75935500Y-136343872D01*
X78064500Y-136343872D01*
X78064500Y-136576127D01*
X78100829Y-136805509D01*
X78100831Y-136805514D01*
X78172600Y-137026396D01*
X78210373Y-137100529D01*
X78278037Y-137233329D01*
X78352698Y-137336091D01*
X78414551Y-137421224D01*
X78578776Y-137585449D01*
X78715289Y-137684631D01*
X78766670Y-137721962D01*
X78833069Y-137755794D01*
X78973604Y-137827400D01*
X79194486Y-137899169D01*
X79194487Y-137899169D01*
X79194490Y-137899170D01*
X79423873Y-137935500D01*
X79423876Y-137935500D01*
X79656127Y-137935500D01*
X79885509Y-137899170D01*
X79885510Y-137899169D01*
X79885514Y-137899169D01*
X80106396Y-137827400D01*
X80313331Y-137721961D01*
X80501224Y-137585449D01*
X80665449Y-137421224D01*
X80801961Y-137233331D01*
X80907400Y-137026396D01*
X80979169Y-136805514D01*
X81015500Y-136576124D01*
X81015500Y-136343876D01*
X81015500Y-136343872D01*
X92984500Y-136343872D01*
X92984500Y-136576127D01*
X93020829Y-136805509D01*
X93020831Y-136805514D01*
X93092600Y-137026396D01*
X93130373Y-137100529D01*
X93198037Y-137233329D01*
X93272698Y-137336091D01*
X93334551Y-137421224D01*
X93498776Y-137585449D01*
X93635289Y-137684631D01*
X93686670Y-137721962D01*
X93753069Y-137755794D01*
X93893604Y-137827400D01*
X94114486Y-137899169D01*
X94114487Y-137899169D01*
X94114490Y-137899170D01*
X94343873Y-137935500D01*
X94343876Y-137935500D01*
X94576127Y-137935500D01*
X94805509Y-137899170D01*
X94805510Y-137899169D01*
X94805514Y-137899169D01*
X95026396Y-137827400D01*
X95233331Y-137721961D01*
X95421224Y-137585449D01*
X95585449Y-137421224D01*
X95721961Y-137233331D01*
X95827400Y-137026396D01*
X95899169Y-136805514D01*
X95935500Y-136576124D01*
X95935500Y-136343876D01*
X95935500Y-136343872D01*
X98064500Y-136343872D01*
X98064500Y-136576127D01*
X98100829Y-136805509D01*
X98100831Y-136805514D01*
X98172600Y-137026396D01*
X98210373Y-137100529D01*
X98278037Y-137233329D01*
X98352698Y-137336091D01*
X98414551Y-137421224D01*
X98578776Y-137585449D01*
X98715289Y-137684631D01*
X98766670Y-137721962D01*
X98833069Y-137755794D01*
X98973604Y-137827400D01*
X99194486Y-137899169D01*
X99194487Y-137899169D01*
X99194490Y-137899170D01*
X99423873Y-137935500D01*
X99423876Y-137935500D01*
X99656127Y-137935500D01*
X99885509Y-137899170D01*
X99885510Y-137899169D01*
X99885514Y-137899169D01*
X100106396Y-137827400D01*
X100313331Y-137721961D01*
X100501224Y-137585449D01*
X100665449Y-137421224D01*
X100801961Y-137233331D01*
X100907400Y-137026396D01*
X100979169Y-136805514D01*
X101015500Y-136576124D01*
X101015500Y-136343876D01*
X101015500Y-136343872D01*
X107984500Y-136343872D01*
X107984500Y-136576127D01*
X108020829Y-136805509D01*
X108020831Y-136805514D01*
X108092600Y-137026396D01*
X108130373Y-137100529D01*
X108198037Y-137233329D01*
X108272698Y-137336091D01*
X108334551Y-137421224D01*
X108498776Y-137585449D01*
X108635289Y-137684631D01*
X108686670Y-137721962D01*
X108753069Y-137755794D01*
X108893604Y-137827400D01*
X109114486Y-137899169D01*
X109114487Y-137899169D01*
X109114490Y-137899170D01*
X109343873Y-137935500D01*
X109343876Y-137935500D01*
X109576127Y-137935500D01*
X109805509Y-137899170D01*
X109805510Y-137899169D01*
X109805514Y-137899169D01*
X110026396Y-137827400D01*
X110233331Y-137721961D01*
X110421224Y-137585449D01*
X110585449Y-137421224D01*
X110721961Y-137233331D01*
X110827400Y-137026396D01*
X110899169Y-136805514D01*
X110935500Y-136576124D01*
X110935500Y-136343876D01*
X110935500Y-136343872D01*
X113064500Y-136343872D01*
X113064500Y-136576127D01*
X113100829Y-136805509D01*
X113100831Y-136805514D01*
X113172600Y-137026396D01*
X113210373Y-137100529D01*
X113278037Y-137233329D01*
X113352698Y-137336091D01*
X113414551Y-137421224D01*
X113578776Y-137585449D01*
X113715289Y-137684631D01*
X113766670Y-137721962D01*
X113833069Y-137755794D01*
X113973604Y-137827400D01*
X114194486Y-137899169D01*
X114194487Y-137899169D01*
X114194490Y-137899170D01*
X114423873Y-137935500D01*
X114423876Y-137935500D01*
X114656127Y-137935500D01*
X114885509Y-137899170D01*
X114885510Y-137899169D01*
X114885514Y-137899169D01*
X115106396Y-137827400D01*
X115313331Y-137721961D01*
X115501224Y-137585449D01*
X115665449Y-137421224D01*
X115801961Y-137233331D01*
X115907400Y-137026396D01*
X115979169Y-136805514D01*
X116015500Y-136576124D01*
X116015500Y-136343876D01*
X116015500Y-136343872D01*
X122984500Y-136343872D01*
X122984500Y-136576127D01*
X123020829Y-136805509D01*
X123020831Y-136805514D01*
X123092600Y-137026396D01*
X123130373Y-137100529D01*
X123198037Y-137233329D01*
X123272698Y-137336091D01*
X123334551Y-137421224D01*
X123498776Y-137585449D01*
X123635289Y-137684631D01*
X123686670Y-137721962D01*
X123753069Y-137755794D01*
X123893604Y-137827400D01*
X124114486Y-137899169D01*
X124114487Y-137899169D01*
X124114490Y-137899170D01*
X124343873Y-137935500D01*
X124343876Y-137935500D01*
X124576127Y-137935500D01*
X124805509Y-137899170D01*
X124805510Y-137899169D01*
X124805514Y-137899169D01*
X125026396Y-137827400D01*
X125233331Y-137721961D01*
X125421224Y-137585449D01*
X125585449Y-137421224D01*
X125721961Y-137233331D01*
X125827400Y-137026396D01*
X125899169Y-136805514D01*
X125935500Y-136576124D01*
X125935500Y-136343876D01*
X125935500Y-136343872D01*
X128064500Y-136343872D01*
X128064500Y-136576127D01*
X128100829Y-136805509D01*
X128100831Y-136805514D01*
X128172600Y-137026396D01*
X128210373Y-137100529D01*
X128278037Y-137233329D01*
X128352698Y-137336091D01*
X128414551Y-137421224D01*
X128578776Y-137585449D01*
X128715289Y-137684631D01*
X128766670Y-137721962D01*
X128833069Y-137755794D01*
X128973604Y-137827400D01*
X129194486Y-137899169D01*
X129194487Y-137899169D01*
X129194490Y-137899170D01*
X129423873Y-137935500D01*
X129423876Y-137935500D01*
X129656127Y-137935500D01*
X129885509Y-137899170D01*
X129885510Y-137899169D01*
X129885514Y-137899169D01*
X130106396Y-137827400D01*
X130313331Y-137721961D01*
X130501224Y-137585449D01*
X130665449Y-137421224D01*
X130801961Y-137233331D01*
X130907400Y-137026396D01*
X130979169Y-136805514D01*
X131015500Y-136576124D01*
X131015500Y-136343876D01*
X131015500Y-136343872D01*
X137984500Y-136343872D01*
X137984500Y-136576127D01*
X138020829Y-136805509D01*
X138020831Y-136805514D01*
X138092600Y-137026396D01*
X138130373Y-137100529D01*
X138198037Y-137233329D01*
X138272698Y-137336091D01*
X138334551Y-137421224D01*
X138498776Y-137585449D01*
X138635289Y-137684631D01*
X138686670Y-137721962D01*
X138753069Y-137755794D01*
X138893604Y-137827400D01*
X139114486Y-137899169D01*
X139114487Y-137899169D01*
X139114490Y-137899170D01*
X139343873Y-137935500D01*
X139343876Y-137935500D01*
X139576127Y-137935500D01*
X139805509Y-137899170D01*
X139805510Y-137899169D01*
X139805514Y-137899169D01*
X140026396Y-137827400D01*
X140233331Y-137721961D01*
X140421224Y-137585449D01*
X140585449Y-137421224D01*
X140721961Y-137233331D01*
X140827400Y-137026396D01*
X140899169Y-136805514D01*
X140935500Y-136576124D01*
X140935500Y-136343876D01*
X140935500Y-136343872D01*
X143064500Y-136343872D01*
X143064500Y-136576127D01*
X143100829Y-136805509D01*
X143100831Y-136805514D01*
X143172600Y-137026396D01*
X143210373Y-137100529D01*
X143278037Y-137233329D01*
X143352698Y-137336091D01*
X143414551Y-137421224D01*
X143578776Y-137585449D01*
X143715289Y-137684631D01*
X143766670Y-137721962D01*
X143833069Y-137755794D01*
X143973604Y-137827400D01*
X144194486Y-137899169D01*
X144194487Y-137899169D01*
X144194490Y-137899170D01*
X144423873Y-137935500D01*
X144423876Y-137935500D01*
X144656127Y-137935500D01*
X144885509Y-137899170D01*
X144885510Y-137899169D01*
X144885514Y-137899169D01*
X145106396Y-137827400D01*
X145313331Y-137721961D01*
X145501224Y-137585449D01*
X145665449Y-137421224D01*
X145801961Y-137233331D01*
X145907400Y-137026396D01*
X145979169Y-136805514D01*
X146015500Y-136576124D01*
X146015500Y-136343876D01*
X146015500Y-136343872D01*
X152984500Y-136343872D01*
X152984500Y-136576127D01*
X153020829Y-136805509D01*
X153020831Y-136805514D01*
X153092600Y-137026396D01*
X153130373Y-137100529D01*
X153198037Y-137233329D01*
X153272698Y-137336091D01*
X153334551Y-137421224D01*
X153498776Y-137585449D01*
X153635289Y-137684631D01*
X153686670Y-137721962D01*
X153753069Y-137755794D01*
X153893604Y-137827400D01*
X154114486Y-137899169D01*
X154114487Y-137899169D01*
X154114490Y-137899170D01*
X154343873Y-137935500D01*
X154343876Y-137935500D01*
X154576127Y-137935500D01*
X154805509Y-137899170D01*
X154805510Y-137899169D01*
X154805514Y-137899169D01*
X155026396Y-137827400D01*
X155233331Y-137721961D01*
X155421224Y-137585449D01*
X155585449Y-137421224D01*
X155721961Y-137233331D01*
X155827400Y-137026396D01*
X155899169Y-136805514D01*
X155935500Y-136576124D01*
X155935500Y-136343876D01*
X155935500Y-136343872D01*
X158064500Y-136343872D01*
X158064500Y-136576127D01*
X158100829Y-136805509D01*
X158100831Y-136805514D01*
X158172600Y-137026396D01*
X158210373Y-137100529D01*
X158278037Y-137233329D01*
X158352698Y-137336091D01*
X158414551Y-137421224D01*
X158578776Y-137585449D01*
X158715289Y-137684631D01*
X158766670Y-137721962D01*
X158833069Y-137755794D01*
X158973604Y-137827400D01*
X159194486Y-137899169D01*
X159194487Y-137899169D01*
X159194490Y-137899170D01*
X159423873Y-137935500D01*
X159423876Y-137935500D01*
X159656127Y-137935500D01*
X159885509Y-137899170D01*
X159885510Y-137899169D01*
X159885514Y-137899169D01*
X160106396Y-137827400D01*
X160313331Y-137721961D01*
X160501224Y-137585449D01*
X160665449Y-137421224D01*
X160801961Y-137233331D01*
X160907400Y-137026396D01*
X160979169Y-136805514D01*
X161015500Y-136576124D01*
X161015500Y-136343876D01*
X161015500Y-136343872D01*
X167984500Y-136343872D01*
X167984500Y-136576127D01*
X168020829Y-136805509D01*
X168020831Y-136805514D01*
X168092600Y-137026396D01*
X168130373Y-137100529D01*
X168198037Y-137233329D01*
X168272698Y-137336091D01*
X168334551Y-137421224D01*
X168498776Y-137585449D01*
X168635289Y-137684631D01*
X168686670Y-137721962D01*
X168753069Y-137755794D01*
X168893604Y-137827400D01*
X169114486Y-137899169D01*
X169114487Y-137899169D01*
X169114490Y-137899170D01*
X169343873Y-137935500D01*
X169343876Y-137935500D01*
X169576127Y-137935500D01*
X169805509Y-137899170D01*
X169805510Y-137899169D01*
X169805514Y-137899169D01*
X170026396Y-137827400D01*
X170233331Y-137721961D01*
X170421224Y-137585449D01*
X170585449Y-137421224D01*
X170721961Y-137233331D01*
X170827400Y-137026396D01*
X170899169Y-136805514D01*
X170935500Y-136576124D01*
X170935500Y-136343876D01*
X170935500Y-136343872D01*
X173064500Y-136343872D01*
X173064500Y-136576127D01*
X173100829Y-136805509D01*
X173100831Y-136805514D01*
X173172600Y-137026396D01*
X173210373Y-137100529D01*
X173278037Y-137233329D01*
X173352698Y-137336091D01*
X173414551Y-137421224D01*
X173578776Y-137585449D01*
X173715289Y-137684631D01*
X173766670Y-137721962D01*
X173833069Y-137755794D01*
X173973604Y-137827400D01*
X174194486Y-137899169D01*
X174194487Y-137899169D01*
X174194490Y-137899170D01*
X174423873Y-137935500D01*
X174423876Y-137935500D01*
X174656127Y-137935500D01*
X174885509Y-137899170D01*
X174885510Y-137899169D01*
X174885514Y-137899169D01*
X175106396Y-137827400D01*
X175313331Y-137721961D01*
X175501224Y-137585449D01*
X175665449Y-137421224D01*
X175801961Y-137233331D01*
X175907400Y-137026396D01*
X175979169Y-136805514D01*
X176015500Y-136576124D01*
X176015500Y-136343876D01*
X176015500Y-136343872D01*
X182984500Y-136343872D01*
X182984500Y-136576127D01*
X183020829Y-136805509D01*
X183020831Y-136805514D01*
X183092600Y-137026396D01*
X183130373Y-137100529D01*
X183198037Y-137233329D01*
X183272698Y-137336091D01*
X183334551Y-137421224D01*
X183498776Y-137585449D01*
X183635289Y-137684631D01*
X183686670Y-137721962D01*
X183753069Y-137755794D01*
X183893604Y-137827400D01*
X184114486Y-137899169D01*
X184114487Y-137899169D01*
X184114490Y-137899170D01*
X184343873Y-137935500D01*
X184343876Y-137935500D01*
X184576127Y-137935500D01*
X184805509Y-137899170D01*
X184805510Y-137899169D01*
X184805514Y-137899169D01*
X185026396Y-137827400D01*
X185233331Y-137721961D01*
X185421224Y-137585449D01*
X185585449Y-137421224D01*
X185721961Y-137233331D01*
X185827400Y-137026396D01*
X185899169Y-136805514D01*
X185935500Y-136576124D01*
X185935500Y-136343876D01*
X185935500Y-136343872D01*
X188064500Y-136343872D01*
X188064500Y-136576127D01*
X188100829Y-136805509D01*
X188100831Y-136805514D01*
X188172600Y-137026396D01*
X188210373Y-137100529D01*
X188278037Y-137233329D01*
X188352698Y-137336091D01*
X188414551Y-137421224D01*
X188578776Y-137585449D01*
X188715289Y-137684631D01*
X188766670Y-137721962D01*
X188833069Y-137755794D01*
X188973604Y-137827400D01*
X189194486Y-137899169D01*
X189194487Y-137899169D01*
X189194490Y-137899170D01*
X189423873Y-137935500D01*
X189423876Y-137935500D01*
X189656127Y-137935500D01*
X189885509Y-137899170D01*
X189885510Y-137899169D01*
X189885514Y-137899169D01*
X190106396Y-137827400D01*
X190313331Y-137721961D01*
X190501224Y-137585449D01*
X190665449Y-137421224D01*
X190801961Y-137233331D01*
X190907400Y-137026396D01*
X190979169Y-136805514D01*
X191015500Y-136576124D01*
X191015500Y-136343876D01*
X191015500Y-136343872D01*
X197984500Y-136343872D01*
X197984500Y-136576127D01*
X198020829Y-136805509D01*
X198020831Y-136805514D01*
X198092600Y-137026396D01*
X198130373Y-137100529D01*
X198198037Y-137233329D01*
X198272698Y-137336091D01*
X198334551Y-137421224D01*
X198498776Y-137585449D01*
X198635289Y-137684631D01*
X198686670Y-137721962D01*
X198753069Y-137755794D01*
X198893604Y-137827400D01*
X199114486Y-137899169D01*
X199114487Y-137899169D01*
X199114490Y-137899170D01*
X199343873Y-137935500D01*
X199343876Y-137935500D01*
X199576127Y-137935500D01*
X199805509Y-137899170D01*
X199805510Y-137899169D01*
X199805514Y-137899169D01*
X200026396Y-137827400D01*
X200233331Y-137721961D01*
X200421224Y-137585449D01*
X200585449Y-137421224D01*
X200721961Y-137233331D01*
X200827400Y-137026396D01*
X200899169Y-136805514D01*
X200935500Y-136576124D01*
X200935500Y-136343876D01*
X200935500Y-136343872D01*
X203064500Y-136343872D01*
X203064500Y-136576127D01*
X203100829Y-136805509D01*
X203100831Y-136805514D01*
X203172600Y-137026396D01*
X203210373Y-137100529D01*
X203278037Y-137233329D01*
X203352698Y-137336091D01*
X203414551Y-137421224D01*
X203578776Y-137585449D01*
X203715289Y-137684631D01*
X203766670Y-137721962D01*
X203833069Y-137755794D01*
X203973604Y-137827400D01*
X204194486Y-137899169D01*
X204194487Y-137899169D01*
X204194490Y-137899170D01*
X204423873Y-137935500D01*
X204423876Y-137935500D01*
X204656127Y-137935500D01*
X204885509Y-137899170D01*
X204885510Y-137899169D01*
X204885514Y-137899169D01*
X205106396Y-137827400D01*
X205313331Y-137721961D01*
X205501224Y-137585449D01*
X205665449Y-137421224D01*
X205801961Y-137233331D01*
X205907400Y-137026396D01*
X205979169Y-136805514D01*
X206015500Y-136576124D01*
X206015500Y-136343876D01*
X206015500Y-136343872D01*
X205979170Y-136114490D01*
X205907401Y-135893608D01*
X205907400Y-135893604D01*
X205801961Y-135686669D01*
X205665449Y-135498776D01*
X205501224Y-135334551D01*
X205416091Y-135272698D01*
X205313329Y-135198037D01*
X205180529Y-135130373D01*
X205106396Y-135092600D01*
X205106393Y-135092599D01*
X205106391Y-135092598D01*
X204885509Y-135020829D01*
X204656127Y-134984500D01*
X204656124Y-134984500D01*
X204423876Y-134984500D01*
X204423873Y-134984500D01*
X204194490Y-135020829D01*
X203973608Y-135092598D01*
X203766670Y-135198037D01*
X203578777Y-135334550D01*
X203414550Y-135498777D01*
X203278037Y-135686670D01*
X203172598Y-135893608D01*
X203100829Y-136114490D01*
X203064500Y-136343872D01*
X200935500Y-136343872D01*
X200899170Y-136114490D01*
X200827401Y-135893608D01*
X200827400Y-135893604D01*
X200721961Y-135686669D01*
X200585449Y-135498776D01*
X200421224Y-135334551D01*
X200336091Y-135272698D01*
X200233329Y-135198037D01*
X200100529Y-135130373D01*
X200026396Y-135092600D01*
X200026393Y-135092599D01*
X200026391Y-135092598D01*
X199805509Y-135020829D01*
X199576127Y-134984500D01*
X199576124Y-134984500D01*
X199343876Y-134984500D01*
X199343873Y-134984500D01*
X199114490Y-135020829D01*
X198893608Y-135092598D01*
X198686670Y-135198037D01*
X198498777Y-135334550D01*
X198334550Y-135498777D01*
X198198037Y-135686670D01*
X198092598Y-135893608D01*
X198020829Y-136114490D01*
X197984500Y-136343872D01*
X191015500Y-136343872D01*
X190979170Y-136114490D01*
X190907401Y-135893608D01*
X190907400Y-135893604D01*
X190801961Y-135686669D01*
X190665449Y-135498776D01*
X190501224Y-135334551D01*
X190416091Y-135272698D01*
X190313329Y-135198037D01*
X190180529Y-135130373D01*
X190106396Y-135092600D01*
X190106393Y-135092599D01*
X190106391Y-135092598D01*
X189885509Y-135020829D01*
X189656127Y-134984500D01*
X189656124Y-134984500D01*
X189423876Y-134984500D01*
X189423873Y-134984500D01*
X189194490Y-135020829D01*
X188973608Y-135092598D01*
X188766670Y-135198037D01*
X188578777Y-135334550D01*
X188414550Y-135498777D01*
X188278037Y-135686670D01*
X188172598Y-135893608D01*
X188100829Y-136114490D01*
X188064500Y-136343872D01*
X185935500Y-136343872D01*
X185899170Y-136114490D01*
X185827401Y-135893608D01*
X185827400Y-135893604D01*
X185721961Y-135686669D01*
X185585449Y-135498776D01*
X185421224Y-135334551D01*
X185336091Y-135272698D01*
X185233329Y-135198037D01*
X185100529Y-135130373D01*
X185026396Y-135092600D01*
X185026393Y-135092599D01*
X185026391Y-135092598D01*
X184805509Y-135020829D01*
X184576127Y-134984500D01*
X184576124Y-134984500D01*
X184343876Y-134984500D01*
X184343873Y-134984500D01*
X184114490Y-135020829D01*
X183893608Y-135092598D01*
X183686670Y-135198037D01*
X183498777Y-135334550D01*
X183334550Y-135498777D01*
X183198037Y-135686670D01*
X183092598Y-135893608D01*
X183020829Y-136114490D01*
X182984500Y-136343872D01*
X176015500Y-136343872D01*
X175979170Y-136114490D01*
X175907401Y-135893608D01*
X175907400Y-135893604D01*
X175801961Y-135686669D01*
X175665449Y-135498776D01*
X175501224Y-135334551D01*
X175416091Y-135272698D01*
X175313329Y-135198037D01*
X175180529Y-135130373D01*
X175106396Y-135092600D01*
X175106393Y-135092599D01*
X175106391Y-135092598D01*
X174885509Y-135020829D01*
X174656127Y-134984500D01*
X174656124Y-134984500D01*
X174423876Y-134984500D01*
X174423873Y-134984500D01*
X174194490Y-135020829D01*
X173973608Y-135092598D01*
X173766670Y-135198037D01*
X173578777Y-135334550D01*
X173414550Y-135498777D01*
X173278037Y-135686670D01*
X173172598Y-135893608D01*
X173100829Y-136114490D01*
X173064500Y-136343872D01*
X170935500Y-136343872D01*
X170899170Y-136114490D01*
X170827401Y-135893608D01*
X170827400Y-135893604D01*
X170721961Y-135686669D01*
X170585449Y-135498776D01*
X170421224Y-135334551D01*
X170336091Y-135272698D01*
X170233329Y-135198037D01*
X170100529Y-135130373D01*
X170026396Y-135092600D01*
X170026393Y-135092599D01*
X170026391Y-135092598D01*
X169805509Y-135020829D01*
X169576127Y-134984500D01*
X169576124Y-134984500D01*
X169343876Y-134984500D01*
X169343873Y-134984500D01*
X169114490Y-135020829D01*
X168893608Y-135092598D01*
X168686670Y-135198037D01*
X168498777Y-135334550D01*
X168334550Y-135498777D01*
X168198037Y-135686670D01*
X168092598Y-135893608D01*
X168020829Y-136114490D01*
X167984500Y-136343872D01*
X161015500Y-136343872D01*
X160979170Y-136114490D01*
X160907401Y-135893608D01*
X160907400Y-135893604D01*
X160801961Y-135686669D01*
X160665449Y-135498776D01*
X160501224Y-135334551D01*
X160416091Y-135272698D01*
X160313329Y-135198037D01*
X160180529Y-135130373D01*
X160106396Y-135092600D01*
X160106393Y-135092599D01*
X160106391Y-135092598D01*
X159885509Y-135020829D01*
X159656127Y-134984500D01*
X159656124Y-134984500D01*
X159423876Y-134984500D01*
X159423873Y-134984500D01*
X159194490Y-135020829D01*
X158973608Y-135092598D01*
X158766670Y-135198037D01*
X158578777Y-135334550D01*
X158414550Y-135498777D01*
X158278037Y-135686670D01*
X158172598Y-135893608D01*
X158100829Y-136114490D01*
X158064500Y-136343872D01*
X155935500Y-136343872D01*
X155899170Y-136114490D01*
X155827401Y-135893608D01*
X155827400Y-135893604D01*
X155721961Y-135686669D01*
X155585449Y-135498776D01*
X155421224Y-135334551D01*
X155336091Y-135272698D01*
X155233329Y-135198037D01*
X155100529Y-135130373D01*
X155026396Y-135092600D01*
X155026393Y-135092599D01*
X155026391Y-135092598D01*
X154805509Y-135020829D01*
X154576127Y-134984500D01*
X154576124Y-134984500D01*
X154343876Y-134984500D01*
X154343873Y-134984500D01*
X154114490Y-135020829D01*
X153893608Y-135092598D01*
X153686670Y-135198037D01*
X153498777Y-135334550D01*
X153334550Y-135498777D01*
X153198037Y-135686670D01*
X153092598Y-135893608D01*
X153020829Y-136114490D01*
X152984500Y-136343872D01*
X146015500Y-136343872D01*
X145979170Y-136114490D01*
X145907401Y-135893608D01*
X145907400Y-135893604D01*
X145801961Y-135686669D01*
X145665449Y-135498776D01*
X145501224Y-135334551D01*
X145416091Y-135272698D01*
X145313329Y-135198037D01*
X145180529Y-135130373D01*
X145106396Y-135092600D01*
X145106393Y-135092599D01*
X145106391Y-135092598D01*
X144885509Y-135020829D01*
X144656127Y-134984500D01*
X144656124Y-134984500D01*
X144423876Y-134984500D01*
X144423873Y-134984500D01*
X144194490Y-135020829D01*
X143973608Y-135092598D01*
X143766670Y-135198037D01*
X143578777Y-135334550D01*
X143414550Y-135498777D01*
X143278037Y-135686670D01*
X143172598Y-135893608D01*
X143100829Y-136114490D01*
X143064500Y-136343872D01*
X140935500Y-136343872D01*
X140899170Y-136114490D01*
X140827401Y-135893608D01*
X140827400Y-135893604D01*
X140721961Y-135686669D01*
X140585449Y-135498776D01*
X140421224Y-135334551D01*
X140336091Y-135272698D01*
X140233329Y-135198037D01*
X140100529Y-135130373D01*
X140026396Y-135092600D01*
X140026393Y-135092599D01*
X140026391Y-135092598D01*
X139805509Y-135020829D01*
X139576127Y-134984500D01*
X139576124Y-134984500D01*
X139343876Y-134984500D01*
X139343873Y-134984500D01*
X139114490Y-135020829D01*
X138893608Y-135092598D01*
X138686670Y-135198037D01*
X138498777Y-135334550D01*
X138334550Y-135498777D01*
X138198037Y-135686670D01*
X138092598Y-135893608D01*
X138020829Y-136114490D01*
X137984500Y-136343872D01*
X131015500Y-136343872D01*
X130979170Y-136114490D01*
X130907401Y-135893608D01*
X130907400Y-135893604D01*
X130801961Y-135686669D01*
X130665449Y-135498776D01*
X130501224Y-135334551D01*
X130416091Y-135272698D01*
X130313329Y-135198037D01*
X130180529Y-135130373D01*
X130106396Y-135092600D01*
X130106393Y-135092599D01*
X130106391Y-135092598D01*
X129885509Y-135020829D01*
X129656127Y-134984500D01*
X129656124Y-134984500D01*
X129423876Y-134984500D01*
X129423873Y-134984500D01*
X129194490Y-135020829D01*
X128973608Y-135092598D01*
X128766670Y-135198037D01*
X128578777Y-135334550D01*
X128414550Y-135498777D01*
X128278037Y-135686670D01*
X128172598Y-135893608D01*
X128100829Y-136114490D01*
X128064500Y-136343872D01*
X125935500Y-136343872D01*
X125899170Y-136114490D01*
X125827401Y-135893608D01*
X125827400Y-135893604D01*
X125721961Y-135686669D01*
X125585449Y-135498776D01*
X125421224Y-135334551D01*
X125336091Y-135272698D01*
X125233329Y-135198037D01*
X125100529Y-135130373D01*
X125026396Y-135092600D01*
X125026393Y-135092599D01*
X125026391Y-135092598D01*
X124805509Y-135020829D01*
X124576127Y-134984500D01*
X124576124Y-134984500D01*
X124343876Y-134984500D01*
X124343873Y-134984500D01*
X124114490Y-135020829D01*
X123893608Y-135092598D01*
X123686670Y-135198037D01*
X123498777Y-135334550D01*
X123334550Y-135498777D01*
X123198037Y-135686670D01*
X123092598Y-135893608D01*
X123020829Y-136114490D01*
X122984500Y-136343872D01*
X116015500Y-136343872D01*
X115979170Y-136114490D01*
X115907401Y-135893608D01*
X115907400Y-135893604D01*
X115801961Y-135686669D01*
X115665449Y-135498776D01*
X115501224Y-135334551D01*
X115416091Y-135272698D01*
X115313329Y-135198037D01*
X115180529Y-135130373D01*
X115106396Y-135092600D01*
X115106393Y-135092599D01*
X115106391Y-135092598D01*
X114885509Y-135020829D01*
X114656127Y-134984500D01*
X114656124Y-134984500D01*
X114423876Y-134984500D01*
X114423873Y-134984500D01*
X114194490Y-135020829D01*
X113973608Y-135092598D01*
X113766670Y-135198037D01*
X113578777Y-135334550D01*
X113414550Y-135498777D01*
X113278037Y-135686670D01*
X113172598Y-135893608D01*
X113100829Y-136114490D01*
X113064500Y-136343872D01*
X110935500Y-136343872D01*
X110899170Y-136114490D01*
X110827401Y-135893608D01*
X110827400Y-135893604D01*
X110721961Y-135686669D01*
X110585449Y-135498776D01*
X110421224Y-135334551D01*
X110336091Y-135272698D01*
X110233329Y-135198037D01*
X110100529Y-135130373D01*
X110026396Y-135092600D01*
X110026393Y-135092599D01*
X110026391Y-135092598D01*
X109805509Y-135020829D01*
X109576127Y-134984500D01*
X109576124Y-134984500D01*
X109343876Y-134984500D01*
X109343873Y-134984500D01*
X109114490Y-135020829D01*
X108893608Y-135092598D01*
X108686670Y-135198037D01*
X108498777Y-135334550D01*
X108334550Y-135498777D01*
X108198037Y-135686670D01*
X108092598Y-135893608D01*
X108020829Y-136114490D01*
X107984500Y-136343872D01*
X101015500Y-136343872D01*
X100979170Y-136114490D01*
X100907401Y-135893608D01*
X100907400Y-135893604D01*
X100801961Y-135686669D01*
X100665449Y-135498776D01*
X100501224Y-135334551D01*
X100416091Y-135272698D01*
X100313329Y-135198037D01*
X100180529Y-135130373D01*
X100106396Y-135092600D01*
X100106393Y-135092599D01*
X100106391Y-135092598D01*
X99885509Y-135020829D01*
X99656127Y-134984500D01*
X99656124Y-134984500D01*
X99423876Y-134984500D01*
X99423873Y-134984500D01*
X99194490Y-135020829D01*
X98973608Y-135092598D01*
X98766670Y-135198037D01*
X98578777Y-135334550D01*
X98414550Y-135498777D01*
X98278037Y-135686670D01*
X98172598Y-135893608D01*
X98100829Y-136114490D01*
X98064500Y-136343872D01*
X95935500Y-136343872D01*
X95899170Y-136114490D01*
X95827401Y-135893608D01*
X95827400Y-135893604D01*
X95721961Y-135686669D01*
X95585449Y-135498776D01*
X95421224Y-135334551D01*
X95336091Y-135272698D01*
X95233329Y-135198037D01*
X95100529Y-135130373D01*
X95026396Y-135092600D01*
X95026393Y-135092599D01*
X95026391Y-135092598D01*
X94805509Y-135020829D01*
X94576127Y-134984500D01*
X94576124Y-134984500D01*
X94343876Y-134984500D01*
X94343873Y-134984500D01*
X94114490Y-135020829D01*
X93893608Y-135092598D01*
X93686670Y-135198037D01*
X93498777Y-135334550D01*
X93334550Y-135498777D01*
X93198037Y-135686670D01*
X93092598Y-135893608D01*
X93020829Y-136114490D01*
X92984500Y-136343872D01*
X81015500Y-136343872D01*
X80979170Y-136114490D01*
X80907401Y-135893608D01*
X80907400Y-135893604D01*
X80801961Y-135686669D01*
X80665449Y-135498776D01*
X80501224Y-135334551D01*
X80416091Y-135272698D01*
X80313329Y-135198037D01*
X80180529Y-135130373D01*
X80106396Y-135092600D01*
X80106393Y-135092599D01*
X80106391Y-135092598D01*
X79885509Y-135020829D01*
X79656127Y-134984500D01*
X79656124Y-134984500D01*
X79423876Y-134984500D01*
X79423873Y-134984500D01*
X79194490Y-135020829D01*
X78973608Y-135092598D01*
X78766670Y-135198037D01*
X78578777Y-135334550D01*
X78414550Y-135498777D01*
X78278037Y-135686670D01*
X78172598Y-135893608D01*
X78100829Y-136114490D01*
X78064500Y-136343872D01*
X75935500Y-136343872D01*
X75899170Y-136114490D01*
X75827401Y-135893608D01*
X75827400Y-135893604D01*
X75721961Y-135686669D01*
X75585449Y-135498776D01*
X75421224Y-135334551D01*
X75336091Y-135272698D01*
X75233329Y-135198037D01*
X75100529Y-135130373D01*
X75026396Y-135092600D01*
X75026393Y-135092599D01*
X75026391Y-135092598D01*
X74805509Y-135020829D01*
X74576127Y-134984500D01*
X74576124Y-134984500D01*
X74343876Y-134984500D01*
X74343873Y-134984500D01*
X74114490Y-135020829D01*
X73893608Y-135092598D01*
X73686670Y-135198037D01*
X73498777Y-135334550D01*
X73334550Y-135498777D01*
X73198037Y-135686670D01*
X73092598Y-135893608D01*
X73020829Y-136114490D01*
X72984500Y-136343872D01*
X63000500Y-136343872D01*
X63000500Y-101434108D01*
X131499500Y-101434108D01*
X131499500Y-101565892D01*
X131529579Y-101678151D01*
X131533609Y-101693190D01*
X131599496Y-101807309D01*
X131599498Y-101807311D01*
X131599500Y-101807314D01*
X131692686Y-101900500D01*
X131692688Y-101900501D01*
X131692690Y-101900503D01*
X131806810Y-101966390D01*
X131806808Y-101966390D01*
X131806812Y-101966391D01*
X131806814Y-101966392D01*
X131934108Y-102000500D01*
X131934110Y-102000500D01*
X132065890Y-102000500D01*
X132065892Y-102000500D01*
X132193186Y-101966392D01*
X132193188Y-101966390D01*
X132193190Y-101966390D01*
X132307309Y-101900503D01*
X132307309Y-101900502D01*
X132307314Y-101900500D01*
X132400500Y-101807314D01*
X132466392Y-101693186D01*
X132500500Y-101565892D01*
X132500500Y-101434108D01*
X132466392Y-101306814D01*
X132466390Y-101306811D01*
X132466390Y-101306809D01*
X132400503Y-101192690D01*
X132400501Y-101192688D01*
X132400500Y-101192686D01*
X132307314Y-101099500D01*
X132307311Y-101099498D01*
X132307309Y-101099496D01*
X132193189Y-101033609D01*
X132193191Y-101033609D01*
X132143799Y-101020375D01*
X132065892Y-100999500D01*
X131934108Y-100999500D01*
X131856200Y-101020375D01*
X131806809Y-101033609D01*
X131692690Y-101099496D01*
X131599496Y-101192690D01*
X131533609Y-101306809D01*
X131533608Y-101306814D01*
X131499500Y-101434108D01*
X63000500Y-101434108D01*
X63000500Y-98834108D01*
X99099500Y-98834108D01*
X99099500Y-98965892D01*
X99129579Y-99078151D01*
X99133609Y-99093190D01*
X99199496Y-99207309D01*
X99199498Y-99207311D01*
X99199500Y-99207314D01*
X99292686Y-99300500D01*
X99292688Y-99300501D01*
X99292690Y-99300503D01*
X99406810Y-99366390D01*
X99406808Y-99366390D01*
X99406812Y-99366391D01*
X99406814Y-99366392D01*
X99534108Y-99400500D01*
X99534110Y-99400500D01*
X99665890Y-99400500D01*
X99665892Y-99400500D01*
X99793186Y-99366392D01*
X99793188Y-99366390D01*
X99793190Y-99366390D01*
X99907309Y-99300503D01*
X99907309Y-99300502D01*
X99907314Y-99300500D01*
X100000500Y-99207314D01*
X100066392Y-99093186D01*
X100100500Y-98965892D01*
X100100500Y-98834108D01*
X100066392Y-98706814D01*
X100066390Y-98706811D01*
X100066390Y-98706809D01*
X100000503Y-98592690D01*
X100000501Y-98592688D01*
X100000500Y-98592686D01*
X99907314Y-98499500D01*
X99907311Y-98499498D01*
X99907309Y-98499496D01*
X99880656Y-98484108D01*
X132299500Y-98484108D01*
X132299500Y-98615892D01*
X132323861Y-98706809D01*
X132333609Y-98743190D01*
X132399496Y-98857309D01*
X132399498Y-98857311D01*
X132399500Y-98857314D01*
X132492686Y-98950500D01*
X132492688Y-98950501D01*
X132492690Y-98950503D01*
X132606810Y-99016390D01*
X132606808Y-99016390D01*
X132606812Y-99016391D01*
X132606814Y-99016392D01*
X132734108Y-99050500D01*
X132734110Y-99050500D01*
X132865890Y-99050500D01*
X132865892Y-99050500D01*
X132993186Y-99016392D01*
X132993188Y-99016390D01*
X132993190Y-99016390D01*
X133107309Y-98950503D01*
X133107309Y-98950502D01*
X133107314Y-98950500D01*
X133200500Y-98857314D01*
X133200503Y-98857309D01*
X133266390Y-98743190D01*
X133266390Y-98743188D01*
X133266392Y-98743186D01*
X133300500Y-98615892D01*
X133300500Y-98484108D01*
X133266392Y-98356814D01*
X133266390Y-98356811D01*
X133266390Y-98356809D01*
X133200503Y-98242690D01*
X133200501Y-98242688D01*
X133200500Y-98242686D01*
X133107314Y-98149500D01*
X133107311Y-98149498D01*
X133107309Y-98149496D01*
X132993189Y-98083609D01*
X132993191Y-98083609D01*
X132943799Y-98070375D01*
X132865892Y-98049500D01*
X132734108Y-98049500D01*
X132656200Y-98070375D01*
X132606809Y-98083609D01*
X132492690Y-98149496D01*
X132399496Y-98242690D01*
X132333609Y-98356809D01*
X132333608Y-98356814D01*
X132299500Y-98484108D01*
X99880656Y-98484108D01*
X99793189Y-98433609D01*
X99793191Y-98433609D01*
X99743799Y-98420375D01*
X99665892Y-98399500D01*
X99534108Y-98399500D01*
X99456200Y-98420375D01*
X99406809Y-98433609D01*
X99292690Y-98499496D01*
X99199496Y-98592690D01*
X99133609Y-98706809D01*
X99133608Y-98706814D01*
X99099500Y-98834108D01*
X63000500Y-98834108D01*
X63000500Y-94334108D01*
X123849500Y-94334108D01*
X123849500Y-94465892D01*
X123868484Y-94536741D01*
X123883609Y-94593190D01*
X123949496Y-94707309D01*
X123949498Y-94707311D01*
X123949500Y-94707314D01*
X124042686Y-94800500D01*
X124042688Y-94800501D01*
X124042690Y-94800503D01*
X124156810Y-94866390D01*
X124156808Y-94866390D01*
X124156812Y-94866391D01*
X124156814Y-94866392D01*
X124284108Y-94900500D01*
X124284110Y-94900500D01*
X124415890Y-94900500D01*
X124415892Y-94900500D01*
X124543186Y-94866392D01*
X124543188Y-94866390D01*
X124543190Y-94866390D01*
X124657309Y-94800503D01*
X124657309Y-94800502D01*
X124657314Y-94800500D01*
X124750500Y-94707314D01*
X124785178Y-94647250D01*
X124816390Y-94593190D01*
X124816390Y-94593188D01*
X124816392Y-94593186D01*
X124850500Y-94465892D01*
X124850500Y-94334108D01*
X128249500Y-94334108D01*
X128249500Y-94465892D01*
X128268484Y-94536741D01*
X128283609Y-94593190D01*
X128349496Y-94707309D01*
X128349498Y-94707311D01*
X128349500Y-94707314D01*
X128442686Y-94800500D01*
X128442688Y-94800501D01*
X128442690Y-94800503D01*
X128556810Y-94866390D01*
X128556808Y-94866390D01*
X128556812Y-94866391D01*
X128556814Y-94866392D01*
X128684108Y-94900500D01*
X128684110Y-94900500D01*
X128815890Y-94900500D01*
X128815892Y-94900500D01*
X128943186Y-94866392D01*
X128943188Y-94866390D01*
X128943190Y-94866390D01*
X129057309Y-94800503D01*
X129057309Y-94800502D01*
X129057314Y-94800500D01*
X129150500Y-94707314D01*
X129201431Y-94619099D01*
X129246900Y-94578159D01*
X129307750Y-94571763D01*
X129360738Y-94602356D01*
X129385007Y-94656866D01*
X129385320Y-94656825D01*
X129385458Y-94657878D01*
X129385625Y-94658252D01*
X129385702Y-94659729D01*
X129386166Y-94663256D01*
X129386167Y-94663259D01*
X129418912Y-94785466D01*
X129482171Y-94895034D01*
X129571633Y-94984496D01*
X129681201Y-95047755D01*
X129768104Y-95071040D01*
X129819416Y-95104363D01*
X129841343Y-95161484D01*
X129825508Y-95220585D01*
X129777958Y-95259090D01*
X129768103Y-95262293D01*
X129681200Y-95285578D01*
X129571633Y-95348837D01*
X129482171Y-95438299D01*
X129418912Y-95547867D01*
X129386167Y-95670074D01*
X129386167Y-95796592D01*
X129418912Y-95918799D01*
X129482171Y-96028367D01*
X129571633Y-96117829D01*
X129681201Y-96181088D01*
X129803408Y-96213833D01*
X129803410Y-96213833D01*
X129929924Y-96213833D01*
X129929926Y-96213833D01*
X130052133Y-96181088D01*
X130161701Y-96117829D01*
X130251163Y-96028367D01*
X130314422Y-95918799D01*
X130337707Y-95831895D01*
X130371030Y-95780583D01*
X130428151Y-95758656D01*
X130487252Y-95774491D01*
X130525757Y-95822041D01*
X130528959Y-95831894D01*
X130552245Y-95918799D01*
X130615504Y-96028367D01*
X130704966Y-96117829D01*
X130814534Y-96181088D01*
X130936741Y-96213833D01*
X130936743Y-96213833D01*
X131063257Y-96213833D01*
X131063259Y-96213833D01*
X131185466Y-96181088D01*
X131295034Y-96117829D01*
X131384496Y-96028367D01*
X131447755Y-95918799D01*
X131471040Y-95831895D01*
X131504363Y-95780583D01*
X131561484Y-95758656D01*
X131620585Y-95774491D01*
X131659090Y-95822041D01*
X131662292Y-95831894D01*
X131685578Y-95918799D01*
X131748837Y-96028367D01*
X131838299Y-96117829D01*
X131935754Y-96174095D01*
X131976694Y-96219563D01*
X131983090Y-96280413D01*
X131952497Y-96333401D01*
X131911876Y-96355457D01*
X131806809Y-96383609D01*
X131692690Y-96449496D01*
X131599496Y-96542690D01*
X131533609Y-96656809D01*
X131533608Y-96656814D01*
X131499500Y-96784108D01*
X131499500Y-96915892D01*
X131529579Y-97028151D01*
X131533609Y-97043190D01*
X131599496Y-97157309D01*
X131599498Y-97157311D01*
X131599500Y-97157314D01*
X131692686Y-97250500D01*
X131692688Y-97250501D01*
X131692690Y-97250503D01*
X131806810Y-97316390D01*
X131806808Y-97316390D01*
X131806812Y-97316391D01*
X131806814Y-97316392D01*
X131934108Y-97350500D01*
X131934110Y-97350500D01*
X132065890Y-97350500D01*
X132065892Y-97350500D01*
X132193186Y-97316392D01*
X132193188Y-97316390D01*
X132193190Y-97316390D01*
X132307309Y-97250503D01*
X132307309Y-97250502D01*
X132307314Y-97250500D01*
X132400500Y-97157314D01*
X132466392Y-97043186D01*
X132500500Y-96915892D01*
X132500500Y-96784108D01*
X132466392Y-96656814D01*
X132466390Y-96656811D01*
X132466390Y-96656809D01*
X132400503Y-96542690D01*
X132400501Y-96542688D01*
X132400500Y-96542686D01*
X132307314Y-96449500D01*
X132307311Y-96449498D01*
X132200405Y-96387775D01*
X132159465Y-96342305D01*
X132153070Y-96281455D01*
X132183663Y-96228467D01*
X132224280Y-96206413D01*
X132318799Y-96181088D01*
X132428367Y-96117829D01*
X132517829Y-96028367D01*
X132581088Y-95918799D01*
X132613833Y-95796592D01*
X132613833Y-95670074D01*
X132581088Y-95547867D01*
X132517829Y-95438299D01*
X132428367Y-95348837D01*
X132318799Y-95285578D01*
X132231896Y-95262292D01*
X132180582Y-95228969D01*
X132158656Y-95171847D01*
X132174492Y-95112747D01*
X132222042Y-95074241D01*
X132231882Y-95071043D01*
X132318799Y-95047755D01*
X132428367Y-94984496D01*
X132517829Y-94895034D01*
X132581088Y-94785466D01*
X132613833Y-94663259D01*
X132613833Y-94663256D01*
X132614680Y-94656825D01*
X132617536Y-94657201D01*
X132632740Y-94610409D01*
X132682240Y-94574445D01*
X132743426Y-94574445D01*
X132792926Y-94610409D01*
X132798565Y-94619092D01*
X132849500Y-94707314D01*
X132942686Y-94800500D01*
X132942688Y-94800501D01*
X132942690Y-94800503D01*
X133056810Y-94866390D01*
X133056808Y-94866390D01*
X133056812Y-94866391D01*
X133056814Y-94866392D01*
X133184108Y-94900500D01*
X133184110Y-94900500D01*
X133315890Y-94900500D01*
X133315892Y-94900500D01*
X133443186Y-94866392D01*
X133443188Y-94866390D01*
X133443190Y-94866390D01*
X133557309Y-94800503D01*
X133557309Y-94800502D01*
X133557314Y-94800500D01*
X133650500Y-94707314D01*
X133685178Y-94647250D01*
X133716390Y-94593190D01*
X133716390Y-94593188D01*
X133716392Y-94593186D01*
X133750500Y-94465892D01*
X133750500Y-94334108D01*
X136899500Y-94334108D01*
X136899500Y-94465892D01*
X136918484Y-94536741D01*
X136933609Y-94593190D01*
X136999496Y-94707309D01*
X136999498Y-94707311D01*
X136999500Y-94707314D01*
X137092686Y-94800500D01*
X137092688Y-94800501D01*
X137092690Y-94800503D01*
X137206810Y-94866390D01*
X137206808Y-94866390D01*
X137206812Y-94866391D01*
X137206814Y-94866392D01*
X137334108Y-94900500D01*
X137334110Y-94900500D01*
X137465890Y-94900500D01*
X137465892Y-94900500D01*
X137593186Y-94866392D01*
X137593188Y-94866390D01*
X137593190Y-94866390D01*
X137707309Y-94800503D01*
X137707309Y-94800502D01*
X137707314Y-94800500D01*
X137800500Y-94707314D01*
X137835178Y-94647250D01*
X137866390Y-94593190D01*
X137866390Y-94593188D01*
X137866392Y-94593186D01*
X137900500Y-94465892D01*
X137900500Y-94334108D01*
X137866392Y-94206814D01*
X137866390Y-94206811D01*
X137866390Y-94206809D01*
X137800503Y-94092690D01*
X137800501Y-94092688D01*
X137800500Y-94092686D01*
X137707314Y-93999500D01*
X137707311Y-93999498D01*
X137707309Y-93999496D01*
X137593189Y-93933609D01*
X137593191Y-93933609D01*
X137521578Y-93914421D01*
X137465892Y-93899500D01*
X137334108Y-93899500D01*
X137278422Y-93914421D01*
X137206809Y-93933609D01*
X137092690Y-93999496D01*
X136999496Y-94092690D01*
X136933609Y-94206809D01*
X136914539Y-94277978D01*
X136899500Y-94334108D01*
X133750500Y-94334108D01*
X133716392Y-94206814D01*
X133716390Y-94206811D01*
X133716390Y-94206809D01*
X133650503Y-94092690D01*
X133650501Y-94092688D01*
X133650500Y-94092686D01*
X133557314Y-93999500D01*
X133557311Y-93999498D01*
X133557309Y-93999496D01*
X133443189Y-93933609D01*
X133443191Y-93933609D01*
X133371578Y-93914421D01*
X133315892Y-93899500D01*
X133184108Y-93899500D01*
X133128422Y-93914421D01*
X133056809Y-93933609D01*
X132942690Y-93999496D01*
X132849496Y-94092690D01*
X132783609Y-94206809D01*
X132749500Y-94334109D01*
X132749500Y-94336759D01*
X132748913Y-94338564D01*
X132748653Y-94340542D01*
X132748286Y-94340493D01*
X132730593Y-94394950D01*
X132681093Y-94430914D01*
X132619907Y-94430914D01*
X132570407Y-94394950D01*
X132564764Y-94386259D01*
X132517830Y-94304968D01*
X132517829Y-94304966D01*
X132428367Y-94215504D01*
X132318799Y-94152245D01*
X132231896Y-94128959D01*
X132180582Y-94095636D01*
X132158656Y-94038514D01*
X132174492Y-93979414D01*
X132222042Y-93940908D01*
X132231882Y-93937710D01*
X132318799Y-93914422D01*
X132428367Y-93851163D01*
X132517829Y-93761701D01*
X132581088Y-93652133D01*
X132613833Y-93529926D01*
X132613833Y-93403408D01*
X132581088Y-93281201D01*
X132517829Y-93171633D01*
X132428367Y-93082171D01*
X132318799Y-93018912D01*
X132196592Y-92986167D01*
X132070074Y-92986167D01*
X131947867Y-93018912D01*
X131838299Y-93082171D01*
X131748837Y-93171633D01*
X131685578Y-93281200D01*
X131662293Y-93368103D01*
X131628968Y-93419417D01*
X131571847Y-93441343D01*
X131512746Y-93425507D01*
X131474241Y-93377957D01*
X131471043Y-93368117D01*
X131447755Y-93281201D01*
X131384496Y-93171633D01*
X131295034Y-93082171D01*
X131185466Y-93018912D01*
X131063259Y-92986167D01*
X130936741Y-92986167D01*
X130814534Y-93018912D01*
X130704966Y-93082171D01*
X130615504Y-93171633D01*
X130552245Y-93281200D01*
X130528960Y-93368103D01*
X130495635Y-93419417D01*
X130438514Y-93441343D01*
X130379413Y-93425507D01*
X130340908Y-93377957D01*
X130337710Y-93368117D01*
X130314422Y-93281201D01*
X130251163Y-93171633D01*
X130161701Y-93082171D01*
X130052133Y-93018912D01*
X129929926Y-92986167D01*
X129803408Y-92986167D01*
X129681201Y-93018912D01*
X129571633Y-93082171D01*
X129482171Y-93171633D01*
X129418912Y-93281201D01*
X129386167Y-93403408D01*
X129386167Y-93529926D01*
X129418912Y-93652133D01*
X129482171Y-93761701D01*
X129571633Y-93851163D01*
X129681201Y-93914422D01*
X129768104Y-93937707D01*
X129819416Y-93971030D01*
X129841343Y-94028151D01*
X129825508Y-94087252D01*
X129777958Y-94125757D01*
X129768103Y-94128960D01*
X129681200Y-94152245D01*
X129571633Y-94215504D01*
X129482169Y-94304968D01*
X129435236Y-94386259D01*
X129389767Y-94427200D01*
X129328916Y-94433596D01*
X129275928Y-94403003D01*
X129251042Y-94347107D01*
X129250500Y-94336759D01*
X129250500Y-94334109D01*
X129218720Y-94215504D01*
X129216392Y-94206814D01*
X129216390Y-94206811D01*
X129216390Y-94206809D01*
X129150503Y-94092690D01*
X129150501Y-94092688D01*
X129150500Y-94092686D01*
X129057314Y-93999500D01*
X129057311Y-93999498D01*
X129057309Y-93999496D01*
X128943189Y-93933609D01*
X128943191Y-93933609D01*
X128871578Y-93914421D01*
X128815892Y-93899500D01*
X128684108Y-93899500D01*
X128628422Y-93914421D01*
X128556809Y-93933609D01*
X128442690Y-93999496D01*
X128349496Y-94092690D01*
X128283609Y-94206809D01*
X128264539Y-94277978D01*
X128249500Y-94334108D01*
X124850500Y-94334108D01*
X124816392Y-94206814D01*
X124816390Y-94206811D01*
X124816390Y-94206809D01*
X124750503Y-94092690D01*
X124750501Y-94092688D01*
X124750500Y-94092686D01*
X124657314Y-93999500D01*
X124657311Y-93999498D01*
X124657309Y-93999496D01*
X124543189Y-93933609D01*
X124543191Y-93933609D01*
X124471578Y-93914421D01*
X124415892Y-93899500D01*
X124284108Y-93899500D01*
X124228422Y-93914421D01*
X124156809Y-93933609D01*
X124042690Y-93999496D01*
X123949496Y-94092690D01*
X123883609Y-94206809D01*
X123864539Y-94277978D01*
X123849500Y-94334108D01*
X63000500Y-94334108D01*
X63000500Y-92284108D01*
X132249500Y-92284108D01*
X132249500Y-92415892D01*
X132279579Y-92528151D01*
X132283609Y-92543190D01*
X132349496Y-92657309D01*
X132349498Y-92657311D01*
X132349500Y-92657314D01*
X132442686Y-92750500D01*
X132442688Y-92750501D01*
X132442690Y-92750503D01*
X132556810Y-92816390D01*
X132556808Y-92816390D01*
X132556812Y-92816391D01*
X132556814Y-92816392D01*
X132684108Y-92850500D01*
X132684110Y-92850500D01*
X132815890Y-92850500D01*
X132815892Y-92850500D01*
X132943186Y-92816392D01*
X132943188Y-92816390D01*
X132943190Y-92816390D01*
X133057309Y-92750503D01*
X133057309Y-92750502D01*
X133057314Y-92750500D01*
X133150500Y-92657314D01*
X133216392Y-92543186D01*
X133250500Y-92415892D01*
X133250500Y-92284108D01*
X133216392Y-92156814D01*
X133216390Y-92156811D01*
X133216390Y-92156809D01*
X133150503Y-92042690D01*
X133150501Y-92042688D01*
X133150500Y-92042686D01*
X133057314Y-91949500D01*
X133057311Y-91949498D01*
X133057309Y-91949496D01*
X132943189Y-91883609D01*
X132943191Y-91883609D01*
X132893799Y-91870375D01*
X132815892Y-91849500D01*
X132684108Y-91849500D01*
X132606200Y-91870375D01*
X132556809Y-91883609D01*
X132442690Y-91949496D01*
X132349496Y-92042690D01*
X132283609Y-92156809D01*
X132283608Y-92156814D01*
X132249500Y-92284108D01*
X63000500Y-92284108D01*
X63000500Y-87084108D01*
X132249500Y-87084108D01*
X132249500Y-87215892D01*
X132272238Y-87300754D01*
X132283608Y-87343187D01*
X132316698Y-87400501D01*
X132329419Y-87460349D01*
X132316698Y-87499499D01*
X132283608Y-87556812D01*
X132260869Y-87641676D01*
X132249500Y-87684108D01*
X132249500Y-87815892D01*
X132279579Y-87928151D01*
X132283609Y-87943190D01*
X132349496Y-88057309D01*
X132349498Y-88057311D01*
X132349500Y-88057314D01*
X132442686Y-88150500D01*
X132442688Y-88150501D01*
X132442690Y-88150503D01*
X132556810Y-88216390D01*
X132556808Y-88216390D01*
X132556812Y-88216391D01*
X132556814Y-88216392D01*
X132684108Y-88250500D01*
X132684110Y-88250500D01*
X132815890Y-88250500D01*
X132815892Y-88250500D01*
X132943186Y-88216392D01*
X132943188Y-88216390D01*
X132943190Y-88216390D01*
X133057309Y-88150503D01*
X133057309Y-88150502D01*
X133057314Y-88150500D01*
X133150500Y-88057314D01*
X133216392Y-87943186D01*
X133250500Y-87815892D01*
X133250500Y-87684108D01*
X133216392Y-87556814D01*
X133183300Y-87499498D01*
X133170579Y-87439654D01*
X133183299Y-87400503D01*
X133216392Y-87343186D01*
X133250500Y-87215892D01*
X133250500Y-87084108D01*
X133216392Y-86956814D01*
X133216390Y-86956811D01*
X133216390Y-86956809D01*
X133150503Y-86842690D01*
X133150501Y-86842688D01*
X133150500Y-86842686D01*
X133057314Y-86749500D01*
X133057311Y-86749498D01*
X133057309Y-86749496D01*
X132943189Y-86683609D01*
X132943191Y-86683609D01*
X132893799Y-86670375D01*
X132815892Y-86649500D01*
X132684108Y-86649500D01*
X132606200Y-86670375D01*
X132556809Y-86683609D01*
X132442690Y-86749496D01*
X132349496Y-86842690D01*
X132283609Y-86956809D01*
X132283608Y-86956814D01*
X132249500Y-87084108D01*
X63000500Y-87084108D01*
X63000500Y-56149927D01*
X128535500Y-56149927D01*
X128535500Y-56330072D01*
X128570643Y-56506748D01*
X128639580Y-56673177D01*
X128639581Y-56673178D01*
X128739661Y-56822960D01*
X128867040Y-56950339D01*
X129016822Y-57050419D01*
X129183250Y-57119356D01*
X129237378Y-57130122D01*
X129301622Y-57142902D01*
X129355006Y-57172799D01*
X129380622Y-57228364D01*
X129368685Y-57288374D01*
X129323755Y-57329906D01*
X129301622Y-57337098D01*
X129183251Y-57360643D01*
X129016822Y-57429580D01*
X128867043Y-57529658D01*
X128739658Y-57657043D01*
X128639580Y-57806822D01*
X128570643Y-57973251D01*
X128535500Y-58149927D01*
X128535500Y-58330072D01*
X128570643Y-58506748D01*
X128639580Y-58673177D01*
X128639581Y-58673178D01*
X128739661Y-58822960D01*
X128867040Y-58950339D01*
X129016822Y-59050419D01*
X129183250Y-59119356D01*
X129359930Y-59154500D01*
X129359931Y-59154500D01*
X129540069Y-59154500D01*
X129540070Y-59154500D01*
X129716750Y-59119356D01*
X129883178Y-59050419D01*
X130032960Y-58950339D01*
X130160339Y-58822960D01*
X130260419Y-58673178D01*
X130329356Y-58506750D01*
X130364500Y-58330070D01*
X130364500Y-58149930D01*
X130329356Y-57973250D01*
X130260419Y-57806822D01*
X130160339Y-57657040D01*
X130032960Y-57529661D01*
X129883178Y-57429581D01*
X129883179Y-57429581D01*
X129883177Y-57429580D01*
X129716748Y-57360643D01*
X129598377Y-57337098D01*
X129544993Y-57307201D01*
X129519377Y-57251636D01*
X129531314Y-57191626D01*
X129576244Y-57150094D01*
X129598377Y-57142902D01*
X129608492Y-57140889D01*
X129716750Y-57119356D01*
X129883178Y-57050419D01*
X130032960Y-56950339D01*
X130160339Y-56822960D01*
X130260419Y-56673178D01*
X130329356Y-56506750D01*
X130364500Y-56330070D01*
X130364500Y-56149930D01*
X130364499Y-56149927D01*
X131035500Y-56149927D01*
X131035500Y-56330072D01*
X131070643Y-56506748D01*
X131139580Y-56673177D01*
X131139581Y-56673178D01*
X131239661Y-56822960D01*
X131367040Y-56950339D01*
X131516822Y-57050419D01*
X131683250Y-57119356D01*
X131737378Y-57130122D01*
X131801622Y-57142902D01*
X131855006Y-57172799D01*
X131880622Y-57228364D01*
X131868685Y-57288374D01*
X131823755Y-57329906D01*
X131801622Y-57337098D01*
X131683251Y-57360643D01*
X131516822Y-57429580D01*
X131367043Y-57529658D01*
X131239658Y-57657043D01*
X131139580Y-57806822D01*
X131070643Y-57973251D01*
X131035500Y-58149927D01*
X131035500Y-58330072D01*
X131070643Y-58506748D01*
X131139580Y-58673177D01*
X131139581Y-58673178D01*
X131239661Y-58822960D01*
X131367040Y-58950339D01*
X131516822Y-59050419D01*
X131683250Y-59119356D01*
X131859930Y-59154500D01*
X131859931Y-59154500D01*
X132040069Y-59154500D01*
X132040070Y-59154500D01*
X132216750Y-59119356D01*
X132383178Y-59050419D01*
X132532960Y-58950339D01*
X132660339Y-58822960D01*
X132760419Y-58673178D01*
X132829356Y-58506750D01*
X132864500Y-58330070D01*
X132864500Y-58149930D01*
X132829356Y-57973250D01*
X132760419Y-57806822D01*
X132660339Y-57657040D01*
X132532960Y-57529661D01*
X132383178Y-57429581D01*
X132383179Y-57429581D01*
X132383177Y-57429580D01*
X132216748Y-57360643D01*
X132098377Y-57337098D01*
X132044993Y-57307201D01*
X132019377Y-57251636D01*
X132031314Y-57191626D01*
X132076244Y-57150094D01*
X132098377Y-57142902D01*
X132108492Y-57140889D01*
X132216750Y-57119356D01*
X132383178Y-57050419D01*
X132532960Y-56950339D01*
X132660339Y-56822960D01*
X132760419Y-56673178D01*
X132829356Y-56506750D01*
X132864500Y-56330070D01*
X132864500Y-56149930D01*
X132829356Y-55973250D01*
X132760419Y-55806822D01*
X132660339Y-55657040D01*
X132532960Y-55529661D01*
X132383178Y-55429581D01*
X132383179Y-55429581D01*
X132383177Y-55429580D01*
X132216748Y-55360643D01*
X132040072Y-55325500D01*
X132040070Y-55325500D01*
X131859930Y-55325500D01*
X131859927Y-55325500D01*
X131683251Y-55360643D01*
X131516822Y-55429580D01*
X131367043Y-55529658D01*
X131239658Y-55657043D01*
X131139580Y-55806822D01*
X131070643Y-55973251D01*
X131035500Y-56149927D01*
X130364499Y-56149927D01*
X130329356Y-55973250D01*
X130260419Y-55806822D01*
X130160339Y-55657040D01*
X130032960Y-55529661D01*
X129883178Y-55429581D01*
X129883179Y-55429581D01*
X129883177Y-55429580D01*
X129716748Y-55360643D01*
X129540072Y-55325500D01*
X129540070Y-55325500D01*
X129359930Y-55325500D01*
X129359927Y-55325500D01*
X129183251Y-55360643D01*
X129016822Y-55429580D01*
X128867043Y-55529658D01*
X128739658Y-55657043D01*
X128639580Y-55806822D01*
X128570643Y-55973251D01*
X128535500Y-56149927D01*
X63000500Y-56149927D01*
X63000500Y-53408185D01*
X122821500Y-53408185D01*
X122821500Y-53651814D01*
X122853298Y-53893345D01*
X122853298Y-53893350D01*
X122916352Y-54128669D01*
X122916356Y-54128682D01*
X123009581Y-54353749D01*
X123009583Y-54353753D01*
X123009585Y-54353757D01*
X123131398Y-54564743D01*
X123279707Y-54758024D01*
X123451976Y-54930293D01*
X123645257Y-55078602D01*
X123856243Y-55200415D01*
X124081323Y-55293646D01*
X124316647Y-55356701D01*
X124558187Y-55388500D01*
X124558188Y-55388500D01*
X124801812Y-55388500D01*
X124801813Y-55388500D01*
X125043353Y-55356701D01*
X125278677Y-55293646D01*
X125503757Y-55200415D01*
X125714743Y-55078602D01*
X125908024Y-54930293D01*
X126080293Y-54758024D01*
X126228602Y-54564743D01*
X126350415Y-54353757D01*
X126443646Y-54128677D01*
X126506701Y-53893353D01*
X126538500Y-53651813D01*
X126538500Y-53408187D01*
X126538500Y-53408185D01*
X134861500Y-53408185D01*
X134861500Y-53651814D01*
X134893298Y-53893345D01*
X134893298Y-53893350D01*
X134956352Y-54128669D01*
X134956356Y-54128682D01*
X135049581Y-54353749D01*
X135049583Y-54353753D01*
X135049585Y-54353757D01*
X135171398Y-54564743D01*
X135319707Y-54758024D01*
X135491976Y-54930293D01*
X135685257Y-55078602D01*
X135896243Y-55200415D01*
X136121323Y-55293646D01*
X136356647Y-55356701D01*
X136598187Y-55388500D01*
X136598188Y-55388500D01*
X136841812Y-55388500D01*
X136841813Y-55388500D01*
X137083353Y-55356701D01*
X137318677Y-55293646D01*
X137543757Y-55200415D01*
X137754743Y-55078602D01*
X137948024Y-54930293D01*
X138120293Y-54758024D01*
X138268602Y-54564743D01*
X138390415Y-54353757D01*
X138483646Y-54128677D01*
X138546701Y-53893353D01*
X138578500Y-53651813D01*
X138578500Y-53408187D01*
X138546701Y-53166647D01*
X138483646Y-52931323D01*
X138390415Y-52706243D01*
X138268602Y-52495257D01*
X138120293Y-52301976D01*
X137948024Y-52129707D01*
X137754743Y-51981398D01*
X137543757Y-51859585D01*
X137543753Y-51859583D01*
X137543749Y-51859581D01*
X137318682Y-51766356D01*
X137318681Y-51766355D01*
X137318677Y-51766354D01*
X137083353Y-51703299D01*
X137083350Y-51703298D01*
X137083348Y-51703298D01*
X136841814Y-51671500D01*
X136841813Y-51671500D01*
X136598187Y-51671500D01*
X136598185Y-51671500D01*
X136356654Y-51703298D01*
X136356649Y-51703298D01*
X136121330Y-51766352D01*
X136121317Y-51766356D01*
X135896250Y-51859581D01*
X135685253Y-51981400D01*
X135491979Y-52129704D01*
X135319704Y-52301979D01*
X135171400Y-52495253D01*
X135049581Y-52706250D01*
X134956356Y-52931317D01*
X134956352Y-52931330D01*
X134893298Y-53166649D01*
X134893298Y-53166654D01*
X134861500Y-53408185D01*
X126538500Y-53408185D01*
X126506701Y-53166647D01*
X126443646Y-52931323D01*
X126350415Y-52706243D01*
X126228602Y-52495257D01*
X126080293Y-52301976D01*
X125908024Y-52129707D01*
X125714743Y-51981398D01*
X125503757Y-51859585D01*
X125503753Y-51859583D01*
X125503749Y-51859581D01*
X125278682Y-51766356D01*
X125278681Y-51766355D01*
X125278677Y-51766354D01*
X125043353Y-51703299D01*
X125043350Y-51703298D01*
X125043348Y-51703298D01*
X124801814Y-51671500D01*
X124801813Y-51671500D01*
X124558187Y-51671500D01*
X124558185Y-51671500D01*
X124316654Y-51703298D01*
X124316649Y-51703298D01*
X124081330Y-51766352D01*
X124081317Y-51766356D01*
X123856250Y-51859581D01*
X123645253Y-51981400D01*
X123451979Y-52129704D01*
X123279704Y-52301979D01*
X123131400Y-52495253D01*
X123009581Y-52706250D01*
X122916356Y-52931317D01*
X122916352Y-52931330D01*
X122853298Y-53166649D01*
X122853298Y-53166654D01*
X122821500Y-53408185D01*
X63000500Y-53408185D01*
X63000500Y-48878710D01*
X64149500Y-48878710D01*
X64149500Y-49121289D01*
X64181161Y-49361781D01*
X64181161Y-49361786D01*
X64243944Y-49596092D01*
X64243948Y-49596105D01*
X64336772Y-49820204D01*
X64336774Y-49820208D01*
X64336776Y-49820212D01*
X64458064Y-50030289D01*
X64458066Y-50030292D01*
X64605729Y-50222731D01*
X64605731Y-50222733D01*
X64605735Y-50222738D01*
X64777262Y-50394265D01*
X64777266Y-50394268D01*
X64777268Y-50394270D01*
X64969707Y-50541933D01*
X64969711Y-50541936D01*
X65179788Y-50663224D01*
X65403900Y-50756054D01*
X65638211Y-50818838D01*
X65878712Y-50850500D01*
X65878713Y-50850500D01*
X66121287Y-50850500D01*
X66121288Y-50850500D01*
X66361789Y-50818838D01*
X66596100Y-50756054D01*
X66820212Y-50663224D01*
X67030289Y-50541936D01*
X67222738Y-50394265D01*
X67394265Y-50222738D01*
X67541936Y-50030289D01*
X67663224Y-49820212D01*
X67756054Y-49596100D01*
X67818838Y-49361789D01*
X67850500Y-49121288D01*
X67850500Y-48878712D01*
X67850500Y-48878710D01*
X211149500Y-48878710D01*
X211149500Y-49121289D01*
X211181161Y-49361781D01*
X211181161Y-49361786D01*
X211243944Y-49596092D01*
X211243948Y-49596105D01*
X211336772Y-49820204D01*
X211336774Y-49820208D01*
X211336776Y-49820212D01*
X211458064Y-50030289D01*
X211458066Y-50030292D01*
X211605729Y-50222731D01*
X211605731Y-50222733D01*
X211605735Y-50222738D01*
X211777262Y-50394265D01*
X211777266Y-50394268D01*
X211777268Y-50394270D01*
X211969707Y-50541933D01*
X211969711Y-50541936D01*
X212179788Y-50663224D01*
X212403900Y-50756054D01*
X212638211Y-50818838D01*
X212878712Y-50850500D01*
X212878713Y-50850500D01*
X213121287Y-50850500D01*
X213121288Y-50850500D01*
X213361789Y-50818838D01*
X213596100Y-50756054D01*
X213820212Y-50663224D01*
X214030289Y-50541936D01*
X214222738Y-50394265D01*
X214394265Y-50222738D01*
X214541936Y-50030289D01*
X214663224Y-49820212D01*
X214756054Y-49596100D01*
X214818838Y-49361789D01*
X214850500Y-49121288D01*
X214850500Y-48878712D01*
X214818838Y-48638211D01*
X214756054Y-48403900D01*
X214663224Y-48179788D01*
X214541936Y-47969711D01*
X214394265Y-47777262D01*
X214222738Y-47605735D01*
X214222733Y-47605731D01*
X214222731Y-47605729D01*
X214030292Y-47458066D01*
X214030289Y-47458064D01*
X213820212Y-47336776D01*
X213820208Y-47336774D01*
X213820204Y-47336772D01*
X213596105Y-47243948D01*
X213596104Y-47243947D01*
X213596100Y-47243946D01*
X213361789Y-47181162D01*
X213361786Y-47181161D01*
X213361784Y-47181161D01*
X213121289Y-47149500D01*
X213121288Y-47149500D01*
X212878712Y-47149500D01*
X212878710Y-47149500D01*
X212638218Y-47181161D01*
X212638213Y-47181161D01*
X212403907Y-47243944D01*
X212403894Y-47243948D01*
X212179795Y-47336772D01*
X211969707Y-47458066D01*
X211777268Y-47605729D01*
X211605729Y-47777268D01*
X211458066Y-47969707D01*
X211336772Y-48179795D01*
X211243948Y-48403894D01*
X211243944Y-48403907D01*
X211181161Y-48638213D01*
X211181161Y-48638218D01*
X211149500Y-48878710D01*
X67850500Y-48878710D01*
X67818838Y-48638211D01*
X67756054Y-48403900D01*
X67663224Y-48179788D01*
X67541936Y-47969711D01*
X67394265Y-47777262D01*
X67222738Y-47605735D01*
X67222733Y-47605731D01*
X67222731Y-47605729D01*
X67030292Y-47458066D01*
X67030289Y-47458064D01*
X66820212Y-47336776D01*
X66820208Y-47336774D01*
X66820204Y-47336772D01*
X66596105Y-47243948D01*
X66596104Y-47243947D01*
X66596100Y-47243946D01*
X66361789Y-47181162D01*
X66361786Y-47181161D01*
X66361784Y-47181161D01*
X66121289Y-47149500D01*
X66121288Y-47149500D01*
X65878712Y-47149500D01*
X65878710Y-47149500D01*
X65638218Y-47181161D01*
X65638213Y-47181161D01*
X65403907Y-47243944D01*
X65403894Y-47243948D01*
X65179795Y-47336772D01*
X64969707Y-47458066D01*
X64777268Y-47605729D01*
X64605729Y-47777268D01*
X64458066Y-47969707D01*
X64336772Y-48179795D01*
X64243948Y-48403894D01*
X64243944Y-48403907D01*
X64181161Y-48638213D01*
X64181161Y-48638218D01*
X64149500Y-48878710D01*
X63000500Y-48878710D01*
X63000500Y-48003240D01*
X63000712Y-47996765D01*
X63002485Y-47969711D01*
X63017182Y-47745480D01*
X63018869Y-47732659D01*
X63067367Y-47488845D01*
X63070714Y-47476352D01*
X63150618Y-47240965D01*
X63155574Y-47229003D01*
X63265512Y-47006070D01*
X63271983Y-46994859D01*
X63410089Y-46788169D01*
X63417964Y-46777907D01*
X63581870Y-46591008D01*
X63591008Y-46581870D01*
X63777907Y-46417964D01*
X63788169Y-46410089D01*
X63994859Y-46271983D01*
X64006070Y-46265512D01*
X64229003Y-46155574D01*
X64240966Y-46150618D01*
X64476352Y-46070714D01*
X64488845Y-46067367D01*
X64732659Y-46018869D01*
X64745480Y-46017182D01*
X64996766Y-46000712D01*
X65003241Y-46000500D01*
X65092710Y-46000500D01*
X213907290Y-46000500D01*
X213996759Y-46000500D01*
X214003234Y-46000712D01*
G37*
%TD.AperFunction*%
%TD*%
M02*
