%TF.GenerationSoftware,KiCad,Pcbnew,9.0.1*%
%TF.CreationDate,2025-12-28T11:24:27-06:00*%
%TF.ProjectId,opensync_prototype,6f70656e-7379-46e6-935f-70726f746f74,0.1*%
%TF.SameCoordinates,Original*%
%TF.FileFunction,Soldermask,Top*%
%TF.FilePolarity,Negative*%
%FSLAX46Y46*%
G04 Gerber Fmt 4.6, Leading zero omitted, Abs format (unit mm)*
G04 Created by KiCad (PCBNEW 9.0.1) date 2025-12-28 11:24:27*
%MOMM*%
%LPD*%
G01*
G04 APERTURE LIST*
G04 Aperture macros list*
%AMRoundRect*
0 Rectangle with rounded corners*
0 $1 Rounding radius*
0 $2 $3 $4 $5 $6 $7 $8 $9 X,Y pos of 4 corners*
0 Add a 4 corners polygon primitive as box body*
4,1,4,$2,$3,$4,$5,$6,$7,$8,$9,$2,$3,0*
0 Add four circle primitives for the rounded corners*
1,1,$1+$1,$2,$3*
1,1,$1+$1,$4,$5*
1,1,$1+$1,$6,$7*
1,1,$1+$1,$8,$9*
0 Add four rect primitives between the rounded corners*
20,1,$1+$1,$2,$3,$4,$5,0*
20,1,$1+$1,$4,$5,$6,$7,0*
20,1,$1+$1,$6,$7,$8,$9,0*
20,1,$1+$1,$8,$9,$2,$3,0*%
G04 Aperture macros list end*
%ADD10RoundRect,0.218750X-0.256250X0.218750X-0.256250X-0.218750X0.256250X-0.218750X0.256250X0.218750X0*%
%ADD11RoundRect,0.135000X-0.185000X0.135000X-0.185000X-0.135000X0.185000X-0.135000X0.185000X0.135000X0*%
%ADD12C,2.004000*%
%ADD13C,2.754000*%
%ADD14R,0.700000X1.700000*%
%ADD15RoundRect,0.135000X0.135000X0.185000X-0.135000X0.185000X-0.135000X-0.185000X0.135000X-0.185000X0*%
%ADD16R,0.530000X0.470000*%
%ADD17R,0.470000X0.530000*%
%ADD18RoundRect,0.150000X-0.150000X-0.625000X0.150000X-0.625000X0.150000X0.625000X-0.150000X0.625000X0*%
%ADD19RoundRect,0.250000X-0.350000X-0.650000X0.350000X-0.650000X0.350000X0.650000X-0.350000X0.650000X0*%
%ADD20RoundRect,0.075500X-0.226500X0.621500X-0.226500X-0.621500X0.226500X-0.621500X0.226500X0.621500X0*%
%ADD21C,3.200000*%
%ADD22RoundRect,0.135000X-0.135000X-0.185000X0.135000X-0.185000X0.135000X0.185000X-0.135000X0.185000X0*%
%ADD23R,1.050000X0.650000*%
%ADD24C,1.632000*%
%ADD25C,3.520000*%
%ADD26RoundRect,0.075500X0.226500X-0.621500X0.226500X0.621500X-0.226500X0.621500X-0.226500X-0.621500X0*%
%ADD27RoundRect,0.135000X0.185000X-0.135000X0.185000X0.135000X-0.185000X0.135000X-0.185000X-0.135000X0*%
%ADD28R,2.300000X1.000000*%
%ADD29RoundRect,0.055000X0.335000X-0.055000X0.335000X0.055000X-0.335000X0.055000X-0.335000X-0.055000X0*%
%ADD30RoundRect,0.055000X-0.055000X-0.335000X0.055000X-0.335000X0.055000X0.335000X-0.055000X0.335000X0*%
%ADD31C,0.600000*%
%ADD32R,1.133333X1.133333*%
%ADD33RoundRect,0.102000X0.650000X-0.525000X0.650000X0.525000X-0.650000X0.525000X-0.650000X-0.525000X0*%
%ADD34RoundRect,0.375000X-0.375000X0.625000X-0.375000X-0.625000X0.375000X-0.625000X0.375000X0.625000X0*%
%ADD35RoundRect,0.500000X-1.400000X0.500000X-1.400000X-0.500000X1.400000X-0.500000X1.400000X0.500000X0*%
G04 APERTURE END LIST*
D10*
%TO.C,D2*%
X187000000Y-56212500D03*
X187000000Y-57787500D03*
%TD*%
%TO.C,D1*%
X202000000Y-56212500D03*
X202000000Y-57787500D03*
%TD*%
D11*
%TO.C,R14*%
X187000000Y-53990000D03*
X187000000Y-55010000D03*
%TD*%
%TO.C,R9*%
X202000000Y-53990000D03*
X202000000Y-55010000D03*
%TD*%
%TO.C,R8*%
X137400000Y-91590000D03*
X137400000Y-92610000D03*
%TD*%
D12*
%TO.C,J13*%
X172000000Y-51000000D03*
D13*
X174540000Y-53540000D03*
X169460000Y-53540000D03*
X169460000Y-48460000D03*
X174540000Y-48460000D03*
%TD*%
D14*
%TO.C,L2*%
X77200000Y-72500000D03*
X75800000Y-72500000D03*
%TD*%
D15*
%TO.C,R42*%
X204010000Y-134000000D03*
X202990000Y-134000000D03*
%TD*%
%TO.C,R32*%
X129010000Y-134000000D03*
X127990000Y-134000000D03*
%TD*%
D16*
%TO.C,C32*%
X159400000Y-130115000D03*
X159400000Y-129085000D03*
%TD*%
D15*
%TO.C,R17*%
X96910000Y-128800000D03*
X95890000Y-128800000D03*
%TD*%
D17*
%TO.C,C23*%
X76215000Y-126500000D03*
X75185000Y-126500000D03*
%TD*%
D16*
%TO.C,C22*%
X94600000Y-78215000D03*
X94600000Y-77185000D03*
%TD*%
D15*
%TO.C,R30*%
X114010000Y-134000000D03*
X112990000Y-134000000D03*
%TD*%
D11*
%TO.C,R41*%
X187000000Y-135990000D03*
X187000000Y-137010000D03*
%TD*%
D15*
%TO.C,R24*%
X201910000Y-128800000D03*
X200890000Y-128800000D03*
%TD*%
D16*
%TO.C,C5*%
X136200000Y-87600000D03*
X136200000Y-88630000D03*
%TD*%
D15*
%TO.C,R23*%
X186910000Y-128800000D03*
X185890000Y-128800000D03*
%TD*%
%TO.C,R18*%
X111910000Y-128800000D03*
X110890000Y-128800000D03*
%TD*%
D17*
%TO.C,C4*%
X133485000Y-87350000D03*
X134515000Y-87350000D03*
%TD*%
D18*
%TO.C,J12*%
X136100000Y-113300000D03*
X137100000Y-113300000D03*
X138100000Y-113300000D03*
D19*
X134800000Y-117175000D03*
X139400000Y-117175000D03*
%TD*%
D17*
%TO.C,C3*%
X133115000Y-105020000D03*
X132085000Y-105020000D03*
%TD*%
D20*
%TO.C,U6*%
X113250000Y-130440000D03*
X112600000Y-130440000D03*
X111950000Y-130440000D03*
X111950000Y-132360000D03*
X112600000Y-132360000D03*
X113250000Y-132360000D03*
%TD*%
D17*
%TO.C,C18*%
X80315000Y-61500000D03*
X79285000Y-61500000D03*
%TD*%
D15*
%TO.C,R36*%
X159010000Y-134000000D03*
X157990000Y-134000000D03*
%TD*%
D16*
%TO.C,C10*%
X129700000Y-102385000D03*
X129700000Y-103415000D03*
%TD*%
D17*
%TO.C,C2*%
X129085000Y-105020000D03*
X130115000Y-105020000D03*
%TD*%
D16*
%TO.C,C29*%
X144400000Y-130115000D03*
X144400000Y-129085000D03*
%TD*%
D14*
%TO.C,L1*%
X133410000Y-85450000D03*
X134810000Y-85450000D03*
%TD*%
D15*
%TO.C,R28*%
X99010000Y-134000000D03*
X97990000Y-134000000D03*
%TD*%
D20*
%TO.C,U10*%
X173250000Y-130440000D03*
X172600000Y-130440000D03*
X171950000Y-130440000D03*
X171950000Y-132360000D03*
X172600000Y-132360000D03*
X173250000Y-132360000D03*
%TD*%
D21*
%TO.C,H4*%
X66000000Y-141000000D03*
%TD*%
D20*
%TO.C,U8*%
X143250000Y-130440000D03*
X142600000Y-130440000D03*
X141950000Y-130440000D03*
X141950000Y-132360000D03*
X142600000Y-132360000D03*
X143250000Y-132360000D03*
%TD*%
D22*
%TO.C,R10*%
X125490000Y-87200000D03*
X126510000Y-87200000D03*
%TD*%
D17*
%TO.C,C19*%
X96085000Y-80600000D03*
X97115000Y-80600000D03*
%TD*%
D22*
%TO.C,R6*%
X125490000Y-88150000D03*
X126510000Y-88150000D03*
%TD*%
D11*
%TO.C,R12*%
X132000000Y-85290000D03*
X132000000Y-86310000D03*
%TD*%
D15*
%TO.C,R34*%
X144010000Y-134000000D03*
X142990000Y-134000000D03*
%TD*%
D17*
%TO.C,C6*%
X123515000Y-94400000D03*
X122485000Y-94400000D03*
%TD*%
D23*
%TO.C,SW2*%
X84100000Y-105700000D03*
X79950000Y-105700000D03*
X84100000Y-103550000D03*
X79975000Y-103550000D03*
%TD*%
D17*
%TO.C,C1*%
X133485000Y-88300000D03*
X134515000Y-88300000D03*
%TD*%
D15*
%TO.C,R19*%
X126910000Y-128800000D03*
X125890000Y-128800000D03*
%TD*%
%TO.C,R38*%
X174010000Y-134000000D03*
X172990000Y-134000000D03*
%TD*%
D11*
%TO.C,R35*%
X142000000Y-135990000D03*
X142000000Y-137010000D03*
%TD*%
D15*
%TO.C,R3*%
X76510000Y-105700000D03*
X75490000Y-105700000D03*
%TD*%
D17*
%TO.C,C16*%
X138485000Y-95200000D03*
X139515000Y-95200000D03*
%TD*%
D16*
%TO.C,C33*%
X189400000Y-130115000D03*
X189400000Y-129085000D03*
%TD*%
D14*
%TO.C,L3*%
X91700000Y-78200000D03*
X93100000Y-78200000D03*
%TD*%
D11*
%TO.C,R37*%
X157000000Y-135990000D03*
X157000000Y-137010000D03*
%TD*%
%TO.C,R11*%
X131000000Y-85290000D03*
X131000000Y-86310000D03*
%TD*%
%TO.C,R29*%
X97000000Y-135990000D03*
X97000000Y-137010000D03*
%TD*%
%TO.C,R31*%
X112000000Y-135990000D03*
X112000000Y-137010000D03*
%TD*%
%TO.C,R33*%
X127000000Y-135990000D03*
X127000000Y-137010000D03*
%TD*%
D16*
%TO.C,C39*%
X204400000Y-132415000D03*
X204400000Y-131385000D03*
%TD*%
D15*
%TO.C,R4*%
X87510000Y-97200000D03*
X86490000Y-97200000D03*
%TD*%
%TO.C,R40*%
X189010000Y-134000000D03*
X187990000Y-134000000D03*
%TD*%
D22*
%TO.C,R27*%
X76990000Y-134200000D03*
X78010000Y-134200000D03*
%TD*%
D15*
%TO.C,R21*%
X156910000Y-128800000D03*
X155890000Y-128800000D03*
%TD*%
D20*
%TO.C,U5*%
X98250000Y-130440000D03*
X97600000Y-130440000D03*
X96950000Y-130440000D03*
X96950000Y-132360000D03*
X97600000Y-132360000D03*
X98250000Y-132360000D03*
%TD*%
D16*
%TO.C,C25*%
X129400000Y-130115000D03*
X129400000Y-129085000D03*
%TD*%
D20*
%TO.C,U7*%
X128250000Y-130440000D03*
X127600000Y-130440000D03*
X126950000Y-130440000D03*
X126950000Y-132360000D03*
X127600000Y-132360000D03*
X128250000Y-132360000D03*
%TD*%
D24*
%TO.C,J1*%
X80750000Y-58740000D03*
X83250000Y-58740000D03*
X83250000Y-56740000D03*
X80750000Y-56740000D03*
D25*
X88020000Y-54030000D03*
X75980000Y-54030000D03*
%TD*%
D17*
%TO.C,C12*%
X123515000Y-91700000D03*
X122485000Y-91700000D03*
%TD*%
D15*
%TO.C,R20*%
X141910000Y-128800000D03*
X140890000Y-128800000D03*
%TD*%
D20*
%TO.C,U9*%
X158250000Y-130440000D03*
X157600000Y-130440000D03*
X156950000Y-130440000D03*
X156950000Y-132360000D03*
X157600000Y-132360000D03*
X158250000Y-132360000D03*
%TD*%
D17*
%TO.C,C13*%
X123515000Y-96800000D03*
X122485000Y-96800000D03*
%TD*%
D26*
%TO.C,U4*%
X76350000Y-129860000D03*
X77000000Y-129860000D03*
X77650000Y-129860000D03*
X77650000Y-127940000D03*
X76350000Y-127940000D03*
%TD*%
D16*
%TO.C,C26*%
X99400000Y-132415000D03*
X99400000Y-131385000D03*
%TD*%
D22*
%TO.C,R5*%
X125490000Y-86250000D03*
X126510000Y-86250000D03*
%TD*%
D20*
%TO.C,U12*%
X203250000Y-130440000D03*
X202600000Y-130440000D03*
X201950000Y-130440000D03*
X201950000Y-132360000D03*
X202600000Y-132360000D03*
X203250000Y-132360000D03*
%TD*%
D11*
%TO.C,R1*%
X136200000Y-85740000D03*
X136200000Y-86760000D03*
%TD*%
D16*
%TO.C,C36*%
X174400000Y-130115000D03*
X174400000Y-129085000D03*
%TD*%
%TO.C,C9*%
X130000000Y-86315000D03*
X130000000Y-85285000D03*
%TD*%
%TO.C,C28*%
X114400000Y-130115000D03*
X114400000Y-129085000D03*
%TD*%
D17*
%TO.C,C15*%
X137985000Y-99100000D03*
X139015000Y-99100000D03*
%TD*%
D21*
%TO.C,H1*%
X66000000Y-49000000D03*
%TD*%
D16*
%TO.C,C31*%
X144400000Y-132415000D03*
X144400000Y-131385000D03*
%TD*%
%TO.C,C27*%
X129400000Y-132415000D03*
X129400000Y-131385000D03*
%TD*%
D20*
%TO.C,U11*%
X188250000Y-130440000D03*
X187600000Y-130440000D03*
X186950000Y-130440000D03*
X186950000Y-132360000D03*
X187600000Y-132360000D03*
X188250000Y-132360000D03*
%TD*%
D11*
%TO.C,R43*%
X202000000Y-135990000D03*
X202000000Y-137010000D03*
%TD*%
D17*
%TO.C,C20*%
X77315000Y-70600000D03*
X76285000Y-70600000D03*
%TD*%
%TO.C,C8*%
X138485000Y-94200000D03*
X139515000Y-94200000D03*
%TD*%
D16*
%TO.C,C34*%
X159400000Y-132415000D03*
X159400000Y-131385000D03*
%TD*%
%TO.C,C7*%
X132400000Y-102385000D03*
X132400000Y-103415000D03*
%TD*%
D27*
%TO.C,R13*%
X77000000Y-132910000D03*
X77000000Y-131890000D03*
%TD*%
D16*
%TO.C,C35*%
X189400000Y-132415000D03*
X189400000Y-131385000D03*
%TD*%
D21*
%TO.C,H3*%
X213000000Y-141000000D03*
%TD*%
D23*
%TO.C,SW1*%
X79925000Y-95125000D03*
X84075000Y-95125000D03*
X79925000Y-97275000D03*
X84050000Y-97275000D03*
%TD*%
D16*
%TO.C,C38*%
X174400000Y-132415000D03*
X174400000Y-131385000D03*
%TD*%
D28*
%TO.C,U3*%
X80100000Y-70020000D03*
X80100000Y-72560000D03*
X80100000Y-77640000D03*
X89500000Y-77640000D03*
X89500000Y-70020000D03*
%TD*%
D16*
%TO.C,C37*%
X204400000Y-130115000D03*
X204400000Y-129085000D03*
%TD*%
%TO.C,C11*%
X128650000Y-88465000D03*
X128650000Y-87435000D03*
%TD*%
%TO.C,C24*%
X99400000Y-130115000D03*
X99400000Y-129085000D03*
%TD*%
D27*
%TO.C,R2*%
X131200000Y-103410000D03*
X131200000Y-102390000D03*
%TD*%
D29*
%TO.C,U2*%
X126103500Y-90800000D03*
X126103500Y-91200000D03*
X126103500Y-91600000D03*
X126103500Y-92000000D03*
X126103500Y-92400000D03*
X126103500Y-92800000D03*
X126103500Y-93200000D03*
X126103500Y-93600000D03*
X126103500Y-94000000D03*
X126103500Y-94400000D03*
X126103500Y-94800000D03*
X126103500Y-95200000D03*
X126103500Y-95600000D03*
X126103500Y-96000000D03*
X126103500Y-96400000D03*
X126103500Y-96800000D03*
X126103500Y-97200000D03*
X126103500Y-97600000D03*
X126103500Y-98000000D03*
X126103500Y-98400000D03*
D30*
X127200000Y-99496500D03*
X127600000Y-99496500D03*
X128000000Y-99496500D03*
X128400000Y-99496500D03*
X128800000Y-99496500D03*
X129200000Y-99496500D03*
X129600000Y-99496500D03*
X130000000Y-99496500D03*
X130400000Y-99496500D03*
X130800000Y-99496500D03*
X131200000Y-99496500D03*
X131600000Y-99496500D03*
X132000000Y-99496500D03*
X132400000Y-99496500D03*
X132800000Y-99496500D03*
X133200000Y-99496500D03*
X133600000Y-99496500D03*
X134000000Y-99496500D03*
X134400000Y-99496500D03*
X134800000Y-99496500D03*
D29*
X135896500Y-98400000D03*
X135896500Y-98000000D03*
X135896500Y-97600000D03*
X135896500Y-97200000D03*
X135896500Y-96800000D03*
X135896500Y-96400000D03*
X135896500Y-96000000D03*
X135896500Y-95600000D03*
X135896500Y-95200000D03*
X135896500Y-94800000D03*
X135896500Y-94400000D03*
X135896500Y-94000000D03*
X135896500Y-93600000D03*
X135896500Y-93200000D03*
X135896500Y-92800000D03*
X135896500Y-92400000D03*
X135896500Y-92000000D03*
X135896500Y-91600000D03*
X135896500Y-91200000D03*
X135896500Y-90800000D03*
D30*
X134800000Y-89703500D03*
X134400000Y-89703500D03*
X134000000Y-89703500D03*
X133600000Y-89703500D03*
X133200000Y-89703500D03*
X132800000Y-89703500D03*
X132400000Y-89703500D03*
X132000000Y-89703500D03*
X131600000Y-89703500D03*
X131200000Y-89703500D03*
X130800000Y-89703500D03*
X130400000Y-89703500D03*
X130000000Y-89703500D03*
X129600000Y-89703500D03*
X129200000Y-89703500D03*
X128800000Y-89703500D03*
X128400000Y-89703500D03*
X128000000Y-89703500D03*
X127600000Y-89703500D03*
X127200000Y-89703500D03*
D31*
X129866667Y-93466667D03*
D32*
X129866667Y-93466667D03*
D31*
X129866667Y-94600000D03*
D32*
X129866667Y-94600000D03*
D31*
X129866667Y-95733333D03*
D32*
X129866667Y-95733333D03*
D31*
X131000000Y-93466667D03*
D32*
X131000000Y-93466667D03*
D31*
X131000000Y-94600000D03*
D32*
X131000000Y-94600000D03*
D31*
X131000000Y-95733333D03*
D32*
X131000000Y-95733333D03*
D31*
X132133333Y-93466667D03*
D32*
X132133333Y-93466667D03*
D31*
X132133333Y-94600000D03*
D32*
X132133333Y-94600000D03*
D31*
X132133333Y-95733333D03*
D32*
X132133333Y-95733333D03*
%TD*%
D11*
%TO.C,R39*%
X172000000Y-135990000D03*
X172000000Y-137010000D03*
%TD*%
D33*
%TO.C,Y1*%
X129850000Y-109475000D03*
X132150000Y-109475000D03*
X132150000Y-107725000D03*
X129850000Y-107725000D03*
%TD*%
D17*
%TO.C,C17*%
X126815000Y-101300000D03*
X125785000Y-101300000D03*
%TD*%
D16*
%TO.C,C30*%
X114400000Y-132415000D03*
X114400000Y-131385000D03*
%TD*%
D34*
%TO.C,U1*%
X100700000Y-82350000D03*
X98400000Y-82350000D03*
D35*
X98400000Y-88650000D03*
D34*
X96100000Y-82350000D03*
%TD*%
D17*
%TO.C,C14*%
X137985000Y-90300000D03*
X139015000Y-90300000D03*
%TD*%
D15*
%TO.C,R22*%
X171910000Y-128800000D03*
X170890000Y-128800000D03*
%TD*%
D17*
%TO.C,C21*%
X97887500Y-91900000D03*
X98917500Y-91900000D03*
%TD*%
D21*
%TO.C,H2*%
X213000000Y-49000000D03*
%TD*%
D11*
%TO.C,R7*%
X124600000Y-97790000D03*
X124600000Y-98810000D03*
%TD*%
D12*
%TO.C,J6*%
X127000000Y-139000000D03*
D13*
X129540000Y-136460000D03*
X124460000Y-136460000D03*
X124460000Y-141540000D03*
X129540000Y-141540000D03*
%TD*%
D12*
%TO.C,J10*%
X187000000Y-139000000D03*
D13*
X189540000Y-136460000D03*
X184460000Y-136460000D03*
X184460000Y-141540000D03*
X189540000Y-141540000D03*
%TD*%
D12*
%TO.C,J9*%
X172000000Y-139000000D03*
D13*
X174540000Y-136460000D03*
X169460000Y-136460000D03*
X169460000Y-141540000D03*
X174540000Y-141540000D03*
%TD*%
D12*
%TO.C,J4*%
X97000000Y-139000000D03*
D13*
X99540000Y-136460000D03*
X94460000Y-136460000D03*
X94460000Y-141540000D03*
X99540000Y-141540000D03*
%TD*%
D12*
%TO.C,J8*%
X157000000Y-139000000D03*
D13*
X159540000Y-136460000D03*
X154460000Y-136460000D03*
X154460000Y-141540000D03*
X159540000Y-141540000D03*
%TD*%
D12*
%TO.C,J11*%
X202000000Y-139000000D03*
D13*
X204540000Y-136460000D03*
X199460000Y-136460000D03*
X199460000Y-141540000D03*
X204540000Y-141540000D03*
%TD*%
D12*
%TO.C,J2*%
X77000000Y-139000000D03*
D13*
X79540000Y-136460000D03*
X74460000Y-136460000D03*
X74460000Y-141540000D03*
X79540000Y-141540000D03*
%TD*%
D12*
%TO.C,J7*%
X142000000Y-139000000D03*
D13*
X144540000Y-136460000D03*
X139460000Y-136460000D03*
X139460000Y-141540000D03*
X144540000Y-141540000D03*
%TD*%
D12*
%TO.C,J5*%
X112000000Y-139000000D03*
D13*
X114540000Y-136460000D03*
X109460000Y-136460000D03*
X109460000Y-141540000D03*
X114540000Y-141540000D03*
%TD*%
M02*
