%TF.GenerationSoftware,KiCad,Pcbnew,9.0.1*%
%TF.CreationDate,2025-12-24T17:34:11-06:00*%
%TF.ProjectId,opensync_prototype,6f70656e-7379-46e6-935f-70726f746f74,0.1*%
%TF.SameCoordinates,Original*%
%TF.FileFunction,Copper,L4,Bot*%
%TF.FilePolarity,Positive*%
%FSLAX46Y46*%
G04 Gerber Fmt 4.6, Leading zero omitted, Abs format (unit mm)*
G04 Created by KiCad (PCBNEW 9.0.1) date 2025-12-24 17:34:11*
%MOMM*%
%LPD*%
G01*
G04 APERTURE LIST*
%TA.AperFunction,ComponentPad*%
%ADD10C,1.428000*%
%TD*%
%TA.AperFunction,ComponentPad*%
%ADD11C,3.316000*%
%TD*%
%TA.AperFunction,ComponentPad*%
%ADD12C,0.600000*%
%TD*%
%TA.AperFunction,ComponentPad*%
%ADD13C,1.800000*%
%TD*%
%TA.AperFunction,ComponentPad*%
%ADD14C,2.550000*%
%TD*%
%TA.AperFunction,ViaPad*%
%ADD15C,0.600000*%
%TD*%
%TA.AperFunction,Conductor*%
%ADD16C,0.600000*%
%TD*%
%TA.AperFunction,Conductor*%
%ADD17C,0.156500*%
%TD*%
G04 APERTURE END LIST*
D10*
%TO.P,J1,1,VBUS*%
%TO.N,VBUS*%
X129450000Y-58240000D03*
%TO.P,J1,2,D-*%
%TO.N,/Power and Data/USB_D-*%
X131950000Y-58240000D03*
%TO.P,J1,3,D+*%
%TO.N,/Power and Data/USB_D+*%
X131950000Y-56240000D03*
%TO.P,J1,4,GND*%
%TO.N,GND_BUS*%
X129450000Y-56240000D03*
D11*
%TO.P,J1,S1*%
X136720000Y-53530000D03*
%TO.P,J1,S2*%
X124680000Y-53530000D03*
%TD*%
D12*
%TO.P,U2,81,GND*%
%TO.N,GND*%
X129866667Y-93466667D03*
X129866667Y-94600000D03*
X129866667Y-95733333D03*
X131000000Y-93466667D03*
X131000000Y-94600000D03*
X131000000Y-95733333D03*
X132133333Y-93466667D03*
X132133333Y-94600000D03*
X132133333Y-95733333D03*
%TD*%
D13*
%TO.P,J6,1*%
%TO.N,Net-(J6-Pad1)*%
X127000000Y-139000000D03*
D14*
%TO.P,J6,2*%
%TO.N,GND*%
X129540000Y-136460000D03*
%TO.P,J6,3*%
X124460000Y-136460000D03*
%TO.P,J6,4*%
X124460000Y-141540000D03*
%TO.P,J6,5*%
X129540000Y-141540000D03*
%TD*%
D13*
%TO.P,J10,1*%
%TO.N,Net-(J10-Pad1)*%
X187000000Y-139000000D03*
D14*
%TO.P,J10,2*%
%TO.N,GND*%
X189540000Y-136460000D03*
%TO.P,J10,3*%
X184460000Y-136460000D03*
%TO.P,J10,4*%
X184460000Y-141540000D03*
%TO.P,J10,5*%
X189540000Y-141540000D03*
%TD*%
D13*
%TO.P,J9,1*%
%TO.N,Net-(J9-Pad1)*%
X172000000Y-139000000D03*
D14*
%TO.P,J9,2*%
%TO.N,GND*%
X174540000Y-136460000D03*
%TO.P,J9,3*%
X169460000Y-136460000D03*
%TO.P,J9,4*%
X169460000Y-141540000D03*
%TO.P,J9,5*%
X174540000Y-141540000D03*
%TD*%
D13*
%TO.P,J4,1*%
%TO.N,Net-(J4-Pad1)*%
X97000000Y-139000000D03*
D14*
%TO.P,J4,2*%
%TO.N,GND*%
X99540000Y-136460000D03*
%TO.P,J4,3*%
X94460000Y-136460000D03*
%TO.P,J4,4*%
X94460000Y-141540000D03*
%TO.P,J4,5*%
X99540000Y-141540000D03*
%TD*%
D13*
%TO.P,J8,1*%
%TO.N,Net-(J8-Pad1)*%
X157000000Y-139000000D03*
D14*
%TO.P,J8,2*%
%TO.N,GND*%
X159540000Y-136460000D03*
%TO.P,J8,3*%
X154460000Y-136460000D03*
%TO.P,J8,4*%
X154460000Y-141540000D03*
%TO.P,J8,5*%
X159540000Y-141540000D03*
%TD*%
D13*
%TO.P,J11,1*%
%TO.N,Net-(J11-Pad1)*%
X202000000Y-139000000D03*
D14*
%TO.P,J11,2*%
%TO.N,GND*%
X204540000Y-136460000D03*
%TO.P,J11,3*%
X199460000Y-136460000D03*
%TO.P,J11,4*%
X199460000Y-141540000D03*
%TO.P,J11,5*%
X204540000Y-141540000D03*
%TD*%
D13*
%TO.P,J2,1*%
%TO.N,Net-(J2-Pad1)*%
X77000000Y-139000000D03*
D14*
%TO.P,J2,2*%
%TO.N,GND*%
X79540000Y-136460000D03*
%TO.P,J2,3*%
X74460000Y-136460000D03*
%TO.P,J2,4*%
X74460000Y-141540000D03*
%TO.P,J2,5*%
X79540000Y-141540000D03*
%TD*%
D13*
%TO.P,J7,1*%
%TO.N,Net-(J7-Pad1)*%
X142000000Y-139000000D03*
D14*
%TO.P,J7,2*%
%TO.N,GND*%
X144540000Y-136460000D03*
%TO.P,J7,3*%
X139460000Y-136460000D03*
%TO.P,J7,4*%
X139460000Y-141540000D03*
%TO.P,J7,5*%
X144540000Y-141540000D03*
%TD*%
D13*
%TO.P,J5,1*%
%TO.N,Net-(J5-Pad1)*%
X112000000Y-139000000D03*
D14*
%TO.P,J5,2*%
%TO.N,GND*%
X114540000Y-136460000D03*
%TO.P,J5,3*%
X109460000Y-136460000D03*
%TO.P,J5,4*%
X109460000Y-141540000D03*
%TO.P,J5,5*%
X114540000Y-141540000D03*
%TD*%
D15*
%TO.N,+1V1*%
X132750000Y-87750000D03*
X132000000Y-101500000D03*
X133250000Y-94400000D03*
X128750000Y-94400000D03*
X132750000Y-92350000D03*
X124350000Y-94400000D03*
X137400000Y-94400000D03*
X132000000Y-96850000D03*
X132750000Y-87150000D03*
%TO.N,/Microcontroller and Ext. Clock/RUN*%
X99600000Y-98900000D03*
X132800000Y-98550000D03*
%TD*%
D16*
%TO.N,+1V1*%
X128750000Y-94400000D02*
X124350000Y-94400000D01*
X137400000Y-94400000D02*
X133250000Y-94400000D01*
X132750000Y-87150000D02*
X132750000Y-92350000D01*
X132000000Y-101500000D02*
X132000000Y-96850000D01*
D17*
%TO.N,/Microcontroller and Ext. Clock/RUN*%
X132800000Y-98550000D02*
X134800000Y-98550000D01*
X112600000Y-98900000D02*
X99600000Y-98900000D01*
X134000000Y-111650000D02*
X125350000Y-111650000D01*
X134800000Y-98550000D02*
X135350000Y-99100000D01*
X125350000Y-111650000D02*
X112600000Y-98900000D01*
X135350000Y-99100000D02*
X135350000Y-110300000D01*
X135350000Y-110300000D02*
X134000000Y-111650000D01*
%TD*%
M02*
