%TF.GenerationSoftware,KiCad,Pcbnew,9.0.1*%
%TF.CreationDate,2025-12-29T16:32:10-06:00*%
%TF.ProjectId,opensync_prototype,6f70656e-7379-46e6-935f-70726f746f74,0.1*%
%TF.SameCoordinates,Original*%
%TF.FileFunction,Copper,L3,Inr*%
%TF.FilePolarity,Positive*%
%FSLAX46Y46*%
G04 Gerber Fmt 4.6, Leading zero omitted, Abs format (unit mm)*
G04 Created by KiCad (PCBNEW 9.0.1) date 2025-12-29 16:32:10*
%MOMM*%
%LPD*%
G01*
G04 APERTURE LIST*
%TA.AperFunction,ComponentPad*%
%ADD10C,1.428000*%
%TD*%
%TA.AperFunction,ComponentPad*%
%ADD11C,3.316000*%
%TD*%
%TA.AperFunction,ComponentPad*%
%ADD12C,1.800000*%
%TD*%
%TA.AperFunction,ComponentPad*%
%ADD13C,2.550000*%
%TD*%
%TA.AperFunction,ComponentPad*%
%ADD14C,0.600000*%
%TD*%
%TA.AperFunction,ViaPad*%
%ADD15C,0.600000*%
%TD*%
G04 APERTURE END LIST*
D10*
%TO.N,VBUS*%
%TO.C,J1*%
X80750000Y-58740000D03*
%TO.N,/Power and Data/USB_D-*%
X83250000Y-58740000D03*
%TO.N,/Power and Data/USB_D+*%
X83250000Y-56740000D03*
%TO.N,GND_BUS*%
X80750000Y-56740000D03*
D11*
X88020000Y-54030000D03*
X75980000Y-54030000D03*
%TD*%
D12*
%TO.N,/Microcontroller and Ext. Clock/SAFETY_INTERLOCK*%
%TO.C,J13*%
X117000000Y-51000000D03*
D13*
%TO.N,GND*%
X119540000Y-53540000D03*
X114460000Y-53540000D03*
X114460000Y-48460000D03*
X119540000Y-48460000D03*
%TD*%
D14*
%TO.N,GND*%
%TO.C,U2*%
X129866667Y-93466667D03*
X129866667Y-94600000D03*
X129866667Y-95733333D03*
X131000000Y-93466667D03*
X131000000Y-94600000D03*
X131000000Y-95733333D03*
X132133333Y-93466667D03*
X132133333Y-94600000D03*
X132133333Y-95733333D03*
%TD*%
D12*
%TO.N,Net-(J6-Pad1)*%
%TO.C,J6*%
X127000000Y-139000000D03*
D13*
%TO.N,GND*%
X129540000Y-136460000D03*
X124460000Y-136460000D03*
X124460000Y-141540000D03*
X129540000Y-141540000D03*
%TD*%
D12*
%TO.N,Net-(J4-Pad1)*%
%TO.C,J4*%
X97000000Y-139000000D03*
D13*
%TO.N,GND*%
X99540000Y-136460000D03*
X94460000Y-136460000D03*
X94460000Y-141540000D03*
X99540000Y-141540000D03*
%TD*%
D12*
%TO.N,Net-(J2-Pad1)*%
%TO.C,J2*%
X77000000Y-139000000D03*
D13*
%TO.N,GND*%
X79540000Y-136460000D03*
X74460000Y-136460000D03*
X74460000Y-141540000D03*
X79540000Y-141540000D03*
%TD*%
D12*
%TO.N,Net-(J7-Pad1)*%
%TO.C,J7*%
X142000000Y-139000000D03*
D13*
%TO.N,GND*%
X144540000Y-136460000D03*
X139460000Y-136460000D03*
X139460000Y-141540000D03*
X144540000Y-141540000D03*
%TD*%
D12*
%TO.N,Net-(J5-Pad1)*%
%TO.C,J5*%
X112000000Y-139000000D03*
D13*
%TO.N,GND*%
X114540000Y-136460000D03*
X109460000Y-136460000D03*
X109460000Y-141540000D03*
X114540000Y-141540000D03*
%TD*%
D15*
%TO.N,+1V1*%
X132750000Y-87750000D03*
X132000000Y-101500000D03*
X133250000Y-94400000D03*
X128750000Y-94400000D03*
X132750000Y-92350000D03*
X124350000Y-94400000D03*
X137400000Y-94400000D03*
X132000000Y-96850000D03*
X132750000Y-87150000D03*
%TO.N,VBUS*%
X80750000Y-62250000D03*
X75800000Y-67250000D03*
%TO.N,+5V*%
X130200000Y-132400000D03*
X145200000Y-132400000D03*
X96100000Y-78200000D03*
X100200000Y-132400000D03*
X115200000Y-132400000D03*
X147000000Y-58800000D03*
%TO.N,/Microcontroller and Ext. Clock/RUN*%
X99600000Y-98900000D03*
X132800000Y-98550000D03*
%TD*%
%TA.AperFunction,Conductor*%
%TO.N,+5V*%
G36*
X159003234Y-46000712D02*
G01*
X159254517Y-46017181D01*
X159267342Y-46018870D01*
X159511150Y-46067366D01*
X159523650Y-46070715D01*
X159645120Y-46111949D01*
X159759033Y-46150618D01*
X159770996Y-46155574D01*
X159993929Y-46265512D01*
X160005145Y-46271987D01*
X160211824Y-46410086D01*
X160222097Y-46417969D01*
X160408981Y-46581861D01*
X160418138Y-46591018D01*
X160582030Y-46777902D01*
X160589913Y-46788175D01*
X160728012Y-46994854D01*
X160734487Y-47006070D01*
X160844425Y-47229003D01*
X160849381Y-47240966D01*
X160929282Y-47476344D01*
X160932634Y-47488853D01*
X160981128Y-47732650D01*
X160982818Y-47745489D01*
X160999288Y-47996765D01*
X160999500Y-48003240D01*
X160999500Y-141996759D01*
X160999288Y-142003234D01*
X160982818Y-142254510D01*
X160981128Y-142267349D01*
X160932634Y-142511146D01*
X160929282Y-142523655D01*
X160849381Y-142759033D01*
X160844425Y-142770996D01*
X160734487Y-142993929D01*
X160728012Y-143005145D01*
X160589913Y-143211824D01*
X160582030Y-143222097D01*
X160418138Y-143408981D01*
X160408981Y-143418138D01*
X160222097Y-143582030D01*
X160211824Y-143589913D01*
X160005145Y-143728012D01*
X159993929Y-143734487D01*
X159770996Y-143844425D01*
X159759033Y-143849381D01*
X159523655Y-143929282D01*
X159511146Y-143932634D01*
X159267349Y-143981128D01*
X159254510Y-143982818D01*
X159003234Y-143999288D01*
X158996759Y-143999500D01*
X65003241Y-143999500D01*
X64996766Y-143999288D01*
X64745489Y-143982818D01*
X64732650Y-143981128D01*
X64488853Y-143932634D01*
X64476344Y-143929282D01*
X64240966Y-143849381D01*
X64229003Y-143844425D01*
X64006070Y-143734487D01*
X63994854Y-143728012D01*
X63788175Y-143589913D01*
X63777902Y-143582030D01*
X63591018Y-143418138D01*
X63581861Y-143408981D01*
X63417969Y-143222097D01*
X63410086Y-143211824D01*
X63271987Y-143005145D01*
X63265512Y-142993929D01*
X63155574Y-142770996D01*
X63150618Y-142759033D01*
X63070717Y-142523655D01*
X63067365Y-142511146D01*
X63018870Y-142267342D01*
X63017181Y-142254510D01*
X63015098Y-142222731D01*
X63000712Y-142003234D01*
X63000500Y-141996759D01*
X63000500Y-140878710D01*
X64149500Y-140878710D01*
X64149500Y-141121289D01*
X64181161Y-141361781D01*
X64181161Y-141361786D01*
X64243944Y-141596092D01*
X64243948Y-141596105D01*
X64336772Y-141820204D01*
X64336774Y-141820208D01*
X64336776Y-141820212D01*
X64440577Y-142000000D01*
X64458066Y-142030292D01*
X64605729Y-142222731D01*
X64605731Y-142222733D01*
X64605735Y-142222738D01*
X64777262Y-142394265D01*
X64777266Y-142394268D01*
X64777268Y-142394270D01*
X64937877Y-142517509D01*
X64969711Y-142541936D01*
X65179788Y-142663224D01*
X65179794Y-142663226D01*
X65179795Y-142663227D01*
X65216406Y-142678391D01*
X65403900Y-142756054D01*
X65638211Y-142818838D01*
X65878712Y-142850500D01*
X65878713Y-142850500D01*
X66121287Y-142850500D01*
X66121288Y-142850500D01*
X66361789Y-142818838D01*
X66596100Y-142756054D01*
X66820212Y-142663224D01*
X67030289Y-142541936D01*
X67222738Y-142394265D01*
X67394265Y-142222738D01*
X67541936Y-142030289D01*
X67663224Y-141820212D01*
X67756054Y-141596100D01*
X67802203Y-141423872D01*
X72984500Y-141423872D01*
X72984500Y-141656127D01*
X73020829Y-141885509D01*
X73059081Y-142003234D01*
X73092600Y-142106396D01*
X73130373Y-142180529D01*
X73198037Y-142313329D01*
X73272698Y-142416091D01*
X73334551Y-142501224D01*
X73498776Y-142665449D01*
X73623479Y-142756051D01*
X73686670Y-142801962D01*
X73753069Y-142835794D01*
X73893604Y-142907400D01*
X74114486Y-142979169D01*
X74114487Y-142979169D01*
X74114490Y-142979170D01*
X74343873Y-143015500D01*
X74343876Y-143015500D01*
X74576127Y-143015500D01*
X74805509Y-142979170D01*
X74805510Y-142979169D01*
X74805514Y-142979169D01*
X75026396Y-142907400D01*
X75233331Y-142801961D01*
X75421224Y-142665449D01*
X75585449Y-142501224D01*
X75721961Y-142313331D01*
X75827400Y-142106396D01*
X75899169Y-141885514D01*
X75935500Y-141656124D01*
X75935500Y-141423876D01*
X75935500Y-141423872D01*
X78064500Y-141423872D01*
X78064500Y-141656127D01*
X78100829Y-141885509D01*
X78139081Y-142003234D01*
X78172600Y-142106396D01*
X78210373Y-142180529D01*
X78278037Y-142313329D01*
X78352698Y-142416091D01*
X78414551Y-142501224D01*
X78578776Y-142665449D01*
X78703479Y-142756051D01*
X78766670Y-142801962D01*
X78833069Y-142835794D01*
X78973604Y-142907400D01*
X79194486Y-142979169D01*
X79194487Y-142979169D01*
X79194490Y-142979170D01*
X79423873Y-143015500D01*
X79423876Y-143015500D01*
X79656127Y-143015500D01*
X79885509Y-142979170D01*
X79885510Y-142979169D01*
X79885514Y-142979169D01*
X80106396Y-142907400D01*
X80313331Y-142801961D01*
X80501224Y-142665449D01*
X80665449Y-142501224D01*
X80801961Y-142313331D01*
X80907400Y-142106396D01*
X80979169Y-141885514D01*
X81015500Y-141656124D01*
X81015500Y-141423876D01*
X81015500Y-141423872D01*
X92984500Y-141423872D01*
X92984500Y-141656127D01*
X93020829Y-141885509D01*
X93059081Y-142003234D01*
X93092600Y-142106396D01*
X93130373Y-142180529D01*
X93198037Y-142313329D01*
X93272698Y-142416091D01*
X93334551Y-142501224D01*
X93498776Y-142665449D01*
X93623479Y-142756051D01*
X93686670Y-142801962D01*
X93753069Y-142835794D01*
X93893604Y-142907400D01*
X94114486Y-142979169D01*
X94114487Y-142979169D01*
X94114490Y-142979170D01*
X94343873Y-143015500D01*
X94343876Y-143015500D01*
X94576127Y-143015500D01*
X94805509Y-142979170D01*
X94805510Y-142979169D01*
X94805514Y-142979169D01*
X95026396Y-142907400D01*
X95233331Y-142801961D01*
X95421224Y-142665449D01*
X95585449Y-142501224D01*
X95721961Y-142313331D01*
X95827400Y-142106396D01*
X95899169Y-141885514D01*
X95935500Y-141656124D01*
X95935500Y-141423876D01*
X95935500Y-141423872D01*
X98064500Y-141423872D01*
X98064500Y-141656127D01*
X98100829Y-141885509D01*
X98139081Y-142003234D01*
X98172600Y-142106396D01*
X98210373Y-142180529D01*
X98278037Y-142313329D01*
X98352698Y-142416091D01*
X98414551Y-142501224D01*
X98578776Y-142665449D01*
X98703479Y-142756051D01*
X98766670Y-142801962D01*
X98833069Y-142835794D01*
X98973604Y-142907400D01*
X99194486Y-142979169D01*
X99194487Y-142979169D01*
X99194490Y-142979170D01*
X99423873Y-143015500D01*
X99423876Y-143015500D01*
X99656127Y-143015500D01*
X99885509Y-142979170D01*
X99885510Y-142979169D01*
X99885514Y-142979169D01*
X100106396Y-142907400D01*
X100313331Y-142801961D01*
X100501224Y-142665449D01*
X100665449Y-142501224D01*
X100801961Y-142313331D01*
X100907400Y-142106396D01*
X100979169Y-141885514D01*
X101015500Y-141656124D01*
X101015500Y-141423876D01*
X101015500Y-141423872D01*
X107984500Y-141423872D01*
X107984500Y-141656127D01*
X108020829Y-141885509D01*
X108059081Y-142003234D01*
X108092600Y-142106396D01*
X108130373Y-142180529D01*
X108198037Y-142313329D01*
X108272698Y-142416091D01*
X108334551Y-142501224D01*
X108498776Y-142665449D01*
X108623479Y-142756051D01*
X108686670Y-142801962D01*
X108753069Y-142835794D01*
X108893604Y-142907400D01*
X109114486Y-142979169D01*
X109114487Y-142979169D01*
X109114490Y-142979170D01*
X109343873Y-143015500D01*
X109343876Y-143015500D01*
X109576127Y-143015500D01*
X109805509Y-142979170D01*
X109805510Y-142979169D01*
X109805514Y-142979169D01*
X110026396Y-142907400D01*
X110233331Y-142801961D01*
X110421224Y-142665449D01*
X110585449Y-142501224D01*
X110721961Y-142313331D01*
X110827400Y-142106396D01*
X110899169Y-141885514D01*
X110935500Y-141656124D01*
X110935500Y-141423876D01*
X110935500Y-141423872D01*
X113064500Y-141423872D01*
X113064500Y-141656127D01*
X113100829Y-141885509D01*
X113139081Y-142003234D01*
X113172600Y-142106396D01*
X113210373Y-142180529D01*
X113278037Y-142313329D01*
X113352698Y-142416091D01*
X113414551Y-142501224D01*
X113578776Y-142665449D01*
X113703479Y-142756051D01*
X113766670Y-142801962D01*
X113833069Y-142835794D01*
X113973604Y-142907400D01*
X114194486Y-142979169D01*
X114194487Y-142979169D01*
X114194490Y-142979170D01*
X114423873Y-143015500D01*
X114423876Y-143015500D01*
X114656127Y-143015500D01*
X114885509Y-142979170D01*
X114885510Y-142979169D01*
X114885514Y-142979169D01*
X115106396Y-142907400D01*
X115313331Y-142801961D01*
X115501224Y-142665449D01*
X115665449Y-142501224D01*
X115801961Y-142313331D01*
X115907400Y-142106396D01*
X115979169Y-141885514D01*
X116015500Y-141656124D01*
X116015500Y-141423876D01*
X116015500Y-141423872D01*
X122984500Y-141423872D01*
X122984500Y-141656127D01*
X123020829Y-141885509D01*
X123059081Y-142003234D01*
X123092600Y-142106396D01*
X123130373Y-142180529D01*
X123198037Y-142313329D01*
X123272698Y-142416091D01*
X123334551Y-142501224D01*
X123498776Y-142665449D01*
X123623479Y-142756051D01*
X123686670Y-142801962D01*
X123753069Y-142835794D01*
X123893604Y-142907400D01*
X124114486Y-142979169D01*
X124114487Y-142979169D01*
X124114490Y-142979170D01*
X124343873Y-143015500D01*
X124343876Y-143015500D01*
X124576127Y-143015500D01*
X124805509Y-142979170D01*
X124805510Y-142979169D01*
X124805514Y-142979169D01*
X125026396Y-142907400D01*
X125233331Y-142801961D01*
X125421224Y-142665449D01*
X125585449Y-142501224D01*
X125721961Y-142313331D01*
X125827400Y-142106396D01*
X125899169Y-141885514D01*
X125935500Y-141656124D01*
X125935500Y-141423876D01*
X125935500Y-141423872D01*
X128064500Y-141423872D01*
X128064500Y-141656127D01*
X128100829Y-141885509D01*
X128139081Y-142003234D01*
X128172600Y-142106396D01*
X128210373Y-142180529D01*
X128278037Y-142313329D01*
X128352698Y-142416091D01*
X128414551Y-142501224D01*
X128578776Y-142665449D01*
X128703479Y-142756051D01*
X128766670Y-142801962D01*
X128833069Y-142835794D01*
X128973604Y-142907400D01*
X129194486Y-142979169D01*
X129194487Y-142979169D01*
X129194490Y-142979170D01*
X129423873Y-143015500D01*
X129423876Y-143015500D01*
X129656127Y-143015500D01*
X129885509Y-142979170D01*
X129885510Y-142979169D01*
X129885514Y-142979169D01*
X130106396Y-142907400D01*
X130313331Y-142801961D01*
X130501224Y-142665449D01*
X130665449Y-142501224D01*
X130801961Y-142313331D01*
X130907400Y-142106396D01*
X130979169Y-141885514D01*
X131015500Y-141656124D01*
X131015500Y-141423876D01*
X131015500Y-141423872D01*
X137984500Y-141423872D01*
X137984500Y-141656127D01*
X138020829Y-141885509D01*
X138059081Y-142003234D01*
X138092600Y-142106396D01*
X138130373Y-142180529D01*
X138198037Y-142313329D01*
X138272698Y-142416091D01*
X138334551Y-142501224D01*
X138498776Y-142665449D01*
X138623479Y-142756051D01*
X138686670Y-142801962D01*
X138753069Y-142835794D01*
X138893604Y-142907400D01*
X139114486Y-142979169D01*
X139114487Y-142979169D01*
X139114490Y-142979170D01*
X139343873Y-143015500D01*
X139343876Y-143015500D01*
X139576127Y-143015500D01*
X139805509Y-142979170D01*
X139805510Y-142979169D01*
X139805514Y-142979169D01*
X140026396Y-142907400D01*
X140233331Y-142801961D01*
X140421224Y-142665449D01*
X140585449Y-142501224D01*
X140721961Y-142313331D01*
X140827400Y-142106396D01*
X140899169Y-141885514D01*
X140935500Y-141656124D01*
X140935500Y-141423876D01*
X140935500Y-141423872D01*
X143064500Y-141423872D01*
X143064500Y-141656127D01*
X143100829Y-141885509D01*
X143139081Y-142003234D01*
X143172600Y-142106396D01*
X143210373Y-142180529D01*
X143278037Y-142313329D01*
X143352698Y-142416091D01*
X143414551Y-142501224D01*
X143578776Y-142665449D01*
X143703479Y-142756051D01*
X143766670Y-142801962D01*
X143833069Y-142835794D01*
X143973604Y-142907400D01*
X144194486Y-142979169D01*
X144194487Y-142979169D01*
X144194490Y-142979170D01*
X144423873Y-143015500D01*
X144423876Y-143015500D01*
X144656127Y-143015500D01*
X144885509Y-142979170D01*
X144885510Y-142979169D01*
X144885514Y-142979169D01*
X145106396Y-142907400D01*
X145313331Y-142801961D01*
X145501224Y-142665449D01*
X145665449Y-142501224D01*
X145801961Y-142313331D01*
X145907400Y-142106396D01*
X145979169Y-141885514D01*
X146015500Y-141656124D01*
X146015500Y-141423876D01*
X146015500Y-141423872D01*
X145979170Y-141194490D01*
X145907400Y-140973605D01*
X145907400Y-140973604D01*
X145859049Y-140878710D01*
X156149500Y-140878710D01*
X156149500Y-141121289D01*
X156181161Y-141361781D01*
X156181161Y-141361786D01*
X156243944Y-141596092D01*
X156243948Y-141596105D01*
X156336772Y-141820204D01*
X156336774Y-141820208D01*
X156336776Y-141820212D01*
X156440577Y-142000000D01*
X156458066Y-142030292D01*
X156605729Y-142222731D01*
X156605731Y-142222733D01*
X156605735Y-142222738D01*
X156777262Y-142394265D01*
X156777266Y-142394268D01*
X156777268Y-142394270D01*
X156937877Y-142517509D01*
X156969711Y-142541936D01*
X157179788Y-142663224D01*
X157179794Y-142663226D01*
X157179795Y-142663227D01*
X157216406Y-142678391D01*
X157403900Y-142756054D01*
X157638211Y-142818838D01*
X157878712Y-142850500D01*
X157878713Y-142850500D01*
X158121287Y-142850500D01*
X158121288Y-142850500D01*
X158361789Y-142818838D01*
X158596100Y-142756054D01*
X158820212Y-142663224D01*
X159030289Y-142541936D01*
X159222738Y-142394265D01*
X159394265Y-142222738D01*
X159541936Y-142030289D01*
X159663224Y-141820212D01*
X159756054Y-141596100D01*
X159818838Y-141361789D01*
X159850500Y-141121288D01*
X159850500Y-140878712D01*
X159818838Y-140638211D01*
X159756054Y-140403900D01*
X159663224Y-140179788D01*
X159541936Y-139969711D01*
X159394265Y-139777262D01*
X159222738Y-139605735D01*
X159222733Y-139605731D01*
X159222731Y-139605729D01*
X159030292Y-139458066D01*
X159030289Y-139458064D01*
X158820212Y-139336776D01*
X158820208Y-139336774D01*
X158820204Y-139336772D01*
X158596105Y-139243948D01*
X158596104Y-139243947D01*
X158596100Y-139243946D01*
X158361789Y-139181162D01*
X158361786Y-139181161D01*
X158361784Y-139181161D01*
X158121289Y-139149500D01*
X158121288Y-139149500D01*
X157878712Y-139149500D01*
X157878710Y-139149500D01*
X157638218Y-139181161D01*
X157638213Y-139181161D01*
X157403907Y-139243944D01*
X157403894Y-139243948D01*
X157179795Y-139336772D01*
X156969707Y-139458066D01*
X156777268Y-139605729D01*
X156605729Y-139777268D01*
X156458066Y-139969707D01*
X156336772Y-140179795D01*
X156243948Y-140403894D01*
X156243944Y-140403907D01*
X156181161Y-140638213D01*
X156181161Y-140638218D01*
X156149500Y-140878710D01*
X145859049Y-140878710D01*
X145801961Y-140766669D01*
X145665449Y-140578776D01*
X145501224Y-140414551D01*
X145416091Y-140352698D01*
X145313329Y-140278037D01*
X145180529Y-140210373D01*
X145106396Y-140172600D01*
X145106393Y-140172599D01*
X145106391Y-140172598D01*
X144885509Y-140100829D01*
X144656127Y-140064500D01*
X144656124Y-140064500D01*
X144423876Y-140064500D01*
X144423873Y-140064500D01*
X144194490Y-140100829D01*
X143973608Y-140172598D01*
X143766670Y-140278037D01*
X143578777Y-140414550D01*
X143414550Y-140578777D01*
X143278037Y-140766670D01*
X143172598Y-140973608D01*
X143100829Y-141194490D01*
X143064500Y-141423872D01*
X140935500Y-141423872D01*
X140899170Y-141194490D01*
X140827401Y-140973608D01*
X140827400Y-140973604D01*
X140755794Y-140833069D01*
X140721962Y-140766670D01*
X140628631Y-140638211D01*
X140585449Y-140578776D01*
X140421224Y-140414551D01*
X140336091Y-140352698D01*
X140233329Y-140278037D01*
X140100529Y-140210373D01*
X140026396Y-140172600D01*
X140026393Y-140172599D01*
X140026391Y-140172598D01*
X139805509Y-140100829D01*
X139576127Y-140064500D01*
X139576124Y-140064500D01*
X139343876Y-140064500D01*
X139343873Y-140064500D01*
X139114490Y-140100829D01*
X138893608Y-140172598D01*
X138686670Y-140278037D01*
X138498777Y-140414550D01*
X138334550Y-140578777D01*
X138198037Y-140766670D01*
X138092598Y-140973608D01*
X138020829Y-141194490D01*
X137984500Y-141423872D01*
X131015500Y-141423872D01*
X130979170Y-141194490D01*
X130907401Y-140973608D01*
X130907400Y-140973604D01*
X130835794Y-140833069D01*
X130801962Y-140766670D01*
X130708631Y-140638211D01*
X130665449Y-140578776D01*
X130501224Y-140414551D01*
X130416091Y-140352698D01*
X130313329Y-140278037D01*
X130180529Y-140210373D01*
X130106396Y-140172600D01*
X130106393Y-140172599D01*
X130106391Y-140172598D01*
X129885509Y-140100829D01*
X129656127Y-140064500D01*
X129656124Y-140064500D01*
X129423876Y-140064500D01*
X129423873Y-140064500D01*
X129194490Y-140100829D01*
X128973608Y-140172598D01*
X128766670Y-140278037D01*
X128578777Y-140414550D01*
X128414550Y-140578777D01*
X128278037Y-140766670D01*
X128172598Y-140973608D01*
X128100829Y-141194490D01*
X128064500Y-141423872D01*
X125935500Y-141423872D01*
X125899170Y-141194490D01*
X125827401Y-140973608D01*
X125827400Y-140973604D01*
X125755794Y-140833069D01*
X125721962Y-140766670D01*
X125628631Y-140638211D01*
X125585449Y-140578776D01*
X125421224Y-140414551D01*
X125336091Y-140352698D01*
X125233329Y-140278037D01*
X125100529Y-140210373D01*
X125026396Y-140172600D01*
X125026393Y-140172599D01*
X125026391Y-140172598D01*
X124805509Y-140100829D01*
X124576127Y-140064500D01*
X124576124Y-140064500D01*
X124343876Y-140064500D01*
X124343873Y-140064500D01*
X124114490Y-140100829D01*
X123893608Y-140172598D01*
X123686670Y-140278037D01*
X123498777Y-140414550D01*
X123334550Y-140578777D01*
X123198037Y-140766670D01*
X123092598Y-140973608D01*
X123020829Y-141194490D01*
X122984500Y-141423872D01*
X116015500Y-141423872D01*
X115979170Y-141194490D01*
X115907401Y-140973608D01*
X115907400Y-140973604D01*
X115835794Y-140833069D01*
X115801962Y-140766670D01*
X115708631Y-140638211D01*
X115665449Y-140578776D01*
X115501224Y-140414551D01*
X115416091Y-140352698D01*
X115313329Y-140278037D01*
X115180529Y-140210373D01*
X115106396Y-140172600D01*
X115106393Y-140172599D01*
X115106391Y-140172598D01*
X114885509Y-140100829D01*
X114656127Y-140064500D01*
X114656124Y-140064500D01*
X114423876Y-140064500D01*
X114423873Y-140064500D01*
X114194490Y-140100829D01*
X113973608Y-140172598D01*
X113766670Y-140278037D01*
X113578777Y-140414550D01*
X113414550Y-140578777D01*
X113278037Y-140766670D01*
X113172598Y-140973608D01*
X113100829Y-141194490D01*
X113064500Y-141423872D01*
X110935500Y-141423872D01*
X110899170Y-141194490D01*
X110827401Y-140973608D01*
X110827400Y-140973604D01*
X110755794Y-140833069D01*
X110721962Y-140766670D01*
X110628631Y-140638211D01*
X110585449Y-140578776D01*
X110421224Y-140414551D01*
X110336091Y-140352698D01*
X110233329Y-140278037D01*
X110100529Y-140210373D01*
X110026396Y-140172600D01*
X110026393Y-140172599D01*
X110026391Y-140172598D01*
X109805509Y-140100829D01*
X109576127Y-140064500D01*
X109576124Y-140064500D01*
X109343876Y-140064500D01*
X109343873Y-140064500D01*
X109114490Y-140100829D01*
X108893608Y-140172598D01*
X108686670Y-140278037D01*
X108498777Y-140414550D01*
X108334550Y-140578777D01*
X108198037Y-140766670D01*
X108092598Y-140973608D01*
X108020829Y-141194490D01*
X107984500Y-141423872D01*
X101015500Y-141423872D01*
X100979170Y-141194490D01*
X100907401Y-140973608D01*
X100907400Y-140973604D01*
X100835794Y-140833069D01*
X100801962Y-140766670D01*
X100708631Y-140638211D01*
X100665449Y-140578776D01*
X100501224Y-140414551D01*
X100416091Y-140352698D01*
X100313329Y-140278037D01*
X100180529Y-140210373D01*
X100106396Y-140172600D01*
X100106393Y-140172599D01*
X100106391Y-140172598D01*
X99885509Y-140100829D01*
X99656127Y-140064500D01*
X99656124Y-140064500D01*
X99423876Y-140064500D01*
X99423873Y-140064500D01*
X99194490Y-140100829D01*
X98973608Y-140172598D01*
X98766670Y-140278037D01*
X98578777Y-140414550D01*
X98414550Y-140578777D01*
X98278037Y-140766670D01*
X98172598Y-140973608D01*
X98100829Y-141194490D01*
X98064500Y-141423872D01*
X95935500Y-141423872D01*
X95899170Y-141194490D01*
X95827401Y-140973608D01*
X95827400Y-140973604D01*
X95755794Y-140833069D01*
X95721962Y-140766670D01*
X95628631Y-140638211D01*
X95585449Y-140578776D01*
X95421224Y-140414551D01*
X95336091Y-140352698D01*
X95233329Y-140278037D01*
X95100529Y-140210373D01*
X95026396Y-140172600D01*
X95026393Y-140172599D01*
X95026391Y-140172598D01*
X94805509Y-140100829D01*
X94576127Y-140064500D01*
X94576124Y-140064500D01*
X94343876Y-140064500D01*
X94343873Y-140064500D01*
X94114490Y-140100829D01*
X93893608Y-140172598D01*
X93686670Y-140278037D01*
X93498777Y-140414550D01*
X93334550Y-140578777D01*
X93198037Y-140766670D01*
X93092598Y-140973608D01*
X93020829Y-141194490D01*
X92984500Y-141423872D01*
X81015500Y-141423872D01*
X80979170Y-141194490D01*
X80907401Y-140973608D01*
X80907400Y-140973604D01*
X80835794Y-140833069D01*
X80801962Y-140766670D01*
X80708631Y-140638211D01*
X80665449Y-140578776D01*
X80501224Y-140414551D01*
X80416091Y-140352698D01*
X80313329Y-140278037D01*
X80180529Y-140210373D01*
X80106396Y-140172600D01*
X80106393Y-140172599D01*
X80106391Y-140172598D01*
X79885509Y-140100829D01*
X79656127Y-140064500D01*
X79656124Y-140064500D01*
X79423876Y-140064500D01*
X79423873Y-140064500D01*
X79194490Y-140100829D01*
X78973608Y-140172598D01*
X78766670Y-140278037D01*
X78578777Y-140414550D01*
X78414550Y-140578777D01*
X78278037Y-140766670D01*
X78172598Y-140973608D01*
X78100829Y-141194490D01*
X78064500Y-141423872D01*
X75935500Y-141423872D01*
X75899170Y-141194490D01*
X75827401Y-140973608D01*
X75827400Y-140973604D01*
X75755794Y-140833069D01*
X75721962Y-140766670D01*
X75628631Y-140638211D01*
X75585449Y-140578776D01*
X75421224Y-140414551D01*
X75336091Y-140352698D01*
X75233329Y-140278037D01*
X75100529Y-140210373D01*
X75026396Y-140172600D01*
X75026393Y-140172599D01*
X75026391Y-140172598D01*
X74805509Y-140100829D01*
X74576127Y-140064500D01*
X74576124Y-140064500D01*
X74343876Y-140064500D01*
X74343873Y-140064500D01*
X74114490Y-140100829D01*
X73893608Y-140172598D01*
X73686670Y-140278037D01*
X73498777Y-140414550D01*
X73334550Y-140578777D01*
X73198037Y-140766670D01*
X73092598Y-140973608D01*
X73020829Y-141194490D01*
X72984500Y-141423872D01*
X67802203Y-141423872D01*
X67818838Y-141361789D01*
X67850500Y-141121288D01*
X67850500Y-140878712D01*
X67818838Y-140638211D01*
X67756054Y-140403900D01*
X67663224Y-140179788D01*
X67541936Y-139969711D01*
X67394265Y-139777262D01*
X67222738Y-139605735D01*
X67222733Y-139605731D01*
X67222731Y-139605729D01*
X67030292Y-139458066D01*
X67030289Y-139458064D01*
X66820212Y-139336776D01*
X66820208Y-139336774D01*
X66820204Y-139336772D01*
X66596105Y-139243948D01*
X66596104Y-139243947D01*
X66596100Y-139243946D01*
X66361789Y-139181162D01*
X66361786Y-139181161D01*
X66361784Y-139181161D01*
X66121289Y-139149500D01*
X66121288Y-139149500D01*
X65878712Y-139149500D01*
X65878710Y-139149500D01*
X65638218Y-139181161D01*
X65638213Y-139181161D01*
X65403907Y-139243944D01*
X65403894Y-139243948D01*
X65179795Y-139336772D01*
X64969707Y-139458066D01*
X64777268Y-139605729D01*
X64605729Y-139777268D01*
X64458066Y-139969707D01*
X64336772Y-140179795D01*
X64243948Y-140403894D01*
X64243944Y-140403907D01*
X64181161Y-140638213D01*
X64181161Y-140638218D01*
X64149500Y-140878710D01*
X63000500Y-140878710D01*
X63000500Y-138913385D01*
X75899500Y-138913385D01*
X75899500Y-139086614D01*
X75926597Y-139257702D01*
X75926598Y-139257706D01*
X75980123Y-139422438D01*
X75980125Y-139422441D01*
X75980126Y-139422444D01*
X75980127Y-139422445D01*
X76058768Y-139576788D01*
X76160586Y-139716928D01*
X76283072Y-139839414D01*
X76423212Y-139941232D01*
X76577555Y-140019873D01*
X76577557Y-140019873D01*
X76577558Y-140019874D01*
X76577561Y-140019876D01*
X76742293Y-140073401D01*
X76742297Y-140073402D01*
X76913386Y-140100500D01*
X76913389Y-140100500D01*
X77086614Y-140100500D01*
X77257702Y-140073402D01*
X77257706Y-140073401D01*
X77422438Y-140019876D01*
X77422440Y-140019874D01*
X77422445Y-140019873D01*
X77576788Y-139941232D01*
X77716928Y-139839414D01*
X77839414Y-139716928D01*
X77941232Y-139576788D01*
X78019873Y-139422445D01*
X78019874Y-139422440D01*
X78019876Y-139422438D01*
X78073401Y-139257706D01*
X78073402Y-139257702D01*
X78100500Y-139086614D01*
X78100500Y-138913385D01*
X95899500Y-138913385D01*
X95899500Y-139086614D01*
X95926597Y-139257702D01*
X95926598Y-139257706D01*
X95980123Y-139422438D01*
X95980125Y-139422441D01*
X95980126Y-139422444D01*
X95980127Y-139422445D01*
X96058768Y-139576788D01*
X96160586Y-139716928D01*
X96283072Y-139839414D01*
X96423212Y-139941232D01*
X96577555Y-140019873D01*
X96577557Y-140019873D01*
X96577558Y-140019874D01*
X96577561Y-140019876D01*
X96742293Y-140073401D01*
X96742297Y-140073402D01*
X96913386Y-140100500D01*
X96913389Y-140100500D01*
X97086614Y-140100500D01*
X97257702Y-140073402D01*
X97257706Y-140073401D01*
X97422438Y-140019876D01*
X97422440Y-140019874D01*
X97422445Y-140019873D01*
X97576788Y-139941232D01*
X97716928Y-139839414D01*
X97839414Y-139716928D01*
X97941232Y-139576788D01*
X98019873Y-139422445D01*
X98019874Y-139422440D01*
X98019876Y-139422438D01*
X98073401Y-139257706D01*
X98073402Y-139257702D01*
X98100500Y-139086614D01*
X98100500Y-138913385D01*
X110899500Y-138913385D01*
X110899500Y-139086614D01*
X110926597Y-139257702D01*
X110926598Y-139257706D01*
X110980123Y-139422438D01*
X110980125Y-139422441D01*
X110980126Y-139422444D01*
X110980127Y-139422445D01*
X111058768Y-139576788D01*
X111160586Y-139716928D01*
X111283072Y-139839414D01*
X111423212Y-139941232D01*
X111577555Y-140019873D01*
X111577557Y-140019873D01*
X111577558Y-140019874D01*
X111577561Y-140019876D01*
X111742293Y-140073401D01*
X111742297Y-140073402D01*
X111913386Y-140100500D01*
X111913389Y-140100500D01*
X112086614Y-140100500D01*
X112257702Y-140073402D01*
X112257706Y-140073401D01*
X112422438Y-140019876D01*
X112422440Y-140019874D01*
X112422445Y-140019873D01*
X112576788Y-139941232D01*
X112716928Y-139839414D01*
X112839414Y-139716928D01*
X112941232Y-139576788D01*
X113019873Y-139422445D01*
X113019874Y-139422440D01*
X113019876Y-139422438D01*
X113073401Y-139257706D01*
X113073402Y-139257702D01*
X113100500Y-139086614D01*
X113100500Y-138913385D01*
X125899500Y-138913385D01*
X125899500Y-139086614D01*
X125926597Y-139257702D01*
X125926598Y-139257706D01*
X125980123Y-139422438D01*
X125980125Y-139422441D01*
X125980126Y-139422444D01*
X125980127Y-139422445D01*
X126058768Y-139576788D01*
X126160586Y-139716928D01*
X126283072Y-139839414D01*
X126423212Y-139941232D01*
X126577555Y-140019873D01*
X126577557Y-140019873D01*
X126577558Y-140019874D01*
X126577561Y-140019876D01*
X126742293Y-140073401D01*
X126742297Y-140073402D01*
X126913386Y-140100500D01*
X126913389Y-140100500D01*
X127086614Y-140100500D01*
X127257702Y-140073402D01*
X127257706Y-140073401D01*
X127422438Y-140019876D01*
X127422440Y-140019874D01*
X127422445Y-140019873D01*
X127576788Y-139941232D01*
X127716928Y-139839414D01*
X127839414Y-139716928D01*
X127941232Y-139576788D01*
X128019873Y-139422445D01*
X128019874Y-139422440D01*
X128019876Y-139422438D01*
X128073401Y-139257706D01*
X128073402Y-139257702D01*
X128100500Y-139086614D01*
X128100500Y-138913385D01*
X140899500Y-138913385D01*
X140899500Y-139086614D01*
X140926597Y-139257702D01*
X140926598Y-139257706D01*
X140980123Y-139422438D01*
X140980125Y-139422441D01*
X140980126Y-139422444D01*
X140980127Y-139422445D01*
X141058768Y-139576788D01*
X141160586Y-139716928D01*
X141283072Y-139839414D01*
X141423212Y-139941232D01*
X141577555Y-140019873D01*
X141577557Y-140019873D01*
X141577558Y-140019874D01*
X141577561Y-140019876D01*
X141742293Y-140073401D01*
X141742297Y-140073402D01*
X141913386Y-140100500D01*
X141913389Y-140100500D01*
X142086614Y-140100500D01*
X142257702Y-140073402D01*
X142257706Y-140073401D01*
X142422438Y-140019876D01*
X142422440Y-140019874D01*
X142422445Y-140019873D01*
X142576788Y-139941232D01*
X142716928Y-139839414D01*
X142839414Y-139716928D01*
X142941232Y-139576788D01*
X143019873Y-139422445D01*
X143019874Y-139422440D01*
X143019876Y-139422438D01*
X143073401Y-139257706D01*
X143073402Y-139257702D01*
X143100500Y-139086614D01*
X143100500Y-138913385D01*
X143073402Y-138742297D01*
X143073401Y-138742293D01*
X143019876Y-138577561D01*
X143019874Y-138577558D01*
X143019873Y-138577557D01*
X143019873Y-138577555D01*
X142941232Y-138423212D01*
X142839414Y-138283072D01*
X142716928Y-138160586D01*
X142576788Y-138058768D01*
X142576787Y-138058767D01*
X142576785Y-138058766D01*
X142422441Y-137980125D01*
X142422438Y-137980123D01*
X142257706Y-137926598D01*
X142257702Y-137926597D01*
X142086614Y-137899500D01*
X142086611Y-137899500D01*
X141913389Y-137899500D01*
X141913386Y-137899500D01*
X141742297Y-137926597D01*
X141742293Y-137926598D01*
X141577561Y-137980123D01*
X141577558Y-137980125D01*
X141423214Y-138058766D01*
X141283073Y-138160585D01*
X141160585Y-138283073D01*
X141058766Y-138423214D01*
X140980125Y-138577558D01*
X140980123Y-138577561D01*
X140926598Y-138742293D01*
X140926597Y-138742297D01*
X140899500Y-138913385D01*
X128100500Y-138913385D01*
X128073402Y-138742297D01*
X128073401Y-138742293D01*
X128019876Y-138577561D01*
X128019874Y-138577558D01*
X128019873Y-138577557D01*
X128019873Y-138577555D01*
X127941232Y-138423212D01*
X127839414Y-138283072D01*
X127716928Y-138160586D01*
X127576788Y-138058768D01*
X127576787Y-138058767D01*
X127576785Y-138058766D01*
X127422441Y-137980125D01*
X127422438Y-137980123D01*
X127257706Y-137926598D01*
X127257702Y-137926597D01*
X127086614Y-137899500D01*
X127086611Y-137899500D01*
X126913389Y-137899500D01*
X126913386Y-137899500D01*
X126742297Y-137926597D01*
X126742293Y-137926598D01*
X126577561Y-137980123D01*
X126577558Y-137980125D01*
X126423214Y-138058766D01*
X126283073Y-138160585D01*
X126160585Y-138283073D01*
X126058766Y-138423214D01*
X125980125Y-138577558D01*
X125980123Y-138577561D01*
X125926598Y-138742293D01*
X125926597Y-138742297D01*
X125899500Y-138913385D01*
X113100500Y-138913385D01*
X113073402Y-138742297D01*
X113073401Y-138742293D01*
X113019876Y-138577561D01*
X113019874Y-138577558D01*
X113019873Y-138577557D01*
X113019873Y-138577555D01*
X112941232Y-138423212D01*
X112839414Y-138283072D01*
X112716928Y-138160586D01*
X112576788Y-138058768D01*
X112576787Y-138058767D01*
X112576785Y-138058766D01*
X112422441Y-137980125D01*
X112422438Y-137980123D01*
X112257706Y-137926598D01*
X112257702Y-137926597D01*
X112086614Y-137899500D01*
X112086611Y-137899500D01*
X111913389Y-137899500D01*
X111913386Y-137899500D01*
X111742297Y-137926597D01*
X111742293Y-137926598D01*
X111577561Y-137980123D01*
X111577558Y-137980125D01*
X111423214Y-138058766D01*
X111283073Y-138160585D01*
X111160585Y-138283073D01*
X111058766Y-138423214D01*
X110980125Y-138577558D01*
X110980123Y-138577561D01*
X110926598Y-138742293D01*
X110926597Y-138742297D01*
X110899500Y-138913385D01*
X98100500Y-138913385D01*
X98073402Y-138742297D01*
X98073401Y-138742293D01*
X98019876Y-138577561D01*
X98019874Y-138577558D01*
X98019873Y-138577557D01*
X98019873Y-138577555D01*
X97941232Y-138423212D01*
X97839414Y-138283072D01*
X97716928Y-138160586D01*
X97576788Y-138058768D01*
X97576787Y-138058767D01*
X97576785Y-138058766D01*
X97422441Y-137980125D01*
X97422438Y-137980123D01*
X97257706Y-137926598D01*
X97257702Y-137926597D01*
X97086614Y-137899500D01*
X97086611Y-137899500D01*
X96913389Y-137899500D01*
X96913386Y-137899500D01*
X96742297Y-137926597D01*
X96742293Y-137926598D01*
X96577561Y-137980123D01*
X96577558Y-137980125D01*
X96423214Y-138058766D01*
X96283073Y-138160585D01*
X96160585Y-138283073D01*
X96058766Y-138423214D01*
X95980125Y-138577558D01*
X95980123Y-138577561D01*
X95926598Y-138742293D01*
X95926597Y-138742297D01*
X95899500Y-138913385D01*
X78100500Y-138913385D01*
X78073402Y-138742297D01*
X78073401Y-138742293D01*
X78019876Y-138577561D01*
X78019874Y-138577558D01*
X78019873Y-138577557D01*
X78019873Y-138577555D01*
X77941232Y-138423212D01*
X77839414Y-138283072D01*
X77716928Y-138160586D01*
X77576788Y-138058768D01*
X77576787Y-138058767D01*
X77576785Y-138058766D01*
X77422441Y-137980125D01*
X77422438Y-137980123D01*
X77257706Y-137926598D01*
X77257702Y-137926597D01*
X77086614Y-137899500D01*
X77086611Y-137899500D01*
X76913389Y-137899500D01*
X76913386Y-137899500D01*
X76742297Y-137926597D01*
X76742293Y-137926598D01*
X76577561Y-137980123D01*
X76577558Y-137980125D01*
X76423214Y-138058766D01*
X76283073Y-138160585D01*
X76160585Y-138283073D01*
X76058766Y-138423214D01*
X75980125Y-138577558D01*
X75980123Y-138577561D01*
X75926598Y-138742293D01*
X75926597Y-138742297D01*
X75899500Y-138913385D01*
X63000500Y-138913385D01*
X63000500Y-136343872D01*
X72984500Y-136343872D01*
X72984500Y-136576127D01*
X73020829Y-136805509D01*
X73020831Y-136805514D01*
X73092600Y-137026396D01*
X73130373Y-137100529D01*
X73198037Y-137233329D01*
X73272698Y-137336091D01*
X73334551Y-137421224D01*
X73498776Y-137585449D01*
X73635289Y-137684631D01*
X73686670Y-137721962D01*
X73753069Y-137755794D01*
X73893604Y-137827400D01*
X74114486Y-137899169D01*
X74114487Y-137899169D01*
X74114490Y-137899170D01*
X74343873Y-137935500D01*
X74343876Y-137935500D01*
X74576127Y-137935500D01*
X74805509Y-137899170D01*
X74805510Y-137899169D01*
X74805514Y-137899169D01*
X75026396Y-137827400D01*
X75233331Y-137721961D01*
X75421224Y-137585449D01*
X75585449Y-137421224D01*
X75721961Y-137233331D01*
X75827400Y-137026396D01*
X75899169Y-136805514D01*
X75935500Y-136576124D01*
X75935500Y-136343876D01*
X75935500Y-136343872D01*
X78064500Y-136343872D01*
X78064500Y-136576127D01*
X78100829Y-136805509D01*
X78100831Y-136805514D01*
X78172600Y-137026396D01*
X78210373Y-137100529D01*
X78278037Y-137233329D01*
X78352698Y-137336091D01*
X78414551Y-137421224D01*
X78578776Y-137585449D01*
X78715289Y-137684631D01*
X78766670Y-137721962D01*
X78833069Y-137755794D01*
X78973604Y-137827400D01*
X79194486Y-137899169D01*
X79194487Y-137899169D01*
X79194490Y-137899170D01*
X79423873Y-137935500D01*
X79423876Y-137935500D01*
X79656127Y-137935500D01*
X79885509Y-137899170D01*
X79885510Y-137899169D01*
X79885514Y-137899169D01*
X80106396Y-137827400D01*
X80313331Y-137721961D01*
X80501224Y-137585449D01*
X80665449Y-137421224D01*
X80801961Y-137233331D01*
X80907400Y-137026396D01*
X80979169Y-136805514D01*
X81015500Y-136576124D01*
X81015500Y-136343876D01*
X81015500Y-136343872D01*
X92984500Y-136343872D01*
X92984500Y-136576127D01*
X93020829Y-136805509D01*
X93020831Y-136805514D01*
X93092600Y-137026396D01*
X93130373Y-137100529D01*
X93198037Y-137233329D01*
X93272698Y-137336091D01*
X93334551Y-137421224D01*
X93498776Y-137585449D01*
X93635289Y-137684631D01*
X93686670Y-137721962D01*
X93753069Y-137755794D01*
X93893604Y-137827400D01*
X94114486Y-137899169D01*
X94114487Y-137899169D01*
X94114490Y-137899170D01*
X94343873Y-137935500D01*
X94343876Y-137935500D01*
X94576127Y-137935500D01*
X94805509Y-137899170D01*
X94805510Y-137899169D01*
X94805514Y-137899169D01*
X95026396Y-137827400D01*
X95233331Y-137721961D01*
X95421224Y-137585449D01*
X95585449Y-137421224D01*
X95721961Y-137233331D01*
X95827400Y-137026396D01*
X95899169Y-136805514D01*
X95935500Y-136576124D01*
X95935500Y-136343876D01*
X95935500Y-136343872D01*
X98064500Y-136343872D01*
X98064500Y-136576127D01*
X98100829Y-136805509D01*
X98100831Y-136805514D01*
X98172600Y-137026396D01*
X98210373Y-137100529D01*
X98278037Y-137233329D01*
X98352698Y-137336091D01*
X98414551Y-137421224D01*
X98578776Y-137585449D01*
X98715289Y-137684631D01*
X98766670Y-137721962D01*
X98833069Y-137755794D01*
X98973604Y-137827400D01*
X99194486Y-137899169D01*
X99194487Y-137899169D01*
X99194490Y-137899170D01*
X99423873Y-137935500D01*
X99423876Y-137935500D01*
X99656127Y-137935500D01*
X99885509Y-137899170D01*
X99885510Y-137899169D01*
X99885514Y-137899169D01*
X100106396Y-137827400D01*
X100313331Y-137721961D01*
X100501224Y-137585449D01*
X100665449Y-137421224D01*
X100801961Y-137233331D01*
X100907400Y-137026396D01*
X100979169Y-136805514D01*
X101015500Y-136576124D01*
X101015500Y-136343876D01*
X101015500Y-136343872D01*
X107984500Y-136343872D01*
X107984500Y-136576127D01*
X108020829Y-136805509D01*
X108020831Y-136805514D01*
X108092600Y-137026396D01*
X108130373Y-137100529D01*
X108198037Y-137233329D01*
X108272698Y-137336091D01*
X108334551Y-137421224D01*
X108498776Y-137585449D01*
X108635289Y-137684631D01*
X108686670Y-137721962D01*
X108753069Y-137755794D01*
X108893604Y-137827400D01*
X109114486Y-137899169D01*
X109114487Y-137899169D01*
X109114490Y-137899170D01*
X109343873Y-137935500D01*
X109343876Y-137935500D01*
X109576127Y-137935500D01*
X109805509Y-137899170D01*
X109805510Y-137899169D01*
X109805514Y-137899169D01*
X110026396Y-137827400D01*
X110233331Y-137721961D01*
X110421224Y-137585449D01*
X110585449Y-137421224D01*
X110721961Y-137233331D01*
X110827400Y-137026396D01*
X110899169Y-136805514D01*
X110935500Y-136576124D01*
X110935500Y-136343876D01*
X110935500Y-136343872D01*
X113064500Y-136343872D01*
X113064500Y-136576127D01*
X113100829Y-136805509D01*
X113100831Y-136805514D01*
X113172600Y-137026396D01*
X113210373Y-137100529D01*
X113278037Y-137233329D01*
X113352698Y-137336091D01*
X113414551Y-137421224D01*
X113578776Y-137585449D01*
X113715289Y-137684631D01*
X113766670Y-137721962D01*
X113833069Y-137755794D01*
X113973604Y-137827400D01*
X114194486Y-137899169D01*
X114194487Y-137899169D01*
X114194490Y-137899170D01*
X114423873Y-137935500D01*
X114423876Y-137935500D01*
X114656127Y-137935500D01*
X114885509Y-137899170D01*
X114885510Y-137899169D01*
X114885514Y-137899169D01*
X115106396Y-137827400D01*
X115313331Y-137721961D01*
X115501224Y-137585449D01*
X115665449Y-137421224D01*
X115801961Y-137233331D01*
X115907400Y-137026396D01*
X115979169Y-136805514D01*
X116015500Y-136576124D01*
X116015500Y-136343876D01*
X116015500Y-136343872D01*
X122984500Y-136343872D01*
X122984500Y-136576127D01*
X123020829Y-136805509D01*
X123020831Y-136805514D01*
X123092600Y-137026396D01*
X123130373Y-137100529D01*
X123198037Y-137233329D01*
X123272698Y-137336091D01*
X123334551Y-137421224D01*
X123498776Y-137585449D01*
X123635289Y-137684631D01*
X123686670Y-137721962D01*
X123753069Y-137755794D01*
X123893604Y-137827400D01*
X124114486Y-137899169D01*
X124114487Y-137899169D01*
X124114490Y-137899170D01*
X124343873Y-137935500D01*
X124343876Y-137935500D01*
X124576127Y-137935500D01*
X124805509Y-137899170D01*
X124805510Y-137899169D01*
X124805514Y-137899169D01*
X125026396Y-137827400D01*
X125233331Y-137721961D01*
X125421224Y-137585449D01*
X125585449Y-137421224D01*
X125721961Y-137233331D01*
X125827400Y-137026396D01*
X125899169Y-136805514D01*
X125935500Y-136576124D01*
X125935500Y-136343876D01*
X125935500Y-136343872D01*
X128064500Y-136343872D01*
X128064500Y-136576127D01*
X128100829Y-136805509D01*
X128100831Y-136805514D01*
X128172600Y-137026396D01*
X128210373Y-137100529D01*
X128278037Y-137233329D01*
X128352698Y-137336091D01*
X128414551Y-137421224D01*
X128578776Y-137585449D01*
X128715289Y-137684631D01*
X128766670Y-137721962D01*
X128833069Y-137755794D01*
X128973604Y-137827400D01*
X129194486Y-137899169D01*
X129194487Y-137899169D01*
X129194490Y-137899170D01*
X129423873Y-137935500D01*
X129423876Y-137935500D01*
X129656127Y-137935500D01*
X129885509Y-137899170D01*
X129885510Y-137899169D01*
X129885514Y-137899169D01*
X130106396Y-137827400D01*
X130313331Y-137721961D01*
X130501224Y-137585449D01*
X130665449Y-137421224D01*
X130801961Y-137233331D01*
X130907400Y-137026396D01*
X130979169Y-136805514D01*
X131015500Y-136576124D01*
X131015500Y-136343876D01*
X131015500Y-136343872D01*
X137984500Y-136343872D01*
X137984500Y-136576127D01*
X138020829Y-136805509D01*
X138020831Y-136805514D01*
X138092600Y-137026396D01*
X138130373Y-137100529D01*
X138198037Y-137233329D01*
X138272698Y-137336091D01*
X138334551Y-137421224D01*
X138498776Y-137585449D01*
X138635289Y-137684631D01*
X138686670Y-137721962D01*
X138753069Y-137755794D01*
X138893604Y-137827400D01*
X139114486Y-137899169D01*
X139114487Y-137899169D01*
X139114490Y-137899170D01*
X139343873Y-137935500D01*
X139343876Y-137935500D01*
X139576127Y-137935500D01*
X139805509Y-137899170D01*
X139805510Y-137899169D01*
X139805514Y-137899169D01*
X140026396Y-137827400D01*
X140233331Y-137721961D01*
X140421224Y-137585449D01*
X140585449Y-137421224D01*
X140721961Y-137233331D01*
X140827400Y-137026396D01*
X140899169Y-136805514D01*
X140935500Y-136576124D01*
X140935500Y-136343876D01*
X140935500Y-136343872D01*
X143064500Y-136343872D01*
X143064500Y-136576127D01*
X143100829Y-136805509D01*
X143100831Y-136805514D01*
X143172600Y-137026396D01*
X143210373Y-137100529D01*
X143278037Y-137233329D01*
X143352698Y-137336091D01*
X143414551Y-137421224D01*
X143578776Y-137585449D01*
X143715289Y-137684631D01*
X143766670Y-137721962D01*
X143833069Y-137755794D01*
X143973604Y-137827400D01*
X144194486Y-137899169D01*
X144194487Y-137899169D01*
X144194490Y-137899170D01*
X144423873Y-137935500D01*
X144423876Y-137935500D01*
X144656127Y-137935500D01*
X144885509Y-137899170D01*
X144885510Y-137899169D01*
X144885514Y-137899169D01*
X145106396Y-137827400D01*
X145313331Y-137721961D01*
X145501224Y-137585449D01*
X145665449Y-137421224D01*
X145801961Y-137233331D01*
X145907400Y-137026396D01*
X145979169Y-136805514D01*
X146015500Y-136576124D01*
X146015500Y-136343876D01*
X146015500Y-136343872D01*
X145979170Y-136114490D01*
X145907401Y-135893608D01*
X145907400Y-135893604D01*
X145801961Y-135686669D01*
X145665449Y-135498776D01*
X145501224Y-135334551D01*
X145416091Y-135272698D01*
X145313329Y-135198037D01*
X145180529Y-135130373D01*
X145106396Y-135092600D01*
X145106393Y-135092599D01*
X145106391Y-135092598D01*
X144885509Y-135020829D01*
X144656127Y-134984500D01*
X144656124Y-134984500D01*
X144423876Y-134984500D01*
X144423873Y-134984500D01*
X144194490Y-135020829D01*
X143973608Y-135092598D01*
X143766670Y-135198037D01*
X143578777Y-135334550D01*
X143414550Y-135498777D01*
X143278037Y-135686670D01*
X143172598Y-135893608D01*
X143100829Y-136114490D01*
X143064500Y-136343872D01*
X140935500Y-136343872D01*
X140899170Y-136114490D01*
X140827401Y-135893608D01*
X140827400Y-135893604D01*
X140721961Y-135686669D01*
X140585449Y-135498776D01*
X140421224Y-135334551D01*
X140336091Y-135272698D01*
X140233329Y-135198037D01*
X140100529Y-135130373D01*
X140026396Y-135092600D01*
X140026393Y-135092599D01*
X140026391Y-135092598D01*
X139805509Y-135020829D01*
X139576127Y-134984500D01*
X139576124Y-134984500D01*
X139343876Y-134984500D01*
X139343873Y-134984500D01*
X139114490Y-135020829D01*
X138893608Y-135092598D01*
X138686670Y-135198037D01*
X138498777Y-135334550D01*
X138334550Y-135498777D01*
X138198037Y-135686670D01*
X138092598Y-135893608D01*
X138020829Y-136114490D01*
X137984500Y-136343872D01*
X131015500Y-136343872D01*
X130979170Y-136114490D01*
X130907401Y-135893608D01*
X130907400Y-135893604D01*
X130801961Y-135686669D01*
X130665449Y-135498776D01*
X130501224Y-135334551D01*
X130416091Y-135272698D01*
X130313329Y-135198037D01*
X130180529Y-135130373D01*
X130106396Y-135092600D01*
X130106393Y-135092599D01*
X130106391Y-135092598D01*
X129885509Y-135020829D01*
X129656127Y-134984500D01*
X129656124Y-134984500D01*
X129423876Y-134984500D01*
X129423873Y-134984500D01*
X129194490Y-135020829D01*
X128973608Y-135092598D01*
X128766670Y-135198037D01*
X128578777Y-135334550D01*
X128414550Y-135498777D01*
X128278037Y-135686670D01*
X128172598Y-135893608D01*
X128100829Y-136114490D01*
X128064500Y-136343872D01*
X125935500Y-136343872D01*
X125899170Y-136114490D01*
X125827401Y-135893608D01*
X125827400Y-135893604D01*
X125721961Y-135686669D01*
X125585449Y-135498776D01*
X125421224Y-135334551D01*
X125336091Y-135272698D01*
X125233329Y-135198037D01*
X125100529Y-135130373D01*
X125026396Y-135092600D01*
X125026393Y-135092599D01*
X125026391Y-135092598D01*
X124805509Y-135020829D01*
X124576127Y-134984500D01*
X124576124Y-134984500D01*
X124343876Y-134984500D01*
X124343873Y-134984500D01*
X124114490Y-135020829D01*
X123893608Y-135092598D01*
X123686670Y-135198037D01*
X123498777Y-135334550D01*
X123334550Y-135498777D01*
X123198037Y-135686670D01*
X123092598Y-135893608D01*
X123020829Y-136114490D01*
X122984500Y-136343872D01*
X116015500Y-136343872D01*
X115979170Y-136114490D01*
X115907401Y-135893608D01*
X115907400Y-135893604D01*
X115801961Y-135686669D01*
X115665449Y-135498776D01*
X115501224Y-135334551D01*
X115416091Y-135272698D01*
X115313329Y-135198037D01*
X115180529Y-135130373D01*
X115106396Y-135092600D01*
X115106393Y-135092599D01*
X115106391Y-135092598D01*
X114885509Y-135020829D01*
X114656127Y-134984500D01*
X114656124Y-134984500D01*
X114423876Y-134984500D01*
X114423873Y-134984500D01*
X114194490Y-135020829D01*
X113973608Y-135092598D01*
X113766670Y-135198037D01*
X113578777Y-135334550D01*
X113414550Y-135498777D01*
X113278037Y-135686670D01*
X113172598Y-135893608D01*
X113100829Y-136114490D01*
X113064500Y-136343872D01*
X110935500Y-136343872D01*
X110899170Y-136114490D01*
X110827401Y-135893608D01*
X110827400Y-135893604D01*
X110721961Y-135686669D01*
X110585449Y-135498776D01*
X110421224Y-135334551D01*
X110336091Y-135272698D01*
X110233329Y-135198037D01*
X110100529Y-135130373D01*
X110026396Y-135092600D01*
X110026393Y-135092599D01*
X110026391Y-135092598D01*
X109805509Y-135020829D01*
X109576127Y-134984500D01*
X109576124Y-134984500D01*
X109343876Y-134984500D01*
X109343873Y-134984500D01*
X109114490Y-135020829D01*
X108893608Y-135092598D01*
X108686670Y-135198037D01*
X108498777Y-135334550D01*
X108334550Y-135498777D01*
X108198037Y-135686670D01*
X108092598Y-135893608D01*
X108020829Y-136114490D01*
X107984500Y-136343872D01*
X101015500Y-136343872D01*
X100979170Y-136114490D01*
X100907401Y-135893608D01*
X100907400Y-135893604D01*
X100801961Y-135686669D01*
X100665449Y-135498776D01*
X100501224Y-135334551D01*
X100416091Y-135272698D01*
X100313329Y-135198037D01*
X100180529Y-135130373D01*
X100106396Y-135092600D01*
X100106393Y-135092599D01*
X100106391Y-135092598D01*
X99885509Y-135020829D01*
X99656127Y-134984500D01*
X99656124Y-134984500D01*
X99423876Y-134984500D01*
X99423873Y-134984500D01*
X99194490Y-135020829D01*
X98973608Y-135092598D01*
X98766670Y-135198037D01*
X98578777Y-135334550D01*
X98414550Y-135498777D01*
X98278037Y-135686670D01*
X98172598Y-135893608D01*
X98100829Y-136114490D01*
X98064500Y-136343872D01*
X95935500Y-136343872D01*
X95899170Y-136114490D01*
X95827401Y-135893608D01*
X95827400Y-135893604D01*
X95721961Y-135686669D01*
X95585449Y-135498776D01*
X95421224Y-135334551D01*
X95336091Y-135272698D01*
X95233329Y-135198037D01*
X95100529Y-135130373D01*
X95026396Y-135092600D01*
X95026393Y-135092599D01*
X95026391Y-135092598D01*
X94805509Y-135020829D01*
X94576127Y-134984500D01*
X94576124Y-134984500D01*
X94343876Y-134984500D01*
X94343873Y-134984500D01*
X94114490Y-135020829D01*
X93893608Y-135092598D01*
X93686670Y-135198037D01*
X93498777Y-135334550D01*
X93334550Y-135498777D01*
X93198037Y-135686670D01*
X93092598Y-135893608D01*
X93020829Y-136114490D01*
X92984500Y-136343872D01*
X81015500Y-136343872D01*
X80979170Y-136114490D01*
X80907401Y-135893608D01*
X80907400Y-135893604D01*
X80801961Y-135686669D01*
X80665449Y-135498776D01*
X80501224Y-135334551D01*
X80416091Y-135272698D01*
X80313329Y-135198037D01*
X80180529Y-135130373D01*
X80106396Y-135092600D01*
X80106393Y-135092599D01*
X80106391Y-135092598D01*
X79885509Y-135020829D01*
X79656127Y-134984500D01*
X79656124Y-134984500D01*
X79423876Y-134984500D01*
X79423873Y-134984500D01*
X79194490Y-135020829D01*
X78973608Y-135092598D01*
X78766670Y-135198037D01*
X78578777Y-135334550D01*
X78414550Y-135498777D01*
X78278037Y-135686670D01*
X78172598Y-135893608D01*
X78100829Y-136114490D01*
X78064500Y-136343872D01*
X75935500Y-136343872D01*
X75899170Y-136114490D01*
X75827401Y-135893608D01*
X75827400Y-135893604D01*
X75721961Y-135686669D01*
X75585449Y-135498776D01*
X75421224Y-135334551D01*
X75336091Y-135272698D01*
X75233329Y-135198037D01*
X75100529Y-135130373D01*
X75026396Y-135092600D01*
X75026393Y-135092599D01*
X75026391Y-135092598D01*
X74805509Y-135020829D01*
X74576127Y-134984500D01*
X74576124Y-134984500D01*
X74343876Y-134984500D01*
X74343873Y-134984500D01*
X74114490Y-135020829D01*
X73893608Y-135092598D01*
X73686670Y-135198037D01*
X73498777Y-135334550D01*
X73334550Y-135498777D01*
X73198037Y-135686670D01*
X73092598Y-135893608D01*
X73020829Y-136114490D01*
X72984500Y-136343872D01*
X63000500Y-136343872D01*
X63000500Y-101434108D01*
X131499500Y-101434108D01*
X131499500Y-101565892D01*
X131529579Y-101678151D01*
X131533609Y-101693190D01*
X131599496Y-101807309D01*
X131599498Y-101807311D01*
X131599500Y-101807314D01*
X131692686Y-101900500D01*
X131692688Y-101900501D01*
X131692690Y-101900503D01*
X131806810Y-101966390D01*
X131806808Y-101966390D01*
X131806812Y-101966391D01*
X131806814Y-101966392D01*
X131934108Y-102000500D01*
X131934110Y-102000500D01*
X132065890Y-102000500D01*
X132065892Y-102000500D01*
X132193186Y-101966392D01*
X132193188Y-101966390D01*
X132193190Y-101966390D01*
X132307309Y-101900503D01*
X132307309Y-101900502D01*
X132307314Y-101900500D01*
X132400500Y-101807314D01*
X132466392Y-101693186D01*
X132500500Y-101565892D01*
X132500500Y-101434108D01*
X132466392Y-101306814D01*
X132466390Y-101306811D01*
X132466390Y-101306809D01*
X132400503Y-101192690D01*
X132400501Y-101192688D01*
X132400500Y-101192686D01*
X132307314Y-101099500D01*
X132307311Y-101099498D01*
X132307309Y-101099496D01*
X132193189Y-101033609D01*
X132193191Y-101033609D01*
X132143799Y-101020375D01*
X132065892Y-100999500D01*
X131934108Y-100999500D01*
X131856200Y-101020375D01*
X131806809Y-101033609D01*
X131692690Y-101099496D01*
X131599496Y-101192690D01*
X131533609Y-101306809D01*
X131533608Y-101306814D01*
X131499500Y-101434108D01*
X63000500Y-101434108D01*
X63000500Y-98834108D01*
X99099500Y-98834108D01*
X99099500Y-98965892D01*
X99129579Y-99078151D01*
X99133609Y-99093190D01*
X99199496Y-99207309D01*
X99199498Y-99207311D01*
X99199500Y-99207314D01*
X99292686Y-99300500D01*
X99292688Y-99300501D01*
X99292690Y-99300503D01*
X99406810Y-99366390D01*
X99406808Y-99366390D01*
X99406812Y-99366391D01*
X99406814Y-99366392D01*
X99534108Y-99400500D01*
X99534110Y-99400500D01*
X99665890Y-99400500D01*
X99665892Y-99400500D01*
X99793186Y-99366392D01*
X99793188Y-99366390D01*
X99793190Y-99366390D01*
X99907309Y-99300503D01*
X99907309Y-99300502D01*
X99907314Y-99300500D01*
X100000500Y-99207314D01*
X100066392Y-99093186D01*
X100100500Y-98965892D01*
X100100500Y-98834108D01*
X100066392Y-98706814D01*
X100066390Y-98706811D01*
X100066390Y-98706809D01*
X100000503Y-98592690D01*
X100000501Y-98592688D01*
X100000500Y-98592686D01*
X99907314Y-98499500D01*
X99907311Y-98499498D01*
X99907309Y-98499496D01*
X99880656Y-98484108D01*
X132299500Y-98484108D01*
X132299500Y-98615892D01*
X132323861Y-98706809D01*
X132333609Y-98743190D01*
X132399496Y-98857309D01*
X132399498Y-98857311D01*
X132399500Y-98857314D01*
X132492686Y-98950500D01*
X132492688Y-98950501D01*
X132492690Y-98950503D01*
X132606810Y-99016390D01*
X132606808Y-99016390D01*
X132606812Y-99016391D01*
X132606814Y-99016392D01*
X132734108Y-99050500D01*
X132734110Y-99050500D01*
X132865890Y-99050500D01*
X132865892Y-99050500D01*
X132993186Y-99016392D01*
X132993188Y-99016390D01*
X132993190Y-99016390D01*
X133107309Y-98950503D01*
X133107309Y-98950502D01*
X133107314Y-98950500D01*
X133200500Y-98857314D01*
X133200503Y-98857309D01*
X133266390Y-98743190D01*
X133266390Y-98743188D01*
X133266392Y-98743186D01*
X133300500Y-98615892D01*
X133300500Y-98484108D01*
X133266392Y-98356814D01*
X133266390Y-98356811D01*
X133266390Y-98356809D01*
X133200503Y-98242690D01*
X133200501Y-98242688D01*
X133200500Y-98242686D01*
X133107314Y-98149500D01*
X133107311Y-98149498D01*
X133107309Y-98149496D01*
X132993189Y-98083609D01*
X132993191Y-98083609D01*
X132943799Y-98070375D01*
X132865892Y-98049500D01*
X132734108Y-98049500D01*
X132656200Y-98070375D01*
X132606809Y-98083609D01*
X132492690Y-98149496D01*
X132399496Y-98242690D01*
X132333609Y-98356809D01*
X132333608Y-98356814D01*
X132299500Y-98484108D01*
X99880656Y-98484108D01*
X99793189Y-98433609D01*
X99793191Y-98433609D01*
X99743799Y-98420375D01*
X99665892Y-98399500D01*
X99534108Y-98399500D01*
X99456200Y-98420375D01*
X99406809Y-98433609D01*
X99292690Y-98499496D01*
X99199496Y-98592690D01*
X99133609Y-98706809D01*
X99133608Y-98706814D01*
X99099500Y-98834108D01*
X63000500Y-98834108D01*
X63000500Y-94334108D01*
X123849500Y-94334108D01*
X123849500Y-94465892D01*
X123868484Y-94536741D01*
X123883609Y-94593190D01*
X123949496Y-94707309D01*
X123949498Y-94707311D01*
X123949500Y-94707314D01*
X124042686Y-94800500D01*
X124042688Y-94800501D01*
X124042690Y-94800503D01*
X124156810Y-94866390D01*
X124156808Y-94866390D01*
X124156812Y-94866391D01*
X124156814Y-94866392D01*
X124284108Y-94900500D01*
X124284110Y-94900500D01*
X124415890Y-94900500D01*
X124415892Y-94900500D01*
X124543186Y-94866392D01*
X124543188Y-94866390D01*
X124543190Y-94866390D01*
X124657309Y-94800503D01*
X124657309Y-94800502D01*
X124657314Y-94800500D01*
X124750500Y-94707314D01*
X124785178Y-94647250D01*
X124816390Y-94593190D01*
X124816390Y-94593188D01*
X124816392Y-94593186D01*
X124850500Y-94465892D01*
X124850500Y-94334108D01*
X128249500Y-94334108D01*
X128249500Y-94465892D01*
X128268484Y-94536741D01*
X128283609Y-94593190D01*
X128349496Y-94707309D01*
X128349498Y-94707311D01*
X128349500Y-94707314D01*
X128442686Y-94800500D01*
X128442688Y-94800501D01*
X128442690Y-94800503D01*
X128556810Y-94866390D01*
X128556808Y-94866390D01*
X128556812Y-94866391D01*
X128556814Y-94866392D01*
X128684108Y-94900500D01*
X128684110Y-94900500D01*
X128815890Y-94900500D01*
X128815892Y-94900500D01*
X128943186Y-94866392D01*
X128943188Y-94866390D01*
X128943190Y-94866390D01*
X129057309Y-94800503D01*
X129057309Y-94800502D01*
X129057314Y-94800500D01*
X129150500Y-94707314D01*
X129201431Y-94619099D01*
X129246900Y-94578159D01*
X129307750Y-94571763D01*
X129360738Y-94602356D01*
X129385007Y-94656866D01*
X129385320Y-94656825D01*
X129385458Y-94657878D01*
X129385625Y-94658252D01*
X129385702Y-94659729D01*
X129386166Y-94663256D01*
X129386167Y-94663259D01*
X129418912Y-94785466D01*
X129482171Y-94895034D01*
X129571633Y-94984496D01*
X129681201Y-95047755D01*
X129768104Y-95071040D01*
X129819416Y-95104363D01*
X129841343Y-95161484D01*
X129825508Y-95220585D01*
X129777958Y-95259090D01*
X129768103Y-95262293D01*
X129681200Y-95285578D01*
X129571633Y-95348837D01*
X129482171Y-95438299D01*
X129418912Y-95547867D01*
X129386167Y-95670074D01*
X129386167Y-95796592D01*
X129418912Y-95918799D01*
X129482171Y-96028367D01*
X129571633Y-96117829D01*
X129681201Y-96181088D01*
X129803408Y-96213833D01*
X129803410Y-96213833D01*
X129929924Y-96213833D01*
X129929926Y-96213833D01*
X130052133Y-96181088D01*
X130161701Y-96117829D01*
X130251163Y-96028367D01*
X130314422Y-95918799D01*
X130337707Y-95831895D01*
X130371030Y-95780583D01*
X130428151Y-95758656D01*
X130487252Y-95774491D01*
X130525757Y-95822041D01*
X130528959Y-95831894D01*
X130552245Y-95918799D01*
X130615504Y-96028367D01*
X130704966Y-96117829D01*
X130814534Y-96181088D01*
X130936741Y-96213833D01*
X130936743Y-96213833D01*
X131063257Y-96213833D01*
X131063259Y-96213833D01*
X131185466Y-96181088D01*
X131295034Y-96117829D01*
X131384496Y-96028367D01*
X131447755Y-95918799D01*
X131471040Y-95831895D01*
X131504363Y-95780583D01*
X131561484Y-95758656D01*
X131620585Y-95774491D01*
X131659090Y-95822041D01*
X131662292Y-95831894D01*
X131685578Y-95918799D01*
X131748837Y-96028367D01*
X131838299Y-96117829D01*
X131935754Y-96174095D01*
X131976694Y-96219563D01*
X131983090Y-96280413D01*
X131952497Y-96333401D01*
X131911876Y-96355457D01*
X131806809Y-96383609D01*
X131692690Y-96449496D01*
X131599496Y-96542690D01*
X131533609Y-96656809D01*
X131533608Y-96656814D01*
X131499500Y-96784108D01*
X131499500Y-96915892D01*
X131529579Y-97028151D01*
X131533609Y-97043190D01*
X131599496Y-97157309D01*
X131599498Y-97157311D01*
X131599500Y-97157314D01*
X131692686Y-97250500D01*
X131692688Y-97250501D01*
X131692690Y-97250503D01*
X131806810Y-97316390D01*
X131806808Y-97316390D01*
X131806812Y-97316391D01*
X131806814Y-97316392D01*
X131934108Y-97350500D01*
X131934110Y-97350500D01*
X132065890Y-97350500D01*
X132065892Y-97350500D01*
X132193186Y-97316392D01*
X132193188Y-97316390D01*
X132193190Y-97316390D01*
X132307309Y-97250503D01*
X132307309Y-97250502D01*
X132307314Y-97250500D01*
X132400500Y-97157314D01*
X132466392Y-97043186D01*
X132500500Y-96915892D01*
X132500500Y-96784108D01*
X132466392Y-96656814D01*
X132466390Y-96656811D01*
X132466390Y-96656809D01*
X132400503Y-96542690D01*
X132400501Y-96542688D01*
X132400500Y-96542686D01*
X132307314Y-96449500D01*
X132307311Y-96449498D01*
X132200405Y-96387775D01*
X132159465Y-96342305D01*
X132153070Y-96281455D01*
X132183663Y-96228467D01*
X132224280Y-96206413D01*
X132318799Y-96181088D01*
X132428367Y-96117829D01*
X132517829Y-96028367D01*
X132581088Y-95918799D01*
X132613833Y-95796592D01*
X132613833Y-95670074D01*
X132581088Y-95547867D01*
X132517829Y-95438299D01*
X132428367Y-95348837D01*
X132318799Y-95285578D01*
X132231896Y-95262292D01*
X132180582Y-95228969D01*
X132158656Y-95171847D01*
X132174492Y-95112747D01*
X132222042Y-95074241D01*
X132231882Y-95071043D01*
X132318799Y-95047755D01*
X132428367Y-94984496D01*
X132517829Y-94895034D01*
X132581088Y-94785466D01*
X132613833Y-94663259D01*
X132613833Y-94663256D01*
X132614680Y-94656825D01*
X132617536Y-94657201D01*
X132632740Y-94610409D01*
X132682240Y-94574445D01*
X132743426Y-94574445D01*
X132792926Y-94610409D01*
X132798565Y-94619092D01*
X132849500Y-94707314D01*
X132942686Y-94800500D01*
X132942688Y-94800501D01*
X132942690Y-94800503D01*
X133056810Y-94866390D01*
X133056808Y-94866390D01*
X133056812Y-94866391D01*
X133056814Y-94866392D01*
X133184108Y-94900500D01*
X133184110Y-94900500D01*
X133315890Y-94900500D01*
X133315892Y-94900500D01*
X133443186Y-94866392D01*
X133443188Y-94866390D01*
X133443190Y-94866390D01*
X133557309Y-94800503D01*
X133557309Y-94800502D01*
X133557314Y-94800500D01*
X133650500Y-94707314D01*
X133685178Y-94647250D01*
X133716390Y-94593190D01*
X133716390Y-94593188D01*
X133716392Y-94593186D01*
X133750500Y-94465892D01*
X133750500Y-94334108D01*
X136899500Y-94334108D01*
X136899500Y-94465892D01*
X136918484Y-94536741D01*
X136933609Y-94593190D01*
X136999496Y-94707309D01*
X136999498Y-94707311D01*
X136999500Y-94707314D01*
X137092686Y-94800500D01*
X137092688Y-94800501D01*
X137092690Y-94800503D01*
X137206810Y-94866390D01*
X137206808Y-94866390D01*
X137206812Y-94866391D01*
X137206814Y-94866392D01*
X137334108Y-94900500D01*
X137334110Y-94900500D01*
X137465890Y-94900500D01*
X137465892Y-94900500D01*
X137593186Y-94866392D01*
X137593188Y-94866390D01*
X137593190Y-94866390D01*
X137707309Y-94800503D01*
X137707309Y-94800502D01*
X137707314Y-94800500D01*
X137800500Y-94707314D01*
X137835178Y-94647250D01*
X137866390Y-94593190D01*
X137866390Y-94593188D01*
X137866392Y-94593186D01*
X137900500Y-94465892D01*
X137900500Y-94334108D01*
X137866392Y-94206814D01*
X137866390Y-94206811D01*
X137866390Y-94206809D01*
X137800503Y-94092690D01*
X137800501Y-94092688D01*
X137800500Y-94092686D01*
X137707314Y-93999500D01*
X137707311Y-93999498D01*
X137707309Y-93999496D01*
X137593189Y-93933609D01*
X137593191Y-93933609D01*
X137521578Y-93914421D01*
X137465892Y-93899500D01*
X137334108Y-93899500D01*
X137278422Y-93914421D01*
X137206809Y-93933609D01*
X137092690Y-93999496D01*
X136999496Y-94092690D01*
X136933609Y-94206809D01*
X136914539Y-94277978D01*
X136899500Y-94334108D01*
X133750500Y-94334108D01*
X133716392Y-94206814D01*
X133716390Y-94206811D01*
X133716390Y-94206809D01*
X133650503Y-94092690D01*
X133650501Y-94092688D01*
X133650500Y-94092686D01*
X133557314Y-93999500D01*
X133557311Y-93999498D01*
X133557309Y-93999496D01*
X133443189Y-93933609D01*
X133443191Y-93933609D01*
X133371578Y-93914421D01*
X133315892Y-93899500D01*
X133184108Y-93899500D01*
X133128422Y-93914421D01*
X133056809Y-93933609D01*
X132942690Y-93999496D01*
X132849496Y-94092690D01*
X132783609Y-94206809D01*
X132749500Y-94334109D01*
X132749500Y-94336759D01*
X132748913Y-94338564D01*
X132748653Y-94340542D01*
X132748286Y-94340493D01*
X132730593Y-94394950D01*
X132681093Y-94430914D01*
X132619907Y-94430914D01*
X132570407Y-94394950D01*
X132564764Y-94386259D01*
X132517830Y-94304968D01*
X132517829Y-94304966D01*
X132428367Y-94215504D01*
X132318799Y-94152245D01*
X132231896Y-94128959D01*
X132180582Y-94095636D01*
X132158656Y-94038514D01*
X132174492Y-93979414D01*
X132222042Y-93940908D01*
X132231882Y-93937710D01*
X132318799Y-93914422D01*
X132428367Y-93851163D01*
X132517829Y-93761701D01*
X132581088Y-93652133D01*
X132613833Y-93529926D01*
X132613833Y-93403408D01*
X132581088Y-93281201D01*
X132517829Y-93171633D01*
X132428367Y-93082171D01*
X132318799Y-93018912D01*
X132196592Y-92986167D01*
X132070074Y-92986167D01*
X131947867Y-93018912D01*
X131838299Y-93082171D01*
X131748837Y-93171633D01*
X131685578Y-93281200D01*
X131662293Y-93368103D01*
X131628968Y-93419417D01*
X131571847Y-93441343D01*
X131512746Y-93425507D01*
X131474241Y-93377957D01*
X131471043Y-93368117D01*
X131447755Y-93281201D01*
X131384496Y-93171633D01*
X131295034Y-93082171D01*
X131185466Y-93018912D01*
X131063259Y-92986167D01*
X130936741Y-92986167D01*
X130814534Y-93018912D01*
X130704966Y-93082171D01*
X130615504Y-93171633D01*
X130552245Y-93281200D01*
X130528960Y-93368103D01*
X130495635Y-93419417D01*
X130438514Y-93441343D01*
X130379413Y-93425507D01*
X130340908Y-93377957D01*
X130337710Y-93368117D01*
X130314422Y-93281201D01*
X130251163Y-93171633D01*
X130161701Y-93082171D01*
X130052133Y-93018912D01*
X129929926Y-92986167D01*
X129803408Y-92986167D01*
X129681201Y-93018912D01*
X129571633Y-93082171D01*
X129482171Y-93171633D01*
X129418912Y-93281201D01*
X129386167Y-93403408D01*
X129386167Y-93529926D01*
X129418912Y-93652133D01*
X129482171Y-93761701D01*
X129571633Y-93851163D01*
X129681201Y-93914422D01*
X129768104Y-93937707D01*
X129819416Y-93971030D01*
X129841343Y-94028151D01*
X129825508Y-94087252D01*
X129777958Y-94125757D01*
X129768103Y-94128960D01*
X129681200Y-94152245D01*
X129571633Y-94215504D01*
X129482169Y-94304968D01*
X129435236Y-94386259D01*
X129389767Y-94427200D01*
X129328916Y-94433596D01*
X129275928Y-94403003D01*
X129251042Y-94347107D01*
X129250500Y-94336759D01*
X129250500Y-94334109D01*
X129218720Y-94215504D01*
X129216392Y-94206814D01*
X129216390Y-94206811D01*
X129216390Y-94206809D01*
X129150503Y-94092690D01*
X129150501Y-94092688D01*
X129150500Y-94092686D01*
X129057314Y-93999500D01*
X129057311Y-93999498D01*
X129057309Y-93999496D01*
X128943189Y-93933609D01*
X128943191Y-93933609D01*
X128871578Y-93914421D01*
X128815892Y-93899500D01*
X128684108Y-93899500D01*
X128628422Y-93914421D01*
X128556809Y-93933609D01*
X128442690Y-93999496D01*
X128349496Y-94092690D01*
X128283609Y-94206809D01*
X128264539Y-94277978D01*
X128249500Y-94334108D01*
X124850500Y-94334108D01*
X124816392Y-94206814D01*
X124816390Y-94206811D01*
X124816390Y-94206809D01*
X124750503Y-94092690D01*
X124750501Y-94092688D01*
X124750500Y-94092686D01*
X124657314Y-93999500D01*
X124657311Y-93999498D01*
X124657309Y-93999496D01*
X124543189Y-93933609D01*
X124543191Y-93933609D01*
X124471578Y-93914421D01*
X124415892Y-93899500D01*
X124284108Y-93899500D01*
X124228422Y-93914421D01*
X124156809Y-93933609D01*
X124042690Y-93999496D01*
X123949496Y-94092690D01*
X123883609Y-94206809D01*
X123864539Y-94277978D01*
X123849500Y-94334108D01*
X63000500Y-94334108D01*
X63000500Y-92284108D01*
X132249500Y-92284108D01*
X132249500Y-92415892D01*
X132279579Y-92528151D01*
X132283609Y-92543190D01*
X132349496Y-92657309D01*
X132349498Y-92657311D01*
X132349500Y-92657314D01*
X132442686Y-92750500D01*
X132442688Y-92750501D01*
X132442690Y-92750503D01*
X132556810Y-92816390D01*
X132556808Y-92816390D01*
X132556812Y-92816391D01*
X132556814Y-92816392D01*
X132684108Y-92850500D01*
X132684110Y-92850500D01*
X132815890Y-92850500D01*
X132815892Y-92850500D01*
X132943186Y-92816392D01*
X132943188Y-92816390D01*
X132943190Y-92816390D01*
X133057309Y-92750503D01*
X133057309Y-92750502D01*
X133057314Y-92750500D01*
X133150500Y-92657314D01*
X133216392Y-92543186D01*
X133250500Y-92415892D01*
X133250500Y-92284108D01*
X133216392Y-92156814D01*
X133216390Y-92156811D01*
X133216390Y-92156809D01*
X133150503Y-92042690D01*
X133150501Y-92042688D01*
X133150500Y-92042686D01*
X133057314Y-91949500D01*
X133057311Y-91949498D01*
X133057309Y-91949496D01*
X132943189Y-91883609D01*
X132943191Y-91883609D01*
X132893799Y-91870375D01*
X132815892Y-91849500D01*
X132684108Y-91849500D01*
X132606200Y-91870375D01*
X132556809Y-91883609D01*
X132442690Y-91949496D01*
X132349496Y-92042690D01*
X132283609Y-92156809D01*
X132283608Y-92156814D01*
X132249500Y-92284108D01*
X63000500Y-92284108D01*
X63000500Y-87084108D01*
X132249500Y-87084108D01*
X132249500Y-87215892D01*
X132272238Y-87300754D01*
X132283608Y-87343187D01*
X132316698Y-87400501D01*
X132329419Y-87460349D01*
X132316698Y-87499499D01*
X132283608Y-87556812D01*
X132260869Y-87641676D01*
X132249500Y-87684108D01*
X132249500Y-87815892D01*
X132279579Y-87928151D01*
X132283609Y-87943190D01*
X132349496Y-88057309D01*
X132349498Y-88057311D01*
X132349500Y-88057314D01*
X132442686Y-88150500D01*
X132442688Y-88150501D01*
X132442690Y-88150503D01*
X132556810Y-88216390D01*
X132556808Y-88216390D01*
X132556812Y-88216391D01*
X132556814Y-88216392D01*
X132684108Y-88250500D01*
X132684110Y-88250500D01*
X132815890Y-88250500D01*
X132815892Y-88250500D01*
X132943186Y-88216392D01*
X132943188Y-88216390D01*
X132943190Y-88216390D01*
X133057309Y-88150503D01*
X133057309Y-88150502D01*
X133057314Y-88150500D01*
X133150500Y-88057314D01*
X133216392Y-87943186D01*
X133250500Y-87815892D01*
X133250500Y-87684108D01*
X133216392Y-87556814D01*
X133183300Y-87499498D01*
X133170579Y-87439654D01*
X133183299Y-87400503D01*
X133216392Y-87343186D01*
X133250500Y-87215892D01*
X133250500Y-87084108D01*
X133216392Y-86956814D01*
X133216390Y-86956811D01*
X133216390Y-86956809D01*
X133150503Y-86842690D01*
X133150501Y-86842688D01*
X133150500Y-86842686D01*
X133057314Y-86749500D01*
X133057311Y-86749498D01*
X133057309Y-86749496D01*
X132943189Y-86683609D01*
X132943191Y-86683609D01*
X132893799Y-86670375D01*
X132815892Y-86649500D01*
X132684108Y-86649500D01*
X132606200Y-86670375D01*
X132556809Y-86683609D01*
X132442690Y-86749496D01*
X132349496Y-86842690D01*
X132283609Y-86956809D01*
X132283608Y-86956814D01*
X132249500Y-87084108D01*
X63000500Y-87084108D01*
X63000500Y-67184108D01*
X75299500Y-67184108D01*
X75299500Y-67315892D01*
X75329579Y-67428151D01*
X75333609Y-67443190D01*
X75399496Y-67557309D01*
X75399498Y-67557311D01*
X75399500Y-67557314D01*
X75492686Y-67650500D01*
X75492688Y-67650501D01*
X75492690Y-67650503D01*
X75606810Y-67716390D01*
X75606808Y-67716390D01*
X75606812Y-67716391D01*
X75606814Y-67716392D01*
X75734108Y-67750500D01*
X75734110Y-67750500D01*
X75865890Y-67750500D01*
X75865892Y-67750500D01*
X75993186Y-67716392D01*
X75993188Y-67716390D01*
X75993190Y-67716390D01*
X76107309Y-67650503D01*
X76107309Y-67650502D01*
X76107314Y-67650500D01*
X76200500Y-67557314D01*
X76266392Y-67443186D01*
X76300500Y-67315892D01*
X76300500Y-67184108D01*
X76266392Y-67056814D01*
X76266390Y-67056811D01*
X76266390Y-67056809D01*
X76200503Y-66942690D01*
X76200501Y-66942688D01*
X76200500Y-66942686D01*
X76107314Y-66849500D01*
X76107311Y-66849498D01*
X76107309Y-66849496D01*
X75993189Y-66783609D01*
X75993191Y-66783609D01*
X75943799Y-66770375D01*
X75865892Y-66749500D01*
X75734108Y-66749500D01*
X75656200Y-66770375D01*
X75606809Y-66783609D01*
X75492690Y-66849496D01*
X75399496Y-66942690D01*
X75333609Y-67056809D01*
X75333608Y-67056814D01*
X75299500Y-67184108D01*
X63000500Y-67184108D01*
X63000500Y-62184108D01*
X80249500Y-62184108D01*
X80249500Y-62315892D01*
X80279579Y-62428151D01*
X80283609Y-62443190D01*
X80349496Y-62557309D01*
X80349498Y-62557311D01*
X80349500Y-62557314D01*
X80442686Y-62650500D01*
X80442688Y-62650501D01*
X80442690Y-62650503D01*
X80556810Y-62716390D01*
X80556808Y-62716390D01*
X80556812Y-62716391D01*
X80556814Y-62716392D01*
X80684108Y-62750500D01*
X80684110Y-62750500D01*
X80815890Y-62750500D01*
X80815892Y-62750500D01*
X80943186Y-62716392D01*
X80943188Y-62716390D01*
X80943190Y-62716390D01*
X81057309Y-62650503D01*
X81057309Y-62650502D01*
X81057314Y-62650500D01*
X81150500Y-62557314D01*
X81216392Y-62443186D01*
X81250500Y-62315892D01*
X81250500Y-62184108D01*
X81216392Y-62056814D01*
X81216390Y-62056811D01*
X81216390Y-62056809D01*
X81150503Y-61942690D01*
X81150501Y-61942688D01*
X81150500Y-61942686D01*
X81057314Y-61849500D01*
X81057311Y-61849498D01*
X81057309Y-61849496D01*
X80943189Y-61783609D01*
X80943191Y-61783609D01*
X80893799Y-61770375D01*
X80815892Y-61749500D01*
X80684108Y-61749500D01*
X80606200Y-61770375D01*
X80556809Y-61783609D01*
X80442690Y-61849496D01*
X80349496Y-61942690D01*
X80283609Y-62056809D01*
X80283608Y-62056814D01*
X80249500Y-62184108D01*
X63000500Y-62184108D01*
X63000500Y-56649927D01*
X79835500Y-56649927D01*
X79835500Y-56830072D01*
X79870643Y-57006748D01*
X79939580Y-57173177D01*
X79939581Y-57173178D01*
X80039661Y-57322960D01*
X80167040Y-57450339D01*
X80316822Y-57550419D01*
X80483250Y-57619356D01*
X80537378Y-57630122D01*
X80601622Y-57642902D01*
X80655006Y-57672799D01*
X80680622Y-57728364D01*
X80668685Y-57788374D01*
X80623755Y-57829906D01*
X80601622Y-57837098D01*
X80483251Y-57860643D01*
X80316822Y-57929580D01*
X80167043Y-58029658D01*
X80039658Y-58157043D01*
X79939580Y-58306822D01*
X79870643Y-58473251D01*
X79835500Y-58649927D01*
X79835500Y-58830072D01*
X79870643Y-59006748D01*
X79939580Y-59173177D01*
X79939581Y-59173178D01*
X80039661Y-59322960D01*
X80167040Y-59450339D01*
X80316822Y-59550419D01*
X80483250Y-59619356D01*
X80659930Y-59654500D01*
X80659931Y-59654500D01*
X80840069Y-59654500D01*
X80840070Y-59654500D01*
X81016750Y-59619356D01*
X81183178Y-59550419D01*
X81332960Y-59450339D01*
X81460339Y-59322960D01*
X81560419Y-59173178D01*
X81629356Y-59006750D01*
X81664500Y-58830070D01*
X81664500Y-58649930D01*
X81629356Y-58473250D01*
X81560419Y-58306822D01*
X81460339Y-58157040D01*
X81332960Y-58029661D01*
X81183178Y-57929581D01*
X81183179Y-57929581D01*
X81183177Y-57929580D01*
X81016748Y-57860643D01*
X80898377Y-57837098D01*
X80844993Y-57807201D01*
X80819377Y-57751636D01*
X80831314Y-57691626D01*
X80876244Y-57650094D01*
X80898377Y-57642902D01*
X80908492Y-57640889D01*
X81016750Y-57619356D01*
X81183178Y-57550419D01*
X81332960Y-57450339D01*
X81460339Y-57322960D01*
X81560419Y-57173178D01*
X81629356Y-57006750D01*
X81664500Y-56830070D01*
X81664500Y-56649930D01*
X81664499Y-56649927D01*
X82335500Y-56649927D01*
X82335500Y-56830072D01*
X82370643Y-57006748D01*
X82439580Y-57173177D01*
X82439581Y-57173178D01*
X82539661Y-57322960D01*
X82667040Y-57450339D01*
X82816822Y-57550419D01*
X82983250Y-57619356D01*
X83037378Y-57630122D01*
X83101622Y-57642902D01*
X83155006Y-57672799D01*
X83180622Y-57728364D01*
X83168685Y-57788374D01*
X83123755Y-57829906D01*
X83101622Y-57837098D01*
X82983251Y-57860643D01*
X82816822Y-57929580D01*
X82667043Y-58029658D01*
X82539658Y-58157043D01*
X82439580Y-58306822D01*
X82370643Y-58473251D01*
X82335500Y-58649927D01*
X82335500Y-58830072D01*
X82370643Y-59006748D01*
X82439580Y-59173177D01*
X82439581Y-59173178D01*
X82539661Y-59322960D01*
X82667040Y-59450339D01*
X82816822Y-59550419D01*
X82983250Y-59619356D01*
X83159930Y-59654500D01*
X83159931Y-59654500D01*
X83340069Y-59654500D01*
X83340070Y-59654500D01*
X83516750Y-59619356D01*
X83683178Y-59550419D01*
X83832960Y-59450339D01*
X83960339Y-59322960D01*
X84060419Y-59173178D01*
X84129356Y-59006750D01*
X84164500Y-58830070D01*
X84164500Y-58649930D01*
X84129356Y-58473250D01*
X84060419Y-58306822D01*
X83960339Y-58157040D01*
X83832960Y-58029661D01*
X83683178Y-57929581D01*
X83683179Y-57929581D01*
X83683177Y-57929580D01*
X83516748Y-57860643D01*
X83398377Y-57837098D01*
X83344993Y-57807201D01*
X83319377Y-57751636D01*
X83331314Y-57691626D01*
X83376244Y-57650094D01*
X83398377Y-57642902D01*
X83408492Y-57640889D01*
X83516750Y-57619356D01*
X83683178Y-57550419D01*
X83832960Y-57450339D01*
X83960339Y-57322960D01*
X84060419Y-57173178D01*
X84129356Y-57006750D01*
X84164500Y-56830070D01*
X84164500Y-56649930D01*
X84129356Y-56473250D01*
X84060419Y-56306822D01*
X83960339Y-56157040D01*
X83832960Y-56029661D01*
X83683178Y-55929581D01*
X83683179Y-55929581D01*
X83683177Y-55929580D01*
X83516748Y-55860643D01*
X83340072Y-55825500D01*
X83340070Y-55825500D01*
X83159930Y-55825500D01*
X83159927Y-55825500D01*
X82983251Y-55860643D01*
X82816822Y-55929580D01*
X82667043Y-56029658D01*
X82539658Y-56157043D01*
X82439580Y-56306822D01*
X82370643Y-56473251D01*
X82335500Y-56649927D01*
X81664499Y-56649927D01*
X81629356Y-56473250D01*
X81560419Y-56306822D01*
X81460339Y-56157040D01*
X81332960Y-56029661D01*
X81183178Y-55929581D01*
X81183179Y-55929581D01*
X81183177Y-55929580D01*
X81016748Y-55860643D01*
X80840072Y-55825500D01*
X80840070Y-55825500D01*
X80659930Y-55825500D01*
X80659927Y-55825500D01*
X80483251Y-55860643D01*
X80316822Y-55929580D01*
X80167043Y-56029658D01*
X80039658Y-56157043D01*
X79939580Y-56306822D01*
X79870643Y-56473251D01*
X79835500Y-56649927D01*
X63000500Y-56649927D01*
X63000500Y-53908185D01*
X74121500Y-53908185D01*
X74121500Y-54151814D01*
X74153298Y-54393345D01*
X74153298Y-54393350D01*
X74216352Y-54628669D01*
X74216356Y-54628682D01*
X74309581Y-54853749D01*
X74309583Y-54853753D01*
X74309585Y-54853757D01*
X74431398Y-55064743D01*
X74579707Y-55258024D01*
X74751976Y-55430293D01*
X74945257Y-55578602D01*
X75156243Y-55700415D01*
X75381323Y-55793646D01*
X75616647Y-55856701D01*
X75858187Y-55888500D01*
X75858188Y-55888500D01*
X76101812Y-55888500D01*
X76101813Y-55888500D01*
X76343353Y-55856701D01*
X76578677Y-55793646D01*
X76803757Y-55700415D01*
X77014743Y-55578602D01*
X77208024Y-55430293D01*
X77380293Y-55258024D01*
X77528602Y-55064743D01*
X77650415Y-54853757D01*
X77743646Y-54628677D01*
X77806701Y-54393353D01*
X77838500Y-54151813D01*
X77838500Y-53908187D01*
X77838500Y-53908185D01*
X86161500Y-53908185D01*
X86161500Y-54151814D01*
X86193298Y-54393345D01*
X86193298Y-54393350D01*
X86256352Y-54628669D01*
X86256356Y-54628682D01*
X86349581Y-54853749D01*
X86349583Y-54853753D01*
X86349585Y-54853757D01*
X86471398Y-55064743D01*
X86619707Y-55258024D01*
X86791976Y-55430293D01*
X86985257Y-55578602D01*
X87196243Y-55700415D01*
X87421323Y-55793646D01*
X87656647Y-55856701D01*
X87898187Y-55888500D01*
X87898188Y-55888500D01*
X88141812Y-55888500D01*
X88141813Y-55888500D01*
X88383353Y-55856701D01*
X88618677Y-55793646D01*
X88843757Y-55700415D01*
X89054743Y-55578602D01*
X89248024Y-55430293D01*
X89420293Y-55258024D01*
X89568602Y-55064743D01*
X89690415Y-54853757D01*
X89783646Y-54628677D01*
X89846701Y-54393353D01*
X89878500Y-54151813D01*
X89878500Y-53908187D01*
X89846701Y-53666647D01*
X89787474Y-53445609D01*
X89787474Y-53445606D01*
X89783651Y-53431340D01*
X89783648Y-53431330D01*
X89783646Y-53431323D01*
X89780560Y-53423872D01*
X112984500Y-53423872D01*
X112984500Y-53656127D01*
X113020829Y-53885509D01*
X113020831Y-53885514D01*
X113092600Y-54106396D01*
X113115741Y-54151812D01*
X113198037Y-54313329D01*
X113256172Y-54393345D01*
X113334551Y-54501224D01*
X113498776Y-54665449D01*
X113635289Y-54764631D01*
X113686670Y-54801962D01*
X113753069Y-54835794D01*
X113893604Y-54907400D01*
X114114486Y-54979169D01*
X114114487Y-54979169D01*
X114114490Y-54979170D01*
X114343873Y-55015500D01*
X114343876Y-55015500D01*
X114576127Y-55015500D01*
X114805509Y-54979170D01*
X114805510Y-54979169D01*
X114805514Y-54979169D01*
X115026396Y-54907400D01*
X115233331Y-54801961D01*
X115421224Y-54665449D01*
X115585449Y-54501224D01*
X115721961Y-54313331D01*
X115827400Y-54106396D01*
X115899169Y-53885514D01*
X115899170Y-53885509D01*
X115935500Y-53656127D01*
X115935500Y-53423872D01*
X118064500Y-53423872D01*
X118064500Y-53656127D01*
X118100829Y-53885509D01*
X118100831Y-53885514D01*
X118172600Y-54106396D01*
X118195741Y-54151812D01*
X118278037Y-54313329D01*
X118336172Y-54393345D01*
X118414551Y-54501224D01*
X118578776Y-54665449D01*
X118715289Y-54764631D01*
X118766670Y-54801962D01*
X118833069Y-54835794D01*
X118973604Y-54907400D01*
X119194486Y-54979169D01*
X119194487Y-54979169D01*
X119194490Y-54979170D01*
X119423873Y-55015500D01*
X119423876Y-55015500D01*
X119656127Y-55015500D01*
X119885509Y-54979170D01*
X119885510Y-54979169D01*
X119885514Y-54979169D01*
X120106396Y-54907400D01*
X120313331Y-54801961D01*
X120501224Y-54665449D01*
X120665449Y-54501224D01*
X120801961Y-54313331D01*
X120907400Y-54106396D01*
X120979169Y-53885514D01*
X120979170Y-53885509D01*
X121015500Y-53656127D01*
X121015500Y-53423872D01*
X120979170Y-53194490D01*
X120907401Y-52973608D01*
X120907400Y-52973604D01*
X120835794Y-52833069D01*
X120801962Y-52766670D01*
X120702450Y-52629704D01*
X120665449Y-52578776D01*
X120501224Y-52414551D01*
X120416091Y-52352698D01*
X120313329Y-52278037D01*
X120166644Y-52203298D01*
X120106396Y-52172600D01*
X120106393Y-52172599D01*
X120106391Y-52172598D01*
X119885509Y-52100829D01*
X119656127Y-52064500D01*
X119656124Y-52064500D01*
X119423876Y-52064500D01*
X119423873Y-52064500D01*
X119194490Y-52100829D01*
X118973608Y-52172598D01*
X118766670Y-52278037D01*
X118578777Y-52414550D01*
X118414550Y-52578777D01*
X118278037Y-52766670D01*
X118172598Y-52973608D01*
X118100829Y-53194490D01*
X118064500Y-53423872D01*
X115935500Y-53423872D01*
X115899170Y-53194490D01*
X115827401Y-52973608D01*
X115827400Y-52973604D01*
X115755794Y-52833069D01*
X115721962Y-52766670D01*
X115622450Y-52629704D01*
X115585449Y-52578776D01*
X115421224Y-52414551D01*
X115336091Y-52352698D01*
X115233329Y-52278037D01*
X115086644Y-52203298D01*
X115026396Y-52172600D01*
X115026393Y-52172599D01*
X115026391Y-52172598D01*
X114805509Y-52100829D01*
X114576127Y-52064500D01*
X114576124Y-52064500D01*
X114343876Y-52064500D01*
X114343873Y-52064500D01*
X114114490Y-52100829D01*
X113893608Y-52172598D01*
X113686670Y-52278037D01*
X113498777Y-52414550D01*
X113334550Y-52578777D01*
X113198037Y-52766670D01*
X113092598Y-52973608D01*
X113020829Y-53194490D01*
X112984500Y-53423872D01*
X89780560Y-53423872D01*
X89690415Y-53206243D01*
X89568602Y-52995257D01*
X89420293Y-52801976D01*
X89248024Y-52629707D01*
X89054743Y-52481398D01*
X88843757Y-52359585D01*
X88843753Y-52359583D01*
X88843749Y-52359581D01*
X88618682Y-52266356D01*
X88618681Y-52266355D01*
X88618677Y-52266354D01*
X88383353Y-52203299D01*
X88383350Y-52203298D01*
X88383348Y-52203298D01*
X88141814Y-52171500D01*
X88141813Y-52171500D01*
X87898187Y-52171500D01*
X87898185Y-52171500D01*
X87656654Y-52203298D01*
X87656649Y-52203298D01*
X87421330Y-52266352D01*
X87421317Y-52266356D01*
X87196250Y-52359581D01*
X86985253Y-52481400D01*
X86791979Y-52629704D01*
X86619704Y-52801979D01*
X86471400Y-52995253D01*
X86349581Y-53206250D01*
X86256356Y-53431317D01*
X86256352Y-53431330D01*
X86193298Y-53666649D01*
X86193298Y-53666654D01*
X86161500Y-53908185D01*
X77838500Y-53908185D01*
X77806701Y-53666647D01*
X77743646Y-53431323D01*
X77650415Y-53206243D01*
X77528602Y-52995257D01*
X77380293Y-52801976D01*
X77208024Y-52629707D01*
X77014743Y-52481398D01*
X76803757Y-52359585D01*
X76803753Y-52359583D01*
X76803749Y-52359581D01*
X76578682Y-52266356D01*
X76578681Y-52266355D01*
X76578677Y-52266354D01*
X76343353Y-52203299D01*
X76343350Y-52203298D01*
X76343348Y-52203298D01*
X76101814Y-52171500D01*
X76101813Y-52171500D01*
X75858187Y-52171500D01*
X75858185Y-52171500D01*
X75616654Y-52203298D01*
X75616649Y-52203298D01*
X75381330Y-52266352D01*
X75381317Y-52266356D01*
X75156250Y-52359581D01*
X74945253Y-52481400D01*
X74751979Y-52629704D01*
X74579704Y-52801979D01*
X74431400Y-52995253D01*
X74309581Y-53206250D01*
X74216356Y-53431317D01*
X74216352Y-53431330D01*
X74153298Y-53666649D01*
X74153298Y-53666654D01*
X74121500Y-53908185D01*
X63000500Y-53908185D01*
X63000500Y-50913385D01*
X115899500Y-50913385D01*
X115899500Y-51086614D01*
X115926597Y-51257702D01*
X115926598Y-51257706D01*
X115980123Y-51422438D01*
X115980125Y-51422441D01*
X115980126Y-51422444D01*
X115980127Y-51422445D01*
X116058768Y-51576788D01*
X116160586Y-51716928D01*
X116283072Y-51839414D01*
X116423212Y-51941232D01*
X116577555Y-52019873D01*
X116577557Y-52019873D01*
X116577558Y-52019874D01*
X116577561Y-52019876D01*
X116742293Y-52073401D01*
X116742297Y-52073402D01*
X116913386Y-52100500D01*
X116913389Y-52100500D01*
X117086614Y-52100500D01*
X117257702Y-52073402D01*
X117257706Y-52073401D01*
X117422438Y-52019876D01*
X117422440Y-52019874D01*
X117422445Y-52019873D01*
X117576788Y-51941232D01*
X117716928Y-51839414D01*
X117839414Y-51716928D01*
X117941232Y-51576788D01*
X118019873Y-51422445D01*
X118019874Y-51422440D01*
X118019876Y-51422438D01*
X118073401Y-51257706D01*
X118073402Y-51257702D01*
X118100500Y-51086614D01*
X118100500Y-50913385D01*
X118073402Y-50742297D01*
X118073401Y-50742293D01*
X118019876Y-50577561D01*
X118019874Y-50577558D01*
X118019873Y-50577557D01*
X118019873Y-50577555D01*
X117941232Y-50423212D01*
X117839414Y-50283072D01*
X117716928Y-50160586D01*
X117576788Y-50058768D01*
X117576787Y-50058767D01*
X117576785Y-50058766D01*
X117422441Y-49980125D01*
X117422438Y-49980123D01*
X117257706Y-49926598D01*
X117257702Y-49926597D01*
X117086614Y-49899500D01*
X117086611Y-49899500D01*
X116913389Y-49899500D01*
X116913386Y-49899500D01*
X116742297Y-49926597D01*
X116742293Y-49926598D01*
X116577561Y-49980123D01*
X116577558Y-49980125D01*
X116423214Y-50058766D01*
X116283073Y-50160585D01*
X116160585Y-50283073D01*
X116058766Y-50423214D01*
X115980125Y-50577558D01*
X115980123Y-50577561D01*
X115926598Y-50742293D01*
X115926597Y-50742297D01*
X115899500Y-50913385D01*
X63000500Y-50913385D01*
X63000500Y-48878710D01*
X64149500Y-48878710D01*
X64149500Y-49121289D01*
X64181161Y-49361781D01*
X64181161Y-49361786D01*
X64243944Y-49596092D01*
X64243948Y-49596105D01*
X64336772Y-49820204D01*
X64336774Y-49820208D01*
X64336776Y-49820212D01*
X64398198Y-49926598D01*
X64458066Y-50030292D01*
X64605729Y-50222731D01*
X64605731Y-50222733D01*
X64605735Y-50222738D01*
X64777262Y-50394265D01*
X64777266Y-50394268D01*
X64777268Y-50394270D01*
X64814989Y-50423214D01*
X64969711Y-50541936D01*
X65179788Y-50663224D01*
X65403900Y-50756054D01*
X65638211Y-50818838D01*
X65878712Y-50850500D01*
X65878713Y-50850500D01*
X66121287Y-50850500D01*
X66121288Y-50850500D01*
X66361789Y-50818838D01*
X66596100Y-50756054D01*
X66820212Y-50663224D01*
X67030289Y-50541936D01*
X67222738Y-50394265D01*
X67394265Y-50222738D01*
X67541936Y-50030289D01*
X67663224Y-49820212D01*
X67756054Y-49596100D01*
X67818838Y-49361789D01*
X67850500Y-49121288D01*
X67850500Y-48878712D01*
X67818838Y-48638211D01*
X67756054Y-48403900D01*
X67731190Y-48343872D01*
X112984500Y-48343872D01*
X112984500Y-48576127D01*
X113020829Y-48805509D01*
X113044615Y-48878713D01*
X113092600Y-49026396D01*
X113130373Y-49100529D01*
X113198037Y-49233329D01*
X113272698Y-49336091D01*
X113334551Y-49421224D01*
X113498776Y-49585449D01*
X113635289Y-49684631D01*
X113686670Y-49721962D01*
X113753069Y-49755794D01*
X113893604Y-49827400D01*
X114114486Y-49899169D01*
X114114487Y-49899169D01*
X114114490Y-49899170D01*
X114343873Y-49935500D01*
X114343876Y-49935500D01*
X114576127Y-49935500D01*
X114805509Y-49899170D01*
X114805510Y-49899169D01*
X114805514Y-49899169D01*
X115026396Y-49827400D01*
X115233331Y-49721961D01*
X115421224Y-49585449D01*
X115585449Y-49421224D01*
X115721961Y-49233331D01*
X115827400Y-49026396D01*
X115899169Y-48805514D01*
X115899170Y-48805509D01*
X115935500Y-48576127D01*
X115935500Y-48343872D01*
X118064500Y-48343872D01*
X118064500Y-48576127D01*
X118100829Y-48805509D01*
X118124615Y-48878713D01*
X118172600Y-49026396D01*
X118210373Y-49100529D01*
X118278037Y-49233329D01*
X118352698Y-49336091D01*
X118414551Y-49421224D01*
X118578776Y-49585449D01*
X118715289Y-49684631D01*
X118766670Y-49721962D01*
X118833069Y-49755794D01*
X118973604Y-49827400D01*
X119194486Y-49899169D01*
X119194487Y-49899169D01*
X119194490Y-49899170D01*
X119423873Y-49935500D01*
X119423876Y-49935500D01*
X119656127Y-49935500D01*
X119885509Y-49899170D01*
X119885510Y-49899169D01*
X119885514Y-49899169D01*
X120106396Y-49827400D01*
X120313331Y-49721961D01*
X120501224Y-49585449D01*
X120665449Y-49421224D01*
X120801961Y-49233331D01*
X120907400Y-49026396D01*
X120955385Y-48878713D01*
X120955386Y-48878710D01*
X156149500Y-48878710D01*
X156149500Y-49121289D01*
X156181161Y-49361781D01*
X156181161Y-49361786D01*
X156243944Y-49596092D01*
X156243948Y-49596105D01*
X156336772Y-49820204D01*
X156336774Y-49820208D01*
X156336776Y-49820212D01*
X156398198Y-49926598D01*
X156458066Y-50030292D01*
X156605729Y-50222731D01*
X156605731Y-50222733D01*
X156605735Y-50222738D01*
X156777262Y-50394265D01*
X156777266Y-50394268D01*
X156777268Y-50394270D01*
X156814989Y-50423214D01*
X156969711Y-50541936D01*
X157179788Y-50663224D01*
X157403900Y-50756054D01*
X157638211Y-50818838D01*
X157878712Y-50850500D01*
X157878713Y-50850500D01*
X158121287Y-50850500D01*
X158121288Y-50850500D01*
X158361789Y-50818838D01*
X158596100Y-50756054D01*
X158820212Y-50663224D01*
X159030289Y-50541936D01*
X159222738Y-50394265D01*
X159394265Y-50222738D01*
X159541936Y-50030289D01*
X159663224Y-49820212D01*
X159756054Y-49596100D01*
X159818838Y-49361789D01*
X159850500Y-49121288D01*
X159850500Y-48878712D01*
X159818838Y-48638211D01*
X159756054Y-48403900D01*
X159663224Y-48179788D01*
X159541936Y-47969711D01*
X159394265Y-47777262D01*
X159222738Y-47605735D01*
X159222733Y-47605731D01*
X159222731Y-47605729D01*
X159030292Y-47458066D01*
X159030289Y-47458064D01*
X158820212Y-47336776D01*
X158820208Y-47336774D01*
X158820204Y-47336772D01*
X158596105Y-47243948D01*
X158596104Y-47243947D01*
X158596100Y-47243946D01*
X158361789Y-47181162D01*
X158361786Y-47181161D01*
X158361784Y-47181161D01*
X158121289Y-47149500D01*
X158121288Y-47149500D01*
X157878712Y-47149500D01*
X157878710Y-47149500D01*
X157638218Y-47181161D01*
X157638213Y-47181161D01*
X157403907Y-47243944D01*
X157403894Y-47243948D01*
X157179795Y-47336772D01*
X156969707Y-47458066D01*
X156777268Y-47605729D01*
X156605729Y-47777268D01*
X156458066Y-47969707D01*
X156336772Y-48179795D01*
X156243948Y-48403894D01*
X156243944Y-48403907D01*
X156181161Y-48638213D01*
X156181161Y-48638218D01*
X156149500Y-48878710D01*
X120955386Y-48878710D01*
X120966379Y-48844878D01*
X120966379Y-48844877D01*
X120979169Y-48805514D01*
X120997334Y-48690819D01*
X121015500Y-48576127D01*
X121015500Y-48343872D01*
X120979170Y-48114490D01*
X120932129Y-47969711D01*
X120907400Y-47893604D01*
X120801961Y-47686669D01*
X120665449Y-47498776D01*
X120501224Y-47334551D01*
X120416091Y-47272698D01*
X120313329Y-47198037D01*
X120180529Y-47130373D01*
X120106396Y-47092600D01*
X120106393Y-47092599D01*
X120106391Y-47092598D01*
X119885509Y-47020829D01*
X119656127Y-46984500D01*
X119656124Y-46984500D01*
X119423876Y-46984500D01*
X119423873Y-46984500D01*
X119194490Y-47020829D01*
X118973608Y-47092598D01*
X118766670Y-47198037D01*
X118578777Y-47334550D01*
X118414550Y-47498777D01*
X118278037Y-47686670D01*
X118172598Y-47893608D01*
X118100829Y-48114490D01*
X118064500Y-48343872D01*
X115935500Y-48343872D01*
X115899170Y-48114490D01*
X115852129Y-47969711D01*
X115827400Y-47893604D01*
X115721961Y-47686669D01*
X115585449Y-47498776D01*
X115421224Y-47334551D01*
X115336091Y-47272698D01*
X115233329Y-47198037D01*
X115100529Y-47130373D01*
X115026396Y-47092600D01*
X115026393Y-47092599D01*
X115026391Y-47092598D01*
X114805509Y-47020829D01*
X114576127Y-46984500D01*
X114576124Y-46984500D01*
X114343876Y-46984500D01*
X114343873Y-46984500D01*
X114114490Y-47020829D01*
X113893608Y-47092598D01*
X113686670Y-47198037D01*
X113498777Y-47334550D01*
X113334550Y-47498777D01*
X113198037Y-47686670D01*
X113092598Y-47893608D01*
X113020829Y-48114490D01*
X112984500Y-48343872D01*
X67731190Y-48343872D01*
X67663224Y-48179788D01*
X67541936Y-47969711D01*
X67394265Y-47777262D01*
X67222738Y-47605735D01*
X67222733Y-47605731D01*
X67222731Y-47605729D01*
X67030292Y-47458066D01*
X67030289Y-47458064D01*
X66820212Y-47336776D01*
X66820208Y-47336774D01*
X66820204Y-47336772D01*
X66596105Y-47243948D01*
X66596104Y-47243947D01*
X66596100Y-47243946D01*
X66361789Y-47181162D01*
X66361786Y-47181161D01*
X66361784Y-47181161D01*
X66121289Y-47149500D01*
X66121288Y-47149500D01*
X65878712Y-47149500D01*
X65878710Y-47149500D01*
X65638218Y-47181161D01*
X65638213Y-47181161D01*
X65403907Y-47243944D01*
X65403894Y-47243948D01*
X65179795Y-47336772D01*
X64969707Y-47458066D01*
X64777268Y-47605729D01*
X64605729Y-47777268D01*
X64458066Y-47969707D01*
X64336772Y-48179795D01*
X64243948Y-48403894D01*
X64243944Y-48403907D01*
X64181161Y-48638213D01*
X64181161Y-48638218D01*
X64149500Y-48878710D01*
X63000500Y-48878710D01*
X63000500Y-48003240D01*
X63000712Y-47996765D01*
X63002485Y-47969711D01*
X63017182Y-47745480D01*
X63018869Y-47732659D01*
X63067367Y-47488845D01*
X63070714Y-47476352D01*
X63150618Y-47240965D01*
X63155574Y-47229003D01*
X63265512Y-47006070D01*
X63271983Y-46994859D01*
X63410089Y-46788169D01*
X63417964Y-46777907D01*
X63581870Y-46591008D01*
X63591008Y-46581870D01*
X63777907Y-46417964D01*
X63788169Y-46410089D01*
X63994859Y-46271983D01*
X64006070Y-46265512D01*
X64229003Y-46155574D01*
X64240966Y-46150618D01*
X64476352Y-46070714D01*
X64488845Y-46067367D01*
X64732659Y-46018869D01*
X64745480Y-46017182D01*
X64996766Y-46000712D01*
X65003241Y-46000500D01*
X65092710Y-46000500D01*
X158907290Y-46000500D01*
X158996759Y-46000500D01*
X159003234Y-46000712D01*
G37*
%TD.AperFunction*%
%TD*%
M02*
