%TF.GenerationSoftware,KiCad,Pcbnew,9.0.1*%
%TF.CreationDate,2025-12-29T16:13:27-06:00*%
%TF.ProjectId,opensync_prototype,6f70656e-7379-46e6-935f-70726f746f74,0.1*%
%TF.SameCoordinates,Original*%
%TF.FileFunction,Legend,Top*%
%TF.FilePolarity,Positive*%
%FSLAX46Y46*%
G04 Gerber Fmt 4.6, Leading zero omitted, Abs format (unit mm)*
G04 Created by KiCad (PCBNEW 9.0.1) date 2025-12-29 16:13:27*
%MOMM*%
%LPD*%
G01*
G04 APERTURE LIST*
%ADD10C,0.300000*%
%ADD11C,0.800000*%
%ADD12C,0.100000*%
%ADD13C,0.150000*%
%ADD14C,0.120000*%
%ADD15C,0.200000*%
%ADD16C,0.127000*%
%ADD17C,0.191421*%
%ADD18C,0.400000*%
G04 APERTURE END LIST*
D10*
X126854510Y-62000198D02*
X127354510Y-62000198D01*
X127568796Y-62785912D02*
X126854510Y-62785912D01*
X126854510Y-62785912D02*
X126854510Y-61285912D01*
X126854510Y-61285912D02*
X127568796Y-61285912D01*
X128211653Y-62785912D02*
X128211653Y-61785912D01*
X128211653Y-62071626D02*
X128283082Y-61928769D01*
X128283082Y-61928769D02*
X128354511Y-61857341D01*
X128354511Y-61857341D02*
X128497368Y-61785912D01*
X128497368Y-61785912D02*
X128640225Y-61785912D01*
X129140224Y-62785912D02*
X129140224Y-61785912D01*
X129140224Y-62071626D02*
X129211653Y-61928769D01*
X129211653Y-61928769D02*
X129283082Y-61857341D01*
X129283082Y-61857341D02*
X129425939Y-61785912D01*
X129425939Y-61785912D02*
X129568796Y-61785912D01*
X130283081Y-62785912D02*
X130140224Y-62714484D01*
X130140224Y-62714484D02*
X130068795Y-62643055D01*
X130068795Y-62643055D02*
X129997367Y-62500198D01*
X129997367Y-62500198D02*
X129997367Y-62071626D01*
X129997367Y-62071626D02*
X130068795Y-61928769D01*
X130068795Y-61928769D02*
X130140224Y-61857341D01*
X130140224Y-61857341D02*
X130283081Y-61785912D01*
X130283081Y-61785912D02*
X130497367Y-61785912D01*
X130497367Y-61785912D02*
X130640224Y-61857341D01*
X130640224Y-61857341D02*
X130711653Y-61928769D01*
X130711653Y-61928769D02*
X130783081Y-62071626D01*
X130783081Y-62071626D02*
X130783081Y-62500198D01*
X130783081Y-62500198D02*
X130711653Y-62643055D01*
X130711653Y-62643055D02*
X130640224Y-62714484D01*
X130640224Y-62714484D02*
X130497367Y-62785912D01*
X130497367Y-62785912D02*
X130283081Y-62785912D01*
X131425938Y-62785912D02*
X131425938Y-61785912D01*
X131425938Y-62071626D02*
X131497367Y-61928769D01*
X131497367Y-61928769D02*
X131568796Y-61857341D01*
X131568796Y-61857341D02*
X131711653Y-61785912D01*
X131711653Y-61785912D02*
X131854510Y-61785912D01*
X134211652Y-62785912D02*
X133497366Y-62785912D01*
X133497366Y-62785912D02*
X133497366Y-61285912D01*
X134711652Y-62000198D02*
X135211652Y-62000198D01*
X135425938Y-62785912D02*
X134711652Y-62785912D01*
X134711652Y-62785912D02*
X134711652Y-61285912D01*
X134711652Y-61285912D02*
X135425938Y-61285912D01*
X136068795Y-62785912D02*
X136068795Y-61285912D01*
X136068795Y-61285912D02*
X136425938Y-61285912D01*
X136425938Y-61285912D02*
X136640224Y-61357341D01*
X136640224Y-61357341D02*
X136783081Y-61500198D01*
X136783081Y-61500198D02*
X136854510Y-61643055D01*
X136854510Y-61643055D02*
X136925938Y-61928769D01*
X136925938Y-61928769D02*
X136925938Y-62143055D01*
X136925938Y-62143055D02*
X136854510Y-62428769D01*
X136854510Y-62428769D02*
X136783081Y-62571626D01*
X136783081Y-62571626D02*
X136640224Y-62714484D01*
X136640224Y-62714484D02*
X136425938Y-62785912D01*
X136425938Y-62785912D02*
X136068795Y-62785912D01*
X126854510Y-65200828D02*
X126854510Y-63700828D01*
X127568796Y-64200828D02*
X127568796Y-65200828D01*
X127568796Y-64343685D02*
X127640225Y-64272257D01*
X127640225Y-64272257D02*
X127783082Y-64200828D01*
X127783082Y-64200828D02*
X127997368Y-64200828D01*
X127997368Y-64200828D02*
X128140225Y-64272257D01*
X128140225Y-64272257D02*
X128211654Y-64415114D01*
X128211654Y-64415114D02*
X128211654Y-65200828D01*
X129568797Y-65200828D02*
X129568797Y-63700828D01*
X129568797Y-65129400D02*
X129425939Y-65200828D01*
X129425939Y-65200828D02*
X129140225Y-65200828D01*
X129140225Y-65200828D02*
X128997368Y-65129400D01*
X128997368Y-65129400D02*
X128925939Y-65057971D01*
X128925939Y-65057971D02*
X128854511Y-64915114D01*
X128854511Y-64915114D02*
X128854511Y-64486542D01*
X128854511Y-64486542D02*
X128925939Y-64343685D01*
X128925939Y-64343685D02*
X128997368Y-64272257D01*
X128997368Y-64272257D02*
X129140225Y-64200828D01*
X129140225Y-64200828D02*
X129425939Y-64200828D01*
X129425939Y-64200828D02*
X129568797Y-64272257D01*
X130283082Y-65200828D02*
X130283082Y-64200828D01*
X130283082Y-63700828D02*
X130211654Y-63772257D01*
X130211654Y-63772257D02*
X130283082Y-63843685D01*
X130283082Y-63843685D02*
X130354511Y-63772257D01*
X130354511Y-63772257D02*
X130283082Y-63700828D01*
X130283082Y-63700828D02*
X130283082Y-63843685D01*
X131640226Y-65129400D02*
X131497368Y-65200828D01*
X131497368Y-65200828D02*
X131211654Y-65200828D01*
X131211654Y-65200828D02*
X131068797Y-65129400D01*
X131068797Y-65129400D02*
X130997368Y-65057971D01*
X130997368Y-65057971D02*
X130925940Y-64915114D01*
X130925940Y-64915114D02*
X130925940Y-64486542D01*
X130925940Y-64486542D02*
X130997368Y-64343685D01*
X130997368Y-64343685D02*
X131068797Y-64272257D01*
X131068797Y-64272257D02*
X131211654Y-64200828D01*
X131211654Y-64200828D02*
X131497368Y-64200828D01*
X131497368Y-64200828D02*
X131640226Y-64272257D01*
X132925940Y-65200828D02*
X132925940Y-64415114D01*
X132925940Y-64415114D02*
X132854511Y-64272257D01*
X132854511Y-64272257D02*
X132711654Y-64200828D01*
X132711654Y-64200828D02*
X132425940Y-64200828D01*
X132425940Y-64200828D02*
X132283082Y-64272257D01*
X132925940Y-65129400D02*
X132783082Y-65200828D01*
X132783082Y-65200828D02*
X132425940Y-65200828D01*
X132425940Y-65200828D02*
X132283082Y-65129400D01*
X132283082Y-65129400D02*
X132211654Y-64986542D01*
X132211654Y-64986542D02*
X132211654Y-64843685D01*
X132211654Y-64843685D02*
X132283082Y-64700828D01*
X132283082Y-64700828D02*
X132425940Y-64629400D01*
X132425940Y-64629400D02*
X132783082Y-64629400D01*
X132783082Y-64629400D02*
X132925940Y-64557971D01*
X133425940Y-64200828D02*
X133997368Y-64200828D01*
X133640225Y-63700828D02*
X133640225Y-64986542D01*
X133640225Y-64986542D02*
X133711654Y-65129400D01*
X133711654Y-65129400D02*
X133854511Y-65200828D01*
X133854511Y-65200828D02*
X133997368Y-65200828D01*
X134711654Y-65200828D02*
X134568797Y-65129400D01*
X134568797Y-65129400D02*
X134497368Y-65057971D01*
X134497368Y-65057971D02*
X134425940Y-64915114D01*
X134425940Y-64915114D02*
X134425940Y-64486542D01*
X134425940Y-64486542D02*
X134497368Y-64343685D01*
X134497368Y-64343685D02*
X134568797Y-64272257D01*
X134568797Y-64272257D02*
X134711654Y-64200828D01*
X134711654Y-64200828D02*
X134925940Y-64200828D01*
X134925940Y-64200828D02*
X135068797Y-64272257D01*
X135068797Y-64272257D02*
X135140226Y-64343685D01*
X135140226Y-64343685D02*
X135211654Y-64486542D01*
X135211654Y-64486542D02*
X135211654Y-64915114D01*
X135211654Y-64915114D02*
X135140226Y-65057971D01*
X135140226Y-65057971D02*
X135068797Y-65129400D01*
X135068797Y-65129400D02*
X134925940Y-65200828D01*
X134925940Y-65200828D02*
X134711654Y-65200828D01*
X135854511Y-65200828D02*
X135854511Y-64200828D01*
X135854511Y-64486542D02*
X135925940Y-64343685D01*
X135925940Y-64343685D02*
X135997369Y-64272257D01*
X135997369Y-64272257D02*
X136140226Y-64200828D01*
X136140226Y-64200828D02*
X136283083Y-64200828D01*
D11*
X68340600Y-109629100D02*
X69102505Y-109629100D01*
X69102505Y-109629100D02*
X69483457Y-109819576D01*
X69483457Y-109819576D02*
X69864410Y-110200528D01*
X69864410Y-110200528D02*
X70054886Y-110962433D01*
X70054886Y-110962433D02*
X70054886Y-112295766D01*
X70054886Y-112295766D02*
X69864410Y-113057671D01*
X69864410Y-113057671D02*
X69483457Y-113438624D01*
X69483457Y-113438624D02*
X69102505Y-113629100D01*
X69102505Y-113629100D02*
X68340600Y-113629100D01*
X68340600Y-113629100D02*
X67959648Y-113438624D01*
X67959648Y-113438624D02*
X67578695Y-113057671D01*
X67578695Y-113057671D02*
X67388219Y-112295766D01*
X67388219Y-112295766D02*
X67388219Y-110962433D01*
X67388219Y-110962433D02*
X67578695Y-110200528D01*
X67578695Y-110200528D02*
X67959648Y-109819576D01*
X67959648Y-109819576D02*
X68340600Y-109629100D01*
X71769171Y-110962433D02*
X71769171Y-114962433D01*
X71769171Y-111152909D02*
X72150124Y-110962433D01*
X72150124Y-110962433D02*
X72912029Y-110962433D01*
X72912029Y-110962433D02*
X73292981Y-111152909D01*
X73292981Y-111152909D02*
X73483457Y-111343385D01*
X73483457Y-111343385D02*
X73673933Y-111724338D01*
X73673933Y-111724338D02*
X73673933Y-112867195D01*
X73673933Y-112867195D02*
X73483457Y-113248147D01*
X73483457Y-113248147D02*
X73292981Y-113438624D01*
X73292981Y-113438624D02*
X72912029Y-113629100D01*
X72912029Y-113629100D02*
X72150124Y-113629100D01*
X72150124Y-113629100D02*
X71769171Y-113438624D01*
X76912029Y-113438624D02*
X76531077Y-113629100D01*
X76531077Y-113629100D02*
X75769172Y-113629100D01*
X75769172Y-113629100D02*
X75388219Y-113438624D01*
X75388219Y-113438624D02*
X75197743Y-113057671D01*
X75197743Y-113057671D02*
X75197743Y-111533862D01*
X75197743Y-111533862D02*
X75388219Y-111152909D01*
X75388219Y-111152909D02*
X75769172Y-110962433D01*
X75769172Y-110962433D02*
X76531077Y-110962433D01*
X76531077Y-110962433D02*
X76912029Y-111152909D01*
X76912029Y-111152909D02*
X77102505Y-111533862D01*
X77102505Y-111533862D02*
X77102505Y-111914814D01*
X77102505Y-111914814D02*
X75197743Y-112295766D01*
X78816790Y-110962433D02*
X78816790Y-113629100D01*
X78816790Y-111343385D02*
X79007267Y-111152909D01*
X79007267Y-111152909D02*
X79388219Y-110962433D01*
X79388219Y-110962433D02*
X79959648Y-110962433D01*
X79959648Y-110962433D02*
X80340600Y-111152909D01*
X80340600Y-111152909D02*
X80531076Y-111533862D01*
X80531076Y-111533862D02*
X80531076Y-113629100D01*
X82435838Y-113629100D02*
X82435838Y-109629100D01*
X82435838Y-109629100D02*
X83959648Y-109629100D01*
X83959648Y-109629100D02*
X84340600Y-109819576D01*
X84340600Y-109819576D02*
X84531077Y-110010052D01*
X84531077Y-110010052D02*
X84721553Y-110391004D01*
X84721553Y-110391004D02*
X84721553Y-110962433D01*
X84721553Y-110962433D02*
X84531077Y-111343385D01*
X84531077Y-111343385D02*
X84340600Y-111533862D01*
X84340600Y-111533862D02*
X83959648Y-111724338D01*
X83959648Y-111724338D02*
X82435838Y-111724338D01*
X86435838Y-113629100D02*
X86435838Y-109629100D01*
X87769172Y-109629100D02*
X89102505Y-113629100D01*
X89102505Y-113629100D02*
X90435839Y-109629100D01*
X98054886Y-110581481D02*
X97673933Y-110391004D01*
X97673933Y-110391004D02*
X96912029Y-110391004D01*
X96912029Y-110391004D02*
X96531076Y-110581481D01*
X96531076Y-110581481D02*
X96150124Y-110962433D01*
X96150124Y-110962433D02*
X95959648Y-111343385D01*
X95959648Y-111343385D02*
X95959648Y-112105290D01*
X95959648Y-112105290D02*
X96150124Y-112486243D01*
X96150124Y-112486243D02*
X96531076Y-112867195D01*
X96531076Y-112867195D02*
X96912029Y-113057671D01*
X96912029Y-113057671D02*
X97673933Y-113057671D01*
X97673933Y-113057671D02*
X98054886Y-112867195D01*
X97292981Y-109057671D02*
X96340600Y-109248147D01*
X96340600Y-109248147D02*
X95388219Y-109819576D01*
X95388219Y-109819576D02*
X94816790Y-110771957D01*
X94816790Y-110771957D02*
X94626314Y-111724338D01*
X94626314Y-111724338D02*
X94816790Y-112676719D01*
X94816790Y-112676719D02*
X95388219Y-113629100D01*
X95388219Y-113629100D02*
X96340600Y-114200528D01*
X96340600Y-114200528D02*
X97292981Y-114391004D01*
X97292981Y-114391004D02*
X98245362Y-114200528D01*
X98245362Y-114200528D02*
X99197743Y-113629100D01*
X99197743Y-113629100D02*
X99769171Y-112676719D01*
X99769171Y-112676719D02*
X99959648Y-111724338D01*
X99959648Y-111724338D02*
X99769171Y-110771957D01*
X99769171Y-110771957D02*
X99197743Y-109819576D01*
X99197743Y-109819576D02*
X98245362Y-109248147D01*
X98245362Y-109248147D02*
X97292981Y-109057671D01*
X104531076Y-110010052D02*
X104721552Y-109819576D01*
X104721552Y-109819576D02*
X105102505Y-109629100D01*
X105102505Y-109629100D02*
X106054886Y-109629100D01*
X106054886Y-109629100D02*
X106435838Y-109819576D01*
X106435838Y-109819576D02*
X106626314Y-110010052D01*
X106626314Y-110010052D02*
X106816791Y-110391004D01*
X106816791Y-110391004D02*
X106816791Y-110771957D01*
X106816791Y-110771957D02*
X106626314Y-111343385D01*
X106626314Y-111343385D02*
X104340600Y-113629100D01*
X104340600Y-113629100D02*
X106816791Y-113629100D01*
X109292981Y-109629100D02*
X109673934Y-109629100D01*
X109673934Y-109629100D02*
X110054886Y-109819576D01*
X110054886Y-109819576D02*
X110245362Y-110010052D01*
X110245362Y-110010052D02*
X110435838Y-110391004D01*
X110435838Y-110391004D02*
X110626315Y-111152909D01*
X110626315Y-111152909D02*
X110626315Y-112105290D01*
X110626315Y-112105290D02*
X110435838Y-112867195D01*
X110435838Y-112867195D02*
X110245362Y-113248147D01*
X110245362Y-113248147D02*
X110054886Y-113438624D01*
X110054886Y-113438624D02*
X109673934Y-113629100D01*
X109673934Y-113629100D02*
X109292981Y-113629100D01*
X109292981Y-113629100D02*
X108912029Y-113438624D01*
X108912029Y-113438624D02*
X108721553Y-113248147D01*
X108721553Y-113248147D02*
X108531076Y-112867195D01*
X108531076Y-112867195D02*
X108340600Y-112105290D01*
X108340600Y-112105290D02*
X108340600Y-111152909D01*
X108340600Y-111152909D02*
X108531076Y-110391004D01*
X108531076Y-110391004D02*
X108721553Y-110010052D01*
X108721553Y-110010052D02*
X108912029Y-109819576D01*
X108912029Y-109819576D02*
X109292981Y-109629100D01*
X112150124Y-110010052D02*
X112340600Y-109819576D01*
X112340600Y-109819576D02*
X112721553Y-109629100D01*
X112721553Y-109629100D02*
X113673934Y-109629100D01*
X113673934Y-109629100D02*
X114054886Y-109819576D01*
X114054886Y-109819576D02*
X114245362Y-110010052D01*
X114245362Y-110010052D02*
X114435839Y-110391004D01*
X114435839Y-110391004D02*
X114435839Y-110771957D01*
X114435839Y-110771957D02*
X114245362Y-111343385D01*
X114245362Y-111343385D02*
X111959648Y-113629100D01*
X111959648Y-113629100D02*
X114435839Y-113629100D01*
X118054886Y-109629100D02*
X116150124Y-109629100D01*
X116150124Y-109629100D02*
X115959648Y-111533862D01*
X115959648Y-111533862D02*
X116150124Y-111343385D01*
X116150124Y-111343385D02*
X116531077Y-111152909D01*
X116531077Y-111152909D02*
X117483458Y-111152909D01*
X117483458Y-111152909D02*
X117864410Y-111343385D01*
X117864410Y-111343385D02*
X118054886Y-111533862D01*
X118054886Y-111533862D02*
X118245363Y-111914814D01*
X118245363Y-111914814D02*
X118245363Y-112867195D01*
X118245363Y-112867195D02*
X118054886Y-113248147D01*
X118054886Y-113248147D02*
X117864410Y-113438624D01*
X117864410Y-113438624D02*
X117483458Y-113629100D01*
X117483458Y-113629100D02*
X116531077Y-113629100D01*
X116531077Y-113629100D02*
X116150124Y-113438624D01*
X116150124Y-113438624D02*
X115959648Y-113248147D01*
X68340600Y-116068876D02*
X69102505Y-116068876D01*
X69102505Y-116068876D02*
X69483457Y-116259352D01*
X69483457Y-116259352D02*
X69864410Y-116640304D01*
X69864410Y-116640304D02*
X70054886Y-117402209D01*
X70054886Y-117402209D02*
X70054886Y-118735542D01*
X70054886Y-118735542D02*
X69864410Y-119497447D01*
X69864410Y-119497447D02*
X69483457Y-119878400D01*
X69483457Y-119878400D02*
X69102505Y-120068876D01*
X69102505Y-120068876D02*
X68340600Y-120068876D01*
X68340600Y-120068876D02*
X67959648Y-119878400D01*
X67959648Y-119878400D02*
X67578695Y-119497447D01*
X67578695Y-119497447D02*
X67388219Y-118735542D01*
X67388219Y-118735542D02*
X67388219Y-117402209D01*
X67388219Y-117402209D02*
X67578695Y-116640304D01*
X67578695Y-116640304D02*
X67959648Y-116259352D01*
X67959648Y-116259352D02*
X68340600Y-116068876D01*
X71769171Y-117402209D02*
X71769171Y-121402209D01*
X71769171Y-117592685D02*
X72150124Y-117402209D01*
X72150124Y-117402209D02*
X72912029Y-117402209D01*
X72912029Y-117402209D02*
X73292981Y-117592685D01*
X73292981Y-117592685D02*
X73483457Y-117783161D01*
X73483457Y-117783161D02*
X73673933Y-118164114D01*
X73673933Y-118164114D02*
X73673933Y-119306971D01*
X73673933Y-119306971D02*
X73483457Y-119687923D01*
X73483457Y-119687923D02*
X73292981Y-119878400D01*
X73292981Y-119878400D02*
X72912029Y-120068876D01*
X72912029Y-120068876D02*
X72150124Y-120068876D01*
X72150124Y-120068876D02*
X71769171Y-119878400D01*
X76912029Y-119878400D02*
X76531077Y-120068876D01*
X76531077Y-120068876D02*
X75769172Y-120068876D01*
X75769172Y-120068876D02*
X75388219Y-119878400D01*
X75388219Y-119878400D02*
X75197743Y-119497447D01*
X75197743Y-119497447D02*
X75197743Y-117973638D01*
X75197743Y-117973638D02*
X75388219Y-117592685D01*
X75388219Y-117592685D02*
X75769172Y-117402209D01*
X75769172Y-117402209D02*
X76531077Y-117402209D01*
X76531077Y-117402209D02*
X76912029Y-117592685D01*
X76912029Y-117592685D02*
X77102505Y-117973638D01*
X77102505Y-117973638D02*
X77102505Y-118354590D01*
X77102505Y-118354590D02*
X75197743Y-118735542D01*
X78816790Y-117402209D02*
X78816790Y-120068876D01*
X78816790Y-117783161D02*
X79007267Y-117592685D01*
X79007267Y-117592685D02*
X79388219Y-117402209D01*
X79388219Y-117402209D02*
X79959648Y-117402209D01*
X79959648Y-117402209D02*
X80340600Y-117592685D01*
X80340600Y-117592685D02*
X80531076Y-117973638D01*
X80531076Y-117973638D02*
X80531076Y-120068876D01*
X82245362Y-119878400D02*
X82816791Y-120068876D01*
X82816791Y-120068876D02*
X83769172Y-120068876D01*
X83769172Y-120068876D02*
X84150124Y-119878400D01*
X84150124Y-119878400D02*
X84340600Y-119687923D01*
X84340600Y-119687923D02*
X84531077Y-119306971D01*
X84531077Y-119306971D02*
X84531077Y-118926019D01*
X84531077Y-118926019D02*
X84340600Y-118545066D01*
X84340600Y-118545066D02*
X84150124Y-118354590D01*
X84150124Y-118354590D02*
X83769172Y-118164114D01*
X83769172Y-118164114D02*
X83007267Y-117973638D01*
X83007267Y-117973638D02*
X82626315Y-117783161D01*
X82626315Y-117783161D02*
X82435838Y-117592685D01*
X82435838Y-117592685D02*
X82245362Y-117211733D01*
X82245362Y-117211733D02*
X82245362Y-116830780D01*
X82245362Y-116830780D02*
X82435838Y-116449828D01*
X82435838Y-116449828D02*
X82626315Y-116259352D01*
X82626315Y-116259352D02*
X83007267Y-116068876D01*
X83007267Y-116068876D02*
X83959648Y-116068876D01*
X83959648Y-116068876D02*
X84531077Y-116259352D01*
X85864410Y-117402209D02*
X86816791Y-120068876D01*
X87769172Y-117402209D02*
X86816791Y-120068876D01*
X86816791Y-120068876D02*
X86435839Y-121021257D01*
X86435839Y-121021257D02*
X86245362Y-121211733D01*
X86245362Y-121211733D02*
X85864410Y-121402209D01*
X89292981Y-117402209D02*
X89292981Y-120068876D01*
X89292981Y-117783161D02*
X89483458Y-117592685D01*
X89483458Y-117592685D02*
X89864410Y-117402209D01*
X89864410Y-117402209D02*
X90435839Y-117402209D01*
X90435839Y-117402209D02*
X90816791Y-117592685D01*
X90816791Y-117592685D02*
X91007267Y-117973638D01*
X91007267Y-117973638D02*
X91007267Y-120068876D01*
X94626315Y-119878400D02*
X94245363Y-120068876D01*
X94245363Y-120068876D02*
X93483458Y-120068876D01*
X93483458Y-120068876D02*
X93102506Y-119878400D01*
X93102506Y-119878400D02*
X92912029Y-119687923D01*
X92912029Y-119687923D02*
X92721553Y-119306971D01*
X92721553Y-119306971D02*
X92721553Y-118164114D01*
X92721553Y-118164114D02*
X92912029Y-117783161D01*
X92912029Y-117783161D02*
X93102506Y-117592685D01*
X93102506Y-117592685D02*
X93483458Y-117402209D01*
X93483458Y-117402209D02*
X94245363Y-117402209D01*
X94245363Y-117402209D02*
X94626315Y-117592685D01*
X99007267Y-117402209D02*
X99959648Y-120068876D01*
X99959648Y-120068876D02*
X100912029Y-117402209D01*
X103197743Y-116068876D02*
X103578696Y-116068876D01*
X103578696Y-116068876D02*
X103959648Y-116259352D01*
X103959648Y-116259352D02*
X104150124Y-116449828D01*
X104150124Y-116449828D02*
X104340600Y-116830780D01*
X104340600Y-116830780D02*
X104531077Y-117592685D01*
X104531077Y-117592685D02*
X104531077Y-118545066D01*
X104531077Y-118545066D02*
X104340600Y-119306971D01*
X104340600Y-119306971D02*
X104150124Y-119687923D01*
X104150124Y-119687923D02*
X103959648Y-119878400D01*
X103959648Y-119878400D02*
X103578696Y-120068876D01*
X103578696Y-120068876D02*
X103197743Y-120068876D01*
X103197743Y-120068876D02*
X102816791Y-119878400D01*
X102816791Y-119878400D02*
X102626315Y-119687923D01*
X102626315Y-119687923D02*
X102435838Y-119306971D01*
X102435838Y-119306971D02*
X102245362Y-118545066D01*
X102245362Y-118545066D02*
X102245362Y-117592685D01*
X102245362Y-117592685D02*
X102435838Y-116830780D01*
X102435838Y-116830780D02*
X102626315Y-116449828D01*
X102626315Y-116449828D02*
X102816791Y-116259352D01*
X102816791Y-116259352D02*
X103197743Y-116068876D01*
X106245362Y-119687923D02*
X106435839Y-119878400D01*
X106435839Y-119878400D02*
X106245362Y-120068876D01*
X106245362Y-120068876D02*
X106054886Y-119878400D01*
X106054886Y-119878400D02*
X106245362Y-119687923D01*
X106245362Y-119687923D02*
X106245362Y-120068876D01*
X110245363Y-120068876D02*
X107959648Y-120068876D01*
X109102505Y-120068876D02*
X109102505Y-116068876D01*
X109102505Y-116068876D02*
X108721553Y-116640304D01*
X108721553Y-116640304D02*
X108340601Y-117021257D01*
X108340601Y-117021257D02*
X107959648Y-117211733D01*
D12*
X92841979Y-73250038D02*
X92841979Y-71250038D01*
X92841979Y-71250038D02*
X93603884Y-71250038D01*
X93603884Y-71250038D02*
X93794360Y-71345276D01*
X93794360Y-71345276D02*
X93889598Y-71440514D01*
X93889598Y-71440514D02*
X93984836Y-71630990D01*
X93984836Y-71630990D02*
X93984836Y-71916704D01*
X93984836Y-71916704D02*
X93889598Y-72107180D01*
X93889598Y-72107180D02*
X93794360Y-72202419D01*
X93794360Y-72202419D02*
X93603884Y-72297657D01*
X93603884Y-72297657D02*
X92841979Y-72297657D01*
X94651503Y-71250038D02*
X95127693Y-73250038D01*
X95127693Y-73250038D02*
X95508646Y-71821466D01*
X95508646Y-71821466D02*
X95889598Y-73250038D01*
X95889598Y-73250038D02*
X96365789Y-71250038D01*
X98270550Y-73250038D02*
X97603883Y-72297657D01*
X97127693Y-73250038D02*
X97127693Y-71250038D01*
X97127693Y-71250038D02*
X97889598Y-71250038D01*
X97889598Y-71250038D02*
X98080074Y-71345276D01*
X98080074Y-71345276D02*
X98175312Y-71440514D01*
X98175312Y-71440514D02*
X98270550Y-71630990D01*
X98270550Y-71630990D02*
X98270550Y-71916704D01*
X98270550Y-71916704D02*
X98175312Y-72107180D01*
X98175312Y-72107180D02*
X98080074Y-72202419D01*
X98080074Y-72202419D02*
X97889598Y-72297657D01*
X97889598Y-72297657D02*
X97127693Y-72297657D01*
X100651503Y-73250038D02*
X100651503Y-71250038D01*
X101508646Y-73154800D02*
X101794360Y-73250038D01*
X101794360Y-73250038D02*
X102270551Y-73250038D01*
X102270551Y-73250038D02*
X102461027Y-73154800D01*
X102461027Y-73154800D02*
X102556265Y-73059561D01*
X102556265Y-73059561D02*
X102651503Y-72869085D01*
X102651503Y-72869085D02*
X102651503Y-72678609D01*
X102651503Y-72678609D02*
X102556265Y-72488133D01*
X102556265Y-72488133D02*
X102461027Y-72392895D01*
X102461027Y-72392895D02*
X102270551Y-72297657D01*
X102270551Y-72297657D02*
X101889598Y-72202419D01*
X101889598Y-72202419D02*
X101699122Y-72107180D01*
X101699122Y-72107180D02*
X101603884Y-72011942D01*
X101603884Y-72011942D02*
X101508646Y-71821466D01*
X101508646Y-71821466D02*
X101508646Y-71630990D01*
X101508646Y-71630990D02*
X101603884Y-71440514D01*
X101603884Y-71440514D02*
X101699122Y-71345276D01*
X101699122Y-71345276D02*
X101889598Y-71250038D01*
X101889598Y-71250038D02*
X102365789Y-71250038D01*
X102365789Y-71250038D02*
X102651503Y-71345276D01*
X103889598Y-71250038D02*
X104270551Y-71250038D01*
X104270551Y-71250038D02*
X104461027Y-71345276D01*
X104461027Y-71345276D02*
X104651503Y-71535752D01*
X104651503Y-71535752D02*
X104746741Y-71916704D01*
X104746741Y-71916704D02*
X104746741Y-72583371D01*
X104746741Y-72583371D02*
X104651503Y-72964323D01*
X104651503Y-72964323D02*
X104461027Y-73154800D01*
X104461027Y-73154800D02*
X104270551Y-73250038D01*
X104270551Y-73250038D02*
X103889598Y-73250038D01*
X103889598Y-73250038D02*
X103699122Y-73154800D01*
X103699122Y-73154800D02*
X103508646Y-72964323D01*
X103508646Y-72964323D02*
X103413408Y-72583371D01*
X103413408Y-72583371D02*
X103413408Y-71916704D01*
X103413408Y-71916704D02*
X103508646Y-71535752D01*
X103508646Y-71535752D02*
X103699122Y-71345276D01*
X103699122Y-71345276D02*
X103889598Y-71250038D01*
X106556265Y-73250038D02*
X105603884Y-73250038D01*
X105603884Y-73250038D02*
X105603884Y-71250038D01*
X107127694Y-72678609D02*
X108080075Y-72678609D01*
X106937218Y-73250038D02*
X107603884Y-71250038D01*
X107603884Y-71250038D02*
X108270551Y-73250038D01*
X108651504Y-71250038D02*
X109794361Y-71250038D01*
X109222932Y-73250038D02*
X109222932Y-71250038D01*
X110461028Y-73250038D02*
X110461028Y-71250038D01*
X111794361Y-71250038D02*
X112175314Y-71250038D01*
X112175314Y-71250038D02*
X112365790Y-71345276D01*
X112365790Y-71345276D02*
X112556266Y-71535752D01*
X112556266Y-71535752D02*
X112651504Y-71916704D01*
X112651504Y-71916704D02*
X112651504Y-72583371D01*
X112651504Y-72583371D02*
X112556266Y-72964323D01*
X112556266Y-72964323D02*
X112365790Y-73154800D01*
X112365790Y-73154800D02*
X112175314Y-73250038D01*
X112175314Y-73250038D02*
X111794361Y-73250038D01*
X111794361Y-73250038D02*
X111603885Y-73154800D01*
X111603885Y-73154800D02*
X111413409Y-72964323D01*
X111413409Y-72964323D02*
X111318171Y-72583371D01*
X111318171Y-72583371D02*
X111318171Y-71916704D01*
X111318171Y-71916704D02*
X111413409Y-71535752D01*
X111413409Y-71535752D02*
X111603885Y-71345276D01*
X111603885Y-71345276D02*
X111794361Y-71250038D01*
X113508647Y-73250038D02*
X113508647Y-71250038D01*
X113508647Y-71250038D02*
X114651504Y-73250038D01*
X114651504Y-73250038D02*
X114651504Y-71250038D01*
X97208646Y-79572419D02*
X97827693Y-79572419D01*
X97827693Y-79572419D02*
X97494360Y-79953371D01*
X97494360Y-79953371D02*
X97637217Y-79953371D01*
X97637217Y-79953371D02*
X97732455Y-80000990D01*
X97732455Y-80000990D02*
X97780074Y-80048609D01*
X97780074Y-80048609D02*
X97827693Y-80143847D01*
X97827693Y-80143847D02*
X97827693Y-80381942D01*
X97827693Y-80381942D02*
X97780074Y-80477180D01*
X97780074Y-80477180D02*
X97732455Y-80524800D01*
X97732455Y-80524800D02*
X97637217Y-80572419D01*
X97637217Y-80572419D02*
X97351503Y-80572419D01*
X97351503Y-80572419D02*
X97256265Y-80524800D01*
X97256265Y-80524800D02*
X97208646Y-80477180D01*
X98113408Y-79572419D02*
X98446741Y-80572419D01*
X98446741Y-80572419D02*
X98780074Y-79572419D01*
X99018170Y-79572419D02*
X99637217Y-79572419D01*
X99637217Y-79572419D02*
X99303884Y-79953371D01*
X99303884Y-79953371D02*
X99446741Y-79953371D01*
X99446741Y-79953371D02*
X99541979Y-80000990D01*
X99541979Y-80000990D02*
X99589598Y-80048609D01*
X99589598Y-80048609D02*
X99637217Y-80143847D01*
X99637217Y-80143847D02*
X99637217Y-80381942D01*
X99637217Y-80381942D02*
X99589598Y-80477180D01*
X99589598Y-80477180D02*
X99541979Y-80524800D01*
X99541979Y-80524800D02*
X99446741Y-80572419D01*
X99446741Y-80572419D02*
X99161027Y-80572419D01*
X99161027Y-80572419D02*
X99065789Y-80524800D01*
X99065789Y-80524800D02*
X99018170Y-80477180D01*
D10*
X134378320Y-121044400D02*
X134664034Y-121139638D01*
X134664034Y-121139638D02*
X135140225Y-121139638D01*
X135140225Y-121139638D02*
X135330701Y-121044400D01*
X135330701Y-121044400D02*
X135425939Y-120949161D01*
X135425939Y-120949161D02*
X135521177Y-120758685D01*
X135521177Y-120758685D02*
X135521177Y-120568209D01*
X135521177Y-120568209D02*
X135425939Y-120377733D01*
X135425939Y-120377733D02*
X135330701Y-120282495D01*
X135330701Y-120282495D02*
X135140225Y-120187257D01*
X135140225Y-120187257D02*
X134759272Y-120092019D01*
X134759272Y-120092019D02*
X134568796Y-119996780D01*
X134568796Y-119996780D02*
X134473558Y-119901542D01*
X134473558Y-119901542D02*
X134378320Y-119711066D01*
X134378320Y-119711066D02*
X134378320Y-119520590D01*
X134378320Y-119520590D02*
X134473558Y-119330114D01*
X134473558Y-119330114D02*
X134568796Y-119234876D01*
X134568796Y-119234876D02*
X134759272Y-119139638D01*
X134759272Y-119139638D02*
X135235463Y-119139638D01*
X135235463Y-119139638D02*
X135521177Y-119234876D01*
X136187844Y-119139638D02*
X136664034Y-121139638D01*
X136664034Y-121139638D02*
X137044987Y-119711066D01*
X137044987Y-119711066D02*
X137425939Y-121139638D01*
X137425939Y-121139638D02*
X137902130Y-119139638D01*
X138664034Y-121139638D02*
X138664034Y-119139638D01*
X138664034Y-119139638D02*
X139140224Y-119139638D01*
X139140224Y-119139638D02*
X139425939Y-119234876D01*
X139425939Y-119234876D02*
X139616415Y-119425352D01*
X139616415Y-119425352D02*
X139711653Y-119615828D01*
X139711653Y-119615828D02*
X139806891Y-119996780D01*
X139806891Y-119996780D02*
X139806891Y-120282495D01*
X139806891Y-120282495D02*
X139711653Y-120663447D01*
X139711653Y-120663447D02*
X139616415Y-120853923D01*
X139616415Y-120853923D02*
X139425939Y-121044400D01*
X139425939Y-121044400D02*
X139140224Y-121139638D01*
X139140224Y-121139638D02*
X138664034Y-121139638D01*
D12*
X97280074Y-77072419D02*
X96803884Y-77072419D01*
X96803884Y-77072419D02*
X96756265Y-77548609D01*
X96756265Y-77548609D02*
X96803884Y-77500990D01*
X96803884Y-77500990D02*
X96899122Y-77453371D01*
X96899122Y-77453371D02*
X97137217Y-77453371D01*
X97137217Y-77453371D02*
X97232455Y-77500990D01*
X97232455Y-77500990D02*
X97280074Y-77548609D01*
X97280074Y-77548609D02*
X97327693Y-77643847D01*
X97327693Y-77643847D02*
X97327693Y-77881942D01*
X97327693Y-77881942D02*
X97280074Y-77977180D01*
X97280074Y-77977180D02*
X97232455Y-78024800D01*
X97232455Y-78024800D02*
X97137217Y-78072419D01*
X97137217Y-78072419D02*
X96899122Y-78072419D01*
X96899122Y-78072419D02*
X96803884Y-78024800D01*
X96803884Y-78024800D02*
X96756265Y-77977180D01*
X97613408Y-77072419D02*
X97946741Y-78072419D01*
X97946741Y-78072419D02*
X98280074Y-77072419D01*
D10*
X67040225Y-95792019D02*
X67325939Y-95887257D01*
X67325939Y-95887257D02*
X67421177Y-95982495D01*
X67421177Y-95982495D02*
X67516415Y-96172971D01*
X67516415Y-96172971D02*
X67516415Y-96458685D01*
X67516415Y-96458685D02*
X67421177Y-96649161D01*
X67421177Y-96649161D02*
X67325939Y-96744400D01*
X67325939Y-96744400D02*
X67135463Y-96839638D01*
X67135463Y-96839638D02*
X66373558Y-96839638D01*
X66373558Y-96839638D02*
X66373558Y-94839638D01*
X66373558Y-94839638D02*
X67040225Y-94839638D01*
X67040225Y-94839638D02*
X67230701Y-94934876D01*
X67230701Y-94934876D02*
X67325939Y-95030114D01*
X67325939Y-95030114D02*
X67421177Y-95220590D01*
X67421177Y-95220590D02*
X67421177Y-95411066D01*
X67421177Y-95411066D02*
X67325939Y-95601542D01*
X67325939Y-95601542D02*
X67230701Y-95696780D01*
X67230701Y-95696780D02*
X67040225Y-95792019D01*
X67040225Y-95792019D02*
X66373558Y-95792019D01*
X68659272Y-96839638D02*
X68468796Y-96744400D01*
X68468796Y-96744400D02*
X68373558Y-96649161D01*
X68373558Y-96649161D02*
X68278320Y-96458685D01*
X68278320Y-96458685D02*
X68278320Y-95887257D01*
X68278320Y-95887257D02*
X68373558Y-95696780D01*
X68373558Y-95696780D02*
X68468796Y-95601542D01*
X68468796Y-95601542D02*
X68659272Y-95506304D01*
X68659272Y-95506304D02*
X68944987Y-95506304D01*
X68944987Y-95506304D02*
X69135463Y-95601542D01*
X69135463Y-95601542D02*
X69230701Y-95696780D01*
X69230701Y-95696780D02*
X69325939Y-95887257D01*
X69325939Y-95887257D02*
X69325939Y-96458685D01*
X69325939Y-96458685D02*
X69230701Y-96649161D01*
X69230701Y-96649161D02*
X69135463Y-96744400D01*
X69135463Y-96744400D02*
X68944987Y-96839638D01*
X68944987Y-96839638D02*
X68659272Y-96839638D01*
X70468796Y-96839638D02*
X70278320Y-96744400D01*
X70278320Y-96744400D02*
X70183082Y-96649161D01*
X70183082Y-96649161D02*
X70087844Y-96458685D01*
X70087844Y-96458685D02*
X70087844Y-95887257D01*
X70087844Y-95887257D02*
X70183082Y-95696780D01*
X70183082Y-95696780D02*
X70278320Y-95601542D01*
X70278320Y-95601542D02*
X70468796Y-95506304D01*
X70468796Y-95506304D02*
X70754511Y-95506304D01*
X70754511Y-95506304D02*
X70944987Y-95601542D01*
X70944987Y-95601542D02*
X71040225Y-95696780D01*
X71040225Y-95696780D02*
X71135463Y-95887257D01*
X71135463Y-95887257D02*
X71135463Y-96458685D01*
X71135463Y-96458685D02*
X71040225Y-96649161D01*
X71040225Y-96649161D02*
X70944987Y-96744400D01*
X70944987Y-96744400D02*
X70754511Y-96839638D01*
X70754511Y-96839638D02*
X70468796Y-96839638D01*
X71706892Y-95506304D02*
X72468796Y-95506304D01*
X71992606Y-94839638D02*
X71992606Y-96553923D01*
X71992606Y-96553923D02*
X72087844Y-96744400D01*
X72087844Y-96744400D02*
X72278320Y-96839638D01*
X72278320Y-96839638D02*
X72468796Y-96839638D01*
X74564035Y-96744400D02*
X74849749Y-96839638D01*
X74849749Y-96839638D02*
X75325940Y-96839638D01*
X75325940Y-96839638D02*
X75516416Y-96744400D01*
X75516416Y-96744400D02*
X75611654Y-96649161D01*
X75611654Y-96649161D02*
X75706892Y-96458685D01*
X75706892Y-96458685D02*
X75706892Y-96268209D01*
X75706892Y-96268209D02*
X75611654Y-96077733D01*
X75611654Y-96077733D02*
X75516416Y-95982495D01*
X75516416Y-95982495D02*
X75325940Y-95887257D01*
X75325940Y-95887257D02*
X74944987Y-95792019D01*
X74944987Y-95792019D02*
X74754511Y-95696780D01*
X74754511Y-95696780D02*
X74659273Y-95601542D01*
X74659273Y-95601542D02*
X74564035Y-95411066D01*
X74564035Y-95411066D02*
X74564035Y-95220590D01*
X74564035Y-95220590D02*
X74659273Y-95030114D01*
X74659273Y-95030114D02*
X74754511Y-94934876D01*
X74754511Y-94934876D02*
X74944987Y-94839638D01*
X74944987Y-94839638D02*
X75421178Y-94839638D01*
X75421178Y-94839638D02*
X75706892Y-94934876D01*
X77325940Y-96744400D02*
X77135464Y-96839638D01*
X77135464Y-96839638D02*
X76754511Y-96839638D01*
X76754511Y-96839638D02*
X76564035Y-96744400D01*
X76564035Y-96744400D02*
X76468797Y-96553923D01*
X76468797Y-96553923D02*
X76468797Y-95792019D01*
X76468797Y-95792019D02*
X76564035Y-95601542D01*
X76564035Y-95601542D02*
X76754511Y-95506304D01*
X76754511Y-95506304D02*
X77135464Y-95506304D01*
X77135464Y-95506304D02*
X77325940Y-95601542D01*
X77325940Y-95601542D02*
X77421178Y-95792019D01*
X77421178Y-95792019D02*
X77421178Y-95982495D01*
X77421178Y-95982495D02*
X76468797Y-96172971D01*
X78564035Y-96839638D02*
X78373559Y-96744400D01*
X78373559Y-96744400D02*
X78278321Y-96553923D01*
X78278321Y-96553923D02*
X78278321Y-94839638D01*
X142754510Y-62685912D02*
X142754510Y-61185912D01*
X142754510Y-61185912D02*
X143325939Y-61185912D01*
X143325939Y-61185912D02*
X143468796Y-61257341D01*
X143468796Y-61257341D02*
X143540225Y-61328769D01*
X143540225Y-61328769D02*
X143611653Y-61471626D01*
X143611653Y-61471626D02*
X143611653Y-61685912D01*
X143611653Y-61685912D02*
X143540225Y-61828769D01*
X143540225Y-61828769D02*
X143468796Y-61900198D01*
X143468796Y-61900198D02*
X143325939Y-61971626D01*
X143325939Y-61971626D02*
X142754510Y-61971626D01*
X144468796Y-62685912D02*
X144325939Y-62614484D01*
X144325939Y-62614484D02*
X144254510Y-62543055D01*
X144254510Y-62543055D02*
X144183082Y-62400198D01*
X144183082Y-62400198D02*
X144183082Y-61971626D01*
X144183082Y-61971626D02*
X144254510Y-61828769D01*
X144254510Y-61828769D02*
X144325939Y-61757341D01*
X144325939Y-61757341D02*
X144468796Y-61685912D01*
X144468796Y-61685912D02*
X144683082Y-61685912D01*
X144683082Y-61685912D02*
X144825939Y-61757341D01*
X144825939Y-61757341D02*
X144897368Y-61828769D01*
X144897368Y-61828769D02*
X144968796Y-61971626D01*
X144968796Y-61971626D02*
X144968796Y-62400198D01*
X144968796Y-62400198D02*
X144897368Y-62543055D01*
X144897368Y-62543055D02*
X144825939Y-62614484D01*
X144825939Y-62614484D02*
X144683082Y-62685912D01*
X144683082Y-62685912D02*
X144468796Y-62685912D01*
X145468796Y-61685912D02*
X145754511Y-62685912D01*
X145754511Y-62685912D02*
X146040225Y-61971626D01*
X146040225Y-61971626D02*
X146325939Y-62685912D01*
X146325939Y-62685912D02*
X146611653Y-61685912D01*
X147754511Y-62614484D02*
X147611654Y-62685912D01*
X147611654Y-62685912D02*
X147325940Y-62685912D01*
X147325940Y-62685912D02*
X147183082Y-62614484D01*
X147183082Y-62614484D02*
X147111654Y-62471626D01*
X147111654Y-62471626D02*
X147111654Y-61900198D01*
X147111654Y-61900198D02*
X147183082Y-61757341D01*
X147183082Y-61757341D02*
X147325940Y-61685912D01*
X147325940Y-61685912D02*
X147611654Y-61685912D01*
X147611654Y-61685912D02*
X147754511Y-61757341D01*
X147754511Y-61757341D02*
X147825940Y-61900198D01*
X147825940Y-61900198D02*
X147825940Y-62043055D01*
X147825940Y-62043055D02*
X147111654Y-62185912D01*
X148468796Y-62685912D02*
X148468796Y-61685912D01*
X148468796Y-61971626D02*
X148540225Y-61828769D01*
X148540225Y-61828769D02*
X148611654Y-61757341D01*
X148611654Y-61757341D02*
X148754511Y-61685912D01*
X148754511Y-61685912D02*
X148897368Y-61685912D01*
X151254510Y-62685912D02*
X150540224Y-62685912D01*
X150540224Y-62685912D02*
X150540224Y-61185912D01*
X151754510Y-61900198D02*
X152254510Y-61900198D01*
X152468796Y-62685912D02*
X151754510Y-62685912D01*
X151754510Y-62685912D02*
X151754510Y-61185912D01*
X151754510Y-61185912D02*
X152468796Y-61185912D01*
X153111653Y-62685912D02*
X153111653Y-61185912D01*
X153111653Y-61185912D02*
X153468796Y-61185912D01*
X153468796Y-61185912D02*
X153683082Y-61257341D01*
X153683082Y-61257341D02*
X153825939Y-61400198D01*
X153825939Y-61400198D02*
X153897368Y-61543055D01*
X153897368Y-61543055D02*
X153968796Y-61828769D01*
X153968796Y-61828769D02*
X153968796Y-62043055D01*
X153968796Y-62043055D02*
X153897368Y-62328769D01*
X153897368Y-62328769D02*
X153825939Y-62471626D01*
X153825939Y-62471626D02*
X153683082Y-62614484D01*
X153683082Y-62614484D02*
X153468796Y-62685912D01*
X153468796Y-62685912D02*
X153111653Y-62685912D01*
X142754510Y-65100828D02*
X142754510Y-63600828D01*
X143468796Y-64100828D02*
X143468796Y-65100828D01*
X143468796Y-64243685D02*
X143540225Y-64172257D01*
X143540225Y-64172257D02*
X143683082Y-64100828D01*
X143683082Y-64100828D02*
X143897368Y-64100828D01*
X143897368Y-64100828D02*
X144040225Y-64172257D01*
X144040225Y-64172257D02*
X144111654Y-64315114D01*
X144111654Y-64315114D02*
X144111654Y-65100828D01*
X145468797Y-65100828D02*
X145468797Y-63600828D01*
X145468797Y-65029400D02*
X145325939Y-65100828D01*
X145325939Y-65100828D02*
X145040225Y-65100828D01*
X145040225Y-65100828D02*
X144897368Y-65029400D01*
X144897368Y-65029400D02*
X144825939Y-64957971D01*
X144825939Y-64957971D02*
X144754511Y-64815114D01*
X144754511Y-64815114D02*
X144754511Y-64386542D01*
X144754511Y-64386542D02*
X144825939Y-64243685D01*
X144825939Y-64243685D02*
X144897368Y-64172257D01*
X144897368Y-64172257D02*
X145040225Y-64100828D01*
X145040225Y-64100828D02*
X145325939Y-64100828D01*
X145325939Y-64100828D02*
X145468797Y-64172257D01*
X146183082Y-65100828D02*
X146183082Y-64100828D01*
X146183082Y-63600828D02*
X146111654Y-63672257D01*
X146111654Y-63672257D02*
X146183082Y-63743685D01*
X146183082Y-63743685D02*
X146254511Y-63672257D01*
X146254511Y-63672257D02*
X146183082Y-63600828D01*
X146183082Y-63600828D02*
X146183082Y-63743685D01*
X147540226Y-65029400D02*
X147397368Y-65100828D01*
X147397368Y-65100828D02*
X147111654Y-65100828D01*
X147111654Y-65100828D02*
X146968797Y-65029400D01*
X146968797Y-65029400D02*
X146897368Y-64957971D01*
X146897368Y-64957971D02*
X146825940Y-64815114D01*
X146825940Y-64815114D02*
X146825940Y-64386542D01*
X146825940Y-64386542D02*
X146897368Y-64243685D01*
X146897368Y-64243685D02*
X146968797Y-64172257D01*
X146968797Y-64172257D02*
X147111654Y-64100828D01*
X147111654Y-64100828D02*
X147397368Y-64100828D01*
X147397368Y-64100828D02*
X147540226Y-64172257D01*
X148825940Y-65100828D02*
X148825940Y-64315114D01*
X148825940Y-64315114D02*
X148754511Y-64172257D01*
X148754511Y-64172257D02*
X148611654Y-64100828D01*
X148611654Y-64100828D02*
X148325940Y-64100828D01*
X148325940Y-64100828D02*
X148183082Y-64172257D01*
X148825940Y-65029400D02*
X148683082Y-65100828D01*
X148683082Y-65100828D02*
X148325940Y-65100828D01*
X148325940Y-65100828D02*
X148183082Y-65029400D01*
X148183082Y-65029400D02*
X148111654Y-64886542D01*
X148111654Y-64886542D02*
X148111654Y-64743685D01*
X148111654Y-64743685D02*
X148183082Y-64600828D01*
X148183082Y-64600828D02*
X148325940Y-64529400D01*
X148325940Y-64529400D02*
X148683082Y-64529400D01*
X148683082Y-64529400D02*
X148825940Y-64457971D01*
X149325940Y-64100828D02*
X149897368Y-64100828D01*
X149540225Y-63600828D02*
X149540225Y-64886542D01*
X149540225Y-64886542D02*
X149611654Y-65029400D01*
X149611654Y-65029400D02*
X149754511Y-65100828D01*
X149754511Y-65100828D02*
X149897368Y-65100828D01*
X150611654Y-65100828D02*
X150468797Y-65029400D01*
X150468797Y-65029400D02*
X150397368Y-64957971D01*
X150397368Y-64957971D02*
X150325940Y-64815114D01*
X150325940Y-64815114D02*
X150325940Y-64386542D01*
X150325940Y-64386542D02*
X150397368Y-64243685D01*
X150397368Y-64243685D02*
X150468797Y-64172257D01*
X150468797Y-64172257D02*
X150611654Y-64100828D01*
X150611654Y-64100828D02*
X150825940Y-64100828D01*
X150825940Y-64100828D02*
X150968797Y-64172257D01*
X150968797Y-64172257D02*
X151040226Y-64243685D01*
X151040226Y-64243685D02*
X151111654Y-64386542D01*
X151111654Y-64386542D02*
X151111654Y-64815114D01*
X151111654Y-64815114D02*
X151040226Y-64957971D01*
X151040226Y-64957971D02*
X150968797Y-65029400D01*
X150968797Y-65029400D02*
X150825940Y-65100828D01*
X150825940Y-65100828D02*
X150611654Y-65100828D01*
X151754511Y-65100828D02*
X151754511Y-64100828D01*
X151754511Y-64386542D02*
X151825940Y-64243685D01*
X151825940Y-64243685D02*
X151897369Y-64172257D01*
X151897369Y-64172257D02*
X152040226Y-64100828D01*
X152040226Y-64100828D02*
X152183083Y-64100828D01*
D12*
X93508646Y-89472419D02*
X94127693Y-89472419D01*
X94127693Y-89472419D02*
X93794360Y-89853371D01*
X93794360Y-89853371D02*
X93937217Y-89853371D01*
X93937217Y-89853371D02*
X94032455Y-89900990D01*
X94032455Y-89900990D02*
X94080074Y-89948609D01*
X94080074Y-89948609D02*
X94127693Y-90043847D01*
X94127693Y-90043847D02*
X94127693Y-90281942D01*
X94127693Y-90281942D02*
X94080074Y-90377180D01*
X94080074Y-90377180D02*
X94032455Y-90424800D01*
X94032455Y-90424800D02*
X93937217Y-90472419D01*
X93937217Y-90472419D02*
X93651503Y-90472419D01*
X93651503Y-90472419D02*
X93556265Y-90424800D01*
X93556265Y-90424800D02*
X93508646Y-90377180D01*
X94413408Y-89472419D02*
X94746741Y-90472419D01*
X94746741Y-90472419D02*
X95080074Y-89472419D01*
X95318170Y-89472419D02*
X95937217Y-89472419D01*
X95937217Y-89472419D02*
X95603884Y-89853371D01*
X95603884Y-89853371D02*
X95746741Y-89853371D01*
X95746741Y-89853371D02*
X95841979Y-89900990D01*
X95841979Y-89900990D02*
X95889598Y-89948609D01*
X95889598Y-89948609D02*
X95937217Y-90043847D01*
X95937217Y-90043847D02*
X95937217Y-90281942D01*
X95937217Y-90281942D02*
X95889598Y-90377180D01*
X95889598Y-90377180D02*
X95841979Y-90424800D01*
X95841979Y-90424800D02*
X95746741Y-90472419D01*
X95746741Y-90472419D02*
X95461027Y-90472419D01*
X95461027Y-90472419D02*
X95365789Y-90424800D01*
X95365789Y-90424800D02*
X95318170Y-90377180D01*
D10*
X67516415Y-104439638D02*
X66849748Y-103487257D01*
X66373558Y-104439638D02*
X66373558Y-102439638D01*
X66373558Y-102439638D02*
X67135463Y-102439638D01*
X67135463Y-102439638D02*
X67325939Y-102534876D01*
X67325939Y-102534876D02*
X67421177Y-102630114D01*
X67421177Y-102630114D02*
X67516415Y-102820590D01*
X67516415Y-102820590D02*
X67516415Y-103106304D01*
X67516415Y-103106304D02*
X67421177Y-103296780D01*
X67421177Y-103296780D02*
X67325939Y-103392019D01*
X67325939Y-103392019D02*
X67135463Y-103487257D01*
X67135463Y-103487257D02*
X66373558Y-103487257D01*
X69135463Y-104344400D02*
X68944987Y-104439638D01*
X68944987Y-104439638D02*
X68564034Y-104439638D01*
X68564034Y-104439638D02*
X68373558Y-104344400D01*
X68373558Y-104344400D02*
X68278320Y-104153923D01*
X68278320Y-104153923D02*
X68278320Y-103392019D01*
X68278320Y-103392019D02*
X68373558Y-103201542D01*
X68373558Y-103201542D02*
X68564034Y-103106304D01*
X68564034Y-103106304D02*
X68944987Y-103106304D01*
X68944987Y-103106304D02*
X69135463Y-103201542D01*
X69135463Y-103201542D02*
X69230701Y-103392019D01*
X69230701Y-103392019D02*
X69230701Y-103582495D01*
X69230701Y-103582495D02*
X68278320Y-103772971D01*
X70087844Y-104439638D02*
X70087844Y-102439638D01*
X70087844Y-103201542D02*
X70278320Y-103106304D01*
X70278320Y-103106304D02*
X70659273Y-103106304D01*
X70659273Y-103106304D02*
X70849749Y-103201542D01*
X70849749Y-103201542D02*
X70944987Y-103296780D01*
X70944987Y-103296780D02*
X71040225Y-103487257D01*
X71040225Y-103487257D02*
X71040225Y-104058685D01*
X71040225Y-104058685D02*
X70944987Y-104249161D01*
X70944987Y-104249161D02*
X70849749Y-104344400D01*
X70849749Y-104344400D02*
X70659273Y-104439638D01*
X70659273Y-104439638D02*
X70278320Y-104439638D01*
X70278320Y-104439638D02*
X70087844Y-104344400D01*
X72183082Y-104439638D02*
X71992606Y-104344400D01*
X71992606Y-104344400D02*
X71897368Y-104249161D01*
X71897368Y-104249161D02*
X71802130Y-104058685D01*
X71802130Y-104058685D02*
X71802130Y-103487257D01*
X71802130Y-103487257D02*
X71897368Y-103296780D01*
X71897368Y-103296780D02*
X71992606Y-103201542D01*
X71992606Y-103201542D02*
X72183082Y-103106304D01*
X72183082Y-103106304D02*
X72468797Y-103106304D01*
X72468797Y-103106304D02*
X72659273Y-103201542D01*
X72659273Y-103201542D02*
X72754511Y-103296780D01*
X72754511Y-103296780D02*
X72849749Y-103487257D01*
X72849749Y-103487257D02*
X72849749Y-104058685D01*
X72849749Y-104058685D02*
X72754511Y-104249161D01*
X72754511Y-104249161D02*
X72659273Y-104344400D01*
X72659273Y-104344400D02*
X72468797Y-104439638D01*
X72468797Y-104439638D02*
X72183082Y-104439638D01*
X73992606Y-104439638D02*
X73802130Y-104344400D01*
X73802130Y-104344400D02*
X73706892Y-104249161D01*
X73706892Y-104249161D02*
X73611654Y-104058685D01*
X73611654Y-104058685D02*
X73611654Y-103487257D01*
X73611654Y-103487257D02*
X73706892Y-103296780D01*
X73706892Y-103296780D02*
X73802130Y-103201542D01*
X73802130Y-103201542D02*
X73992606Y-103106304D01*
X73992606Y-103106304D02*
X74278321Y-103106304D01*
X74278321Y-103106304D02*
X74468797Y-103201542D01*
X74468797Y-103201542D02*
X74564035Y-103296780D01*
X74564035Y-103296780D02*
X74659273Y-103487257D01*
X74659273Y-103487257D02*
X74659273Y-104058685D01*
X74659273Y-104058685D02*
X74564035Y-104249161D01*
X74564035Y-104249161D02*
X74468797Y-104344400D01*
X74468797Y-104344400D02*
X74278321Y-104439638D01*
X74278321Y-104439638D02*
X73992606Y-104439638D01*
X75230702Y-103106304D02*
X75992606Y-103106304D01*
X75516416Y-102439638D02*
X75516416Y-104153923D01*
X75516416Y-104153923D02*
X75611654Y-104344400D01*
X75611654Y-104344400D02*
X75802130Y-104439638D01*
X75802130Y-104439638D02*
X75992606Y-104439638D01*
X113683082Y-58114484D02*
X113897368Y-58185912D01*
X113897368Y-58185912D02*
X114254510Y-58185912D01*
X114254510Y-58185912D02*
X114397368Y-58114484D01*
X114397368Y-58114484D02*
X114468796Y-58043055D01*
X114468796Y-58043055D02*
X114540225Y-57900198D01*
X114540225Y-57900198D02*
X114540225Y-57757341D01*
X114540225Y-57757341D02*
X114468796Y-57614484D01*
X114468796Y-57614484D02*
X114397368Y-57543055D01*
X114397368Y-57543055D02*
X114254510Y-57471626D01*
X114254510Y-57471626D02*
X113968796Y-57400198D01*
X113968796Y-57400198D02*
X113825939Y-57328769D01*
X113825939Y-57328769D02*
X113754510Y-57257341D01*
X113754510Y-57257341D02*
X113683082Y-57114484D01*
X113683082Y-57114484D02*
X113683082Y-56971626D01*
X113683082Y-56971626D02*
X113754510Y-56828769D01*
X113754510Y-56828769D02*
X113825939Y-56757341D01*
X113825939Y-56757341D02*
X113968796Y-56685912D01*
X113968796Y-56685912D02*
X114325939Y-56685912D01*
X114325939Y-56685912D02*
X114540225Y-56757341D01*
X115825939Y-58185912D02*
X115825939Y-57400198D01*
X115825939Y-57400198D02*
X115754510Y-57257341D01*
X115754510Y-57257341D02*
X115611653Y-57185912D01*
X115611653Y-57185912D02*
X115325939Y-57185912D01*
X115325939Y-57185912D02*
X115183081Y-57257341D01*
X115825939Y-58114484D02*
X115683081Y-58185912D01*
X115683081Y-58185912D02*
X115325939Y-58185912D01*
X115325939Y-58185912D02*
X115183081Y-58114484D01*
X115183081Y-58114484D02*
X115111653Y-57971626D01*
X115111653Y-57971626D02*
X115111653Y-57828769D01*
X115111653Y-57828769D02*
X115183081Y-57685912D01*
X115183081Y-57685912D02*
X115325939Y-57614484D01*
X115325939Y-57614484D02*
X115683081Y-57614484D01*
X115683081Y-57614484D02*
X115825939Y-57543055D01*
X116325939Y-57185912D02*
X116897367Y-57185912D01*
X116540224Y-58185912D02*
X116540224Y-56900198D01*
X116540224Y-56900198D02*
X116611653Y-56757341D01*
X116611653Y-56757341D02*
X116754510Y-56685912D01*
X116754510Y-56685912D02*
X116897367Y-56685912D01*
X117968796Y-58114484D02*
X117825939Y-58185912D01*
X117825939Y-58185912D02*
X117540225Y-58185912D01*
X117540225Y-58185912D02*
X117397367Y-58114484D01*
X117397367Y-58114484D02*
X117325939Y-57971626D01*
X117325939Y-57971626D02*
X117325939Y-57400198D01*
X117325939Y-57400198D02*
X117397367Y-57257341D01*
X117397367Y-57257341D02*
X117540225Y-57185912D01*
X117540225Y-57185912D02*
X117825939Y-57185912D01*
X117825939Y-57185912D02*
X117968796Y-57257341D01*
X117968796Y-57257341D02*
X118040225Y-57400198D01*
X118040225Y-57400198D02*
X118040225Y-57543055D01*
X118040225Y-57543055D02*
X117325939Y-57685912D01*
X118468796Y-57185912D02*
X119040224Y-57185912D01*
X118683081Y-56685912D02*
X118683081Y-57971626D01*
X118683081Y-57971626D02*
X118754510Y-58114484D01*
X118754510Y-58114484D02*
X118897367Y-58185912D01*
X118897367Y-58185912D02*
X119040224Y-58185912D01*
X119397367Y-57185912D02*
X119754510Y-58185912D01*
X120111653Y-57185912D02*
X119754510Y-58185912D01*
X119754510Y-58185912D02*
X119611653Y-58543055D01*
X119611653Y-58543055D02*
X119540224Y-58614484D01*
X119540224Y-58614484D02*
X119397367Y-58685912D01*
X113754510Y-60600828D02*
X113754510Y-59100828D01*
X114468796Y-59600828D02*
X114468796Y-60600828D01*
X114468796Y-59743685D02*
X114540225Y-59672257D01*
X114540225Y-59672257D02*
X114683082Y-59600828D01*
X114683082Y-59600828D02*
X114897368Y-59600828D01*
X114897368Y-59600828D02*
X115040225Y-59672257D01*
X115040225Y-59672257D02*
X115111654Y-59815114D01*
X115111654Y-59815114D02*
X115111654Y-60600828D01*
X115611654Y-59600828D02*
X116183082Y-59600828D01*
X115825939Y-59100828D02*
X115825939Y-60386542D01*
X115825939Y-60386542D02*
X115897368Y-60529400D01*
X115897368Y-60529400D02*
X116040225Y-60600828D01*
X116040225Y-60600828D02*
X116183082Y-60600828D01*
X117254511Y-60529400D02*
X117111654Y-60600828D01*
X117111654Y-60600828D02*
X116825940Y-60600828D01*
X116825940Y-60600828D02*
X116683082Y-60529400D01*
X116683082Y-60529400D02*
X116611654Y-60386542D01*
X116611654Y-60386542D02*
X116611654Y-59815114D01*
X116611654Y-59815114D02*
X116683082Y-59672257D01*
X116683082Y-59672257D02*
X116825940Y-59600828D01*
X116825940Y-59600828D02*
X117111654Y-59600828D01*
X117111654Y-59600828D02*
X117254511Y-59672257D01*
X117254511Y-59672257D02*
X117325940Y-59815114D01*
X117325940Y-59815114D02*
X117325940Y-59957971D01*
X117325940Y-59957971D02*
X116611654Y-60100828D01*
X117968796Y-60600828D02*
X117968796Y-59600828D01*
X117968796Y-59886542D02*
X118040225Y-59743685D01*
X118040225Y-59743685D02*
X118111654Y-59672257D01*
X118111654Y-59672257D02*
X118254511Y-59600828D01*
X118254511Y-59600828D02*
X118397368Y-59600828D01*
X119111653Y-60600828D02*
X118968796Y-60529400D01*
X118968796Y-60529400D02*
X118897367Y-60386542D01*
X118897367Y-60386542D02*
X118897367Y-59100828D01*
X119897367Y-60600828D02*
X119754510Y-60529400D01*
X119754510Y-60529400D02*
X119683081Y-60457971D01*
X119683081Y-60457971D02*
X119611653Y-60315114D01*
X119611653Y-60315114D02*
X119611653Y-59886542D01*
X119611653Y-59886542D02*
X119683081Y-59743685D01*
X119683081Y-59743685D02*
X119754510Y-59672257D01*
X119754510Y-59672257D02*
X119897367Y-59600828D01*
X119897367Y-59600828D02*
X120111653Y-59600828D01*
X120111653Y-59600828D02*
X120254510Y-59672257D01*
X120254510Y-59672257D02*
X120325939Y-59743685D01*
X120325939Y-59743685D02*
X120397367Y-59886542D01*
X120397367Y-59886542D02*
X120397367Y-60315114D01*
X120397367Y-60315114D02*
X120325939Y-60457971D01*
X120325939Y-60457971D02*
X120254510Y-60529400D01*
X120254510Y-60529400D02*
X120111653Y-60600828D01*
X120111653Y-60600828D02*
X119897367Y-60600828D01*
X121683082Y-60529400D02*
X121540224Y-60600828D01*
X121540224Y-60600828D02*
X121254510Y-60600828D01*
X121254510Y-60600828D02*
X121111653Y-60529400D01*
X121111653Y-60529400D02*
X121040224Y-60457971D01*
X121040224Y-60457971D02*
X120968796Y-60315114D01*
X120968796Y-60315114D02*
X120968796Y-59886542D01*
X120968796Y-59886542D02*
X121040224Y-59743685D01*
X121040224Y-59743685D02*
X121111653Y-59672257D01*
X121111653Y-59672257D02*
X121254510Y-59600828D01*
X121254510Y-59600828D02*
X121540224Y-59600828D01*
X121540224Y-59600828D02*
X121683082Y-59672257D01*
X122325938Y-60600828D02*
X122325938Y-59100828D01*
X122468796Y-60029400D02*
X122897367Y-60600828D01*
X122897367Y-59600828D02*
X122325938Y-60172257D01*
D12*
X67941979Y-52650038D02*
X67941979Y-54269085D01*
X67941979Y-54269085D02*
X68037217Y-54459561D01*
X68037217Y-54459561D02*
X68132455Y-54554800D01*
X68132455Y-54554800D02*
X68322931Y-54650038D01*
X68322931Y-54650038D02*
X68703884Y-54650038D01*
X68703884Y-54650038D02*
X68894360Y-54554800D01*
X68894360Y-54554800D02*
X68989598Y-54459561D01*
X68989598Y-54459561D02*
X69084836Y-54269085D01*
X69084836Y-54269085D02*
X69084836Y-52650038D01*
X69941979Y-54554800D02*
X70227693Y-54650038D01*
X70227693Y-54650038D02*
X70703884Y-54650038D01*
X70703884Y-54650038D02*
X70894360Y-54554800D01*
X70894360Y-54554800D02*
X70989598Y-54459561D01*
X70989598Y-54459561D02*
X71084836Y-54269085D01*
X71084836Y-54269085D02*
X71084836Y-54078609D01*
X71084836Y-54078609D02*
X70989598Y-53888133D01*
X70989598Y-53888133D02*
X70894360Y-53792895D01*
X70894360Y-53792895D02*
X70703884Y-53697657D01*
X70703884Y-53697657D02*
X70322931Y-53602419D01*
X70322931Y-53602419D02*
X70132455Y-53507180D01*
X70132455Y-53507180D02*
X70037217Y-53411942D01*
X70037217Y-53411942D02*
X69941979Y-53221466D01*
X69941979Y-53221466D02*
X69941979Y-53030990D01*
X69941979Y-53030990D02*
X70037217Y-52840514D01*
X70037217Y-52840514D02*
X70132455Y-52745276D01*
X70132455Y-52745276D02*
X70322931Y-52650038D01*
X70322931Y-52650038D02*
X70799122Y-52650038D01*
X70799122Y-52650038D02*
X71084836Y-52745276D01*
X72608646Y-53602419D02*
X72894360Y-53697657D01*
X72894360Y-53697657D02*
X72989598Y-53792895D01*
X72989598Y-53792895D02*
X73084836Y-53983371D01*
X73084836Y-53983371D02*
X73084836Y-54269085D01*
X73084836Y-54269085D02*
X72989598Y-54459561D01*
X72989598Y-54459561D02*
X72894360Y-54554800D01*
X72894360Y-54554800D02*
X72703884Y-54650038D01*
X72703884Y-54650038D02*
X71941979Y-54650038D01*
X71941979Y-54650038D02*
X71941979Y-52650038D01*
X71941979Y-52650038D02*
X72608646Y-52650038D01*
X72608646Y-52650038D02*
X72799122Y-52745276D01*
X72799122Y-52745276D02*
X72894360Y-52840514D01*
X72894360Y-52840514D02*
X72989598Y-53030990D01*
X72989598Y-53030990D02*
X72989598Y-53221466D01*
X72989598Y-53221466D02*
X72894360Y-53411942D01*
X72894360Y-53411942D02*
X72799122Y-53507180D01*
X72799122Y-53507180D02*
X72608646Y-53602419D01*
X72608646Y-53602419D02*
X71941979Y-53602419D01*
D13*
X65238095Y-53854819D02*
X65238095Y-52854819D01*
X65238095Y-53331009D02*
X65809523Y-53331009D01*
X65809523Y-53854819D02*
X65809523Y-52854819D01*
X66809523Y-53854819D02*
X66238095Y-53854819D01*
X66523809Y-53854819D02*
X66523809Y-52854819D01*
X66523809Y-52854819D02*
X66428571Y-52997676D01*
X66428571Y-52997676D02*
X66333333Y-53092914D01*
X66333333Y-53092914D02*
X66238095Y-53140533D01*
X157238095Y-53954819D02*
X157238095Y-52954819D01*
X157238095Y-53431009D02*
X157809523Y-53431009D01*
X157809523Y-53954819D02*
X157809523Y-52954819D01*
X158238095Y-53050057D02*
X158285714Y-53002438D01*
X158285714Y-53002438D02*
X158380952Y-52954819D01*
X158380952Y-52954819D02*
X158619047Y-52954819D01*
X158619047Y-52954819D02*
X158714285Y-53002438D01*
X158714285Y-53002438D02*
X158761904Y-53050057D01*
X158761904Y-53050057D02*
X158809523Y-53145295D01*
X158809523Y-53145295D02*
X158809523Y-53240533D01*
X158809523Y-53240533D02*
X158761904Y-53383390D01*
X158761904Y-53383390D02*
X158190476Y-53954819D01*
X158190476Y-53954819D02*
X158809523Y-53954819D01*
X157238095Y-137604819D02*
X157238095Y-136604819D01*
X157238095Y-137081009D02*
X157809523Y-137081009D01*
X157809523Y-137604819D02*
X157809523Y-136604819D01*
X158190476Y-136604819D02*
X158809523Y-136604819D01*
X158809523Y-136604819D02*
X158476190Y-136985771D01*
X158476190Y-136985771D02*
X158619047Y-136985771D01*
X158619047Y-136985771D02*
X158714285Y-137033390D01*
X158714285Y-137033390D02*
X158761904Y-137081009D01*
X158761904Y-137081009D02*
X158809523Y-137176247D01*
X158809523Y-137176247D02*
X158809523Y-137414342D01*
X158809523Y-137414342D02*
X158761904Y-137509580D01*
X158761904Y-137509580D02*
X158714285Y-137557200D01*
X158714285Y-137557200D02*
X158619047Y-137604819D01*
X158619047Y-137604819D02*
X158333333Y-137604819D01*
X158333333Y-137604819D02*
X158238095Y-137557200D01*
X158238095Y-137557200D02*
X158190476Y-137509580D01*
X65238095Y-137604819D02*
X65238095Y-136604819D01*
X65238095Y-137081009D02*
X65809523Y-137081009D01*
X65809523Y-137604819D02*
X65809523Y-136604819D01*
X66714285Y-136938152D02*
X66714285Y-137604819D01*
X66476190Y-136557200D02*
X66238095Y-137271485D01*
X66238095Y-137271485D02*
X66857142Y-137271485D01*
X123338095Y-89154819D02*
X123338095Y-89964342D01*
X123338095Y-89964342D02*
X123385714Y-90059580D01*
X123385714Y-90059580D02*
X123433333Y-90107200D01*
X123433333Y-90107200D02*
X123528571Y-90154819D01*
X123528571Y-90154819D02*
X123719047Y-90154819D01*
X123719047Y-90154819D02*
X123814285Y-90107200D01*
X123814285Y-90107200D02*
X123861904Y-90059580D01*
X123861904Y-90059580D02*
X123909523Y-89964342D01*
X123909523Y-89964342D02*
X123909523Y-89154819D01*
X124338095Y-89250057D02*
X124385714Y-89202438D01*
X124385714Y-89202438D02*
X124480952Y-89154819D01*
X124480952Y-89154819D02*
X124719047Y-89154819D01*
X124719047Y-89154819D02*
X124814285Y-89202438D01*
X124814285Y-89202438D02*
X124861904Y-89250057D01*
X124861904Y-89250057D02*
X124909523Y-89345295D01*
X124909523Y-89345295D02*
X124909523Y-89440533D01*
X124909523Y-89440533D02*
X124861904Y-89583390D01*
X124861904Y-89583390D02*
X124290476Y-90154819D01*
X124290476Y-90154819D02*
X124909523Y-90154819D01*
X74240476Y-128512295D02*
X74240476Y-129159914D01*
X74240476Y-129159914D02*
X74278571Y-129236104D01*
X74278571Y-129236104D02*
X74316666Y-129274200D01*
X74316666Y-129274200D02*
X74392857Y-129312295D01*
X74392857Y-129312295D02*
X74545238Y-129312295D01*
X74545238Y-129312295D02*
X74621428Y-129274200D01*
X74621428Y-129274200D02*
X74659523Y-129236104D01*
X74659523Y-129236104D02*
X74697619Y-129159914D01*
X74697619Y-129159914D02*
X74697619Y-128512295D01*
X75421428Y-128778961D02*
X75421428Y-129312295D01*
X75230952Y-128474200D02*
X75040475Y-129045628D01*
X75040475Y-129045628D02*
X75535714Y-129045628D01*
X148884819Y-57738094D02*
X147884819Y-57738094D01*
X147884819Y-57738094D02*
X147884819Y-57499999D01*
X147884819Y-57499999D02*
X147932438Y-57357142D01*
X147932438Y-57357142D02*
X148027676Y-57261904D01*
X148027676Y-57261904D02*
X148122914Y-57214285D01*
X148122914Y-57214285D02*
X148313390Y-57166666D01*
X148313390Y-57166666D02*
X148456247Y-57166666D01*
X148456247Y-57166666D02*
X148646723Y-57214285D01*
X148646723Y-57214285D02*
X148741961Y-57261904D01*
X148741961Y-57261904D02*
X148837200Y-57357142D01*
X148837200Y-57357142D02*
X148884819Y-57499999D01*
X148884819Y-57499999D02*
X148884819Y-57738094D01*
X148884819Y-56214285D02*
X148884819Y-56785713D01*
X148884819Y-56499999D02*
X147884819Y-56499999D01*
X147884819Y-56499999D02*
X148027676Y-56595237D01*
X148027676Y-56595237D02*
X148122914Y-56690475D01*
X148122914Y-56690475D02*
X148170533Y-56785713D01*
X130857142Y-134724819D02*
X130523809Y-134248628D01*
X130285714Y-134724819D02*
X130285714Y-133724819D01*
X130285714Y-133724819D02*
X130666666Y-133724819D01*
X130666666Y-133724819D02*
X130761904Y-133772438D01*
X130761904Y-133772438D02*
X130809523Y-133820057D01*
X130809523Y-133820057D02*
X130857142Y-133915295D01*
X130857142Y-133915295D02*
X130857142Y-134058152D01*
X130857142Y-134058152D02*
X130809523Y-134153390D01*
X130809523Y-134153390D02*
X130761904Y-134201009D01*
X130761904Y-134201009D02*
X130666666Y-134248628D01*
X130666666Y-134248628D02*
X130285714Y-134248628D01*
X131190476Y-133724819D02*
X131809523Y-133724819D01*
X131809523Y-133724819D02*
X131476190Y-134105771D01*
X131476190Y-134105771D02*
X131619047Y-134105771D01*
X131619047Y-134105771D02*
X131714285Y-134153390D01*
X131714285Y-134153390D02*
X131761904Y-134201009D01*
X131761904Y-134201009D02*
X131809523Y-134296247D01*
X131809523Y-134296247D02*
X131809523Y-134534342D01*
X131809523Y-134534342D02*
X131761904Y-134629580D01*
X131761904Y-134629580D02*
X131714285Y-134677200D01*
X131714285Y-134677200D02*
X131619047Y-134724819D01*
X131619047Y-134724819D02*
X131333333Y-134724819D01*
X131333333Y-134724819D02*
X131238095Y-134677200D01*
X131238095Y-134677200D02*
X131190476Y-134629580D01*
X132190476Y-133820057D02*
X132238095Y-133772438D01*
X132238095Y-133772438D02*
X132333333Y-133724819D01*
X132333333Y-133724819D02*
X132571428Y-133724819D01*
X132571428Y-133724819D02*
X132666666Y-133772438D01*
X132666666Y-133772438D02*
X132714285Y-133820057D01*
X132714285Y-133820057D02*
X132761904Y-133915295D01*
X132761904Y-133915295D02*
X132761904Y-134010533D01*
X132761904Y-134010533D02*
X132714285Y-134153390D01*
X132714285Y-134153390D02*
X132142857Y-134724819D01*
X132142857Y-134724819D02*
X132761904Y-134724819D01*
X94157142Y-127854819D02*
X93823809Y-127378628D01*
X93585714Y-127854819D02*
X93585714Y-126854819D01*
X93585714Y-126854819D02*
X93966666Y-126854819D01*
X93966666Y-126854819D02*
X94061904Y-126902438D01*
X94061904Y-126902438D02*
X94109523Y-126950057D01*
X94109523Y-126950057D02*
X94157142Y-127045295D01*
X94157142Y-127045295D02*
X94157142Y-127188152D01*
X94157142Y-127188152D02*
X94109523Y-127283390D01*
X94109523Y-127283390D02*
X94061904Y-127331009D01*
X94061904Y-127331009D02*
X93966666Y-127378628D01*
X93966666Y-127378628D02*
X93585714Y-127378628D01*
X95109523Y-127854819D02*
X94538095Y-127854819D01*
X94823809Y-127854819D02*
X94823809Y-126854819D01*
X94823809Y-126854819D02*
X94728571Y-126997676D01*
X94728571Y-126997676D02*
X94633333Y-127092914D01*
X94633333Y-127092914D02*
X94538095Y-127140533D01*
X95442857Y-126854819D02*
X96109523Y-126854819D01*
X96109523Y-126854819D02*
X95680952Y-127854819D01*
X73357142Y-125459580D02*
X73309523Y-125507200D01*
X73309523Y-125507200D02*
X73166666Y-125554819D01*
X73166666Y-125554819D02*
X73071428Y-125554819D01*
X73071428Y-125554819D02*
X72928571Y-125507200D01*
X72928571Y-125507200D02*
X72833333Y-125411961D01*
X72833333Y-125411961D02*
X72785714Y-125316723D01*
X72785714Y-125316723D02*
X72738095Y-125126247D01*
X72738095Y-125126247D02*
X72738095Y-124983390D01*
X72738095Y-124983390D02*
X72785714Y-124792914D01*
X72785714Y-124792914D02*
X72833333Y-124697676D01*
X72833333Y-124697676D02*
X72928571Y-124602438D01*
X72928571Y-124602438D02*
X73071428Y-124554819D01*
X73071428Y-124554819D02*
X73166666Y-124554819D01*
X73166666Y-124554819D02*
X73309523Y-124602438D01*
X73309523Y-124602438D02*
X73357142Y-124650057D01*
X73738095Y-124650057D02*
X73785714Y-124602438D01*
X73785714Y-124602438D02*
X73880952Y-124554819D01*
X73880952Y-124554819D02*
X74119047Y-124554819D01*
X74119047Y-124554819D02*
X74214285Y-124602438D01*
X74214285Y-124602438D02*
X74261904Y-124650057D01*
X74261904Y-124650057D02*
X74309523Y-124745295D01*
X74309523Y-124745295D02*
X74309523Y-124840533D01*
X74309523Y-124840533D02*
X74261904Y-124983390D01*
X74261904Y-124983390D02*
X73690476Y-125554819D01*
X73690476Y-125554819D02*
X74309523Y-125554819D01*
X74642857Y-124554819D02*
X75261904Y-124554819D01*
X75261904Y-124554819D02*
X74928571Y-124935771D01*
X74928571Y-124935771D02*
X75071428Y-124935771D01*
X75071428Y-124935771D02*
X75166666Y-124983390D01*
X75166666Y-124983390D02*
X75214285Y-125031009D01*
X75214285Y-125031009D02*
X75261904Y-125126247D01*
X75261904Y-125126247D02*
X75261904Y-125364342D01*
X75261904Y-125364342D02*
X75214285Y-125459580D01*
X75214285Y-125459580D02*
X75166666Y-125507200D01*
X75166666Y-125507200D02*
X75071428Y-125554819D01*
X75071428Y-125554819D02*
X74785714Y-125554819D01*
X74785714Y-125554819D02*
X74690476Y-125507200D01*
X74690476Y-125507200D02*
X74642857Y-125459580D01*
X94757142Y-76359580D02*
X94709523Y-76407200D01*
X94709523Y-76407200D02*
X94566666Y-76454819D01*
X94566666Y-76454819D02*
X94471428Y-76454819D01*
X94471428Y-76454819D02*
X94328571Y-76407200D01*
X94328571Y-76407200D02*
X94233333Y-76311961D01*
X94233333Y-76311961D02*
X94185714Y-76216723D01*
X94185714Y-76216723D02*
X94138095Y-76026247D01*
X94138095Y-76026247D02*
X94138095Y-75883390D01*
X94138095Y-75883390D02*
X94185714Y-75692914D01*
X94185714Y-75692914D02*
X94233333Y-75597676D01*
X94233333Y-75597676D02*
X94328571Y-75502438D01*
X94328571Y-75502438D02*
X94471428Y-75454819D01*
X94471428Y-75454819D02*
X94566666Y-75454819D01*
X94566666Y-75454819D02*
X94709523Y-75502438D01*
X94709523Y-75502438D02*
X94757142Y-75550057D01*
X95138095Y-75550057D02*
X95185714Y-75502438D01*
X95185714Y-75502438D02*
X95280952Y-75454819D01*
X95280952Y-75454819D02*
X95519047Y-75454819D01*
X95519047Y-75454819D02*
X95614285Y-75502438D01*
X95614285Y-75502438D02*
X95661904Y-75550057D01*
X95661904Y-75550057D02*
X95709523Y-75645295D01*
X95709523Y-75645295D02*
X95709523Y-75740533D01*
X95709523Y-75740533D02*
X95661904Y-75883390D01*
X95661904Y-75883390D02*
X95090476Y-76454819D01*
X95090476Y-76454819D02*
X95709523Y-76454819D01*
X96090476Y-75550057D02*
X96138095Y-75502438D01*
X96138095Y-75502438D02*
X96233333Y-75454819D01*
X96233333Y-75454819D02*
X96471428Y-75454819D01*
X96471428Y-75454819D02*
X96566666Y-75502438D01*
X96566666Y-75502438D02*
X96614285Y-75550057D01*
X96614285Y-75550057D02*
X96661904Y-75645295D01*
X96661904Y-75645295D02*
X96661904Y-75740533D01*
X96661904Y-75740533D02*
X96614285Y-75883390D01*
X96614285Y-75883390D02*
X96042857Y-76454819D01*
X96042857Y-76454819D02*
X96661904Y-76454819D01*
X115657142Y-134354819D02*
X115323809Y-133878628D01*
X115085714Y-134354819D02*
X115085714Y-133354819D01*
X115085714Y-133354819D02*
X115466666Y-133354819D01*
X115466666Y-133354819D02*
X115561904Y-133402438D01*
X115561904Y-133402438D02*
X115609523Y-133450057D01*
X115609523Y-133450057D02*
X115657142Y-133545295D01*
X115657142Y-133545295D02*
X115657142Y-133688152D01*
X115657142Y-133688152D02*
X115609523Y-133783390D01*
X115609523Y-133783390D02*
X115561904Y-133831009D01*
X115561904Y-133831009D02*
X115466666Y-133878628D01*
X115466666Y-133878628D02*
X115085714Y-133878628D01*
X115990476Y-133354819D02*
X116609523Y-133354819D01*
X116609523Y-133354819D02*
X116276190Y-133735771D01*
X116276190Y-133735771D02*
X116419047Y-133735771D01*
X116419047Y-133735771D02*
X116514285Y-133783390D01*
X116514285Y-133783390D02*
X116561904Y-133831009D01*
X116561904Y-133831009D02*
X116609523Y-133926247D01*
X116609523Y-133926247D02*
X116609523Y-134164342D01*
X116609523Y-134164342D02*
X116561904Y-134259580D01*
X116561904Y-134259580D02*
X116514285Y-134307200D01*
X116514285Y-134307200D02*
X116419047Y-134354819D01*
X116419047Y-134354819D02*
X116133333Y-134354819D01*
X116133333Y-134354819D02*
X116038095Y-134307200D01*
X116038095Y-134307200D02*
X115990476Y-134259580D01*
X117228571Y-133354819D02*
X117323809Y-133354819D01*
X117323809Y-133354819D02*
X117419047Y-133402438D01*
X117419047Y-133402438D02*
X117466666Y-133450057D01*
X117466666Y-133450057D02*
X117514285Y-133545295D01*
X117514285Y-133545295D02*
X117561904Y-133735771D01*
X117561904Y-133735771D02*
X117561904Y-133973866D01*
X117561904Y-133973866D02*
X117514285Y-134164342D01*
X117514285Y-134164342D02*
X117466666Y-134259580D01*
X117466666Y-134259580D02*
X117419047Y-134307200D01*
X117419047Y-134307200D02*
X117323809Y-134354819D01*
X117323809Y-134354819D02*
X117228571Y-134354819D01*
X117228571Y-134354819D02*
X117133333Y-134307200D01*
X117133333Y-134307200D02*
X117085714Y-134259580D01*
X117085714Y-134259580D02*
X117038095Y-134164342D01*
X117038095Y-134164342D02*
X116990476Y-133973866D01*
X116990476Y-133973866D02*
X116990476Y-133735771D01*
X116990476Y-133735771D02*
X117038095Y-133545295D01*
X117038095Y-133545295D02*
X117085714Y-133450057D01*
X117085714Y-133450057D02*
X117133333Y-133402438D01*
X117133333Y-133402438D02*
X117228571Y-133354819D01*
X137633333Y-89259580D02*
X137585714Y-89307200D01*
X137585714Y-89307200D02*
X137442857Y-89354819D01*
X137442857Y-89354819D02*
X137347619Y-89354819D01*
X137347619Y-89354819D02*
X137204762Y-89307200D01*
X137204762Y-89307200D02*
X137109524Y-89211961D01*
X137109524Y-89211961D02*
X137061905Y-89116723D01*
X137061905Y-89116723D02*
X137014286Y-88926247D01*
X137014286Y-88926247D02*
X137014286Y-88783390D01*
X137014286Y-88783390D02*
X137061905Y-88592914D01*
X137061905Y-88592914D02*
X137109524Y-88497676D01*
X137109524Y-88497676D02*
X137204762Y-88402438D01*
X137204762Y-88402438D02*
X137347619Y-88354819D01*
X137347619Y-88354819D02*
X137442857Y-88354819D01*
X137442857Y-88354819D02*
X137585714Y-88402438D01*
X137585714Y-88402438D02*
X137633333Y-88450057D01*
X138538095Y-88354819D02*
X138061905Y-88354819D01*
X138061905Y-88354819D02*
X138014286Y-88831009D01*
X138014286Y-88831009D02*
X138061905Y-88783390D01*
X138061905Y-88783390D02*
X138157143Y-88735771D01*
X138157143Y-88735771D02*
X138395238Y-88735771D01*
X138395238Y-88735771D02*
X138490476Y-88783390D01*
X138490476Y-88783390D02*
X138538095Y-88831009D01*
X138538095Y-88831009D02*
X138585714Y-88926247D01*
X138585714Y-88926247D02*
X138585714Y-89164342D01*
X138585714Y-89164342D02*
X138538095Y-89259580D01*
X138538095Y-89259580D02*
X138490476Y-89307200D01*
X138490476Y-89307200D02*
X138395238Y-89354819D01*
X138395238Y-89354819D02*
X138157143Y-89354819D01*
X138157143Y-89354819D02*
X138061905Y-89307200D01*
X138061905Y-89307200D02*
X138014286Y-89259580D01*
X109257142Y-127854819D02*
X108923809Y-127378628D01*
X108685714Y-127854819D02*
X108685714Y-126854819D01*
X108685714Y-126854819D02*
X109066666Y-126854819D01*
X109066666Y-126854819D02*
X109161904Y-126902438D01*
X109161904Y-126902438D02*
X109209523Y-126950057D01*
X109209523Y-126950057D02*
X109257142Y-127045295D01*
X109257142Y-127045295D02*
X109257142Y-127188152D01*
X109257142Y-127188152D02*
X109209523Y-127283390D01*
X109209523Y-127283390D02*
X109161904Y-127331009D01*
X109161904Y-127331009D02*
X109066666Y-127378628D01*
X109066666Y-127378628D02*
X108685714Y-127378628D01*
X110209523Y-127854819D02*
X109638095Y-127854819D01*
X109923809Y-127854819D02*
X109923809Y-126854819D01*
X109923809Y-126854819D02*
X109828571Y-126997676D01*
X109828571Y-126997676D02*
X109733333Y-127092914D01*
X109733333Y-127092914D02*
X109638095Y-127140533D01*
X110780952Y-127283390D02*
X110685714Y-127235771D01*
X110685714Y-127235771D02*
X110638095Y-127188152D01*
X110638095Y-127188152D02*
X110590476Y-127092914D01*
X110590476Y-127092914D02*
X110590476Y-127045295D01*
X110590476Y-127045295D02*
X110638095Y-126950057D01*
X110638095Y-126950057D02*
X110685714Y-126902438D01*
X110685714Y-126902438D02*
X110780952Y-126854819D01*
X110780952Y-126854819D02*
X110971428Y-126854819D01*
X110971428Y-126854819D02*
X111066666Y-126902438D01*
X111066666Y-126902438D02*
X111114285Y-126950057D01*
X111114285Y-126950057D02*
X111161904Y-127045295D01*
X111161904Y-127045295D02*
X111161904Y-127092914D01*
X111161904Y-127092914D02*
X111114285Y-127188152D01*
X111114285Y-127188152D02*
X111066666Y-127235771D01*
X111066666Y-127235771D02*
X110971428Y-127283390D01*
X110971428Y-127283390D02*
X110780952Y-127283390D01*
X110780952Y-127283390D02*
X110685714Y-127331009D01*
X110685714Y-127331009D02*
X110638095Y-127378628D01*
X110638095Y-127378628D02*
X110590476Y-127473866D01*
X110590476Y-127473866D02*
X110590476Y-127664342D01*
X110590476Y-127664342D02*
X110638095Y-127759580D01*
X110638095Y-127759580D02*
X110685714Y-127807200D01*
X110685714Y-127807200D02*
X110780952Y-127854819D01*
X110780952Y-127854819D02*
X110971428Y-127854819D01*
X110971428Y-127854819D02*
X111066666Y-127807200D01*
X111066666Y-127807200D02*
X111114285Y-127759580D01*
X111114285Y-127759580D02*
X111161904Y-127664342D01*
X111161904Y-127664342D02*
X111161904Y-127473866D01*
X111161904Y-127473866D02*
X111114285Y-127378628D01*
X111114285Y-127378628D02*
X111066666Y-127331009D01*
X111066666Y-127331009D02*
X110971428Y-127283390D01*
X133657142Y-55054819D02*
X133323809Y-54578628D01*
X133085714Y-55054819D02*
X133085714Y-54054819D01*
X133085714Y-54054819D02*
X133466666Y-54054819D01*
X133466666Y-54054819D02*
X133561904Y-54102438D01*
X133561904Y-54102438D02*
X133609523Y-54150057D01*
X133609523Y-54150057D02*
X133657142Y-54245295D01*
X133657142Y-54245295D02*
X133657142Y-54388152D01*
X133657142Y-54388152D02*
X133609523Y-54483390D01*
X133609523Y-54483390D02*
X133561904Y-54531009D01*
X133561904Y-54531009D02*
X133466666Y-54578628D01*
X133466666Y-54578628D02*
X133085714Y-54578628D01*
X134609523Y-55054819D02*
X134038095Y-55054819D01*
X134323809Y-55054819D02*
X134323809Y-54054819D01*
X134323809Y-54054819D02*
X134228571Y-54197676D01*
X134228571Y-54197676D02*
X134133333Y-54292914D01*
X134133333Y-54292914D02*
X134038095Y-54340533D01*
X135466666Y-54388152D02*
X135466666Y-55054819D01*
X135228571Y-54007200D02*
X134990476Y-54721485D01*
X134990476Y-54721485D02*
X135609523Y-54721485D01*
X137533333Y-87959580D02*
X137485714Y-88007200D01*
X137485714Y-88007200D02*
X137342857Y-88054819D01*
X137342857Y-88054819D02*
X137247619Y-88054819D01*
X137247619Y-88054819D02*
X137104762Y-88007200D01*
X137104762Y-88007200D02*
X137009524Y-87911961D01*
X137009524Y-87911961D02*
X136961905Y-87816723D01*
X136961905Y-87816723D02*
X136914286Y-87626247D01*
X136914286Y-87626247D02*
X136914286Y-87483390D01*
X136914286Y-87483390D02*
X136961905Y-87292914D01*
X136961905Y-87292914D02*
X137009524Y-87197676D01*
X137009524Y-87197676D02*
X137104762Y-87102438D01*
X137104762Y-87102438D02*
X137247619Y-87054819D01*
X137247619Y-87054819D02*
X137342857Y-87054819D01*
X137342857Y-87054819D02*
X137485714Y-87102438D01*
X137485714Y-87102438D02*
X137533333Y-87150057D01*
X138390476Y-87388152D02*
X138390476Y-88054819D01*
X138152381Y-87007200D02*
X137914286Y-87721485D01*
X137914286Y-87721485D02*
X138533333Y-87721485D01*
X136290476Y-110774819D02*
X136290476Y-111489104D01*
X136290476Y-111489104D02*
X136242857Y-111631961D01*
X136242857Y-111631961D02*
X136147619Y-111727200D01*
X136147619Y-111727200D02*
X136004762Y-111774819D01*
X136004762Y-111774819D02*
X135909524Y-111774819D01*
X137290476Y-111774819D02*
X136719048Y-111774819D01*
X137004762Y-111774819D02*
X137004762Y-110774819D01*
X137004762Y-110774819D02*
X136909524Y-110917676D01*
X136909524Y-110917676D02*
X136814286Y-111012914D01*
X136814286Y-111012914D02*
X136719048Y-111060533D01*
X137671429Y-110870057D02*
X137719048Y-110822438D01*
X137719048Y-110822438D02*
X137814286Y-110774819D01*
X137814286Y-110774819D02*
X138052381Y-110774819D01*
X138052381Y-110774819D02*
X138147619Y-110822438D01*
X138147619Y-110822438D02*
X138195238Y-110870057D01*
X138195238Y-110870057D02*
X138242857Y-110965295D01*
X138242857Y-110965295D02*
X138242857Y-111060533D01*
X138242857Y-111060533D02*
X138195238Y-111203390D01*
X138195238Y-111203390D02*
X137623810Y-111774819D01*
X137623810Y-111774819D02*
X138242857Y-111774819D01*
X132938333Y-106559580D02*
X132890714Y-106607200D01*
X132890714Y-106607200D02*
X132747857Y-106654819D01*
X132747857Y-106654819D02*
X132652619Y-106654819D01*
X132652619Y-106654819D02*
X132509762Y-106607200D01*
X132509762Y-106607200D02*
X132414524Y-106511961D01*
X132414524Y-106511961D02*
X132366905Y-106416723D01*
X132366905Y-106416723D02*
X132319286Y-106226247D01*
X132319286Y-106226247D02*
X132319286Y-106083390D01*
X132319286Y-106083390D02*
X132366905Y-105892914D01*
X132366905Y-105892914D02*
X132414524Y-105797676D01*
X132414524Y-105797676D02*
X132509762Y-105702438D01*
X132509762Y-105702438D02*
X132652619Y-105654819D01*
X132652619Y-105654819D02*
X132747857Y-105654819D01*
X132747857Y-105654819D02*
X132890714Y-105702438D01*
X132890714Y-105702438D02*
X132938333Y-105750057D01*
X133271667Y-105654819D02*
X133890714Y-105654819D01*
X133890714Y-105654819D02*
X133557381Y-106035771D01*
X133557381Y-106035771D02*
X133700238Y-106035771D01*
X133700238Y-106035771D02*
X133795476Y-106083390D01*
X133795476Y-106083390D02*
X133843095Y-106131009D01*
X133843095Y-106131009D02*
X133890714Y-106226247D01*
X133890714Y-106226247D02*
X133890714Y-106464342D01*
X133890714Y-106464342D02*
X133843095Y-106559580D01*
X133843095Y-106559580D02*
X133795476Y-106607200D01*
X133795476Y-106607200D02*
X133700238Y-106654819D01*
X133700238Y-106654819D02*
X133414524Y-106654819D01*
X133414524Y-106654819D02*
X133319286Y-106607200D01*
X133319286Y-106607200D02*
X133271667Y-106559580D01*
X109790476Y-130962295D02*
X109790476Y-131609914D01*
X109790476Y-131609914D02*
X109828571Y-131686104D01*
X109828571Y-131686104D02*
X109866666Y-131724200D01*
X109866666Y-131724200D02*
X109942857Y-131762295D01*
X109942857Y-131762295D02*
X110095238Y-131762295D01*
X110095238Y-131762295D02*
X110171428Y-131724200D01*
X110171428Y-131724200D02*
X110209523Y-131686104D01*
X110209523Y-131686104D02*
X110247619Y-131609914D01*
X110247619Y-131609914D02*
X110247619Y-130962295D01*
X110971428Y-130962295D02*
X110819047Y-130962295D01*
X110819047Y-130962295D02*
X110742856Y-131000390D01*
X110742856Y-131000390D02*
X110704761Y-131038485D01*
X110704761Y-131038485D02*
X110628571Y-131152771D01*
X110628571Y-131152771D02*
X110590475Y-131305152D01*
X110590475Y-131305152D02*
X110590475Y-131609914D01*
X110590475Y-131609914D02*
X110628571Y-131686104D01*
X110628571Y-131686104D02*
X110666666Y-131724200D01*
X110666666Y-131724200D02*
X110742856Y-131762295D01*
X110742856Y-131762295D02*
X110895237Y-131762295D01*
X110895237Y-131762295D02*
X110971428Y-131724200D01*
X110971428Y-131724200D02*
X111009523Y-131686104D01*
X111009523Y-131686104D02*
X111047618Y-131609914D01*
X111047618Y-131609914D02*
X111047618Y-131419438D01*
X111047618Y-131419438D02*
X111009523Y-131343247D01*
X111009523Y-131343247D02*
X110971428Y-131305152D01*
X110971428Y-131305152D02*
X110895237Y-131267057D01*
X110895237Y-131267057D02*
X110742856Y-131267057D01*
X110742856Y-131267057D02*
X110666666Y-131305152D01*
X110666666Y-131305152D02*
X110628571Y-131343247D01*
X110628571Y-131343247D02*
X110590475Y-131419438D01*
X78072142Y-63059580D02*
X78024523Y-63107200D01*
X78024523Y-63107200D02*
X77881666Y-63154819D01*
X77881666Y-63154819D02*
X77786428Y-63154819D01*
X77786428Y-63154819D02*
X77643571Y-63107200D01*
X77643571Y-63107200D02*
X77548333Y-63011961D01*
X77548333Y-63011961D02*
X77500714Y-62916723D01*
X77500714Y-62916723D02*
X77453095Y-62726247D01*
X77453095Y-62726247D02*
X77453095Y-62583390D01*
X77453095Y-62583390D02*
X77500714Y-62392914D01*
X77500714Y-62392914D02*
X77548333Y-62297676D01*
X77548333Y-62297676D02*
X77643571Y-62202438D01*
X77643571Y-62202438D02*
X77786428Y-62154819D01*
X77786428Y-62154819D02*
X77881666Y-62154819D01*
X77881666Y-62154819D02*
X78024523Y-62202438D01*
X78024523Y-62202438D02*
X78072142Y-62250057D01*
X79024523Y-63154819D02*
X78453095Y-63154819D01*
X78738809Y-63154819D02*
X78738809Y-62154819D01*
X78738809Y-62154819D02*
X78643571Y-62297676D01*
X78643571Y-62297676D02*
X78548333Y-62392914D01*
X78548333Y-62392914D02*
X78453095Y-62440533D01*
X79595952Y-62583390D02*
X79500714Y-62535771D01*
X79500714Y-62535771D02*
X79453095Y-62488152D01*
X79453095Y-62488152D02*
X79405476Y-62392914D01*
X79405476Y-62392914D02*
X79405476Y-62345295D01*
X79405476Y-62345295D02*
X79453095Y-62250057D01*
X79453095Y-62250057D02*
X79500714Y-62202438D01*
X79500714Y-62202438D02*
X79595952Y-62154819D01*
X79595952Y-62154819D02*
X79786428Y-62154819D01*
X79786428Y-62154819D02*
X79881666Y-62202438D01*
X79881666Y-62202438D02*
X79929285Y-62250057D01*
X79929285Y-62250057D02*
X79976904Y-62345295D01*
X79976904Y-62345295D02*
X79976904Y-62392914D01*
X79976904Y-62392914D02*
X79929285Y-62488152D01*
X79929285Y-62488152D02*
X79881666Y-62535771D01*
X79881666Y-62535771D02*
X79786428Y-62583390D01*
X79786428Y-62583390D02*
X79595952Y-62583390D01*
X79595952Y-62583390D02*
X79500714Y-62631009D01*
X79500714Y-62631009D02*
X79453095Y-62678628D01*
X79453095Y-62678628D02*
X79405476Y-62773866D01*
X79405476Y-62773866D02*
X79405476Y-62964342D01*
X79405476Y-62964342D02*
X79453095Y-63059580D01*
X79453095Y-63059580D02*
X79500714Y-63107200D01*
X79500714Y-63107200D02*
X79595952Y-63154819D01*
X79595952Y-63154819D02*
X79786428Y-63154819D01*
X79786428Y-63154819D02*
X79881666Y-63107200D01*
X79881666Y-63107200D02*
X79929285Y-63059580D01*
X79929285Y-63059580D02*
X79976904Y-62964342D01*
X79976904Y-62964342D02*
X79976904Y-62773866D01*
X79976904Y-62773866D02*
X79929285Y-62678628D01*
X79929285Y-62678628D02*
X79881666Y-62631009D01*
X79881666Y-62631009D02*
X79786428Y-62583390D01*
X127157142Y-102959580D02*
X127109523Y-103007200D01*
X127109523Y-103007200D02*
X126966666Y-103054819D01*
X126966666Y-103054819D02*
X126871428Y-103054819D01*
X126871428Y-103054819D02*
X126728571Y-103007200D01*
X126728571Y-103007200D02*
X126633333Y-102911961D01*
X126633333Y-102911961D02*
X126585714Y-102816723D01*
X126585714Y-102816723D02*
X126538095Y-102626247D01*
X126538095Y-102626247D02*
X126538095Y-102483390D01*
X126538095Y-102483390D02*
X126585714Y-102292914D01*
X126585714Y-102292914D02*
X126633333Y-102197676D01*
X126633333Y-102197676D02*
X126728571Y-102102438D01*
X126728571Y-102102438D02*
X126871428Y-102054819D01*
X126871428Y-102054819D02*
X126966666Y-102054819D01*
X126966666Y-102054819D02*
X127109523Y-102102438D01*
X127109523Y-102102438D02*
X127157142Y-102150057D01*
X128109523Y-103054819D02*
X127538095Y-103054819D01*
X127823809Y-103054819D02*
X127823809Y-102054819D01*
X127823809Y-102054819D02*
X127728571Y-102197676D01*
X127728571Y-102197676D02*
X127633333Y-102292914D01*
X127633333Y-102292914D02*
X127538095Y-102340533D01*
X128728571Y-102054819D02*
X128823809Y-102054819D01*
X128823809Y-102054819D02*
X128919047Y-102102438D01*
X128919047Y-102102438D02*
X128966666Y-102150057D01*
X128966666Y-102150057D02*
X129014285Y-102245295D01*
X129014285Y-102245295D02*
X129061904Y-102435771D01*
X129061904Y-102435771D02*
X129061904Y-102673866D01*
X129061904Y-102673866D02*
X129014285Y-102864342D01*
X129014285Y-102864342D02*
X128966666Y-102959580D01*
X128966666Y-102959580D02*
X128919047Y-103007200D01*
X128919047Y-103007200D02*
X128823809Y-103054819D01*
X128823809Y-103054819D02*
X128728571Y-103054819D01*
X128728571Y-103054819D02*
X128633333Y-103007200D01*
X128633333Y-103007200D02*
X128585714Y-102959580D01*
X128585714Y-102959580D02*
X128538095Y-102864342D01*
X128538095Y-102864342D02*
X128490476Y-102673866D01*
X128490476Y-102673866D02*
X128490476Y-102435771D01*
X128490476Y-102435771D02*
X128538095Y-102245295D01*
X128538095Y-102245295D02*
X128585714Y-102150057D01*
X128585714Y-102150057D02*
X128633333Y-102102438D01*
X128633333Y-102102438D02*
X128728571Y-102054819D01*
X129008333Y-106559580D02*
X128960714Y-106607200D01*
X128960714Y-106607200D02*
X128817857Y-106654819D01*
X128817857Y-106654819D02*
X128722619Y-106654819D01*
X128722619Y-106654819D02*
X128579762Y-106607200D01*
X128579762Y-106607200D02*
X128484524Y-106511961D01*
X128484524Y-106511961D02*
X128436905Y-106416723D01*
X128436905Y-106416723D02*
X128389286Y-106226247D01*
X128389286Y-106226247D02*
X128389286Y-106083390D01*
X128389286Y-106083390D02*
X128436905Y-105892914D01*
X128436905Y-105892914D02*
X128484524Y-105797676D01*
X128484524Y-105797676D02*
X128579762Y-105702438D01*
X128579762Y-105702438D02*
X128722619Y-105654819D01*
X128722619Y-105654819D02*
X128817857Y-105654819D01*
X128817857Y-105654819D02*
X128960714Y-105702438D01*
X128960714Y-105702438D02*
X129008333Y-105750057D01*
X129389286Y-105750057D02*
X129436905Y-105702438D01*
X129436905Y-105702438D02*
X129532143Y-105654819D01*
X129532143Y-105654819D02*
X129770238Y-105654819D01*
X129770238Y-105654819D02*
X129865476Y-105702438D01*
X129865476Y-105702438D02*
X129913095Y-105750057D01*
X129913095Y-105750057D02*
X129960714Y-105845295D01*
X129960714Y-105845295D02*
X129960714Y-105940533D01*
X129960714Y-105940533D02*
X129913095Y-106083390D01*
X129913095Y-106083390D02*
X129341667Y-106654819D01*
X129341667Y-106654819D02*
X129960714Y-106654819D01*
X146157142Y-128559580D02*
X146109523Y-128607200D01*
X146109523Y-128607200D02*
X145966666Y-128654819D01*
X145966666Y-128654819D02*
X145871428Y-128654819D01*
X145871428Y-128654819D02*
X145728571Y-128607200D01*
X145728571Y-128607200D02*
X145633333Y-128511961D01*
X145633333Y-128511961D02*
X145585714Y-128416723D01*
X145585714Y-128416723D02*
X145538095Y-128226247D01*
X145538095Y-128226247D02*
X145538095Y-128083390D01*
X145538095Y-128083390D02*
X145585714Y-127892914D01*
X145585714Y-127892914D02*
X145633333Y-127797676D01*
X145633333Y-127797676D02*
X145728571Y-127702438D01*
X145728571Y-127702438D02*
X145871428Y-127654819D01*
X145871428Y-127654819D02*
X145966666Y-127654819D01*
X145966666Y-127654819D02*
X146109523Y-127702438D01*
X146109523Y-127702438D02*
X146157142Y-127750057D01*
X146538095Y-127750057D02*
X146585714Y-127702438D01*
X146585714Y-127702438D02*
X146680952Y-127654819D01*
X146680952Y-127654819D02*
X146919047Y-127654819D01*
X146919047Y-127654819D02*
X147014285Y-127702438D01*
X147014285Y-127702438D02*
X147061904Y-127750057D01*
X147061904Y-127750057D02*
X147109523Y-127845295D01*
X147109523Y-127845295D02*
X147109523Y-127940533D01*
X147109523Y-127940533D02*
X147061904Y-128083390D01*
X147061904Y-128083390D02*
X146490476Y-128654819D01*
X146490476Y-128654819D02*
X147109523Y-128654819D01*
X147585714Y-128654819D02*
X147776190Y-128654819D01*
X147776190Y-128654819D02*
X147871428Y-128607200D01*
X147871428Y-128607200D02*
X147919047Y-128559580D01*
X147919047Y-128559580D02*
X148014285Y-128416723D01*
X148014285Y-128416723D02*
X148061904Y-128226247D01*
X148061904Y-128226247D02*
X148061904Y-127845295D01*
X148061904Y-127845295D02*
X148014285Y-127750057D01*
X148014285Y-127750057D02*
X147966666Y-127702438D01*
X147966666Y-127702438D02*
X147871428Y-127654819D01*
X147871428Y-127654819D02*
X147680952Y-127654819D01*
X147680952Y-127654819D02*
X147585714Y-127702438D01*
X147585714Y-127702438D02*
X147538095Y-127750057D01*
X147538095Y-127750057D02*
X147490476Y-127845295D01*
X147490476Y-127845295D02*
X147490476Y-128083390D01*
X147490476Y-128083390D02*
X147538095Y-128178628D01*
X147538095Y-128178628D02*
X147585714Y-128226247D01*
X147585714Y-128226247D02*
X147680952Y-128273866D01*
X147680952Y-128273866D02*
X147871428Y-128273866D01*
X147871428Y-128273866D02*
X147966666Y-128226247D01*
X147966666Y-128226247D02*
X148014285Y-128178628D01*
X148014285Y-128178628D02*
X148061904Y-128083390D01*
X138833333Y-92304819D02*
X138500000Y-91828628D01*
X138261905Y-92304819D02*
X138261905Y-91304819D01*
X138261905Y-91304819D02*
X138642857Y-91304819D01*
X138642857Y-91304819D02*
X138738095Y-91352438D01*
X138738095Y-91352438D02*
X138785714Y-91400057D01*
X138785714Y-91400057D02*
X138833333Y-91495295D01*
X138833333Y-91495295D02*
X138833333Y-91638152D01*
X138833333Y-91638152D02*
X138785714Y-91733390D01*
X138785714Y-91733390D02*
X138738095Y-91781009D01*
X138738095Y-91781009D02*
X138642857Y-91828628D01*
X138642857Y-91828628D02*
X138261905Y-91828628D01*
X139404762Y-91733390D02*
X139309524Y-91685771D01*
X139309524Y-91685771D02*
X139261905Y-91638152D01*
X139261905Y-91638152D02*
X139214286Y-91542914D01*
X139214286Y-91542914D02*
X139214286Y-91495295D01*
X139214286Y-91495295D02*
X139261905Y-91400057D01*
X139261905Y-91400057D02*
X139309524Y-91352438D01*
X139309524Y-91352438D02*
X139404762Y-91304819D01*
X139404762Y-91304819D02*
X139595238Y-91304819D01*
X139595238Y-91304819D02*
X139690476Y-91352438D01*
X139690476Y-91352438D02*
X139738095Y-91400057D01*
X139738095Y-91400057D02*
X139785714Y-91495295D01*
X139785714Y-91495295D02*
X139785714Y-91542914D01*
X139785714Y-91542914D02*
X139738095Y-91638152D01*
X139738095Y-91638152D02*
X139690476Y-91685771D01*
X139690476Y-91685771D02*
X139595238Y-91733390D01*
X139595238Y-91733390D02*
X139404762Y-91733390D01*
X139404762Y-91733390D02*
X139309524Y-91781009D01*
X139309524Y-91781009D02*
X139261905Y-91828628D01*
X139261905Y-91828628D02*
X139214286Y-91923866D01*
X139214286Y-91923866D02*
X139214286Y-92114342D01*
X139214286Y-92114342D02*
X139261905Y-92209580D01*
X139261905Y-92209580D02*
X139309524Y-92257200D01*
X139309524Y-92257200D02*
X139404762Y-92304819D01*
X139404762Y-92304819D02*
X139595238Y-92304819D01*
X139595238Y-92304819D02*
X139690476Y-92257200D01*
X139690476Y-92257200D02*
X139738095Y-92209580D01*
X139738095Y-92209580D02*
X139785714Y-92114342D01*
X139785714Y-92114342D02*
X139785714Y-91923866D01*
X139785714Y-91923866D02*
X139738095Y-91828628D01*
X139738095Y-91828628D02*
X139690476Y-91781009D01*
X139690476Y-91781009D02*
X139595238Y-91733390D01*
X134533333Y-83954819D02*
X134057143Y-83954819D01*
X134057143Y-83954819D02*
X134057143Y-82954819D01*
X135390476Y-83954819D02*
X134819048Y-83954819D01*
X135104762Y-83954819D02*
X135104762Y-82954819D01*
X135104762Y-82954819D02*
X135009524Y-83097676D01*
X135009524Y-83097676D02*
X134914286Y-83192914D01*
X134914286Y-83192914D02*
X134819048Y-83240533D01*
X100957142Y-134554819D02*
X100623809Y-134078628D01*
X100385714Y-134554819D02*
X100385714Y-133554819D01*
X100385714Y-133554819D02*
X100766666Y-133554819D01*
X100766666Y-133554819D02*
X100861904Y-133602438D01*
X100861904Y-133602438D02*
X100909523Y-133650057D01*
X100909523Y-133650057D02*
X100957142Y-133745295D01*
X100957142Y-133745295D02*
X100957142Y-133888152D01*
X100957142Y-133888152D02*
X100909523Y-133983390D01*
X100909523Y-133983390D02*
X100861904Y-134031009D01*
X100861904Y-134031009D02*
X100766666Y-134078628D01*
X100766666Y-134078628D02*
X100385714Y-134078628D01*
X101338095Y-133650057D02*
X101385714Y-133602438D01*
X101385714Y-133602438D02*
X101480952Y-133554819D01*
X101480952Y-133554819D02*
X101719047Y-133554819D01*
X101719047Y-133554819D02*
X101814285Y-133602438D01*
X101814285Y-133602438D02*
X101861904Y-133650057D01*
X101861904Y-133650057D02*
X101909523Y-133745295D01*
X101909523Y-133745295D02*
X101909523Y-133840533D01*
X101909523Y-133840533D02*
X101861904Y-133983390D01*
X101861904Y-133983390D02*
X101290476Y-134554819D01*
X101290476Y-134554819D02*
X101909523Y-134554819D01*
X102480952Y-133983390D02*
X102385714Y-133935771D01*
X102385714Y-133935771D02*
X102338095Y-133888152D01*
X102338095Y-133888152D02*
X102290476Y-133792914D01*
X102290476Y-133792914D02*
X102290476Y-133745295D01*
X102290476Y-133745295D02*
X102338095Y-133650057D01*
X102338095Y-133650057D02*
X102385714Y-133602438D01*
X102385714Y-133602438D02*
X102480952Y-133554819D01*
X102480952Y-133554819D02*
X102671428Y-133554819D01*
X102671428Y-133554819D02*
X102766666Y-133602438D01*
X102766666Y-133602438D02*
X102814285Y-133650057D01*
X102814285Y-133650057D02*
X102861904Y-133745295D01*
X102861904Y-133745295D02*
X102861904Y-133792914D01*
X102861904Y-133792914D02*
X102814285Y-133888152D01*
X102814285Y-133888152D02*
X102766666Y-133935771D01*
X102766666Y-133935771D02*
X102671428Y-133983390D01*
X102671428Y-133983390D02*
X102480952Y-133983390D01*
X102480952Y-133983390D02*
X102385714Y-134031009D01*
X102385714Y-134031009D02*
X102338095Y-134078628D01*
X102338095Y-134078628D02*
X102290476Y-134173866D01*
X102290476Y-134173866D02*
X102290476Y-134364342D01*
X102290476Y-134364342D02*
X102338095Y-134459580D01*
X102338095Y-134459580D02*
X102385714Y-134507200D01*
X102385714Y-134507200D02*
X102480952Y-134554819D01*
X102480952Y-134554819D02*
X102671428Y-134554819D01*
X102671428Y-134554819D02*
X102766666Y-134507200D01*
X102766666Y-134507200D02*
X102814285Y-134459580D01*
X102814285Y-134459580D02*
X102861904Y-134364342D01*
X102861904Y-134364342D02*
X102861904Y-134173866D01*
X102861904Y-134173866D02*
X102814285Y-134078628D01*
X102814285Y-134078628D02*
X102766666Y-134031009D01*
X102766666Y-134031009D02*
X102671428Y-133983390D01*
X139715476Y-129712295D02*
X139715476Y-130359914D01*
X139715476Y-130359914D02*
X139753571Y-130436104D01*
X139753571Y-130436104D02*
X139791666Y-130474200D01*
X139791666Y-130474200D02*
X139867857Y-130512295D01*
X139867857Y-130512295D02*
X140020238Y-130512295D01*
X140020238Y-130512295D02*
X140096428Y-130474200D01*
X140096428Y-130474200D02*
X140134523Y-130436104D01*
X140134523Y-130436104D02*
X140172619Y-130359914D01*
X140172619Y-130359914D02*
X140172619Y-129712295D01*
X140667856Y-130055152D02*
X140591666Y-130017057D01*
X140591666Y-130017057D02*
X140553571Y-129978961D01*
X140553571Y-129978961D02*
X140515475Y-129902771D01*
X140515475Y-129902771D02*
X140515475Y-129864676D01*
X140515475Y-129864676D02*
X140553571Y-129788485D01*
X140553571Y-129788485D02*
X140591666Y-129750390D01*
X140591666Y-129750390D02*
X140667856Y-129712295D01*
X140667856Y-129712295D02*
X140820237Y-129712295D01*
X140820237Y-129712295D02*
X140896428Y-129750390D01*
X140896428Y-129750390D02*
X140934523Y-129788485D01*
X140934523Y-129788485D02*
X140972618Y-129864676D01*
X140972618Y-129864676D02*
X140972618Y-129902771D01*
X140972618Y-129902771D02*
X140934523Y-129978961D01*
X140934523Y-129978961D02*
X140896428Y-130017057D01*
X140896428Y-130017057D02*
X140820237Y-130055152D01*
X140820237Y-130055152D02*
X140667856Y-130055152D01*
X140667856Y-130055152D02*
X140591666Y-130093247D01*
X140591666Y-130093247D02*
X140553571Y-130131342D01*
X140553571Y-130131342D02*
X140515475Y-130207533D01*
X140515475Y-130207533D02*
X140515475Y-130359914D01*
X140515475Y-130359914D02*
X140553571Y-130436104D01*
X140553571Y-130436104D02*
X140591666Y-130474200D01*
X140591666Y-130474200D02*
X140667856Y-130512295D01*
X140667856Y-130512295D02*
X140820237Y-130512295D01*
X140820237Y-130512295D02*
X140896428Y-130474200D01*
X140896428Y-130474200D02*
X140934523Y-130436104D01*
X140934523Y-130436104D02*
X140972618Y-130359914D01*
X140972618Y-130359914D02*
X140972618Y-130207533D01*
X140972618Y-130207533D02*
X140934523Y-130131342D01*
X140934523Y-130131342D02*
X140896428Y-130093247D01*
X140896428Y-130093247D02*
X140820237Y-130055152D01*
X121753642Y-87104819D02*
X121420309Y-86628628D01*
X121182214Y-87104819D02*
X121182214Y-86104819D01*
X121182214Y-86104819D02*
X121563166Y-86104819D01*
X121563166Y-86104819D02*
X121658404Y-86152438D01*
X121658404Y-86152438D02*
X121706023Y-86200057D01*
X121706023Y-86200057D02*
X121753642Y-86295295D01*
X121753642Y-86295295D02*
X121753642Y-86438152D01*
X121753642Y-86438152D02*
X121706023Y-86533390D01*
X121706023Y-86533390D02*
X121658404Y-86581009D01*
X121658404Y-86581009D02*
X121563166Y-86628628D01*
X121563166Y-86628628D02*
X121182214Y-86628628D01*
X122706023Y-87104819D02*
X122134595Y-87104819D01*
X122420309Y-87104819D02*
X122420309Y-86104819D01*
X122420309Y-86104819D02*
X122325071Y-86247676D01*
X122325071Y-86247676D02*
X122229833Y-86342914D01*
X122229833Y-86342914D02*
X122134595Y-86390533D01*
X123325071Y-86104819D02*
X123420309Y-86104819D01*
X123420309Y-86104819D02*
X123515547Y-86152438D01*
X123515547Y-86152438D02*
X123563166Y-86200057D01*
X123563166Y-86200057D02*
X123610785Y-86295295D01*
X123610785Y-86295295D02*
X123658404Y-86485771D01*
X123658404Y-86485771D02*
X123658404Y-86723866D01*
X123658404Y-86723866D02*
X123610785Y-86914342D01*
X123610785Y-86914342D02*
X123563166Y-87009580D01*
X123563166Y-87009580D02*
X123515547Y-87057200D01*
X123515547Y-87057200D02*
X123420309Y-87104819D01*
X123420309Y-87104819D02*
X123325071Y-87104819D01*
X123325071Y-87104819D02*
X123229833Y-87057200D01*
X123229833Y-87057200D02*
X123182214Y-87009580D01*
X123182214Y-87009580D02*
X123134595Y-86914342D01*
X123134595Y-86914342D02*
X123086976Y-86723866D01*
X123086976Y-86723866D02*
X123086976Y-86485771D01*
X123086976Y-86485771D02*
X123134595Y-86295295D01*
X123134595Y-86295295D02*
X123182214Y-86200057D01*
X123182214Y-86200057D02*
X123229833Y-86152438D01*
X123229833Y-86152438D02*
X123325071Y-86104819D01*
X92757142Y-82359580D02*
X92709523Y-82407200D01*
X92709523Y-82407200D02*
X92566666Y-82454819D01*
X92566666Y-82454819D02*
X92471428Y-82454819D01*
X92471428Y-82454819D02*
X92328571Y-82407200D01*
X92328571Y-82407200D02*
X92233333Y-82311961D01*
X92233333Y-82311961D02*
X92185714Y-82216723D01*
X92185714Y-82216723D02*
X92138095Y-82026247D01*
X92138095Y-82026247D02*
X92138095Y-81883390D01*
X92138095Y-81883390D02*
X92185714Y-81692914D01*
X92185714Y-81692914D02*
X92233333Y-81597676D01*
X92233333Y-81597676D02*
X92328571Y-81502438D01*
X92328571Y-81502438D02*
X92471428Y-81454819D01*
X92471428Y-81454819D02*
X92566666Y-81454819D01*
X92566666Y-81454819D02*
X92709523Y-81502438D01*
X92709523Y-81502438D02*
X92757142Y-81550057D01*
X93709523Y-82454819D02*
X93138095Y-82454819D01*
X93423809Y-82454819D02*
X93423809Y-81454819D01*
X93423809Y-81454819D02*
X93328571Y-81597676D01*
X93328571Y-81597676D02*
X93233333Y-81692914D01*
X93233333Y-81692914D02*
X93138095Y-81740533D01*
X94185714Y-82454819D02*
X94376190Y-82454819D01*
X94376190Y-82454819D02*
X94471428Y-82407200D01*
X94471428Y-82407200D02*
X94519047Y-82359580D01*
X94519047Y-82359580D02*
X94614285Y-82216723D01*
X94614285Y-82216723D02*
X94661904Y-82026247D01*
X94661904Y-82026247D02*
X94661904Y-81645295D01*
X94661904Y-81645295D02*
X94614285Y-81550057D01*
X94614285Y-81550057D02*
X94566666Y-81502438D01*
X94566666Y-81502438D02*
X94471428Y-81454819D01*
X94471428Y-81454819D02*
X94280952Y-81454819D01*
X94280952Y-81454819D02*
X94185714Y-81502438D01*
X94185714Y-81502438D02*
X94138095Y-81550057D01*
X94138095Y-81550057D02*
X94090476Y-81645295D01*
X94090476Y-81645295D02*
X94090476Y-81883390D01*
X94090476Y-81883390D02*
X94138095Y-81978628D01*
X94138095Y-81978628D02*
X94185714Y-82026247D01*
X94185714Y-82026247D02*
X94280952Y-82073866D01*
X94280952Y-82073866D02*
X94471428Y-82073866D01*
X94471428Y-82073866D02*
X94566666Y-82026247D01*
X94566666Y-82026247D02*
X94614285Y-81978628D01*
X94614285Y-81978628D02*
X94661904Y-81883390D01*
X122729833Y-88554819D02*
X122396500Y-88078628D01*
X122158405Y-88554819D02*
X122158405Y-87554819D01*
X122158405Y-87554819D02*
X122539357Y-87554819D01*
X122539357Y-87554819D02*
X122634595Y-87602438D01*
X122634595Y-87602438D02*
X122682214Y-87650057D01*
X122682214Y-87650057D02*
X122729833Y-87745295D01*
X122729833Y-87745295D02*
X122729833Y-87888152D01*
X122729833Y-87888152D02*
X122682214Y-87983390D01*
X122682214Y-87983390D02*
X122634595Y-88031009D01*
X122634595Y-88031009D02*
X122539357Y-88078628D01*
X122539357Y-88078628D02*
X122158405Y-88078628D01*
X123586976Y-87554819D02*
X123396500Y-87554819D01*
X123396500Y-87554819D02*
X123301262Y-87602438D01*
X123301262Y-87602438D02*
X123253643Y-87650057D01*
X123253643Y-87650057D02*
X123158405Y-87792914D01*
X123158405Y-87792914D02*
X123110786Y-87983390D01*
X123110786Y-87983390D02*
X123110786Y-88364342D01*
X123110786Y-88364342D02*
X123158405Y-88459580D01*
X123158405Y-88459580D02*
X123206024Y-88507200D01*
X123206024Y-88507200D02*
X123301262Y-88554819D01*
X123301262Y-88554819D02*
X123491738Y-88554819D01*
X123491738Y-88554819D02*
X123586976Y-88507200D01*
X123586976Y-88507200D02*
X123634595Y-88459580D01*
X123634595Y-88459580D02*
X123682214Y-88364342D01*
X123682214Y-88364342D02*
X123682214Y-88126247D01*
X123682214Y-88126247D02*
X123634595Y-88031009D01*
X123634595Y-88031009D02*
X123586976Y-87983390D01*
X123586976Y-87983390D02*
X123491738Y-87935771D01*
X123491738Y-87935771D02*
X123301262Y-87935771D01*
X123301262Y-87935771D02*
X123206024Y-87983390D01*
X123206024Y-87983390D02*
X123158405Y-88031009D01*
X123158405Y-88031009D02*
X123110786Y-88126247D01*
X148433333Y-54954819D02*
X148100000Y-54478628D01*
X147861905Y-54954819D02*
X147861905Y-53954819D01*
X147861905Y-53954819D02*
X148242857Y-53954819D01*
X148242857Y-53954819D02*
X148338095Y-54002438D01*
X148338095Y-54002438D02*
X148385714Y-54050057D01*
X148385714Y-54050057D02*
X148433333Y-54145295D01*
X148433333Y-54145295D02*
X148433333Y-54288152D01*
X148433333Y-54288152D02*
X148385714Y-54383390D01*
X148385714Y-54383390D02*
X148338095Y-54431009D01*
X148338095Y-54431009D02*
X148242857Y-54478628D01*
X148242857Y-54478628D02*
X147861905Y-54478628D01*
X148909524Y-54954819D02*
X149100000Y-54954819D01*
X149100000Y-54954819D02*
X149195238Y-54907200D01*
X149195238Y-54907200D02*
X149242857Y-54859580D01*
X149242857Y-54859580D02*
X149338095Y-54716723D01*
X149338095Y-54716723D02*
X149385714Y-54526247D01*
X149385714Y-54526247D02*
X149385714Y-54145295D01*
X149385714Y-54145295D02*
X149338095Y-54050057D01*
X149338095Y-54050057D02*
X149290476Y-54002438D01*
X149290476Y-54002438D02*
X149195238Y-53954819D01*
X149195238Y-53954819D02*
X149004762Y-53954819D01*
X149004762Y-53954819D02*
X148909524Y-54002438D01*
X148909524Y-54002438D02*
X148861905Y-54050057D01*
X148861905Y-54050057D02*
X148814286Y-54145295D01*
X148814286Y-54145295D02*
X148814286Y-54383390D01*
X148814286Y-54383390D02*
X148861905Y-54478628D01*
X148861905Y-54478628D02*
X148909524Y-54526247D01*
X148909524Y-54526247D02*
X149004762Y-54573866D01*
X149004762Y-54573866D02*
X149195238Y-54573866D01*
X149195238Y-54573866D02*
X149290476Y-54526247D01*
X149290476Y-54526247D02*
X149338095Y-54478628D01*
X149338095Y-54478628D02*
X149385714Y-54383390D01*
X132357142Y-82654819D02*
X132023809Y-82178628D01*
X131785714Y-82654819D02*
X131785714Y-81654819D01*
X131785714Y-81654819D02*
X132166666Y-81654819D01*
X132166666Y-81654819D02*
X132261904Y-81702438D01*
X132261904Y-81702438D02*
X132309523Y-81750057D01*
X132309523Y-81750057D02*
X132357142Y-81845295D01*
X132357142Y-81845295D02*
X132357142Y-81988152D01*
X132357142Y-81988152D02*
X132309523Y-82083390D01*
X132309523Y-82083390D02*
X132261904Y-82131009D01*
X132261904Y-82131009D02*
X132166666Y-82178628D01*
X132166666Y-82178628D02*
X131785714Y-82178628D01*
X133309523Y-82654819D02*
X132738095Y-82654819D01*
X133023809Y-82654819D02*
X133023809Y-81654819D01*
X133023809Y-81654819D02*
X132928571Y-81797676D01*
X132928571Y-81797676D02*
X132833333Y-81892914D01*
X132833333Y-81892914D02*
X132738095Y-81940533D01*
X133690476Y-81750057D02*
X133738095Y-81702438D01*
X133738095Y-81702438D02*
X133833333Y-81654819D01*
X133833333Y-81654819D02*
X134071428Y-81654819D01*
X134071428Y-81654819D02*
X134166666Y-81702438D01*
X134166666Y-81702438D02*
X134214285Y-81750057D01*
X134214285Y-81750057D02*
X134261904Y-81845295D01*
X134261904Y-81845295D02*
X134261904Y-81940533D01*
X134261904Y-81940533D02*
X134214285Y-82083390D01*
X134214285Y-82083390D02*
X133642857Y-82654819D01*
X133642857Y-82654819D02*
X134261904Y-82654819D01*
X145757142Y-134754819D02*
X145423809Y-134278628D01*
X145185714Y-134754819D02*
X145185714Y-133754819D01*
X145185714Y-133754819D02*
X145566666Y-133754819D01*
X145566666Y-133754819D02*
X145661904Y-133802438D01*
X145661904Y-133802438D02*
X145709523Y-133850057D01*
X145709523Y-133850057D02*
X145757142Y-133945295D01*
X145757142Y-133945295D02*
X145757142Y-134088152D01*
X145757142Y-134088152D02*
X145709523Y-134183390D01*
X145709523Y-134183390D02*
X145661904Y-134231009D01*
X145661904Y-134231009D02*
X145566666Y-134278628D01*
X145566666Y-134278628D02*
X145185714Y-134278628D01*
X146090476Y-133754819D02*
X146709523Y-133754819D01*
X146709523Y-133754819D02*
X146376190Y-134135771D01*
X146376190Y-134135771D02*
X146519047Y-134135771D01*
X146519047Y-134135771D02*
X146614285Y-134183390D01*
X146614285Y-134183390D02*
X146661904Y-134231009D01*
X146661904Y-134231009D02*
X146709523Y-134326247D01*
X146709523Y-134326247D02*
X146709523Y-134564342D01*
X146709523Y-134564342D02*
X146661904Y-134659580D01*
X146661904Y-134659580D02*
X146614285Y-134707200D01*
X146614285Y-134707200D02*
X146519047Y-134754819D01*
X146519047Y-134754819D02*
X146233333Y-134754819D01*
X146233333Y-134754819D02*
X146138095Y-134707200D01*
X146138095Y-134707200D02*
X146090476Y-134659580D01*
X147566666Y-134088152D02*
X147566666Y-134754819D01*
X147328571Y-133707200D02*
X147090476Y-134421485D01*
X147090476Y-134421485D02*
X147709523Y-134421485D01*
X120233333Y-94759580D02*
X120185714Y-94807200D01*
X120185714Y-94807200D02*
X120042857Y-94854819D01*
X120042857Y-94854819D02*
X119947619Y-94854819D01*
X119947619Y-94854819D02*
X119804762Y-94807200D01*
X119804762Y-94807200D02*
X119709524Y-94711961D01*
X119709524Y-94711961D02*
X119661905Y-94616723D01*
X119661905Y-94616723D02*
X119614286Y-94426247D01*
X119614286Y-94426247D02*
X119614286Y-94283390D01*
X119614286Y-94283390D02*
X119661905Y-94092914D01*
X119661905Y-94092914D02*
X119709524Y-93997676D01*
X119709524Y-93997676D02*
X119804762Y-93902438D01*
X119804762Y-93902438D02*
X119947619Y-93854819D01*
X119947619Y-93854819D02*
X120042857Y-93854819D01*
X120042857Y-93854819D02*
X120185714Y-93902438D01*
X120185714Y-93902438D02*
X120233333Y-93950057D01*
X121090476Y-93854819D02*
X120900000Y-93854819D01*
X120900000Y-93854819D02*
X120804762Y-93902438D01*
X120804762Y-93902438D02*
X120757143Y-93950057D01*
X120757143Y-93950057D02*
X120661905Y-94092914D01*
X120661905Y-94092914D02*
X120614286Y-94283390D01*
X120614286Y-94283390D02*
X120614286Y-94664342D01*
X120614286Y-94664342D02*
X120661905Y-94759580D01*
X120661905Y-94759580D02*
X120709524Y-94807200D01*
X120709524Y-94807200D02*
X120804762Y-94854819D01*
X120804762Y-94854819D02*
X120995238Y-94854819D01*
X120995238Y-94854819D02*
X121090476Y-94807200D01*
X121090476Y-94807200D02*
X121138095Y-94759580D01*
X121138095Y-94759580D02*
X121185714Y-94664342D01*
X121185714Y-94664342D02*
X121185714Y-94426247D01*
X121185714Y-94426247D02*
X121138095Y-94331009D01*
X121138095Y-94331009D02*
X121090476Y-94283390D01*
X121090476Y-94283390D02*
X120995238Y-94235771D01*
X120995238Y-94235771D02*
X120804762Y-94235771D01*
X120804762Y-94235771D02*
X120709524Y-94283390D01*
X120709524Y-94283390D02*
X120661905Y-94331009D01*
X120661905Y-94331009D02*
X120614286Y-94426247D01*
X80541667Y-107632200D02*
X80684524Y-107679819D01*
X80684524Y-107679819D02*
X80922619Y-107679819D01*
X80922619Y-107679819D02*
X81017857Y-107632200D01*
X81017857Y-107632200D02*
X81065476Y-107584580D01*
X81065476Y-107584580D02*
X81113095Y-107489342D01*
X81113095Y-107489342D02*
X81113095Y-107394104D01*
X81113095Y-107394104D02*
X81065476Y-107298866D01*
X81065476Y-107298866D02*
X81017857Y-107251247D01*
X81017857Y-107251247D02*
X80922619Y-107203628D01*
X80922619Y-107203628D02*
X80732143Y-107156009D01*
X80732143Y-107156009D02*
X80636905Y-107108390D01*
X80636905Y-107108390D02*
X80589286Y-107060771D01*
X80589286Y-107060771D02*
X80541667Y-106965533D01*
X80541667Y-106965533D02*
X80541667Y-106870295D01*
X80541667Y-106870295D02*
X80589286Y-106775057D01*
X80589286Y-106775057D02*
X80636905Y-106727438D01*
X80636905Y-106727438D02*
X80732143Y-106679819D01*
X80732143Y-106679819D02*
X80970238Y-106679819D01*
X80970238Y-106679819D02*
X81113095Y-106727438D01*
X81446429Y-106679819D02*
X81684524Y-107679819D01*
X81684524Y-107679819D02*
X81875000Y-106965533D01*
X81875000Y-106965533D02*
X82065476Y-107679819D01*
X82065476Y-107679819D02*
X82303572Y-106679819D01*
X82636905Y-106775057D02*
X82684524Y-106727438D01*
X82684524Y-106727438D02*
X82779762Y-106679819D01*
X82779762Y-106679819D02*
X83017857Y-106679819D01*
X83017857Y-106679819D02*
X83113095Y-106727438D01*
X83113095Y-106727438D02*
X83160714Y-106775057D01*
X83160714Y-106775057D02*
X83208333Y-106870295D01*
X83208333Y-106870295D02*
X83208333Y-106965533D01*
X83208333Y-106965533D02*
X83160714Y-107108390D01*
X83160714Y-107108390D02*
X82589286Y-107679819D01*
X82589286Y-107679819D02*
X83208333Y-107679819D01*
X131133333Y-88359580D02*
X131085714Y-88407200D01*
X131085714Y-88407200D02*
X130942857Y-88454819D01*
X130942857Y-88454819D02*
X130847619Y-88454819D01*
X130847619Y-88454819D02*
X130704762Y-88407200D01*
X130704762Y-88407200D02*
X130609524Y-88311961D01*
X130609524Y-88311961D02*
X130561905Y-88216723D01*
X130561905Y-88216723D02*
X130514286Y-88026247D01*
X130514286Y-88026247D02*
X130514286Y-87883390D01*
X130514286Y-87883390D02*
X130561905Y-87692914D01*
X130561905Y-87692914D02*
X130609524Y-87597676D01*
X130609524Y-87597676D02*
X130704762Y-87502438D01*
X130704762Y-87502438D02*
X130847619Y-87454819D01*
X130847619Y-87454819D02*
X130942857Y-87454819D01*
X130942857Y-87454819D02*
X131085714Y-87502438D01*
X131085714Y-87502438D02*
X131133333Y-87550057D01*
X132085714Y-88454819D02*
X131514286Y-88454819D01*
X131800000Y-88454819D02*
X131800000Y-87454819D01*
X131800000Y-87454819D02*
X131704762Y-87597676D01*
X131704762Y-87597676D02*
X131609524Y-87692914D01*
X131609524Y-87692914D02*
X131514286Y-87740533D01*
X124357142Y-127954819D02*
X124023809Y-127478628D01*
X123785714Y-127954819D02*
X123785714Y-126954819D01*
X123785714Y-126954819D02*
X124166666Y-126954819D01*
X124166666Y-126954819D02*
X124261904Y-127002438D01*
X124261904Y-127002438D02*
X124309523Y-127050057D01*
X124309523Y-127050057D02*
X124357142Y-127145295D01*
X124357142Y-127145295D02*
X124357142Y-127288152D01*
X124357142Y-127288152D02*
X124309523Y-127383390D01*
X124309523Y-127383390D02*
X124261904Y-127431009D01*
X124261904Y-127431009D02*
X124166666Y-127478628D01*
X124166666Y-127478628D02*
X123785714Y-127478628D01*
X125309523Y-127954819D02*
X124738095Y-127954819D01*
X125023809Y-127954819D02*
X125023809Y-126954819D01*
X125023809Y-126954819D02*
X124928571Y-127097676D01*
X124928571Y-127097676D02*
X124833333Y-127192914D01*
X124833333Y-127192914D02*
X124738095Y-127240533D01*
X125785714Y-127954819D02*
X125976190Y-127954819D01*
X125976190Y-127954819D02*
X126071428Y-127907200D01*
X126071428Y-127907200D02*
X126119047Y-127859580D01*
X126119047Y-127859580D02*
X126214285Y-127716723D01*
X126214285Y-127716723D02*
X126261904Y-127526247D01*
X126261904Y-127526247D02*
X126261904Y-127145295D01*
X126261904Y-127145295D02*
X126214285Y-127050057D01*
X126214285Y-127050057D02*
X126166666Y-127002438D01*
X126166666Y-127002438D02*
X126071428Y-126954819D01*
X126071428Y-126954819D02*
X125880952Y-126954819D01*
X125880952Y-126954819D02*
X125785714Y-127002438D01*
X125785714Y-127002438D02*
X125738095Y-127050057D01*
X125738095Y-127050057D02*
X125690476Y-127145295D01*
X125690476Y-127145295D02*
X125690476Y-127383390D01*
X125690476Y-127383390D02*
X125738095Y-127478628D01*
X125738095Y-127478628D02*
X125785714Y-127526247D01*
X125785714Y-127526247D02*
X125880952Y-127573866D01*
X125880952Y-127573866D02*
X126071428Y-127573866D01*
X126071428Y-127573866D02*
X126166666Y-127526247D01*
X126166666Y-127526247D02*
X126214285Y-127478628D01*
X126214285Y-127478628D02*
X126261904Y-127383390D01*
X139157142Y-134854819D02*
X138823809Y-134378628D01*
X138585714Y-134854819D02*
X138585714Y-133854819D01*
X138585714Y-133854819D02*
X138966666Y-133854819D01*
X138966666Y-133854819D02*
X139061904Y-133902438D01*
X139061904Y-133902438D02*
X139109523Y-133950057D01*
X139109523Y-133950057D02*
X139157142Y-134045295D01*
X139157142Y-134045295D02*
X139157142Y-134188152D01*
X139157142Y-134188152D02*
X139109523Y-134283390D01*
X139109523Y-134283390D02*
X139061904Y-134331009D01*
X139061904Y-134331009D02*
X138966666Y-134378628D01*
X138966666Y-134378628D02*
X138585714Y-134378628D01*
X139490476Y-133854819D02*
X140109523Y-133854819D01*
X140109523Y-133854819D02*
X139776190Y-134235771D01*
X139776190Y-134235771D02*
X139919047Y-134235771D01*
X139919047Y-134235771D02*
X140014285Y-134283390D01*
X140014285Y-134283390D02*
X140061904Y-134331009D01*
X140061904Y-134331009D02*
X140109523Y-134426247D01*
X140109523Y-134426247D02*
X140109523Y-134664342D01*
X140109523Y-134664342D02*
X140061904Y-134759580D01*
X140061904Y-134759580D02*
X140014285Y-134807200D01*
X140014285Y-134807200D02*
X139919047Y-134854819D01*
X139919047Y-134854819D02*
X139633333Y-134854819D01*
X139633333Y-134854819D02*
X139538095Y-134807200D01*
X139538095Y-134807200D02*
X139490476Y-134759580D01*
X141014285Y-133854819D02*
X140538095Y-133854819D01*
X140538095Y-133854819D02*
X140490476Y-134331009D01*
X140490476Y-134331009D02*
X140538095Y-134283390D01*
X140538095Y-134283390D02*
X140633333Y-134235771D01*
X140633333Y-134235771D02*
X140871428Y-134235771D01*
X140871428Y-134235771D02*
X140966666Y-134283390D01*
X140966666Y-134283390D02*
X141014285Y-134331009D01*
X141014285Y-134331009D02*
X141061904Y-134426247D01*
X141061904Y-134426247D02*
X141061904Y-134664342D01*
X141061904Y-134664342D02*
X141014285Y-134759580D01*
X141014285Y-134759580D02*
X140966666Y-134807200D01*
X140966666Y-134807200D02*
X140871428Y-134854819D01*
X140871428Y-134854819D02*
X140633333Y-134854819D01*
X140633333Y-134854819D02*
X140538095Y-134807200D01*
X140538095Y-134807200D02*
X140490476Y-134759580D01*
X75833333Y-107324819D02*
X75500000Y-106848628D01*
X75261905Y-107324819D02*
X75261905Y-106324819D01*
X75261905Y-106324819D02*
X75642857Y-106324819D01*
X75642857Y-106324819D02*
X75738095Y-106372438D01*
X75738095Y-106372438D02*
X75785714Y-106420057D01*
X75785714Y-106420057D02*
X75833333Y-106515295D01*
X75833333Y-106515295D02*
X75833333Y-106658152D01*
X75833333Y-106658152D02*
X75785714Y-106753390D01*
X75785714Y-106753390D02*
X75738095Y-106801009D01*
X75738095Y-106801009D02*
X75642857Y-106848628D01*
X75642857Y-106848628D02*
X75261905Y-106848628D01*
X76166667Y-106324819D02*
X76785714Y-106324819D01*
X76785714Y-106324819D02*
X76452381Y-106705771D01*
X76452381Y-106705771D02*
X76595238Y-106705771D01*
X76595238Y-106705771D02*
X76690476Y-106753390D01*
X76690476Y-106753390D02*
X76738095Y-106801009D01*
X76738095Y-106801009D02*
X76785714Y-106896247D01*
X76785714Y-106896247D02*
X76785714Y-107134342D01*
X76785714Y-107134342D02*
X76738095Y-107229580D01*
X76738095Y-107229580D02*
X76690476Y-107277200D01*
X76690476Y-107277200D02*
X76595238Y-107324819D01*
X76595238Y-107324819D02*
X76309524Y-107324819D01*
X76309524Y-107324819D02*
X76214286Y-107277200D01*
X76214286Y-107277200D02*
X76166667Y-107229580D01*
X142402142Y-95456080D02*
X142354523Y-95503700D01*
X142354523Y-95503700D02*
X142211666Y-95551319D01*
X142211666Y-95551319D02*
X142116428Y-95551319D01*
X142116428Y-95551319D02*
X141973571Y-95503700D01*
X141973571Y-95503700D02*
X141878333Y-95408461D01*
X141878333Y-95408461D02*
X141830714Y-95313223D01*
X141830714Y-95313223D02*
X141783095Y-95122747D01*
X141783095Y-95122747D02*
X141783095Y-94979890D01*
X141783095Y-94979890D02*
X141830714Y-94789414D01*
X141830714Y-94789414D02*
X141878333Y-94694176D01*
X141878333Y-94694176D02*
X141973571Y-94598938D01*
X141973571Y-94598938D02*
X142116428Y-94551319D01*
X142116428Y-94551319D02*
X142211666Y-94551319D01*
X142211666Y-94551319D02*
X142354523Y-94598938D01*
X142354523Y-94598938D02*
X142402142Y-94646557D01*
X143354523Y-95551319D02*
X142783095Y-95551319D01*
X143068809Y-95551319D02*
X143068809Y-94551319D01*
X143068809Y-94551319D02*
X142973571Y-94694176D01*
X142973571Y-94694176D02*
X142878333Y-94789414D01*
X142878333Y-94789414D02*
X142783095Y-94837033D01*
X144211666Y-94551319D02*
X144021190Y-94551319D01*
X144021190Y-94551319D02*
X143925952Y-94598938D01*
X143925952Y-94598938D02*
X143878333Y-94646557D01*
X143878333Y-94646557D02*
X143783095Y-94789414D01*
X143783095Y-94789414D02*
X143735476Y-94979890D01*
X143735476Y-94979890D02*
X143735476Y-95360842D01*
X143735476Y-95360842D02*
X143783095Y-95456080D01*
X143783095Y-95456080D02*
X143830714Y-95503700D01*
X143830714Y-95503700D02*
X143925952Y-95551319D01*
X143925952Y-95551319D02*
X144116428Y-95551319D01*
X144116428Y-95551319D02*
X144211666Y-95503700D01*
X144211666Y-95503700D02*
X144259285Y-95456080D01*
X144259285Y-95456080D02*
X144306904Y-95360842D01*
X144306904Y-95360842D02*
X144306904Y-95122747D01*
X144306904Y-95122747D02*
X144259285Y-95027509D01*
X144259285Y-95027509D02*
X144211666Y-94979890D01*
X144211666Y-94979890D02*
X144116428Y-94932271D01*
X144116428Y-94932271D02*
X143925952Y-94932271D01*
X143925952Y-94932271D02*
X143830714Y-94979890D01*
X143830714Y-94979890D02*
X143783095Y-95027509D01*
X143783095Y-95027509D02*
X143735476Y-95122747D01*
X92133333Y-75954819D02*
X91657143Y-75954819D01*
X91657143Y-75954819D02*
X91657143Y-74954819D01*
X92371429Y-74954819D02*
X92990476Y-74954819D01*
X92990476Y-74954819D02*
X92657143Y-75335771D01*
X92657143Y-75335771D02*
X92800000Y-75335771D01*
X92800000Y-75335771D02*
X92895238Y-75383390D01*
X92895238Y-75383390D02*
X92942857Y-75431009D01*
X92942857Y-75431009D02*
X92990476Y-75526247D01*
X92990476Y-75526247D02*
X92990476Y-75764342D01*
X92990476Y-75764342D02*
X92942857Y-75859580D01*
X92942857Y-75859580D02*
X92895238Y-75907200D01*
X92895238Y-75907200D02*
X92800000Y-75954819D01*
X92800000Y-75954819D02*
X92514286Y-75954819D01*
X92514286Y-75954819D02*
X92419048Y-75907200D01*
X92419048Y-75907200D02*
X92371429Y-75859580D01*
X128657142Y-82954819D02*
X128323809Y-82478628D01*
X128085714Y-82954819D02*
X128085714Y-81954819D01*
X128085714Y-81954819D02*
X128466666Y-81954819D01*
X128466666Y-81954819D02*
X128561904Y-82002438D01*
X128561904Y-82002438D02*
X128609523Y-82050057D01*
X128609523Y-82050057D02*
X128657142Y-82145295D01*
X128657142Y-82145295D02*
X128657142Y-82288152D01*
X128657142Y-82288152D02*
X128609523Y-82383390D01*
X128609523Y-82383390D02*
X128561904Y-82431009D01*
X128561904Y-82431009D02*
X128466666Y-82478628D01*
X128466666Y-82478628D02*
X128085714Y-82478628D01*
X129609523Y-82954819D02*
X129038095Y-82954819D01*
X129323809Y-82954819D02*
X129323809Y-81954819D01*
X129323809Y-81954819D02*
X129228571Y-82097676D01*
X129228571Y-82097676D02*
X129133333Y-82192914D01*
X129133333Y-82192914D02*
X129038095Y-82240533D01*
X130561904Y-82954819D02*
X129990476Y-82954819D01*
X130276190Y-82954819D02*
X130276190Y-81954819D01*
X130276190Y-81954819D02*
X130180952Y-82097676D01*
X130180952Y-82097676D02*
X130085714Y-82192914D01*
X130085714Y-82192914D02*
X129990476Y-82240533D01*
X76083333Y-75946608D02*
X75607143Y-75946608D01*
X75607143Y-75946608D02*
X75607143Y-74946608D01*
X76369048Y-75041846D02*
X76416667Y-74994227D01*
X76416667Y-74994227D02*
X76511905Y-74946608D01*
X76511905Y-74946608D02*
X76750000Y-74946608D01*
X76750000Y-74946608D02*
X76845238Y-74994227D01*
X76845238Y-74994227D02*
X76892857Y-75041846D01*
X76892857Y-75041846D02*
X76940476Y-75137084D01*
X76940476Y-75137084D02*
X76940476Y-75232322D01*
X76940476Y-75232322D02*
X76892857Y-75375179D01*
X76892857Y-75375179D02*
X76321429Y-75946608D01*
X76321429Y-75946608D02*
X76940476Y-75946608D01*
X93957142Y-134854819D02*
X93623809Y-134378628D01*
X93385714Y-134854819D02*
X93385714Y-133854819D01*
X93385714Y-133854819D02*
X93766666Y-133854819D01*
X93766666Y-133854819D02*
X93861904Y-133902438D01*
X93861904Y-133902438D02*
X93909523Y-133950057D01*
X93909523Y-133950057D02*
X93957142Y-134045295D01*
X93957142Y-134045295D02*
X93957142Y-134188152D01*
X93957142Y-134188152D02*
X93909523Y-134283390D01*
X93909523Y-134283390D02*
X93861904Y-134331009D01*
X93861904Y-134331009D02*
X93766666Y-134378628D01*
X93766666Y-134378628D02*
X93385714Y-134378628D01*
X94338095Y-133950057D02*
X94385714Y-133902438D01*
X94385714Y-133902438D02*
X94480952Y-133854819D01*
X94480952Y-133854819D02*
X94719047Y-133854819D01*
X94719047Y-133854819D02*
X94814285Y-133902438D01*
X94814285Y-133902438D02*
X94861904Y-133950057D01*
X94861904Y-133950057D02*
X94909523Y-134045295D01*
X94909523Y-134045295D02*
X94909523Y-134140533D01*
X94909523Y-134140533D02*
X94861904Y-134283390D01*
X94861904Y-134283390D02*
X94290476Y-134854819D01*
X94290476Y-134854819D02*
X94909523Y-134854819D01*
X95385714Y-134854819D02*
X95576190Y-134854819D01*
X95576190Y-134854819D02*
X95671428Y-134807200D01*
X95671428Y-134807200D02*
X95719047Y-134759580D01*
X95719047Y-134759580D02*
X95814285Y-134616723D01*
X95814285Y-134616723D02*
X95861904Y-134426247D01*
X95861904Y-134426247D02*
X95861904Y-134045295D01*
X95861904Y-134045295D02*
X95814285Y-133950057D01*
X95814285Y-133950057D02*
X95766666Y-133902438D01*
X95766666Y-133902438D02*
X95671428Y-133854819D01*
X95671428Y-133854819D02*
X95480952Y-133854819D01*
X95480952Y-133854819D02*
X95385714Y-133902438D01*
X95385714Y-133902438D02*
X95338095Y-133950057D01*
X95338095Y-133950057D02*
X95290476Y-134045295D01*
X95290476Y-134045295D02*
X95290476Y-134283390D01*
X95290476Y-134283390D02*
X95338095Y-134378628D01*
X95338095Y-134378628D02*
X95385714Y-134426247D01*
X95385714Y-134426247D02*
X95480952Y-134473866D01*
X95480952Y-134473866D02*
X95671428Y-134473866D01*
X95671428Y-134473866D02*
X95766666Y-134426247D01*
X95766666Y-134426247D02*
X95814285Y-134378628D01*
X95814285Y-134378628D02*
X95861904Y-134283390D01*
X109357142Y-134854819D02*
X109023809Y-134378628D01*
X108785714Y-134854819D02*
X108785714Y-133854819D01*
X108785714Y-133854819D02*
X109166666Y-133854819D01*
X109166666Y-133854819D02*
X109261904Y-133902438D01*
X109261904Y-133902438D02*
X109309523Y-133950057D01*
X109309523Y-133950057D02*
X109357142Y-134045295D01*
X109357142Y-134045295D02*
X109357142Y-134188152D01*
X109357142Y-134188152D02*
X109309523Y-134283390D01*
X109309523Y-134283390D02*
X109261904Y-134331009D01*
X109261904Y-134331009D02*
X109166666Y-134378628D01*
X109166666Y-134378628D02*
X108785714Y-134378628D01*
X109690476Y-133854819D02*
X110309523Y-133854819D01*
X110309523Y-133854819D02*
X109976190Y-134235771D01*
X109976190Y-134235771D02*
X110119047Y-134235771D01*
X110119047Y-134235771D02*
X110214285Y-134283390D01*
X110214285Y-134283390D02*
X110261904Y-134331009D01*
X110261904Y-134331009D02*
X110309523Y-134426247D01*
X110309523Y-134426247D02*
X110309523Y-134664342D01*
X110309523Y-134664342D02*
X110261904Y-134759580D01*
X110261904Y-134759580D02*
X110214285Y-134807200D01*
X110214285Y-134807200D02*
X110119047Y-134854819D01*
X110119047Y-134854819D02*
X109833333Y-134854819D01*
X109833333Y-134854819D02*
X109738095Y-134807200D01*
X109738095Y-134807200D02*
X109690476Y-134759580D01*
X111261904Y-134854819D02*
X110690476Y-134854819D01*
X110976190Y-134854819D02*
X110976190Y-133854819D01*
X110976190Y-133854819D02*
X110880952Y-133997676D01*
X110880952Y-133997676D02*
X110785714Y-134092914D01*
X110785714Y-134092914D02*
X110690476Y-134140533D01*
X124107142Y-134854819D02*
X123773809Y-134378628D01*
X123535714Y-134854819D02*
X123535714Y-133854819D01*
X123535714Y-133854819D02*
X123916666Y-133854819D01*
X123916666Y-133854819D02*
X124011904Y-133902438D01*
X124011904Y-133902438D02*
X124059523Y-133950057D01*
X124059523Y-133950057D02*
X124107142Y-134045295D01*
X124107142Y-134045295D02*
X124107142Y-134188152D01*
X124107142Y-134188152D02*
X124059523Y-134283390D01*
X124059523Y-134283390D02*
X124011904Y-134331009D01*
X124011904Y-134331009D02*
X123916666Y-134378628D01*
X123916666Y-134378628D02*
X123535714Y-134378628D01*
X124440476Y-133854819D02*
X125059523Y-133854819D01*
X125059523Y-133854819D02*
X124726190Y-134235771D01*
X124726190Y-134235771D02*
X124869047Y-134235771D01*
X124869047Y-134235771D02*
X124964285Y-134283390D01*
X124964285Y-134283390D02*
X125011904Y-134331009D01*
X125011904Y-134331009D02*
X125059523Y-134426247D01*
X125059523Y-134426247D02*
X125059523Y-134664342D01*
X125059523Y-134664342D02*
X125011904Y-134759580D01*
X125011904Y-134759580D02*
X124964285Y-134807200D01*
X124964285Y-134807200D02*
X124869047Y-134854819D01*
X124869047Y-134854819D02*
X124583333Y-134854819D01*
X124583333Y-134854819D02*
X124488095Y-134807200D01*
X124488095Y-134807200D02*
X124440476Y-134759580D01*
X125392857Y-133854819D02*
X126011904Y-133854819D01*
X126011904Y-133854819D02*
X125678571Y-134235771D01*
X125678571Y-134235771D02*
X125821428Y-134235771D01*
X125821428Y-134235771D02*
X125916666Y-134283390D01*
X125916666Y-134283390D02*
X125964285Y-134331009D01*
X125964285Y-134331009D02*
X126011904Y-134426247D01*
X126011904Y-134426247D02*
X126011904Y-134664342D01*
X126011904Y-134664342D02*
X125964285Y-134759580D01*
X125964285Y-134759580D02*
X125916666Y-134807200D01*
X125916666Y-134807200D02*
X125821428Y-134854819D01*
X125821428Y-134854819D02*
X125535714Y-134854819D01*
X125535714Y-134854819D02*
X125440476Y-134807200D01*
X125440476Y-134807200D02*
X125392857Y-134759580D01*
X86833333Y-98824819D02*
X86500000Y-98348628D01*
X86261905Y-98824819D02*
X86261905Y-97824819D01*
X86261905Y-97824819D02*
X86642857Y-97824819D01*
X86642857Y-97824819D02*
X86738095Y-97872438D01*
X86738095Y-97872438D02*
X86785714Y-97920057D01*
X86785714Y-97920057D02*
X86833333Y-98015295D01*
X86833333Y-98015295D02*
X86833333Y-98158152D01*
X86833333Y-98158152D02*
X86785714Y-98253390D01*
X86785714Y-98253390D02*
X86738095Y-98301009D01*
X86738095Y-98301009D02*
X86642857Y-98348628D01*
X86642857Y-98348628D02*
X86261905Y-98348628D01*
X87690476Y-98158152D02*
X87690476Y-98824819D01*
X87452381Y-97777200D02*
X87214286Y-98491485D01*
X87214286Y-98491485D02*
X87833333Y-98491485D01*
X74367142Y-134654819D02*
X74033809Y-134178628D01*
X73795714Y-134654819D02*
X73795714Y-133654819D01*
X73795714Y-133654819D02*
X74176666Y-133654819D01*
X74176666Y-133654819D02*
X74271904Y-133702438D01*
X74271904Y-133702438D02*
X74319523Y-133750057D01*
X74319523Y-133750057D02*
X74367142Y-133845295D01*
X74367142Y-133845295D02*
X74367142Y-133988152D01*
X74367142Y-133988152D02*
X74319523Y-134083390D01*
X74319523Y-134083390D02*
X74271904Y-134131009D01*
X74271904Y-134131009D02*
X74176666Y-134178628D01*
X74176666Y-134178628D02*
X73795714Y-134178628D01*
X74748095Y-133750057D02*
X74795714Y-133702438D01*
X74795714Y-133702438D02*
X74890952Y-133654819D01*
X74890952Y-133654819D02*
X75129047Y-133654819D01*
X75129047Y-133654819D02*
X75224285Y-133702438D01*
X75224285Y-133702438D02*
X75271904Y-133750057D01*
X75271904Y-133750057D02*
X75319523Y-133845295D01*
X75319523Y-133845295D02*
X75319523Y-133940533D01*
X75319523Y-133940533D02*
X75271904Y-134083390D01*
X75271904Y-134083390D02*
X74700476Y-134654819D01*
X74700476Y-134654819D02*
X75319523Y-134654819D01*
X75652857Y-133654819D02*
X76319523Y-133654819D01*
X76319523Y-133654819D02*
X75890952Y-134654819D01*
X94890476Y-131002295D02*
X94890476Y-131649914D01*
X94890476Y-131649914D02*
X94928571Y-131726104D01*
X94928571Y-131726104D02*
X94966666Y-131764200D01*
X94966666Y-131764200D02*
X95042857Y-131802295D01*
X95042857Y-131802295D02*
X95195238Y-131802295D01*
X95195238Y-131802295D02*
X95271428Y-131764200D01*
X95271428Y-131764200D02*
X95309523Y-131726104D01*
X95309523Y-131726104D02*
X95347619Y-131649914D01*
X95347619Y-131649914D02*
X95347619Y-131002295D01*
X96109523Y-131002295D02*
X95728571Y-131002295D01*
X95728571Y-131002295D02*
X95690475Y-131383247D01*
X95690475Y-131383247D02*
X95728571Y-131345152D01*
X95728571Y-131345152D02*
X95804761Y-131307057D01*
X95804761Y-131307057D02*
X95995237Y-131307057D01*
X95995237Y-131307057D02*
X96071428Y-131345152D01*
X96071428Y-131345152D02*
X96109523Y-131383247D01*
X96109523Y-131383247D02*
X96147618Y-131459438D01*
X96147618Y-131459438D02*
X96147618Y-131649914D01*
X96147618Y-131649914D02*
X96109523Y-131726104D01*
X96109523Y-131726104D02*
X96071428Y-131764200D01*
X96071428Y-131764200D02*
X95995237Y-131802295D01*
X95995237Y-131802295D02*
X95804761Y-131802295D01*
X95804761Y-131802295D02*
X95728571Y-131764200D01*
X95728571Y-131764200D02*
X95690475Y-131726104D01*
X130757142Y-129959580D02*
X130709523Y-130007200D01*
X130709523Y-130007200D02*
X130566666Y-130054819D01*
X130566666Y-130054819D02*
X130471428Y-130054819D01*
X130471428Y-130054819D02*
X130328571Y-130007200D01*
X130328571Y-130007200D02*
X130233333Y-129911961D01*
X130233333Y-129911961D02*
X130185714Y-129816723D01*
X130185714Y-129816723D02*
X130138095Y-129626247D01*
X130138095Y-129626247D02*
X130138095Y-129483390D01*
X130138095Y-129483390D02*
X130185714Y-129292914D01*
X130185714Y-129292914D02*
X130233333Y-129197676D01*
X130233333Y-129197676D02*
X130328571Y-129102438D01*
X130328571Y-129102438D02*
X130471428Y-129054819D01*
X130471428Y-129054819D02*
X130566666Y-129054819D01*
X130566666Y-129054819D02*
X130709523Y-129102438D01*
X130709523Y-129102438D02*
X130757142Y-129150057D01*
X131138095Y-129150057D02*
X131185714Y-129102438D01*
X131185714Y-129102438D02*
X131280952Y-129054819D01*
X131280952Y-129054819D02*
X131519047Y-129054819D01*
X131519047Y-129054819D02*
X131614285Y-129102438D01*
X131614285Y-129102438D02*
X131661904Y-129150057D01*
X131661904Y-129150057D02*
X131709523Y-129245295D01*
X131709523Y-129245295D02*
X131709523Y-129340533D01*
X131709523Y-129340533D02*
X131661904Y-129483390D01*
X131661904Y-129483390D02*
X131090476Y-130054819D01*
X131090476Y-130054819D02*
X131709523Y-130054819D01*
X132614285Y-129054819D02*
X132138095Y-129054819D01*
X132138095Y-129054819D02*
X132090476Y-129531009D01*
X132090476Y-129531009D02*
X132138095Y-129483390D01*
X132138095Y-129483390D02*
X132233333Y-129435771D01*
X132233333Y-129435771D02*
X132471428Y-129435771D01*
X132471428Y-129435771D02*
X132566666Y-129483390D01*
X132566666Y-129483390D02*
X132614285Y-129531009D01*
X132614285Y-129531009D02*
X132661904Y-129626247D01*
X132661904Y-129626247D02*
X132661904Y-129864342D01*
X132661904Y-129864342D02*
X132614285Y-129959580D01*
X132614285Y-129959580D02*
X132566666Y-130007200D01*
X132566666Y-130007200D02*
X132471428Y-130054819D01*
X132471428Y-130054819D02*
X132233333Y-130054819D01*
X132233333Y-130054819D02*
X132138095Y-130007200D01*
X132138095Y-130007200D02*
X132090476Y-129959580D01*
X124590476Y-130862295D02*
X124590476Y-131509914D01*
X124590476Y-131509914D02*
X124628571Y-131586104D01*
X124628571Y-131586104D02*
X124666666Y-131624200D01*
X124666666Y-131624200D02*
X124742857Y-131662295D01*
X124742857Y-131662295D02*
X124895238Y-131662295D01*
X124895238Y-131662295D02*
X124971428Y-131624200D01*
X124971428Y-131624200D02*
X125009523Y-131586104D01*
X125009523Y-131586104D02*
X125047619Y-131509914D01*
X125047619Y-131509914D02*
X125047619Y-130862295D01*
X125352380Y-130862295D02*
X125885714Y-130862295D01*
X125885714Y-130862295D02*
X125542856Y-131662295D01*
X73466666Y-58454819D02*
X73466666Y-59169104D01*
X73466666Y-59169104D02*
X73419047Y-59311961D01*
X73419047Y-59311961D02*
X73323809Y-59407200D01*
X73323809Y-59407200D02*
X73180952Y-59454819D01*
X73180952Y-59454819D02*
X73085714Y-59454819D01*
X74466666Y-59454819D02*
X73895238Y-59454819D01*
X74180952Y-59454819D02*
X74180952Y-58454819D01*
X74180952Y-58454819D02*
X74085714Y-58597676D01*
X74085714Y-58597676D02*
X73990476Y-58692914D01*
X73990476Y-58692914D02*
X73895238Y-58740533D01*
X119357142Y-92009580D02*
X119309523Y-92057200D01*
X119309523Y-92057200D02*
X119166666Y-92104819D01*
X119166666Y-92104819D02*
X119071428Y-92104819D01*
X119071428Y-92104819D02*
X118928571Y-92057200D01*
X118928571Y-92057200D02*
X118833333Y-91961961D01*
X118833333Y-91961961D02*
X118785714Y-91866723D01*
X118785714Y-91866723D02*
X118738095Y-91676247D01*
X118738095Y-91676247D02*
X118738095Y-91533390D01*
X118738095Y-91533390D02*
X118785714Y-91342914D01*
X118785714Y-91342914D02*
X118833333Y-91247676D01*
X118833333Y-91247676D02*
X118928571Y-91152438D01*
X118928571Y-91152438D02*
X119071428Y-91104819D01*
X119071428Y-91104819D02*
X119166666Y-91104819D01*
X119166666Y-91104819D02*
X119309523Y-91152438D01*
X119309523Y-91152438D02*
X119357142Y-91200057D01*
X120309523Y-92104819D02*
X119738095Y-92104819D01*
X120023809Y-92104819D02*
X120023809Y-91104819D01*
X120023809Y-91104819D02*
X119928571Y-91247676D01*
X119928571Y-91247676D02*
X119833333Y-91342914D01*
X119833333Y-91342914D02*
X119738095Y-91390533D01*
X120690476Y-91200057D02*
X120738095Y-91152438D01*
X120738095Y-91152438D02*
X120833333Y-91104819D01*
X120833333Y-91104819D02*
X121071428Y-91104819D01*
X121071428Y-91104819D02*
X121166666Y-91152438D01*
X121166666Y-91152438D02*
X121214285Y-91200057D01*
X121214285Y-91200057D02*
X121261904Y-91295295D01*
X121261904Y-91295295D02*
X121261904Y-91390533D01*
X121261904Y-91390533D02*
X121214285Y-91533390D01*
X121214285Y-91533390D02*
X120642857Y-92104819D01*
X120642857Y-92104819D02*
X121261904Y-92104819D01*
X139357142Y-127854819D02*
X139023809Y-127378628D01*
X138785714Y-127854819D02*
X138785714Y-126854819D01*
X138785714Y-126854819D02*
X139166666Y-126854819D01*
X139166666Y-126854819D02*
X139261904Y-126902438D01*
X139261904Y-126902438D02*
X139309523Y-126950057D01*
X139309523Y-126950057D02*
X139357142Y-127045295D01*
X139357142Y-127045295D02*
X139357142Y-127188152D01*
X139357142Y-127188152D02*
X139309523Y-127283390D01*
X139309523Y-127283390D02*
X139261904Y-127331009D01*
X139261904Y-127331009D02*
X139166666Y-127378628D01*
X139166666Y-127378628D02*
X138785714Y-127378628D01*
X139738095Y-126950057D02*
X139785714Y-126902438D01*
X139785714Y-126902438D02*
X139880952Y-126854819D01*
X139880952Y-126854819D02*
X140119047Y-126854819D01*
X140119047Y-126854819D02*
X140214285Y-126902438D01*
X140214285Y-126902438D02*
X140261904Y-126950057D01*
X140261904Y-126950057D02*
X140309523Y-127045295D01*
X140309523Y-127045295D02*
X140309523Y-127140533D01*
X140309523Y-127140533D02*
X140261904Y-127283390D01*
X140261904Y-127283390D02*
X139690476Y-127854819D01*
X139690476Y-127854819D02*
X140309523Y-127854819D01*
X140928571Y-126854819D02*
X141023809Y-126854819D01*
X141023809Y-126854819D02*
X141119047Y-126902438D01*
X141119047Y-126902438D02*
X141166666Y-126950057D01*
X141166666Y-126950057D02*
X141214285Y-127045295D01*
X141214285Y-127045295D02*
X141261904Y-127235771D01*
X141261904Y-127235771D02*
X141261904Y-127473866D01*
X141261904Y-127473866D02*
X141214285Y-127664342D01*
X141214285Y-127664342D02*
X141166666Y-127759580D01*
X141166666Y-127759580D02*
X141119047Y-127807200D01*
X141119047Y-127807200D02*
X141023809Y-127854819D01*
X141023809Y-127854819D02*
X140928571Y-127854819D01*
X140928571Y-127854819D02*
X140833333Y-127807200D01*
X140833333Y-127807200D02*
X140785714Y-127759580D01*
X140785714Y-127759580D02*
X140738095Y-127664342D01*
X140738095Y-127664342D02*
X140690476Y-127473866D01*
X140690476Y-127473866D02*
X140690476Y-127235771D01*
X140690476Y-127235771D02*
X140738095Y-127045295D01*
X140738095Y-127045295D02*
X140785714Y-126950057D01*
X140785714Y-126950057D02*
X140833333Y-126902438D01*
X140833333Y-126902438D02*
X140928571Y-126854819D01*
X119007142Y-97009580D02*
X118959523Y-97057200D01*
X118959523Y-97057200D02*
X118816666Y-97104819D01*
X118816666Y-97104819D02*
X118721428Y-97104819D01*
X118721428Y-97104819D02*
X118578571Y-97057200D01*
X118578571Y-97057200D02*
X118483333Y-96961961D01*
X118483333Y-96961961D02*
X118435714Y-96866723D01*
X118435714Y-96866723D02*
X118388095Y-96676247D01*
X118388095Y-96676247D02*
X118388095Y-96533390D01*
X118388095Y-96533390D02*
X118435714Y-96342914D01*
X118435714Y-96342914D02*
X118483333Y-96247676D01*
X118483333Y-96247676D02*
X118578571Y-96152438D01*
X118578571Y-96152438D02*
X118721428Y-96104819D01*
X118721428Y-96104819D02*
X118816666Y-96104819D01*
X118816666Y-96104819D02*
X118959523Y-96152438D01*
X118959523Y-96152438D02*
X119007142Y-96200057D01*
X119959523Y-97104819D02*
X119388095Y-97104819D01*
X119673809Y-97104819D02*
X119673809Y-96104819D01*
X119673809Y-96104819D02*
X119578571Y-96247676D01*
X119578571Y-96247676D02*
X119483333Y-96342914D01*
X119483333Y-96342914D02*
X119388095Y-96390533D01*
X120292857Y-96104819D02*
X120911904Y-96104819D01*
X120911904Y-96104819D02*
X120578571Y-96485771D01*
X120578571Y-96485771D02*
X120721428Y-96485771D01*
X120721428Y-96485771D02*
X120816666Y-96533390D01*
X120816666Y-96533390D02*
X120864285Y-96581009D01*
X120864285Y-96581009D02*
X120911904Y-96676247D01*
X120911904Y-96676247D02*
X120911904Y-96914342D01*
X120911904Y-96914342D02*
X120864285Y-97009580D01*
X120864285Y-97009580D02*
X120816666Y-97057200D01*
X120816666Y-97057200D02*
X120721428Y-97104819D01*
X120721428Y-97104819D02*
X120435714Y-97104819D01*
X120435714Y-97104819D02*
X120340476Y-97057200D01*
X120340476Y-97057200D02*
X120292857Y-97009580D01*
X133884819Y-57738094D02*
X132884819Y-57738094D01*
X132884819Y-57738094D02*
X132884819Y-57499999D01*
X132884819Y-57499999D02*
X132932438Y-57357142D01*
X132932438Y-57357142D02*
X133027676Y-57261904D01*
X133027676Y-57261904D02*
X133122914Y-57214285D01*
X133122914Y-57214285D02*
X133313390Y-57166666D01*
X133313390Y-57166666D02*
X133456247Y-57166666D01*
X133456247Y-57166666D02*
X133646723Y-57214285D01*
X133646723Y-57214285D02*
X133741961Y-57261904D01*
X133741961Y-57261904D02*
X133837200Y-57357142D01*
X133837200Y-57357142D02*
X133884819Y-57499999D01*
X133884819Y-57499999D02*
X133884819Y-57738094D01*
X132980057Y-56785713D02*
X132932438Y-56738094D01*
X132932438Y-56738094D02*
X132884819Y-56642856D01*
X132884819Y-56642856D02*
X132884819Y-56404761D01*
X132884819Y-56404761D02*
X132932438Y-56309523D01*
X132932438Y-56309523D02*
X132980057Y-56261904D01*
X132980057Y-56261904D02*
X133075295Y-56214285D01*
X133075295Y-56214285D02*
X133170533Y-56214285D01*
X133170533Y-56214285D02*
X133313390Y-56261904D01*
X133313390Y-56261904D02*
X133884819Y-56833332D01*
X133884819Y-56833332D02*
X133884819Y-56214285D01*
X101457142Y-132059580D02*
X101409523Y-132107200D01*
X101409523Y-132107200D02*
X101266666Y-132154819D01*
X101266666Y-132154819D02*
X101171428Y-132154819D01*
X101171428Y-132154819D02*
X101028571Y-132107200D01*
X101028571Y-132107200D02*
X100933333Y-132011961D01*
X100933333Y-132011961D02*
X100885714Y-131916723D01*
X100885714Y-131916723D02*
X100838095Y-131726247D01*
X100838095Y-131726247D02*
X100838095Y-131583390D01*
X100838095Y-131583390D02*
X100885714Y-131392914D01*
X100885714Y-131392914D02*
X100933333Y-131297676D01*
X100933333Y-131297676D02*
X101028571Y-131202438D01*
X101028571Y-131202438D02*
X101171428Y-131154819D01*
X101171428Y-131154819D02*
X101266666Y-131154819D01*
X101266666Y-131154819D02*
X101409523Y-131202438D01*
X101409523Y-131202438D02*
X101457142Y-131250057D01*
X101838095Y-131250057D02*
X101885714Y-131202438D01*
X101885714Y-131202438D02*
X101980952Y-131154819D01*
X101980952Y-131154819D02*
X102219047Y-131154819D01*
X102219047Y-131154819D02*
X102314285Y-131202438D01*
X102314285Y-131202438D02*
X102361904Y-131250057D01*
X102361904Y-131250057D02*
X102409523Y-131345295D01*
X102409523Y-131345295D02*
X102409523Y-131440533D01*
X102409523Y-131440533D02*
X102361904Y-131583390D01*
X102361904Y-131583390D02*
X101790476Y-132154819D01*
X101790476Y-132154819D02*
X102409523Y-132154819D01*
X103266666Y-131154819D02*
X103076190Y-131154819D01*
X103076190Y-131154819D02*
X102980952Y-131202438D01*
X102980952Y-131202438D02*
X102933333Y-131250057D01*
X102933333Y-131250057D02*
X102838095Y-131392914D01*
X102838095Y-131392914D02*
X102790476Y-131583390D01*
X102790476Y-131583390D02*
X102790476Y-131964342D01*
X102790476Y-131964342D02*
X102838095Y-132059580D01*
X102838095Y-132059580D02*
X102885714Y-132107200D01*
X102885714Y-132107200D02*
X102980952Y-132154819D01*
X102980952Y-132154819D02*
X103171428Y-132154819D01*
X103171428Y-132154819D02*
X103266666Y-132107200D01*
X103266666Y-132107200D02*
X103314285Y-132059580D01*
X103314285Y-132059580D02*
X103361904Y-131964342D01*
X103361904Y-131964342D02*
X103361904Y-131726247D01*
X103361904Y-131726247D02*
X103314285Y-131631009D01*
X103314285Y-131631009D02*
X103266666Y-131583390D01*
X103266666Y-131583390D02*
X103171428Y-131535771D01*
X103171428Y-131535771D02*
X102980952Y-131535771D01*
X102980952Y-131535771D02*
X102885714Y-131583390D01*
X102885714Y-131583390D02*
X102838095Y-131631009D01*
X102838095Y-131631009D02*
X102790476Y-131726247D01*
X122719833Y-85534819D02*
X122386500Y-85058628D01*
X122148405Y-85534819D02*
X122148405Y-84534819D01*
X122148405Y-84534819D02*
X122529357Y-84534819D01*
X122529357Y-84534819D02*
X122624595Y-84582438D01*
X122624595Y-84582438D02*
X122672214Y-84630057D01*
X122672214Y-84630057D02*
X122719833Y-84725295D01*
X122719833Y-84725295D02*
X122719833Y-84868152D01*
X122719833Y-84868152D02*
X122672214Y-84963390D01*
X122672214Y-84963390D02*
X122624595Y-85011009D01*
X122624595Y-85011009D02*
X122529357Y-85058628D01*
X122529357Y-85058628D02*
X122148405Y-85058628D01*
X123624595Y-84534819D02*
X123148405Y-84534819D01*
X123148405Y-84534819D02*
X123100786Y-85011009D01*
X123100786Y-85011009D02*
X123148405Y-84963390D01*
X123148405Y-84963390D02*
X123243643Y-84915771D01*
X123243643Y-84915771D02*
X123481738Y-84915771D01*
X123481738Y-84915771D02*
X123576976Y-84963390D01*
X123576976Y-84963390D02*
X123624595Y-85011009D01*
X123624595Y-85011009D02*
X123672214Y-85106247D01*
X123672214Y-85106247D02*
X123672214Y-85344342D01*
X123672214Y-85344342D02*
X123624595Y-85439580D01*
X123624595Y-85439580D02*
X123576976Y-85487200D01*
X123576976Y-85487200D02*
X123481738Y-85534819D01*
X123481738Y-85534819D02*
X123243643Y-85534819D01*
X123243643Y-85534819D02*
X123148405Y-85487200D01*
X123148405Y-85487200D02*
X123100786Y-85439580D01*
X137883333Y-86704819D02*
X137550000Y-86228628D01*
X137311905Y-86704819D02*
X137311905Y-85704819D01*
X137311905Y-85704819D02*
X137692857Y-85704819D01*
X137692857Y-85704819D02*
X137788095Y-85752438D01*
X137788095Y-85752438D02*
X137835714Y-85800057D01*
X137835714Y-85800057D02*
X137883333Y-85895295D01*
X137883333Y-85895295D02*
X137883333Y-86038152D01*
X137883333Y-86038152D02*
X137835714Y-86133390D01*
X137835714Y-86133390D02*
X137788095Y-86181009D01*
X137788095Y-86181009D02*
X137692857Y-86228628D01*
X137692857Y-86228628D02*
X137311905Y-86228628D01*
X138835714Y-86704819D02*
X138264286Y-86704819D01*
X138550000Y-86704819D02*
X138550000Y-85704819D01*
X138550000Y-85704819D02*
X138454762Y-85847676D01*
X138454762Y-85847676D02*
X138359524Y-85942914D01*
X138359524Y-85942914D02*
X138264286Y-85990533D01*
X128333333Y-84759580D02*
X128285714Y-84807200D01*
X128285714Y-84807200D02*
X128142857Y-84854819D01*
X128142857Y-84854819D02*
X128047619Y-84854819D01*
X128047619Y-84854819D02*
X127904762Y-84807200D01*
X127904762Y-84807200D02*
X127809524Y-84711961D01*
X127809524Y-84711961D02*
X127761905Y-84616723D01*
X127761905Y-84616723D02*
X127714286Y-84426247D01*
X127714286Y-84426247D02*
X127714286Y-84283390D01*
X127714286Y-84283390D02*
X127761905Y-84092914D01*
X127761905Y-84092914D02*
X127809524Y-83997676D01*
X127809524Y-83997676D02*
X127904762Y-83902438D01*
X127904762Y-83902438D02*
X128047619Y-83854819D01*
X128047619Y-83854819D02*
X128142857Y-83854819D01*
X128142857Y-83854819D02*
X128285714Y-83902438D01*
X128285714Y-83902438D02*
X128333333Y-83950057D01*
X128809524Y-84854819D02*
X129000000Y-84854819D01*
X129000000Y-84854819D02*
X129095238Y-84807200D01*
X129095238Y-84807200D02*
X129142857Y-84759580D01*
X129142857Y-84759580D02*
X129238095Y-84616723D01*
X129238095Y-84616723D02*
X129285714Y-84426247D01*
X129285714Y-84426247D02*
X129285714Y-84045295D01*
X129285714Y-84045295D02*
X129238095Y-83950057D01*
X129238095Y-83950057D02*
X129190476Y-83902438D01*
X129190476Y-83902438D02*
X129095238Y-83854819D01*
X129095238Y-83854819D02*
X128904762Y-83854819D01*
X128904762Y-83854819D02*
X128809524Y-83902438D01*
X128809524Y-83902438D02*
X128761905Y-83950057D01*
X128761905Y-83950057D02*
X128714286Y-84045295D01*
X128714286Y-84045295D02*
X128714286Y-84283390D01*
X128714286Y-84283390D02*
X128761905Y-84378628D01*
X128761905Y-84378628D02*
X128809524Y-84426247D01*
X128809524Y-84426247D02*
X128904762Y-84473866D01*
X128904762Y-84473866D02*
X129095238Y-84473866D01*
X129095238Y-84473866D02*
X129190476Y-84426247D01*
X129190476Y-84426247D02*
X129238095Y-84378628D01*
X129238095Y-84378628D02*
X129285714Y-84283390D01*
X115757142Y-129644580D02*
X115709523Y-129692200D01*
X115709523Y-129692200D02*
X115566666Y-129739819D01*
X115566666Y-129739819D02*
X115471428Y-129739819D01*
X115471428Y-129739819D02*
X115328571Y-129692200D01*
X115328571Y-129692200D02*
X115233333Y-129596961D01*
X115233333Y-129596961D02*
X115185714Y-129501723D01*
X115185714Y-129501723D02*
X115138095Y-129311247D01*
X115138095Y-129311247D02*
X115138095Y-129168390D01*
X115138095Y-129168390D02*
X115185714Y-128977914D01*
X115185714Y-128977914D02*
X115233333Y-128882676D01*
X115233333Y-128882676D02*
X115328571Y-128787438D01*
X115328571Y-128787438D02*
X115471428Y-128739819D01*
X115471428Y-128739819D02*
X115566666Y-128739819D01*
X115566666Y-128739819D02*
X115709523Y-128787438D01*
X115709523Y-128787438D02*
X115757142Y-128835057D01*
X116138095Y-128835057D02*
X116185714Y-128787438D01*
X116185714Y-128787438D02*
X116280952Y-128739819D01*
X116280952Y-128739819D02*
X116519047Y-128739819D01*
X116519047Y-128739819D02*
X116614285Y-128787438D01*
X116614285Y-128787438D02*
X116661904Y-128835057D01*
X116661904Y-128835057D02*
X116709523Y-128930295D01*
X116709523Y-128930295D02*
X116709523Y-129025533D01*
X116709523Y-129025533D02*
X116661904Y-129168390D01*
X116661904Y-129168390D02*
X116090476Y-129739819D01*
X116090476Y-129739819D02*
X116709523Y-129739819D01*
X117280952Y-129168390D02*
X117185714Y-129120771D01*
X117185714Y-129120771D02*
X117138095Y-129073152D01*
X117138095Y-129073152D02*
X117090476Y-128977914D01*
X117090476Y-128977914D02*
X117090476Y-128930295D01*
X117090476Y-128930295D02*
X117138095Y-128835057D01*
X117138095Y-128835057D02*
X117185714Y-128787438D01*
X117185714Y-128787438D02*
X117280952Y-128739819D01*
X117280952Y-128739819D02*
X117471428Y-128739819D01*
X117471428Y-128739819D02*
X117566666Y-128787438D01*
X117566666Y-128787438D02*
X117614285Y-128835057D01*
X117614285Y-128835057D02*
X117661904Y-128930295D01*
X117661904Y-128930295D02*
X117661904Y-128977914D01*
X117661904Y-128977914D02*
X117614285Y-129073152D01*
X117614285Y-129073152D02*
X117566666Y-129120771D01*
X117566666Y-129120771D02*
X117471428Y-129168390D01*
X117471428Y-129168390D02*
X117280952Y-129168390D01*
X117280952Y-129168390D02*
X117185714Y-129216009D01*
X117185714Y-129216009D02*
X117138095Y-129263628D01*
X117138095Y-129263628D02*
X117090476Y-129358866D01*
X117090476Y-129358866D02*
X117090476Y-129549342D01*
X117090476Y-129549342D02*
X117138095Y-129644580D01*
X117138095Y-129644580D02*
X117185714Y-129692200D01*
X117185714Y-129692200D02*
X117280952Y-129739819D01*
X117280952Y-129739819D02*
X117471428Y-129739819D01*
X117471428Y-129739819D02*
X117566666Y-129692200D01*
X117566666Y-129692200D02*
X117614285Y-129644580D01*
X117614285Y-129644580D02*
X117661904Y-129549342D01*
X117661904Y-129549342D02*
X117661904Y-129358866D01*
X117661904Y-129358866D02*
X117614285Y-129263628D01*
X117614285Y-129263628D02*
X117566666Y-129216009D01*
X117566666Y-129216009D02*
X117471428Y-129168390D01*
X141407142Y-99356080D02*
X141359523Y-99403700D01*
X141359523Y-99403700D02*
X141216666Y-99451319D01*
X141216666Y-99451319D02*
X141121428Y-99451319D01*
X141121428Y-99451319D02*
X140978571Y-99403700D01*
X140978571Y-99403700D02*
X140883333Y-99308461D01*
X140883333Y-99308461D02*
X140835714Y-99213223D01*
X140835714Y-99213223D02*
X140788095Y-99022747D01*
X140788095Y-99022747D02*
X140788095Y-98879890D01*
X140788095Y-98879890D02*
X140835714Y-98689414D01*
X140835714Y-98689414D02*
X140883333Y-98594176D01*
X140883333Y-98594176D02*
X140978571Y-98498938D01*
X140978571Y-98498938D02*
X141121428Y-98451319D01*
X141121428Y-98451319D02*
X141216666Y-98451319D01*
X141216666Y-98451319D02*
X141359523Y-98498938D01*
X141359523Y-98498938D02*
X141407142Y-98546557D01*
X142359523Y-99451319D02*
X141788095Y-99451319D01*
X142073809Y-99451319D02*
X142073809Y-98451319D01*
X142073809Y-98451319D02*
X141978571Y-98594176D01*
X141978571Y-98594176D02*
X141883333Y-98689414D01*
X141883333Y-98689414D02*
X141788095Y-98737033D01*
X143264285Y-98451319D02*
X142788095Y-98451319D01*
X142788095Y-98451319D02*
X142740476Y-98927509D01*
X142740476Y-98927509D02*
X142788095Y-98879890D01*
X142788095Y-98879890D02*
X142883333Y-98832271D01*
X142883333Y-98832271D02*
X143121428Y-98832271D01*
X143121428Y-98832271D02*
X143216666Y-98879890D01*
X143216666Y-98879890D02*
X143264285Y-98927509D01*
X143264285Y-98927509D02*
X143311904Y-99022747D01*
X143311904Y-99022747D02*
X143311904Y-99260842D01*
X143311904Y-99260842D02*
X143264285Y-99356080D01*
X143264285Y-99356080D02*
X143216666Y-99403700D01*
X143216666Y-99403700D02*
X143121428Y-99451319D01*
X143121428Y-99451319D02*
X142883333Y-99451319D01*
X142883333Y-99451319D02*
X142788095Y-99403700D01*
X142788095Y-99403700D02*
X142740476Y-99356080D01*
X146457142Y-132259580D02*
X146409523Y-132307200D01*
X146409523Y-132307200D02*
X146266666Y-132354819D01*
X146266666Y-132354819D02*
X146171428Y-132354819D01*
X146171428Y-132354819D02*
X146028571Y-132307200D01*
X146028571Y-132307200D02*
X145933333Y-132211961D01*
X145933333Y-132211961D02*
X145885714Y-132116723D01*
X145885714Y-132116723D02*
X145838095Y-131926247D01*
X145838095Y-131926247D02*
X145838095Y-131783390D01*
X145838095Y-131783390D02*
X145885714Y-131592914D01*
X145885714Y-131592914D02*
X145933333Y-131497676D01*
X145933333Y-131497676D02*
X146028571Y-131402438D01*
X146028571Y-131402438D02*
X146171428Y-131354819D01*
X146171428Y-131354819D02*
X146266666Y-131354819D01*
X146266666Y-131354819D02*
X146409523Y-131402438D01*
X146409523Y-131402438D02*
X146457142Y-131450057D01*
X146790476Y-131354819D02*
X147409523Y-131354819D01*
X147409523Y-131354819D02*
X147076190Y-131735771D01*
X147076190Y-131735771D02*
X147219047Y-131735771D01*
X147219047Y-131735771D02*
X147314285Y-131783390D01*
X147314285Y-131783390D02*
X147361904Y-131831009D01*
X147361904Y-131831009D02*
X147409523Y-131926247D01*
X147409523Y-131926247D02*
X147409523Y-132164342D01*
X147409523Y-132164342D02*
X147361904Y-132259580D01*
X147361904Y-132259580D02*
X147314285Y-132307200D01*
X147314285Y-132307200D02*
X147219047Y-132354819D01*
X147219047Y-132354819D02*
X146933333Y-132354819D01*
X146933333Y-132354819D02*
X146838095Y-132307200D01*
X146838095Y-132307200D02*
X146790476Y-132259580D01*
X148361904Y-132354819D02*
X147790476Y-132354819D01*
X148076190Y-132354819D02*
X148076190Y-131354819D01*
X148076190Y-131354819D02*
X147980952Y-131497676D01*
X147980952Y-131497676D02*
X147885714Y-131592914D01*
X147885714Y-131592914D02*
X147790476Y-131640533D01*
X131357142Y-132259580D02*
X131309523Y-132307200D01*
X131309523Y-132307200D02*
X131166666Y-132354819D01*
X131166666Y-132354819D02*
X131071428Y-132354819D01*
X131071428Y-132354819D02*
X130928571Y-132307200D01*
X130928571Y-132307200D02*
X130833333Y-132211961D01*
X130833333Y-132211961D02*
X130785714Y-132116723D01*
X130785714Y-132116723D02*
X130738095Y-131926247D01*
X130738095Y-131926247D02*
X130738095Y-131783390D01*
X130738095Y-131783390D02*
X130785714Y-131592914D01*
X130785714Y-131592914D02*
X130833333Y-131497676D01*
X130833333Y-131497676D02*
X130928571Y-131402438D01*
X130928571Y-131402438D02*
X131071428Y-131354819D01*
X131071428Y-131354819D02*
X131166666Y-131354819D01*
X131166666Y-131354819D02*
X131309523Y-131402438D01*
X131309523Y-131402438D02*
X131357142Y-131450057D01*
X131738095Y-131450057D02*
X131785714Y-131402438D01*
X131785714Y-131402438D02*
X131880952Y-131354819D01*
X131880952Y-131354819D02*
X132119047Y-131354819D01*
X132119047Y-131354819D02*
X132214285Y-131402438D01*
X132214285Y-131402438D02*
X132261904Y-131450057D01*
X132261904Y-131450057D02*
X132309523Y-131545295D01*
X132309523Y-131545295D02*
X132309523Y-131640533D01*
X132309523Y-131640533D02*
X132261904Y-131783390D01*
X132261904Y-131783390D02*
X131690476Y-132354819D01*
X131690476Y-132354819D02*
X132309523Y-132354819D01*
X132642857Y-131354819D02*
X133309523Y-131354819D01*
X133309523Y-131354819D02*
X132880952Y-132354819D01*
X121790476Y-50554819D02*
X121790476Y-51269104D01*
X121790476Y-51269104D02*
X121742857Y-51411961D01*
X121742857Y-51411961D02*
X121647619Y-51507200D01*
X121647619Y-51507200D02*
X121504762Y-51554819D01*
X121504762Y-51554819D02*
X121409524Y-51554819D01*
X122790476Y-51554819D02*
X122219048Y-51554819D01*
X122504762Y-51554819D02*
X122504762Y-50554819D01*
X122504762Y-50554819D02*
X122409524Y-50697676D01*
X122409524Y-50697676D02*
X122314286Y-50792914D01*
X122314286Y-50792914D02*
X122219048Y-50840533D01*
X123123810Y-50554819D02*
X123742857Y-50554819D01*
X123742857Y-50554819D02*
X123409524Y-50935771D01*
X123409524Y-50935771D02*
X123552381Y-50935771D01*
X123552381Y-50935771D02*
X123647619Y-50983390D01*
X123647619Y-50983390D02*
X123695238Y-51031009D01*
X123695238Y-51031009D02*
X123742857Y-51126247D01*
X123742857Y-51126247D02*
X123742857Y-51364342D01*
X123742857Y-51364342D02*
X123695238Y-51459580D01*
X123695238Y-51459580D02*
X123647619Y-51507200D01*
X123647619Y-51507200D02*
X123552381Y-51554819D01*
X123552381Y-51554819D02*
X123266667Y-51554819D01*
X123266667Y-51554819D02*
X123171429Y-51507200D01*
X123171429Y-51507200D02*
X123123810Y-51459580D01*
X75039642Y-68867080D02*
X74992023Y-68914700D01*
X74992023Y-68914700D02*
X74849166Y-68962319D01*
X74849166Y-68962319D02*
X74753928Y-68962319D01*
X74753928Y-68962319D02*
X74611071Y-68914700D01*
X74611071Y-68914700D02*
X74515833Y-68819461D01*
X74515833Y-68819461D02*
X74468214Y-68724223D01*
X74468214Y-68724223D02*
X74420595Y-68533747D01*
X74420595Y-68533747D02*
X74420595Y-68390890D01*
X74420595Y-68390890D02*
X74468214Y-68200414D01*
X74468214Y-68200414D02*
X74515833Y-68105176D01*
X74515833Y-68105176D02*
X74611071Y-68009938D01*
X74611071Y-68009938D02*
X74753928Y-67962319D01*
X74753928Y-67962319D02*
X74849166Y-67962319D01*
X74849166Y-67962319D02*
X74992023Y-68009938D01*
X74992023Y-68009938D02*
X75039642Y-68057557D01*
X75420595Y-68057557D02*
X75468214Y-68009938D01*
X75468214Y-68009938D02*
X75563452Y-67962319D01*
X75563452Y-67962319D02*
X75801547Y-67962319D01*
X75801547Y-67962319D02*
X75896785Y-68009938D01*
X75896785Y-68009938D02*
X75944404Y-68057557D01*
X75944404Y-68057557D02*
X75992023Y-68152795D01*
X75992023Y-68152795D02*
X75992023Y-68248033D01*
X75992023Y-68248033D02*
X75944404Y-68390890D01*
X75944404Y-68390890D02*
X75372976Y-68962319D01*
X75372976Y-68962319D02*
X75992023Y-68962319D01*
X76611071Y-67962319D02*
X76706309Y-67962319D01*
X76706309Y-67962319D02*
X76801547Y-68009938D01*
X76801547Y-68009938D02*
X76849166Y-68057557D01*
X76849166Y-68057557D02*
X76896785Y-68152795D01*
X76896785Y-68152795D02*
X76944404Y-68343271D01*
X76944404Y-68343271D02*
X76944404Y-68581366D01*
X76944404Y-68581366D02*
X76896785Y-68771842D01*
X76896785Y-68771842D02*
X76849166Y-68867080D01*
X76849166Y-68867080D02*
X76801547Y-68914700D01*
X76801547Y-68914700D02*
X76706309Y-68962319D01*
X76706309Y-68962319D02*
X76611071Y-68962319D01*
X76611071Y-68962319D02*
X76515833Y-68914700D01*
X76515833Y-68914700D02*
X76468214Y-68867080D01*
X76468214Y-68867080D02*
X76420595Y-68771842D01*
X76420595Y-68771842D02*
X76372976Y-68581366D01*
X76372976Y-68581366D02*
X76372976Y-68343271D01*
X76372976Y-68343271D02*
X76420595Y-68152795D01*
X76420595Y-68152795D02*
X76468214Y-68057557D01*
X76468214Y-68057557D02*
X76515833Y-68009938D01*
X76515833Y-68009938D02*
X76611071Y-67962319D01*
X142383333Y-93956080D02*
X142335714Y-94003700D01*
X142335714Y-94003700D02*
X142192857Y-94051319D01*
X142192857Y-94051319D02*
X142097619Y-94051319D01*
X142097619Y-94051319D02*
X141954762Y-94003700D01*
X141954762Y-94003700D02*
X141859524Y-93908461D01*
X141859524Y-93908461D02*
X141811905Y-93813223D01*
X141811905Y-93813223D02*
X141764286Y-93622747D01*
X141764286Y-93622747D02*
X141764286Y-93479890D01*
X141764286Y-93479890D02*
X141811905Y-93289414D01*
X141811905Y-93289414D02*
X141859524Y-93194176D01*
X141859524Y-93194176D02*
X141954762Y-93098938D01*
X141954762Y-93098938D02*
X142097619Y-93051319D01*
X142097619Y-93051319D02*
X142192857Y-93051319D01*
X142192857Y-93051319D02*
X142335714Y-93098938D01*
X142335714Y-93098938D02*
X142383333Y-93146557D01*
X142954762Y-93479890D02*
X142859524Y-93432271D01*
X142859524Y-93432271D02*
X142811905Y-93384652D01*
X142811905Y-93384652D02*
X142764286Y-93289414D01*
X142764286Y-93289414D02*
X142764286Y-93241795D01*
X142764286Y-93241795D02*
X142811905Y-93146557D01*
X142811905Y-93146557D02*
X142859524Y-93098938D01*
X142859524Y-93098938D02*
X142954762Y-93051319D01*
X142954762Y-93051319D02*
X143145238Y-93051319D01*
X143145238Y-93051319D02*
X143240476Y-93098938D01*
X143240476Y-93098938D02*
X143288095Y-93146557D01*
X143288095Y-93146557D02*
X143335714Y-93241795D01*
X143335714Y-93241795D02*
X143335714Y-93289414D01*
X143335714Y-93289414D02*
X143288095Y-93384652D01*
X143288095Y-93384652D02*
X143240476Y-93432271D01*
X143240476Y-93432271D02*
X143145238Y-93479890D01*
X143145238Y-93479890D02*
X142954762Y-93479890D01*
X142954762Y-93479890D02*
X142859524Y-93527509D01*
X142859524Y-93527509D02*
X142811905Y-93575128D01*
X142811905Y-93575128D02*
X142764286Y-93670366D01*
X142764286Y-93670366D02*
X142764286Y-93860842D01*
X142764286Y-93860842D02*
X142811905Y-93956080D01*
X142811905Y-93956080D02*
X142859524Y-94003700D01*
X142859524Y-94003700D02*
X142954762Y-94051319D01*
X142954762Y-94051319D02*
X143145238Y-94051319D01*
X143145238Y-94051319D02*
X143240476Y-94003700D01*
X143240476Y-94003700D02*
X143288095Y-93956080D01*
X143288095Y-93956080D02*
X143335714Y-93860842D01*
X143335714Y-93860842D02*
X143335714Y-93670366D01*
X143335714Y-93670366D02*
X143288095Y-93575128D01*
X143288095Y-93575128D02*
X143240476Y-93527509D01*
X143240476Y-93527509D02*
X143145238Y-93479890D01*
X133733333Y-102959580D02*
X133685714Y-103007200D01*
X133685714Y-103007200D02*
X133542857Y-103054819D01*
X133542857Y-103054819D02*
X133447619Y-103054819D01*
X133447619Y-103054819D02*
X133304762Y-103007200D01*
X133304762Y-103007200D02*
X133209524Y-102911961D01*
X133209524Y-102911961D02*
X133161905Y-102816723D01*
X133161905Y-102816723D02*
X133114286Y-102626247D01*
X133114286Y-102626247D02*
X133114286Y-102483390D01*
X133114286Y-102483390D02*
X133161905Y-102292914D01*
X133161905Y-102292914D02*
X133209524Y-102197676D01*
X133209524Y-102197676D02*
X133304762Y-102102438D01*
X133304762Y-102102438D02*
X133447619Y-102054819D01*
X133447619Y-102054819D02*
X133542857Y-102054819D01*
X133542857Y-102054819D02*
X133685714Y-102102438D01*
X133685714Y-102102438D02*
X133733333Y-102150057D01*
X134066667Y-102054819D02*
X134733333Y-102054819D01*
X134733333Y-102054819D02*
X134304762Y-103054819D01*
X74157142Y-132744819D02*
X73823809Y-132268628D01*
X73585714Y-132744819D02*
X73585714Y-131744819D01*
X73585714Y-131744819D02*
X73966666Y-131744819D01*
X73966666Y-131744819D02*
X74061904Y-131792438D01*
X74061904Y-131792438D02*
X74109523Y-131840057D01*
X74109523Y-131840057D02*
X74157142Y-131935295D01*
X74157142Y-131935295D02*
X74157142Y-132078152D01*
X74157142Y-132078152D02*
X74109523Y-132173390D01*
X74109523Y-132173390D02*
X74061904Y-132221009D01*
X74061904Y-132221009D02*
X73966666Y-132268628D01*
X73966666Y-132268628D02*
X73585714Y-132268628D01*
X75109523Y-132744819D02*
X74538095Y-132744819D01*
X74823809Y-132744819D02*
X74823809Y-131744819D01*
X74823809Y-131744819D02*
X74728571Y-131887676D01*
X74728571Y-131887676D02*
X74633333Y-131982914D01*
X74633333Y-131982914D02*
X74538095Y-132030533D01*
X75442857Y-131744819D02*
X76061904Y-131744819D01*
X76061904Y-131744819D02*
X75728571Y-132125771D01*
X75728571Y-132125771D02*
X75871428Y-132125771D01*
X75871428Y-132125771D02*
X75966666Y-132173390D01*
X75966666Y-132173390D02*
X76014285Y-132221009D01*
X76014285Y-132221009D02*
X76061904Y-132316247D01*
X76061904Y-132316247D02*
X76061904Y-132554342D01*
X76061904Y-132554342D02*
X76014285Y-132649580D01*
X76014285Y-132649580D02*
X75966666Y-132697200D01*
X75966666Y-132697200D02*
X75871428Y-132744819D01*
X75871428Y-132744819D02*
X75585714Y-132744819D01*
X75585714Y-132744819D02*
X75490476Y-132697200D01*
X75490476Y-132697200D02*
X75442857Y-132649580D01*
X80816667Y-94007200D02*
X80959524Y-94054819D01*
X80959524Y-94054819D02*
X81197619Y-94054819D01*
X81197619Y-94054819D02*
X81292857Y-94007200D01*
X81292857Y-94007200D02*
X81340476Y-93959580D01*
X81340476Y-93959580D02*
X81388095Y-93864342D01*
X81388095Y-93864342D02*
X81388095Y-93769104D01*
X81388095Y-93769104D02*
X81340476Y-93673866D01*
X81340476Y-93673866D02*
X81292857Y-93626247D01*
X81292857Y-93626247D02*
X81197619Y-93578628D01*
X81197619Y-93578628D02*
X81007143Y-93531009D01*
X81007143Y-93531009D02*
X80911905Y-93483390D01*
X80911905Y-93483390D02*
X80864286Y-93435771D01*
X80864286Y-93435771D02*
X80816667Y-93340533D01*
X80816667Y-93340533D02*
X80816667Y-93245295D01*
X80816667Y-93245295D02*
X80864286Y-93150057D01*
X80864286Y-93150057D02*
X80911905Y-93102438D01*
X80911905Y-93102438D02*
X81007143Y-93054819D01*
X81007143Y-93054819D02*
X81245238Y-93054819D01*
X81245238Y-93054819D02*
X81388095Y-93102438D01*
X81721429Y-93054819D02*
X81959524Y-94054819D01*
X81959524Y-94054819D02*
X82150000Y-93340533D01*
X82150000Y-93340533D02*
X82340476Y-94054819D01*
X82340476Y-94054819D02*
X82578572Y-93054819D01*
X83483333Y-94054819D02*
X82911905Y-94054819D01*
X83197619Y-94054819D02*
X83197619Y-93054819D01*
X83197619Y-93054819D02*
X83102381Y-93197676D01*
X83102381Y-93197676D02*
X83007143Y-93292914D01*
X83007143Y-93292914D02*
X82911905Y-93340533D01*
X91738095Y-68354819D02*
X91738095Y-69164342D01*
X91738095Y-69164342D02*
X91785714Y-69259580D01*
X91785714Y-69259580D02*
X91833333Y-69307200D01*
X91833333Y-69307200D02*
X91928571Y-69354819D01*
X91928571Y-69354819D02*
X92119047Y-69354819D01*
X92119047Y-69354819D02*
X92214285Y-69307200D01*
X92214285Y-69307200D02*
X92261904Y-69259580D01*
X92261904Y-69259580D02*
X92309523Y-69164342D01*
X92309523Y-69164342D02*
X92309523Y-68354819D01*
X92690476Y-68354819D02*
X93309523Y-68354819D01*
X93309523Y-68354819D02*
X92976190Y-68735771D01*
X92976190Y-68735771D02*
X93119047Y-68735771D01*
X93119047Y-68735771D02*
X93214285Y-68783390D01*
X93214285Y-68783390D02*
X93261904Y-68831009D01*
X93261904Y-68831009D02*
X93309523Y-68926247D01*
X93309523Y-68926247D02*
X93309523Y-69164342D01*
X93309523Y-69164342D02*
X93261904Y-69259580D01*
X93261904Y-69259580D02*
X93214285Y-69307200D01*
X93214285Y-69307200D02*
X93119047Y-69354819D01*
X93119047Y-69354819D02*
X92833333Y-69354819D01*
X92833333Y-69354819D02*
X92738095Y-69307200D01*
X92738095Y-69307200D02*
X92690476Y-69259580D01*
X127657142Y-85859580D02*
X127609523Y-85907200D01*
X127609523Y-85907200D02*
X127466666Y-85954819D01*
X127466666Y-85954819D02*
X127371428Y-85954819D01*
X127371428Y-85954819D02*
X127228571Y-85907200D01*
X127228571Y-85907200D02*
X127133333Y-85811961D01*
X127133333Y-85811961D02*
X127085714Y-85716723D01*
X127085714Y-85716723D02*
X127038095Y-85526247D01*
X127038095Y-85526247D02*
X127038095Y-85383390D01*
X127038095Y-85383390D02*
X127085714Y-85192914D01*
X127085714Y-85192914D02*
X127133333Y-85097676D01*
X127133333Y-85097676D02*
X127228571Y-85002438D01*
X127228571Y-85002438D02*
X127371428Y-84954819D01*
X127371428Y-84954819D02*
X127466666Y-84954819D01*
X127466666Y-84954819D02*
X127609523Y-85002438D01*
X127609523Y-85002438D02*
X127657142Y-85050057D01*
X128609523Y-85954819D02*
X128038095Y-85954819D01*
X128323809Y-85954819D02*
X128323809Y-84954819D01*
X128323809Y-84954819D02*
X128228571Y-85097676D01*
X128228571Y-85097676D02*
X128133333Y-85192914D01*
X128133333Y-85192914D02*
X128038095Y-85240533D01*
X129561904Y-85954819D02*
X128990476Y-85954819D01*
X129276190Y-85954819D02*
X129276190Y-84954819D01*
X129276190Y-84954819D02*
X129180952Y-85097676D01*
X129180952Y-85097676D02*
X129085714Y-85192914D01*
X129085714Y-85192914D02*
X128990476Y-85240533D01*
X100857142Y-129874580D02*
X100809523Y-129922200D01*
X100809523Y-129922200D02*
X100666666Y-129969819D01*
X100666666Y-129969819D02*
X100571428Y-129969819D01*
X100571428Y-129969819D02*
X100428571Y-129922200D01*
X100428571Y-129922200D02*
X100333333Y-129826961D01*
X100333333Y-129826961D02*
X100285714Y-129731723D01*
X100285714Y-129731723D02*
X100238095Y-129541247D01*
X100238095Y-129541247D02*
X100238095Y-129398390D01*
X100238095Y-129398390D02*
X100285714Y-129207914D01*
X100285714Y-129207914D02*
X100333333Y-129112676D01*
X100333333Y-129112676D02*
X100428571Y-129017438D01*
X100428571Y-129017438D02*
X100571428Y-128969819D01*
X100571428Y-128969819D02*
X100666666Y-128969819D01*
X100666666Y-128969819D02*
X100809523Y-129017438D01*
X100809523Y-129017438D02*
X100857142Y-129065057D01*
X101238095Y-129065057D02*
X101285714Y-129017438D01*
X101285714Y-129017438D02*
X101380952Y-128969819D01*
X101380952Y-128969819D02*
X101619047Y-128969819D01*
X101619047Y-128969819D02*
X101714285Y-129017438D01*
X101714285Y-129017438D02*
X101761904Y-129065057D01*
X101761904Y-129065057D02*
X101809523Y-129160295D01*
X101809523Y-129160295D02*
X101809523Y-129255533D01*
X101809523Y-129255533D02*
X101761904Y-129398390D01*
X101761904Y-129398390D02*
X101190476Y-129969819D01*
X101190476Y-129969819D02*
X101809523Y-129969819D01*
X102666666Y-129303152D02*
X102666666Y-129969819D01*
X102428571Y-128922200D02*
X102190476Y-129636485D01*
X102190476Y-129636485D02*
X102809523Y-129636485D01*
X129933333Y-101549819D02*
X129600000Y-101073628D01*
X129361905Y-101549819D02*
X129361905Y-100549819D01*
X129361905Y-100549819D02*
X129742857Y-100549819D01*
X129742857Y-100549819D02*
X129838095Y-100597438D01*
X129838095Y-100597438D02*
X129885714Y-100645057D01*
X129885714Y-100645057D02*
X129933333Y-100740295D01*
X129933333Y-100740295D02*
X129933333Y-100883152D01*
X129933333Y-100883152D02*
X129885714Y-100978390D01*
X129885714Y-100978390D02*
X129838095Y-101026009D01*
X129838095Y-101026009D02*
X129742857Y-101073628D01*
X129742857Y-101073628D02*
X129361905Y-101073628D01*
X130314286Y-100645057D02*
X130361905Y-100597438D01*
X130361905Y-100597438D02*
X130457143Y-100549819D01*
X130457143Y-100549819D02*
X130695238Y-100549819D01*
X130695238Y-100549819D02*
X130790476Y-100597438D01*
X130790476Y-100597438D02*
X130838095Y-100645057D01*
X130838095Y-100645057D02*
X130885714Y-100740295D01*
X130885714Y-100740295D02*
X130885714Y-100835533D01*
X130885714Y-100835533D02*
X130838095Y-100978390D01*
X130838095Y-100978390D02*
X130266667Y-101549819D01*
X130266667Y-101549819D02*
X130885714Y-101549819D01*
X127869048Y-108681342D02*
X127869048Y-109062295D01*
X127602381Y-108262295D02*
X127869048Y-108681342D01*
X127869048Y-108681342D02*
X128135714Y-108262295D01*
X128821428Y-109062295D02*
X128364285Y-109062295D01*
X128592857Y-109062295D02*
X128592857Y-108262295D01*
X128592857Y-108262295D02*
X128516666Y-108376580D01*
X128516666Y-108376580D02*
X128440476Y-108452771D01*
X128440476Y-108452771D02*
X128364285Y-108490866D01*
X124157142Y-102859580D02*
X124109523Y-102907200D01*
X124109523Y-102907200D02*
X123966666Y-102954819D01*
X123966666Y-102954819D02*
X123871428Y-102954819D01*
X123871428Y-102954819D02*
X123728571Y-102907200D01*
X123728571Y-102907200D02*
X123633333Y-102811961D01*
X123633333Y-102811961D02*
X123585714Y-102716723D01*
X123585714Y-102716723D02*
X123538095Y-102526247D01*
X123538095Y-102526247D02*
X123538095Y-102383390D01*
X123538095Y-102383390D02*
X123585714Y-102192914D01*
X123585714Y-102192914D02*
X123633333Y-102097676D01*
X123633333Y-102097676D02*
X123728571Y-102002438D01*
X123728571Y-102002438D02*
X123871428Y-101954819D01*
X123871428Y-101954819D02*
X123966666Y-101954819D01*
X123966666Y-101954819D02*
X124109523Y-102002438D01*
X124109523Y-102002438D02*
X124157142Y-102050057D01*
X125109523Y-102954819D02*
X124538095Y-102954819D01*
X124823809Y-102954819D02*
X124823809Y-101954819D01*
X124823809Y-101954819D02*
X124728571Y-102097676D01*
X124728571Y-102097676D02*
X124633333Y-102192914D01*
X124633333Y-102192914D02*
X124538095Y-102240533D01*
X125442857Y-101954819D02*
X126109523Y-101954819D01*
X126109523Y-101954819D02*
X125680952Y-102954819D01*
X116657142Y-132259580D02*
X116609523Y-132307200D01*
X116609523Y-132307200D02*
X116466666Y-132354819D01*
X116466666Y-132354819D02*
X116371428Y-132354819D01*
X116371428Y-132354819D02*
X116228571Y-132307200D01*
X116228571Y-132307200D02*
X116133333Y-132211961D01*
X116133333Y-132211961D02*
X116085714Y-132116723D01*
X116085714Y-132116723D02*
X116038095Y-131926247D01*
X116038095Y-131926247D02*
X116038095Y-131783390D01*
X116038095Y-131783390D02*
X116085714Y-131592914D01*
X116085714Y-131592914D02*
X116133333Y-131497676D01*
X116133333Y-131497676D02*
X116228571Y-131402438D01*
X116228571Y-131402438D02*
X116371428Y-131354819D01*
X116371428Y-131354819D02*
X116466666Y-131354819D01*
X116466666Y-131354819D02*
X116609523Y-131402438D01*
X116609523Y-131402438D02*
X116657142Y-131450057D01*
X116990476Y-131354819D02*
X117609523Y-131354819D01*
X117609523Y-131354819D02*
X117276190Y-131735771D01*
X117276190Y-131735771D02*
X117419047Y-131735771D01*
X117419047Y-131735771D02*
X117514285Y-131783390D01*
X117514285Y-131783390D02*
X117561904Y-131831009D01*
X117561904Y-131831009D02*
X117609523Y-131926247D01*
X117609523Y-131926247D02*
X117609523Y-132164342D01*
X117609523Y-132164342D02*
X117561904Y-132259580D01*
X117561904Y-132259580D02*
X117514285Y-132307200D01*
X117514285Y-132307200D02*
X117419047Y-132354819D01*
X117419047Y-132354819D02*
X117133333Y-132354819D01*
X117133333Y-132354819D02*
X117038095Y-132307200D01*
X117038095Y-132307200D02*
X116990476Y-132259580D01*
X118228571Y-131354819D02*
X118323809Y-131354819D01*
X118323809Y-131354819D02*
X118419047Y-131402438D01*
X118419047Y-131402438D02*
X118466666Y-131450057D01*
X118466666Y-131450057D02*
X118514285Y-131545295D01*
X118514285Y-131545295D02*
X118561904Y-131735771D01*
X118561904Y-131735771D02*
X118561904Y-131973866D01*
X118561904Y-131973866D02*
X118514285Y-132164342D01*
X118514285Y-132164342D02*
X118466666Y-132259580D01*
X118466666Y-132259580D02*
X118419047Y-132307200D01*
X118419047Y-132307200D02*
X118323809Y-132354819D01*
X118323809Y-132354819D02*
X118228571Y-132354819D01*
X118228571Y-132354819D02*
X118133333Y-132307200D01*
X118133333Y-132307200D02*
X118085714Y-132259580D01*
X118085714Y-132259580D02*
X118038095Y-132164342D01*
X118038095Y-132164342D02*
X117990476Y-131973866D01*
X117990476Y-131973866D02*
X117990476Y-131735771D01*
X117990476Y-131735771D02*
X118038095Y-131545295D01*
X118038095Y-131545295D02*
X118085714Y-131450057D01*
X118085714Y-131450057D02*
X118133333Y-131402438D01*
X118133333Y-131402438D02*
X118228571Y-131354819D01*
X102354819Y-86261904D02*
X103164342Y-86261904D01*
X103164342Y-86261904D02*
X103259580Y-86214285D01*
X103259580Y-86214285D02*
X103307200Y-86166666D01*
X103307200Y-86166666D02*
X103354819Y-86071428D01*
X103354819Y-86071428D02*
X103354819Y-85880952D01*
X103354819Y-85880952D02*
X103307200Y-85785714D01*
X103307200Y-85785714D02*
X103259580Y-85738095D01*
X103259580Y-85738095D02*
X103164342Y-85690476D01*
X103164342Y-85690476D02*
X102354819Y-85690476D01*
X103354819Y-84690476D02*
X103354819Y-85261904D01*
X103354819Y-84976190D02*
X102354819Y-84976190D01*
X102354819Y-84976190D02*
X102497676Y-85071428D01*
X102497676Y-85071428D02*
X102592914Y-85166666D01*
X102592914Y-85166666D02*
X102640533Y-85261904D01*
X141407142Y-90856080D02*
X141359523Y-90903700D01*
X141359523Y-90903700D02*
X141216666Y-90951319D01*
X141216666Y-90951319D02*
X141121428Y-90951319D01*
X141121428Y-90951319D02*
X140978571Y-90903700D01*
X140978571Y-90903700D02*
X140883333Y-90808461D01*
X140883333Y-90808461D02*
X140835714Y-90713223D01*
X140835714Y-90713223D02*
X140788095Y-90522747D01*
X140788095Y-90522747D02*
X140788095Y-90379890D01*
X140788095Y-90379890D02*
X140835714Y-90189414D01*
X140835714Y-90189414D02*
X140883333Y-90094176D01*
X140883333Y-90094176D02*
X140978571Y-89998938D01*
X140978571Y-89998938D02*
X141121428Y-89951319D01*
X141121428Y-89951319D02*
X141216666Y-89951319D01*
X141216666Y-89951319D02*
X141359523Y-89998938D01*
X141359523Y-89998938D02*
X141407142Y-90046557D01*
X142359523Y-90951319D02*
X141788095Y-90951319D01*
X142073809Y-90951319D02*
X142073809Y-89951319D01*
X142073809Y-89951319D02*
X141978571Y-90094176D01*
X141978571Y-90094176D02*
X141883333Y-90189414D01*
X141883333Y-90189414D02*
X141788095Y-90237033D01*
X143216666Y-90284652D02*
X143216666Y-90951319D01*
X142978571Y-89903700D02*
X142740476Y-90617985D01*
X142740476Y-90617985D02*
X143359523Y-90617985D01*
X97759642Y-91099580D02*
X97712023Y-91147200D01*
X97712023Y-91147200D02*
X97569166Y-91194819D01*
X97569166Y-91194819D02*
X97473928Y-91194819D01*
X97473928Y-91194819D02*
X97331071Y-91147200D01*
X97331071Y-91147200D02*
X97235833Y-91051961D01*
X97235833Y-91051961D02*
X97188214Y-90956723D01*
X97188214Y-90956723D02*
X97140595Y-90766247D01*
X97140595Y-90766247D02*
X97140595Y-90623390D01*
X97140595Y-90623390D02*
X97188214Y-90432914D01*
X97188214Y-90432914D02*
X97235833Y-90337676D01*
X97235833Y-90337676D02*
X97331071Y-90242438D01*
X97331071Y-90242438D02*
X97473928Y-90194819D01*
X97473928Y-90194819D02*
X97569166Y-90194819D01*
X97569166Y-90194819D02*
X97712023Y-90242438D01*
X97712023Y-90242438D02*
X97759642Y-90290057D01*
X98140595Y-90290057D02*
X98188214Y-90242438D01*
X98188214Y-90242438D02*
X98283452Y-90194819D01*
X98283452Y-90194819D02*
X98521547Y-90194819D01*
X98521547Y-90194819D02*
X98616785Y-90242438D01*
X98616785Y-90242438D02*
X98664404Y-90290057D01*
X98664404Y-90290057D02*
X98712023Y-90385295D01*
X98712023Y-90385295D02*
X98712023Y-90480533D01*
X98712023Y-90480533D02*
X98664404Y-90623390D01*
X98664404Y-90623390D02*
X98092976Y-91194819D01*
X98092976Y-91194819D02*
X98712023Y-91194819D01*
X99664404Y-91194819D02*
X99092976Y-91194819D01*
X99378690Y-91194819D02*
X99378690Y-90194819D01*
X99378690Y-90194819D02*
X99283452Y-90337676D01*
X99283452Y-90337676D02*
X99188214Y-90432914D01*
X99188214Y-90432914D02*
X99092976Y-90480533D01*
X122833333Y-99104819D02*
X122500000Y-98628628D01*
X122261905Y-99104819D02*
X122261905Y-98104819D01*
X122261905Y-98104819D02*
X122642857Y-98104819D01*
X122642857Y-98104819D02*
X122738095Y-98152438D01*
X122738095Y-98152438D02*
X122785714Y-98200057D01*
X122785714Y-98200057D02*
X122833333Y-98295295D01*
X122833333Y-98295295D02*
X122833333Y-98438152D01*
X122833333Y-98438152D02*
X122785714Y-98533390D01*
X122785714Y-98533390D02*
X122738095Y-98581009D01*
X122738095Y-98581009D02*
X122642857Y-98628628D01*
X122642857Y-98628628D02*
X122261905Y-98628628D01*
X123166667Y-98104819D02*
X123833333Y-98104819D01*
X123833333Y-98104819D02*
X123404762Y-99104819D01*
D14*
%TO.C,U2*%
X136150000Y-99750000D02*
X136150000Y-98800000D01*
X136150000Y-89450000D02*
X136150000Y-90400000D01*
X135200000Y-99750000D02*
X136150000Y-99750000D01*
X135200000Y-89450000D02*
X136150000Y-89450000D01*
X126800000Y-99750000D02*
X125850000Y-99750000D01*
X126800000Y-89450000D02*
X125610000Y-89450000D01*
X125850000Y-99750000D02*
X125850000Y-98800000D01*
D15*
%TO.C,U4*%
X76450000Y-131000000D02*
G75*
G02*
X76250000Y-131000000I-100000J0D01*
G01*
X76250000Y-131000000D02*
G75*
G02*
X76450000Y-131000000I100000J0D01*
G01*
D16*
X78170000Y-128275000D02*
X78170000Y-129525000D01*
X75830000Y-129525000D02*
X75830000Y-128275000D01*
D14*
%TO.C,D1*%
X146265000Y-55515000D02*
X146265000Y-57800000D01*
X147735000Y-55515000D02*
X146265000Y-55515000D01*
X147735000Y-57800000D02*
X147735000Y-55515000D01*
%TO.C,R32*%
X128653641Y-133620000D02*
X128346359Y-133620000D01*
X128653641Y-134380000D02*
X128346359Y-134380000D01*
%TO.C,R17*%
X96553641Y-128420000D02*
X96246359Y-128420000D01*
X96553641Y-129180000D02*
X96246359Y-129180000D01*
%TO.C,R30*%
X113653641Y-133620000D02*
X113346359Y-133620000D01*
X113653641Y-134380000D02*
X113346359Y-134380000D01*
%TO.C,R18*%
X111553641Y-128420000D02*
X111246359Y-128420000D01*
X111553641Y-129180000D02*
X111246359Y-129180000D01*
%TO.C,R14*%
X131620000Y-54346359D02*
X131620000Y-54653641D01*
X132380000Y-54346359D02*
X132380000Y-54653641D01*
%TO.C,J12*%
X134490000Y-113515000D02*
X135540000Y-113515000D01*
X134490000Y-116015000D02*
X134490000Y-113515000D01*
X135540000Y-113515000D02*
X135540000Y-112525000D01*
X135660000Y-117985000D02*
X138540000Y-117985000D01*
X139710000Y-113515000D02*
X138660000Y-113515000D01*
X139710000Y-116015000D02*
X139710000Y-113515000D01*
D16*
%TO.C,U6*%
X111430000Y-130775000D02*
X111430000Y-132025000D01*
X113770000Y-130775000D02*
X113770000Y-132025000D01*
D15*
X113502000Y-129300000D02*
G75*
G02*
X113302000Y-129300000I-100000J0D01*
G01*
X113302000Y-129300000D02*
G75*
G02*
X113502000Y-129300000I100000J0D01*
G01*
D14*
%TO.C,R8*%
X137020000Y-91946359D02*
X137020000Y-92253641D01*
X137780000Y-91946359D02*
X137780000Y-92253641D01*
%TO.C,L1*%
D17*
X133305710Y-84150000D02*
G75*
G02*
X133114290Y-84150000I-95710J0D01*
G01*
X133114290Y-84150000D02*
G75*
G02*
X133305710Y-84150000I95710J0D01*
G01*
D14*
%TO.C,R28*%
X98653641Y-133620000D02*
X98346359Y-133620000D01*
X98653641Y-134380000D02*
X98346359Y-134380000D01*
D16*
%TO.C,U8*%
X141430000Y-130775000D02*
X141430000Y-132025000D01*
X143770000Y-130775000D02*
X143770000Y-132025000D01*
D15*
X143502000Y-129300000D02*
G75*
G02*
X143302000Y-129300000I-100000J0D01*
G01*
X143302000Y-129300000D02*
G75*
G02*
X143502000Y-129300000I100000J0D01*
G01*
D14*
%TO.C,R10*%
X125846359Y-86820000D02*
X126153641Y-86820000D01*
X125846359Y-87580000D02*
X126153641Y-87580000D01*
%TO.C,R6*%
X125846359Y-87770000D02*
X126153641Y-87770000D01*
X125846359Y-88530000D02*
X126153641Y-88530000D01*
%TO.C,R9*%
X146620000Y-54346359D02*
X146620000Y-54653641D01*
X147380000Y-54346359D02*
X147380000Y-54653641D01*
%TO.C,R12*%
X131620000Y-85646359D02*
X131620000Y-85953641D01*
X132380000Y-85646359D02*
X132380000Y-85953641D01*
%TO.C,R34*%
X143653641Y-133620000D02*
X143346359Y-133620000D01*
X143653641Y-134380000D02*
X143346359Y-134380000D01*
%TO.C,SW2*%
X79825000Y-104575000D02*
X79825000Y-104675000D01*
X79825000Y-106375000D02*
X84225000Y-106375000D01*
X84225000Y-102875000D02*
X79825000Y-102875000D01*
X84225000Y-104575000D02*
X84225000Y-104675000D01*
%TO.C,R19*%
X126553641Y-128420000D02*
X126246359Y-128420000D01*
X126553641Y-129180000D02*
X126246359Y-129180000D01*
%TO.C,R35*%
X141620000Y-136346359D02*
X141620000Y-136653641D01*
X142380000Y-136346359D02*
X142380000Y-136653641D01*
%TO.C,R3*%
X76153641Y-105320000D02*
X75846359Y-105320000D01*
X76153641Y-106080000D02*
X75846359Y-106080000D01*
%TO.C,L3*%
D17*
X91595710Y-76900000D02*
G75*
G02*
X91404290Y-76900000I-95710J0D01*
G01*
X91404290Y-76900000D02*
G75*
G02*
X91595710Y-76900000I95710J0D01*
G01*
D14*
%TO.C,R11*%
X130620000Y-85646359D02*
X130620000Y-85953641D01*
X131380000Y-85646359D02*
X131380000Y-85953641D01*
%TO.C,L2*%
D17*
X75695710Y-71200000D02*
G75*
G02*
X75504290Y-71200000I-95710J0D01*
G01*
X75504290Y-71200000D02*
G75*
G02*
X75695710Y-71200000I95710J0D01*
G01*
D14*
%TO.C,R29*%
X96620000Y-136346359D02*
X96620000Y-136653641D01*
X97380000Y-136346359D02*
X97380000Y-136653641D01*
%TO.C,R31*%
X111620000Y-136346359D02*
X111620000Y-136653641D01*
X112380000Y-136346359D02*
X112380000Y-136653641D01*
%TO.C,R33*%
X126620000Y-136346359D02*
X126620000Y-136653641D01*
X127380000Y-136346359D02*
X127380000Y-136653641D01*
%TO.C,R4*%
X87153641Y-96820000D02*
X86846359Y-96820000D01*
X87153641Y-97580000D02*
X86846359Y-97580000D01*
%TO.C,R27*%
X77346359Y-133820000D02*
X77653641Y-133820000D01*
X77346359Y-134580000D02*
X77653641Y-134580000D01*
D16*
%TO.C,U5*%
X96430000Y-130775000D02*
X96430000Y-132025000D01*
X98770000Y-130775000D02*
X98770000Y-132025000D01*
D15*
X98502000Y-129300000D02*
G75*
G02*
X98302000Y-129300000I-100000J0D01*
G01*
X98302000Y-129300000D02*
G75*
G02*
X98502000Y-129300000I100000J0D01*
G01*
D16*
%TO.C,U7*%
X126430000Y-130775000D02*
X126430000Y-132025000D01*
X128770000Y-130775000D02*
X128770000Y-132025000D01*
D15*
X128502000Y-129300000D02*
G75*
G02*
X128302000Y-129300000I-100000J0D01*
G01*
X128302000Y-129300000D02*
G75*
G02*
X128502000Y-129300000I100000J0D01*
G01*
%TO.C,J1*%
X75880000Y-45650000D02*
X75880000Y-52030000D01*
X75880000Y-60350000D02*
X75880000Y-56030000D01*
X88120000Y-45650000D02*
X75880000Y-45650000D01*
X88120000Y-52030000D02*
X88120000Y-45650000D01*
X88120000Y-60350000D02*
X75880000Y-60350000D01*
X88120000Y-60350000D02*
X88120000Y-56030000D01*
D18*
X79100000Y-58630000D02*
G75*
G02*
X78700000Y-58630000I-200000J0D01*
G01*
X78700000Y-58630000D02*
G75*
G02*
X79100000Y-58630000I200000J0D01*
G01*
D14*
%TO.C,R20*%
X141553641Y-128420000D02*
X141246359Y-128420000D01*
X141553641Y-129180000D02*
X141246359Y-129180000D01*
%TO.C,D2*%
X131265000Y-55515000D02*
X131265000Y-57800000D01*
X132735000Y-55515000D02*
X131265000Y-55515000D01*
X132735000Y-57800000D02*
X132735000Y-55515000D01*
%TO.C,R5*%
X125846359Y-85870000D02*
X126153641Y-85870000D01*
X125846359Y-86630000D02*
X126153641Y-86630000D01*
%TO.C,R1*%
X135820000Y-86096359D02*
X135820000Y-86403641D01*
X136580000Y-86096359D02*
X136580000Y-86403641D01*
D15*
%TO.C,J13*%
X113400000Y-52300000D02*
X113400000Y-49700000D01*
X118300000Y-47400000D02*
X115700000Y-47400000D01*
X118300000Y-54600000D02*
X115700000Y-54600000D01*
X120600000Y-52300000D02*
X120600000Y-49700000D01*
D14*
%TO.C,R13*%
X76620000Y-132553641D02*
X76620000Y-132246359D01*
X77380000Y-132553641D02*
X77380000Y-132246359D01*
%TO.C,SW1*%
X79800000Y-96250000D02*
X79800000Y-96150000D01*
X79800000Y-97950000D02*
X84200000Y-97950000D01*
X84200000Y-94450000D02*
X79800000Y-94450000D01*
X84200000Y-96250000D02*
X84200000Y-96150000D01*
%TO.C,U3*%
X79223000Y-67110000D02*
X79223000Y-68110000D01*
D13*
X79475000Y-67360000D02*
X90125000Y-67360000D01*
X79475000Y-69240000D02*
X79475000Y-67360000D01*
X79475000Y-71780000D02*
X79475000Y-70800000D01*
X79475000Y-76860000D02*
X79475000Y-73340000D01*
X79475000Y-80300000D02*
X79475000Y-78420000D01*
D14*
X80223000Y-67110000D02*
X79223000Y-67110000D01*
D13*
X90125000Y-67360000D02*
X90125000Y-69240000D01*
X90125000Y-70800000D02*
X90125000Y-76860000D01*
X90125000Y-78420000D02*
X90125000Y-80300000D01*
X90125000Y-80300000D02*
X79475000Y-80300000D01*
D14*
%TO.C,R2*%
X130820000Y-103053641D02*
X130820000Y-102746359D01*
X131580000Y-103053641D02*
X131580000Y-102746359D01*
D16*
%TO.C,Y1*%
X130915000Y-107350000D02*
X131085000Y-107350000D01*
X130915000Y-109850000D02*
X131085000Y-109850000D01*
D15*
X129950000Y-110745000D02*
G75*
G02*
X129750000Y-110745000I-100000J0D01*
G01*
X129750000Y-110745000D02*
G75*
G02*
X129950000Y-110745000I100000J0D01*
G01*
D14*
%TO.C,U1*%
X94990000Y-83650000D02*
X94990000Y-87410000D01*
X94990000Y-87410000D02*
X96250000Y-87410000D01*
X101810000Y-83650000D02*
X101810000Y-87410000D01*
X101810000Y-87410000D02*
X100550000Y-87410000D01*
X102040000Y-82610000D02*
X101710000Y-82370000D01*
X102040000Y-82130000D01*
X102040000Y-82610000D01*
G36*
X102040000Y-82610000D02*
G01*
X101710000Y-82370000D01*
X102040000Y-82130000D01*
X102040000Y-82610000D01*
G37*
%TO.C,R7*%
X124220000Y-98146359D02*
X124220000Y-98453641D01*
X124980000Y-98146359D02*
X124980000Y-98453641D01*
%TD*%
M02*
