%TF.GenerationSoftware,KiCad,Pcbnew,9.0.1*%
%TF.CreationDate,2025-12-30T17:40:51-06:00*%
%TF.ProjectId,opensync_prototype,6f70656e-7379-46e6-935f-70726f746f74,0.1*%
%TF.SameCoordinates,Original*%
%TF.FileFunction,Copper,L2,Inr*%
%TF.FilePolarity,Positive*%
%FSLAX46Y46*%
G04 Gerber Fmt 4.6, Leading zero omitted, Abs format (unit mm)*
G04 Created by KiCad (PCBNEW 9.0.1) date 2025-12-30 17:40:51*
%MOMM*%
%LPD*%
G01*
G04 APERTURE LIST*
%TA.AperFunction,ComponentPad*%
%ADD10C,1.428000*%
%TD*%
%TA.AperFunction,ComponentPad*%
%ADD11C,3.316000*%
%TD*%
%TA.AperFunction,ComponentPad*%
%ADD12C,2.550000*%
%TD*%
%TA.AperFunction,ComponentPad*%
%ADD13C,1.800000*%
%TD*%
%TA.AperFunction,ComponentPad*%
%ADD14C,0.600000*%
%TD*%
%TA.AperFunction,ViaPad*%
%ADD15C,0.600000*%
%TD*%
G04 APERTURE END LIST*
D10*
%TO.N,VBUS*%
%TO.C,J1*%
X80750000Y-58740000D03*
%TO.N,/Power and Data/USB_D-*%
X83250000Y-58740000D03*
%TO.N,/Power and Data/USB_D+*%
X83250000Y-56740000D03*
%TO.N,GND_BUS*%
X80750000Y-56740000D03*
D11*
X88020000Y-54030000D03*
X75980000Y-54030000D03*
%TD*%
D12*
%TO.N,GND*%
%TO.C,J13*%
X109540000Y-48460000D03*
X104460000Y-48460000D03*
X104460000Y-53540000D03*
X109540000Y-53540000D03*
D13*
%TO.N,/Microcontroller and Ext. Clock/SAFETY_INTERLOCK*%
X107000000Y-51000000D03*
%TD*%
D14*
%TO.N,GND*%
%TO.C,U2*%
X129866667Y-93466667D03*
X129866667Y-94600000D03*
X129866667Y-95733333D03*
X131000000Y-93466667D03*
X131000000Y-94600000D03*
X131000000Y-95733333D03*
X132133333Y-93466667D03*
X132133333Y-94600000D03*
X132133333Y-95733333D03*
%TD*%
D13*
%TO.N,Net-(J6-Pad1)*%
%TO.C,J6*%
X127000000Y-139000000D03*
D12*
%TO.N,GND*%
X129540000Y-136460000D03*
X124460000Y-136460000D03*
X124460000Y-141540000D03*
X129540000Y-141540000D03*
%TD*%
D13*
%TO.N,Net-(J4-Pad1)*%
%TO.C,J4*%
X97000000Y-139000000D03*
D12*
%TO.N,GND*%
X99540000Y-136460000D03*
X94460000Y-136460000D03*
X94460000Y-141540000D03*
X99540000Y-141540000D03*
%TD*%
D13*
%TO.N,Net-(J2-Pad1)*%
%TO.C,J2*%
X77000000Y-139000000D03*
D12*
%TO.N,GND*%
X79540000Y-136460000D03*
X74460000Y-136460000D03*
X74460000Y-141540000D03*
X79540000Y-141540000D03*
%TD*%
D13*
%TO.N,Net-(J7-Pad1)*%
%TO.C,J7*%
X142000000Y-139000000D03*
D12*
%TO.N,GND*%
X144540000Y-136460000D03*
X139460000Y-136460000D03*
X139460000Y-141540000D03*
X144540000Y-141540000D03*
%TD*%
D13*
%TO.N,Net-(J5-Pad1)*%
%TO.C,J5*%
X112000000Y-139000000D03*
D12*
%TO.N,GND*%
X114540000Y-136460000D03*
X109460000Y-136460000D03*
X109460000Y-141540000D03*
X114540000Y-141540000D03*
%TD*%
D15*
%TO.N,GND*%
X94200000Y-80600000D03*
X100200000Y-131400000D03*
X121750000Y-91700000D03*
X147000000Y-53200000D03*
X145150000Y-131400000D03*
X128950000Y-103450000D03*
X142600000Y-129300000D03*
X135900000Y-89300000D03*
X114400000Y-128350000D03*
X128350000Y-105000000D03*
X81950000Y-95100000D03*
X115200000Y-131400000D03*
X128450000Y-107750000D03*
X124750000Y-87200000D03*
X139750000Y-99100000D03*
X77650000Y-131000000D03*
X139950000Y-90300000D03*
X99400000Y-128350000D03*
X130000000Y-84550000D03*
X137100000Y-111750000D03*
X95400000Y-77200000D03*
X121750000Y-94400000D03*
X135050000Y-88050000D03*
X112600000Y-129300000D03*
X133150000Y-103450000D03*
X133850000Y-105000000D03*
X100700000Y-80800000D03*
X125100000Y-101300000D03*
X135050000Y-87450000D03*
X133650000Y-109450000D03*
X74700000Y-105700000D03*
X78300000Y-77600000D03*
X127600000Y-129300000D03*
X99600000Y-91900000D03*
X140150000Y-128800000D03*
X78800000Y-134200000D03*
X121750000Y-96800000D03*
X132000000Y-53200000D03*
X124600000Y-99500000D03*
X110150000Y-128800000D03*
X130150000Y-131400000D03*
X95150000Y-128800000D03*
X129400000Y-128400000D03*
X137150000Y-117200000D03*
X140250000Y-94200000D03*
X74500000Y-126500000D03*
X144400000Y-128400000D03*
X128650000Y-86700000D03*
X124750000Y-88150000D03*
X125150000Y-128800000D03*
X140250000Y-95200000D03*
X124750000Y-86250000D03*
X97600000Y-129300000D03*
%TO.N,+1V1*%
X132750000Y-87750000D03*
X132000000Y-101500000D03*
X133250000Y-94400000D03*
X128750000Y-94400000D03*
X132750000Y-92350000D03*
X124350000Y-94400000D03*
X137400000Y-94400000D03*
X132000000Y-96850000D03*
X132750000Y-87150000D03*
%TO.N,VBUS*%
X80750000Y-62250000D03*
X75800000Y-67250000D03*
%TO.N,+5V*%
X130200000Y-132400000D03*
X145200000Y-132400000D03*
X96100000Y-78200000D03*
X100200000Y-132400000D03*
X115200000Y-132400000D03*
X147000000Y-58800000D03*
%TO.N,/Microcontroller and Ext. Clock/RUN*%
X99600000Y-98900000D03*
X132800000Y-98550000D03*
%TD*%
%TA.AperFunction,Conductor*%
%TO.N,GND*%
G36*
X159003234Y-46000712D02*
G01*
X159254517Y-46017181D01*
X159267342Y-46018870D01*
X159511150Y-46067366D01*
X159523650Y-46070715D01*
X159645120Y-46111949D01*
X159759033Y-46150618D01*
X159770996Y-46155574D01*
X159993929Y-46265512D01*
X160005145Y-46271987D01*
X160211824Y-46410086D01*
X160222097Y-46417969D01*
X160408981Y-46581861D01*
X160418138Y-46591018D01*
X160582030Y-46777902D01*
X160589913Y-46788175D01*
X160728012Y-46994854D01*
X160734487Y-47006070D01*
X160844425Y-47229003D01*
X160849381Y-47240966D01*
X160929282Y-47476344D01*
X160932634Y-47488853D01*
X160981128Y-47732650D01*
X160982818Y-47745489D01*
X160999288Y-47996765D01*
X160999500Y-48003240D01*
X160999500Y-141996759D01*
X160999288Y-142003234D01*
X160982818Y-142254510D01*
X160981128Y-142267349D01*
X160932634Y-142511146D01*
X160929282Y-142523655D01*
X160849381Y-142759033D01*
X160844425Y-142770996D01*
X160734487Y-142993929D01*
X160728012Y-143005145D01*
X160589913Y-143211824D01*
X160582030Y-143222097D01*
X160418138Y-143408981D01*
X160408981Y-143418138D01*
X160222097Y-143582030D01*
X160211824Y-143589913D01*
X160005145Y-143728012D01*
X159993929Y-143734487D01*
X159770996Y-143844425D01*
X159759033Y-143849381D01*
X159523655Y-143929282D01*
X159511146Y-143932634D01*
X159267349Y-143981128D01*
X159254510Y-143982818D01*
X159003234Y-143999288D01*
X158996759Y-143999500D01*
X65003241Y-143999500D01*
X64996766Y-143999288D01*
X64745489Y-143982818D01*
X64732650Y-143981128D01*
X64488853Y-143932634D01*
X64476344Y-143929282D01*
X64240966Y-143849381D01*
X64229003Y-143844425D01*
X64006070Y-143734487D01*
X63994854Y-143728012D01*
X63788175Y-143589913D01*
X63777902Y-143582030D01*
X63591018Y-143418138D01*
X63581861Y-143408981D01*
X63417969Y-143222097D01*
X63410086Y-143211824D01*
X63271987Y-143005145D01*
X63265512Y-142993929D01*
X63155574Y-142770996D01*
X63150618Y-142759033D01*
X63070717Y-142523655D01*
X63067365Y-142511146D01*
X63043268Y-142390000D01*
X63018870Y-142267342D01*
X63017181Y-142254510D01*
X63015098Y-142222731D01*
X63000712Y-142003234D01*
X63000500Y-141996759D01*
X63000500Y-140878710D01*
X64149500Y-140878710D01*
X64149500Y-141121289D01*
X64181161Y-141361781D01*
X64181161Y-141361786D01*
X64243944Y-141596092D01*
X64243948Y-141596105D01*
X64336772Y-141820204D01*
X64336774Y-141820208D01*
X64336776Y-141820212D01*
X64440577Y-142000000D01*
X64458066Y-142030292D01*
X64605729Y-142222731D01*
X64605731Y-142222733D01*
X64605735Y-142222738D01*
X64777262Y-142394265D01*
X64777266Y-142394268D01*
X64777268Y-142394270D01*
X64937877Y-142517509D01*
X64969711Y-142541936D01*
X65179788Y-142663224D01*
X65403900Y-142756054D01*
X65638211Y-142818838D01*
X65878712Y-142850500D01*
X65878713Y-142850500D01*
X66121287Y-142850500D01*
X66121288Y-142850500D01*
X66361789Y-142818838D01*
X66596100Y-142756054D01*
X66759755Y-142688265D01*
X66820208Y-142663226D01*
X66820209Y-142663224D01*
X66820212Y-142663224D01*
X67030289Y-142541936D01*
X67222738Y-142394265D01*
X67394265Y-142222738D01*
X67541936Y-142030289D01*
X67663224Y-141820212D01*
X67756054Y-141596100D01*
X67804301Y-141416041D01*
X72885000Y-141416041D01*
X72885000Y-141663958D01*
X72923781Y-141908810D01*
X73000389Y-142144588D01*
X73112937Y-142365477D01*
X73243157Y-142544708D01*
X73762214Y-142025650D01*
X73799762Y-142081844D01*
X73918156Y-142200238D01*
X73974347Y-142237783D01*
X73455289Y-142756841D01*
X73634522Y-142887062D01*
X73855411Y-142999610D01*
X74091189Y-143076218D01*
X74336042Y-143115000D01*
X74583958Y-143115000D01*
X74828810Y-143076218D01*
X75064588Y-142999610D01*
X75285479Y-142887061D01*
X75285485Y-142887057D01*
X75464709Y-142756842D01*
X75464709Y-142756841D01*
X74945651Y-142237784D01*
X75001844Y-142200238D01*
X75120238Y-142081844D01*
X75157784Y-142025651D01*
X75676841Y-142544709D01*
X75676842Y-142544709D01*
X75807057Y-142365485D01*
X75807061Y-142365479D01*
X75919610Y-142144588D01*
X75996218Y-141908810D01*
X76035000Y-141663958D01*
X76035000Y-141416041D01*
X77965000Y-141416041D01*
X77965000Y-141663958D01*
X78003781Y-141908810D01*
X78080389Y-142144588D01*
X78192937Y-142365477D01*
X78323157Y-142544708D01*
X78842214Y-142025650D01*
X78879762Y-142081844D01*
X78998156Y-142200238D01*
X79054347Y-142237783D01*
X78535289Y-142756841D01*
X78714522Y-142887062D01*
X78935411Y-142999610D01*
X79171189Y-143076218D01*
X79416042Y-143115000D01*
X79663958Y-143115000D01*
X79908810Y-143076218D01*
X80144588Y-142999610D01*
X80365479Y-142887061D01*
X80365485Y-142887057D01*
X80544709Y-142756842D01*
X80544709Y-142756841D01*
X80025651Y-142237784D01*
X80081844Y-142200238D01*
X80200238Y-142081844D01*
X80237784Y-142025651D01*
X80756841Y-142544709D01*
X80756842Y-142544709D01*
X80887057Y-142365485D01*
X80887061Y-142365479D01*
X80999610Y-142144588D01*
X81076218Y-141908810D01*
X81115000Y-141663958D01*
X81115000Y-141416041D01*
X92885000Y-141416041D01*
X92885000Y-141663958D01*
X92923781Y-141908810D01*
X93000389Y-142144588D01*
X93112937Y-142365477D01*
X93243157Y-142544708D01*
X93762214Y-142025650D01*
X93799762Y-142081844D01*
X93918156Y-142200238D01*
X93974347Y-142237783D01*
X93455289Y-142756841D01*
X93634522Y-142887062D01*
X93855411Y-142999610D01*
X94091189Y-143076218D01*
X94336042Y-143115000D01*
X94583958Y-143115000D01*
X94828810Y-143076218D01*
X95064588Y-142999610D01*
X95285479Y-142887061D01*
X95285485Y-142887057D01*
X95464709Y-142756842D01*
X95464709Y-142756841D01*
X94945651Y-142237784D01*
X95001844Y-142200238D01*
X95120238Y-142081844D01*
X95157784Y-142025651D01*
X95676841Y-142544709D01*
X95676842Y-142544709D01*
X95807057Y-142365485D01*
X95807061Y-142365479D01*
X95919610Y-142144588D01*
X95996218Y-141908810D01*
X96035000Y-141663958D01*
X96035000Y-141416041D01*
X97965000Y-141416041D01*
X97965000Y-141663958D01*
X98003781Y-141908810D01*
X98080389Y-142144588D01*
X98192937Y-142365477D01*
X98323157Y-142544708D01*
X98842214Y-142025650D01*
X98879762Y-142081844D01*
X98998156Y-142200238D01*
X99054347Y-142237783D01*
X98535289Y-142756841D01*
X98714522Y-142887062D01*
X98935411Y-142999610D01*
X99171189Y-143076218D01*
X99416042Y-143115000D01*
X99663958Y-143115000D01*
X99908810Y-143076218D01*
X100144588Y-142999610D01*
X100365479Y-142887061D01*
X100365485Y-142887057D01*
X100544709Y-142756842D01*
X100544709Y-142756841D01*
X100025651Y-142237784D01*
X100081844Y-142200238D01*
X100200238Y-142081844D01*
X100237784Y-142025651D01*
X100756841Y-142544709D01*
X100756842Y-142544709D01*
X100887057Y-142365485D01*
X100887061Y-142365479D01*
X100999610Y-142144588D01*
X101076218Y-141908810D01*
X101115000Y-141663958D01*
X101115000Y-141416041D01*
X107885000Y-141416041D01*
X107885000Y-141663958D01*
X107923781Y-141908810D01*
X108000389Y-142144588D01*
X108112937Y-142365477D01*
X108243157Y-142544708D01*
X108762214Y-142025650D01*
X108799762Y-142081844D01*
X108918156Y-142200238D01*
X108974347Y-142237783D01*
X108455289Y-142756841D01*
X108634522Y-142887062D01*
X108855411Y-142999610D01*
X109091189Y-143076218D01*
X109336042Y-143115000D01*
X109583958Y-143115000D01*
X109828810Y-143076218D01*
X110064588Y-142999610D01*
X110285479Y-142887061D01*
X110285485Y-142887057D01*
X110464709Y-142756842D01*
X110464709Y-142756841D01*
X109945651Y-142237784D01*
X110001844Y-142200238D01*
X110120238Y-142081844D01*
X110157784Y-142025651D01*
X110676841Y-142544709D01*
X110676842Y-142544709D01*
X110807057Y-142365485D01*
X110807061Y-142365479D01*
X110919610Y-142144588D01*
X110996218Y-141908810D01*
X111035000Y-141663958D01*
X111035000Y-141416041D01*
X112965000Y-141416041D01*
X112965000Y-141663958D01*
X113003781Y-141908810D01*
X113080389Y-142144588D01*
X113192937Y-142365477D01*
X113323157Y-142544708D01*
X113842214Y-142025650D01*
X113879762Y-142081844D01*
X113998156Y-142200238D01*
X114054347Y-142237783D01*
X113535289Y-142756841D01*
X113714522Y-142887062D01*
X113935411Y-142999610D01*
X114171189Y-143076218D01*
X114416042Y-143115000D01*
X114663958Y-143115000D01*
X114908810Y-143076218D01*
X115144588Y-142999610D01*
X115365479Y-142887061D01*
X115365485Y-142887057D01*
X115544709Y-142756842D01*
X115544709Y-142756841D01*
X115025651Y-142237784D01*
X115081844Y-142200238D01*
X115200238Y-142081844D01*
X115237784Y-142025651D01*
X115756841Y-142544709D01*
X115756842Y-142544709D01*
X115887057Y-142365485D01*
X115887061Y-142365479D01*
X115999610Y-142144588D01*
X116076218Y-141908810D01*
X116115000Y-141663958D01*
X116115000Y-141416041D01*
X122885000Y-141416041D01*
X122885000Y-141663958D01*
X122923781Y-141908810D01*
X123000389Y-142144588D01*
X123112937Y-142365477D01*
X123243157Y-142544708D01*
X123762214Y-142025650D01*
X123799762Y-142081844D01*
X123918156Y-142200238D01*
X123974347Y-142237783D01*
X123455289Y-142756841D01*
X123634522Y-142887062D01*
X123855411Y-142999610D01*
X124091189Y-143076218D01*
X124336042Y-143115000D01*
X124583958Y-143115000D01*
X124828810Y-143076218D01*
X125064588Y-142999610D01*
X125285479Y-142887061D01*
X125285485Y-142887057D01*
X125464709Y-142756842D01*
X125464709Y-142756841D01*
X124945651Y-142237784D01*
X125001844Y-142200238D01*
X125120238Y-142081844D01*
X125157784Y-142025651D01*
X125676841Y-142544709D01*
X125676842Y-142544709D01*
X125807057Y-142365485D01*
X125807061Y-142365479D01*
X125919610Y-142144588D01*
X125996218Y-141908810D01*
X126035000Y-141663958D01*
X126035000Y-141416041D01*
X127965000Y-141416041D01*
X127965000Y-141663958D01*
X128003781Y-141908810D01*
X128080389Y-142144588D01*
X128192937Y-142365477D01*
X128323157Y-142544708D01*
X128842214Y-142025650D01*
X128879762Y-142081844D01*
X128998156Y-142200238D01*
X129054347Y-142237783D01*
X128535289Y-142756841D01*
X128714522Y-142887062D01*
X128935411Y-142999610D01*
X129171189Y-143076218D01*
X129416042Y-143115000D01*
X129663958Y-143115000D01*
X129908810Y-143076218D01*
X130144588Y-142999610D01*
X130365479Y-142887061D01*
X130365485Y-142887057D01*
X130544709Y-142756842D01*
X130544709Y-142756841D01*
X130025651Y-142237784D01*
X130081844Y-142200238D01*
X130200238Y-142081844D01*
X130237784Y-142025651D01*
X130756841Y-142544709D01*
X130756842Y-142544709D01*
X130887057Y-142365485D01*
X130887061Y-142365479D01*
X130999610Y-142144588D01*
X131076218Y-141908810D01*
X131115000Y-141663958D01*
X131115000Y-141416041D01*
X137885000Y-141416041D01*
X137885000Y-141663958D01*
X137923781Y-141908810D01*
X138000389Y-142144588D01*
X138112937Y-142365477D01*
X138243157Y-142544708D01*
X138762214Y-142025650D01*
X138799762Y-142081844D01*
X138918156Y-142200238D01*
X138974347Y-142237783D01*
X138455289Y-142756841D01*
X138634522Y-142887062D01*
X138855411Y-142999610D01*
X139091189Y-143076218D01*
X139336042Y-143115000D01*
X139583958Y-143115000D01*
X139828810Y-143076218D01*
X140064588Y-142999610D01*
X140285479Y-142887061D01*
X140285485Y-142887057D01*
X140464709Y-142756842D01*
X140464709Y-142756841D01*
X139945651Y-142237784D01*
X140001844Y-142200238D01*
X140120238Y-142081844D01*
X140157784Y-142025651D01*
X140676841Y-142544709D01*
X140676842Y-142544709D01*
X140807057Y-142365485D01*
X140807061Y-142365479D01*
X140919610Y-142144588D01*
X140996218Y-141908810D01*
X141035000Y-141663958D01*
X141035000Y-141416041D01*
X142965000Y-141416041D01*
X142965000Y-141663958D01*
X143003781Y-141908810D01*
X143080389Y-142144588D01*
X143192937Y-142365477D01*
X143323157Y-142544708D01*
X143842214Y-142025650D01*
X143879762Y-142081844D01*
X143998156Y-142200238D01*
X144054347Y-142237783D01*
X143535289Y-142756841D01*
X143714522Y-142887062D01*
X143935411Y-142999610D01*
X144171189Y-143076218D01*
X144416042Y-143115000D01*
X144663958Y-143115000D01*
X144908810Y-143076218D01*
X145144588Y-142999610D01*
X145365479Y-142887061D01*
X145365485Y-142887057D01*
X145544709Y-142756842D01*
X145544709Y-142756841D01*
X145025651Y-142237784D01*
X145081844Y-142200238D01*
X145200238Y-142081844D01*
X145237784Y-142025651D01*
X145756841Y-142544709D01*
X145756842Y-142544709D01*
X145887057Y-142365485D01*
X145887061Y-142365479D01*
X145999610Y-142144588D01*
X146076218Y-141908810D01*
X146115000Y-141663958D01*
X146115000Y-141416041D01*
X146076218Y-141171189D01*
X145999609Y-140935408D01*
X145991971Y-140920417D01*
X145991970Y-140920416D01*
X145970720Y-140878710D01*
X156149500Y-140878710D01*
X156149500Y-141121289D01*
X156181161Y-141361781D01*
X156181161Y-141361786D01*
X156243944Y-141596092D01*
X156243948Y-141596105D01*
X156336772Y-141820204D01*
X156336774Y-141820208D01*
X156336776Y-141820212D01*
X156440577Y-142000000D01*
X156458066Y-142030292D01*
X156605729Y-142222731D01*
X156605731Y-142222733D01*
X156605735Y-142222738D01*
X156777262Y-142394265D01*
X156777266Y-142394268D01*
X156777268Y-142394270D01*
X156937877Y-142517509D01*
X156969711Y-142541936D01*
X157179788Y-142663224D01*
X157403900Y-142756054D01*
X157638211Y-142818838D01*
X157878712Y-142850500D01*
X157878713Y-142850500D01*
X158121287Y-142850500D01*
X158121288Y-142850500D01*
X158361789Y-142818838D01*
X158596100Y-142756054D01*
X158820212Y-142663224D01*
X159030289Y-142541936D01*
X159222738Y-142394265D01*
X159394265Y-142222738D01*
X159541936Y-142030289D01*
X159663224Y-141820212D01*
X159756054Y-141596100D01*
X159818838Y-141361789D01*
X159850500Y-141121288D01*
X159850500Y-140878712D01*
X159818838Y-140638211D01*
X159756054Y-140403900D01*
X159668671Y-140192938D01*
X159663227Y-140179795D01*
X159663226Y-140179794D01*
X159663224Y-140179788D01*
X159541936Y-139969711D01*
X159394265Y-139777262D01*
X159222738Y-139605735D01*
X159222733Y-139605731D01*
X159222731Y-139605729D01*
X159030292Y-139458066D01*
X159030289Y-139458064D01*
X158820212Y-139336776D01*
X158820208Y-139336774D01*
X158820204Y-139336772D01*
X158596105Y-139243948D01*
X158596104Y-139243947D01*
X158596100Y-139243946D01*
X158361789Y-139181162D01*
X158361786Y-139181161D01*
X158361784Y-139181161D01*
X158121289Y-139149500D01*
X158121288Y-139149500D01*
X157878712Y-139149500D01*
X157878710Y-139149500D01*
X157638218Y-139181161D01*
X157638213Y-139181161D01*
X157403907Y-139243944D01*
X157403894Y-139243948D01*
X157179795Y-139336772D01*
X156969707Y-139458066D01*
X156777268Y-139605729D01*
X156605729Y-139777268D01*
X156458066Y-139969707D01*
X156336772Y-140179795D01*
X156243948Y-140403894D01*
X156243944Y-140403907D01*
X156181161Y-140638213D01*
X156181161Y-140638218D01*
X156149500Y-140878710D01*
X145970720Y-140878710D01*
X145887062Y-140714522D01*
X145756841Y-140535289D01*
X145237783Y-141054347D01*
X145200238Y-140998156D01*
X145081844Y-140879762D01*
X145025650Y-140842214D01*
X145544708Y-140323157D01*
X145365477Y-140192937D01*
X145144588Y-140080389D01*
X144908810Y-140003781D01*
X144663958Y-139965000D01*
X144416042Y-139965000D01*
X144171189Y-140003781D01*
X143935411Y-140080389D01*
X143714520Y-140192938D01*
X143714516Y-140192940D01*
X143535289Y-140323156D01*
X144054348Y-140842215D01*
X143998156Y-140879762D01*
X143879762Y-140998156D01*
X143842215Y-141054348D01*
X143323156Y-140535289D01*
X143192940Y-140714516D01*
X143192938Y-140714520D01*
X143080389Y-140935411D01*
X143003781Y-141171189D01*
X142965000Y-141416041D01*
X141035000Y-141416041D01*
X140996218Y-141171189D01*
X140919610Y-140935411D01*
X140807062Y-140714522D01*
X140676841Y-140535289D01*
X140157783Y-141054347D01*
X140120238Y-140998156D01*
X140001844Y-140879762D01*
X139945650Y-140842214D01*
X140464708Y-140323157D01*
X140285477Y-140192937D01*
X140064588Y-140080389D01*
X139828810Y-140003781D01*
X139583958Y-139965000D01*
X139336042Y-139965000D01*
X139091189Y-140003781D01*
X138855411Y-140080389D01*
X138634520Y-140192938D01*
X138634516Y-140192940D01*
X138455289Y-140323156D01*
X138974348Y-140842215D01*
X138918156Y-140879762D01*
X138799762Y-140998156D01*
X138762215Y-141054348D01*
X138243156Y-140535289D01*
X138112940Y-140714516D01*
X138112938Y-140714520D01*
X138000389Y-140935411D01*
X137923781Y-141171189D01*
X137885000Y-141416041D01*
X131115000Y-141416041D01*
X131076218Y-141171189D01*
X130999610Y-140935411D01*
X130887062Y-140714522D01*
X130756841Y-140535289D01*
X130237783Y-141054347D01*
X130200238Y-140998156D01*
X130081844Y-140879762D01*
X130025650Y-140842214D01*
X130544708Y-140323157D01*
X130365477Y-140192937D01*
X130144588Y-140080389D01*
X129908810Y-140003781D01*
X129663958Y-139965000D01*
X129416042Y-139965000D01*
X129171189Y-140003781D01*
X128935411Y-140080389D01*
X128714520Y-140192938D01*
X128714516Y-140192940D01*
X128535289Y-140323156D01*
X129054348Y-140842215D01*
X128998156Y-140879762D01*
X128879762Y-140998156D01*
X128842215Y-141054348D01*
X128323156Y-140535289D01*
X128192940Y-140714516D01*
X128192938Y-140714520D01*
X128080389Y-140935411D01*
X128003781Y-141171189D01*
X127965000Y-141416041D01*
X126035000Y-141416041D01*
X125996218Y-141171189D01*
X125919610Y-140935411D01*
X125807062Y-140714522D01*
X125676841Y-140535289D01*
X125157783Y-141054347D01*
X125120238Y-140998156D01*
X125001844Y-140879762D01*
X124945650Y-140842214D01*
X125464708Y-140323157D01*
X125285477Y-140192937D01*
X125064588Y-140080389D01*
X124828810Y-140003781D01*
X124583958Y-139965000D01*
X124336042Y-139965000D01*
X124091189Y-140003781D01*
X123855411Y-140080389D01*
X123634520Y-140192938D01*
X123634516Y-140192940D01*
X123455289Y-140323156D01*
X123974348Y-140842215D01*
X123918156Y-140879762D01*
X123799762Y-140998156D01*
X123762215Y-141054348D01*
X123243156Y-140535289D01*
X123112940Y-140714516D01*
X123112938Y-140714520D01*
X123000389Y-140935411D01*
X122923781Y-141171189D01*
X122885000Y-141416041D01*
X116115000Y-141416041D01*
X116076218Y-141171189D01*
X115999610Y-140935411D01*
X115887062Y-140714522D01*
X115756841Y-140535289D01*
X115237783Y-141054347D01*
X115200238Y-140998156D01*
X115081844Y-140879762D01*
X115025650Y-140842214D01*
X115544708Y-140323157D01*
X115365477Y-140192937D01*
X115144588Y-140080389D01*
X114908810Y-140003781D01*
X114663958Y-139965000D01*
X114416042Y-139965000D01*
X114171189Y-140003781D01*
X113935411Y-140080389D01*
X113714520Y-140192938D01*
X113714516Y-140192940D01*
X113535289Y-140323156D01*
X114054348Y-140842215D01*
X113998156Y-140879762D01*
X113879762Y-140998156D01*
X113842215Y-141054348D01*
X113323156Y-140535289D01*
X113192940Y-140714516D01*
X113192938Y-140714520D01*
X113080389Y-140935411D01*
X113003781Y-141171189D01*
X112965000Y-141416041D01*
X111035000Y-141416041D01*
X110996218Y-141171189D01*
X110919610Y-140935411D01*
X110807062Y-140714522D01*
X110676841Y-140535289D01*
X110157783Y-141054347D01*
X110120238Y-140998156D01*
X110001844Y-140879762D01*
X109945650Y-140842214D01*
X110464708Y-140323157D01*
X110285477Y-140192937D01*
X110064588Y-140080389D01*
X109828810Y-140003781D01*
X109583958Y-139965000D01*
X109336042Y-139965000D01*
X109091189Y-140003781D01*
X108855411Y-140080389D01*
X108634520Y-140192938D01*
X108634516Y-140192940D01*
X108455289Y-140323156D01*
X108974348Y-140842215D01*
X108918156Y-140879762D01*
X108799762Y-140998156D01*
X108762215Y-141054348D01*
X108243156Y-140535289D01*
X108112940Y-140714516D01*
X108112938Y-140714520D01*
X108000389Y-140935411D01*
X107923781Y-141171189D01*
X107885000Y-141416041D01*
X101115000Y-141416041D01*
X101076218Y-141171189D01*
X100999610Y-140935411D01*
X100887062Y-140714522D01*
X100756841Y-140535289D01*
X100237783Y-141054347D01*
X100200238Y-140998156D01*
X100081844Y-140879762D01*
X100025650Y-140842214D01*
X100544708Y-140323157D01*
X100365477Y-140192937D01*
X100144588Y-140080389D01*
X99908810Y-140003781D01*
X99663958Y-139965000D01*
X99416042Y-139965000D01*
X99171189Y-140003781D01*
X98935411Y-140080389D01*
X98714520Y-140192938D01*
X98714516Y-140192940D01*
X98535289Y-140323156D01*
X99054348Y-140842215D01*
X98998156Y-140879762D01*
X98879762Y-140998156D01*
X98842215Y-141054348D01*
X98323156Y-140535289D01*
X98192940Y-140714516D01*
X98192938Y-140714520D01*
X98080389Y-140935411D01*
X98003781Y-141171189D01*
X97965000Y-141416041D01*
X96035000Y-141416041D01*
X95996218Y-141171189D01*
X95919610Y-140935411D01*
X95807062Y-140714522D01*
X95676841Y-140535289D01*
X95157783Y-141054347D01*
X95120238Y-140998156D01*
X95001844Y-140879762D01*
X94945650Y-140842214D01*
X95464708Y-140323157D01*
X95285477Y-140192937D01*
X95064588Y-140080389D01*
X94828810Y-140003781D01*
X94583958Y-139965000D01*
X94336042Y-139965000D01*
X94091189Y-140003781D01*
X93855411Y-140080389D01*
X93634520Y-140192938D01*
X93634516Y-140192940D01*
X93455289Y-140323156D01*
X93974348Y-140842215D01*
X93918156Y-140879762D01*
X93799762Y-140998156D01*
X93762215Y-141054348D01*
X93243156Y-140535289D01*
X93112940Y-140714516D01*
X93112938Y-140714520D01*
X93000389Y-140935411D01*
X92923781Y-141171189D01*
X92885000Y-141416041D01*
X81115000Y-141416041D01*
X81076218Y-141171189D01*
X80999610Y-140935411D01*
X80887062Y-140714522D01*
X80756841Y-140535289D01*
X80237783Y-141054347D01*
X80200238Y-140998156D01*
X80081844Y-140879762D01*
X80025650Y-140842214D01*
X80544708Y-140323157D01*
X80365477Y-140192937D01*
X80144588Y-140080389D01*
X79908810Y-140003781D01*
X79663958Y-139965000D01*
X79416042Y-139965000D01*
X79171189Y-140003781D01*
X78935411Y-140080389D01*
X78714520Y-140192938D01*
X78714516Y-140192940D01*
X78535289Y-140323156D01*
X79054348Y-140842215D01*
X78998156Y-140879762D01*
X78879762Y-140998156D01*
X78842215Y-141054348D01*
X78323156Y-140535289D01*
X78192940Y-140714516D01*
X78192938Y-140714520D01*
X78080389Y-140935411D01*
X78003781Y-141171189D01*
X77965000Y-141416041D01*
X76035000Y-141416041D01*
X75996218Y-141171189D01*
X75919610Y-140935411D01*
X75807062Y-140714522D01*
X75676841Y-140535289D01*
X75157783Y-141054347D01*
X75120238Y-140998156D01*
X75001844Y-140879762D01*
X74945650Y-140842214D01*
X75464708Y-140323157D01*
X75285477Y-140192937D01*
X75064588Y-140080389D01*
X74828810Y-140003781D01*
X74583958Y-139965000D01*
X74336042Y-139965000D01*
X74091189Y-140003781D01*
X73855411Y-140080389D01*
X73634520Y-140192938D01*
X73634516Y-140192940D01*
X73455289Y-140323156D01*
X73974348Y-140842215D01*
X73918156Y-140879762D01*
X73799762Y-140998156D01*
X73762215Y-141054348D01*
X73243156Y-140535289D01*
X73112940Y-140714516D01*
X73112938Y-140714520D01*
X73000389Y-140935411D01*
X72923781Y-141171189D01*
X72885000Y-141416041D01*
X67804301Y-141416041D01*
X67818838Y-141361789D01*
X67850500Y-141121288D01*
X67850500Y-140878712D01*
X67818838Y-140638211D01*
X67756054Y-140403900D01*
X67668671Y-140192938D01*
X67663227Y-140179795D01*
X67663226Y-140179794D01*
X67663224Y-140179788D01*
X67541936Y-139969711D01*
X67394265Y-139777262D01*
X67222738Y-139605735D01*
X67222733Y-139605731D01*
X67222731Y-139605729D01*
X67030292Y-139458066D01*
X67030289Y-139458064D01*
X66820212Y-139336776D01*
X66820208Y-139336774D01*
X66820204Y-139336772D01*
X66596105Y-139243948D01*
X66596104Y-139243947D01*
X66596100Y-139243946D01*
X66361789Y-139181162D01*
X66361786Y-139181161D01*
X66361784Y-139181161D01*
X66121289Y-139149500D01*
X66121288Y-139149500D01*
X65878712Y-139149500D01*
X65878710Y-139149500D01*
X65638218Y-139181161D01*
X65638213Y-139181161D01*
X65403907Y-139243944D01*
X65403894Y-139243948D01*
X65179795Y-139336772D01*
X64969707Y-139458066D01*
X64777268Y-139605729D01*
X64605729Y-139777268D01*
X64458066Y-139969707D01*
X64336772Y-140179795D01*
X64243948Y-140403894D01*
X64243944Y-140403907D01*
X64181161Y-140638213D01*
X64181161Y-140638218D01*
X64149500Y-140878710D01*
X63000500Y-140878710D01*
X63000500Y-138913385D01*
X75899500Y-138913385D01*
X75899500Y-139086614D01*
X75926597Y-139257702D01*
X75926598Y-139257706D01*
X75980123Y-139422438D01*
X75980125Y-139422441D01*
X75980126Y-139422444D01*
X75980127Y-139422445D01*
X76058768Y-139576788D01*
X76160586Y-139716928D01*
X76283072Y-139839414D01*
X76423212Y-139941232D01*
X76577555Y-140019873D01*
X76577557Y-140019873D01*
X76577558Y-140019874D01*
X76577561Y-140019876D01*
X76742293Y-140073401D01*
X76742297Y-140073402D01*
X76913386Y-140100500D01*
X76913389Y-140100500D01*
X77086614Y-140100500D01*
X77257702Y-140073402D01*
X77257706Y-140073401D01*
X77422438Y-140019876D01*
X77422440Y-140019874D01*
X77422445Y-140019873D01*
X77576788Y-139941232D01*
X77716928Y-139839414D01*
X77839414Y-139716928D01*
X77941232Y-139576788D01*
X78019873Y-139422445D01*
X78019874Y-139422440D01*
X78019876Y-139422438D01*
X78073401Y-139257706D01*
X78073402Y-139257702D01*
X78100500Y-139086614D01*
X78100500Y-138913385D01*
X95899500Y-138913385D01*
X95899500Y-139086614D01*
X95926597Y-139257702D01*
X95926598Y-139257706D01*
X95980123Y-139422438D01*
X95980125Y-139422441D01*
X95980126Y-139422444D01*
X95980127Y-139422445D01*
X96058768Y-139576788D01*
X96160586Y-139716928D01*
X96283072Y-139839414D01*
X96423212Y-139941232D01*
X96577555Y-140019873D01*
X96577557Y-140019873D01*
X96577558Y-140019874D01*
X96577561Y-140019876D01*
X96742293Y-140073401D01*
X96742297Y-140073402D01*
X96913386Y-140100500D01*
X96913389Y-140100500D01*
X97086614Y-140100500D01*
X97257702Y-140073402D01*
X97257706Y-140073401D01*
X97422438Y-140019876D01*
X97422440Y-140019874D01*
X97422445Y-140019873D01*
X97576788Y-139941232D01*
X97716928Y-139839414D01*
X97839414Y-139716928D01*
X97941232Y-139576788D01*
X98019873Y-139422445D01*
X98019874Y-139422440D01*
X98019876Y-139422438D01*
X98073401Y-139257706D01*
X98073402Y-139257702D01*
X98100500Y-139086614D01*
X98100500Y-138913385D01*
X110899500Y-138913385D01*
X110899500Y-139086614D01*
X110926597Y-139257702D01*
X110926598Y-139257706D01*
X110980123Y-139422438D01*
X110980125Y-139422441D01*
X110980126Y-139422444D01*
X110980127Y-139422445D01*
X111058768Y-139576788D01*
X111160586Y-139716928D01*
X111283072Y-139839414D01*
X111423212Y-139941232D01*
X111577555Y-140019873D01*
X111577557Y-140019873D01*
X111577558Y-140019874D01*
X111577561Y-140019876D01*
X111742293Y-140073401D01*
X111742297Y-140073402D01*
X111913386Y-140100500D01*
X111913389Y-140100500D01*
X112086614Y-140100500D01*
X112257702Y-140073402D01*
X112257706Y-140073401D01*
X112422438Y-140019876D01*
X112422440Y-140019874D01*
X112422445Y-140019873D01*
X112576788Y-139941232D01*
X112716928Y-139839414D01*
X112839414Y-139716928D01*
X112941232Y-139576788D01*
X113019873Y-139422445D01*
X113019874Y-139422440D01*
X113019876Y-139422438D01*
X113073401Y-139257706D01*
X113073402Y-139257702D01*
X113100500Y-139086614D01*
X113100500Y-138913385D01*
X125899500Y-138913385D01*
X125899500Y-139086614D01*
X125926597Y-139257702D01*
X125926598Y-139257706D01*
X125980123Y-139422438D01*
X125980125Y-139422441D01*
X125980126Y-139422444D01*
X125980127Y-139422445D01*
X126058768Y-139576788D01*
X126160586Y-139716928D01*
X126283072Y-139839414D01*
X126423212Y-139941232D01*
X126577555Y-140019873D01*
X126577557Y-140019873D01*
X126577558Y-140019874D01*
X126577561Y-140019876D01*
X126742293Y-140073401D01*
X126742297Y-140073402D01*
X126913386Y-140100500D01*
X126913389Y-140100500D01*
X127086614Y-140100500D01*
X127257702Y-140073402D01*
X127257706Y-140073401D01*
X127422438Y-140019876D01*
X127422440Y-140019874D01*
X127422445Y-140019873D01*
X127576788Y-139941232D01*
X127716928Y-139839414D01*
X127839414Y-139716928D01*
X127941232Y-139576788D01*
X128019873Y-139422445D01*
X128019874Y-139422440D01*
X128019876Y-139422438D01*
X128073401Y-139257706D01*
X128073402Y-139257702D01*
X128100500Y-139086614D01*
X128100500Y-138913385D01*
X140899500Y-138913385D01*
X140899500Y-139086614D01*
X140926597Y-139257702D01*
X140926598Y-139257706D01*
X140980123Y-139422438D01*
X140980125Y-139422441D01*
X140980126Y-139422444D01*
X140980127Y-139422445D01*
X141058768Y-139576788D01*
X141160586Y-139716928D01*
X141283072Y-139839414D01*
X141423212Y-139941232D01*
X141577555Y-140019873D01*
X141577557Y-140019873D01*
X141577558Y-140019874D01*
X141577561Y-140019876D01*
X141742293Y-140073401D01*
X141742297Y-140073402D01*
X141913386Y-140100500D01*
X141913389Y-140100500D01*
X142086614Y-140100500D01*
X142257702Y-140073402D01*
X142257706Y-140073401D01*
X142422438Y-140019876D01*
X142422440Y-140019874D01*
X142422445Y-140019873D01*
X142576788Y-139941232D01*
X142716928Y-139839414D01*
X142839414Y-139716928D01*
X142941232Y-139576788D01*
X143019873Y-139422445D01*
X143019874Y-139422440D01*
X143019876Y-139422438D01*
X143073401Y-139257706D01*
X143073402Y-139257702D01*
X143100500Y-139086614D01*
X143100500Y-138913385D01*
X143073402Y-138742297D01*
X143073401Y-138742293D01*
X143019876Y-138577561D01*
X143019874Y-138577558D01*
X143019873Y-138577557D01*
X143019873Y-138577555D01*
X142941232Y-138423212D01*
X142839414Y-138283072D01*
X142716928Y-138160586D01*
X142576788Y-138058768D01*
X142576787Y-138058767D01*
X142576785Y-138058766D01*
X142422441Y-137980125D01*
X142422438Y-137980123D01*
X142257706Y-137926598D01*
X142257702Y-137926597D01*
X142086614Y-137899500D01*
X142086611Y-137899500D01*
X141913389Y-137899500D01*
X141913386Y-137899500D01*
X141742297Y-137926597D01*
X141742293Y-137926598D01*
X141577561Y-137980123D01*
X141577558Y-137980125D01*
X141423214Y-138058766D01*
X141283073Y-138160585D01*
X141160585Y-138283073D01*
X141058766Y-138423214D01*
X140980125Y-138577558D01*
X140980123Y-138577561D01*
X140926598Y-138742293D01*
X140926597Y-138742297D01*
X140899500Y-138913385D01*
X128100500Y-138913385D01*
X128073402Y-138742297D01*
X128073401Y-138742293D01*
X128019876Y-138577561D01*
X128019874Y-138577558D01*
X128019873Y-138577557D01*
X128019873Y-138577555D01*
X127941232Y-138423212D01*
X127839414Y-138283072D01*
X127716928Y-138160586D01*
X127576788Y-138058768D01*
X127576787Y-138058767D01*
X127576785Y-138058766D01*
X127422441Y-137980125D01*
X127422438Y-137980123D01*
X127257706Y-137926598D01*
X127257702Y-137926597D01*
X127086614Y-137899500D01*
X127086611Y-137899500D01*
X126913389Y-137899500D01*
X126913386Y-137899500D01*
X126742297Y-137926597D01*
X126742293Y-137926598D01*
X126577561Y-137980123D01*
X126577558Y-137980125D01*
X126423214Y-138058766D01*
X126283073Y-138160585D01*
X126160585Y-138283073D01*
X126058766Y-138423214D01*
X125980125Y-138577558D01*
X125980123Y-138577561D01*
X125926598Y-138742293D01*
X125926597Y-138742297D01*
X125899500Y-138913385D01*
X113100500Y-138913385D01*
X113073402Y-138742297D01*
X113073401Y-138742293D01*
X113019876Y-138577561D01*
X113019874Y-138577558D01*
X113019873Y-138577557D01*
X113019873Y-138577555D01*
X112941232Y-138423212D01*
X112839414Y-138283072D01*
X112716928Y-138160586D01*
X112576788Y-138058768D01*
X112576787Y-138058767D01*
X112576785Y-138058766D01*
X112422441Y-137980125D01*
X112422438Y-137980123D01*
X112257706Y-137926598D01*
X112257702Y-137926597D01*
X112086614Y-137899500D01*
X112086611Y-137899500D01*
X111913389Y-137899500D01*
X111913386Y-137899500D01*
X111742297Y-137926597D01*
X111742293Y-137926598D01*
X111577561Y-137980123D01*
X111577558Y-137980125D01*
X111423214Y-138058766D01*
X111283073Y-138160585D01*
X111160585Y-138283073D01*
X111058766Y-138423214D01*
X110980125Y-138577558D01*
X110980123Y-138577561D01*
X110926598Y-138742293D01*
X110926597Y-138742297D01*
X110899500Y-138913385D01*
X98100500Y-138913385D01*
X98073402Y-138742297D01*
X98073401Y-138742293D01*
X98019876Y-138577561D01*
X98019874Y-138577558D01*
X98019873Y-138577557D01*
X98019873Y-138577555D01*
X97941232Y-138423212D01*
X97839414Y-138283072D01*
X97716928Y-138160586D01*
X97576788Y-138058768D01*
X97576787Y-138058767D01*
X97576785Y-138058766D01*
X97422441Y-137980125D01*
X97422438Y-137980123D01*
X97257706Y-137926598D01*
X97257702Y-137926597D01*
X97086614Y-137899500D01*
X97086611Y-137899500D01*
X96913389Y-137899500D01*
X96913386Y-137899500D01*
X96742297Y-137926597D01*
X96742293Y-137926598D01*
X96577561Y-137980123D01*
X96577558Y-137980125D01*
X96423214Y-138058766D01*
X96283073Y-138160585D01*
X96160585Y-138283073D01*
X96058766Y-138423214D01*
X95980125Y-138577558D01*
X95980123Y-138577561D01*
X95926598Y-138742293D01*
X95926597Y-138742297D01*
X95899500Y-138913385D01*
X78100500Y-138913385D01*
X78073402Y-138742297D01*
X78073401Y-138742293D01*
X78019876Y-138577561D01*
X78019874Y-138577558D01*
X78019873Y-138577557D01*
X78019873Y-138577555D01*
X77941232Y-138423212D01*
X77839414Y-138283072D01*
X77716928Y-138160586D01*
X77576788Y-138058768D01*
X77576787Y-138058767D01*
X77576785Y-138058766D01*
X77422441Y-137980125D01*
X77422438Y-137980123D01*
X77257706Y-137926598D01*
X77257702Y-137926597D01*
X77086614Y-137899500D01*
X77086611Y-137899500D01*
X76913389Y-137899500D01*
X76913386Y-137899500D01*
X76742297Y-137926597D01*
X76742293Y-137926598D01*
X76577561Y-137980123D01*
X76577558Y-137980125D01*
X76423214Y-138058766D01*
X76283073Y-138160585D01*
X76160585Y-138283073D01*
X76058766Y-138423214D01*
X75980125Y-138577558D01*
X75980123Y-138577561D01*
X75926598Y-138742293D01*
X75926597Y-138742297D01*
X75899500Y-138913385D01*
X63000500Y-138913385D01*
X63000500Y-136336041D01*
X72885000Y-136336041D01*
X72885000Y-136583958D01*
X72923781Y-136828810D01*
X73000389Y-137064588D01*
X73112937Y-137285477D01*
X73243157Y-137464708D01*
X73762214Y-136945650D01*
X73799762Y-137001844D01*
X73918156Y-137120238D01*
X73974347Y-137157783D01*
X73455289Y-137676841D01*
X73634522Y-137807062D01*
X73855411Y-137919610D01*
X74091189Y-137996218D01*
X74336042Y-138035000D01*
X74583958Y-138035000D01*
X74828810Y-137996218D01*
X75064588Y-137919610D01*
X75285479Y-137807061D01*
X75285485Y-137807057D01*
X75464709Y-137676842D01*
X75464709Y-137676841D01*
X74945651Y-137157784D01*
X75001844Y-137120238D01*
X75120238Y-137001844D01*
X75157784Y-136945651D01*
X75676841Y-137464709D01*
X75676842Y-137464709D01*
X75807057Y-137285485D01*
X75807061Y-137285479D01*
X75919610Y-137064588D01*
X75996218Y-136828810D01*
X76035000Y-136583958D01*
X76035000Y-136336041D01*
X77965000Y-136336041D01*
X77965000Y-136583958D01*
X78003781Y-136828810D01*
X78080389Y-137064588D01*
X78192937Y-137285477D01*
X78323157Y-137464708D01*
X78842214Y-136945650D01*
X78879762Y-137001844D01*
X78998156Y-137120238D01*
X79054347Y-137157783D01*
X78535289Y-137676841D01*
X78714522Y-137807062D01*
X78935411Y-137919610D01*
X79171189Y-137996218D01*
X79416042Y-138035000D01*
X79663958Y-138035000D01*
X79908810Y-137996218D01*
X80144588Y-137919610D01*
X80365479Y-137807061D01*
X80365485Y-137807057D01*
X80544709Y-137676842D01*
X80544709Y-137676841D01*
X80025651Y-137157784D01*
X80081844Y-137120238D01*
X80200238Y-137001844D01*
X80237784Y-136945651D01*
X80756841Y-137464709D01*
X80756842Y-137464709D01*
X80887057Y-137285485D01*
X80887061Y-137285479D01*
X80999610Y-137064588D01*
X81076218Y-136828810D01*
X81115000Y-136583958D01*
X81115000Y-136336041D01*
X92885000Y-136336041D01*
X92885000Y-136583958D01*
X92923781Y-136828810D01*
X93000389Y-137064588D01*
X93112937Y-137285477D01*
X93243157Y-137464708D01*
X93762214Y-136945650D01*
X93799762Y-137001844D01*
X93918156Y-137120238D01*
X93974347Y-137157783D01*
X93455289Y-137676841D01*
X93634522Y-137807062D01*
X93855411Y-137919610D01*
X94091189Y-137996218D01*
X94336042Y-138035000D01*
X94583958Y-138035000D01*
X94828810Y-137996218D01*
X95064588Y-137919610D01*
X95285479Y-137807061D01*
X95285485Y-137807057D01*
X95464709Y-137676842D01*
X95464709Y-137676841D01*
X94945651Y-137157784D01*
X95001844Y-137120238D01*
X95120238Y-137001844D01*
X95157784Y-136945651D01*
X95676841Y-137464709D01*
X95676842Y-137464709D01*
X95807057Y-137285485D01*
X95807061Y-137285479D01*
X95919610Y-137064588D01*
X95996218Y-136828810D01*
X96035000Y-136583958D01*
X96035000Y-136336041D01*
X97965000Y-136336041D01*
X97965000Y-136583958D01*
X98003781Y-136828810D01*
X98080389Y-137064588D01*
X98192937Y-137285477D01*
X98323157Y-137464708D01*
X98842214Y-136945650D01*
X98879762Y-137001844D01*
X98998156Y-137120238D01*
X99054347Y-137157783D01*
X98535289Y-137676841D01*
X98714522Y-137807062D01*
X98935411Y-137919610D01*
X99171189Y-137996218D01*
X99416042Y-138035000D01*
X99663958Y-138035000D01*
X99908810Y-137996218D01*
X100144588Y-137919610D01*
X100365479Y-137807061D01*
X100365485Y-137807057D01*
X100544709Y-137676842D01*
X100544709Y-137676841D01*
X100025651Y-137157784D01*
X100081844Y-137120238D01*
X100200238Y-137001844D01*
X100237784Y-136945651D01*
X100756841Y-137464709D01*
X100756842Y-137464709D01*
X100887057Y-137285485D01*
X100887061Y-137285479D01*
X100999610Y-137064588D01*
X101076218Y-136828810D01*
X101115000Y-136583958D01*
X101115000Y-136336041D01*
X107885000Y-136336041D01*
X107885000Y-136583958D01*
X107923781Y-136828810D01*
X108000389Y-137064588D01*
X108112937Y-137285477D01*
X108243157Y-137464708D01*
X108762214Y-136945650D01*
X108799762Y-137001844D01*
X108918156Y-137120238D01*
X108974347Y-137157783D01*
X108455289Y-137676841D01*
X108634522Y-137807062D01*
X108855411Y-137919610D01*
X109091189Y-137996218D01*
X109336042Y-138035000D01*
X109583958Y-138035000D01*
X109828810Y-137996218D01*
X110064588Y-137919610D01*
X110285479Y-137807061D01*
X110285485Y-137807057D01*
X110464709Y-137676842D01*
X110464709Y-137676841D01*
X109945651Y-137157784D01*
X110001844Y-137120238D01*
X110120238Y-137001844D01*
X110157784Y-136945651D01*
X110676841Y-137464709D01*
X110676842Y-137464709D01*
X110807057Y-137285485D01*
X110807061Y-137285479D01*
X110919610Y-137064588D01*
X110996218Y-136828810D01*
X111035000Y-136583958D01*
X111035000Y-136336041D01*
X112965000Y-136336041D01*
X112965000Y-136583958D01*
X113003781Y-136828810D01*
X113080389Y-137064588D01*
X113192937Y-137285477D01*
X113323157Y-137464708D01*
X113842214Y-136945650D01*
X113879762Y-137001844D01*
X113998156Y-137120238D01*
X114054347Y-137157783D01*
X113535289Y-137676841D01*
X113714522Y-137807062D01*
X113935411Y-137919610D01*
X114171189Y-137996218D01*
X114416042Y-138035000D01*
X114663958Y-138035000D01*
X114908810Y-137996218D01*
X115144588Y-137919610D01*
X115365479Y-137807061D01*
X115365485Y-137807057D01*
X115544709Y-137676842D01*
X115544709Y-137676841D01*
X115025651Y-137157784D01*
X115081844Y-137120238D01*
X115200238Y-137001844D01*
X115237784Y-136945651D01*
X115756841Y-137464709D01*
X115756842Y-137464709D01*
X115887057Y-137285485D01*
X115887061Y-137285479D01*
X115999610Y-137064588D01*
X116076218Y-136828810D01*
X116115000Y-136583958D01*
X116115000Y-136336041D01*
X122885000Y-136336041D01*
X122885000Y-136583958D01*
X122923781Y-136828810D01*
X123000389Y-137064588D01*
X123112937Y-137285477D01*
X123243157Y-137464708D01*
X123762214Y-136945650D01*
X123799762Y-137001844D01*
X123918156Y-137120238D01*
X123974347Y-137157783D01*
X123455289Y-137676841D01*
X123634522Y-137807062D01*
X123855411Y-137919610D01*
X124091189Y-137996218D01*
X124336042Y-138035000D01*
X124583958Y-138035000D01*
X124828810Y-137996218D01*
X125064588Y-137919610D01*
X125285479Y-137807061D01*
X125285485Y-137807057D01*
X125464709Y-137676842D01*
X125464709Y-137676841D01*
X124945651Y-137157784D01*
X125001844Y-137120238D01*
X125120238Y-137001844D01*
X125157784Y-136945651D01*
X125676841Y-137464709D01*
X125676842Y-137464709D01*
X125807057Y-137285485D01*
X125807061Y-137285479D01*
X125919610Y-137064588D01*
X125996218Y-136828810D01*
X126035000Y-136583958D01*
X126035000Y-136336041D01*
X127965000Y-136336041D01*
X127965000Y-136583958D01*
X128003781Y-136828810D01*
X128080389Y-137064588D01*
X128192937Y-137285477D01*
X128323157Y-137464708D01*
X128842214Y-136945650D01*
X128879762Y-137001844D01*
X128998156Y-137120238D01*
X129054347Y-137157783D01*
X128535289Y-137676841D01*
X128714522Y-137807062D01*
X128935411Y-137919610D01*
X129171189Y-137996218D01*
X129416042Y-138035000D01*
X129663958Y-138035000D01*
X129908810Y-137996218D01*
X130144588Y-137919610D01*
X130365479Y-137807061D01*
X130365485Y-137807057D01*
X130544709Y-137676842D01*
X130544709Y-137676841D01*
X130025651Y-137157784D01*
X130081844Y-137120238D01*
X130200238Y-137001844D01*
X130237784Y-136945651D01*
X130756841Y-137464709D01*
X130756842Y-137464709D01*
X130887057Y-137285485D01*
X130887061Y-137285479D01*
X130999610Y-137064588D01*
X131076218Y-136828810D01*
X131115000Y-136583958D01*
X131115000Y-136336041D01*
X137885000Y-136336041D01*
X137885000Y-136583958D01*
X137923781Y-136828810D01*
X138000389Y-137064588D01*
X138112937Y-137285477D01*
X138243157Y-137464708D01*
X138762214Y-136945650D01*
X138799762Y-137001844D01*
X138918156Y-137120238D01*
X138974347Y-137157783D01*
X138455289Y-137676841D01*
X138634522Y-137807062D01*
X138855411Y-137919610D01*
X139091189Y-137996218D01*
X139336042Y-138035000D01*
X139583958Y-138035000D01*
X139828810Y-137996218D01*
X140064588Y-137919610D01*
X140285479Y-137807061D01*
X140285485Y-137807057D01*
X140464709Y-137676842D01*
X140464709Y-137676841D01*
X139945651Y-137157784D01*
X140001844Y-137120238D01*
X140120238Y-137001844D01*
X140157784Y-136945651D01*
X140676841Y-137464709D01*
X140676842Y-137464709D01*
X140807057Y-137285485D01*
X140807061Y-137285479D01*
X140919610Y-137064588D01*
X140996218Y-136828810D01*
X141035000Y-136583958D01*
X141035000Y-136336041D01*
X142965000Y-136336041D01*
X142965000Y-136583958D01*
X143003781Y-136828810D01*
X143080389Y-137064588D01*
X143192937Y-137285477D01*
X143323157Y-137464708D01*
X143842214Y-136945650D01*
X143879762Y-137001844D01*
X143998156Y-137120238D01*
X144054347Y-137157783D01*
X143535289Y-137676841D01*
X143714522Y-137807062D01*
X143935411Y-137919610D01*
X144171189Y-137996218D01*
X144416042Y-138035000D01*
X144663958Y-138035000D01*
X144908810Y-137996218D01*
X145144588Y-137919610D01*
X145365479Y-137807061D01*
X145365485Y-137807057D01*
X145544709Y-137676842D01*
X145544709Y-137676841D01*
X145025651Y-137157784D01*
X145081844Y-137120238D01*
X145200238Y-137001844D01*
X145237784Y-136945651D01*
X145756841Y-137464709D01*
X145756842Y-137464709D01*
X145887057Y-137285485D01*
X145887061Y-137285479D01*
X145999610Y-137064588D01*
X146076218Y-136828810D01*
X146115000Y-136583958D01*
X146115000Y-136336041D01*
X146076218Y-136091189D01*
X145999610Y-135855411D01*
X145887062Y-135634522D01*
X145756841Y-135455289D01*
X145237783Y-135974347D01*
X145200238Y-135918156D01*
X145081844Y-135799762D01*
X145025650Y-135762214D01*
X145544708Y-135243157D01*
X145365477Y-135112937D01*
X145144588Y-135000389D01*
X144908810Y-134923781D01*
X144663958Y-134885000D01*
X144416042Y-134885000D01*
X144171189Y-134923781D01*
X143935411Y-135000389D01*
X143714520Y-135112938D01*
X143714516Y-135112940D01*
X143535289Y-135243156D01*
X144054348Y-135762215D01*
X143998156Y-135799762D01*
X143879762Y-135918156D01*
X143842215Y-135974348D01*
X143323156Y-135455289D01*
X143192940Y-135634516D01*
X143192938Y-135634520D01*
X143080389Y-135855411D01*
X143003781Y-136091189D01*
X142965000Y-136336041D01*
X141035000Y-136336041D01*
X140996218Y-136091189D01*
X140919610Y-135855411D01*
X140807062Y-135634522D01*
X140676841Y-135455289D01*
X140157783Y-135974347D01*
X140120238Y-135918156D01*
X140001844Y-135799762D01*
X139945650Y-135762214D01*
X140464708Y-135243157D01*
X140285477Y-135112937D01*
X140064588Y-135000389D01*
X139828810Y-134923781D01*
X139583958Y-134885000D01*
X139336042Y-134885000D01*
X139091189Y-134923781D01*
X138855411Y-135000389D01*
X138634520Y-135112938D01*
X138634516Y-135112940D01*
X138455289Y-135243156D01*
X138974348Y-135762215D01*
X138918156Y-135799762D01*
X138799762Y-135918156D01*
X138762215Y-135974348D01*
X138243156Y-135455289D01*
X138112940Y-135634516D01*
X138112938Y-135634520D01*
X138000389Y-135855411D01*
X137923781Y-136091189D01*
X137885000Y-136336041D01*
X131115000Y-136336041D01*
X131076218Y-136091189D01*
X130999610Y-135855411D01*
X130887062Y-135634522D01*
X130756841Y-135455289D01*
X130237783Y-135974347D01*
X130200238Y-135918156D01*
X130081844Y-135799762D01*
X130025650Y-135762214D01*
X130544708Y-135243157D01*
X130365477Y-135112937D01*
X130144588Y-135000389D01*
X129908810Y-134923781D01*
X129663958Y-134885000D01*
X129416042Y-134885000D01*
X129171189Y-134923781D01*
X128935411Y-135000389D01*
X128714520Y-135112938D01*
X128714516Y-135112940D01*
X128535289Y-135243156D01*
X129054348Y-135762215D01*
X128998156Y-135799762D01*
X128879762Y-135918156D01*
X128842215Y-135974348D01*
X128323156Y-135455289D01*
X128192940Y-135634516D01*
X128192938Y-135634520D01*
X128080389Y-135855411D01*
X128003781Y-136091189D01*
X127965000Y-136336041D01*
X126035000Y-136336041D01*
X125996218Y-136091189D01*
X125919610Y-135855411D01*
X125807062Y-135634522D01*
X125676841Y-135455289D01*
X125157783Y-135974347D01*
X125120238Y-135918156D01*
X125001844Y-135799762D01*
X124945650Y-135762214D01*
X125464708Y-135243157D01*
X125285477Y-135112937D01*
X125064588Y-135000389D01*
X124828810Y-134923781D01*
X124583958Y-134885000D01*
X124336042Y-134885000D01*
X124091189Y-134923781D01*
X123855411Y-135000389D01*
X123634520Y-135112938D01*
X123634516Y-135112940D01*
X123455289Y-135243156D01*
X123974348Y-135762215D01*
X123918156Y-135799762D01*
X123799762Y-135918156D01*
X123762215Y-135974348D01*
X123243156Y-135455289D01*
X123112940Y-135634516D01*
X123112938Y-135634520D01*
X123000389Y-135855411D01*
X122923781Y-136091189D01*
X122885000Y-136336041D01*
X116115000Y-136336041D01*
X116076218Y-136091189D01*
X115999610Y-135855411D01*
X115887062Y-135634522D01*
X115756841Y-135455289D01*
X115237783Y-135974347D01*
X115200238Y-135918156D01*
X115081844Y-135799762D01*
X115025650Y-135762214D01*
X115544708Y-135243157D01*
X115365477Y-135112937D01*
X115144588Y-135000389D01*
X114908810Y-134923781D01*
X114663958Y-134885000D01*
X114416042Y-134885000D01*
X114171189Y-134923781D01*
X113935411Y-135000389D01*
X113714520Y-135112938D01*
X113714516Y-135112940D01*
X113535289Y-135243156D01*
X114054348Y-135762215D01*
X113998156Y-135799762D01*
X113879762Y-135918156D01*
X113842215Y-135974348D01*
X113323156Y-135455289D01*
X113192940Y-135634516D01*
X113192938Y-135634520D01*
X113080389Y-135855411D01*
X113003781Y-136091189D01*
X112965000Y-136336041D01*
X111035000Y-136336041D01*
X110996218Y-136091189D01*
X110919610Y-135855411D01*
X110807062Y-135634522D01*
X110676841Y-135455289D01*
X110157783Y-135974347D01*
X110120238Y-135918156D01*
X110001844Y-135799762D01*
X109945650Y-135762214D01*
X110464708Y-135243157D01*
X110285477Y-135112937D01*
X110064588Y-135000389D01*
X109828810Y-134923781D01*
X109583958Y-134885000D01*
X109336042Y-134885000D01*
X109091189Y-134923781D01*
X108855411Y-135000389D01*
X108634520Y-135112938D01*
X108634516Y-135112940D01*
X108455289Y-135243156D01*
X108974348Y-135762215D01*
X108918156Y-135799762D01*
X108799762Y-135918156D01*
X108762215Y-135974348D01*
X108243156Y-135455289D01*
X108112940Y-135634516D01*
X108112938Y-135634520D01*
X108000389Y-135855411D01*
X107923781Y-136091189D01*
X107885000Y-136336041D01*
X101115000Y-136336041D01*
X101076218Y-136091189D01*
X100999610Y-135855411D01*
X100887062Y-135634522D01*
X100756841Y-135455289D01*
X100237783Y-135974347D01*
X100200238Y-135918156D01*
X100081844Y-135799762D01*
X100025650Y-135762214D01*
X100544708Y-135243157D01*
X100365477Y-135112937D01*
X100144588Y-135000389D01*
X99908810Y-134923781D01*
X99663958Y-134885000D01*
X99416042Y-134885000D01*
X99171189Y-134923781D01*
X98935411Y-135000389D01*
X98714520Y-135112938D01*
X98714516Y-135112940D01*
X98535289Y-135243156D01*
X99054348Y-135762215D01*
X98998156Y-135799762D01*
X98879762Y-135918156D01*
X98842215Y-135974348D01*
X98323156Y-135455289D01*
X98192940Y-135634516D01*
X98192938Y-135634520D01*
X98080389Y-135855411D01*
X98003781Y-136091189D01*
X97965000Y-136336041D01*
X96035000Y-136336041D01*
X95996218Y-136091189D01*
X95919610Y-135855411D01*
X95807062Y-135634522D01*
X95676841Y-135455289D01*
X95157783Y-135974347D01*
X95120238Y-135918156D01*
X95001844Y-135799762D01*
X94945650Y-135762214D01*
X95464708Y-135243157D01*
X95285477Y-135112937D01*
X95064588Y-135000389D01*
X94828810Y-134923781D01*
X94583958Y-134885000D01*
X94336042Y-134885000D01*
X94091189Y-134923781D01*
X93855411Y-135000389D01*
X93634520Y-135112938D01*
X93634516Y-135112940D01*
X93455289Y-135243156D01*
X93974348Y-135762215D01*
X93918156Y-135799762D01*
X93799762Y-135918156D01*
X93762215Y-135974348D01*
X93243156Y-135455289D01*
X93112940Y-135634516D01*
X93112938Y-135634520D01*
X93000389Y-135855411D01*
X92923781Y-136091189D01*
X92885000Y-136336041D01*
X81115000Y-136336041D01*
X81076218Y-136091189D01*
X80999610Y-135855411D01*
X80887062Y-135634522D01*
X80756841Y-135455289D01*
X80237783Y-135974347D01*
X80200238Y-135918156D01*
X80081844Y-135799762D01*
X80025650Y-135762214D01*
X80544708Y-135243157D01*
X80365477Y-135112937D01*
X80144588Y-135000389D01*
X79908810Y-134923781D01*
X79663958Y-134885000D01*
X79416042Y-134885000D01*
X79171189Y-134923781D01*
X78935411Y-135000389D01*
X78714520Y-135112938D01*
X78714516Y-135112940D01*
X78535289Y-135243156D01*
X79054348Y-135762215D01*
X78998156Y-135799762D01*
X78879762Y-135918156D01*
X78842215Y-135974348D01*
X78323156Y-135455289D01*
X78192940Y-135634516D01*
X78192938Y-135634520D01*
X78080389Y-135855411D01*
X78003781Y-136091189D01*
X77965000Y-136336041D01*
X76035000Y-136336041D01*
X75996218Y-136091189D01*
X75919610Y-135855411D01*
X75807062Y-135634522D01*
X75676841Y-135455289D01*
X75157783Y-135974347D01*
X75120238Y-135918156D01*
X75001844Y-135799762D01*
X74945650Y-135762214D01*
X75464708Y-135243157D01*
X75285477Y-135112937D01*
X75064588Y-135000389D01*
X74828810Y-134923781D01*
X74583958Y-134885000D01*
X74336042Y-134885000D01*
X74091189Y-134923781D01*
X73855411Y-135000389D01*
X73634520Y-135112938D01*
X73634516Y-135112940D01*
X73455289Y-135243156D01*
X73974348Y-135762215D01*
X73918156Y-135799762D01*
X73799762Y-135918156D01*
X73762215Y-135974348D01*
X73243156Y-135455289D01*
X73112940Y-135634516D01*
X73112938Y-135634520D01*
X73000389Y-135855411D01*
X72923781Y-136091189D01*
X72885000Y-136336041D01*
X63000500Y-136336041D01*
X63000500Y-132334108D01*
X99699500Y-132334108D01*
X99699500Y-132465892D01*
X99729579Y-132578151D01*
X99733609Y-132593190D01*
X99799496Y-132707309D01*
X99799498Y-132707311D01*
X99799500Y-132707314D01*
X99892686Y-132800500D01*
X99892688Y-132800501D01*
X99892690Y-132800503D01*
X100006810Y-132866390D01*
X100006808Y-132866390D01*
X100006812Y-132866391D01*
X100006814Y-132866392D01*
X100134108Y-132900500D01*
X100134110Y-132900500D01*
X100265890Y-132900500D01*
X100265892Y-132900500D01*
X100393186Y-132866392D01*
X100393188Y-132866390D01*
X100393190Y-132866390D01*
X100507309Y-132800503D01*
X100507309Y-132800502D01*
X100507314Y-132800500D01*
X100600500Y-132707314D01*
X100666392Y-132593186D01*
X100700500Y-132465892D01*
X100700500Y-132334108D01*
X114699500Y-132334108D01*
X114699500Y-132465892D01*
X114729579Y-132578151D01*
X114733609Y-132593190D01*
X114799496Y-132707309D01*
X114799498Y-132707311D01*
X114799500Y-132707314D01*
X114892686Y-132800500D01*
X114892688Y-132800501D01*
X114892690Y-132800503D01*
X115006810Y-132866390D01*
X115006808Y-132866390D01*
X115006812Y-132866391D01*
X115006814Y-132866392D01*
X115134108Y-132900500D01*
X115134110Y-132900500D01*
X115265890Y-132900500D01*
X115265892Y-132900500D01*
X115393186Y-132866392D01*
X115393188Y-132866390D01*
X115393190Y-132866390D01*
X115507309Y-132800503D01*
X115507309Y-132800502D01*
X115507314Y-132800500D01*
X115600500Y-132707314D01*
X115666392Y-132593186D01*
X115700500Y-132465892D01*
X115700500Y-132334108D01*
X129699500Y-132334108D01*
X129699500Y-132465892D01*
X129729579Y-132578151D01*
X129733609Y-132593190D01*
X129799496Y-132707309D01*
X129799498Y-132707311D01*
X129799500Y-132707314D01*
X129892686Y-132800500D01*
X129892688Y-132800501D01*
X129892690Y-132800503D01*
X130006810Y-132866390D01*
X130006808Y-132866390D01*
X130006812Y-132866391D01*
X130006814Y-132866392D01*
X130134108Y-132900500D01*
X130134110Y-132900500D01*
X130265890Y-132900500D01*
X130265892Y-132900500D01*
X130393186Y-132866392D01*
X130393188Y-132866390D01*
X130393190Y-132866390D01*
X130507309Y-132800503D01*
X130507309Y-132800502D01*
X130507314Y-132800500D01*
X130600500Y-132707314D01*
X130666392Y-132593186D01*
X130700500Y-132465892D01*
X130700500Y-132334108D01*
X144699500Y-132334108D01*
X144699500Y-132465892D01*
X144729579Y-132578151D01*
X144733609Y-132593190D01*
X144799496Y-132707309D01*
X144799498Y-132707311D01*
X144799500Y-132707314D01*
X144892686Y-132800500D01*
X144892688Y-132800501D01*
X144892690Y-132800503D01*
X145006810Y-132866390D01*
X145006808Y-132866390D01*
X145006812Y-132866391D01*
X145006814Y-132866392D01*
X145134108Y-132900500D01*
X145134110Y-132900500D01*
X145265890Y-132900500D01*
X145265892Y-132900500D01*
X145393186Y-132866392D01*
X145393188Y-132866390D01*
X145393190Y-132866390D01*
X145507309Y-132800503D01*
X145507309Y-132800502D01*
X145507314Y-132800500D01*
X145600500Y-132707314D01*
X145666392Y-132593186D01*
X145700500Y-132465892D01*
X145700500Y-132334108D01*
X145666392Y-132206814D01*
X145666390Y-132206811D01*
X145666390Y-132206809D01*
X145600503Y-132092690D01*
X145600501Y-132092688D01*
X145600500Y-132092686D01*
X145507314Y-131999500D01*
X145507311Y-131999498D01*
X145507309Y-131999496D01*
X145393189Y-131933609D01*
X145393191Y-131933609D01*
X145343799Y-131920375D01*
X145265892Y-131899500D01*
X145134108Y-131899500D01*
X145056200Y-131920375D01*
X145006809Y-131933609D01*
X144892690Y-131999496D01*
X144799496Y-132092690D01*
X144733609Y-132206809D01*
X144733608Y-132206814D01*
X144699500Y-132334108D01*
X130700500Y-132334108D01*
X130666392Y-132206814D01*
X130666390Y-132206811D01*
X130666390Y-132206809D01*
X130600503Y-132092690D01*
X130600501Y-132092688D01*
X130600500Y-132092686D01*
X130507314Y-131999500D01*
X130507311Y-131999498D01*
X130507309Y-131999496D01*
X130393189Y-131933609D01*
X130393191Y-131933609D01*
X130343799Y-131920375D01*
X130265892Y-131899500D01*
X130134108Y-131899500D01*
X130056200Y-131920375D01*
X130006809Y-131933609D01*
X129892690Y-131999496D01*
X129799496Y-132092690D01*
X129733609Y-132206809D01*
X129733608Y-132206814D01*
X129699500Y-132334108D01*
X115700500Y-132334108D01*
X115666392Y-132206814D01*
X115666390Y-132206811D01*
X115666390Y-132206809D01*
X115600503Y-132092690D01*
X115600501Y-132092688D01*
X115600500Y-132092686D01*
X115507314Y-131999500D01*
X115507311Y-131999498D01*
X115507309Y-131999496D01*
X115393189Y-131933609D01*
X115393191Y-131933609D01*
X115343799Y-131920375D01*
X115265892Y-131899500D01*
X115134108Y-131899500D01*
X115056200Y-131920375D01*
X115006809Y-131933609D01*
X114892690Y-131999496D01*
X114799496Y-132092690D01*
X114733609Y-132206809D01*
X114733608Y-132206814D01*
X114699500Y-132334108D01*
X100700500Y-132334108D01*
X100666392Y-132206814D01*
X100666390Y-132206811D01*
X100666390Y-132206809D01*
X100600503Y-132092690D01*
X100600501Y-132092688D01*
X100600500Y-132092686D01*
X100507314Y-131999500D01*
X100507311Y-131999498D01*
X100507309Y-131999496D01*
X100393189Y-131933609D01*
X100393191Y-131933609D01*
X100343799Y-131920375D01*
X100265892Y-131899500D01*
X100134108Y-131899500D01*
X100056200Y-131920375D01*
X100006809Y-131933609D01*
X99892690Y-131999496D01*
X99799496Y-132092690D01*
X99733609Y-132206809D01*
X99733608Y-132206814D01*
X99699500Y-132334108D01*
X63000500Y-132334108D01*
X63000500Y-101434108D01*
X131499500Y-101434108D01*
X131499500Y-101565892D01*
X131529579Y-101678151D01*
X131533609Y-101693190D01*
X131599496Y-101807309D01*
X131599498Y-101807311D01*
X131599500Y-101807314D01*
X131692686Y-101900500D01*
X131692688Y-101900501D01*
X131692690Y-101900503D01*
X131806810Y-101966390D01*
X131806808Y-101966390D01*
X131806812Y-101966391D01*
X131806814Y-101966392D01*
X131934108Y-102000500D01*
X131934110Y-102000500D01*
X132065890Y-102000500D01*
X132065892Y-102000500D01*
X132193186Y-101966392D01*
X132193188Y-101966390D01*
X132193190Y-101966390D01*
X132307309Y-101900503D01*
X132307309Y-101900502D01*
X132307314Y-101900500D01*
X132400500Y-101807314D01*
X132466392Y-101693186D01*
X132500500Y-101565892D01*
X132500500Y-101434108D01*
X132466392Y-101306814D01*
X132466390Y-101306811D01*
X132466390Y-101306809D01*
X132400503Y-101192690D01*
X132400501Y-101192688D01*
X132400500Y-101192686D01*
X132307314Y-101099500D01*
X132307311Y-101099498D01*
X132307309Y-101099496D01*
X132193189Y-101033609D01*
X132193191Y-101033609D01*
X132143799Y-101020375D01*
X132065892Y-100999500D01*
X131934108Y-100999500D01*
X131856200Y-101020375D01*
X131806809Y-101033609D01*
X131692690Y-101099496D01*
X131599496Y-101192690D01*
X131533609Y-101306809D01*
X131533608Y-101306814D01*
X131499500Y-101434108D01*
X63000500Y-101434108D01*
X63000500Y-98834108D01*
X99099500Y-98834108D01*
X99099500Y-98965892D01*
X99129579Y-99078151D01*
X99133609Y-99093190D01*
X99199496Y-99207309D01*
X99199498Y-99207311D01*
X99199500Y-99207314D01*
X99292686Y-99300500D01*
X99292688Y-99300501D01*
X99292690Y-99300503D01*
X99406810Y-99366390D01*
X99406808Y-99366390D01*
X99406812Y-99366391D01*
X99406814Y-99366392D01*
X99534108Y-99400500D01*
X99534110Y-99400500D01*
X99665890Y-99400500D01*
X99665892Y-99400500D01*
X99793186Y-99366392D01*
X99793188Y-99366390D01*
X99793190Y-99366390D01*
X99907309Y-99300503D01*
X99907309Y-99300502D01*
X99907314Y-99300500D01*
X100000500Y-99207314D01*
X100066392Y-99093186D01*
X100100500Y-98965892D01*
X100100500Y-98834108D01*
X100066392Y-98706814D01*
X100066390Y-98706811D01*
X100066390Y-98706809D01*
X100000503Y-98592690D01*
X100000501Y-98592688D01*
X100000500Y-98592686D01*
X99907314Y-98499500D01*
X99907311Y-98499498D01*
X99907309Y-98499496D01*
X99880656Y-98484108D01*
X132299500Y-98484108D01*
X132299500Y-98615892D01*
X132323861Y-98706809D01*
X132333609Y-98743190D01*
X132399496Y-98857309D01*
X132399498Y-98857311D01*
X132399500Y-98857314D01*
X132492686Y-98950500D01*
X132492688Y-98950501D01*
X132492690Y-98950503D01*
X132606810Y-99016390D01*
X132606808Y-99016390D01*
X132606812Y-99016391D01*
X132606814Y-99016392D01*
X132734108Y-99050500D01*
X132734110Y-99050500D01*
X132865890Y-99050500D01*
X132865892Y-99050500D01*
X132993186Y-99016392D01*
X132993188Y-99016390D01*
X132993190Y-99016390D01*
X133107309Y-98950503D01*
X133107309Y-98950502D01*
X133107314Y-98950500D01*
X133200500Y-98857314D01*
X133200503Y-98857309D01*
X133266390Y-98743190D01*
X133266390Y-98743188D01*
X133266392Y-98743186D01*
X133300500Y-98615892D01*
X133300500Y-98484108D01*
X133266392Y-98356814D01*
X133266390Y-98356811D01*
X133266390Y-98356809D01*
X133200503Y-98242690D01*
X133200501Y-98242688D01*
X133200500Y-98242686D01*
X133107314Y-98149500D01*
X133107311Y-98149498D01*
X133107309Y-98149496D01*
X132993189Y-98083609D01*
X132993191Y-98083609D01*
X132943799Y-98070375D01*
X132865892Y-98049500D01*
X132734108Y-98049500D01*
X132656200Y-98070375D01*
X132606809Y-98083609D01*
X132492690Y-98149496D01*
X132399496Y-98242690D01*
X132333609Y-98356809D01*
X132333608Y-98356814D01*
X132299500Y-98484108D01*
X99880656Y-98484108D01*
X99793189Y-98433609D01*
X99793191Y-98433609D01*
X99743799Y-98420375D01*
X99665892Y-98399500D01*
X99534108Y-98399500D01*
X99456200Y-98420375D01*
X99406809Y-98433609D01*
X99292690Y-98499496D01*
X99199496Y-98592690D01*
X99133609Y-98706809D01*
X99133608Y-98706814D01*
X99099500Y-98834108D01*
X63000500Y-98834108D01*
X63000500Y-96784108D01*
X131499500Y-96784108D01*
X131499500Y-96915892D01*
X131529579Y-97028151D01*
X131533609Y-97043190D01*
X131599496Y-97157309D01*
X131599498Y-97157311D01*
X131599500Y-97157314D01*
X131692686Y-97250500D01*
X131692688Y-97250501D01*
X131692690Y-97250503D01*
X131806810Y-97316390D01*
X131806808Y-97316390D01*
X131806812Y-97316391D01*
X131806814Y-97316392D01*
X131934108Y-97350500D01*
X131934110Y-97350500D01*
X132065890Y-97350500D01*
X132065892Y-97350500D01*
X132193186Y-97316392D01*
X132193188Y-97316390D01*
X132193190Y-97316390D01*
X132307309Y-97250503D01*
X132307309Y-97250502D01*
X132307314Y-97250500D01*
X132400500Y-97157314D01*
X132466392Y-97043186D01*
X132500500Y-96915892D01*
X132500500Y-96784108D01*
X132466392Y-96656814D01*
X132466390Y-96656811D01*
X132466390Y-96656809D01*
X132400503Y-96542690D01*
X132400501Y-96542688D01*
X132400500Y-96542686D01*
X132307314Y-96449500D01*
X132307311Y-96449498D01*
X132307309Y-96449496D01*
X132193189Y-96383609D01*
X132193191Y-96383609D01*
X132143799Y-96370375D01*
X132065892Y-96349500D01*
X131934108Y-96349500D01*
X131856200Y-96370375D01*
X131806809Y-96383609D01*
X131692690Y-96449496D01*
X131599496Y-96542690D01*
X131533609Y-96656809D01*
X131533608Y-96656814D01*
X131499500Y-96784108D01*
X63000500Y-96784108D01*
X63000500Y-94334108D01*
X123849500Y-94334108D01*
X123849500Y-94465892D01*
X123879579Y-94578151D01*
X123883609Y-94593190D01*
X123949496Y-94707309D01*
X123949498Y-94707311D01*
X123949500Y-94707314D01*
X124042686Y-94800500D01*
X124042688Y-94800501D01*
X124042690Y-94800503D01*
X124156810Y-94866390D01*
X124156808Y-94866390D01*
X124156812Y-94866391D01*
X124156814Y-94866392D01*
X124284108Y-94900500D01*
X124284110Y-94900500D01*
X124415890Y-94900500D01*
X124415892Y-94900500D01*
X124543186Y-94866392D01*
X124543188Y-94866390D01*
X124543190Y-94866390D01*
X124657309Y-94800503D01*
X124657309Y-94800502D01*
X124657314Y-94800500D01*
X124750500Y-94707314D01*
X124816392Y-94593186D01*
X124850500Y-94465892D01*
X124850500Y-94334108D01*
X128249500Y-94334108D01*
X128249500Y-94465892D01*
X128279579Y-94578151D01*
X128283609Y-94593190D01*
X128349496Y-94707309D01*
X128349498Y-94707311D01*
X128349500Y-94707314D01*
X128442686Y-94800500D01*
X128442688Y-94800501D01*
X128442690Y-94800503D01*
X128556810Y-94866390D01*
X128556808Y-94866390D01*
X128556812Y-94866391D01*
X128556814Y-94866392D01*
X128684108Y-94900500D01*
X128684110Y-94900500D01*
X128815890Y-94900500D01*
X128815892Y-94900500D01*
X128943186Y-94866392D01*
X128943188Y-94866390D01*
X128943190Y-94866390D01*
X129057309Y-94800503D01*
X129057309Y-94800502D01*
X129057314Y-94800500D01*
X129150500Y-94707314D01*
X129216392Y-94593186D01*
X129250500Y-94465892D01*
X129250500Y-94334108D01*
X132749500Y-94334108D01*
X132749500Y-94465892D01*
X132779579Y-94578151D01*
X132783609Y-94593190D01*
X132849496Y-94707309D01*
X132849498Y-94707311D01*
X132849500Y-94707314D01*
X132942686Y-94800500D01*
X132942688Y-94800501D01*
X132942690Y-94800503D01*
X133056810Y-94866390D01*
X133056808Y-94866390D01*
X133056812Y-94866391D01*
X133056814Y-94866392D01*
X133184108Y-94900500D01*
X133184110Y-94900500D01*
X133315890Y-94900500D01*
X133315892Y-94900500D01*
X133443186Y-94866392D01*
X133443188Y-94866390D01*
X133443190Y-94866390D01*
X133557309Y-94800503D01*
X133557309Y-94800502D01*
X133557314Y-94800500D01*
X133650500Y-94707314D01*
X133716392Y-94593186D01*
X133750500Y-94465892D01*
X133750500Y-94334108D01*
X136899500Y-94334108D01*
X136899500Y-94465892D01*
X136929579Y-94578151D01*
X136933609Y-94593190D01*
X136999496Y-94707309D01*
X136999498Y-94707311D01*
X136999500Y-94707314D01*
X137092686Y-94800500D01*
X137092688Y-94800501D01*
X137092690Y-94800503D01*
X137206810Y-94866390D01*
X137206808Y-94866390D01*
X137206812Y-94866391D01*
X137206814Y-94866392D01*
X137334108Y-94900500D01*
X137334110Y-94900500D01*
X137465890Y-94900500D01*
X137465892Y-94900500D01*
X137593186Y-94866392D01*
X137593188Y-94866390D01*
X137593190Y-94866390D01*
X137707309Y-94800503D01*
X137707309Y-94800502D01*
X137707314Y-94800500D01*
X137800500Y-94707314D01*
X137866392Y-94593186D01*
X137900500Y-94465892D01*
X137900500Y-94334108D01*
X137866392Y-94206814D01*
X137866390Y-94206811D01*
X137866390Y-94206809D01*
X137800503Y-94092690D01*
X137800501Y-94092688D01*
X137800500Y-94092686D01*
X137707314Y-93999500D01*
X137707311Y-93999498D01*
X137707309Y-93999496D01*
X137593189Y-93933609D01*
X137593191Y-93933609D01*
X137543799Y-93920375D01*
X137465892Y-93899500D01*
X137334108Y-93899500D01*
X137256200Y-93920375D01*
X137206809Y-93933609D01*
X137092690Y-93999496D01*
X136999496Y-94092690D01*
X136933609Y-94206809D01*
X136933608Y-94206814D01*
X136899500Y-94334108D01*
X133750500Y-94334108D01*
X133716392Y-94206814D01*
X133716390Y-94206811D01*
X133716390Y-94206809D01*
X133650503Y-94092690D01*
X133650501Y-94092688D01*
X133650500Y-94092686D01*
X133557314Y-93999500D01*
X133557311Y-93999498D01*
X133557309Y-93999496D01*
X133443189Y-93933609D01*
X133443191Y-93933609D01*
X133393799Y-93920375D01*
X133315892Y-93899500D01*
X133184108Y-93899500D01*
X133106200Y-93920375D01*
X133056809Y-93933609D01*
X132942690Y-93999496D01*
X132849496Y-94092690D01*
X132783609Y-94206809D01*
X132783608Y-94206814D01*
X132749500Y-94334108D01*
X129250500Y-94334108D01*
X129216392Y-94206814D01*
X129216390Y-94206811D01*
X129216390Y-94206809D01*
X129150503Y-94092690D01*
X129150501Y-94092688D01*
X129150500Y-94092686D01*
X129057314Y-93999500D01*
X129057311Y-93999498D01*
X129057309Y-93999496D01*
X128943189Y-93933609D01*
X128943191Y-93933609D01*
X128893799Y-93920375D01*
X128815892Y-93899500D01*
X128684108Y-93899500D01*
X128606200Y-93920375D01*
X128556809Y-93933609D01*
X128442690Y-93999496D01*
X128349496Y-94092690D01*
X128283609Y-94206809D01*
X128283608Y-94206814D01*
X128249500Y-94334108D01*
X124850500Y-94334108D01*
X124816392Y-94206814D01*
X124816390Y-94206811D01*
X124816390Y-94206809D01*
X124750503Y-94092690D01*
X124750501Y-94092688D01*
X124750500Y-94092686D01*
X124657314Y-93999500D01*
X124657311Y-93999498D01*
X124657309Y-93999496D01*
X124543189Y-93933609D01*
X124543191Y-93933609D01*
X124493799Y-93920375D01*
X124415892Y-93899500D01*
X124284108Y-93899500D01*
X124206200Y-93920375D01*
X124156809Y-93933609D01*
X124042690Y-93999496D01*
X123949496Y-94092690D01*
X123883609Y-94206809D01*
X123883608Y-94206814D01*
X123849500Y-94334108D01*
X63000500Y-94334108D01*
X63000500Y-92284108D01*
X132249500Y-92284108D01*
X132249500Y-92415892D01*
X132279579Y-92528151D01*
X132283609Y-92543190D01*
X132349496Y-92657309D01*
X132349498Y-92657311D01*
X132349500Y-92657314D01*
X132442686Y-92750500D01*
X132442688Y-92750501D01*
X132442690Y-92750503D01*
X132556810Y-92816390D01*
X132556808Y-92816390D01*
X132556812Y-92816391D01*
X132556814Y-92816392D01*
X132684108Y-92850500D01*
X132684110Y-92850500D01*
X132815890Y-92850500D01*
X132815892Y-92850500D01*
X132943186Y-92816392D01*
X132943188Y-92816390D01*
X132943190Y-92816390D01*
X133057309Y-92750503D01*
X133057309Y-92750502D01*
X133057314Y-92750500D01*
X133150500Y-92657314D01*
X133216392Y-92543186D01*
X133250500Y-92415892D01*
X133250500Y-92284108D01*
X133216392Y-92156814D01*
X133216390Y-92156811D01*
X133216390Y-92156809D01*
X133150503Y-92042690D01*
X133150501Y-92042688D01*
X133150500Y-92042686D01*
X133057314Y-91949500D01*
X133057311Y-91949498D01*
X133057309Y-91949496D01*
X132943189Y-91883609D01*
X132943191Y-91883609D01*
X132893799Y-91870375D01*
X132815892Y-91849500D01*
X132684108Y-91849500D01*
X132606200Y-91870375D01*
X132556809Y-91883609D01*
X132442690Y-91949496D01*
X132349496Y-92042690D01*
X132283609Y-92156809D01*
X132283608Y-92156814D01*
X132249500Y-92284108D01*
X63000500Y-92284108D01*
X63000500Y-87084108D01*
X132249500Y-87084108D01*
X132249500Y-87215892D01*
X132272238Y-87300754D01*
X132283608Y-87343187D01*
X132316698Y-87400501D01*
X132329419Y-87460349D01*
X132316698Y-87499499D01*
X132283608Y-87556812D01*
X132260869Y-87641676D01*
X132249500Y-87684108D01*
X132249500Y-87815892D01*
X132279579Y-87928151D01*
X132283609Y-87943190D01*
X132349496Y-88057309D01*
X132349498Y-88057311D01*
X132349500Y-88057314D01*
X132442686Y-88150500D01*
X132442688Y-88150501D01*
X132442690Y-88150503D01*
X132556810Y-88216390D01*
X132556808Y-88216390D01*
X132556812Y-88216391D01*
X132556814Y-88216392D01*
X132684108Y-88250500D01*
X132684110Y-88250500D01*
X132815890Y-88250500D01*
X132815892Y-88250500D01*
X132943186Y-88216392D01*
X132943188Y-88216390D01*
X132943190Y-88216390D01*
X133057309Y-88150503D01*
X133057309Y-88150502D01*
X133057314Y-88150500D01*
X133150500Y-88057314D01*
X133216392Y-87943186D01*
X133250500Y-87815892D01*
X133250500Y-87684108D01*
X133216392Y-87556814D01*
X133183300Y-87499498D01*
X133170579Y-87439654D01*
X133183299Y-87400503D01*
X133216392Y-87343186D01*
X133250500Y-87215892D01*
X133250500Y-87084108D01*
X133216392Y-86956814D01*
X133216390Y-86956811D01*
X133216390Y-86956809D01*
X133150503Y-86842690D01*
X133150501Y-86842688D01*
X133150500Y-86842686D01*
X133057314Y-86749500D01*
X133057311Y-86749498D01*
X133057309Y-86749496D01*
X132943189Y-86683609D01*
X132943191Y-86683609D01*
X132893799Y-86670375D01*
X132815892Y-86649500D01*
X132684108Y-86649500D01*
X132606200Y-86670375D01*
X132556809Y-86683609D01*
X132442690Y-86749496D01*
X132349496Y-86842690D01*
X132283609Y-86956809D01*
X132283608Y-86956814D01*
X132249500Y-87084108D01*
X63000500Y-87084108D01*
X63000500Y-78134108D01*
X95599500Y-78134108D01*
X95599500Y-78265892D01*
X95629579Y-78378151D01*
X95633609Y-78393190D01*
X95699496Y-78507309D01*
X95699498Y-78507311D01*
X95699500Y-78507314D01*
X95792686Y-78600500D01*
X95792688Y-78600501D01*
X95792690Y-78600503D01*
X95906810Y-78666390D01*
X95906808Y-78666390D01*
X95906812Y-78666391D01*
X95906814Y-78666392D01*
X96034108Y-78700500D01*
X96034110Y-78700500D01*
X96165890Y-78700500D01*
X96165892Y-78700500D01*
X96293186Y-78666392D01*
X96293188Y-78666390D01*
X96293190Y-78666390D01*
X96407309Y-78600503D01*
X96407309Y-78600502D01*
X96407314Y-78600500D01*
X96500500Y-78507314D01*
X96566392Y-78393186D01*
X96600500Y-78265892D01*
X96600500Y-78134108D01*
X96566392Y-78006814D01*
X96566390Y-78006811D01*
X96566390Y-78006809D01*
X96500503Y-77892690D01*
X96500501Y-77892688D01*
X96500500Y-77892686D01*
X96407314Y-77799500D01*
X96407311Y-77799498D01*
X96407309Y-77799496D01*
X96293189Y-77733609D01*
X96293191Y-77733609D01*
X96243799Y-77720375D01*
X96165892Y-77699500D01*
X96034108Y-77699500D01*
X95956200Y-77720375D01*
X95906809Y-77733609D01*
X95792690Y-77799496D01*
X95699496Y-77892690D01*
X95633609Y-78006809D01*
X95633608Y-78006814D01*
X95599500Y-78134108D01*
X63000500Y-78134108D01*
X63000500Y-67184108D01*
X75299500Y-67184108D01*
X75299500Y-67315892D01*
X75329579Y-67428151D01*
X75333609Y-67443190D01*
X75399496Y-67557309D01*
X75399498Y-67557311D01*
X75399500Y-67557314D01*
X75492686Y-67650500D01*
X75492688Y-67650501D01*
X75492690Y-67650503D01*
X75606810Y-67716390D01*
X75606808Y-67716390D01*
X75606812Y-67716391D01*
X75606814Y-67716392D01*
X75734108Y-67750500D01*
X75734110Y-67750500D01*
X75865890Y-67750500D01*
X75865892Y-67750500D01*
X75993186Y-67716392D01*
X75993188Y-67716390D01*
X75993190Y-67716390D01*
X76107309Y-67650503D01*
X76107309Y-67650502D01*
X76107314Y-67650500D01*
X76200500Y-67557314D01*
X76266392Y-67443186D01*
X76300500Y-67315892D01*
X76300500Y-67184108D01*
X76266392Y-67056814D01*
X76266390Y-67056811D01*
X76266390Y-67056809D01*
X76200503Y-66942690D01*
X76200501Y-66942688D01*
X76200500Y-66942686D01*
X76107314Y-66849500D01*
X76107311Y-66849498D01*
X76107309Y-66849496D01*
X75993189Y-66783609D01*
X75993191Y-66783609D01*
X75943799Y-66770375D01*
X75865892Y-66749500D01*
X75734108Y-66749500D01*
X75656200Y-66770375D01*
X75606809Y-66783609D01*
X75492690Y-66849496D01*
X75399496Y-66942690D01*
X75333609Y-67056809D01*
X75333608Y-67056814D01*
X75299500Y-67184108D01*
X63000500Y-67184108D01*
X63000500Y-62184108D01*
X80249500Y-62184108D01*
X80249500Y-62315892D01*
X80279579Y-62428151D01*
X80283609Y-62443190D01*
X80349496Y-62557309D01*
X80349498Y-62557311D01*
X80349500Y-62557314D01*
X80442686Y-62650500D01*
X80442688Y-62650501D01*
X80442690Y-62650503D01*
X80556810Y-62716390D01*
X80556808Y-62716390D01*
X80556812Y-62716391D01*
X80556814Y-62716392D01*
X80684108Y-62750500D01*
X80684110Y-62750500D01*
X80815890Y-62750500D01*
X80815892Y-62750500D01*
X80943186Y-62716392D01*
X80943188Y-62716390D01*
X80943190Y-62716390D01*
X81057309Y-62650503D01*
X81057309Y-62650502D01*
X81057314Y-62650500D01*
X81150500Y-62557314D01*
X81216392Y-62443186D01*
X81250500Y-62315892D01*
X81250500Y-62184108D01*
X81216392Y-62056814D01*
X81216390Y-62056811D01*
X81216390Y-62056809D01*
X81150503Y-61942690D01*
X81150501Y-61942688D01*
X81150500Y-61942686D01*
X81057314Y-61849500D01*
X81057311Y-61849498D01*
X81057309Y-61849496D01*
X80943189Y-61783609D01*
X80943191Y-61783609D01*
X80893799Y-61770375D01*
X80815892Y-61749500D01*
X80684108Y-61749500D01*
X80606200Y-61770375D01*
X80556809Y-61783609D01*
X80442690Y-61849496D01*
X80349496Y-61942690D01*
X80283609Y-62056809D01*
X80283608Y-62056814D01*
X80249500Y-62184108D01*
X63000500Y-62184108D01*
X63000500Y-56649927D01*
X79835500Y-56649927D01*
X79835500Y-56830072D01*
X79870643Y-57006748D01*
X79939580Y-57173177D01*
X79939581Y-57173178D01*
X80039661Y-57322960D01*
X80167040Y-57450339D01*
X80316822Y-57550419D01*
X80483250Y-57619356D01*
X80537378Y-57630122D01*
X80601622Y-57642902D01*
X80655006Y-57672799D01*
X80680622Y-57728364D01*
X80668685Y-57788374D01*
X80623755Y-57829906D01*
X80601622Y-57837098D01*
X80483251Y-57860643D01*
X80316822Y-57929580D01*
X80167043Y-58029658D01*
X80039658Y-58157043D01*
X79939580Y-58306822D01*
X79870643Y-58473251D01*
X79835500Y-58649927D01*
X79835500Y-58830072D01*
X79870643Y-59006748D01*
X79939580Y-59173177D01*
X80001864Y-59266392D01*
X80039661Y-59322960D01*
X80167040Y-59450339D01*
X80316822Y-59550419D01*
X80483250Y-59619356D01*
X80659930Y-59654500D01*
X80659931Y-59654500D01*
X80840069Y-59654500D01*
X80840070Y-59654500D01*
X81016750Y-59619356D01*
X81183178Y-59550419D01*
X81332960Y-59450339D01*
X81460339Y-59322960D01*
X81560419Y-59173178D01*
X81629356Y-59006750D01*
X81664500Y-58830070D01*
X81664500Y-58649930D01*
X81629356Y-58473250D01*
X81560419Y-58306822D01*
X81460339Y-58157040D01*
X81332960Y-58029661D01*
X81183178Y-57929581D01*
X81183179Y-57929581D01*
X81183177Y-57929580D01*
X81016748Y-57860643D01*
X80898377Y-57837098D01*
X80844993Y-57807201D01*
X80819377Y-57751636D01*
X80831314Y-57691626D01*
X80876244Y-57650094D01*
X80898377Y-57642902D01*
X80908492Y-57640889D01*
X81016750Y-57619356D01*
X81183178Y-57550419D01*
X81332960Y-57450339D01*
X81460339Y-57322960D01*
X81560419Y-57173178D01*
X81629356Y-57006750D01*
X81664500Y-56830070D01*
X81664500Y-56649930D01*
X81664499Y-56649927D01*
X82335500Y-56649927D01*
X82335500Y-56830072D01*
X82370643Y-57006748D01*
X82439580Y-57173177D01*
X82439581Y-57173178D01*
X82539661Y-57322960D01*
X82667040Y-57450339D01*
X82816822Y-57550419D01*
X82983250Y-57619356D01*
X83037378Y-57630122D01*
X83101622Y-57642902D01*
X83155006Y-57672799D01*
X83180622Y-57728364D01*
X83168685Y-57788374D01*
X83123755Y-57829906D01*
X83101622Y-57837098D01*
X82983251Y-57860643D01*
X82816822Y-57929580D01*
X82667043Y-58029658D01*
X82539658Y-58157043D01*
X82439580Y-58306822D01*
X82370643Y-58473251D01*
X82335500Y-58649927D01*
X82335500Y-58830072D01*
X82370643Y-59006748D01*
X82439580Y-59173177D01*
X82501864Y-59266392D01*
X82539661Y-59322960D01*
X82667040Y-59450339D01*
X82816822Y-59550419D01*
X82983250Y-59619356D01*
X83159930Y-59654500D01*
X83159931Y-59654500D01*
X83340069Y-59654500D01*
X83340070Y-59654500D01*
X83516750Y-59619356D01*
X83683178Y-59550419D01*
X83832960Y-59450339D01*
X83960339Y-59322960D01*
X84060419Y-59173178D01*
X84129356Y-59006750D01*
X84164500Y-58830070D01*
X84164500Y-58734108D01*
X146499500Y-58734108D01*
X146499500Y-58865892D01*
X146529579Y-58978151D01*
X146533609Y-58993190D01*
X146599496Y-59107309D01*
X146599498Y-59107311D01*
X146599500Y-59107314D01*
X146692686Y-59200500D01*
X146692688Y-59200501D01*
X146692690Y-59200503D01*
X146806810Y-59266390D01*
X146806808Y-59266390D01*
X146806812Y-59266391D01*
X146806814Y-59266392D01*
X146934108Y-59300500D01*
X146934110Y-59300500D01*
X147065890Y-59300500D01*
X147065892Y-59300500D01*
X147193186Y-59266392D01*
X147193188Y-59266390D01*
X147193190Y-59266390D01*
X147307309Y-59200503D01*
X147307309Y-59200502D01*
X147307314Y-59200500D01*
X147400500Y-59107314D01*
X147466392Y-58993186D01*
X147500500Y-58865892D01*
X147500500Y-58734108D01*
X147466392Y-58606814D01*
X147466390Y-58606811D01*
X147466390Y-58606809D01*
X147400503Y-58492690D01*
X147400501Y-58492688D01*
X147400500Y-58492686D01*
X147307314Y-58399500D01*
X147307311Y-58399498D01*
X147307309Y-58399496D01*
X147193189Y-58333609D01*
X147193191Y-58333609D01*
X147143799Y-58320375D01*
X147065892Y-58299500D01*
X146934108Y-58299500D01*
X146856200Y-58320375D01*
X146806809Y-58333609D01*
X146692690Y-58399496D01*
X146599496Y-58492690D01*
X146533609Y-58606809D01*
X146533608Y-58606814D01*
X146499500Y-58734108D01*
X84164500Y-58734108D01*
X84164500Y-58649930D01*
X84129356Y-58473250D01*
X84060419Y-58306822D01*
X83960339Y-58157040D01*
X83832960Y-58029661D01*
X83683178Y-57929581D01*
X83683179Y-57929581D01*
X83683177Y-57929580D01*
X83516748Y-57860643D01*
X83398377Y-57837098D01*
X83344993Y-57807201D01*
X83319377Y-57751636D01*
X83331314Y-57691626D01*
X83376244Y-57650094D01*
X83398377Y-57642902D01*
X83408492Y-57640889D01*
X83516750Y-57619356D01*
X83683178Y-57550419D01*
X83832960Y-57450339D01*
X83960339Y-57322960D01*
X84060419Y-57173178D01*
X84129356Y-57006750D01*
X84164500Y-56830070D01*
X84164500Y-56649930D01*
X84129356Y-56473250D01*
X84060419Y-56306822D01*
X83960339Y-56157040D01*
X83832960Y-56029661D01*
X83683178Y-55929581D01*
X83683179Y-55929581D01*
X83683177Y-55929580D01*
X83516748Y-55860643D01*
X83340072Y-55825500D01*
X83340070Y-55825500D01*
X83159930Y-55825500D01*
X83159927Y-55825500D01*
X82983251Y-55860643D01*
X82816822Y-55929580D01*
X82667043Y-56029658D01*
X82539658Y-56157043D01*
X82439580Y-56306822D01*
X82370643Y-56473251D01*
X82335500Y-56649927D01*
X81664499Y-56649927D01*
X81629356Y-56473250D01*
X81560419Y-56306822D01*
X81460339Y-56157040D01*
X81332960Y-56029661D01*
X81183178Y-55929581D01*
X81183179Y-55929581D01*
X81183177Y-55929580D01*
X81016748Y-55860643D01*
X80840072Y-55825500D01*
X80840070Y-55825500D01*
X80659930Y-55825500D01*
X80659927Y-55825500D01*
X80483251Y-55860643D01*
X80316822Y-55929580D01*
X80167043Y-56029658D01*
X80039658Y-56157043D01*
X79939580Y-56306822D01*
X79870643Y-56473251D01*
X79835500Y-56649927D01*
X63000500Y-56649927D01*
X63000500Y-53908185D01*
X74121500Y-53908185D01*
X74121500Y-54151814D01*
X74153298Y-54393345D01*
X74153298Y-54393350D01*
X74216352Y-54628669D01*
X74216356Y-54628682D01*
X74309581Y-54853749D01*
X74309583Y-54853753D01*
X74309585Y-54853757D01*
X74431398Y-55064743D01*
X74579707Y-55258024D01*
X74751976Y-55430293D01*
X74945257Y-55578602D01*
X75156243Y-55700415D01*
X75381323Y-55793646D01*
X75616647Y-55856701D01*
X75858187Y-55888500D01*
X75858188Y-55888500D01*
X76101812Y-55888500D01*
X76101813Y-55888500D01*
X76343353Y-55856701D01*
X76578677Y-55793646D01*
X76803757Y-55700415D01*
X77014743Y-55578602D01*
X77208024Y-55430293D01*
X77380293Y-55258024D01*
X77528602Y-55064743D01*
X77650415Y-54853757D01*
X77743646Y-54628677D01*
X77806701Y-54393353D01*
X77838500Y-54151813D01*
X77838500Y-53908187D01*
X77838500Y-53908185D01*
X86161500Y-53908185D01*
X86161500Y-54151814D01*
X86193298Y-54393345D01*
X86193298Y-54393350D01*
X86256352Y-54628669D01*
X86256356Y-54628682D01*
X86349581Y-54853749D01*
X86349583Y-54853753D01*
X86349585Y-54853757D01*
X86471398Y-55064743D01*
X86619707Y-55258024D01*
X86791976Y-55430293D01*
X86985257Y-55578602D01*
X87196243Y-55700415D01*
X87421323Y-55793646D01*
X87656647Y-55856701D01*
X87898187Y-55888500D01*
X87898188Y-55888500D01*
X88141812Y-55888500D01*
X88141813Y-55888500D01*
X88383353Y-55856701D01*
X88618677Y-55793646D01*
X88843757Y-55700415D01*
X89054743Y-55578602D01*
X89248024Y-55430293D01*
X89420293Y-55258024D01*
X89568602Y-55064743D01*
X89690415Y-54853757D01*
X89783646Y-54628677D01*
X89846701Y-54393353D01*
X89878500Y-54151813D01*
X89878500Y-53908187D01*
X89846701Y-53666647D01*
X89783646Y-53431323D01*
X89777316Y-53416041D01*
X102885000Y-53416041D01*
X102885000Y-53663958D01*
X102923781Y-53908810D01*
X103000389Y-54144588D01*
X103112937Y-54365477D01*
X103243157Y-54544708D01*
X103762214Y-54025650D01*
X103799762Y-54081844D01*
X103918156Y-54200238D01*
X103974347Y-54237783D01*
X103455289Y-54756841D01*
X103634522Y-54887062D01*
X103855411Y-54999610D01*
X104091189Y-55076218D01*
X104336042Y-55115000D01*
X104583958Y-55115000D01*
X104828810Y-55076218D01*
X105064588Y-54999610D01*
X105285479Y-54887061D01*
X105285485Y-54887057D01*
X105464709Y-54756842D01*
X105464709Y-54756841D01*
X104945651Y-54237784D01*
X105001844Y-54200238D01*
X105120238Y-54081844D01*
X105157784Y-54025651D01*
X105676841Y-54544709D01*
X105676842Y-54544709D01*
X105807057Y-54365485D01*
X105807061Y-54365479D01*
X105919610Y-54144588D01*
X105996218Y-53908810D01*
X106035000Y-53663958D01*
X106035000Y-53416041D01*
X107965000Y-53416041D01*
X107965000Y-53663958D01*
X108003781Y-53908810D01*
X108080389Y-54144588D01*
X108192937Y-54365477D01*
X108323157Y-54544708D01*
X108842214Y-54025650D01*
X108879762Y-54081844D01*
X108998156Y-54200238D01*
X109054347Y-54237783D01*
X108535289Y-54756841D01*
X108714522Y-54887062D01*
X108935411Y-54999610D01*
X109171189Y-55076218D01*
X109416042Y-55115000D01*
X109663958Y-55115000D01*
X109908810Y-55076218D01*
X110144588Y-54999610D01*
X110365479Y-54887061D01*
X110365485Y-54887057D01*
X110544709Y-54756842D01*
X110544709Y-54756841D01*
X110025651Y-54237784D01*
X110081844Y-54200238D01*
X110200238Y-54081844D01*
X110237784Y-54025651D01*
X110756841Y-54544709D01*
X110756842Y-54544709D01*
X110887057Y-54365485D01*
X110887061Y-54365479D01*
X110999610Y-54144588D01*
X111076218Y-53908810D01*
X111115000Y-53663958D01*
X111115000Y-53416041D01*
X111076218Y-53171189D01*
X110999610Y-52935411D01*
X110887062Y-52714522D01*
X110756841Y-52535289D01*
X110237783Y-53054347D01*
X110200238Y-52998156D01*
X110081844Y-52879762D01*
X110025650Y-52842214D01*
X110544708Y-52323157D01*
X110365477Y-52192937D01*
X110144588Y-52080389D01*
X109908810Y-52003781D01*
X109663958Y-51965000D01*
X109416042Y-51965000D01*
X109171189Y-52003781D01*
X108935411Y-52080389D01*
X108714520Y-52192938D01*
X108714516Y-52192940D01*
X108535289Y-52323156D01*
X109054348Y-52842215D01*
X108998156Y-52879762D01*
X108879762Y-52998156D01*
X108842215Y-53054348D01*
X108323156Y-52535289D01*
X108192940Y-52714516D01*
X108192938Y-52714520D01*
X108080389Y-52935411D01*
X108003781Y-53171189D01*
X107965000Y-53416041D01*
X106035000Y-53416041D01*
X105996218Y-53171189D01*
X105919610Y-52935411D01*
X105807062Y-52714522D01*
X105676841Y-52535289D01*
X105157783Y-53054347D01*
X105120238Y-52998156D01*
X105001844Y-52879762D01*
X104945650Y-52842214D01*
X105464708Y-52323157D01*
X105285477Y-52192937D01*
X105064588Y-52080389D01*
X104828810Y-52003781D01*
X104583958Y-51965000D01*
X104336042Y-51965000D01*
X104091189Y-52003781D01*
X103855411Y-52080389D01*
X103634520Y-52192938D01*
X103634516Y-52192940D01*
X103455289Y-52323156D01*
X103974348Y-52842215D01*
X103918156Y-52879762D01*
X103799762Y-52998156D01*
X103762215Y-53054348D01*
X103243156Y-52535289D01*
X103112940Y-52714516D01*
X103112938Y-52714520D01*
X103000389Y-52935411D01*
X102923781Y-53171189D01*
X102885000Y-53416041D01*
X89777316Y-53416041D01*
X89690415Y-53206243D01*
X89568602Y-52995257D01*
X89420293Y-52801976D01*
X89248024Y-52629707D01*
X89054743Y-52481398D01*
X89054740Y-52481396D01*
X88994517Y-52446625D01*
X88994514Y-52446625D01*
X88843757Y-52359585D01*
X88843753Y-52359583D01*
X88843749Y-52359581D01*
X88618682Y-52266356D01*
X88618681Y-52266355D01*
X88618677Y-52266354D01*
X88383353Y-52203299D01*
X88383350Y-52203298D01*
X88383348Y-52203298D01*
X88141814Y-52171500D01*
X88141813Y-52171500D01*
X87898187Y-52171500D01*
X87898185Y-52171500D01*
X87656654Y-52203298D01*
X87656649Y-52203298D01*
X87421330Y-52266352D01*
X87421317Y-52266356D01*
X87196250Y-52359581D01*
X86985253Y-52481400D01*
X86791979Y-52629704D01*
X86619704Y-52801979D01*
X86471400Y-52995253D01*
X86349581Y-53206250D01*
X86256356Y-53431317D01*
X86256352Y-53431330D01*
X86193298Y-53666649D01*
X86193298Y-53666654D01*
X86161500Y-53908185D01*
X77838500Y-53908185D01*
X77806701Y-53666647D01*
X77743646Y-53431323D01*
X77650415Y-53206243D01*
X77528602Y-52995257D01*
X77380293Y-52801976D01*
X77208024Y-52629707D01*
X77171947Y-52602024D01*
X77014746Y-52481400D01*
X77014743Y-52481398D01*
X76803757Y-52359585D01*
X76803753Y-52359583D01*
X76803749Y-52359581D01*
X76578682Y-52266356D01*
X76578681Y-52266355D01*
X76578677Y-52266354D01*
X76343353Y-52203299D01*
X76343350Y-52203298D01*
X76343348Y-52203298D01*
X76101814Y-52171500D01*
X76101813Y-52171500D01*
X75858187Y-52171500D01*
X75858185Y-52171500D01*
X75616654Y-52203298D01*
X75616649Y-52203298D01*
X75381330Y-52266352D01*
X75381317Y-52266356D01*
X75156250Y-52359581D01*
X74945253Y-52481400D01*
X74751979Y-52629704D01*
X74579704Y-52801979D01*
X74431400Y-52995253D01*
X74309581Y-53206250D01*
X74216356Y-53431317D01*
X74216352Y-53431330D01*
X74153298Y-53666649D01*
X74153298Y-53666654D01*
X74121500Y-53908185D01*
X63000500Y-53908185D01*
X63000500Y-50913385D01*
X105899500Y-50913385D01*
X105899500Y-51086614D01*
X105926597Y-51257702D01*
X105926598Y-51257706D01*
X105980123Y-51422438D01*
X105980125Y-51422441D01*
X105980126Y-51422444D01*
X105980127Y-51422445D01*
X106058768Y-51576788D01*
X106160586Y-51716928D01*
X106283072Y-51839414D01*
X106423212Y-51941232D01*
X106577555Y-52019873D01*
X106577557Y-52019873D01*
X106577558Y-52019874D01*
X106577561Y-52019876D01*
X106742293Y-52073401D01*
X106742297Y-52073402D01*
X106913386Y-52100500D01*
X106913389Y-52100500D01*
X107086614Y-52100500D01*
X107257702Y-52073402D01*
X107257706Y-52073401D01*
X107422438Y-52019876D01*
X107422440Y-52019874D01*
X107422445Y-52019873D01*
X107576788Y-51941232D01*
X107716928Y-51839414D01*
X107839414Y-51716928D01*
X107941232Y-51576788D01*
X108019873Y-51422445D01*
X108019874Y-51422440D01*
X108019876Y-51422438D01*
X108073401Y-51257706D01*
X108073402Y-51257702D01*
X108100500Y-51086614D01*
X108100500Y-50913385D01*
X108073402Y-50742297D01*
X108073401Y-50742293D01*
X108019876Y-50577561D01*
X108019874Y-50577558D01*
X108019873Y-50577557D01*
X108019873Y-50577555D01*
X107941232Y-50423212D01*
X107839414Y-50283072D01*
X107716928Y-50160586D01*
X107576788Y-50058768D01*
X107576787Y-50058767D01*
X107576785Y-50058766D01*
X107422441Y-49980125D01*
X107422438Y-49980123D01*
X107257706Y-49926598D01*
X107257702Y-49926597D01*
X107086614Y-49899500D01*
X107086611Y-49899500D01*
X106913389Y-49899500D01*
X106913386Y-49899500D01*
X106742297Y-49926597D01*
X106742293Y-49926598D01*
X106577561Y-49980123D01*
X106577558Y-49980125D01*
X106423214Y-50058766D01*
X106283073Y-50160585D01*
X106160585Y-50283073D01*
X106058766Y-50423214D01*
X105980125Y-50577558D01*
X105980123Y-50577561D01*
X105926598Y-50742293D01*
X105926597Y-50742297D01*
X105899500Y-50913385D01*
X63000500Y-50913385D01*
X63000500Y-48878710D01*
X64149500Y-48878710D01*
X64149500Y-49121289D01*
X64181161Y-49361781D01*
X64181161Y-49361786D01*
X64243944Y-49596092D01*
X64243948Y-49596105D01*
X64336772Y-49820204D01*
X64336774Y-49820208D01*
X64336776Y-49820212D01*
X64398198Y-49926598D01*
X64458066Y-50030292D01*
X64605729Y-50222731D01*
X64605731Y-50222733D01*
X64605735Y-50222738D01*
X64777262Y-50394265D01*
X64777266Y-50394268D01*
X64777268Y-50394270D01*
X64814989Y-50423214D01*
X64969711Y-50541936D01*
X65179788Y-50663224D01*
X65403900Y-50756054D01*
X65638211Y-50818838D01*
X65878712Y-50850500D01*
X65878713Y-50850500D01*
X66121287Y-50850500D01*
X66121288Y-50850500D01*
X66361789Y-50818838D01*
X66596100Y-50756054D01*
X66820212Y-50663224D01*
X67030289Y-50541936D01*
X67222738Y-50394265D01*
X67394265Y-50222738D01*
X67541936Y-50030289D01*
X67663224Y-49820212D01*
X67756054Y-49596100D01*
X67818838Y-49361789D01*
X67850500Y-49121288D01*
X67850500Y-48878712D01*
X67818838Y-48638211D01*
X67756054Y-48403900D01*
X67727946Y-48336041D01*
X102885000Y-48336041D01*
X102885000Y-48583958D01*
X102923781Y-48828810D01*
X103000389Y-49064588D01*
X103112937Y-49285477D01*
X103243157Y-49464708D01*
X103762214Y-48945650D01*
X103799762Y-49001844D01*
X103918156Y-49120238D01*
X103974347Y-49157783D01*
X103455289Y-49676841D01*
X103634522Y-49807062D01*
X103855411Y-49919610D01*
X104091189Y-49996218D01*
X104336042Y-50035000D01*
X104583958Y-50035000D01*
X104828810Y-49996218D01*
X105064588Y-49919610D01*
X105285479Y-49807061D01*
X105285485Y-49807057D01*
X105464709Y-49676842D01*
X105464709Y-49676841D01*
X104945651Y-49157784D01*
X105001844Y-49120238D01*
X105120238Y-49001844D01*
X105157784Y-48945651D01*
X105676841Y-49464709D01*
X105676842Y-49464709D01*
X105807057Y-49285485D01*
X105807061Y-49285479D01*
X105919610Y-49064588D01*
X105996218Y-48828810D01*
X106035000Y-48583958D01*
X106035000Y-48336041D01*
X107965000Y-48336041D01*
X107965000Y-48583958D01*
X108003781Y-48828810D01*
X108080389Y-49064588D01*
X108192937Y-49285477D01*
X108323157Y-49464708D01*
X108842214Y-48945650D01*
X108879762Y-49001844D01*
X108998156Y-49120238D01*
X109054347Y-49157783D01*
X108535289Y-49676841D01*
X108714522Y-49807062D01*
X108935411Y-49919610D01*
X109171189Y-49996218D01*
X109416042Y-50035000D01*
X109663958Y-50035000D01*
X109908810Y-49996218D01*
X110144588Y-49919610D01*
X110365479Y-49807061D01*
X110365485Y-49807057D01*
X110544709Y-49676842D01*
X110544709Y-49676841D01*
X110025651Y-49157784D01*
X110081844Y-49120238D01*
X110200238Y-49001844D01*
X110237784Y-48945651D01*
X110756841Y-49464709D01*
X110756842Y-49464709D01*
X110887057Y-49285485D01*
X110887061Y-49285479D01*
X110999610Y-49064588D01*
X111060006Y-48878710D01*
X156149500Y-48878710D01*
X156149500Y-49121289D01*
X156181161Y-49361781D01*
X156181161Y-49361786D01*
X156243944Y-49596092D01*
X156243948Y-49596105D01*
X156336772Y-49820204D01*
X156336774Y-49820208D01*
X156336776Y-49820212D01*
X156398198Y-49926598D01*
X156458066Y-50030292D01*
X156605729Y-50222731D01*
X156605731Y-50222733D01*
X156605735Y-50222738D01*
X156777262Y-50394265D01*
X156777266Y-50394268D01*
X156777268Y-50394270D01*
X156814989Y-50423214D01*
X156969711Y-50541936D01*
X157179788Y-50663224D01*
X157403900Y-50756054D01*
X157638211Y-50818838D01*
X157878712Y-50850500D01*
X157878713Y-50850500D01*
X158121287Y-50850500D01*
X158121288Y-50850500D01*
X158361789Y-50818838D01*
X158596100Y-50756054D01*
X158820212Y-50663224D01*
X159030289Y-50541936D01*
X159222738Y-50394265D01*
X159394265Y-50222738D01*
X159541936Y-50030289D01*
X159663224Y-49820212D01*
X159756054Y-49596100D01*
X159818838Y-49361789D01*
X159850500Y-49121288D01*
X159850500Y-48878712D01*
X159818838Y-48638211D01*
X159756054Y-48403900D01*
X159663224Y-48179788D01*
X159541936Y-47969711D01*
X159394265Y-47777262D01*
X159222738Y-47605735D01*
X159222733Y-47605731D01*
X159222731Y-47605729D01*
X159030292Y-47458066D01*
X159030289Y-47458064D01*
X158820212Y-47336776D01*
X158820208Y-47336774D01*
X158820204Y-47336772D01*
X158596105Y-47243948D01*
X158596104Y-47243947D01*
X158596100Y-47243946D01*
X158361789Y-47181162D01*
X158361786Y-47181161D01*
X158361784Y-47181161D01*
X158121289Y-47149500D01*
X158121288Y-47149500D01*
X157878712Y-47149500D01*
X157878710Y-47149500D01*
X157638218Y-47181161D01*
X157638213Y-47181161D01*
X157403907Y-47243944D01*
X157403894Y-47243948D01*
X157179795Y-47336772D01*
X156969707Y-47458066D01*
X156777268Y-47605729D01*
X156605729Y-47777268D01*
X156458066Y-47969707D01*
X156336772Y-48179795D01*
X156243948Y-48403894D01*
X156243944Y-48403907D01*
X156181161Y-48638213D01*
X156181161Y-48638218D01*
X156149500Y-48878710D01*
X111060006Y-48878710D01*
X111070998Y-48844879D01*
X111070998Y-48844878D01*
X111076219Y-48828808D01*
X111115000Y-48583958D01*
X111115000Y-48336041D01*
X111076218Y-48091189D01*
X110999610Y-47855411D01*
X110887062Y-47634522D01*
X110756841Y-47455289D01*
X110237783Y-47974347D01*
X110200238Y-47918156D01*
X110081844Y-47799762D01*
X110025650Y-47762214D01*
X110544708Y-47243157D01*
X110365477Y-47112937D01*
X110144588Y-47000389D01*
X109908810Y-46923781D01*
X109663958Y-46885000D01*
X109416042Y-46885000D01*
X109171189Y-46923781D01*
X108935411Y-47000389D01*
X108714520Y-47112938D01*
X108714516Y-47112940D01*
X108535289Y-47243156D01*
X109054348Y-47762215D01*
X108998156Y-47799762D01*
X108879762Y-47918156D01*
X108842215Y-47974348D01*
X108323156Y-47455289D01*
X108192940Y-47634516D01*
X108192938Y-47634520D01*
X108080389Y-47855411D01*
X108003781Y-48091189D01*
X107965000Y-48336041D01*
X106035000Y-48336041D01*
X105996218Y-48091189D01*
X105919610Y-47855411D01*
X105807062Y-47634522D01*
X105676841Y-47455289D01*
X105157783Y-47974347D01*
X105120238Y-47918156D01*
X105001844Y-47799762D01*
X104945650Y-47762214D01*
X105464708Y-47243157D01*
X105285477Y-47112937D01*
X105064588Y-47000389D01*
X104828810Y-46923781D01*
X104583958Y-46885000D01*
X104336042Y-46885000D01*
X104091189Y-46923781D01*
X103855411Y-47000389D01*
X103634520Y-47112938D01*
X103634516Y-47112940D01*
X103455289Y-47243156D01*
X103974348Y-47762215D01*
X103918156Y-47799762D01*
X103799762Y-47918156D01*
X103762215Y-47974348D01*
X103243156Y-47455289D01*
X103112940Y-47634516D01*
X103112938Y-47634520D01*
X103000389Y-47855411D01*
X102923781Y-48091189D01*
X102885000Y-48336041D01*
X67727946Y-48336041D01*
X67663224Y-48179788D01*
X67541936Y-47969711D01*
X67394265Y-47777262D01*
X67222738Y-47605735D01*
X67222733Y-47605731D01*
X67222731Y-47605729D01*
X67030292Y-47458066D01*
X67030289Y-47458064D01*
X66820212Y-47336776D01*
X66820208Y-47336774D01*
X66820204Y-47336772D01*
X66596105Y-47243948D01*
X66596104Y-47243947D01*
X66596100Y-47243946D01*
X66361789Y-47181162D01*
X66361786Y-47181161D01*
X66361784Y-47181161D01*
X66121289Y-47149500D01*
X66121288Y-47149500D01*
X65878712Y-47149500D01*
X65878710Y-47149500D01*
X65638218Y-47181161D01*
X65638213Y-47181161D01*
X65403907Y-47243944D01*
X65403894Y-47243948D01*
X65179795Y-47336772D01*
X64969707Y-47458066D01*
X64777268Y-47605729D01*
X64605729Y-47777268D01*
X64458066Y-47969707D01*
X64336772Y-48179795D01*
X64243948Y-48403894D01*
X64243944Y-48403907D01*
X64181161Y-48638213D01*
X64181161Y-48638218D01*
X64149500Y-48878710D01*
X63000500Y-48878710D01*
X63000500Y-48003240D01*
X63000712Y-47996765D01*
X63002485Y-47969711D01*
X63017182Y-47745480D01*
X63018869Y-47732659D01*
X63067367Y-47488845D01*
X63070714Y-47476352D01*
X63150618Y-47240965D01*
X63155574Y-47229003D01*
X63265512Y-47006070D01*
X63271983Y-46994859D01*
X63410089Y-46788169D01*
X63417964Y-46777907D01*
X63581870Y-46591008D01*
X63591008Y-46581870D01*
X63777907Y-46417964D01*
X63788169Y-46410089D01*
X63994859Y-46271983D01*
X64006070Y-46265512D01*
X64229003Y-46155574D01*
X64240966Y-46150618D01*
X64476352Y-46070714D01*
X64488845Y-46067367D01*
X64732659Y-46018869D01*
X64745480Y-46017182D01*
X64996766Y-46000712D01*
X65003241Y-46000500D01*
X65092710Y-46000500D01*
X158907290Y-46000500D01*
X158996759Y-46000500D01*
X159003234Y-46000712D01*
G37*
%TD.AperFunction*%
%TD*%
M02*
