%TF.GenerationSoftware,KiCad,Pcbnew,9.0.1*%
%TF.CreationDate,2025-12-28T11:24:27-06:00*%
%TF.ProjectId,opensync_prototype,6f70656e-7379-46e6-935f-70726f746f74,0.1*%
%TF.SameCoordinates,Original*%
%TF.FileFunction,Copper,L2,Inr*%
%TF.FilePolarity,Positive*%
%FSLAX46Y46*%
G04 Gerber Fmt 4.6, Leading zero omitted, Abs format (unit mm)*
G04 Created by KiCad (PCBNEW 9.0.1) date 2025-12-28 11:24:27*
%MOMM*%
%LPD*%
G01*
G04 APERTURE LIST*
%TA.AperFunction,ComponentPad*%
%ADD10C,1.800000*%
%TD*%
%TA.AperFunction,ComponentPad*%
%ADD11C,2.550000*%
%TD*%
%TA.AperFunction,ComponentPad*%
%ADD12C,1.428000*%
%TD*%
%TA.AperFunction,ComponentPad*%
%ADD13C,3.316000*%
%TD*%
%TA.AperFunction,ComponentPad*%
%ADD14C,0.600000*%
%TD*%
%TA.AperFunction,ViaPad*%
%ADD15C,0.600000*%
%TD*%
G04 APERTURE END LIST*
D10*
%TO.N,/Microcontroller and Ext. Clock/SAFETY_INTERLOCK*%
%TO.C,J13*%
X172000000Y-51000000D03*
D11*
%TO.N,GND*%
X174540000Y-53540000D03*
X169460000Y-53540000D03*
X169460000Y-48460000D03*
X174540000Y-48460000D03*
%TD*%
D12*
%TO.N,VBUS*%
%TO.C,J1*%
X80750000Y-58740000D03*
%TO.N,/Power and Data/USB_D-*%
X83250000Y-58740000D03*
%TO.N,/Power and Data/USB_D+*%
X83250000Y-56740000D03*
%TO.N,GND_BUS*%
X80750000Y-56740000D03*
D13*
X88020000Y-54030000D03*
X75980000Y-54030000D03*
%TD*%
D14*
%TO.N,GND*%
%TO.C,U2*%
X129866667Y-93466667D03*
X129866667Y-94600000D03*
X129866667Y-95733333D03*
X131000000Y-93466667D03*
X131000000Y-94600000D03*
X131000000Y-95733333D03*
X132133333Y-93466667D03*
X132133333Y-94600000D03*
X132133333Y-95733333D03*
%TD*%
D10*
%TO.N,Net-(J6-Pad1)*%
%TO.C,J6*%
X127000000Y-139000000D03*
D11*
%TO.N,GND*%
X129540000Y-136460000D03*
X124460000Y-136460000D03*
X124460000Y-141540000D03*
X129540000Y-141540000D03*
%TD*%
D10*
%TO.N,Net-(J10-Pad1)*%
%TO.C,J10*%
X187000000Y-139000000D03*
D11*
%TO.N,GND*%
X189540000Y-136460000D03*
X184460000Y-136460000D03*
X184460000Y-141540000D03*
X189540000Y-141540000D03*
%TD*%
D10*
%TO.N,Net-(J9-Pad1)*%
%TO.C,J9*%
X172000000Y-139000000D03*
D11*
%TO.N,GND*%
X174540000Y-136460000D03*
X169460000Y-136460000D03*
X169460000Y-141540000D03*
X174540000Y-141540000D03*
%TD*%
D10*
%TO.N,Net-(J4-Pad1)*%
%TO.C,J4*%
X97000000Y-139000000D03*
D11*
%TO.N,GND*%
X99540000Y-136460000D03*
X94460000Y-136460000D03*
X94460000Y-141540000D03*
X99540000Y-141540000D03*
%TD*%
D10*
%TO.N,Net-(J8-Pad1)*%
%TO.C,J8*%
X157000000Y-139000000D03*
D11*
%TO.N,GND*%
X159540000Y-136460000D03*
X154460000Y-136460000D03*
X154460000Y-141540000D03*
X159540000Y-141540000D03*
%TD*%
D10*
%TO.N,Net-(J11-Pad1)*%
%TO.C,J11*%
X202000000Y-139000000D03*
D11*
%TO.N,GND*%
X204540000Y-136460000D03*
X199460000Y-136460000D03*
X199460000Y-141540000D03*
X204540000Y-141540000D03*
%TD*%
D10*
%TO.N,Net-(J2-Pad1)*%
%TO.C,J2*%
X77000000Y-139000000D03*
D11*
%TO.N,GND*%
X79540000Y-136460000D03*
X74460000Y-136460000D03*
X74460000Y-141540000D03*
X79540000Y-141540000D03*
%TD*%
D10*
%TO.N,Net-(J7-Pad1)*%
%TO.C,J7*%
X142000000Y-139000000D03*
D11*
%TO.N,GND*%
X144540000Y-136460000D03*
X139460000Y-136460000D03*
X139460000Y-141540000D03*
X144540000Y-141540000D03*
%TD*%
D10*
%TO.N,Net-(J5-Pad1)*%
%TO.C,J5*%
X112000000Y-139000000D03*
D11*
%TO.N,GND*%
X114540000Y-136460000D03*
X109460000Y-136460000D03*
X109460000Y-141540000D03*
X114540000Y-141540000D03*
%TD*%
D15*
%TO.N,GND*%
X124600000Y-99500000D03*
X187000000Y-53200000D03*
X202000000Y-53200000D03*
%TO.N,+5V*%
X202000000Y-58800000D03*
%TO.N,GND*%
X100700000Y-80800000D03*
X95400000Y-77200000D03*
X78300000Y-77600000D03*
%TO.N,GND_BUS*%
X78200000Y-70200000D03*
X78500000Y-61500000D03*
%TO.N,GND*%
X97900000Y-80600000D03*
X100200000Y-131400000D03*
X205150000Y-131400000D03*
X121750000Y-91700000D03*
X185150000Y-128750000D03*
X145150000Y-131400000D03*
X128950000Y-103450000D03*
X142600000Y-129300000D03*
X135900000Y-89300000D03*
X174400000Y-128350000D03*
X114400000Y-128350000D03*
X204400000Y-128350000D03*
X128350000Y-105000000D03*
X81950000Y-95100000D03*
X189400000Y-128350000D03*
X115200000Y-131400000D03*
X128450000Y-107750000D03*
X124750000Y-87200000D03*
X139750000Y-99100000D03*
X190200000Y-131400000D03*
X77650000Y-131000000D03*
X139950000Y-90300000D03*
X159400000Y-128350000D03*
X99400000Y-128350000D03*
X130000000Y-84550000D03*
X137100000Y-111750000D03*
X157600000Y-129300000D03*
X121750000Y-94400000D03*
X200150000Y-128800000D03*
X135050000Y-88050000D03*
X112600000Y-129300000D03*
X133150000Y-103450000D03*
X133850000Y-105000000D03*
X155150000Y-128800000D03*
X125100000Y-101300000D03*
X135050000Y-87450000D03*
X133650000Y-109450000D03*
X170150000Y-128800000D03*
X187600000Y-129300000D03*
X74700000Y-105700000D03*
X127600000Y-129300000D03*
X172600000Y-129300000D03*
X99600000Y-91900000D03*
X175150000Y-131400000D03*
X140150000Y-128800000D03*
X78800000Y-134200000D03*
X121750000Y-96800000D03*
X110150000Y-128800000D03*
X130150000Y-131400000D03*
X95150000Y-128800000D03*
X202600000Y-129300000D03*
X129400000Y-128400000D03*
X137150000Y-117200000D03*
X140250000Y-94200000D03*
X160200000Y-131400000D03*
X74500000Y-126500000D03*
X144400000Y-128400000D03*
X128650000Y-86700000D03*
X124750000Y-88150000D03*
X125150000Y-128800000D03*
X140250000Y-95200000D03*
X124750000Y-86250000D03*
X97600000Y-129300000D03*
%TO.N,+1V1*%
X132750000Y-87750000D03*
X132000000Y-101500000D03*
X133250000Y-94400000D03*
X128750000Y-94400000D03*
X132750000Y-92350000D03*
X124350000Y-94400000D03*
X137400000Y-94400000D03*
X132000000Y-96850000D03*
X132750000Y-87150000D03*
%TO.N,+5V*%
X205200000Y-132400000D03*
X130200000Y-132400000D03*
X175200000Y-132400000D03*
X145200000Y-132400000D03*
X96100000Y-78200000D03*
X100200000Y-132400000D03*
X115200000Y-132400000D03*
X160200000Y-132400000D03*
X190200000Y-132400000D03*
%TO.N,/Microcontroller and Ext. Clock/RUN*%
X99600000Y-98900000D03*
X132800000Y-98550000D03*
%TD*%
%TA.AperFunction,Conductor*%
%TO.N,GND*%
G36*
X72870636Y-46019407D02*
G01*
X72906600Y-46068907D01*
X72910590Y-46112484D01*
X72908358Y-46129349D01*
X72982424Y-52690000D01*
X72995994Y-53892012D01*
X72996181Y-53908574D01*
X73027107Y-56647905D01*
X73027339Y-56668499D01*
X73040984Y-57877103D01*
X73049937Y-58670164D01*
X73253610Y-76711342D01*
X73260808Y-76773907D01*
X73271801Y-76823571D01*
X73282108Y-76859536D01*
X73338389Y-76956668D01*
X73338391Y-76956671D01*
X73383937Y-77009666D01*
X73428496Y-77052020D01*
X73428497Y-77052020D01*
X73428500Y-77052023D01*
X73528371Y-77103312D01*
X73595330Y-77123267D01*
X73681349Y-77135990D01*
X73681346Y-77135990D01*
X90771496Y-77204984D01*
X90771496Y-77204983D01*
X90771504Y-77204984D01*
X90840345Y-77197411D01*
X90894820Y-77185049D01*
X90936642Y-77172352D01*
X91032289Y-77113561D01*
X91084076Y-77066659D01*
X91125264Y-77021009D01*
X91173942Y-76919840D01*
X91192151Y-76852385D01*
X91202634Y-76766065D01*
X90806948Y-58734108D01*
X201499500Y-58734108D01*
X201499500Y-58865892D01*
X201529579Y-58978151D01*
X201533609Y-58993190D01*
X201599496Y-59107309D01*
X201599498Y-59107311D01*
X201599500Y-59107314D01*
X201692686Y-59200500D01*
X201692688Y-59200501D01*
X201692690Y-59200503D01*
X201806810Y-59266390D01*
X201806808Y-59266390D01*
X201806812Y-59266391D01*
X201806814Y-59266392D01*
X201934108Y-59300500D01*
X201934110Y-59300500D01*
X202065890Y-59300500D01*
X202065892Y-59300500D01*
X202193186Y-59266392D01*
X202193188Y-59266390D01*
X202193190Y-59266390D01*
X202307309Y-59200503D01*
X202307309Y-59200502D01*
X202307314Y-59200500D01*
X202400500Y-59107314D01*
X202466392Y-58993186D01*
X202500500Y-58865892D01*
X202500500Y-58734108D01*
X202466392Y-58606814D01*
X202466390Y-58606811D01*
X202466390Y-58606809D01*
X202400503Y-58492690D01*
X202400501Y-58492688D01*
X202400500Y-58492686D01*
X202307314Y-58399500D01*
X202307311Y-58399498D01*
X202307309Y-58399496D01*
X202193189Y-58333609D01*
X202193191Y-58333609D01*
X202143799Y-58320375D01*
X202065892Y-58299500D01*
X201934108Y-58299500D01*
X201856200Y-58320375D01*
X201806809Y-58333609D01*
X201692690Y-58399496D01*
X201599496Y-58492690D01*
X201533609Y-58606809D01*
X201533608Y-58606814D01*
X201499500Y-58734108D01*
X90806948Y-58734108D01*
X90727532Y-55115000D01*
X90718892Y-54721282D01*
X90711084Y-54365477D01*
X90710312Y-54330284D01*
X90709197Y-54310054D01*
X90707747Y-54293670D01*
X90679799Y-54190396D01*
X90650020Y-54127190D01*
X90618349Y-54074486D01*
X90574489Y-54034108D01*
X90544485Y-53980786D01*
X90551553Y-53920010D01*
X90573881Y-53889544D01*
X90573678Y-53889341D01*
X90575004Y-53888011D01*
X90575097Y-53887884D01*
X90575444Y-53887571D01*
X90616632Y-53841921D01*
X90665310Y-53740752D01*
X90683519Y-53673297D01*
X90694002Y-53586977D01*
X90692971Y-53539999D01*
X90690252Y-53416041D01*
X167885000Y-53416041D01*
X167885000Y-53663958D01*
X167923781Y-53908810D01*
X168000389Y-54144588D01*
X168112937Y-54365477D01*
X168243157Y-54544708D01*
X168762214Y-54025650D01*
X168799762Y-54081844D01*
X168918156Y-54200238D01*
X168974347Y-54237783D01*
X168455289Y-54756841D01*
X168634522Y-54887062D01*
X168855411Y-54999610D01*
X169091189Y-55076218D01*
X169336042Y-55115000D01*
X169583958Y-55115000D01*
X169828810Y-55076218D01*
X170064588Y-54999610D01*
X170285479Y-54887061D01*
X170285485Y-54887057D01*
X170464709Y-54756842D01*
X170464709Y-54756841D01*
X169945651Y-54237784D01*
X170001844Y-54200238D01*
X170120238Y-54081844D01*
X170157784Y-54025651D01*
X170676841Y-54544709D01*
X170676842Y-54544709D01*
X170807057Y-54365485D01*
X170807061Y-54365479D01*
X170919610Y-54144588D01*
X170996218Y-53908810D01*
X171035000Y-53663958D01*
X171035000Y-53416041D01*
X172965000Y-53416041D01*
X172965000Y-53663958D01*
X173003781Y-53908810D01*
X173080389Y-54144588D01*
X173192937Y-54365477D01*
X173323157Y-54544708D01*
X173842214Y-54025650D01*
X173879762Y-54081844D01*
X173998156Y-54200238D01*
X174054347Y-54237783D01*
X173535289Y-54756841D01*
X173714522Y-54887062D01*
X173935411Y-54999610D01*
X174171189Y-55076218D01*
X174416042Y-55115000D01*
X174663958Y-55115000D01*
X174908810Y-55076218D01*
X175144588Y-54999610D01*
X175365479Y-54887061D01*
X175365485Y-54887057D01*
X175544709Y-54756842D01*
X175544709Y-54756841D01*
X175025651Y-54237784D01*
X175081844Y-54200238D01*
X175200238Y-54081844D01*
X175237784Y-54025651D01*
X175756841Y-54544709D01*
X175756842Y-54544709D01*
X175887057Y-54365485D01*
X175887061Y-54365479D01*
X175999610Y-54144588D01*
X176076218Y-53908810D01*
X176115000Y-53663958D01*
X176115000Y-53416041D01*
X176076218Y-53171189D01*
X175999610Y-52935411D01*
X175887062Y-52714522D01*
X175756841Y-52535289D01*
X175237783Y-53054347D01*
X175200238Y-52998156D01*
X175081844Y-52879762D01*
X175025650Y-52842214D01*
X175544708Y-52323157D01*
X175365477Y-52192937D01*
X175144588Y-52080389D01*
X174908810Y-52003781D01*
X174663958Y-51965000D01*
X174416042Y-51965000D01*
X174171189Y-52003781D01*
X173935411Y-52080389D01*
X173714520Y-52192938D01*
X173714516Y-52192940D01*
X173535289Y-52323156D01*
X174054348Y-52842215D01*
X173998156Y-52879762D01*
X173879762Y-52998156D01*
X173842215Y-53054348D01*
X173323156Y-52535289D01*
X173192940Y-52714516D01*
X173192938Y-52714520D01*
X173080389Y-52935411D01*
X173003781Y-53171189D01*
X172965000Y-53416041D01*
X171035000Y-53416041D01*
X170996218Y-53171189D01*
X170919610Y-52935411D01*
X170807062Y-52714522D01*
X170676841Y-52535289D01*
X170157783Y-53054347D01*
X170120238Y-52998156D01*
X170001844Y-52879762D01*
X169945650Y-52842214D01*
X170464708Y-52323157D01*
X170285477Y-52192937D01*
X170064588Y-52080389D01*
X169828810Y-52003781D01*
X169583958Y-51965000D01*
X169336042Y-51965000D01*
X169091189Y-52003781D01*
X168855411Y-52080389D01*
X168634520Y-52192938D01*
X168634516Y-52192940D01*
X168455289Y-52323156D01*
X168974348Y-52842215D01*
X168918156Y-52879762D01*
X168799762Y-52998156D01*
X168762215Y-53054348D01*
X168243156Y-52535289D01*
X168112940Y-52714516D01*
X168112938Y-52714520D01*
X168000389Y-52935411D01*
X167923781Y-53171189D01*
X167885000Y-53416041D01*
X90690252Y-53416041D01*
X90690214Y-53414327D01*
X90667145Y-52363060D01*
X90657889Y-51941233D01*
X90635334Y-50913385D01*
X170899500Y-50913385D01*
X170899500Y-51086614D01*
X170926597Y-51257702D01*
X170926598Y-51257706D01*
X170980123Y-51422438D01*
X170980125Y-51422441D01*
X170980126Y-51422444D01*
X170980127Y-51422445D01*
X171058768Y-51576788D01*
X171160586Y-51716928D01*
X171283072Y-51839414D01*
X171423212Y-51941232D01*
X171577555Y-52019873D01*
X171577557Y-52019873D01*
X171577558Y-52019874D01*
X171577561Y-52019876D01*
X171742293Y-52073401D01*
X171742297Y-52073402D01*
X171913386Y-52100500D01*
X171913389Y-52100500D01*
X172086614Y-52100500D01*
X172257702Y-52073402D01*
X172257706Y-52073401D01*
X172422438Y-52019876D01*
X172422440Y-52019874D01*
X172422445Y-52019873D01*
X172576788Y-51941232D01*
X172716928Y-51839414D01*
X172839414Y-51716928D01*
X172941232Y-51576788D01*
X173019873Y-51422445D01*
X173019874Y-51422440D01*
X173019876Y-51422438D01*
X173073401Y-51257706D01*
X173073402Y-51257702D01*
X173100500Y-51086614D01*
X173100500Y-50913385D01*
X173073402Y-50742297D01*
X173073401Y-50742293D01*
X173019876Y-50577561D01*
X173019874Y-50577558D01*
X173019873Y-50577557D01*
X173019873Y-50577555D01*
X172941232Y-50423212D01*
X172839414Y-50283072D01*
X172716928Y-50160586D01*
X172576788Y-50058768D01*
X172576787Y-50058767D01*
X172576785Y-50058766D01*
X172422441Y-49980125D01*
X172422438Y-49980123D01*
X172257706Y-49926598D01*
X172257702Y-49926597D01*
X172086614Y-49899500D01*
X172086611Y-49899500D01*
X171913389Y-49899500D01*
X171913386Y-49899500D01*
X171742297Y-49926597D01*
X171742293Y-49926598D01*
X171577561Y-49980123D01*
X171577558Y-49980125D01*
X171423214Y-50058766D01*
X171283073Y-50160585D01*
X171160585Y-50283073D01*
X171058766Y-50423214D01*
X170980125Y-50577558D01*
X170980123Y-50577561D01*
X170926598Y-50742293D01*
X170926597Y-50742297D01*
X170899500Y-50913385D01*
X90635334Y-50913385D01*
X90578778Y-48336041D01*
X167885000Y-48336041D01*
X167885000Y-48583958D01*
X167923781Y-48828810D01*
X168000389Y-49064588D01*
X168112937Y-49285477D01*
X168243157Y-49464708D01*
X168762214Y-48945650D01*
X168799762Y-49001844D01*
X168918156Y-49120238D01*
X168974347Y-49157783D01*
X168455289Y-49676841D01*
X168634522Y-49807062D01*
X168855411Y-49919610D01*
X169091189Y-49996218D01*
X169336042Y-50035000D01*
X169583958Y-50035000D01*
X169828810Y-49996218D01*
X170064588Y-49919610D01*
X170285479Y-49807061D01*
X170285485Y-49807057D01*
X170464709Y-49676842D01*
X170464709Y-49676841D01*
X169945651Y-49157784D01*
X170001844Y-49120238D01*
X170120238Y-49001844D01*
X170157784Y-48945651D01*
X170676841Y-49464709D01*
X170676842Y-49464709D01*
X170807057Y-49285485D01*
X170807061Y-49285479D01*
X170919610Y-49064588D01*
X170996218Y-48828810D01*
X171035000Y-48583958D01*
X171035000Y-48336041D01*
X172965000Y-48336041D01*
X172965000Y-48583958D01*
X173003781Y-48828810D01*
X173080389Y-49064588D01*
X173192937Y-49285477D01*
X173323157Y-49464708D01*
X173842214Y-48945650D01*
X173879762Y-49001844D01*
X173998156Y-49120238D01*
X174054347Y-49157783D01*
X173535289Y-49676841D01*
X173714522Y-49807062D01*
X173935411Y-49919610D01*
X174171189Y-49996218D01*
X174416042Y-50035000D01*
X174663958Y-50035000D01*
X174908810Y-49996218D01*
X175144588Y-49919610D01*
X175365479Y-49807061D01*
X175365485Y-49807057D01*
X175544709Y-49676842D01*
X175544709Y-49676841D01*
X175025651Y-49157784D01*
X175081844Y-49120238D01*
X175200238Y-49001844D01*
X175237784Y-48945651D01*
X175756841Y-49464709D01*
X175756842Y-49464709D01*
X175887057Y-49285485D01*
X175887061Y-49285479D01*
X175999610Y-49064588D01*
X176060006Y-48878710D01*
X211149500Y-48878710D01*
X211149500Y-49121289D01*
X211181161Y-49361781D01*
X211181161Y-49361786D01*
X211243944Y-49596092D01*
X211243948Y-49596105D01*
X211336772Y-49820204D01*
X211336774Y-49820208D01*
X211336776Y-49820212D01*
X211398198Y-49926598D01*
X211458066Y-50030292D01*
X211605729Y-50222731D01*
X211605731Y-50222733D01*
X211605735Y-50222738D01*
X211777262Y-50394265D01*
X211777266Y-50394268D01*
X211777268Y-50394270D01*
X211814989Y-50423214D01*
X211969711Y-50541936D01*
X212179788Y-50663224D01*
X212403900Y-50756054D01*
X212638211Y-50818838D01*
X212878712Y-50850500D01*
X212878713Y-50850500D01*
X213121287Y-50850500D01*
X213121288Y-50850500D01*
X213361789Y-50818838D01*
X213596100Y-50756054D01*
X213820212Y-50663224D01*
X214030289Y-50541936D01*
X214222738Y-50394265D01*
X214394265Y-50222738D01*
X214541936Y-50030289D01*
X214663224Y-49820212D01*
X214756054Y-49596100D01*
X214818838Y-49361789D01*
X214850500Y-49121288D01*
X214850500Y-48878712D01*
X214818838Y-48638211D01*
X214756054Y-48403900D01*
X214663224Y-48179788D01*
X214541936Y-47969711D01*
X214394265Y-47777262D01*
X214222738Y-47605735D01*
X214222733Y-47605731D01*
X214222731Y-47605729D01*
X214030292Y-47458066D01*
X214030289Y-47458064D01*
X213820212Y-47336776D01*
X213820208Y-47336774D01*
X213820204Y-47336772D01*
X213596105Y-47243948D01*
X213596104Y-47243947D01*
X213596100Y-47243946D01*
X213361789Y-47181162D01*
X213361786Y-47181161D01*
X213361784Y-47181161D01*
X213121289Y-47149500D01*
X213121288Y-47149500D01*
X212878712Y-47149500D01*
X212878710Y-47149500D01*
X212638218Y-47181161D01*
X212638213Y-47181161D01*
X212403907Y-47243944D01*
X212403894Y-47243948D01*
X212179795Y-47336772D01*
X211969707Y-47458066D01*
X211777268Y-47605729D01*
X211605729Y-47777268D01*
X211458066Y-47969707D01*
X211336772Y-48179795D01*
X211243948Y-48403894D01*
X211243944Y-48403907D01*
X211181161Y-48638213D01*
X211181161Y-48638218D01*
X211149500Y-48878710D01*
X176060006Y-48878710D01*
X176070998Y-48844879D01*
X176070998Y-48844878D01*
X176076219Y-48828808D01*
X176115000Y-48583958D01*
X176115000Y-48336041D01*
X176076218Y-48091189D01*
X175999610Y-47855411D01*
X175887062Y-47634522D01*
X175756841Y-47455289D01*
X175237783Y-47974347D01*
X175200238Y-47918156D01*
X175081844Y-47799762D01*
X175025650Y-47762214D01*
X175544708Y-47243157D01*
X175365477Y-47112937D01*
X175144588Y-47000389D01*
X174908810Y-46923781D01*
X174663958Y-46885000D01*
X174416042Y-46885000D01*
X174171189Y-46923781D01*
X173935411Y-47000389D01*
X173714520Y-47112938D01*
X173714516Y-47112940D01*
X173535289Y-47243156D01*
X174054348Y-47762215D01*
X173998156Y-47799762D01*
X173879762Y-47918156D01*
X173842215Y-47974348D01*
X173323156Y-47455289D01*
X173192940Y-47634516D01*
X173192938Y-47634520D01*
X173080389Y-47855411D01*
X173003781Y-48091189D01*
X172965000Y-48336041D01*
X171035000Y-48336041D01*
X170996218Y-48091189D01*
X170919610Y-47855411D01*
X170807062Y-47634522D01*
X170676841Y-47455289D01*
X170157783Y-47974347D01*
X170120238Y-47918156D01*
X170001844Y-47799762D01*
X169945650Y-47762214D01*
X170464708Y-47243157D01*
X170285477Y-47112937D01*
X170064588Y-47000389D01*
X169828810Y-46923781D01*
X169583958Y-46885000D01*
X169336042Y-46885000D01*
X169091189Y-46923781D01*
X168855411Y-47000389D01*
X168634520Y-47112938D01*
X168634516Y-47112940D01*
X168455289Y-47243156D01*
X168974348Y-47762215D01*
X168918156Y-47799762D01*
X168799762Y-47918156D01*
X168762215Y-47974348D01*
X168243156Y-47455289D01*
X168112940Y-47634516D01*
X168112938Y-47634520D01*
X168000389Y-47855411D01*
X167923781Y-48091189D01*
X167885000Y-48336041D01*
X90578778Y-48336041D01*
X90559263Y-47446715D01*
X90555672Y-47283060D01*
X90540285Y-46581861D01*
X90530042Y-46115078D01*
X90529622Y-46111693D01*
X90541218Y-46051617D01*
X90585912Y-46009830D01*
X90627868Y-46000500D01*
X213907290Y-46000500D01*
X213996759Y-46000500D01*
X214003234Y-46000712D01*
X214254517Y-46017181D01*
X214267342Y-46018870D01*
X214511150Y-46067366D01*
X214523650Y-46070715D01*
X214644365Y-46111693D01*
X214759033Y-46150618D01*
X214770996Y-46155574D01*
X214993929Y-46265512D01*
X215005145Y-46271987D01*
X215211824Y-46410086D01*
X215222097Y-46417969D01*
X215408981Y-46581861D01*
X215418138Y-46591018D01*
X215582030Y-46777902D01*
X215589913Y-46788175D01*
X215728012Y-46994854D01*
X215734487Y-47006070D01*
X215844425Y-47229003D01*
X215849381Y-47240966D01*
X215929282Y-47476344D01*
X215932634Y-47488853D01*
X215981128Y-47732650D01*
X215982818Y-47745489D01*
X215999288Y-47996765D01*
X215999500Y-48003240D01*
X215999500Y-141996759D01*
X215999288Y-142003234D01*
X215982818Y-142254510D01*
X215981128Y-142267349D01*
X215932634Y-142511146D01*
X215929282Y-142523655D01*
X215849381Y-142759033D01*
X215844425Y-142770996D01*
X215734487Y-142993929D01*
X215728012Y-143005145D01*
X215589913Y-143211824D01*
X215582030Y-143222097D01*
X215418138Y-143408981D01*
X215408981Y-143418138D01*
X215222097Y-143582030D01*
X215211824Y-143589913D01*
X215005145Y-143728012D01*
X214993929Y-143734487D01*
X214770996Y-143844425D01*
X214759033Y-143849381D01*
X214523655Y-143929282D01*
X214511146Y-143932634D01*
X214267349Y-143981128D01*
X214254510Y-143982818D01*
X214003234Y-143999288D01*
X213996759Y-143999500D01*
X65003241Y-143999500D01*
X64996766Y-143999288D01*
X64745489Y-143982818D01*
X64732650Y-143981128D01*
X64488853Y-143932634D01*
X64476344Y-143929282D01*
X64240966Y-143849381D01*
X64229003Y-143844425D01*
X64006070Y-143734487D01*
X63994854Y-143728012D01*
X63788175Y-143589913D01*
X63777902Y-143582030D01*
X63591018Y-143418138D01*
X63581861Y-143408981D01*
X63417969Y-143222097D01*
X63410086Y-143211824D01*
X63271987Y-143005145D01*
X63265512Y-142993929D01*
X63155574Y-142770996D01*
X63150618Y-142759033D01*
X63070717Y-142523655D01*
X63067365Y-142511146D01*
X63043268Y-142390000D01*
X63018870Y-142267342D01*
X63017181Y-142254510D01*
X63015098Y-142222731D01*
X63000712Y-142003234D01*
X63000500Y-141996759D01*
X63000500Y-140878710D01*
X64149500Y-140878710D01*
X64149500Y-141121289D01*
X64181161Y-141361781D01*
X64181161Y-141361786D01*
X64243944Y-141596092D01*
X64243948Y-141596105D01*
X64336772Y-141820204D01*
X64336774Y-141820208D01*
X64336776Y-141820212D01*
X64440577Y-142000000D01*
X64458066Y-142030292D01*
X64605729Y-142222731D01*
X64605731Y-142222733D01*
X64605735Y-142222738D01*
X64777262Y-142394265D01*
X64777266Y-142394268D01*
X64777268Y-142394270D01*
X64937877Y-142517509D01*
X64969711Y-142541936D01*
X65179788Y-142663224D01*
X65403900Y-142756054D01*
X65638211Y-142818838D01*
X65878712Y-142850500D01*
X65878713Y-142850500D01*
X66121287Y-142850500D01*
X66121288Y-142850500D01*
X66361789Y-142818838D01*
X66596100Y-142756054D01*
X66759755Y-142688265D01*
X66820208Y-142663226D01*
X66820209Y-142663224D01*
X66820212Y-142663224D01*
X67030289Y-142541936D01*
X67222738Y-142394265D01*
X67394265Y-142222738D01*
X67541936Y-142030289D01*
X67663224Y-141820212D01*
X67756054Y-141596100D01*
X67804301Y-141416041D01*
X72885000Y-141416041D01*
X72885000Y-141663958D01*
X72923781Y-141908810D01*
X73000389Y-142144588D01*
X73112937Y-142365477D01*
X73243157Y-142544708D01*
X73762214Y-142025650D01*
X73799762Y-142081844D01*
X73918156Y-142200238D01*
X73974347Y-142237783D01*
X73455289Y-142756841D01*
X73634522Y-142887062D01*
X73855411Y-142999610D01*
X74091189Y-143076218D01*
X74336042Y-143115000D01*
X74583958Y-143115000D01*
X74828810Y-143076218D01*
X75064588Y-142999610D01*
X75285479Y-142887061D01*
X75285485Y-142887057D01*
X75464709Y-142756842D01*
X75464709Y-142756841D01*
X74945651Y-142237784D01*
X75001844Y-142200238D01*
X75120238Y-142081844D01*
X75157784Y-142025651D01*
X75676841Y-142544709D01*
X75676842Y-142544709D01*
X75807057Y-142365485D01*
X75807061Y-142365479D01*
X75919610Y-142144588D01*
X75996218Y-141908810D01*
X76035000Y-141663958D01*
X76035000Y-141416041D01*
X77965000Y-141416041D01*
X77965000Y-141663958D01*
X78003781Y-141908810D01*
X78080389Y-142144588D01*
X78192937Y-142365477D01*
X78323157Y-142544708D01*
X78842214Y-142025650D01*
X78879762Y-142081844D01*
X78998156Y-142200238D01*
X79054347Y-142237783D01*
X78535289Y-142756841D01*
X78714522Y-142887062D01*
X78935411Y-142999610D01*
X79171189Y-143076218D01*
X79416042Y-143115000D01*
X79663958Y-143115000D01*
X79908810Y-143076218D01*
X80144588Y-142999610D01*
X80365479Y-142887061D01*
X80365485Y-142887057D01*
X80544709Y-142756842D01*
X80544709Y-142756841D01*
X80025651Y-142237784D01*
X80081844Y-142200238D01*
X80200238Y-142081844D01*
X80237784Y-142025651D01*
X80756841Y-142544709D01*
X80756842Y-142544709D01*
X80887057Y-142365485D01*
X80887061Y-142365479D01*
X80999610Y-142144588D01*
X81076218Y-141908810D01*
X81115000Y-141663958D01*
X81115000Y-141416041D01*
X92885000Y-141416041D01*
X92885000Y-141663958D01*
X92923781Y-141908810D01*
X93000389Y-142144588D01*
X93112937Y-142365477D01*
X93243157Y-142544708D01*
X93762214Y-142025650D01*
X93799762Y-142081844D01*
X93918156Y-142200238D01*
X93974347Y-142237783D01*
X93455289Y-142756841D01*
X93634522Y-142887062D01*
X93855411Y-142999610D01*
X94091189Y-143076218D01*
X94336042Y-143115000D01*
X94583958Y-143115000D01*
X94828810Y-143076218D01*
X95064588Y-142999610D01*
X95285479Y-142887061D01*
X95285485Y-142887057D01*
X95464709Y-142756842D01*
X95464709Y-142756841D01*
X94945651Y-142237784D01*
X95001844Y-142200238D01*
X95120238Y-142081844D01*
X95157784Y-142025651D01*
X95676841Y-142544709D01*
X95676842Y-142544709D01*
X95807057Y-142365485D01*
X95807061Y-142365479D01*
X95919610Y-142144588D01*
X95996218Y-141908810D01*
X96035000Y-141663958D01*
X96035000Y-141416041D01*
X97965000Y-141416041D01*
X97965000Y-141663958D01*
X98003781Y-141908810D01*
X98080389Y-142144588D01*
X98192937Y-142365477D01*
X98323157Y-142544708D01*
X98842214Y-142025650D01*
X98879762Y-142081844D01*
X98998156Y-142200238D01*
X99054347Y-142237783D01*
X98535289Y-142756841D01*
X98714522Y-142887062D01*
X98935411Y-142999610D01*
X99171189Y-143076218D01*
X99416042Y-143115000D01*
X99663958Y-143115000D01*
X99908810Y-143076218D01*
X100144588Y-142999610D01*
X100365479Y-142887061D01*
X100365485Y-142887057D01*
X100544709Y-142756842D01*
X100544709Y-142756841D01*
X100025651Y-142237784D01*
X100081844Y-142200238D01*
X100200238Y-142081844D01*
X100237784Y-142025651D01*
X100756841Y-142544709D01*
X100756842Y-142544709D01*
X100887057Y-142365485D01*
X100887061Y-142365479D01*
X100999610Y-142144588D01*
X101076218Y-141908810D01*
X101115000Y-141663958D01*
X101115000Y-141416041D01*
X107885000Y-141416041D01*
X107885000Y-141663958D01*
X107923781Y-141908810D01*
X108000389Y-142144588D01*
X108112937Y-142365477D01*
X108243157Y-142544708D01*
X108762214Y-142025650D01*
X108799762Y-142081844D01*
X108918156Y-142200238D01*
X108974347Y-142237783D01*
X108455289Y-142756841D01*
X108634522Y-142887062D01*
X108855411Y-142999610D01*
X109091189Y-143076218D01*
X109336042Y-143115000D01*
X109583958Y-143115000D01*
X109828810Y-143076218D01*
X110064588Y-142999610D01*
X110285479Y-142887061D01*
X110285485Y-142887057D01*
X110464709Y-142756842D01*
X110464709Y-142756841D01*
X109945651Y-142237784D01*
X110001844Y-142200238D01*
X110120238Y-142081844D01*
X110157784Y-142025651D01*
X110676841Y-142544709D01*
X110676842Y-142544709D01*
X110807057Y-142365485D01*
X110807061Y-142365479D01*
X110919610Y-142144588D01*
X110996218Y-141908810D01*
X111035000Y-141663958D01*
X111035000Y-141416041D01*
X112965000Y-141416041D01*
X112965000Y-141663958D01*
X113003781Y-141908810D01*
X113080389Y-142144588D01*
X113192937Y-142365477D01*
X113323157Y-142544708D01*
X113842214Y-142025650D01*
X113879762Y-142081844D01*
X113998156Y-142200238D01*
X114054347Y-142237783D01*
X113535289Y-142756841D01*
X113714522Y-142887062D01*
X113935411Y-142999610D01*
X114171189Y-143076218D01*
X114416042Y-143115000D01*
X114663958Y-143115000D01*
X114908810Y-143076218D01*
X115144588Y-142999610D01*
X115365479Y-142887061D01*
X115365485Y-142887057D01*
X115544709Y-142756842D01*
X115544709Y-142756841D01*
X115025651Y-142237784D01*
X115081844Y-142200238D01*
X115200238Y-142081844D01*
X115237784Y-142025651D01*
X115756841Y-142544709D01*
X115756842Y-142544709D01*
X115887057Y-142365485D01*
X115887061Y-142365479D01*
X115999610Y-142144588D01*
X116076218Y-141908810D01*
X116115000Y-141663958D01*
X116115000Y-141416041D01*
X122885000Y-141416041D01*
X122885000Y-141663958D01*
X122923781Y-141908810D01*
X123000389Y-142144588D01*
X123112937Y-142365477D01*
X123243157Y-142544708D01*
X123762214Y-142025650D01*
X123799762Y-142081844D01*
X123918156Y-142200238D01*
X123974347Y-142237783D01*
X123455289Y-142756841D01*
X123634522Y-142887062D01*
X123855411Y-142999610D01*
X124091189Y-143076218D01*
X124336042Y-143115000D01*
X124583958Y-143115000D01*
X124828810Y-143076218D01*
X125064588Y-142999610D01*
X125285479Y-142887061D01*
X125285485Y-142887057D01*
X125464709Y-142756842D01*
X125464709Y-142756841D01*
X124945651Y-142237784D01*
X125001844Y-142200238D01*
X125120238Y-142081844D01*
X125157784Y-142025651D01*
X125676841Y-142544709D01*
X125676842Y-142544709D01*
X125807057Y-142365485D01*
X125807061Y-142365479D01*
X125919610Y-142144588D01*
X125996218Y-141908810D01*
X126035000Y-141663958D01*
X126035000Y-141416041D01*
X127965000Y-141416041D01*
X127965000Y-141663958D01*
X128003781Y-141908810D01*
X128080389Y-142144588D01*
X128192937Y-142365477D01*
X128323157Y-142544708D01*
X128842214Y-142025650D01*
X128879762Y-142081844D01*
X128998156Y-142200238D01*
X129054347Y-142237783D01*
X128535289Y-142756841D01*
X128714522Y-142887062D01*
X128935411Y-142999610D01*
X129171189Y-143076218D01*
X129416042Y-143115000D01*
X129663958Y-143115000D01*
X129908810Y-143076218D01*
X130144588Y-142999610D01*
X130365479Y-142887061D01*
X130365485Y-142887057D01*
X130544709Y-142756842D01*
X130544709Y-142756841D01*
X130025651Y-142237784D01*
X130081844Y-142200238D01*
X130200238Y-142081844D01*
X130237784Y-142025651D01*
X130756841Y-142544709D01*
X130756842Y-142544709D01*
X130887057Y-142365485D01*
X130887061Y-142365479D01*
X130999610Y-142144588D01*
X131076218Y-141908810D01*
X131115000Y-141663958D01*
X131115000Y-141416041D01*
X137885000Y-141416041D01*
X137885000Y-141663958D01*
X137923781Y-141908810D01*
X138000389Y-142144588D01*
X138112937Y-142365477D01*
X138243157Y-142544708D01*
X138762214Y-142025650D01*
X138799762Y-142081844D01*
X138918156Y-142200238D01*
X138974347Y-142237783D01*
X138455289Y-142756841D01*
X138634522Y-142887062D01*
X138855411Y-142999610D01*
X139091189Y-143076218D01*
X139336042Y-143115000D01*
X139583958Y-143115000D01*
X139828810Y-143076218D01*
X140064588Y-142999610D01*
X140285479Y-142887061D01*
X140285485Y-142887057D01*
X140464709Y-142756842D01*
X140464709Y-142756841D01*
X139945651Y-142237784D01*
X140001844Y-142200238D01*
X140120238Y-142081844D01*
X140157784Y-142025651D01*
X140676841Y-142544709D01*
X140676842Y-142544709D01*
X140807057Y-142365485D01*
X140807061Y-142365479D01*
X140919610Y-142144588D01*
X140996218Y-141908810D01*
X141035000Y-141663958D01*
X141035000Y-141416041D01*
X142965000Y-141416041D01*
X142965000Y-141663958D01*
X143003781Y-141908810D01*
X143080389Y-142144588D01*
X143192937Y-142365477D01*
X143323157Y-142544708D01*
X143842214Y-142025650D01*
X143879762Y-142081844D01*
X143998156Y-142200238D01*
X144054347Y-142237783D01*
X143535289Y-142756841D01*
X143714522Y-142887062D01*
X143935411Y-142999610D01*
X144171189Y-143076218D01*
X144416042Y-143115000D01*
X144663958Y-143115000D01*
X144908810Y-143076218D01*
X145144588Y-142999610D01*
X145365479Y-142887061D01*
X145365485Y-142887057D01*
X145544709Y-142756842D01*
X145544709Y-142756841D01*
X145025651Y-142237784D01*
X145081844Y-142200238D01*
X145200238Y-142081844D01*
X145237784Y-142025651D01*
X145756841Y-142544709D01*
X145756842Y-142544709D01*
X145887057Y-142365485D01*
X145887061Y-142365479D01*
X145999610Y-142144588D01*
X146076218Y-141908810D01*
X146115000Y-141663958D01*
X146115000Y-141416041D01*
X152885000Y-141416041D01*
X152885000Y-141663958D01*
X152923781Y-141908810D01*
X153000389Y-142144588D01*
X153112937Y-142365477D01*
X153243157Y-142544708D01*
X153762214Y-142025650D01*
X153799762Y-142081844D01*
X153918156Y-142200238D01*
X153974347Y-142237783D01*
X153455289Y-142756841D01*
X153634522Y-142887062D01*
X153855411Y-142999610D01*
X154091189Y-143076218D01*
X154336042Y-143115000D01*
X154583958Y-143115000D01*
X154828810Y-143076218D01*
X155064588Y-142999610D01*
X155285479Y-142887061D01*
X155285485Y-142887057D01*
X155464709Y-142756842D01*
X155464709Y-142756841D01*
X154945651Y-142237784D01*
X155001844Y-142200238D01*
X155120238Y-142081844D01*
X155157784Y-142025651D01*
X155676841Y-142544709D01*
X155676842Y-142544709D01*
X155807057Y-142365485D01*
X155807061Y-142365479D01*
X155919610Y-142144588D01*
X155996218Y-141908810D01*
X156035000Y-141663958D01*
X156035000Y-141416041D01*
X157965000Y-141416041D01*
X157965000Y-141663958D01*
X158003781Y-141908810D01*
X158080389Y-142144588D01*
X158192937Y-142365477D01*
X158323157Y-142544708D01*
X158842214Y-142025650D01*
X158879762Y-142081844D01*
X158998156Y-142200238D01*
X159054347Y-142237783D01*
X158535289Y-142756841D01*
X158714522Y-142887062D01*
X158935411Y-142999610D01*
X159171189Y-143076218D01*
X159416042Y-143115000D01*
X159663958Y-143115000D01*
X159908810Y-143076218D01*
X160144588Y-142999610D01*
X160365479Y-142887061D01*
X160365485Y-142887057D01*
X160544709Y-142756842D01*
X160544709Y-142756841D01*
X160025651Y-142237784D01*
X160081844Y-142200238D01*
X160200238Y-142081844D01*
X160237784Y-142025651D01*
X160756841Y-142544709D01*
X160756842Y-142544709D01*
X160887057Y-142365485D01*
X160887061Y-142365479D01*
X160999610Y-142144588D01*
X161076218Y-141908810D01*
X161115000Y-141663958D01*
X161115000Y-141416041D01*
X167885000Y-141416041D01*
X167885000Y-141663958D01*
X167923781Y-141908810D01*
X168000389Y-142144588D01*
X168112937Y-142365477D01*
X168243157Y-142544708D01*
X168762214Y-142025650D01*
X168799762Y-142081844D01*
X168918156Y-142200238D01*
X168974347Y-142237783D01*
X168455289Y-142756841D01*
X168634522Y-142887062D01*
X168855411Y-142999610D01*
X169091189Y-143076218D01*
X169336042Y-143115000D01*
X169583958Y-143115000D01*
X169828810Y-143076218D01*
X170064588Y-142999610D01*
X170285479Y-142887061D01*
X170285485Y-142887057D01*
X170464709Y-142756842D01*
X170464709Y-142756841D01*
X169945651Y-142237784D01*
X170001844Y-142200238D01*
X170120238Y-142081844D01*
X170157784Y-142025651D01*
X170676841Y-142544709D01*
X170676842Y-142544709D01*
X170807057Y-142365485D01*
X170807061Y-142365479D01*
X170919610Y-142144588D01*
X170996218Y-141908810D01*
X171035000Y-141663958D01*
X171035000Y-141416041D01*
X172965000Y-141416041D01*
X172965000Y-141663958D01*
X173003781Y-141908810D01*
X173080389Y-142144588D01*
X173192937Y-142365477D01*
X173323157Y-142544708D01*
X173842214Y-142025650D01*
X173879762Y-142081844D01*
X173998156Y-142200238D01*
X174054347Y-142237783D01*
X173535289Y-142756841D01*
X173714522Y-142887062D01*
X173935411Y-142999610D01*
X174171189Y-143076218D01*
X174416042Y-143115000D01*
X174663958Y-143115000D01*
X174908810Y-143076218D01*
X175144588Y-142999610D01*
X175365479Y-142887061D01*
X175365485Y-142887057D01*
X175544709Y-142756842D01*
X175544709Y-142756841D01*
X175025651Y-142237784D01*
X175081844Y-142200238D01*
X175200238Y-142081844D01*
X175237784Y-142025651D01*
X175756841Y-142544709D01*
X175756842Y-142544709D01*
X175887057Y-142365485D01*
X175887061Y-142365479D01*
X175999610Y-142144588D01*
X176076218Y-141908810D01*
X176115000Y-141663958D01*
X176115000Y-141416041D01*
X182885000Y-141416041D01*
X182885000Y-141663958D01*
X182923781Y-141908810D01*
X183000389Y-142144588D01*
X183112937Y-142365477D01*
X183243157Y-142544708D01*
X183762214Y-142025650D01*
X183799762Y-142081844D01*
X183918156Y-142200238D01*
X183974347Y-142237783D01*
X183455289Y-142756841D01*
X183634522Y-142887062D01*
X183855411Y-142999610D01*
X184091189Y-143076218D01*
X184336042Y-143115000D01*
X184583958Y-143115000D01*
X184828810Y-143076218D01*
X185064588Y-142999610D01*
X185285479Y-142887061D01*
X185285485Y-142887057D01*
X185464709Y-142756842D01*
X185464709Y-142756841D01*
X184945651Y-142237784D01*
X185001844Y-142200238D01*
X185120238Y-142081844D01*
X185157784Y-142025651D01*
X185676841Y-142544709D01*
X185676842Y-142544709D01*
X185807057Y-142365485D01*
X185807061Y-142365479D01*
X185919610Y-142144588D01*
X185996218Y-141908810D01*
X186035000Y-141663958D01*
X186035000Y-141416041D01*
X187965000Y-141416041D01*
X187965000Y-141663958D01*
X188003781Y-141908810D01*
X188080389Y-142144588D01*
X188192937Y-142365477D01*
X188323157Y-142544708D01*
X188842214Y-142025650D01*
X188879762Y-142081844D01*
X188998156Y-142200238D01*
X189054347Y-142237783D01*
X188535289Y-142756841D01*
X188714522Y-142887062D01*
X188935411Y-142999610D01*
X189171189Y-143076218D01*
X189416042Y-143115000D01*
X189663958Y-143115000D01*
X189908810Y-143076218D01*
X190144588Y-142999610D01*
X190365479Y-142887061D01*
X190365485Y-142887057D01*
X190544709Y-142756842D01*
X190544709Y-142756841D01*
X190025651Y-142237784D01*
X190081844Y-142200238D01*
X190200238Y-142081844D01*
X190237784Y-142025651D01*
X190756841Y-142544709D01*
X190756842Y-142544709D01*
X190887057Y-142365485D01*
X190887061Y-142365479D01*
X190999610Y-142144588D01*
X191076218Y-141908810D01*
X191115000Y-141663958D01*
X191115000Y-141416041D01*
X197885000Y-141416041D01*
X197885000Y-141663958D01*
X197923781Y-141908810D01*
X198000389Y-142144588D01*
X198112937Y-142365477D01*
X198243157Y-142544708D01*
X198762214Y-142025650D01*
X198799762Y-142081844D01*
X198918156Y-142200238D01*
X198974347Y-142237783D01*
X198455289Y-142756841D01*
X198634522Y-142887062D01*
X198855411Y-142999610D01*
X199091189Y-143076218D01*
X199336042Y-143115000D01*
X199583958Y-143115000D01*
X199828810Y-143076218D01*
X200064588Y-142999610D01*
X200285479Y-142887061D01*
X200285485Y-142887057D01*
X200464709Y-142756842D01*
X200464709Y-142756841D01*
X199945651Y-142237784D01*
X200001844Y-142200238D01*
X200120238Y-142081844D01*
X200157784Y-142025651D01*
X200676841Y-142544709D01*
X200676842Y-142544709D01*
X200807057Y-142365485D01*
X200807061Y-142365479D01*
X200919610Y-142144588D01*
X200996218Y-141908810D01*
X201035000Y-141663958D01*
X201035000Y-141416041D01*
X202965000Y-141416041D01*
X202965000Y-141663958D01*
X203003781Y-141908810D01*
X203080389Y-142144588D01*
X203192937Y-142365477D01*
X203323157Y-142544708D01*
X203842214Y-142025650D01*
X203879762Y-142081844D01*
X203998156Y-142200238D01*
X204054347Y-142237783D01*
X203535289Y-142756841D01*
X203714522Y-142887062D01*
X203935411Y-142999610D01*
X204171189Y-143076218D01*
X204416042Y-143115000D01*
X204663958Y-143115000D01*
X204908810Y-143076218D01*
X205144588Y-142999610D01*
X205365479Y-142887061D01*
X205365485Y-142887057D01*
X205544709Y-142756842D01*
X205544709Y-142756841D01*
X205025651Y-142237784D01*
X205081844Y-142200238D01*
X205200238Y-142081844D01*
X205237784Y-142025651D01*
X205756841Y-142544709D01*
X205756842Y-142544709D01*
X205887057Y-142365485D01*
X205887061Y-142365479D01*
X205999610Y-142144588D01*
X206076218Y-141908810D01*
X206115000Y-141663958D01*
X206115000Y-141416041D01*
X206076218Y-141171189D01*
X205999609Y-140935408D01*
X205991971Y-140920417D01*
X205991970Y-140920416D01*
X205970720Y-140878710D01*
X211149500Y-140878710D01*
X211149500Y-141121289D01*
X211181161Y-141361781D01*
X211181161Y-141361786D01*
X211243944Y-141596092D01*
X211243948Y-141596105D01*
X211336772Y-141820204D01*
X211336774Y-141820208D01*
X211336776Y-141820212D01*
X211440577Y-142000000D01*
X211458066Y-142030292D01*
X211605729Y-142222731D01*
X211605731Y-142222733D01*
X211605735Y-142222738D01*
X211777262Y-142394265D01*
X211777266Y-142394268D01*
X211777268Y-142394270D01*
X211937877Y-142517509D01*
X211969711Y-142541936D01*
X212179788Y-142663224D01*
X212403900Y-142756054D01*
X212638211Y-142818838D01*
X212878712Y-142850500D01*
X212878713Y-142850500D01*
X213121287Y-142850500D01*
X213121288Y-142850500D01*
X213361789Y-142818838D01*
X213596100Y-142756054D01*
X213820212Y-142663224D01*
X214030289Y-142541936D01*
X214222738Y-142394265D01*
X214394265Y-142222738D01*
X214541936Y-142030289D01*
X214663224Y-141820212D01*
X214756054Y-141596100D01*
X214818838Y-141361789D01*
X214850500Y-141121288D01*
X214850500Y-140878712D01*
X214818838Y-140638211D01*
X214756054Y-140403900D01*
X214668671Y-140192938D01*
X214663227Y-140179795D01*
X214663226Y-140179794D01*
X214663224Y-140179788D01*
X214541936Y-139969711D01*
X214394265Y-139777262D01*
X214222738Y-139605735D01*
X214222733Y-139605731D01*
X214222731Y-139605729D01*
X214030292Y-139458066D01*
X214030289Y-139458064D01*
X213820212Y-139336776D01*
X213820208Y-139336774D01*
X213820204Y-139336772D01*
X213596105Y-139243948D01*
X213596104Y-139243947D01*
X213596100Y-139243946D01*
X213361789Y-139181162D01*
X213361786Y-139181161D01*
X213361784Y-139181161D01*
X213121289Y-139149500D01*
X213121288Y-139149500D01*
X212878712Y-139149500D01*
X212878710Y-139149500D01*
X212638218Y-139181161D01*
X212638213Y-139181161D01*
X212403907Y-139243944D01*
X212403894Y-139243948D01*
X212179795Y-139336772D01*
X211969707Y-139458066D01*
X211777268Y-139605729D01*
X211605729Y-139777268D01*
X211458066Y-139969707D01*
X211336772Y-140179795D01*
X211243948Y-140403894D01*
X211243944Y-140403907D01*
X211181161Y-140638213D01*
X211181161Y-140638218D01*
X211149500Y-140878710D01*
X205970720Y-140878710D01*
X205887062Y-140714522D01*
X205756841Y-140535289D01*
X205237783Y-141054347D01*
X205200238Y-140998156D01*
X205081844Y-140879762D01*
X205025650Y-140842214D01*
X205544708Y-140323157D01*
X205365477Y-140192937D01*
X205144588Y-140080389D01*
X204908810Y-140003781D01*
X204663958Y-139965000D01*
X204416042Y-139965000D01*
X204171189Y-140003781D01*
X203935411Y-140080389D01*
X203714520Y-140192938D01*
X203714516Y-140192940D01*
X203535289Y-140323156D01*
X204054348Y-140842215D01*
X203998156Y-140879762D01*
X203879762Y-140998156D01*
X203842215Y-141054348D01*
X203323156Y-140535289D01*
X203192940Y-140714516D01*
X203192938Y-140714520D01*
X203080389Y-140935411D01*
X203003781Y-141171189D01*
X202965000Y-141416041D01*
X201035000Y-141416041D01*
X200996218Y-141171189D01*
X200919610Y-140935411D01*
X200807062Y-140714522D01*
X200676841Y-140535289D01*
X200157783Y-141054347D01*
X200120238Y-140998156D01*
X200001844Y-140879762D01*
X199945650Y-140842214D01*
X200464708Y-140323157D01*
X200285477Y-140192937D01*
X200064588Y-140080389D01*
X199828810Y-140003781D01*
X199583958Y-139965000D01*
X199336042Y-139965000D01*
X199091189Y-140003781D01*
X198855411Y-140080389D01*
X198634520Y-140192938D01*
X198634516Y-140192940D01*
X198455289Y-140323156D01*
X198974348Y-140842215D01*
X198918156Y-140879762D01*
X198799762Y-140998156D01*
X198762215Y-141054348D01*
X198243156Y-140535289D01*
X198112940Y-140714516D01*
X198112938Y-140714520D01*
X198000389Y-140935411D01*
X197923781Y-141171189D01*
X197885000Y-141416041D01*
X191115000Y-141416041D01*
X191076218Y-141171189D01*
X190999610Y-140935411D01*
X190887062Y-140714522D01*
X190756841Y-140535289D01*
X190237783Y-141054347D01*
X190200238Y-140998156D01*
X190081844Y-140879762D01*
X190025650Y-140842214D01*
X190544708Y-140323157D01*
X190365477Y-140192937D01*
X190144588Y-140080389D01*
X189908810Y-140003781D01*
X189663958Y-139965000D01*
X189416042Y-139965000D01*
X189171189Y-140003781D01*
X188935411Y-140080389D01*
X188714520Y-140192938D01*
X188714516Y-140192940D01*
X188535289Y-140323156D01*
X189054348Y-140842215D01*
X188998156Y-140879762D01*
X188879762Y-140998156D01*
X188842215Y-141054348D01*
X188323156Y-140535289D01*
X188192940Y-140714516D01*
X188192938Y-140714520D01*
X188080389Y-140935411D01*
X188003781Y-141171189D01*
X187965000Y-141416041D01*
X186035000Y-141416041D01*
X185996218Y-141171189D01*
X185919610Y-140935411D01*
X185807062Y-140714522D01*
X185676841Y-140535289D01*
X185157783Y-141054347D01*
X185120238Y-140998156D01*
X185001844Y-140879762D01*
X184945650Y-140842214D01*
X185464708Y-140323157D01*
X185285477Y-140192937D01*
X185064588Y-140080389D01*
X184828810Y-140003781D01*
X184583958Y-139965000D01*
X184336042Y-139965000D01*
X184091189Y-140003781D01*
X183855411Y-140080389D01*
X183634520Y-140192938D01*
X183634516Y-140192940D01*
X183455289Y-140323156D01*
X183974348Y-140842215D01*
X183918156Y-140879762D01*
X183799762Y-140998156D01*
X183762215Y-141054348D01*
X183243156Y-140535289D01*
X183112940Y-140714516D01*
X183112938Y-140714520D01*
X183000389Y-140935411D01*
X182923781Y-141171189D01*
X182885000Y-141416041D01*
X176115000Y-141416041D01*
X176076218Y-141171189D01*
X175999610Y-140935411D01*
X175887062Y-140714522D01*
X175756841Y-140535289D01*
X175237783Y-141054347D01*
X175200238Y-140998156D01*
X175081844Y-140879762D01*
X175025650Y-140842214D01*
X175544708Y-140323157D01*
X175365477Y-140192937D01*
X175144588Y-140080389D01*
X174908810Y-140003781D01*
X174663958Y-139965000D01*
X174416042Y-139965000D01*
X174171189Y-140003781D01*
X173935411Y-140080389D01*
X173714520Y-140192938D01*
X173714516Y-140192940D01*
X173535289Y-140323156D01*
X174054348Y-140842215D01*
X173998156Y-140879762D01*
X173879762Y-140998156D01*
X173842215Y-141054348D01*
X173323156Y-140535289D01*
X173192940Y-140714516D01*
X173192938Y-140714520D01*
X173080389Y-140935411D01*
X173003781Y-141171189D01*
X172965000Y-141416041D01*
X171035000Y-141416041D01*
X170996218Y-141171189D01*
X170919610Y-140935411D01*
X170807062Y-140714522D01*
X170676841Y-140535289D01*
X170157783Y-141054347D01*
X170120238Y-140998156D01*
X170001844Y-140879762D01*
X169945650Y-140842214D01*
X170464708Y-140323157D01*
X170285477Y-140192937D01*
X170064588Y-140080389D01*
X169828810Y-140003781D01*
X169583958Y-139965000D01*
X169336042Y-139965000D01*
X169091189Y-140003781D01*
X168855411Y-140080389D01*
X168634520Y-140192938D01*
X168634516Y-140192940D01*
X168455289Y-140323156D01*
X168974348Y-140842215D01*
X168918156Y-140879762D01*
X168799762Y-140998156D01*
X168762215Y-141054348D01*
X168243156Y-140535289D01*
X168112940Y-140714516D01*
X168112938Y-140714520D01*
X168000389Y-140935411D01*
X167923781Y-141171189D01*
X167885000Y-141416041D01*
X161115000Y-141416041D01*
X161076218Y-141171189D01*
X160999610Y-140935411D01*
X160887062Y-140714522D01*
X160756841Y-140535289D01*
X160237783Y-141054347D01*
X160200238Y-140998156D01*
X160081844Y-140879762D01*
X160025650Y-140842214D01*
X160544708Y-140323157D01*
X160365477Y-140192937D01*
X160144588Y-140080389D01*
X159908810Y-140003781D01*
X159663958Y-139965000D01*
X159416042Y-139965000D01*
X159171189Y-140003781D01*
X158935411Y-140080389D01*
X158714520Y-140192938D01*
X158714516Y-140192940D01*
X158535289Y-140323156D01*
X159054348Y-140842215D01*
X158998156Y-140879762D01*
X158879762Y-140998156D01*
X158842215Y-141054348D01*
X158323156Y-140535289D01*
X158192940Y-140714516D01*
X158192938Y-140714520D01*
X158080389Y-140935411D01*
X158003781Y-141171189D01*
X157965000Y-141416041D01*
X156035000Y-141416041D01*
X155996218Y-141171189D01*
X155919610Y-140935411D01*
X155807062Y-140714522D01*
X155676841Y-140535289D01*
X155157783Y-141054347D01*
X155120238Y-140998156D01*
X155001844Y-140879762D01*
X154945650Y-140842214D01*
X155464708Y-140323157D01*
X155285477Y-140192937D01*
X155064588Y-140080389D01*
X154828810Y-140003781D01*
X154583958Y-139965000D01*
X154336042Y-139965000D01*
X154091189Y-140003781D01*
X153855411Y-140080389D01*
X153634520Y-140192938D01*
X153634516Y-140192940D01*
X153455289Y-140323156D01*
X153974348Y-140842215D01*
X153918156Y-140879762D01*
X153799762Y-140998156D01*
X153762215Y-141054348D01*
X153243156Y-140535289D01*
X153112940Y-140714516D01*
X153112938Y-140714520D01*
X153000389Y-140935411D01*
X152923781Y-141171189D01*
X152885000Y-141416041D01*
X146115000Y-141416041D01*
X146076218Y-141171189D01*
X145999610Y-140935411D01*
X145887062Y-140714522D01*
X145756841Y-140535289D01*
X145237783Y-141054347D01*
X145200238Y-140998156D01*
X145081844Y-140879762D01*
X145025650Y-140842214D01*
X145544708Y-140323157D01*
X145365477Y-140192937D01*
X145144588Y-140080389D01*
X144908810Y-140003781D01*
X144663958Y-139965000D01*
X144416042Y-139965000D01*
X144171189Y-140003781D01*
X143935411Y-140080389D01*
X143714520Y-140192938D01*
X143714516Y-140192940D01*
X143535289Y-140323156D01*
X144054348Y-140842215D01*
X143998156Y-140879762D01*
X143879762Y-140998156D01*
X143842215Y-141054348D01*
X143323156Y-140535289D01*
X143192940Y-140714516D01*
X143192938Y-140714520D01*
X143080389Y-140935411D01*
X143003781Y-141171189D01*
X142965000Y-141416041D01*
X141035000Y-141416041D01*
X140996218Y-141171189D01*
X140919610Y-140935411D01*
X140807062Y-140714522D01*
X140676841Y-140535289D01*
X140157783Y-141054347D01*
X140120238Y-140998156D01*
X140001844Y-140879762D01*
X139945650Y-140842214D01*
X140464708Y-140323157D01*
X140285477Y-140192937D01*
X140064588Y-140080389D01*
X139828810Y-140003781D01*
X139583958Y-139965000D01*
X139336042Y-139965000D01*
X139091189Y-140003781D01*
X138855411Y-140080389D01*
X138634520Y-140192938D01*
X138634516Y-140192940D01*
X138455289Y-140323156D01*
X138974348Y-140842215D01*
X138918156Y-140879762D01*
X138799762Y-140998156D01*
X138762215Y-141054348D01*
X138243156Y-140535289D01*
X138112940Y-140714516D01*
X138112938Y-140714520D01*
X138000389Y-140935411D01*
X137923781Y-141171189D01*
X137885000Y-141416041D01*
X131115000Y-141416041D01*
X131076218Y-141171189D01*
X130999610Y-140935411D01*
X130887062Y-140714522D01*
X130756841Y-140535289D01*
X130237783Y-141054347D01*
X130200238Y-140998156D01*
X130081844Y-140879762D01*
X130025650Y-140842214D01*
X130544708Y-140323157D01*
X130365477Y-140192937D01*
X130144588Y-140080389D01*
X129908810Y-140003781D01*
X129663958Y-139965000D01*
X129416042Y-139965000D01*
X129171189Y-140003781D01*
X128935411Y-140080389D01*
X128714520Y-140192938D01*
X128714516Y-140192940D01*
X128535289Y-140323156D01*
X129054348Y-140842215D01*
X128998156Y-140879762D01*
X128879762Y-140998156D01*
X128842215Y-141054348D01*
X128323156Y-140535289D01*
X128192940Y-140714516D01*
X128192938Y-140714520D01*
X128080389Y-140935411D01*
X128003781Y-141171189D01*
X127965000Y-141416041D01*
X126035000Y-141416041D01*
X125996218Y-141171189D01*
X125919610Y-140935411D01*
X125807062Y-140714522D01*
X125676841Y-140535289D01*
X125157783Y-141054347D01*
X125120238Y-140998156D01*
X125001844Y-140879762D01*
X124945650Y-140842214D01*
X125464708Y-140323157D01*
X125285477Y-140192937D01*
X125064588Y-140080389D01*
X124828810Y-140003781D01*
X124583958Y-139965000D01*
X124336042Y-139965000D01*
X124091189Y-140003781D01*
X123855411Y-140080389D01*
X123634520Y-140192938D01*
X123634516Y-140192940D01*
X123455289Y-140323156D01*
X123974348Y-140842215D01*
X123918156Y-140879762D01*
X123799762Y-140998156D01*
X123762215Y-141054348D01*
X123243156Y-140535289D01*
X123112940Y-140714516D01*
X123112938Y-140714520D01*
X123000389Y-140935411D01*
X122923781Y-141171189D01*
X122885000Y-141416041D01*
X116115000Y-141416041D01*
X116076218Y-141171189D01*
X115999610Y-140935411D01*
X115887062Y-140714522D01*
X115756841Y-140535289D01*
X115237783Y-141054347D01*
X115200238Y-140998156D01*
X115081844Y-140879762D01*
X115025650Y-140842214D01*
X115544708Y-140323157D01*
X115365477Y-140192937D01*
X115144588Y-140080389D01*
X114908810Y-140003781D01*
X114663958Y-139965000D01*
X114416042Y-139965000D01*
X114171189Y-140003781D01*
X113935411Y-140080389D01*
X113714520Y-140192938D01*
X113714516Y-140192940D01*
X113535289Y-140323156D01*
X114054348Y-140842215D01*
X113998156Y-140879762D01*
X113879762Y-140998156D01*
X113842215Y-141054348D01*
X113323156Y-140535289D01*
X113192940Y-140714516D01*
X113192938Y-140714520D01*
X113080389Y-140935411D01*
X113003781Y-141171189D01*
X112965000Y-141416041D01*
X111035000Y-141416041D01*
X110996218Y-141171189D01*
X110919610Y-140935411D01*
X110807062Y-140714522D01*
X110676841Y-140535289D01*
X110157783Y-141054347D01*
X110120238Y-140998156D01*
X110001844Y-140879762D01*
X109945650Y-140842214D01*
X110464708Y-140323157D01*
X110285477Y-140192937D01*
X110064588Y-140080389D01*
X109828810Y-140003781D01*
X109583958Y-139965000D01*
X109336042Y-139965000D01*
X109091189Y-140003781D01*
X108855411Y-140080389D01*
X108634520Y-140192938D01*
X108634516Y-140192940D01*
X108455289Y-140323156D01*
X108974348Y-140842215D01*
X108918156Y-140879762D01*
X108799762Y-140998156D01*
X108762215Y-141054348D01*
X108243156Y-140535289D01*
X108112940Y-140714516D01*
X108112938Y-140714520D01*
X108000389Y-140935411D01*
X107923781Y-141171189D01*
X107885000Y-141416041D01*
X101115000Y-141416041D01*
X101076218Y-141171189D01*
X100999610Y-140935411D01*
X100887062Y-140714522D01*
X100756841Y-140535289D01*
X100237783Y-141054347D01*
X100200238Y-140998156D01*
X100081844Y-140879762D01*
X100025650Y-140842214D01*
X100544708Y-140323157D01*
X100365477Y-140192937D01*
X100144588Y-140080389D01*
X99908810Y-140003781D01*
X99663958Y-139965000D01*
X99416042Y-139965000D01*
X99171189Y-140003781D01*
X98935411Y-140080389D01*
X98714520Y-140192938D01*
X98714516Y-140192940D01*
X98535289Y-140323156D01*
X99054348Y-140842215D01*
X98998156Y-140879762D01*
X98879762Y-140998156D01*
X98842215Y-141054348D01*
X98323156Y-140535289D01*
X98192940Y-140714516D01*
X98192938Y-140714520D01*
X98080389Y-140935411D01*
X98003781Y-141171189D01*
X97965000Y-141416041D01*
X96035000Y-141416041D01*
X95996218Y-141171189D01*
X95919610Y-140935411D01*
X95807062Y-140714522D01*
X95676841Y-140535289D01*
X95157783Y-141054347D01*
X95120238Y-140998156D01*
X95001844Y-140879762D01*
X94945650Y-140842214D01*
X95464708Y-140323157D01*
X95285477Y-140192937D01*
X95064588Y-140080389D01*
X94828810Y-140003781D01*
X94583958Y-139965000D01*
X94336042Y-139965000D01*
X94091189Y-140003781D01*
X93855411Y-140080389D01*
X93634520Y-140192938D01*
X93634516Y-140192940D01*
X93455289Y-140323156D01*
X93974348Y-140842215D01*
X93918156Y-140879762D01*
X93799762Y-140998156D01*
X93762215Y-141054348D01*
X93243156Y-140535289D01*
X93112940Y-140714516D01*
X93112938Y-140714520D01*
X93000389Y-140935411D01*
X92923781Y-141171189D01*
X92885000Y-141416041D01*
X81115000Y-141416041D01*
X81076218Y-141171189D01*
X80999610Y-140935411D01*
X80887062Y-140714522D01*
X80756841Y-140535289D01*
X80237783Y-141054347D01*
X80200238Y-140998156D01*
X80081844Y-140879762D01*
X80025650Y-140842214D01*
X80544708Y-140323157D01*
X80365477Y-140192937D01*
X80144588Y-140080389D01*
X79908810Y-140003781D01*
X79663958Y-139965000D01*
X79416042Y-139965000D01*
X79171189Y-140003781D01*
X78935411Y-140080389D01*
X78714520Y-140192938D01*
X78714516Y-140192940D01*
X78535289Y-140323156D01*
X79054348Y-140842215D01*
X78998156Y-140879762D01*
X78879762Y-140998156D01*
X78842215Y-141054348D01*
X78323156Y-140535289D01*
X78192940Y-140714516D01*
X78192938Y-140714520D01*
X78080389Y-140935411D01*
X78003781Y-141171189D01*
X77965000Y-141416041D01*
X76035000Y-141416041D01*
X75996218Y-141171189D01*
X75919610Y-140935411D01*
X75807062Y-140714522D01*
X75676841Y-140535289D01*
X75157783Y-141054347D01*
X75120238Y-140998156D01*
X75001844Y-140879762D01*
X74945650Y-140842214D01*
X75464708Y-140323157D01*
X75285477Y-140192937D01*
X75064588Y-140080389D01*
X74828810Y-140003781D01*
X74583958Y-139965000D01*
X74336042Y-139965000D01*
X74091189Y-140003781D01*
X73855411Y-140080389D01*
X73634520Y-140192938D01*
X73634516Y-140192940D01*
X73455289Y-140323156D01*
X73974348Y-140842215D01*
X73918156Y-140879762D01*
X73799762Y-140998156D01*
X73762215Y-141054348D01*
X73243156Y-140535289D01*
X73112940Y-140714516D01*
X73112938Y-140714520D01*
X73000389Y-140935411D01*
X72923781Y-141171189D01*
X72885000Y-141416041D01*
X67804301Y-141416041D01*
X67818838Y-141361789D01*
X67850500Y-141121288D01*
X67850500Y-140878712D01*
X67818838Y-140638211D01*
X67756054Y-140403900D01*
X67668671Y-140192938D01*
X67663227Y-140179795D01*
X67663226Y-140179794D01*
X67663224Y-140179788D01*
X67541936Y-139969711D01*
X67394265Y-139777262D01*
X67222738Y-139605735D01*
X67222733Y-139605731D01*
X67222731Y-139605729D01*
X67030292Y-139458066D01*
X67030289Y-139458064D01*
X66820212Y-139336776D01*
X66820208Y-139336774D01*
X66820204Y-139336772D01*
X66596105Y-139243948D01*
X66596104Y-139243947D01*
X66596100Y-139243946D01*
X66361789Y-139181162D01*
X66361786Y-139181161D01*
X66361784Y-139181161D01*
X66121289Y-139149500D01*
X66121288Y-139149500D01*
X65878712Y-139149500D01*
X65878710Y-139149500D01*
X65638218Y-139181161D01*
X65638213Y-139181161D01*
X65403907Y-139243944D01*
X65403894Y-139243948D01*
X65179795Y-139336772D01*
X64969707Y-139458066D01*
X64777268Y-139605729D01*
X64605729Y-139777268D01*
X64458066Y-139969707D01*
X64336772Y-140179795D01*
X64243948Y-140403894D01*
X64243944Y-140403907D01*
X64181161Y-140638213D01*
X64181161Y-140638218D01*
X64149500Y-140878710D01*
X63000500Y-140878710D01*
X63000500Y-138913385D01*
X75899500Y-138913385D01*
X75899500Y-139086614D01*
X75926597Y-139257702D01*
X75926598Y-139257706D01*
X75980123Y-139422438D01*
X75980125Y-139422441D01*
X75980126Y-139422444D01*
X75980127Y-139422445D01*
X76058768Y-139576788D01*
X76160586Y-139716928D01*
X76283072Y-139839414D01*
X76423212Y-139941232D01*
X76577555Y-140019873D01*
X76577557Y-140019873D01*
X76577558Y-140019874D01*
X76577561Y-140019876D01*
X76742293Y-140073401D01*
X76742297Y-140073402D01*
X76913386Y-140100500D01*
X76913389Y-140100500D01*
X77086614Y-140100500D01*
X77257702Y-140073402D01*
X77257706Y-140073401D01*
X77422438Y-140019876D01*
X77422440Y-140019874D01*
X77422445Y-140019873D01*
X77576788Y-139941232D01*
X77716928Y-139839414D01*
X77839414Y-139716928D01*
X77941232Y-139576788D01*
X78019873Y-139422445D01*
X78019874Y-139422440D01*
X78019876Y-139422438D01*
X78073401Y-139257706D01*
X78073402Y-139257702D01*
X78100500Y-139086614D01*
X78100500Y-138913385D01*
X95899500Y-138913385D01*
X95899500Y-139086614D01*
X95926597Y-139257702D01*
X95926598Y-139257706D01*
X95980123Y-139422438D01*
X95980125Y-139422441D01*
X95980126Y-139422444D01*
X95980127Y-139422445D01*
X96058768Y-139576788D01*
X96160586Y-139716928D01*
X96283072Y-139839414D01*
X96423212Y-139941232D01*
X96577555Y-140019873D01*
X96577557Y-140019873D01*
X96577558Y-140019874D01*
X96577561Y-140019876D01*
X96742293Y-140073401D01*
X96742297Y-140073402D01*
X96913386Y-140100500D01*
X96913389Y-140100500D01*
X97086614Y-140100500D01*
X97257702Y-140073402D01*
X97257706Y-140073401D01*
X97422438Y-140019876D01*
X97422440Y-140019874D01*
X97422445Y-140019873D01*
X97576788Y-139941232D01*
X97716928Y-139839414D01*
X97839414Y-139716928D01*
X97941232Y-139576788D01*
X98019873Y-139422445D01*
X98019874Y-139422440D01*
X98019876Y-139422438D01*
X98073401Y-139257706D01*
X98073402Y-139257702D01*
X98100500Y-139086614D01*
X98100500Y-138913385D01*
X110899500Y-138913385D01*
X110899500Y-139086614D01*
X110926597Y-139257702D01*
X110926598Y-139257706D01*
X110980123Y-139422438D01*
X110980125Y-139422441D01*
X110980126Y-139422444D01*
X110980127Y-139422445D01*
X111058768Y-139576788D01*
X111160586Y-139716928D01*
X111283072Y-139839414D01*
X111423212Y-139941232D01*
X111577555Y-140019873D01*
X111577557Y-140019873D01*
X111577558Y-140019874D01*
X111577561Y-140019876D01*
X111742293Y-140073401D01*
X111742297Y-140073402D01*
X111913386Y-140100500D01*
X111913389Y-140100500D01*
X112086614Y-140100500D01*
X112257702Y-140073402D01*
X112257706Y-140073401D01*
X112422438Y-140019876D01*
X112422440Y-140019874D01*
X112422445Y-140019873D01*
X112576788Y-139941232D01*
X112716928Y-139839414D01*
X112839414Y-139716928D01*
X112941232Y-139576788D01*
X113019873Y-139422445D01*
X113019874Y-139422440D01*
X113019876Y-139422438D01*
X113073401Y-139257706D01*
X113073402Y-139257702D01*
X113100500Y-139086614D01*
X113100500Y-138913385D01*
X125899500Y-138913385D01*
X125899500Y-139086614D01*
X125926597Y-139257702D01*
X125926598Y-139257706D01*
X125980123Y-139422438D01*
X125980125Y-139422441D01*
X125980126Y-139422444D01*
X125980127Y-139422445D01*
X126058768Y-139576788D01*
X126160586Y-139716928D01*
X126283072Y-139839414D01*
X126423212Y-139941232D01*
X126577555Y-140019873D01*
X126577557Y-140019873D01*
X126577558Y-140019874D01*
X126577561Y-140019876D01*
X126742293Y-140073401D01*
X126742297Y-140073402D01*
X126913386Y-140100500D01*
X126913389Y-140100500D01*
X127086614Y-140100500D01*
X127257702Y-140073402D01*
X127257706Y-140073401D01*
X127422438Y-140019876D01*
X127422440Y-140019874D01*
X127422445Y-140019873D01*
X127576788Y-139941232D01*
X127716928Y-139839414D01*
X127839414Y-139716928D01*
X127941232Y-139576788D01*
X128019873Y-139422445D01*
X128019874Y-139422440D01*
X128019876Y-139422438D01*
X128073401Y-139257706D01*
X128073402Y-139257702D01*
X128100500Y-139086614D01*
X128100500Y-138913385D01*
X140899500Y-138913385D01*
X140899500Y-139086614D01*
X140926597Y-139257702D01*
X140926598Y-139257706D01*
X140980123Y-139422438D01*
X140980125Y-139422441D01*
X140980126Y-139422444D01*
X140980127Y-139422445D01*
X141058768Y-139576788D01*
X141160586Y-139716928D01*
X141283072Y-139839414D01*
X141423212Y-139941232D01*
X141577555Y-140019873D01*
X141577557Y-140019873D01*
X141577558Y-140019874D01*
X141577561Y-140019876D01*
X141742293Y-140073401D01*
X141742297Y-140073402D01*
X141913386Y-140100500D01*
X141913389Y-140100500D01*
X142086614Y-140100500D01*
X142257702Y-140073402D01*
X142257706Y-140073401D01*
X142422438Y-140019876D01*
X142422440Y-140019874D01*
X142422445Y-140019873D01*
X142576788Y-139941232D01*
X142716928Y-139839414D01*
X142839414Y-139716928D01*
X142941232Y-139576788D01*
X143019873Y-139422445D01*
X143019874Y-139422440D01*
X143019876Y-139422438D01*
X143073401Y-139257706D01*
X143073402Y-139257702D01*
X143100500Y-139086614D01*
X143100500Y-138913385D01*
X155899500Y-138913385D01*
X155899500Y-139086614D01*
X155926597Y-139257702D01*
X155926598Y-139257706D01*
X155980123Y-139422438D01*
X155980125Y-139422441D01*
X155980126Y-139422444D01*
X155980127Y-139422445D01*
X156058768Y-139576788D01*
X156160586Y-139716928D01*
X156283072Y-139839414D01*
X156423212Y-139941232D01*
X156577555Y-140019873D01*
X156577557Y-140019873D01*
X156577558Y-140019874D01*
X156577561Y-140019876D01*
X156742293Y-140073401D01*
X156742297Y-140073402D01*
X156913386Y-140100500D01*
X156913389Y-140100500D01*
X157086614Y-140100500D01*
X157257702Y-140073402D01*
X157257706Y-140073401D01*
X157422438Y-140019876D01*
X157422440Y-140019874D01*
X157422445Y-140019873D01*
X157576788Y-139941232D01*
X157716928Y-139839414D01*
X157839414Y-139716928D01*
X157941232Y-139576788D01*
X158019873Y-139422445D01*
X158019874Y-139422440D01*
X158019876Y-139422438D01*
X158073401Y-139257706D01*
X158073402Y-139257702D01*
X158100500Y-139086614D01*
X158100500Y-138913385D01*
X170899500Y-138913385D01*
X170899500Y-139086614D01*
X170926597Y-139257702D01*
X170926598Y-139257706D01*
X170980123Y-139422438D01*
X170980125Y-139422441D01*
X170980126Y-139422444D01*
X170980127Y-139422445D01*
X171058768Y-139576788D01*
X171160586Y-139716928D01*
X171283072Y-139839414D01*
X171423212Y-139941232D01*
X171577555Y-140019873D01*
X171577557Y-140019873D01*
X171577558Y-140019874D01*
X171577561Y-140019876D01*
X171742293Y-140073401D01*
X171742297Y-140073402D01*
X171913386Y-140100500D01*
X171913389Y-140100500D01*
X172086614Y-140100500D01*
X172257702Y-140073402D01*
X172257706Y-140073401D01*
X172422438Y-140019876D01*
X172422440Y-140019874D01*
X172422445Y-140019873D01*
X172576788Y-139941232D01*
X172716928Y-139839414D01*
X172839414Y-139716928D01*
X172941232Y-139576788D01*
X173019873Y-139422445D01*
X173019874Y-139422440D01*
X173019876Y-139422438D01*
X173073401Y-139257706D01*
X173073402Y-139257702D01*
X173100500Y-139086614D01*
X173100500Y-138913385D01*
X185899500Y-138913385D01*
X185899500Y-139086614D01*
X185926597Y-139257702D01*
X185926598Y-139257706D01*
X185980123Y-139422438D01*
X185980125Y-139422441D01*
X185980126Y-139422444D01*
X185980127Y-139422445D01*
X186058768Y-139576788D01*
X186160586Y-139716928D01*
X186283072Y-139839414D01*
X186423212Y-139941232D01*
X186577555Y-140019873D01*
X186577557Y-140019873D01*
X186577558Y-140019874D01*
X186577561Y-140019876D01*
X186742293Y-140073401D01*
X186742297Y-140073402D01*
X186913386Y-140100500D01*
X186913389Y-140100500D01*
X187086614Y-140100500D01*
X187257702Y-140073402D01*
X187257706Y-140073401D01*
X187422438Y-140019876D01*
X187422440Y-140019874D01*
X187422445Y-140019873D01*
X187576788Y-139941232D01*
X187716928Y-139839414D01*
X187839414Y-139716928D01*
X187941232Y-139576788D01*
X188019873Y-139422445D01*
X188019874Y-139422440D01*
X188019876Y-139422438D01*
X188073401Y-139257706D01*
X188073402Y-139257702D01*
X188100500Y-139086614D01*
X188100500Y-138913385D01*
X200899500Y-138913385D01*
X200899500Y-139086614D01*
X200926597Y-139257702D01*
X200926598Y-139257706D01*
X200980123Y-139422438D01*
X200980125Y-139422441D01*
X200980126Y-139422444D01*
X200980127Y-139422445D01*
X201058768Y-139576788D01*
X201160586Y-139716928D01*
X201283072Y-139839414D01*
X201423212Y-139941232D01*
X201577555Y-140019873D01*
X201577557Y-140019873D01*
X201577558Y-140019874D01*
X201577561Y-140019876D01*
X201742293Y-140073401D01*
X201742297Y-140073402D01*
X201913386Y-140100500D01*
X201913389Y-140100500D01*
X202086614Y-140100500D01*
X202257702Y-140073402D01*
X202257706Y-140073401D01*
X202422438Y-140019876D01*
X202422440Y-140019874D01*
X202422445Y-140019873D01*
X202576788Y-139941232D01*
X202716928Y-139839414D01*
X202839414Y-139716928D01*
X202941232Y-139576788D01*
X203019873Y-139422445D01*
X203019874Y-139422440D01*
X203019876Y-139422438D01*
X203073401Y-139257706D01*
X203073402Y-139257702D01*
X203100500Y-139086614D01*
X203100500Y-138913385D01*
X203073402Y-138742297D01*
X203073401Y-138742293D01*
X203019876Y-138577561D01*
X203019874Y-138577558D01*
X203019873Y-138577557D01*
X203019873Y-138577555D01*
X202941232Y-138423212D01*
X202839414Y-138283072D01*
X202716928Y-138160586D01*
X202576788Y-138058768D01*
X202576787Y-138058767D01*
X202576785Y-138058766D01*
X202422441Y-137980125D01*
X202422438Y-137980123D01*
X202257706Y-137926598D01*
X202257702Y-137926597D01*
X202086614Y-137899500D01*
X202086611Y-137899500D01*
X201913389Y-137899500D01*
X201913386Y-137899500D01*
X201742297Y-137926597D01*
X201742293Y-137926598D01*
X201577561Y-137980123D01*
X201577558Y-137980125D01*
X201423214Y-138058766D01*
X201283073Y-138160585D01*
X201160585Y-138283073D01*
X201058766Y-138423214D01*
X200980125Y-138577558D01*
X200980123Y-138577561D01*
X200926598Y-138742293D01*
X200926597Y-138742297D01*
X200899500Y-138913385D01*
X188100500Y-138913385D01*
X188073402Y-138742297D01*
X188073401Y-138742293D01*
X188019876Y-138577561D01*
X188019874Y-138577558D01*
X188019873Y-138577557D01*
X188019873Y-138577555D01*
X187941232Y-138423212D01*
X187839414Y-138283072D01*
X187716928Y-138160586D01*
X187576788Y-138058768D01*
X187576787Y-138058767D01*
X187576785Y-138058766D01*
X187422441Y-137980125D01*
X187422438Y-137980123D01*
X187257706Y-137926598D01*
X187257702Y-137926597D01*
X187086614Y-137899500D01*
X187086611Y-137899500D01*
X186913389Y-137899500D01*
X186913386Y-137899500D01*
X186742297Y-137926597D01*
X186742293Y-137926598D01*
X186577561Y-137980123D01*
X186577558Y-137980125D01*
X186423214Y-138058766D01*
X186283073Y-138160585D01*
X186160585Y-138283073D01*
X186058766Y-138423214D01*
X185980125Y-138577558D01*
X185980123Y-138577561D01*
X185926598Y-138742293D01*
X185926597Y-138742297D01*
X185899500Y-138913385D01*
X173100500Y-138913385D01*
X173073402Y-138742297D01*
X173073401Y-138742293D01*
X173019876Y-138577561D01*
X173019874Y-138577558D01*
X173019873Y-138577557D01*
X173019873Y-138577555D01*
X172941232Y-138423212D01*
X172839414Y-138283072D01*
X172716928Y-138160586D01*
X172576788Y-138058768D01*
X172576787Y-138058767D01*
X172576785Y-138058766D01*
X172422441Y-137980125D01*
X172422438Y-137980123D01*
X172257706Y-137926598D01*
X172257702Y-137926597D01*
X172086614Y-137899500D01*
X172086611Y-137899500D01*
X171913389Y-137899500D01*
X171913386Y-137899500D01*
X171742297Y-137926597D01*
X171742293Y-137926598D01*
X171577561Y-137980123D01*
X171577558Y-137980125D01*
X171423214Y-138058766D01*
X171283073Y-138160585D01*
X171160585Y-138283073D01*
X171058766Y-138423214D01*
X170980125Y-138577558D01*
X170980123Y-138577561D01*
X170926598Y-138742293D01*
X170926597Y-138742297D01*
X170899500Y-138913385D01*
X158100500Y-138913385D01*
X158073402Y-138742297D01*
X158073401Y-138742293D01*
X158019876Y-138577561D01*
X158019874Y-138577558D01*
X158019873Y-138577557D01*
X158019873Y-138577555D01*
X157941232Y-138423212D01*
X157839414Y-138283072D01*
X157716928Y-138160586D01*
X157576788Y-138058768D01*
X157576787Y-138058767D01*
X157576785Y-138058766D01*
X157422441Y-137980125D01*
X157422438Y-137980123D01*
X157257706Y-137926598D01*
X157257702Y-137926597D01*
X157086614Y-137899500D01*
X157086611Y-137899500D01*
X156913389Y-137899500D01*
X156913386Y-137899500D01*
X156742297Y-137926597D01*
X156742293Y-137926598D01*
X156577561Y-137980123D01*
X156577558Y-137980125D01*
X156423214Y-138058766D01*
X156283073Y-138160585D01*
X156160585Y-138283073D01*
X156058766Y-138423214D01*
X155980125Y-138577558D01*
X155980123Y-138577561D01*
X155926598Y-138742293D01*
X155926597Y-138742297D01*
X155899500Y-138913385D01*
X143100500Y-138913385D01*
X143073402Y-138742297D01*
X143073401Y-138742293D01*
X143019876Y-138577561D01*
X143019874Y-138577558D01*
X143019873Y-138577557D01*
X143019873Y-138577555D01*
X142941232Y-138423212D01*
X142839414Y-138283072D01*
X142716928Y-138160586D01*
X142576788Y-138058768D01*
X142576787Y-138058767D01*
X142576785Y-138058766D01*
X142422441Y-137980125D01*
X142422438Y-137980123D01*
X142257706Y-137926598D01*
X142257702Y-137926597D01*
X142086614Y-137899500D01*
X142086611Y-137899500D01*
X141913389Y-137899500D01*
X141913386Y-137899500D01*
X141742297Y-137926597D01*
X141742293Y-137926598D01*
X141577561Y-137980123D01*
X141577558Y-137980125D01*
X141423214Y-138058766D01*
X141283073Y-138160585D01*
X141160585Y-138283073D01*
X141058766Y-138423214D01*
X140980125Y-138577558D01*
X140980123Y-138577561D01*
X140926598Y-138742293D01*
X140926597Y-138742297D01*
X140899500Y-138913385D01*
X128100500Y-138913385D01*
X128073402Y-138742297D01*
X128073401Y-138742293D01*
X128019876Y-138577561D01*
X128019874Y-138577558D01*
X128019873Y-138577557D01*
X128019873Y-138577555D01*
X127941232Y-138423212D01*
X127839414Y-138283072D01*
X127716928Y-138160586D01*
X127576788Y-138058768D01*
X127576787Y-138058767D01*
X127576785Y-138058766D01*
X127422441Y-137980125D01*
X127422438Y-137980123D01*
X127257706Y-137926598D01*
X127257702Y-137926597D01*
X127086614Y-137899500D01*
X127086611Y-137899500D01*
X126913389Y-137899500D01*
X126913386Y-137899500D01*
X126742297Y-137926597D01*
X126742293Y-137926598D01*
X126577561Y-137980123D01*
X126577558Y-137980125D01*
X126423214Y-138058766D01*
X126283073Y-138160585D01*
X126160585Y-138283073D01*
X126058766Y-138423214D01*
X125980125Y-138577558D01*
X125980123Y-138577561D01*
X125926598Y-138742293D01*
X125926597Y-138742297D01*
X125899500Y-138913385D01*
X113100500Y-138913385D01*
X113073402Y-138742297D01*
X113073401Y-138742293D01*
X113019876Y-138577561D01*
X113019874Y-138577558D01*
X113019873Y-138577557D01*
X113019873Y-138577555D01*
X112941232Y-138423212D01*
X112839414Y-138283072D01*
X112716928Y-138160586D01*
X112576788Y-138058768D01*
X112576787Y-138058767D01*
X112576785Y-138058766D01*
X112422441Y-137980125D01*
X112422438Y-137980123D01*
X112257706Y-137926598D01*
X112257702Y-137926597D01*
X112086614Y-137899500D01*
X112086611Y-137899500D01*
X111913389Y-137899500D01*
X111913386Y-137899500D01*
X111742297Y-137926597D01*
X111742293Y-137926598D01*
X111577561Y-137980123D01*
X111577558Y-137980125D01*
X111423214Y-138058766D01*
X111283073Y-138160585D01*
X111160585Y-138283073D01*
X111058766Y-138423214D01*
X110980125Y-138577558D01*
X110980123Y-138577561D01*
X110926598Y-138742293D01*
X110926597Y-138742297D01*
X110899500Y-138913385D01*
X98100500Y-138913385D01*
X98073402Y-138742297D01*
X98073401Y-138742293D01*
X98019876Y-138577561D01*
X98019874Y-138577558D01*
X98019873Y-138577557D01*
X98019873Y-138577555D01*
X97941232Y-138423212D01*
X97839414Y-138283072D01*
X97716928Y-138160586D01*
X97576788Y-138058768D01*
X97576787Y-138058767D01*
X97576785Y-138058766D01*
X97422441Y-137980125D01*
X97422438Y-137980123D01*
X97257706Y-137926598D01*
X97257702Y-137926597D01*
X97086614Y-137899500D01*
X97086611Y-137899500D01*
X96913389Y-137899500D01*
X96913386Y-137899500D01*
X96742297Y-137926597D01*
X96742293Y-137926598D01*
X96577561Y-137980123D01*
X96577558Y-137980125D01*
X96423214Y-138058766D01*
X96283073Y-138160585D01*
X96160585Y-138283073D01*
X96058766Y-138423214D01*
X95980125Y-138577558D01*
X95980123Y-138577561D01*
X95926598Y-138742293D01*
X95926597Y-138742297D01*
X95899500Y-138913385D01*
X78100500Y-138913385D01*
X78073402Y-138742297D01*
X78073401Y-138742293D01*
X78019876Y-138577561D01*
X78019874Y-138577558D01*
X78019873Y-138577557D01*
X78019873Y-138577555D01*
X77941232Y-138423212D01*
X77839414Y-138283072D01*
X77716928Y-138160586D01*
X77576788Y-138058768D01*
X77576787Y-138058767D01*
X77576785Y-138058766D01*
X77422441Y-137980125D01*
X77422438Y-137980123D01*
X77257706Y-137926598D01*
X77257702Y-137926597D01*
X77086614Y-137899500D01*
X77086611Y-137899500D01*
X76913389Y-137899500D01*
X76913386Y-137899500D01*
X76742297Y-137926597D01*
X76742293Y-137926598D01*
X76577561Y-137980123D01*
X76577558Y-137980125D01*
X76423214Y-138058766D01*
X76283073Y-138160585D01*
X76160585Y-138283073D01*
X76058766Y-138423214D01*
X75980125Y-138577558D01*
X75980123Y-138577561D01*
X75926598Y-138742293D01*
X75926597Y-138742297D01*
X75899500Y-138913385D01*
X63000500Y-138913385D01*
X63000500Y-136336041D01*
X72885000Y-136336041D01*
X72885000Y-136583958D01*
X72923781Y-136828810D01*
X73000389Y-137064588D01*
X73112937Y-137285477D01*
X73243157Y-137464708D01*
X73762214Y-136945650D01*
X73799762Y-137001844D01*
X73918156Y-137120238D01*
X73974347Y-137157783D01*
X73455289Y-137676841D01*
X73634522Y-137807062D01*
X73855411Y-137919610D01*
X74091189Y-137996218D01*
X74336042Y-138035000D01*
X74583958Y-138035000D01*
X74828810Y-137996218D01*
X75064588Y-137919610D01*
X75285479Y-137807061D01*
X75285485Y-137807057D01*
X75464709Y-137676842D01*
X75464709Y-137676841D01*
X74945651Y-137157784D01*
X75001844Y-137120238D01*
X75120238Y-137001844D01*
X75157784Y-136945651D01*
X75676841Y-137464709D01*
X75676842Y-137464709D01*
X75807057Y-137285485D01*
X75807061Y-137285479D01*
X75919610Y-137064588D01*
X75996218Y-136828810D01*
X76035000Y-136583958D01*
X76035000Y-136336041D01*
X77965000Y-136336041D01*
X77965000Y-136583958D01*
X78003781Y-136828810D01*
X78080389Y-137064588D01*
X78192937Y-137285477D01*
X78323157Y-137464708D01*
X78842214Y-136945650D01*
X78879762Y-137001844D01*
X78998156Y-137120238D01*
X79054347Y-137157783D01*
X78535289Y-137676841D01*
X78714522Y-137807062D01*
X78935411Y-137919610D01*
X79171189Y-137996218D01*
X79416042Y-138035000D01*
X79663958Y-138035000D01*
X79908810Y-137996218D01*
X80144588Y-137919610D01*
X80365479Y-137807061D01*
X80365485Y-137807057D01*
X80544709Y-137676842D01*
X80544709Y-137676841D01*
X80025651Y-137157784D01*
X80081844Y-137120238D01*
X80200238Y-137001844D01*
X80237784Y-136945651D01*
X80756841Y-137464709D01*
X80756842Y-137464709D01*
X80887057Y-137285485D01*
X80887061Y-137285479D01*
X80999610Y-137064588D01*
X81076218Y-136828810D01*
X81115000Y-136583958D01*
X81115000Y-136336041D01*
X92885000Y-136336041D01*
X92885000Y-136583958D01*
X92923781Y-136828810D01*
X93000389Y-137064588D01*
X93112937Y-137285477D01*
X93243157Y-137464708D01*
X93762214Y-136945650D01*
X93799762Y-137001844D01*
X93918156Y-137120238D01*
X93974347Y-137157783D01*
X93455289Y-137676841D01*
X93634522Y-137807062D01*
X93855411Y-137919610D01*
X94091189Y-137996218D01*
X94336042Y-138035000D01*
X94583958Y-138035000D01*
X94828810Y-137996218D01*
X95064588Y-137919610D01*
X95285479Y-137807061D01*
X95285485Y-137807057D01*
X95464709Y-137676842D01*
X95464709Y-137676841D01*
X94945651Y-137157784D01*
X95001844Y-137120238D01*
X95120238Y-137001844D01*
X95157784Y-136945651D01*
X95676841Y-137464709D01*
X95676842Y-137464709D01*
X95807057Y-137285485D01*
X95807061Y-137285479D01*
X95919610Y-137064588D01*
X95996218Y-136828810D01*
X96035000Y-136583958D01*
X96035000Y-136336041D01*
X97965000Y-136336041D01*
X97965000Y-136583958D01*
X98003781Y-136828810D01*
X98080389Y-137064588D01*
X98192937Y-137285477D01*
X98323157Y-137464708D01*
X98842214Y-136945650D01*
X98879762Y-137001844D01*
X98998156Y-137120238D01*
X99054347Y-137157783D01*
X98535289Y-137676841D01*
X98714522Y-137807062D01*
X98935411Y-137919610D01*
X99171189Y-137996218D01*
X99416042Y-138035000D01*
X99663958Y-138035000D01*
X99908810Y-137996218D01*
X100144588Y-137919610D01*
X100365479Y-137807061D01*
X100365485Y-137807057D01*
X100544709Y-137676842D01*
X100544709Y-137676841D01*
X100025651Y-137157784D01*
X100081844Y-137120238D01*
X100200238Y-137001844D01*
X100237784Y-136945651D01*
X100756841Y-137464709D01*
X100756842Y-137464709D01*
X100887057Y-137285485D01*
X100887061Y-137285479D01*
X100999610Y-137064588D01*
X101076218Y-136828810D01*
X101115000Y-136583958D01*
X101115000Y-136336041D01*
X107885000Y-136336041D01*
X107885000Y-136583958D01*
X107923781Y-136828810D01*
X108000389Y-137064588D01*
X108112937Y-137285477D01*
X108243157Y-137464708D01*
X108762214Y-136945650D01*
X108799762Y-137001844D01*
X108918156Y-137120238D01*
X108974347Y-137157783D01*
X108455289Y-137676841D01*
X108634522Y-137807062D01*
X108855411Y-137919610D01*
X109091189Y-137996218D01*
X109336042Y-138035000D01*
X109583958Y-138035000D01*
X109828810Y-137996218D01*
X110064588Y-137919610D01*
X110285479Y-137807061D01*
X110285485Y-137807057D01*
X110464709Y-137676842D01*
X110464709Y-137676841D01*
X109945651Y-137157784D01*
X110001844Y-137120238D01*
X110120238Y-137001844D01*
X110157784Y-136945651D01*
X110676841Y-137464709D01*
X110676842Y-137464709D01*
X110807057Y-137285485D01*
X110807061Y-137285479D01*
X110919610Y-137064588D01*
X110996218Y-136828810D01*
X111035000Y-136583958D01*
X111035000Y-136336041D01*
X112965000Y-136336041D01*
X112965000Y-136583958D01*
X113003781Y-136828810D01*
X113080389Y-137064588D01*
X113192937Y-137285477D01*
X113323157Y-137464708D01*
X113842214Y-136945650D01*
X113879762Y-137001844D01*
X113998156Y-137120238D01*
X114054347Y-137157783D01*
X113535289Y-137676841D01*
X113714522Y-137807062D01*
X113935411Y-137919610D01*
X114171189Y-137996218D01*
X114416042Y-138035000D01*
X114663958Y-138035000D01*
X114908810Y-137996218D01*
X115144588Y-137919610D01*
X115365479Y-137807061D01*
X115365485Y-137807057D01*
X115544709Y-137676842D01*
X115544709Y-137676841D01*
X115025651Y-137157784D01*
X115081844Y-137120238D01*
X115200238Y-137001844D01*
X115237784Y-136945651D01*
X115756841Y-137464709D01*
X115756842Y-137464709D01*
X115887057Y-137285485D01*
X115887061Y-137285479D01*
X115999610Y-137064588D01*
X116076218Y-136828810D01*
X116115000Y-136583958D01*
X116115000Y-136336041D01*
X122885000Y-136336041D01*
X122885000Y-136583958D01*
X122923781Y-136828810D01*
X123000389Y-137064588D01*
X123112937Y-137285477D01*
X123243157Y-137464708D01*
X123762214Y-136945650D01*
X123799762Y-137001844D01*
X123918156Y-137120238D01*
X123974347Y-137157783D01*
X123455289Y-137676841D01*
X123634522Y-137807062D01*
X123855411Y-137919610D01*
X124091189Y-137996218D01*
X124336042Y-138035000D01*
X124583958Y-138035000D01*
X124828810Y-137996218D01*
X125064588Y-137919610D01*
X125285479Y-137807061D01*
X125285485Y-137807057D01*
X125464709Y-137676842D01*
X125464709Y-137676841D01*
X124945651Y-137157784D01*
X125001844Y-137120238D01*
X125120238Y-137001844D01*
X125157784Y-136945651D01*
X125676841Y-137464709D01*
X125676842Y-137464709D01*
X125807057Y-137285485D01*
X125807061Y-137285479D01*
X125919610Y-137064588D01*
X125996218Y-136828810D01*
X126035000Y-136583958D01*
X126035000Y-136336041D01*
X127965000Y-136336041D01*
X127965000Y-136583958D01*
X128003781Y-136828810D01*
X128080389Y-137064588D01*
X128192937Y-137285477D01*
X128323157Y-137464708D01*
X128842214Y-136945650D01*
X128879762Y-137001844D01*
X128998156Y-137120238D01*
X129054347Y-137157783D01*
X128535289Y-137676841D01*
X128714522Y-137807062D01*
X128935411Y-137919610D01*
X129171189Y-137996218D01*
X129416042Y-138035000D01*
X129663958Y-138035000D01*
X129908810Y-137996218D01*
X130144588Y-137919610D01*
X130365479Y-137807061D01*
X130365485Y-137807057D01*
X130544709Y-137676842D01*
X130544709Y-137676841D01*
X130025651Y-137157784D01*
X130081844Y-137120238D01*
X130200238Y-137001844D01*
X130237784Y-136945651D01*
X130756841Y-137464709D01*
X130756842Y-137464709D01*
X130887057Y-137285485D01*
X130887061Y-137285479D01*
X130999610Y-137064588D01*
X131076218Y-136828810D01*
X131115000Y-136583958D01*
X131115000Y-136336041D01*
X137885000Y-136336041D01*
X137885000Y-136583958D01*
X137923781Y-136828810D01*
X138000389Y-137064588D01*
X138112937Y-137285477D01*
X138243157Y-137464708D01*
X138762214Y-136945650D01*
X138799762Y-137001844D01*
X138918156Y-137120238D01*
X138974347Y-137157783D01*
X138455289Y-137676841D01*
X138634522Y-137807062D01*
X138855411Y-137919610D01*
X139091189Y-137996218D01*
X139336042Y-138035000D01*
X139583958Y-138035000D01*
X139828810Y-137996218D01*
X140064588Y-137919610D01*
X140285479Y-137807061D01*
X140285485Y-137807057D01*
X140464709Y-137676842D01*
X140464709Y-137676841D01*
X139945651Y-137157784D01*
X140001844Y-137120238D01*
X140120238Y-137001844D01*
X140157784Y-136945651D01*
X140676841Y-137464709D01*
X140676842Y-137464709D01*
X140807057Y-137285485D01*
X140807061Y-137285479D01*
X140919610Y-137064588D01*
X140996218Y-136828810D01*
X141035000Y-136583958D01*
X141035000Y-136336041D01*
X142965000Y-136336041D01*
X142965000Y-136583958D01*
X143003781Y-136828810D01*
X143080389Y-137064588D01*
X143192937Y-137285477D01*
X143323157Y-137464708D01*
X143842214Y-136945650D01*
X143879762Y-137001844D01*
X143998156Y-137120238D01*
X144054347Y-137157783D01*
X143535289Y-137676841D01*
X143714522Y-137807062D01*
X143935411Y-137919610D01*
X144171189Y-137996218D01*
X144416042Y-138035000D01*
X144663958Y-138035000D01*
X144908810Y-137996218D01*
X145144588Y-137919610D01*
X145365479Y-137807061D01*
X145365485Y-137807057D01*
X145544709Y-137676842D01*
X145544709Y-137676841D01*
X145025651Y-137157784D01*
X145081844Y-137120238D01*
X145200238Y-137001844D01*
X145237784Y-136945651D01*
X145756841Y-137464709D01*
X145756842Y-137464709D01*
X145887057Y-137285485D01*
X145887061Y-137285479D01*
X145999610Y-137064588D01*
X146076218Y-136828810D01*
X146115000Y-136583958D01*
X146115000Y-136336041D01*
X152885000Y-136336041D01*
X152885000Y-136583958D01*
X152923781Y-136828810D01*
X153000389Y-137064588D01*
X153112937Y-137285477D01*
X153243157Y-137464708D01*
X153762214Y-136945650D01*
X153799762Y-137001844D01*
X153918156Y-137120238D01*
X153974347Y-137157783D01*
X153455289Y-137676841D01*
X153634522Y-137807062D01*
X153855411Y-137919610D01*
X154091189Y-137996218D01*
X154336042Y-138035000D01*
X154583958Y-138035000D01*
X154828810Y-137996218D01*
X155064588Y-137919610D01*
X155285479Y-137807061D01*
X155285485Y-137807057D01*
X155464709Y-137676842D01*
X155464709Y-137676841D01*
X154945651Y-137157784D01*
X155001844Y-137120238D01*
X155120238Y-137001844D01*
X155157784Y-136945651D01*
X155676841Y-137464709D01*
X155676842Y-137464709D01*
X155807057Y-137285485D01*
X155807061Y-137285479D01*
X155919610Y-137064588D01*
X155996218Y-136828810D01*
X156035000Y-136583958D01*
X156035000Y-136336041D01*
X157965000Y-136336041D01*
X157965000Y-136583958D01*
X158003781Y-136828810D01*
X158080389Y-137064588D01*
X158192937Y-137285477D01*
X158323157Y-137464708D01*
X158842214Y-136945650D01*
X158879762Y-137001844D01*
X158998156Y-137120238D01*
X159054347Y-137157783D01*
X158535289Y-137676841D01*
X158714522Y-137807062D01*
X158935411Y-137919610D01*
X159171189Y-137996218D01*
X159416042Y-138035000D01*
X159663958Y-138035000D01*
X159908810Y-137996218D01*
X160144588Y-137919610D01*
X160365479Y-137807061D01*
X160365485Y-137807057D01*
X160544709Y-137676842D01*
X160544709Y-137676841D01*
X160025651Y-137157784D01*
X160081844Y-137120238D01*
X160200238Y-137001844D01*
X160237784Y-136945651D01*
X160756841Y-137464709D01*
X160756842Y-137464709D01*
X160887057Y-137285485D01*
X160887061Y-137285479D01*
X160999610Y-137064588D01*
X161076218Y-136828810D01*
X161115000Y-136583958D01*
X161115000Y-136336041D01*
X167885000Y-136336041D01*
X167885000Y-136583958D01*
X167923781Y-136828810D01*
X168000389Y-137064588D01*
X168112937Y-137285477D01*
X168243157Y-137464708D01*
X168762214Y-136945650D01*
X168799762Y-137001844D01*
X168918156Y-137120238D01*
X168974347Y-137157783D01*
X168455289Y-137676841D01*
X168634522Y-137807062D01*
X168855411Y-137919610D01*
X169091189Y-137996218D01*
X169336042Y-138035000D01*
X169583958Y-138035000D01*
X169828810Y-137996218D01*
X170064588Y-137919610D01*
X170285479Y-137807061D01*
X170285485Y-137807057D01*
X170464709Y-137676842D01*
X170464709Y-137676841D01*
X169945651Y-137157784D01*
X170001844Y-137120238D01*
X170120238Y-137001844D01*
X170157784Y-136945651D01*
X170676841Y-137464709D01*
X170676842Y-137464709D01*
X170807057Y-137285485D01*
X170807061Y-137285479D01*
X170919610Y-137064588D01*
X170996218Y-136828810D01*
X171035000Y-136583958D01*
X171035000Y-136336041D01*
X172965000Y-136336041D01*
X172965000Y-136583958D01*
X173003781Y-136828810D01*
X173080389Y-137064588D01*
X173192937Y-137285477D01*
X173323157Y-137464708D01*
X173842214Y-136945650D01*
X173879762Y-137001844D01*
X173998156Y-137120238D01*
X174054347Y-137157783D01*
X173535289Y-137676841D01*
X173714522Y-137807062D01*
X173935411Y-137919610D01*
X174171189Y-137996218D01*
X174416042Y-138035000D01*
X174663958Y-138035000D01*
X174908810Y-137996218D01*
X175144588Y-137919610D01*
X175365479Y-137807061D01*
X175365485Y-137807057D01*
X175544709Y-137676842D01*
X175544709Y-137676841D01*
X175025651Y-137157784D01*
X175081844Y-137120238D01*
X175200238Y-137001844D01*
X175237784Y-136945651D01*
X175756841Y-137464709D01*
X175756842Y-137464709D01*
X175887057Y-137285485D01*
X175887061Y-137285479D01*
X175999610Y-137064588D01*
X176076218Y-136828810D01*
X176115000Y-136583958D01*
X176115000Y-136336041D01*
X182885000Y-136336041D01*
X182885000Y-136583958D01*
X182923781Y-136828810D01*
X183000389Y-137064588D01*
X183112937Y-137285477D01*
X183243157Y-137464708D01*
X183762214Y-136945650D01*
X183799762Y-137001844D01*
X183918156Y-137120238D01*
X183974347Y-137157783D01*
X183455289Y-137676841D01*
X183634522Y-137807062D01*
X183855411Y-137919610D01*
X184091189Y-137996218D01*
X184336042Y-138035000D01*
X184583958Y-138035000D01*
X184828810Y-137996218D01*
X185064588Y-137919610D01*
X185285479Y-137807061D01*
X185285485Y-137807057D01*
X185464709Y-137676842D01*
X185464709Y-137676841D01*
X184945651Y-137157784D01*
X185001844Y-137120238D01*
X185120238Y-137001844D01*
X185157784Y-136945651D01*
X185676841Y-137464709D01*
X185676842Y-137464709D01*
X185807057Y-137285485D01*
X185807061Y-137285479D01*
X185919610Y-137064588D01*
X185996218Y-136828810D01*
X186035000Y-136583958D01*
X186035000Y-136336041D01*
X187965000Y-136336041D01*
X187965000Y-136583958D01*
X188003781Y-136828810D01*
X188080389Y-137064588D01*
X188192937Y-137285477D01*
X188323157Y-137464708D01*
X188842214Y-136945650D01*
X188879762Y-137001844D01*
X188998156Y-137120238D01*
X189054347Y-137157783D01*
X188535289Y-137676841D01*
X188714522Y-137807062D01*
X188935411Y-137919610D01*
X189171189Y-137996218D01*
X189416042Y-138035000D01*
X189663958Y-138035000D01*
X189908810Y-137996218D01*
X190144588Y-137919610D01*
X190365479Y-137807061D01*
X190365485Y-137807057D01*
X190544709Y-137676842D01*
X190544709Y-137676841D01*
X190025651Y-137157784D01*
X190081844Y-137120238D01*
X190200238Y-137001844D01*
X190237784Y-136945651D01*
X190756841Y-137464709D01*
X190756842Y-137464709D01*
X190887057Y-137285485D01*
X190887061Y-137285479D01*
X190999610Y-137064588D01*
X191076218Y-136828810D01*
X191115000Y-136583958D01*
X191115000Y-136336041D01*
X197885000Y-136336041D01*
X197885000Y-136583958D01*
X197923781Y-136828810D01*
X198000389Y-137064588D01*
X198112937Y-137285477D01*
X198243157Y-137464708D01*
X198762214Y-136945650D01*
X198799762Y-137001844D01*
X198918156Y-137120238D01*
X198974347Y-137157783D01*
X198455289Y-137676841D01*
X198634522Y-137807062D01*
X198855411Y-137919610D01*
X199091189Y-137996218D01*
X199336042Y-138035000D01*
X199583958Y-138035000D01*
X199828810Y-137996218D01*
X200064588Y-137919610D01*
X200285479Y-137807061D01*
X200285485Y-137807057D01*
X200464709Y-137676842D01*
X200464709Y-137676841D01*
X199945651Y-137157784D01*
X200001844Y-137120238D01*
X200120238Y-137001844D01*
X200157784Y-136945651D01*
X200676841Y-137464709D01*
X200676842Y-137464709D01*
X200807057Y-137285485D01*
X200807061Y-137285479D01*
X200919610Y-137064588D01*
X200996218Y-136828810D01*
X201035000Y-136583958D01*
X201035000Y-136336041D01*
X202965000Y-136336041D01*
X202965000Y-136583958D01*
X203003781Y-136828810D01*
X203080389Y-137064588D01*
X203192937Y-137285477D01*
X203323157Y-137464708D01*
X203842214Y-136945650D01*
X203879762Y-137001844D01*
X203998156Y-137120238D01*
X204054347Y-137157783D01*
X203535289Y-137676841D01*
X203714522Y-137807062D01*
X203935411Y-137919610D01*
X204171189Y-137996218D01*
X204416042Y-138035000D01*
X204663958Y-138035000D01*
X204908810Y-137996218D01*
X205144588Y-137919610D01*
X205365479Y-137807061D01*
X205365485Y-137807057D01*
X205544709Y-137676842D01*
X205544709Y-137676841D01*
X205025651Y-137157784D01*
X205081844Y-137120238D01*
X205200238Y-137001844D01*
X205237784Y-136945651D01*
X205756841Y-137464709D01*
X205756842Y-137464709D01*
X205887057Y-137285485D01*
X205887061Y-137285479D01*
X205999610Y-137064588D01*
X206076218Y-136828810D01*
X206115000Y-136583958D01*
X206115000Y-136336041D01*
X206076218Y-136091189D01*
X205999610Y-135855411D01*
X205887062Y-135634522D01*
X205756841Y-135455289D01*
X205237783Y-135974347D01*
X205200238Y-135918156D01*
X205081844Y-135799762D01*
X205025650Y-135762214D01*
X205544708Y-135243157D01*
X205365477Y-135112937D01*
X205144588Y-135000389D01*
X204908810Y-134923781D01*
X204663958Y-134885000D01*
X204416042Y-134885000D01*
X204171189Y-134923781D01*
X203935411Y-135000389D01*
X203714520Y-135112938D01*
X203714516Y-135112940D01*
X203535289Y-135243156D01*
X204054348Y-135762215D01*
X203998156Y-135799762D01*
X203879762Y-135918156D01*
X203842215Y-135974348D01*
X203323156Y-135455289D01*
X203192940Y-135634516D01*
X203192938Y-135634520D01*
X203080389Y-135855411D01*
X203003781Y-136091189D01*
X202965000Y-136336041D01*
X201035000Y-136336041D01*
X200996218Y-136091189D01*
X200919610Y-135855411D01*
X200807062Y-135634522D01*
X200676841Y-135455289D01*
X200157783Y-135974347D01*
X200120238Y-135918156D01*
X200001844Y-135799762D01*
X199945650Y-135762214D01*
X200464708Y-135243157D01*
X200285477Y-135112937D01*
X200064588Y-135000389D01*
X199828810Y-134923781D01*
X199583958Y-134885000D01*
X199336042Y-134885000D01*
X199091189Y-134923781D01*
X198855411Y-135000389D01*
X198634520Y-135112938D01*
X198634516Y-135112940D01*
X198455289Y-135243156D01*
X198974348Y-135762215D01*
X198918156Y-135799762D01*
X198799762Y-135918156D01*
X198762215Y-135974348D01*
X198243156Y-135455289D01*
X198112940Y-135634516D01*
X198112938Y-135634520D01*
X198000389Y-135855411D01*
X197923781Y-136091189D01*
X197885000Y-136336041D01*
X191115000Y-136336041D01*
X191076218Y-136091189D01*
X190999610Y-135855411D01*
X190887062Y-135634522D01*
X190756841Y-135455289D01*
X190237783Y-135974347D01*
X190200238Y-135918156D01*
X190081844Y-135799762D01*
X190025650Y-135762214D01*
X190544708Y-135243157D01*
X190365477Y-135112937D01*
X190144588Y-135000389D01*
X189908810Y-134923781D01*
X189663958Y-134885000D01*
X189416042Y-134885000D01*
X189171189Y-134923781D01*
X188935411Y-135000389D01*
X188714520Y-135112938D01*
X188714516Y-135112940D01*
X188535289Y-135243156D01*
X189054348Y-135762215D01*
X188998156Y-135799762D01*
X188879762Y-135918156D01*
X188842215Y-135974348D01*
X188323156Y-135455289D01*
X188192940Y-135634516D01*
X188192938Y-135634520D01*
X188080389Y-135855411D01*
X188003781Y-136091189D01*
X187965000Y-136336041D01*
X186035000Y-136336041D01*
X185996218Y-136091189D01*
X185919610Y-135855411D01*
X185807062Y-135634522D01*
X185676841Y-135455289D01*
X185157783Y-135974347D01*
X185120238Y-135918156D01*
X185001844Y-135799762D01*
X184945650Y-135762214D01*
X185464708Y-135243157D01*
X185285477Y-135112937D01*
X185064588Y-135000389D01*
X184828810Y-134923781D01*
X184583958Y-134885000D01*
X184336042Y-134885000D01*
X184091189Y-134923781D01*
X183855411Y-135000389D01*
X183634520Y-135112938D01*
X183634516Y-135112940D01*
X183455289Y-135243156D01*
X183974348Y-135762215D01*
X183918156Y-135799762D01*
X183799762Y-135918156D01*
X183762215Y-135974348D01*
X183243156Y-135455289D01*
X183112940Y-135634516D01*
X183112938Y-135634520D01*
X183000389Y-135855411D01*
X182923781Y-136091189D01*
X182885000Y-136336041D01*
X176115000Y-136336041D01*
X176076218Y-136091189D01*
X175999610Y-135855411D01*
X175887062Y-135634522D01*
X175756841Y-135455289D01*
X175237783Y-135974347D01*
X175200238Y-135918156D01*
X175081844Y-135799762D01*
X175025650Y-135762214D01*
X175544708Y-135243157D01*
X175365477Y-135112937D01*
X175144588Y-135000389D01*
X174908810Y-134923781D01*
X174663958Y-134885000D01*
X174416042Y-134885000D01*
X174171189Y-134923781D01*
X173935411Y-135000389D01*
X173714520Y-135112938D01*
X173714516Y-135112940D01*
X173535289Y-135243156D01*
X174054348Y-135762215D01*
X173998156Y-135799762D01*
X173879762Y-135918156D01*
X173842215Y-135974348D01*
X173323156Y-135455289D01*
X173192940Y-135634516D01*
X173192938Y-135634520D01*
X173080389Y-135855411D01*
X173003781Y-136091189D01*
X172965000Y-136336041D01*
X171035000Y-136336041D01*
X170996218Y-136091189D01*
X170919610Y-135855411D01*
X170807062Y-135634522D01*
X170676841Y-135455289D01*
X170157783Y-135974347D01*
X170120238Y-135918156D01*
X170001844Y-135799762D01*
X169945650Y-135762214D01*
X170464708Y-135243157D01*
X170285477Y-135112937D01*
X170064588Y-135000389D01*
X169828810Y-134923781D01*
X169583958Y-134885000D01*
X169336042Y-134885000D01*
X169091189Y-134923781D01*
X168855411Y-135000389D01*
X168634520Y-135112938D01*
X168634516Y-135112940D01*
X168455289Y-135243156D01*
X168974348Y-135762215D01*
X168918156Y-135799762D01*
X168799762Y-135918156D01*
X168762215Y-135974348D01*
X168243156Y-135455289D01*
X168112940Y-135634516D01*
X168112938Y-135634520D01*
X168000389Y-135855411D01*
X167923781Y-136091189D01*
X167885000Y-136336041D01*
X161115000Y-136336041D01*
X161076218Y-136091189D01*
X160999610Y-135855411D01*
X160887062Y-135634522D01*
X160756841Y-135455289D01*
X160237783Y-135974347D01*
X160200238Y-135918156D01*
X160081844Y-135799762D01*
X160025650Y-135762214D01*
X160544708Y-135243157D01*
X160365477Y-135112937D01*
X160144588Y-135000389D01*
X159908810Y-134923781D01*
X159663958Y-134885000D01*
X159416042Y-134885000D01*
X159171189Y-134923781D01*
X158935411Y-135000389D01*
X158714520Y-135112938D01*
X158714516Y-135112940D01*
X158535289Y-135243156D01*
X159054348Y-135762215D01*
X158998156Y-135799762D01*
X158879762Y-135918156D01*
X158842215Y-135974348D01*
X158323156Y-135455289D01*
X158192940Y-135634516D01*
X158192938Y-135634520D01*
X158080389Y-135855411D01*
X158003781Y-136091189D01*
X157965000Y-136336041D01*
X156035000Y-136336041D01*
X155996218Y-136091189D01*
X155919610Y-135855411D01*
X155807062Y-135634522D01*
X155676841Y-135455289D01*
X155157783Y-135974347D01*
X155120238Y-135918156D01*
X155001844Y-135799762D01*
X154945650Y-135762214D01*
X155464708Y-135243157D01*
X155285477Y-135112937D01*
X155064588Y-135000389D01*
X154828810Y-134923781D01*
X154583958Y-134885000D01*
X154336042Y-134885000D01*
X154091189Y-134923781D01*
X153855411Y-135000389D01*
X153634520Y-135112938D01*
X153634516Y-135112940D01*
X153455289Y-135243156D01*
X153974348Y-135762215D01*
X153918156Y-135799762D01*
X153799762Y-135918156D01*
X153762215Y-135974348D01*
X153243156Y-135455289D01*
X153112940Y-135634516D01*
X153112938Y-135634520D01*
X153000389Y-135855411D01*
X152923781Y-136091189D01*
X152885000Y-136336041D01*
X146115000Y-136336041D01*
X146076218Y-136091189D01*
X145999610Y-135855411D01*
X145887062Y-135634522D01*
X145756841Y-135455289D01*
X145237783Y-135974347D01*
X145200238Y-135918156D01*
X145081844Y-135799762D01*
X145025650Y-135762214D01*
X145544708Y-135243157D01*
X145365477Y-135112937D01*
X145144588Y-135000389D01*
X144908810Y-134923781D01*
X144663958Y-134885000D01*
X144416042Y-134885000D01*
X144171189Y-134923781D01*
X143935411Y-135000389D01*
X143714520Y-135112938D01*
X143714516Y-135112940D01*
X143535289Y-135243156D01*
X144054348Y-135762215D01*
X143998156Y-135799762D01*
X143879762Y-135918156D01*
X143842215Y-135974348D01*
X143323156Y-135455289D01*
X143192940Y-135634516D01*
X143192938Y-135634520D01*
X143080389Y-135855411D01*
X143003781Y-136091189D01*
X142965000Y-136336041D01*
X141035000Y-136336041D01*
X140996218Y-136091189D01*
X140919610Y-135855411D01*
X140807062Y-135634522D01*
X140676841Y-135455289D01*
X140157783Y-135974347D01*
X140120238Y-135918156D01*
X140001844Y-135799762D01*
X139945650Y-135762214D01*
X140464708Y-135243157D01*
X140285477Y-135112937D01*
X140064588Y-135000389D01*
X139828810Y-134923781D01*
X139583958Y-134885000D01*
X139336042Y-134885000D01*
X139091189Y-134923781D01*
X138855411Y-135000389D01*
X138634520Y-135112938D01*
X138634516Y-135112940D01*
X138455289Y-135243156D01*
X138974348Y-135762215D01*
X138918156Y-135799762D01*
X138799762Y-135918156D01*
X138762215Y-135974348D01*
X138243156Y-135455289D01*
X138112940Y-135634516D01*
X138112938Y-135634520D01*
X138000389Y-135855411D01*
X137923781Y-136091189D01*
X137885000Y-136336041D01*
X131115000Y-136336041D01*
X131076218Y-136091189D01*
X130999610Y-135855411D01*
X130887062Y-135634522D01*
X130756841Y-135455289D01*
X130237783Y-135974347D01*
X130200238Y-135918156D01*
X130081844Y-135799762D01*
X130025650Y-135762214D01*
X130544708Y-135243157D01*
X130365477Y-135112937D01*
X130144588Y-135000389D01*
X129908810Y-134923781D01*
X129663958Y-134885000D01*
X129416042Y-134885000D01*
X129171189Y-134923781D01*
X128935411Y-135000389D01*
X128714520Y-135112938D01*
X128714516Y-135112940D01*
X128535289Y-135243156D01*
X129054348Y-135762215D01*
X128998156Y-135799762D01*
X128879762Y-135918156D01*
X128842215Y-135974348D01*
X128323156Y-135455289D01*
X128192940Y-135634516D01*
X128192938Y-135634520D01*
X128080389Y-135855411D01*
X128003781Y-136091189D01*
X127965000Y-136336041D01*
X126035000Y-136336041D01*
X125996218Y-136091189D01*
X125919610Y-135855411D01*
X125807062Y-135634522D01*
X125676841Y-135455289D01*
X125157783Y-135974347D01*
X125120238Y-135918156D01*
X125001844Y-135799762D01*
X124945650Y-135762214D01*
X125464708Y-135243157D01*
X125285477Y-135112937D01*
X125064588Y-135000389D01*
X124828810Y-134923781D01*
X124583958Y-134885000D01*
X124336042Y-134885000D01*
X124091189Y-134923781D01*
X123855411Y-135000389D01*
X123634520Y-135112938D01*
X123634516Y-135112940D01*
X123455289Y-135243156D01*
X123974348Y-135762215D01*
X123918156Y-135799762D01*
X123799762Y-135918156D01*
X123762215Y-135974348D01*
X123243156Y-135455289D01*
X123112940Y-135634516D01*
X123112938Y-135634520D01*
X123000389Y-135855411D01*
X122923781Y-136091189D01*
X122885000Y-136336041D01*
X116115000Y-136336041D01*
X116076218Y-136091189D01*
X115999610Y-135855411D01*
X115887062Y-135634522D01*
X115756841Y-135455289D01*
X115237783Y-135974347D01*
X115200238Y-135918156D01*
X115081844Y-135799762D01*
X115025650Y-135762214D01*
X115544708Y-135243157D01*
X115365477Y-135112937D01*
X115144588Y-135000389D01*
X114908810Y-134923781D01*
X114663958Y-134885000D01*
X114416042Y-134885000D01*
X114171189Y-134923781D01*
X113935411Y-135000389D01*
X113714520Y-135112938D01*
X113714516Y-135112940D01*
X113535289Y-135243156D01*
X114054348Y-135762215D01*
X113998156Y-135799762D01*
X113879762Y-135918156D01*
X113842215Y-135974348D01*
X113323156Y-135455289D01*
X113192940Y-135634516D01*
X113192938Y-135634520D01*
X113080389Y-135855411D01*
X113003781Y-136091189D01*
X112965000Y-136336041D01*
X111035000Y-136336041D01*
X110996218Y-136091189D01*
X110919610Y-135855411D01*
X110807062Y-135634522D01*
X110676841Y-135455289D01*
X110157783Y-135974347D01*
X110120238Y-135918156D01*
X110001844Y-135799762D01*
X109945650Y-135762214D01*
X110464708Y-135243157D01*
X110285477Y-135112937D01*
X110064588Y-135000389D01*
X109828810Y-134923781D01*
X109583958Y-134885000D01*
X109336042Y-134885000D01*
X109091189Y-134923781D01*
X108855411Y-135000389D01*
X108634520Y-135112938D01*
X108634516Y-135112940D01*
X108455289Y-135243156D01*
X108974348Y-135762215D01*
X108918156Y-135799762D01*
X108799762Y-135918156D01*
X108762215Y-135974348D01*
X108243156Y-135455289D01*
X108112940Y-135634516D01*
X108112938Y-135634520D01*
X108000389Y-135855411D01*
X107923781Y-136091189D01*
X107885000Y-136336041D01*
X101115000Y-136336041D01*
X101076218Y-136091189D01*
X100999610Y-135855411D01*
X100887062Y-135634522D01*
X100756841Y-135455289D01*
X100237783Y-135974347D01*
X100200238Y-135918156D01*
X100081844Y-135799762D01*
X100025650Y-135762214D01*
X100544708Y-135243157D01*
X100365477Y-135112937D01*
X100144588Y-135000389D01*
X99908810Y-134923781D01*
X99663958Y-134885000D01*
X99416042Y-134885000D01*
X99171189Y-134923781D01*
X98935411Y-135000389D01*
X98714520Y-135112938D01*
X98714516Y-135112940D01*
X98535289Y-135243156D01*
X99054348Y-135762215D01*
X98998156Y-135799762D01*
X98879762Y-135918156D01*
X98842215Y-135974348D01*
X98323156Y-135455289D01*
X98192940Y-135634516D01*
X98192938Y-135634520D01*
X98080389Y-135855411D01*
X98003781Y-136091189D01*
X97965000Y-136336041D01*
X96035000Y-136336041D01*
X95996218Y-136091189D01*
X95919610Y-135855411D01*
X95807062Y-135634522D01*
X95676841Y-135455289D01*
X95157783Y-135974347D01*
X95120238Y-135918156D01*
X95001844Y-135799762D01*
X94945650Y-135762214D01*
X95464708Y-135243157D01*
X95285477Y-135112937D01*
X95064588Y-135000389D01*
X94828810Y-134923781D01*
X94583958Y-134885000D01*
X94336042Y-134885000D01*
X94091189Y-134923781D01*
X93855411Y-135000389D01*
X93634520Y-135112938D01*
X93634516Y-135112940D01*
X93455289Y-135243156D01*
X93974348Y-135762215D01*
X93918156Y-135799762D01*
X93799762Y-135918156D01*
X93762215Y-135974348D01*
X93243156Y-135455289D01*
X93112940Y-135634516D01*
X93112938Y-135634520D01*
X93000389Y-135855411D01*
X92923781Y-136091189D01*
X92885000Y-136336041D01*
X81115000Y-136336041D01*
X81076218Y-136091189D01*
X80999610Y-135855411D01*
X80887062Y-135634522D01*
X80756841Y-135455289D01*
X80237783Y-135974347D01*
X80200238Y-135918156D01*
X80081844Y-135799762D01*
X80025650Y-135762214D01*
X80544708Y-135243157D01*
X80365477Y-135112937D01*
X80144588Y-135000389D01*
X79908810Y-134923781D01*
X79663958Y-134885000D01*
X79416042Y-134885000D01*
X79171189Y-134923781D01*
X78935411Y-135000389D01*
X78714520Y-135112938D01*
X78714516Y-135112940D01*
X78535289Y-135243156D01*
X79054348Y-135762215D01*
X78998156Y-135799762D01*
X78879762Y-135918156D01*
X78842215Y-135974348D01*
X78323156Y-135455289D01*
X78192940Y-135634516D01*
X78192938Y-135634520D01*
X78080389Y-135855411D01*
X78003781Y-136091189D01*
X77965000Y-136336041D01*
X76035000Y-136336041D01*
X75996218Y-136091189D01*
X75919610Y-135855411D01*
X75807062Y-135634522D01*
X75676841Y-135455289D01*
X75157783Y-135974347D01*
X75120238Y-135918156D01*
X75001844Y-135799762D01*
X74945650Y-135762214D01*
X75464708Y-135243157D01*
X75285477Y-135112937D01*
X75064588Y-135000389D01*
X74828810Y-134923781D01*
X74583958Y-134885000D01*
X74336042Y-134885000D01*
X74091189Y-134923781D01*
X73855411Y-135000389D01*
X73634520Y-135112938D01*
X73634516Y-135112940D01*
X73455289Y-135243156D01*
X73974348Y-135762215D01*
X73918156Y-135799762D01*
X73799762Y-135918156D01*
X73762215Y-135974348D01*
X73243156Y-135455289D01*
X73112940Y-135634516D01*
X73112938Y-135634520D01*
X73000389Y-135855411D01*
X72923781Y-136091189D01*
X72885000Y-136336041D01*
X63000500Y-136336041D01*
X63000500Y-132334108D01*
X99699500Y-132334108D01*
X99699500Y-132465892D01*
X99729579Y-132578151D01*
X99733609Y-132593190D01*
X99799496Y-132707309D01*
X99799498Y-132707311D01*
X99799500Y-132707314D01*
X99892686Y-132800500D01*
X99892688Y-132800501D01*
X99892690Y-132800503D01*
X100006810Y-132866390D01*
X100006808Y-132866390D01*
X100006812Y-132866391D01*
X100006814Y-132866392D01*
X100134108Y-132900500D01*
X100134110Y-132900500D01*
X100265890Y-132900500D01*
X100265892Y-132900500D01*
X100393186Y-132866392D01*
X100393188Y-132866390D01*
X100393190Y-132866390D01*
X100507309Y-132800503D01*
X100507309Y-132800502D01*
X100507314Y-132800500D01*
X100600500Y-132707314D01*
X100666392Y-132593186D01*
X100700500Y-132465892D01*
X100700500Y-132334108D01*
X114699500Y-132334108D01*
X114699500Y-132465892D01*
X114729579Y-132578151D01*
X114733609Y-132593190D01*
X114799496Y-132707309D01*
X114799498Y-132707311D01*
X114799500Y-132707314D01*
X114892686Y-132800500D01*
X114892688Y-132800501D01*
X114892690Y-132800503D01*
X115006810Y-132866390D01*
X115006808Y-132866390D01*
X115006812Y-132866391D01*
X115006814Y-132866392D01*
X115134108Y-132900500D01*
X115134110Y-132900500D01*
X115265890Y-132900500D01*
X115265892Y-132900500D01*
X115393186Y-132866392D01*
X115393188Y-132866390D01*
X115393190Y-132866390D01*
X115507309Y-132800503D01*
X115507309Y-132800502D01*
X115507314Y-132800500D01*
X115600500Y-132707314D01*
X115666392Y-132593186D01*
X115700500Y-132465892D01*
X115700500Y-132334108D01*
X129699500Y-132334108D01*
X129699500Y-132465892D01*
X129729579Y-132578151D01*
X129733609Y-132593190D01*
X129799496Y-132707309D01*
X129799498Y-132707311D01*
X129799500Y-132707314D01*
X129892686Y-132800500D01*
X129892688Y-132800501D01*
X129892690Y-132800503D01*
X130006810Y-132866390D01*
X130006808Y-132866390D01*
X130006812Y-132866391D01*
X130006814Y-132866392D01*
X130134108Y-132900500D01*
X130134110Y-132900500D01*
X130265890Y-132900500D01*
X130265892Y-132900500D01*
X130393186Y-132866392D01*
X130393188Y-132866390D01*
X130393190Y-132866390D01*
X130507309Y-132800503D01*
X130507309Y-132800502D01*
X130507314Y-132800500D01*
X130600500Y-132707314D01*
X130666392Y-132593186D01*
X130700500Y-132465892D01*
X130700500Y-132334108D01*
X144699500Y-132334108D01*
X144699500Y-132465892D01*
X144729579Y-132578151D01*
X144733609Y-132593190D01*
X144799496Y-132707309D01*
X144799498Y-132707311D01*
X144799500Y-132707314D01*
X144892686Y-132800500D01*
X144892688Y-132800501D01*
X144892690Y-132800503D01*
X145006810Y-132866390D01*
X145006808Y-132866390D01*
X145006812Y-132866391D01*
X145006814Y-132866392D01*
X145134108Y-132900500D01*
X145134110Y-132900500D01*
X145265890Y-132900500D01*
X145265892Y-132900500D01*
X145393186Y-132866392D01*
X145393188Y-132866390D01*
X145393190Y-132866390D01*
X145507309Y-132800503D01*
X145507309Y-132800502D01*
X145507314Y-132800500D01*
X145600500Y-132707314D01*
X145666392Y-132593186D01*
X145700500Y-132465892D01*
X145700500Y-132334108D01*
X159699500Y-132334108D01*
X159699500Y-132465892D01*
X159729579Y-132578151D01*
X159733609Y-132593190D01*
X159799496Y-132707309D01*
X159799498Y-132707311D01*
X159799500Y-132707314D01*
X159892686Y-132800500D01*
X159892688Y-132800501D01*
X159892690Y-132800503D01*
X160006810Y-132866390D01*
X160006808Y-132866390D01*
X160006812Y-132866391D01*
X160006814Y-132866392D01*
X160134108Y-132900500D01*
X160134110Y-132900500D01*
X160265890Y-132900500D01*
X160265892Y-132900500D01*
X160393186Y-132866392D01*
X160393188Y-132866390D01*
X160393190Y-132866390D01*
X160507309Y-132800503D01*
X160507309Y-132800502D01*
X160507314Y-132800500D01*
X160600500Y-132707314D01*
X160666392Y-132593186D01*
X160700500Y-132465892D01*
X160700500Y-132334108D01*
X174699500Y-132334108D01*
X174699500Y-132465892D01*
X174729579Y-132578151D01*
X174733609Y-132593190D01*
X174799496Y-132707309D01*
X174799498Y-132707311D01*
X174799500Y-132707314D01*
X174892686Y-132800500D01*
X174892688Y-132800501D01*
X174892690Y-132800503D01*
X175006810Y-132866390D01*
X175006808Y-132866390D01*
X175006812Y-132866391D01*
X175006814Y-132866392D01*
X175134108Y-132900500D01*
X175134110Y-132900500D01*
X175265890Y-132900500D01*
X175265892Y-132900500D01*
X175393186Y-132866392D01*
X175393188Y-132866390D01*
X175393190Y-132866390D01*
X175507309Y-132800503D01*
X175507309Y-132800502D01*
X175507314Y-132800500D01*
X175600500Y-132707314D01*
X175666392Y-132593186D01*
X175700500Y-132465892D01*
X175700500Y-132334108D01*
X189699500Y-132334108D01*
X189699500Y-132465892D01*
X189729579Y-132578151D01*
X189733609Y-132593190D01*
X189799496Y-132707309D01*
X189799498Y-132707311D01*
X189799500Y-132707314D01*
X189892686Y-132800500D01*
X189892688Y-132800501D01*
X189892690Y-132800503D01*
X190006810Y-132866390D01*
X190006808Y-132866390D01*
X190006812Y-132866391D01*
X190006814Y-132866392D01*
X190134108Y-132900500D01*
X190134110Y-132900500D01*
X190265890Y-132900500D01*
X190265892Y-132900500D01*
X190393186Y-132866392D01*
X190393188Y-132866390D01*
X190393190Y-132866390D01*
X190507309Y-132800503D01*
X190507309Y-132800502D01*
X190507314Y-132800500D01*
X190600500Y-132707314D01*
X190666392Y-132593186D01*
X190700500Y-132465892D01*
X190700500Y-132334108D01*
X204699500Y-132334108D01*
X204699500Y-132465892D01*
X204729579Y-132578151D01*
X204733609Y-132593190D01*
X204799496Y-132707309D01*
X204799498Y-132707311D01*
X204799500Y-132707314D01*
X204892686Y-132800500D01*
X204892688Y-132800501D01*
X204892690Y-132800503D01*
X205006810Y-132866390D01*
X205006808Y-132866390D01*
X205006812Y-132866391D01*
X205006814Y-132866392D01*
X205134108Y-132900500D01*
X205134110Y-132900500D01*
X205265890Y-132900500D01*
X205265892Y-132900500D01*
X205393186Y-132866392D01*
X205393188Y-132866390D01*
X205393190Y-132866390D01*
X205507309Y-132800503D01*
X205507309Y-132800502D01*
X205507314Y-132800500D01*
X205600500Y-132707314D01*
X205666392Y-132593186D01*
X205700500Y-132465892D01*
X205700500Y-132334108D01*
X205666392Y-132206814D01*
X205666390Y-132206811D01*
X205666390Y-132206809D01*
X205600503Y-132092690D01*
X205600501Y-132092688D01*
X205600500Y-132092686D01*
X205507314Y-131999500D01*
X205507311Y-131999498D01*
X205507309Y-131999496D01*
X205393189Y-131933609D01*
X205393191Y-131933609D01*
X205343799Y-131920375D01*
X205265892Y-131899500D01*
X205134108Y-131899500D01*
X205056200Y-131920375D01*
X205006809Y-131933609D01*
X204892690Y-131999496D01*
X204799496Y-132092690D01*
X204733609Y-132206809D01*
X204733608Y-132206814D01*
X204699500Y-132334108D01*
X190700500Y-132334108D01*
X190666392Y-132206814D01*
X190666390Y-132206811D01*
X190666390Y-132206809D01*
X190600503Y-132092690D01*
X190600501Y-132092688D01*
X190600500Y-132092686D01*
X190507314Y-131999500D01*
X190507311Y-131999498D01*
X190507309Y-131999496D01*
X190393189Y-131933609D01*
X190393191Y-131933609D01*
X190343799Y-131920375D01*
X190265892Y-131899500D01*
X190134108Y-131899500D01*
X190056200Y-131920375D01*
X190006809Y-131933609D01*
X189892690Y-131999496D01*
X189799496Y-132092690D01*
X189733609Y-132206809D01*
X189733608Y-132206814D01*
X189699500Y-132334108D01*
X175700500Y-132334108D01*
X175666392Y-132206814D01*
X175666390Y-132206811D01*
X175666390Y-132206809D01*
X175600503Y-132092690D01*
X175600501Y-132092688D01*
X175600500Y-132092686D01*
X175507314Y-131999500D01*
X175507311Y-131999498D01*
X175507309Y-131999496D01*
X175393189Y-131933609D01*
X175393191Y-131933609D01*
X175343799Y-131920375D01*
X175265892Y-131899500D01*
X175134108Y-131899500D01*
X175056200Y-131920375D01*
X175006809Y-131933609D01*
X174892690Y-131999496D01*
X174799496Y-132092690D01*
X174733609Y-132206809D01*
X174733608Y-132206814D01*
X174699500Y-132334108D01*
X160700500Y-132334108D01*
X160666392Y-132206814D01*
X160666390Y-132206811D01*
X160666390Y-132206809D01*
X160600503Y-132092690D01*
X160600501Y-132092688D01*
X160600500Y-132092686D01*
X160507314Y-131999500D01*
X160507311Y-131999498D01*
X160507309Y-131999496D01*
X160393189Y-131933609D01*
X160393191Y-131933609D01*
X160343799Y-131920375D01*
X160265892Y-131899500D01*
X160134108Y-131899500D01*
X160056200Y-131920375D01*
X160006809Y-131933609D01*
X159892690Y-131999496D01*
X159799496Y-132092690D01*
X159733609Y-132206809D01*
X159733608Y-132206814D01*
X159699500Y-132334108D01*
X145700500Y-132334108D01*
X145666392Y-132206814D01*
X145666390Y-132206811D01*
X145666390Y-132206809D01*
X145600503Y-132092690D01*
X145600501Y-132092688D01*
X145600500Y-132092686D01*
X145507314Y-131999500D01*
X145507311Y-131999498D01*
X145507309Y-131999496D01*
X145393189Y-131933609D01*
X145393191Y-131933609D01*
X145343799Y-131920375D01*
X145265892Y-131899500D01*
X145134108Y-131899500D01*
X145056200Y-131920375D01*
X145006809Y-131933609D01*
X144892690Y-131999496D01*
X144799496Y-132092690D01*
X144733609Y-132206809D01*
X144733608Y-132206814D01*
X144699500Y-132334108D01*
X130700500Y-132334108D01*
X130666392Y-132206814D01*
X130666390Y-132206811D01*
X130666390Y-132206809D01*
X130600503Y-132092690D01*
X130600501Y-132092688D01*
X130600500Y-132092686D01*
X130507314Y-131999500D01*
X130507311Y-131999498D01*
X130507309Y-131999496D01*
X130393189Y-131933609D01*
X130393191Y-131933609D01*
X130343799Y-131920375D01*
X130265892Y-131899500D01*
X130134108Y-131899500D01*
X130056200Y-131920375D01*
X130006809Y-131933609D01*
X129892690Y-131999496D01*
X129799496Y-132092690D01*
X129733609Y-132206809D01*
X129733608Y-132206814D01*
X129699500Y-132334108D01*
X115700500Y-132334108D01*
X115666392Y-132206814D01*
X115666390Y-132206811D01*
X115666390Y-132206809D01*
X115600503Y-132092690D01*
X115600501Y-132092688D01*
X115600500Y-132092686D01*
X115507314Y-131999500D01*
X115507311Y-131999498D01*
X115507309Y-131999496D01*
X115393189Y-131933609D01*
X115393191Y-131933609D01*
X115343799Y-131920375D01*
X115265892Y-131899500D01*
X115134108Y-131899500D01*
X115056200Y-131920375D01*
X115006809Y-131933609D01*
X114892690Y-131999496D01*
X114799496Y-132092690D01*
X114733609Y-132206809D01*
X114733608Y-132206814D01*
X114699500Y-132334108D01*
X100700500Y-132334108D01*
X100666392Y-132206814D01*
X100666390Y-132206811D01*
X100666390Y-132206809D01*
X100600503Y-132092690D01*
X100600501Y-132092688D01*
X100600500Y-132092686D01*
X100507314Y-131999500D01*
X100507311Y-131999498D01*
X100507309Y-131999496D01*
X100393189Y-131933609D01*
X100393191Y-131933609D01*
X100343799Y-131920375D01*
X100265892Y-131899500D01*
X100134108Y-131899500D01*
X100056200Y-131920375D01*
X100006809Y-131933609D01*
X99892690Y-131999496D01*
X99799496Y-132092690D01*
X99733609Y-132206809D01*
X99733608Y-132206814D01*
X99699500Y-132334108D01*
X63000500Y-132334108D01*
X63000500Y-101434108D01*
X131499500Y-101434108D01*
X131499500Y-101565892D01*
X131529579Y-101678151D01*
X131533609Y-101693190D01*
X131599496Y-101807309D01*
X131599498Y-101807311D01*
X131599500Y-101807314D01*
X131692686Y-101900500D01*
X131692688Y-101900501D01*
X131692690Y-101900503D01*
X131806810Y-101966390D01*
X131806808Y-101966390D01*
X131806812Y-101966391D01*
X131806814Y-101966392D01*
X131934108Y-102000500D01*
X131934110Y-102000500D01*
X132065890Y-102000500D01*
X132065892Y-102000500D01*
X132193186Y-101966392D01*
X132193188Y-101966390D01*
X132193190Y-101966390D01*
X132307309Y-101900503D01*
X132307309Y-101900502D01*
X132307314Y-101900500D01*
X132400500Y-101807314D01*
X132466392Y-101693186D01*
X132500500Y-101565892D01*
X132500500Y-101434108D01*
X132466392Y-101306814D01*
X132466390Y-101306811D01*
X132466390Y-101306809D01*
X132400503Y-101192690D01*
X132400501Y-101192688D01*
X132400500Y-101192686D01*
X132307314Y-101099500D01*
X132307311Y-101099498D01*
X132307309Y-101099496D01*
X132193189Y-101033609D01*
X132193191Y-101033609D01*
X132143799Y-101020375D01*
X132065892Y-100999500D01*
X131934108Y-100999500D01*
X131856200Y-101020375D01*
X131806809Y-101033609D01*
X131692690Y-101099496D01*
X131599496Y-101192690D01*
X131533609Y-101306809D01*
X131533608Y-101306814D01*
X131499500Y-101434108D01*
X63000500Y-101434108D01*
X63000500Y-98834108D01*
X99099500Y-98834108D01*
X99099500Y-98965892D01*
X99129579Y-99078151D01*
X99133609Y-99093190D01*
X99199496Y-99207309D01*
X99199498Y-99207311D01*
X99199500Y-99207314D01*
X99292686Y-99300500D01*
X99292688Y-99300501D01*
X99292690Y-99300503D01*
X99406810Y-99366390D01*
X99406808Y-99366390D01*
X99406812Y-99366391D01*
X99406814Y-99366392D01*
X99534108Y-99400500D01*
X99534110Y-99400500D01*
X99665890Y-99400500D01*
X99665892Y-99400500D01*
X99793186Y-99366392D01*
X99793188Y-99366390D01*
X99793190Y-99366390D01*
X99907309Y-99300503D01*
X99907309Y-99300502D01*
X99907314Y-99300500D01*
X100000500Y-99207314D01*
X100066392Y-99093186D01*
X100100500Y-98965892D01*
X100100500Y-98834108D01*
X100066392Y-98706814D01*
X100066390Y-98706811D01*
X100066390Y-98706809D01*
X100000503Y-98592690D01*
X100000501Y-98592688D01*
X100000500Y-98592686D01*
X99907314Y-98499500D01*
X99907311Y-98499498D01*
X99907309Y-98499496D01*
X99880656Y-98484108D01*
X132299500Y-98484108D01*
X132299500Y-98615892D01*
X132323861Y-98706809D01*
X132333609Y-98743190D01*
X132399496Y-98857309D01*
X132399498Y-98857311D01*
X132399500Y-98857314D01*
X132492686Y-98950500D01*
X132492688Y-98950501D01*
X132492690Y-98950503D01*
X132606810Y-99016390D01*
X132606808Y-99016390D01*
X132606812Y-99016391D01*
X132606814Y-99016392D01*
X132734108Y-99050500D01*
X132734110Y-99050500D01*
X132865890Y-99050500D01*
X132865892Y-99050500D01*
X132993186Y-99016392D01*
X132993188Y-99016390D01*
X132993190Y-99016390D01*
X133107309Y-98950503D01*
X133107309Y-98950502D01*
X133107314Y-98950500D01*
X133200500Y-98857314D01*
X133200503Y-98857309D01*
X133266390Y-98743190D01*
X133266390Y-98743188D01*
X133266392Y-98743186D01*
X133300500Y-98615892D01*
X133300500Y-98484108D01*
X133266392Y-98356814D01*
X133266390Y-98356811D01*
X133266390Y-98356809D01*
X133200503Y-98242690D01*
X133200501Y-98242688D01*
X133200500Y-98242686D01*
X133107314Y-98149500D01*
X133107311Y-98149498D01*
X133107309Y-98149496D01*
X132993189Y-98083609D01*
X132993191Y-98083609D01*
X132943799Y-98070375D01*
X132865892Y-98049500D01*
X132734108Y-98049500D01*
X132656200Y-98070375D01*
X132606809Y-98083609D01*
X132492690Y-98149496D01*
X132399496Y-98242690D01*
X132333609Y-98356809D01*
X132333608Y-98356814D01*
X132299500Y-98484108D01*
X99880656Y-98484108D01*
X99793189Y-98433609D01*
X99793191Y-98433609D01*
X99743799Y-98420375D01*
X99665892Y-98399500D01*
X99534108Y-98399500D01*
X99456200Y-98420375D01*
X99406809Y-98433609D01*
X99292690Y-98499496D01*
X99199496Y-98592690D01*
X99133609Y-98706809D01*
X99133608Y-98706814D01*
X99099500Y-98834108D01*
X63000500Y-98834108D01*
X63000500Y-96784108D01*
X131499500Y-96784108D01*
X131499500Y-96915892D01*
X131529579Y-97028151D01*
X131533609Y-97043190D01*
X131599496Y-97157309D01*
X131599498Y-97157311D01*
X131599500Y-97157314D01*
X131692686Y-97250500D01*
X131692688Y-97250501D01*
X131692690Y-97250503D01*
X131806810Y-97316390D01*
X131806808Y-97316390D01*
X131806812Y-97316391D01*
X131806814Y-97316392D01*
X131934108Y-97350500D01*
X131934110Y-97350500D01*
X132065890Y-97350500D01*
X132065892Y-97350500D01*
X132193186Y-97316392D01*
X132193188Y-97316390D01*
X132193190Y-97316390D01*
X132307309Y-97250503D01*
X132307309Y-97250502D01*
X132307314Y-97250500D01*
X132400500Y-97157314D01*
X132466392Y-97043186D01*
X132500500Y-96915892D01*
X132500500Y-96784108D01*
X132466392Y-96656814D01*
X132466390Y-96656811D01*
X132466390Y-96656809D01*
X132400503Y-96542690D01*
X132400501Y-96542688D01*
X132400500Y-96542686D01*
X132307314Y-96449500D01*
X132307311Y-96449498D01*
X132307309Y-96449496D01*
X132193189Y-96383609D01*
X132193191Y-96383609D01*
X132143799Y-96370375D01*
X132065892Y-96349500D01*
X131934108Y-96349500D01*
X131856200Y-96370375D01*
X131806809Y-96383609D01*
X131692690Y-96449496D01*
X131599496Y-96542690D01*
X131533609Y-96656809D01*
X131533608Y-96656814D01*
X131499500Y-96784108D01*
X63000500Y-96784108D01*
X63000500Y-94334108D01*
X123849500Y-94334108D01*
X123849500Y-94465892D01*
X123879579Y-94578151D01*
X123883609Y-94593190D01*
X123949496Y-94707309D01*
X123949498Y-94707311D01*
X123949500Y-94707314D01*
X124042686Y-94800500D01*
X124042688Y-94800501D01*
X124042690Y-94800503D01*
X124156810Y-94866390D01*
X124156808Y-94866390D01*
X124156812Y-94866391D01*
X124156814Y-94866392D01*
X124284108Y-94900500D01*
X124284110Y-94900500D01*
X124415890Y-94900500D01*
X124415892Y-94900500D01*
X124543186Y-94866392D01*
X124543188Y-94866390D01*
X124543190Y-94866390D01*
X124657309Y-94800503D01*
X124657309Y-94800502D01*
X124657314Y-94800500D01*
X124750500Y-94707314D01*
X124816392Y-94593186D01*
X124850500Y-94465892D01*
X124850500Y-94334108D01*
X128249500Y-94334108D01*
X128249500Y-94465892D01*
X128279579Y-94578151D01*
X128283609Y-94593190D01*
X128349496Y-94707309D01*
X128349498Y-94707311D01*
X128349500Y-94707314D01*
X128442686Y-94800500D01*
X128442688Y-94800501D01*
X128442690Y-94800503D01*
X128556810Y-94866390D01*
X128556808Y-94866390D01*
X128556812Y-94866391D01*
X128556814Y-94866392D01*
X128684108Y-94900500D01*
X128684110Y-94900500D01*
X128815890Y-94900500D01*
X128815892Y-94900500D01*
X128943186Y-94866392D01*
X128943188Y-94866390D01*
X128943190Y-94866390D01*
X129057309Y-94800503D01*
X129057309Y-94800502D01*
X129057314Y-94800500D01*
X129150500Y-94707314D01*
X129216392Y-94593186D01*
X129250500Y-94465892D01*
X129250500Y-94334108D01*
X132749500Y-94334108D01*
X132749500Y-94465892D01*
X132779579Y-94578151D01*
X132783609Y-94593190D01*
X132849496Y-94707309D01*
X132849498Y-94707311D01*
X132849500Y-94707314D01*
X132942686Y-94800500D01*
X132942688Y-94800501D01*
X132942690Y-94800503D01*
X133056810Y-94866390D01*
X133056808Y-94866390D01*
X133056812Y-94866391D01*
X133056814Y-94866392D01*
X133184108Y-94900500D01*
X133184110Y-94900500D01*
X133315890Y-94900500D01*
X133315892Y-94900500D01*
X133443186Y-94866392D01*
X133443188Y-94866390D01*
X133443190Y-94866390D01*
X133557309Y-94800503D01*
X133557309Y-94800502D01*
X133557314Y-94800500D01*
X133650500Y-94707314D01*
X133716392Y-94593186D01*
X133750500Y-94465892D01*
X133750500Y-94334108D01*
X136899500Y-94334108D01*
X136899500Y-94465892D01*
X136929579Y-94578151D01*
X136933609Y-94593190D01*
X136999496Y-94707309D01*
X136999498Y-94707311D01*
X136999500Y-94707314D01*
X137092686Y-94800500D01*
X137092688Y-94800501D01*
X137092690Y-94800503D01*
X137206810Y-94866390D01*
X137206808Y-94866390D01*
X137206812Y-94866391D01*
X137206814Y-94866392D01*
X137334108Y-94900500D01*
X137334110Y-94900500D01*
X137465890Y-94900500D01*
X137465892Y-94900500D01*
X137593186Y-94866392D01*
X137593188Y-94866390D01*
X137593190Y-94866390D01*
X137707309Y-94800503D01*
X137707309Y-94800502D01*
X137707314Y-94800500D01*
X137800500Y-94707314D01*
X137866392Y-94593186D01*
X137900500Y-94465892D01*
X137900500Y-94334108D01*
X137866392Y-94206814D01*
X137866390Y-94206811D01*
X137866390Y-94206809D01*
X137800503Y-94092690D01*
X137800501Y-94092688D01*
X137800500Y-94092686D01*
X137707314Y-93999500D01*
X137707311Y-93999498D01*
X137707309Y-93999496D01*
X137593189Y-93933609D01*
X137593191Y-93933609D01*
X137543799Y-93920375D01*
X137465892Y-93899500D01*
X137334108Y-93899500D01*
X137256200Y-93920375D01*
X137206809Y-93933609D01*
X137092690Y-93999496D01*
X136999496Y-94092690D01*
X136933609Y-94206809D01*
X136933608Y-94206814D01*
X136899500Y-94334108D01*
X133750500Y-94334108D01*
X133716392Y-94206814D01*
X133716390Y-94206811D01*
X133716390Y-94206809D01*
X133650503Y-94092690D01*
X133650501Y-94092688D01*
X133650500Y-94092686D01*
X133557314Y-93999500D01*
X133557311Y-93999498D01*
X133557309Y-93999496D01*
X133443189Y-93933609D01*
X133443191Y-93933609D01*
X133393799Y-93920375D01*
X133315892Y-93899500D01*
X133184108Y-93899500D01*
X133106200Y-93920375D01*
X133056809Y-93933609D01*
X132942690Y-93999496D01*
X132849496Y-94092690D01*
X132783609Y-94206809D01*
X132783608Y-94206814D01*
X132749500Y-94334108D01*
X129250500Y-94334108D01*
X129216392Y-94206814D01*
X129216390Y-94206811D01*
X129216390Y-94206809D01*
X129150503Y-94092690D01*
X129150501Y-94092688D01*
X129150500Y-94092686D01*
X129057314Y-93999500D01*
X129057311Y-93999498D01*
X129057309Y-93999496D01*
X128943189Y-93933609D01*
X128943191Y-93933609D01*
X128893799Y-93920375D01*
X128815892Y-93899500D01*
X128684108Y-93899500D01*
X128606200Y-93920375D01*
X128556809Y-93933609D01*
X128442690Y-93999496D01*
X128349496Y-94092690D01*
X128283609Y-94206809D01*
X128283608Y-94206814D01*
X128249500Y-94334108D01*
X124850500Y-94334108D01*
X124816392Y-94206814D01*
X124816390Y-94206811D01*
X124816390Y-94206809D01*
X124750503Y-94092690D01*
X124750501Y-94092688D01*
X124750500Y-94092686D01*
X124657314Y-93999500D01*
X124657311Y-93999498D01*
X124657309Y-93999496D01*
X124543189Y-93933609D01*
X124543191Y-93933609D01*
X124493799Y-93920375D01*
X124415892Y-93899500D01*
X124284108Y-93899500D01*
X124206200Y-93920375D01*
X124156809Y-93933609D01*
X124042690Y-93999496D01*
X123949496Y-94092690D01*
X123883609Y-94206809D01*
X123883608Y-94206814D01*
X123849500Y-94334108D01*
X63000500Y-94334108D01*
X63000500Y-92284108D01*
X132249500Y-92284108D01*
X132249500Y-92415892D01*
X132279579Y-92528151D01*
X132283609Y-92543190D01*
X132349496Y-92657309D01*
X132349498Y-92657311D01*
X132349500Y-92657314D01*
X132442686Y-92750500D01*
X132442688Y-92750501D01*
X132442690Y-92750503D01*
X132556810Y-92816390D01*
X132556808Y-92816390D01*
X132556812Y-92816391D01*
X132556814Y-92816392D01*
X132684108Y-92850500D01*
X132684110Y-92850500D01*
X132815890Y-92850500D01*
X132815892Y-92850500D01*
X132943186Y-92816392D01*
X132943188Y-92816390D01*
X132943190Y-92816390D01*
X133057309Y-92750503D01*
X133057309Y-92750502D01*
X133057314Y-92750500D01*
X133150500Y-92657314D01*
X133216392Y-92543186D01*
X133250500Y-92415892D01*
X133250500Y-92284108D01*
X133216392Y-92156814D01*
X133216390Y-92156811D01*
X133216390Y-92156809D01*
X133150503Y-92042690D01*
X133150501Y-92042688D01*
X133150500Y-92042686D01*
X133057314Y-91949500D01*
X133057311Y-91949498D01*
X133057309Y-91949496D01*
X132943189Y-91883609D01*
X132943191Y-91883609D01*
X132893799Y-91870375D01*
X132815892Y-91849500D01*
X132684108Y-91849500D01*
X132606200Y-91870375D01*
X132556809Y-91883609D01*
X132442690Y-91949496D01*
X132349496Y-92042690D01*
X132283609Y-92156809D01*
X132283608Y-92156814D01*
X132249500Y-92284108D01*
X63000500Y-92284108D01*
X63000500Y-87084108D01*
X132249500Y-87084108D01*
X132249500Y-87215892D01*
X132272238Y-87300754D01*
X132283608Y-87343187D01*
X132316698Y-87400501D01*
X132329419Y-87460349D01*
X132316698Y-87499499D01*
X132283608Y-87556812D01*
X132260869Y-87641676D01*
X132249500Y-87684108D01*
X132249500Y-87815892D01*
X132279579Y-87928151D01*
X132283609Y-87943190D01*
X132349496Y-88057309D01*
X132349498Y-88057311D01*
X132349500Y-88057314D01*
X132442686Y-88150500D01*
X132442688Y-88150501D01*
X132442690Y-88150503D01*
X132556810Y-88216390D01*
X132556808Y-88216390D01*
X132556812Y-88216391D01*
X132556814Y-88216392D01*
X132684108Y-88250500D01*
X132684110Y-88250500D01*
X132815890Y-88250500D01*
X132815892Y-88250500D01*
X132943186Y-88216392D01*
X132943188Y-88216390D01*
X132943190Y-88216390D01*
X133057309Y-88150503D01*
X133057309Y-88150502D01*
X133057314Y-88150500D01*
X133150500Y-88057314D01*
X133216392Y-87943186D01*
X133250500Y-87815892D01*
X133250500Y-87684108D01*
X133216392Y-87556814D01*
X133183300Y-87499498D01*
X133170579Y-87439654D01*
X133183299Y-87400503D01*
X133216392Y-87343186D01*
X133250500Y-87215892D01*
X133250500Y-87084108D01*
X133216392Y-86956814D01*
X133216390Y-86956811D01*
X133216390Y-86956809D01*
X133150503Y-86842690D01*
X133150501Y-86842688D01*
X133150500Y-86842686D01*
X133057314Y-86749500D01*
X133057311Y-86749498D01*
X133057309Y-86749496D01*
X132943189Y-86683609D01*
X132943191Y-86683609D01*
X132893799Y-86670375D01*
X132815892Y-86649500D01*
X132684108Y-86649500D01*
X132606200Y-86670375D01*
X132556809Y-86683609D01*
X132442690Y-86749496D01*
X132349496Y-86842690D01*
X132283609Y-86956809D01*
X132283608Y-86956814D01*
X132249500Y-87084108D01*
X63000500Y-87084108D01*
X63000500Y-78134108D01*
X95599500Y-78134108D01*
X95599500Y-78265892D01*
X95629579Y-78378151D01*
X95633609Y-78393190D01*
X95699496Y-78507309D01*
X95699498Y-78507311D01*
X95699500Y-78507314D01*
X95792686Y-78600500D01*
X95792688Y-78600501D01*
X95792690Y-78600503D01*
X95906810Y-78666390D01*
X95906808Y-78666390D01*
X95906812Y-78666391D01*
X95906814Y-78666392D01*
X96034108Y-78700500D01*
X96034110Y-78700500D01*
X96165890Y-78700500D01*
X96165892Y-78700500D01*
X96293186Y-78666392D01*
X96293188Y-78666390D01*
X96293190Y-78666390D01*
X96407309Y-78600503D01*
X96407309Y-78600502D01*
X96407314Y-78600500D01*
X96500500Y-78507314D01*
X96566392Y-78393186D01*
X96600500Y-78265892D01*
X96600500Y-78134108D01*
X96566392Y-78006814D01*
X96566390Y-78006811D01*
X96566390Y-78006809D01*
X96500503Y-77892690D01*
X96500501Y-77892688D01*
X96500500Y-77892686D01*
X96407314Y-77799500D01*
X96407311Y-77799498D01*
X96407309Y-77799496D01*
X96293189Y-77733609D01*
X96293191Y-77733609D01*
X96243799Y-77720375D01*
X96165892Y-77699500D01*
X96034108Y-77699500D01*
X95956200Y-77720375D01*
X95906809Y-77733609D01*
X95792690Y-77799496D01*
X95699496Y-77892690D01*
X95633609Y-78006809D01*
X95633608Y-78006814D01*
X95599500Y-78134108D01*
X63000500Y-78134108D01*
X63000500Y-48878710D01*
X64149500Y-48878710D01*
X64149500Y-49121289D01*
X64181161Y-49361781D01*
X64181161Y-49361786D01*
X64243944Y-49596092D01*
X64243948Y-49596105D01*
X64336772Y-49820204D01*
X64336774Y-49820208D01*
X64336776Y-49820212D01*
X64398198Y-49926598D01*
X64458066Y-50030292D01*
X64605729Y-50222731D01*
X64605731Y-50222733D01*
X64605735Y-50222738D01*
X64777262Y-50394265D01*
X64777266Y-50394268D01*
X64777268Y-50394270D01*
X64814989Y-50423214D01*
X64969711Y-50541936D01*
X65179788Y-50663224D01*
X65403900Y-50756054D01*
X65638211Y-50818838D01*
X65878712Y-50850500D01*
X65878713Y-50850500D01*
X66121287Y-50850500D01*
X66121288Y-50850500D01*
X66361789Y-50818838D01*
X66596100Y-50756054D01*
X66820212Y-50663224D01*
X67030289Y-50541936D01*
X67222738Y-50394265D01*
X67394265Y-50222738D01*
X67541936Y-50030289D01*
X67663224Y-49820212D01*
X67756054Y-49596100D01*
X67818838Y-49361789D01*
X67850500Y-49121288D01*
X67850500Y-48878712D01*
X67818838Y-48638211D01*
X67756054Y-48403900D01*
X67663224Y-48179788D01*
X67541936Y-47969711D01*
X67394265Y-47777262D01*
X67222738Y-47605735D01*
X67222733Y-47605731D01*
X67222731Y-47605729D01*
X67030292Y-47458066D01*
X67030289Y-47458064D01*
X66820212Y-47336776D01*
X66820208Y-47336774D01*
X66820204Y-47336772D01*
X66596105Y-47243948D01*
X66596104Y-47243947D01*
X66596100Y-47243946D01*
X66361789Y-47181162D01*
X66361786Y-47181161D01*
X66361784Y-47181161D01*
X66121289Y-47149500D01*
X66121288Y-47149500D01*
X65878712Y-47149500D01*
X65878710Y-47149500D01*
X65638218Y-47181161D01*
X65638213Y-47181161D01*
X65403907Y-47243944D01*
X65403894Y-47243948D01*
X65179795Y-47336772D01*
X64969707Y-47458066D01*
X64777268Y-47605729D01*
X64605729Y-47777268D01*
X64458066Y-47969707D01*
X64336772Y-48179795D01*
X64243948Y-48403894D01*
X64243944Y-48403907D01*
X64181161Y-48638213D01*
X64181161Y-48638218D01*
X64149500Y-48878710D01*
X63000500Y-48878710D01*
X63000500Y-48003240D01*
X63000712Y-47996765D01*
X63002485Y-47969711D01*
X63017182Y-47745480D01*
X63018869Y-47732659D01*
X63067367Y-47488845D01*
X63070714Y-47476352D01*
X63150618Y-47240965D01*
X63155574Y-47229003D01*
X63265512Y-47006070D01*
X63271983Y-46994859D01*
X63410089Y-46788169D01*
X63417964Y-46777907D01*
X63581870Y-46591008D01*
X63591008Y-46581870D01*
X63777907Y-46417964D01*
X63788169Y-46410089D01*
X63994859Y-46271983D01*
X64006070Y-46265512D01*
X64229003Y-46155574D01*
X64240966Y-46150618D01*
X64303622Y-46129349D01*
X64476352Y-46070714D01*
X64488845Y-46067367D01*
X64732659Y-46018869D01*
X64745480Y-46017182D01*
X64996766Y-46000712D01*
X65003241Y-46000500D01*
X65092710Y-46000500D01*
X72812445Y-46000500D01*
X72870636Y-46019407D01*
G37*
%TD.AperFunction*%
%TD*%
%TA.AperFunction,Conductor*%
%TO.N,GND_BUS*%
G36*
X90167685Y-46020185D02*
G01*
X90213440Y-46072989D01*
X90224616Y-46121780D01*
X90388576Y-53593679D01*
X90370367Y-53661134D01*
X90318580Y-53708036D01*
X90249656Y-53719494D01*
X90185479Y-53691871D01*
X90146424Y-53633936D01*
X90141666Y-53612580D01*
X90141075Y-53608093D01*
X90141074Y-53608089D01*
X90067860Y-53334846D01*
X89959605Y-53073496D01*
X89959600Y-53073485D01*
X89818165Y-52828514D01*
X89818159Y-52828506D01*
X89712605Y-52690946D01*
X89712604Y-52690946D01*
X88992085Y-53411465D01*
X88897171Y-53280825D01*
X88769175Y-53152829D01*
X88638532Y-53057912D01*
X89359052Y-52337393D01*
X89221493Y-52231840D01*
X89221485Y-52231834D01*
X88976514Y-52090399D01*
X88976503Y-52090394D01*
X88715153Y-51982139D01*
X88441910Y-51908925D01*
X88441897Y-51908922D01*
X88161452Y-51872001D01*
X88161436Y-51872000D01*
X87878564Y-51872000D01*
X87878547Y-51872001D01*
X87598102Y-51908922D01*
X87598089Y-51908925D01*
X87324846Y-51982139D01*
X87063496Y-52090394D01*
X87063485Y-52090399D01*
X86818514Y-52231834D01*
X86818498Y-52231845D01*
X86680946Y-52337392D01*
X86680946Y-52337393D01*
X87401466Y-53057913D01*
X87270825Y-53152829D01*
X87142829Y-53280825D01*
X87047913Y-53411466D01*
X86327393Y-52690946D01*
X86327392Y-52690946D01*
X86221845Y-52828498D01*
X86221834Y-52828514D01*
X86080399Y-53073485D01*
X86080394Y-53073496D01*
X85972139Y-53334846D01*
X85898925Y-53608089D01*
X85898922Y-53608102D01*
X85862001Y-53888547D01*
X85862000Y-53888563D01*
X85862000Y-54171436D01*
X85862001Y-54171452D01*
X85898922Y-54451897D01*
X85898925Y-54451910D01*
X85972139Y-54725153D01*
X86080394Y-54986503D01*
X86080399Y-54986514D01*
X86221834Y-55231485D01*
X86221840Y-55231493D01*
X86327393Y-55369052D01*
X87047912Y-54648532D01*
X87142829Y-54779175D01*
X87270825Y-54907171D01*
X87401465Y-55002086D01*
X86680946Y-55722604D01*
X86680946Y-55722605D01*
X86818506Y-55828159D01*
X86818514Y-55828165D01*
X87063485Y-55969600D01*
X87063496Y-55969605D01*
X87324846Y-56077860D01*
X87598089Y-56151074D01*
X87598102Y-56151077D01*
X87878547Y-56187998D01*
X87878564Y-56188000D01*
X88161436Y-56188000D01*
X88161452Y-56187998D01*
X88441897Y-56151077D01*
X88441910Y-56151074D01*
X88715153Y-56077860D01*
X88976503Y-55969605D01*
X88976514Y-55969600D01*
X89221485Y-55828165D01*
X89221503Y-55828153D01*
X89359052Y-55722606D01*
X89359052Y-55722604D01*
X88638533Y-55002086D01*
X88769175Y-54907171D01*
X88897171Y-54779175D01*
X88992086Y-54648534D01*
X89712604Y-55369052D01*
X89712606Y-55369052D01*
X89818153Y-55231503D01*
X89818165Y-55231485D01*
X89959600Y-54986514D01*
X89959605Y-54986503D01*
X90067860Y-54725153D01*
X90141074Y-54451910D01*
X90141077Y-54451897D01*
X90157978Y-54323523D01*
X90186244Y-54259626D01*
X90244569Y-54221155D01*
X90314433Y-54220324D01*
X90373657Y-54257396D01*
X90403436Y-54320602D01*
X90404886Y-54336986D01*
X90742218Y-69709651D01*
X90897208Y-76772767D01*
X90878999Y-76840222D01*
X90827212Y-76887124D01*
X90772737Y-76899486D01*
X73682582Y-76830492D01*
X73615623Y-76810537D01*
X73570082Y-76757549D01*
X73559091Y-76707893D01*
X73355064Y-58635388D01*
X73347349Y-57951982D01*
X73332588Y-56644456D01*
X79536000Y-56644456D01*
X79536000Y-56835543D01*
X79565893Y-57024280D01*
X79565893Y-57024283D01*
X79624940Y-57206011D01*
X79624942Y-57206014D01*
X79711696Y-57376279D01*
X79732092Y-57404351D01*
X79732093Y-57404352D01*
X80299697Y-56836748D01*
X80321349Y-56917553D01*
X80381909Y-57022446D01*
X80467554Y-57108091D01*
X80572447Y-57168651D01*
X80653250Y-57190302D01*
X80085646Y-57757905D01*
X80090820Y-57761664D01*
X80133485Y-57816994D01*
X80139464Y-57886608D01*
X80106858Y-57948402D01*
X80105616Y-57949663D01*
X79961985Y-58093294D01*
X79850965Y-58259447D01*
X79850960Y-58259457D01*
X79774486Y-58444080D01*
X79774484Y-58444088D01*
X79735500Y-58640075D01*
X79735500Y-58839924D01*
X79774484Y-59035911D01*
X79774486Y-59035919D01*
X79850960Y-59220542D01*
X79850965Y-59220552D01*
X79961985Y-59386706D01*
X80103293Y-59528014D01*
X80269447Y-59639034D01*
X80269451Y-59639036D01*
X80269454Y-59639038D01*
X80454081Y-59715514D01*
X80650075Y-59754499D01*
X80650079Y-59754500D01*
X80650080Y-59754500D01*
X80849921Y-59754500D01*
X80849922Y-59754499D01*
X81045919Y-59715514D01*
X81230546Y-59639038D01*
X81396706Y-59528014D01*
X81538014Y-59386706D01*
X81649038Y-59220546D01*
X81725514Y-59035919D01*
X81764500Y-58839920D01*
X81764500Y-58640080D01*
X81725514Y-58444081D01*
X81649038Y-58259454D01*
X81649036Y-58259451D01*
X81649034Y-58259447D01*
X81538014Y-58093293D01*
X81394384Y-57949663D01*
X81360899Y-57888340D01*
X81365883Y-57818648D01*
X81407755Y-57762715D01*
X81409178Y-57761665D01*
X81414351Y-57757906D01*
X81414351Y-57757905D01*
X80846750Y-57190302D01*
X80927553Y-57168651D01*
X81032446Y-57108091D01*
X81118091Y-57022446D01*
X81178651Y-56917553D01*
X81200302Y-56836749D01*
X81767905Y-57404351D01*
X81767906Y-57404351D01*
X81788305Y-57376275D01*
X81875057Y-57206014D01*
X81875059Y-57206011D01*
X81934106Y-57024283D01*
X81934106Y-57024280D01*
X81964000Y-56835543D01*
X81964000Y-56644465D01*
X81963998Y-56644447D01*
X81963306Y-56640075D01*
X82235500Y-56640075D01*
X82235500Y-56839924D01*
X82274484Y-57035911D01*
X82274486Y-57035919D01*
X82350960Y-57220542D01*
X82350965Y-57220552D01*
X82461985Y-57386706D01*
X82603290Y-57528011D01*
X82603294Y-57528014D01*
X82766250Y-57636898D01*
X82811055Y-57690510D01*
X82819762Y-57759835D01*
X82789608Y-57822862D01*
X82766250Y-57843102D01*
X82603294Y-57951985D01*
X82603290Y-57951988D01*
X82461985Y-58093293D01*
X82350965Y-58259447D01*
X82350960Y-58259457D01*
X82274486Y-58444080D01*
X82274484Y-58444088D01*
X82235500Y-58640075D01*
X82235500Y-58839924D01*
X82274484Y-59035911D01*
X82274486Y-59035919D01*
X82350960Y-59220542D01*
X82350965Y-59220552D01*
X82461985Y-59386706D01*
X82603293Y-59528014D01*
X82769447Y-59639034D01*
X82769451Y-59639036D01*
X82769454Y-59639038D01*
X82954081Y-59715514D01*
X83150075Y-59754499D01*
X83150079Y-59754500D01*
X83150080Y-59754500D01*
X83349921Y-59754500D01*
X83349922Y-59754499D01*
X83545919Y-59715514D01*
X83730546Y-59639038D01*
X83896706Y-59528014D01*
X84038014Y-59386706D01*
X84149038Y-59220546D01*
X84225514Y-59035919D01*
X84264500Y-58839920D01*
X84264500Y-58640080D01*
X84225514Y-58444081D01*
X84149038Y-58259454D01*
X84149036Y-58259451D01*
X84149034Y-58259447D01*
X84038014Y-58093293D01*
X83896709Y-57951988D01*
X83896701Y-57951982D01*
X83733750Y-57843102D01*
X83688944Y-57789490D01*
X83680237Y-57720165D01*
X83710391Y-57657138D01*
X83733750Y-57636898D01*
X83849402Y-57559620D01*
X83896706Y-57528014D01*
X84038014Y-57386706D01*
X84149038Y-57220546D01*
X84225514Y-57035919D01*
X84264500Y-56839920D01*
X84264500Y-56640080D01*
X84225514Y-56444081D01*
X84149038Y-56259454D01*
X84149036Y-56259451D01*
X84149034Y-56259447D01*
X84038014Y-56093293D01*
X83896706Y-55951985D01*
X83730552Y-55840965D01*
X83730542Y-55840960D01*
X83605614Y-55789213D01*
X83545919Y-55764486D01*
X83545911Y-55764484D01*
X83349924Y-55725500D01*
X83349920Y-55725500D01*
X83150080Y-55725500D01*
X83150075Y-55725500D01*
X82954088Y-55764484D01*
X82954080Y-55764486D01*
X82769457Y-55840960D01*
X82769447Y-55840965D01*
X82603293Y-55951985D01*
X82461985Y-56093293D01*
X82350965Y-56259447D01*
X82350960Y-56259457D01*
X82274486Y-56444080D01*
X82274484Y-56444088D01*
X82235500Y-56640075D01*
X81963306Y-56640075D01*
X81934106Y-56455719D01*
X81934106Y-56455716D01*
X81875059Y-56273988D01*
X81875057Y-56273985D01*
X81788305Y-56103724D01*
X81767905Y-56075647D01*
X81767905Y-56075646D01*
X81200302Y-56643249D01*
X81178651Y-56562447D01*
X81118091Y-56457554D01*
X81032446Y-56371909D01*
X80927553Y-56311349D01*
X80846749Y-56289697D01*
X81414352Y-55722093D01*
X81414351Y-55722092D01*
X81386279Y-55701696D01*
X81216014Y-55614942D01*
X81216011Y-55614940D01*
X81034282Y-55555893D01*
X80845543Y-55526000D01*
X80654457Y-55526000D01*
X80465719Y-55555893D01*
X80465716Y-55555893D01*
X80283988Y-55614940D01*
X80283985Y-55614941D01*
X80113721Y-55701696D01*
X80085647Y-55722092D01*
X80085647Y-55722093D01*
X80653251Y-56289697D01*
X80572447Y-56311349D01*
X80467554Y-56371909D01*
X80381909Y-56457554D01*
X80321349Y-56562447D01*
X80299697Y-56643251D01*
X79732093Y-56075647D01*
X79732092Y-56075647D01*
X79711696Y-56103721D01*
X79624941Y-56273985D01*
X79624940Y-56273988D01*
X79565893Y-56455716D01*
X79565893Y-56455719D01*
X79536000Y-56644456D01*
X73332588Y-56644456D01*
X73301475Y-53888563D01*
X73822000Y-53888563D01*
X73822000Y-54171436D01*
X73822001Y-54171452D01*
X73858922Y-54451897D01*
X73858925Y-54451910D01*
X73932139Y-54725153D01*
X74040394Y-54986503D01*
X74040399Y-54986514D01*
X74181834Y-55231485D01*
X74181840Y-55231493D01*
X74287393Y-55369052D01*
X75007912Y-54648532D01*
X75102829Y-54779175D01*
X75230825Y-54907171D01*
X75361465Y-55002086D01*
X74640946Y-55722604D01*
X74640946Y-55722605D01*
X74778506Y-55828159D01*
X74778514Y-55828165D01*
X75023485Y-55969600D01*
X75023496Y-55969605D01*
X75284846Y-56077860D01*
X75558089Y-56151074D01*
X75558102Y-56151077D01*
X75838547Y-56187998D01*
X75838564Y-56188000D01*
X76121436Y-56188000D01*
X76121452Y-56187998D01*
X76401897Y-56151077D01*
X76401910Y-56151074D01*
X76675153Y-56077860D01*
X76936503Y-55969605D01*
X76936514Y-55969600D01*
X77181485Y-55828165D01*
X77181503Y-55828153D01*
X77319052Y-55722607D01*
X77319052Y-55722604D01*
X76598533Y-55002086D01*
X76729175Y-54907171D01*
X76857171Y-54779175D01*
X76952086Y-54648534D01*
X77672604Y-55369052D01*
X77672606Y-55369052D01*
X77778153Y-55231503D01*
X77778165Y-55231485D01*
X77919600Y-54986514D01*
X77919605Y-54986503D01*
X78027860Y-54725153D01*
X78101074Y-54451910D01*
X78101077Y-54451897D01*
X78137998Y-54171452D01*
X78138000Y-54171436D01*
X78138000Y-53888563D01*
X78137998Y-53888547D01*
X78101077Y-53608102D01*
X78101074Y-53608089D01*
X78027860Y-53334846D01*
X77919605Y-53073496D01*
X77919600Y-53073485D01*
X77778165Y-52828514D01*
X77778159Y-52828506D01*
X77672605Y-52690946D01*
X77672604Y-52690946D01*
X76952085Y-53411465D01*
X76857171Y-53280825D01*
X76729175Y-53152829D01*
X76598532Y-53057912D01*
X77319052Y-52337393D01*
X77181493Y-52231840D01*
X77181485Y-52231834D01*
X76936514Y-52090399D01*
X76936503Y-52090394D01*
X76675153Y-51982139D01*
X76401910Y-51908925D01*
X76401897Y-51908922D01*
X76121452Y-51872001D01*
X76121436Y-51872000D01*
X75838564Y-51872000D01*
X75838547Y-51872001D01*
X75558102Y-51908922D01*
X75558089Y-51908925D01*
X75284846Y-51982139D01*
X75023496Y-52090394D01*
X75023485Y-52090399D01*
X74778514Y-52231834D01*
X74778498Y-52231845D01*
X74640946Y-52337392D01*
X74640946Y-52337393D01*
X75361466Y-53057913D01*
X75230825Y-53152829D01*
X75102829Y-53280825D01*
X75007913Y-53411466D01*
X74287393Y-52690946D01*
X74287392Y-52690946D01*
X74181845Y-52828498D01*
X74181834Y-52828514D01*
X74040399Y-53073485D01*
X74040394Y-53073496D01*
X73932139Y-53334846D01*
X73858925Y-53608089D01*
X73858922Y-53608102D01*
X73822001Y-53888547D01*
X73822000Y-53888563D01*
X73301475Y-53888563D01*
X73279953Y-51982139D01*
X73213840Y-46125900D01*
X73232766Y-46058642D01*
X73285051Y-46012294D01*
X73337832Y-46000500D01*
X90100646Y-46000500D01*
X90167685Y-46020185D01*
G37*
%TD.AperFunction*%
%TD*%
M02*
